<svg xmlns="http://www.w3.org/2000/svg" width="1500" height="1500" viewBox="0 0 1500 1500" version="1.1">
	<path d="M 771.500 43.894 L 767.500 44.500 767.500 52 C 767.500 60.302, 765.196 65.631, 759.100 71.427 C 756.397 73.996, 755.343 74.336, 750.467 74.208 C 743.402 74.022, 743.248 74.451, 745.953 86.731 C 747.136 92.104, 748.496 101.900, 748.975 108.500 C 749.453 115.100, 750.373 122.750, 751.017 125.500 C 752.795 133.083, 752.600 144.660, 750.581 151.321 C 748.664 157.646, 748.773 160.586, 751.494 176 C 753.834 189.261, 753.787 193.344, 751.190 202.500 C 749.943 206.900, 748.659 213.425, 748.338 217 C 748.017 220.575, 746.912 226.064, 745.884 229.197 C 744.358 233.846, 744.133 236.561, 744.657 243.947 C 745.329 253.413, 744.587 255.104, 741.620 250.869 C 740.710 249.568, 739.518 248.971, 738.564 249.337 C 736.644 250.074, 736.324 264.423, 738.139 268.406 C 739.072 270.454, 738.872 271.994, 737.036 276.905 C 733.918 285.242, 734.459 311.714, 737.958 322 C 741.411 332.153, 740.540 341.247, 735.399 348.712 L 731.500 354.373 731.424 366.937 C 731.364 376.823, 730.961 380.352, 729.532 383.500 C 727.413 388.166, 725.003 399.804, 725.001 405.379 C 725 408.406, 724.232 410.108, 721.500 413.132 C 717.678 417.362, 717.138 419.995, 719.589 422.446 C 721.041 423.898, 720.989 424.188, 718.984 425.812 C 717.226 427.236, 716.626 429.169, 715.962 435.544 C 714.730 447.386, 708.156 465.299, 703.467 469.594 C 699.882 472.878, 699.852 472.970, 700.554 478.706 C 700.944 481.893, 701.844 484.840, 702.553 485.256 C 707.119 487.931, 708.302 509.205, 704.425 518.896 C 703.028 522.388, 702.348 523, 699.867 523 C 697.656 523, 696.714 523.621, 695.975 525.565 C 693.622 531.755, 695.713 568.199, 698.954 577.464 C 700.697 582.450, 700.940 584.828, 700.433 591.964 C 699.972 598.464, 700.205 601.544, 701.414 604.876 C 704.156 612.439, 702.635 624.326, 696.946 639.788 C 695.873 642.703, 695 647.606, 695 650.718 C 695 656.118, 694.807 656.540, 690.500 660.551 C 687.091 663.725, 686 665.471, 686 667.752 C 686 672.484, 682.137 696.951, 680.489 702.654 C 679.670 705.489, 679 708.942, 679 710.327 C 679 711.713, 677.458 714.868, 675.572 717.337 C 673.323 720.285, 671.396 724.603, 669.966 729.904 C 668.767 734.345, 666.480 739.952, 664.883 742.363 C 661.414 747.600, 655.621 763.974, 654.038 773.015 C 652.254 783.208, 651.201 785.560, 646.471 789.920 C 641.190 794.788, 639.560 794.984, 637.500 791 C 635.664 787.450, 633.004 787.007, 632.991 790.250 C 632.987 791.487, 632.705 794.806, 632.367 797.625 C 631.834 802.058, 632.050 803.050, 633.968 804.968 C 635.355 806.355, 635.990 807.929, 635.665 809.173 C 635.379 810.266, 635.788 812.981, 636.573 815.206 C 637.358 817.431, 638 821.609, 638 824.491 C 638 828.326, 638.572 830.458, 640.134 832.443 C 642.053 834.883, 642.145 835.532, 641.041 838.876 C 639.546 843.407, 640.789 848.998, 644.959 856.500 C 646.677 859.590, 648.203 864.489, 648.954 869.323 L 650.169 877.146 647.334 881.213 C 643.033 887.384, 642.032 889.315, 641.999 891.500 C 641.958 894.260, 641.054 895.412, 637 897.871 L 633.500 899.994 633.441 907.747 C 633.409 912.011, 632.623 919.550, 631.695 924.500 C 628.556 941.245, 630.414 956.216, 636.262 961.293 L 638.327 963.085 636.320 965.793 C 635.216 967.282, 632.780 969.008, 630.906 969.628 C 627.674 970.698, 627.406 971.157, 625.651 978.628 C 624.609 983.062, 623.731 990.867, 623.639 996.500 C 623.503 1004.870, 623.013 1007.691, 620.630 1013.805 C 619.064 1017.823, 617.719 1022.548, 617.641 1024.305 C 617.504 1027.410, 617.613 1027.496, 621.500 1027.367 C 627.527 1027.167, 634.327 1025.868, 635.905 1024.615 C 639.917 1021.431, 642.584 1008.705, 640.496 1002.711 C 638.308 996.429, 638.619 994.707, 643 988.877 C 647.550 982.822, 647.799 981.030, 645 974.500 C 643.900 971.934, 643 969.689, 643 969.512 C 643 968.748, 652.003 964, 653.453 964 C 655.224 964, 657 960.200, 657 956.409 C 657 953.978, 657.037 953.968, 660.109 955.556 C 663.420 957.269, 663.350 956.675, 661.299 965.637 C 660.934 967.231, 661.575 968.227, 663.820 969.553 C 666.313 971.026, 669 974.653, 669 976.547 C 669 976.796, 667.511 977, 665.691 977 C 663.871 977, 661.515 977.634, 660.456 978.409 C 658.588 979.774, 658.628 979.954, 661.765 984.322 C 665.570 989.621, 665.602 989.885, 663 994.739 C 660.579 999.256, 660.558 999.806, 662.642 1003.985 C 664.240 1007.188, 664.221 1007.325, 661.907 1009.070 C 659.014 1011.252, 656.600 1022.581, 656.647 1033.750 C 656.668 1038.792, 656.307 1041, 655.461 1041 C 652.856 1041, 651.496 1044.544, 650.894 1052.895 C 650.437 1059.232, 649.579 1062.933, 647.637 1066.937 C 644.591 1073.218, 644.412 1075.491, 646.545 1080.821 C 648.049 1084.580, 648.016 1084.796, 645.304 1088.938 C 642.653 1092.987, 642.486 1093.080, 641.859 1090.847 C 641.496 1089.556, 641.128 1085.350, 641.040 1081.500 C 640.952 1077.650, 640.446 1072.250, 639.914 1069.500 C 637.509 1057.059, 637.558 1055.523, 640.393 1054.231 C 644.115 1052.535, 643.632 1050.036, 638.630 1045.127 C 634.447 1041.022, 634.069 1040.867, 629.795 1041.508 C 623.622 1042.434, 622.237 1043.376, 623.974 1045.468 C 625.126 1046.857, 625.016 1047.300, 623.203 1048.571 C 622.039 1049.386, 619.314 1053.659, 617.146 1058.067 C 613.627 1065.224, 613.326 1066.404, 614.339 1069.086 C 615.652 1072.566, 614.364 1073.959, 609.809 1073.985 C 608.329 1073.993, 606.885 1074.377, 606.601 1074.837 C 605.722 1076.258, 609 1080, 611.122 1080 C 616.418 1080, 618.573 1084.844, 614.369 1087.300 C 612.596 1088.335, 612.616 1092.007, 614.408 1094.566 C 615.607 1096.277, 615.615 1097.353, 614.463 1101.795 C 612.750 1108.398, 612.630 1108.577, 607.878 1111.577 C 602.126 1115.208, 601.253 1117.789, 603.435 1124.712 C 605.161 1130.186, 605.158 1130.410, 603.359 1131.681 C 599.812 1134.186, 597 1137.217, 597 1138.532 C 597 1139.260, 595.931 1140.696, 594.624 1141.724 C 591.666 1144.051, 588 1151.086, 588 1154.437 C 588 1156.044, 588.940 1157.570, 590.601 1158.658 C 593.761 1160.729, 595.188 1160.019, 599.711 1154.129 L 602.921 1149.947 604.366 1152.724 C 607.288 1158.342, 610.678 1160.493, 616.746 1160.581 C 621.578 1160.652, 622.443 1160.964, 623.159 1162.901 C 623.828 1164.710, 623.413 1165.623, 620.994 1167.659 C 619.347 1169.044, 618.005 1170.925, 618.010 1171.839 C 618.016 1172.753, 617.012 1176.369, 615.781 1179.876 C 613.232 1187.132, 610.711 1189.101, 606.453 1187.161 C 599.748 1184.106, 594.780 1186.740, 597.462 1191.927 C 599.039 1194.977, 599.028 1195.013, 595.775 1196.996 C 593.974 1198.094, 592.195 1198.994, 591.822 1198.996 C 591.098 1199, 590.358 1204.876, 589.556 1217 C 589.284 1221.125, 588.765 1227.710, 588.404 1231.633 C 587.802 1238.182, 587.973 1239.180, 590.496 1243.815 C 592.786 1248.022, 593.077 1249.339, 592.248 1251.720 C 591.054 1255.145, 593.145 1266.833, 595.187 1268.152 C 595.909 1268.619, 598.201 1269.471, 600.280 1270.047 L 604.060 1271.093 601.178 1273.976 C 598.192 1276.962, 596.829 1282.327, 596.604 1291.979 C 596.441 1299.002, 598.677 1298.290, 605.849 1289.037 C 609.275 1284.617, 612.255 1281, 612.470 1281 C 612.685 1281, 612.442 1282.460, 611.930 1284.243 C 611.419 1286.027, 611 1288.952, 611 1290.743 C 611 1292.937, 610.522 1294, 609.535 1294 C 607.130 1294, 606 1297.457, 606 1304.812 C 606 1308.722, 605.345 1313.324, 604.500 1315.346 C 602.626 1319.831, 602.555 1328.009, 604.369 1330.490 C 605.683 1332.287, 605.932 1332.234, 610.540 1329.181 C 615.443 1325.933, 619.323 1325.218, 622 1327.067 C 623.303 1327.967, 623.254 1328.261, 621.629 1329.302 C 620.601 1329.961, 618.351 1331.509, 616.629 1332.743 C 614.908 1333.977, 612.057 1335.922, 610.294 1337.066 C 605.069 1340.456, 605.068 1342.664, 610.289 1347.457 C 612.775 1349.740, 615.551 1353.384, 616.458 1355.554 C 618.730 1360.995, 622.376 1364.544, 630 1368.739 C 636.580 1372.360, 641 1375.722, 641 1377.107 C 641 1379.039, 636.772 1378.923, 632.807 1376.882 C 628.005 1374.410, 616.023 1373.561, 615.301 1375.642 C 614.951 1376.652, 627.719 1386, 629.449 1386 C 631.107 1386, 640 1390.336, 640 1391.145 C 640 1391.639, 638.900 1392.544, 637.555 1393.157 C 632.239 1395.579, 634.468 1400.514, 642 1403 C 647.692 1404.878, 650.542 1408.159, 648.844 1410.878 C 647.224 1413.472, 648.453 1414.795, 655 1417.506 C 657.475 1418.531, 660.553 1420.299, 661.840 1421.435 C 663.401 1422.812, 665.559 1423.500, 668.319 1423.500 C 672.124 1423.500, 672.500 1423.739, 672.984 1426.473 C 673.549 1429.662, 677.268 1432.319, 680.192 1431.621 C 681.567 1431.293, 682.011 1432.244, 682.569 1436.703 L 683.254 1442.189 687.377 1441.637 C 689.645 1441.334, 695.100 1440.844, 699.500 1440.548 L 707.500 1440.011 703.239 1441.593 C 695.988 1444.284, 695.792 1450, 702.951 1450 C 704.495 1450, 708.365 1451.193, 711.551 1452.652 C 717.222 1455.248, 717.512 1455.277, 725.213 1454.027 C 734.130 1452.579, 734.829 1452.806, 732.481 1456.389 C 730.833 1458.904, 730.855 1458.974, 733.651 1460.077 C 740.735 1462.872, 745.789 1465.350, 749.312 1467.755 C 752.999 1470.273, 753.217 1470.303, 755.966 1468.679 C 759.655 1466.500, 759.366 1466.432, 763.919 1470.546 C 767.835 1474.084, 767.853 1474.088, 771.527 1472.553 C 773.651 1471.666, 776.290 1471.286, 777.762 1471.655 C 780.292 1472.290, 780.309 1472.254, 779.730 1467.367 C 779.409 1464.656, 779.001 1461.782, 778.823 1460.979 C 778.559 1459.785, 780.954 1459.377, 792 1458.736 C 806.414 1457.900, 808.334 1457.140, 807.250 1452.704 C 806.147 1448.194, 805.449 1448, 790.338 1448 C 777.960 1448, 775.373 1447.721, 772.053 1446.027 L 768.186 1444.054 768.637 1432.277 C 770.163 1392.420, 770.705 1366.391, 770.023 1365.669 C 769.591 1365.212, 767.371 1365.790, 765.089 1366.955 C 760.092 1369.504, 758.636 1368.812, 753.878 1361.630 C 750.827 1357.023, 750.590 1353.245, 753.421 1354.331 C 756.325 1355.446, 771.017 1357.316, 771.678 1356.656 C 772.946 1355.387, 770.564 1354.124, 761 1350.992 C 743.492 1345.259, 739.258 1344.645, 713.094 1344.053 L 688.687 1343.500 686.847 1338 C 685.017 1332.534, 681.207 1328, 678.444 1328 C 676.462 1328, 676.031 1315.105, 677.571 1301.887 C 678.215 1296.360, 678.172 1296.233, 674.768 1293.637 C 670.505 1290.385, 669.895 1290.376, 666.166 1293.514 C 664.523 1294.896, 661.612 1296.682, 659.698 1297.482 C 655.505 1299.234, 655.036 1298.313, 655.014 1288.297 C 654.997 1280.736, 653.648 1277.511, 649.845 1275.936 C 647.470 1274.952, 647.088 1274.355, 647.724 1272.618 C 648.151 1271.453, 648.349 1268.250, 648.165 1265.500 C 647.981 1262.750, 647.756 1258.475, 647.665 1256 L 647.500 1251.500 652.500 1251 L 657.500 1250.500 658.026 1244.575 C 658.316 1241.316, 659.036 1238.488, 659.626 1238.291 C 662.701 1237.266, 671.573 1231.176, 673.163 1229 C 674.167 1227.625, 675.275 1224.250, 675.626 1221.500 C 675.977 1218.750, 677.097 1215.578, 678.116 1214.452 C 681.328 1210.902, 681.474 1206.868, 678.594 1201.186 C 673.475 1191.083, 675.205 1180.980, 683.468 1172.736 C 688.623 1167.593, 689.179 1166.645, 688.635 1163.923 C 688.001 1160.757, 689.808 1156.270, 694.677 1148.912 L 697.081 1145.279 695.040 1140.103 C 692.315 1133.187, 692.367 1128.557, 695.194 1126.577 C 697.244 1125.141, 697.312 1124.725, 696.225 1120.270 C 694.334 1112.514, 696.514 1105.069, 700.693 1105.015 C 702.312 1104.995, 705 1101.003, 705 1098.620 C 705 1097.556, 703.145 1094.281, 700.878 1091.342 C 697.303 1086.708, 695.968 1085.768, 690.806 1084.247 C 687.532 1083.283, 684.858 1082.046, 684.864 1081.497 C 684.869 1080.949, 689.514 1079.583, 695.186 1078.462 C 705.201 1076.482, 705.549 1076.323, 707.202 1072.962 C 709.220 1068.857, 709.465 1064.865, 707.800 1063.200 C 706.325 1061.725, 697.582 1061.618, 694.919 1063.043 C 692.177 1064.511, 691.332 1061.817, 692.897 1056.597 C 696.327 1045.162, 696.451 1044.034, 694.620 1040.935 C 693.064 1038.300, 693.044 1037.920, 694.439 1037.385 C 696.700 1036.517, 696.359 1033.618, 693.500 1029.405 C 690.673 1025.239, 690.470 1023.856, 692.250 1020.891 C 693.345 1019.066, 693.191 1018.606, 691 1017.165 C 683.664 1012.339, 683.331 1011.544, 682.765 997.470 C 682.191 983.195, 682.276 982.920, 688.183 979.907 C 691.938 977.991, 692 977.866, 691.989 972.230 C 691.983 969.078, 691.299 964.261, 690.469 961.524 C 689.639 958.787, 689.231 955.862, 689.562 955.024 C 690.759 951.999, 691.670 932.479, 690.797 928.590 C 689.929 924.729, 691.558 918.042, 695.262 910.259 C 696.032 908.641, 696.005 907.306, 695.164 905.461 C 693.448 901.695, 693.717 900.450, 696.522 899.172 C 698.554 898.246, 698.923 897.539, 698.419 895.534 C 698 893.864, 698.870 890.489, 701.064 885.273 C 703.477 879.536, 704.380 875.798, 704.513 871 C 704.826 859.744, 705.850 856.256, 709.506 853.996 C 713.676 851.419, 721 843.492, 721 841.556 C 721 840.738, 720.364 838.590, 719.586 836.784 C 714.398 824.735, 711.952 814.364, 712.615 807.231 C 713.074 802.297, 712.880 799.123, 711.987 796.969 C 710.662 793.769, 710.510 789.597, 711.284 777.683 L 711.727 770.866 718.363 765.357 C 724.698 760.099, 725.580 758.712, 726.220 753 C 726.456 750.895, 727.091 750.451, 730.247 750.190 C 735.588 749.748, 736.356 747.676, 736.434 733.500 C 736.495 722.422, 736.318 721.245, 734.131 718.179 L 731.762 714.857 734.310 712.179 C 735.711 710.705, 737.163 708.150, 737.536 706.500 C 737.910 704.850, 739.542 699.547, 741.164 694.716 C 742.786 689.885, 743.853 685.111, 743.534 684.107 C 742.750 681.636, 744.598 680.383, 750.227 679.568 C 756.234 678.699, 756.404 678.347, 754.453 670.818 C 752.712 664.102, 752.895 660.791, 755.351 654.500 C 757.388 649.280, 757.522 637.678, 755.564 636.053 C 754.530 635.195, 753.578 635.155, 752.166 635.911 C 749.108 637.548, 746.597 632.975, 746.450 625.500 C 746.385 622.200, 745.838 617.700, 745.233 615.500 C 744.628 613.300, 743.633 609.475, 743.021 607 C 742.409 604.525, 741.517 600.996, 741.039 599.157 C 740.492 597.058, 740.567 594.671, 741.241 592.740 C 742.205 589.974, 742.040 589.432, 739.608 587.339 C 736.055 584.283, 734.210 579.656, 732.959 570.662 C 731.734 561.855, 732.737 558, 736.253 558 C 740.739 558, 743 555.347, 743 550.083 C 743 538.150, 743.754 536.241, 750.200 531.864 C 757.854 526.667, 758.946 524.342, 756.702 518.024 C 755.766 515.388, 755 510.394, 755 506.926 C 755 503.458, 754.462 498.016, 753.805 494.833 C 752.675 489.365, 752.733 488.913, 754.848 486.662 C 758.029 483.276, 760.816 475.296, 761.598 467.336 C 762.449 458.678, 762.217 459.079, 773.284 447.129 C 782.298 437.396, 786.583 430.629, 791.627 418.164 C 793.775 412.854, 804.918 402.261, 808.831 401.809 C 811.215 401.533, 811.534 401.029, 811.815 397.099 C 812.115 392.898, 811.877 392.462, 806.591 387.543 L 801.052 382.388 803.668 378.444 C 805.107 376.275, 807.187 373.501, 808.289 372.279 C 810.900 369.387, 810.245 353.909, 807.093 344 C 804.366 335.425, 804.377 335.359, 808.932 333.035 C 814.403 330.244, 814.473 329.867, 810.843 322.790 C 807.513 316.298, 807.244 313.935, 809.444 310.500 C 810.945 308.158, 833.299 296.445, 843.668 292.568 L 850.835 289.888 854.982 279.194 C 861.959 261.203, 863.635 254.555, 861.975 251.453 C 859.281 246.420, 855.263 244.545, 846.002 244 L 837.500 243.500 834.590 237.678 L 831.680 231.855 833.340 226.590 C 834.253 223.694, 835 220.194, 835 218.812 C 835 216.328, 830.893 209.784, 827.667 207.128 C 826.576 206.230, 826 204.249, 826 201.401 C 826 197.850, 825.535 196.741, 823.479 195.394 C 821.317 193.977, 821.050 193.250, 821.606 190.287 C 822.523 185.398, 815.893 172.207, 811.801 170.781 C 808.045 169.472, 808.257 167.112, 812.500 163 C 817.103 158.538, 816.972 158.039, 810.235 154.419 C 807.081 152.725, 804.545 150.812, 804.600 150.169 C 804.655 149.526, 804.768 147.209, 804.850 145.020 C 804.984 141.466, 805.413 140.830, 808.872 139.066 C 813.705 136.600, 814.679 133.588, 811.628 130.537 C 810.395 129.304, 808.737 128.063, 807.943 127.779 C 806.814 127.376, 807.064 126.635, 809.089 124.382 C 818.502 113.906, 817.530 109.186, 804.689 103 L 799.500 100.500 798.804 94.193 C 798.422 90.724, 797.354 85.324, 796.432 82.193 C 795.509 79.062, 794.403 73.381, 793.973 69.569 C 793.242 63.086, 792.933 62.423, 789.171 59.298 C 786.119 56.764, 784.646 54.447, 783.064 49.691 C 780.769 42.796, 780.300 42.561, 771.500 43.894 M 770.167 53.016 C 770.494 65.185, 761.543 77, 751.997 77 C 749.249 77, 747 77.175, 747 77.390 C 747 77.604, 747.898 82.143, 748.995 87.476 C 750.092 92.808, 751.434 102.645, 751.976 109.336 C 752.518 116.026, 753.410 123.300, 753.957 125.500 C 755.564 131.959, 755.154 144.228, 753.034 153.104 C 751.284 160.433, 751.217 161.835, 752.429 165.917 C 753.177 168.438, 754.507 175.450, 755.384 181.500 L 756.978 192.500 754.453 201 C 753.064 205.675, 751.565 213.334, 751.122 218.021 C 750.679 222.707, 749.682 227.657, 748.908 229.021 C 747.925 230.752, 747.500 234.937, 747.500 242.886 C 747.500 252.631, 747.248 254.431, 745.753 255.378 C 744.454 256.202, 743.494 256.165, 742.003 255.234 C 740.077 254.031, 740 254.230, 740 260.433 C 740 263.980, 740.450 267.160, 741 267.500 C 742.613 268.497, 742.159 272.390, 739.821 277.623 C 736.438 285.193, 736.753 308.082, 740.403 319.926 C 744.309 332.598, 743.692 341.416, 738.349 349.313 C 734.377 355.184, 733.117 361.310, 734.348 368.757 C 735.223 374.048, 735.069 375.581, 733.104 381.148 C 729.854 390.349, 728.045 398.751, 728.021 404.747 C 728.003 409.325, 727.553 410.489, 724.500 413.868 C 720.352 418.460, 720.123 420.279, 723.500 421.818 C 726.109 423.007, 726.962 426, 724.691 426 C 721.261 426, 719.643 428.761, 718.878 435.922 C 717.610 447.787, 711.258 465.632, 706.634 470.316 C 703.140 473.855, 702.819 474.614, 703.299 478.194 C 703.591 480.373, 704.486 482.908, 705.287 483.828 C 710.599 489.928, 711.340 509.246, 706.710 520.892 C 704.696 525.955, 704.189 526.500, 701.490 526.500 L 698.500 526.500 698.645 547 C 698.781 566.183, 698.959 568.027, 701.423 575.700 C 703.711 582.826, 703.971 584.920, 703.409 591.700 C 702.928 597.521, 703.174 600.878, 704.382 604.932 C 705.272 607.919, 706 612.112, 706 614.250 C 706 618.620, 701.582 636.946, 699.572 640.914 C 698.851 642.336, 698.031 646.851, 697.750 650.946 C 697.263 658.045, 697.058 658.558, 693.380 661.930 L 689.520 665.466 687.355 680.483 C 686.164 688.742, 684.432 698.875, 683.505 703 C 682.579 707.125, 681.636 711.478, 681.411 712.673 C 681.185 713.868, 679.425 716.910, 677.500 719.432 C 675.575 721.954, 674 724.641, 674 725.403 C 674 728.613, 669.618 740.745, 667.393 743.694 C 664.216 747.906, 659.225 762.207, 656.897 773.770 C 654.669 784.840, 653.405 787.498, 648.090 792.300 C 643.015 796.885, 639.602 797.855, 636.960 795.464 C 635.042 793.728, 635 793.784, 635 798.104 C 635 801.419, 635.493 802.827, 636.977 803.754 C 638.388 804.635, 638.947 806.065, 638.926 808.744 C 638.869 815.983, 641.461 829.757, 643.250 831.729 C 645.286 833.972, 645.443 835.933, 643.866 839.394 C 642.416 842.577, 644.141 850.042, 647.473 855 C 650.057 858.846, 652.048 867.131, 652.222 874.764 C 652.317 878.947, 651.805 880.375, 648.800 884.311 C 646.784 886.951, 644.990 890.661, 644.625 892.945 C 644.096 896.249, 643.305 897.340, 640.101 899.184 L 636.217 901.419 636.239 908.460 C 636.251 912.332, 635.297 921.125, 634.119 928 C 632.825 935.550, 632.226 942.084, 632.607 944.500 C 633.607 950.833, 636.969 958.913, 639.073 960.039 C 640.133 960.606, 641 961.800, 641 962.691 C 641 965.493, 636.169 970.789, 632.511 971.996 C 629.524 972.982, 629 973.607, 629 976.183 C 629 977.849, 628.281 981.976, 627.401 985.356 C 626.278 989.672, 625.994 993.456, 626.445 998.074 C 627.010 1003.866, 626.732 1005.567, 624.112 1012.373 C 622.476 1016.621, 620.848 1021.414, 620.495 1023.023 L 619.852 1025.949 624.676 1024.485 C 627.329 1023.680, 630.457 1023.017, 631.628 1023.011 C 634.635 1022.996, 635.779 1021.216, 637.645 1013.654 C 639.179 1007.441, 639.172 1006.739, 637.539 1002.462 C 635.277 996.540, 636.080 992.435, 640.515 987.254 C 644.604 982.477, 644.722 981.281, 641.807 974.248 C 639.224 968.016, 639.454 967.606, 648.077 963.057 C 653.069 960.423, 653.523 959.890, 653.785 956.348 C 654.258 949.963, 654.472 949.754, 658.727 951.521 C 665.423 954.302, 666.628 956.202, 665.165 961.673 C 664.074 965.753, 664.114 966.484, 665.470 967.243 C 669.691 969.605, 673.153 976.325, 671.515 978.976 C 671.167 979.539, 668.881 980, 666.435 980 L 661.987 980 664.994 984.150 C 668.566 989.081, 668.691 990.714, 665.866 995.502 C 664.096 998.503, 663.926 999.541, 664.866 1001.606 C 666.754 1005.749, 666.318 1011.104, 664.046 1011.698 C 662.582 1012.081, 661.944 1013.377, 661.504 1016.855 C 661.181 1019.410, 660.625 1022.625, 660.268 1024 C 659.912 1025.375, 659.664 1030.412, 659.718 1035.192 L 659.817 1043.885 657.158 1044.192 C 654.569 1044.492, 654.483 1044.724, 653.843 1053.120 C 653.481 1057.862, 652.469 1063.127, 651.593 1064.821 C 650.717 1066.515, 650 1068.450, 650 1069.122 C 650 1069.793, 649.327 1071.086, 648.504 1071.996 C 647.170 1073.470, 647.249 1074.311, 649.235 1079.764 L 651.462 1085.879 649.348 1088.190 C 648.185 1089.460, 646.495 1091.963, 645.591 1093.750 C 643.716 1097.460, 641.566 1097.927, 639.982 1094.967 C 639.384 1093.849, 638.500 1087.212, 638.019 1080.217 C 637.537 1073.223, 636.631 1066.079, 636.006 1064.342 C 634.225 1059.396, 635.066 1053.690, 637.750 1052.513 C 640.674 1051.230, 640.624 1050.997, 636.572 1047.070 C 633.768 1044.352, 632.649 1043.871, 630.427 1044.429 C 628.387 1044.941, 627.996 1045.396, 628.855 1046.255 C 631.128 1048.528, 630.218 1051.099, 627.250 1050.788 C 624.743 1050.525, 624.137 1051.196, 620.388 1058.384 C 616.852 1065.162, 616.419 1066.650, 617.301 1068.987 C 618.642 1072.539, 617.699 1074.770, 614.276 1076.145 L 611.500 1077.261 614.701 1078.146 C 616.461 1078.633, 618.237 1079.574, 618.647 1080.237 C 619.985 1082.402, 618.991 1087.465, 616.918 1089.046 L 614.891 1090.591 616.957 1093.218 C 618.999 1095.814, 619.002 1095.926, 617.237 1102.665 C 615.592 1108.948, 615.038 1109.793, 610.225 1113.383 C 604.578 1117.596, 604.124 1118.969, 606.500 1124.654 C 608.681 1129.873, 608.447 1130.803, 603.750 1135.589 C 593.816 1145.710, 590.629 1150.443, 591.189 1154.239 C 591.736 1157.942, 593.770 1157.256, 597.648 1152.062 C 602.272 1145.868, 603.091 1145.818, 606.990 1151.485 C 610.786 1157.002, 612.829 1158.153, 618.328 1157.868 C 623.670 1157.592, 624.561 1158.139, 626.034 1162.602 C 627.144 1165.967, 627.043 1166.332, 624.295 1168.838 C 622.325 1170.634, 620.611 1173.939, 619.023 1179 C 615.466 1190.339, 613.736 1191.444, 602.662 1189.451 L 598.825 1188.761 600.275 1191.630 C 602.154 1195.347, 601.630 1196.577, 596.900 1199.563 C 593.104 1201.960, 593 1202.178, 593.008 1207.763 C 593.013 1210.918, 592.469 1219.056, 591.800 1225.846 L 590.584 1238.193 593.436 1243.465 C 595.842 1247.912, 596.129 1249.191, 595.274 1251.645 C 594.585 1253.621, 594.593 1256.391, 595.298 1260.284 C 596.313 1265.884, 596.429 1266.037, 600.418 1267.066 C 607.680 1268.939, 608 1269.108, 608 1271.067 C 608 1272.130, 607.663 1273.010, 607.250 1273.022 C 604.459 1273.105, 601.716 1277.157, 600.449 1283.069 C 598.277 1293.198, 598.559 1293.879, 602.651 1288.394 C 611.777 1276.162, 616.982 1273.253, 615.432 1281.250 C 614.979 1283.588, 614.527 1287.591, 614.428 1290.146 C 614.212 1295.670, 613.536 1297, 610.941 1297 C 609.195 1297, 609 1297.741, 609 1304.378 C 609 1308.674, 608.373 1313.255, 607.500 1315.346 C 606.073 1318.761, 605.382 1328, 606.553 1328 C 606.857 1328, 608.762 1326.875, 610.785 1325.500 C 612.809 1324.125, 615.724 1323, 617.264 1323 C 620.200 1323, 627 1325.455, 627 1326.515 C 627 1328.439, 624.467 1331.231, 621.217 1332.890 C 619.172 1333.934, 616.600 1335.787, 615.500 1337.008 C 614.400 1338.230, 612.487 1339.617, 611.250 1340.090 C 608.155 1341.274, 608.420 1342.456, 612.474 1345.548 C 614.385 1347.006, 617.049 1350.516, 618.394 1353.349 C 621.398 1359.676, 624.529 1362.647, 633.276 1367.467 C 640.382 1371.383, 645.625 1376.929, 644.642 1379.490 C 643.769 1381.765, 634.834 1381.466, 630 1379 C 627.844 1377.900, 624.886 1377, 623.428 1377 C 621.005 1377, 621.196 1377.285, 625.638 1380.300 C 628.312 1382.115, 632.300 1384.141, 634.500 1384.803 C 641.442 1386.891, 643.582 1389.181, 642.049 1392.883 C 641.231 1394.856, 640.046 1396, 638.820 1396 C 635.806 1396, 637.718 1397.992, 642.879 1400.230 C 650.845 1403.685, 654.856 1408.744, 651.940 1411.660 C 651.194 1412.406, 652.502 1413.377, 656.362 1414.944 C 659.376 1416.167, 662.591 1417.996, 663.507 1419.007 C 664.744 1420.375, 666.045 1420.705, 668.577 1420.294 C 672.657 1419.632, 674.695 1421.060, 675.828 1425.376 C 676.570 1428.201, 677.022 1428.500, 680.553 1428.500 C 683.266 1428.500, 684.520 1428.958, 684.662 1430 C 684.775 1430.825, 685.123 1433.087, 685.437 1435.027 L 686.007 1438.555 691.254 1438.269 C 694.139 1438.112, 698.611 1437.707, 701.190 1437.368 C 711.460 1436.022, 714.995 1440.364, 706.250 1443.583 C 700.034 1445.870, 698.853 1447, 702.679 1447 C 704.373 1447, 708.352 1448.187, 711.522 1449.639 C 717.203 1452.240, 717.408 1452.259, 725.689 1450.971 C 733.221 1449.799, 734.260 1449.832, 735.718 1451.289 C 736.959 1452.530, 737.108 1453.443, 736.347 1455.148 C 735.424 1457.217, 735.871 1457.629, 742.425 1460.767 C 746.316 1462.630, 750.276 1464.854, 751.224 1465.709 C 752.786 1467.117, 753.184 1467.109, 755.439 1465.632 C 758.949 1463.332, 760.153 1463.556, 764.502 1467.315 L 768.337 1470.631 772.669 1469.073 C 778.060 1467.135, 778.579 1464.046, 773.971 1461.324 C 768.696 1458.208, 770.511 1456.857, 780.500 1456.469 C 794.700 1455.916, 805 1454.865, 805 1453.967 C 805 1453.514, 804.257 1452.400, 803.350 1451.493 C 801.921 1450.063, 800.147 1449.935, 790.100 1450.531 C 777.273 1451.293, 772.093 1450.413, 767.905 1446.762 L 765.309 1444.500 766.069 1421 C 766.487 1408.075, 767.078 1391.117, 767.383 1383.314 L 767.936 1369.129 764.402 1370.605 C 761.117 1371.978, 760.626 1371.932, 757.434 1369.959 C 755.545 1368.792, 754 1367.458, 754 1366.995 C 754 1366.532, 752.943 1364.881, 751.652 1363.327 C 748.434 1359.453, 747.705 1355.866, 749.589 1353.176 C 751.433 1350.544, 751.533 1350.595, 740.500 1348.511 C 734.911 1347.456, 725.870 1346.996, 710.500 1346.985 C 698.400 1346.976, 688.004 1346.639, 687.397 1346.235 C 686.791 1345.831, 685.496 1343.025, 684.519 1340 C 682.511 1333.782, 680.486 1331, 677.967 1331 C 677.020 1331, 675.779 1330.438, 675.209 1329.750 C 674.013 1328.307, 673.584 1309.955, 674.569 1302.350 C 675.187 1297.572, 675.049 1297.078, 672.664 1295.516 C 670.172 1293.883, 669.976 1293.922, 666.297 1296.770 C 661.067 1300.819, 656.389 1302.567, 654.649 1301.124 C 653.806 1300.424, 653.064 1296.677, 652.670 1291.137 C 651.902 1280.316, 651.736 1279.874, 647.717 1278 C 644.996 1276.731, 644.548 1276.037, 644.814 1273.500 C 645.376 1268.135, 645.288 1263.606, 644.510 1257.877 C 643.542 1250.746, 645.654 1248, 652.108 1248 C 655.947 1248, 656.177 1247.842, 655.614 1245.598 C 654.255 1240.182, 655.913 1237.164, 662.040 1233.898 C 670.196 1229.551, 672.188 1227.119, 672.784 1220.783 C 673.118 1217.230, 674.053 1214.574, 675.640 1212.673 C 678.637 1209.084, 678.610 1206.507, 675.526 1201.500 C 672.808 1197.088, 672.397 1192.251, 673.939 1182.837 C 674.760 1177.825, 675.493 1176.557, 680.311 1171.815 C 685.208 1166.996, 685.745 1166.049, 685.649 1162.397 C 685.567 1159.281, 686.508 1156.753, 689.697 1151.517 L 693.851 1144.697 691.926 1139.811 C 689.428 1133.476, 689.481 1128.930, 692.090 1125.613 C 693.830 1123.400, 694.009 1122.463, 693.155 1120.014 C 692.447 1117.985, 692.464 1115.055, 693.207 1110.567 C 694.222 1104.446, 694.482 1103.996, 697.595 1102.969 C 701.531 1101.670, 702.755 1098.759, 700.652 1095.701 C 696.742 1090.016, 694.258 1088.101, 688.811 1086.575 C 679.876 1084.070, 677.221 1080.036, 683.250 1078.124 C 685.038 1077.557, 690.293 1076.392, 694.930 1075.534 C 699.566 1074.676, 703.443 1073.867, 703.544 1073.737 C 704.722 1072.228, 706 1068.678, 706 1066.919 C 706 1064.781, 705.755 1064.727, 698.673 1065.326 C 688.300 1066.203, 686.815 1063.770, 690.999 1052.761 C 693.424 1046.382, 693.472 1044.813, 691.367 1040.744 C 689.822 1037.755, 689.838 1037.507, 691.665 1036.094 C 693.545 1034.640, 693.510 1034.472, 690.310 1029.717 C 687.279 1025.213, 687.130 1024.631, 688.392 1022.221 C 689.700 1019.725, 689.587 1019.483, 685.843 1016.771 C 680.848 1013.153, 679.689 1010.068, 680.307 1002.035 C 680.580 998.479, 680.315 993.239, 679.718 990.391 C 678.417 984.187, 679.985 980.929, 685.549 978.275 C 688.895 976.680, 689 976.453, 689 970.862 C 689 967.690, 688.469 963.929, 687.820 962.504 C 686.908 960.502, 686.931 956.874, 687.923 946.536 C 688.952 935.817, 688.959 932.407, 687.960 929.378 C 686.742 925.687, 688.366 918.048, 692.190 909.481 C 692.798 908.117, 692.593 906.270, 691.557 903.791 C 689.891 899.804, 691.181 897, 694.680 897 C 695.804 897, 696.055 896.354, 695.613 894.594 C 695.219 893.023, 696.111 889.640, 698.184 884.844 C 700.467 879.561, 701.395 875.816, 701.490 871.500 C 701.730 860.587, 703.019 855.060, 705.759 853.194 C 710.934 849.669, 718 842.661, 718 841.054 C 718 840.135, 717.339 838.509, 716.532 837.441 C 715.724 836.374, 715.049 834.653, 715.032 833.619 C 715.014 832.584, 713.603 827.670, 711.896 822.698 C 709.045 814.395, 708.880 813.221, 709.871 808.289 C 710.711 804.106, 710.648 801.990, 709.584 798.710 C 707.062 790.930, 706.856 788.630, 708.117 782.287 C 709.085 777.417, 709.101 775.701, 708.186 774.786 C 705.987 772.587, 706.972 771.081, 714.886 764.534 C 722.089 758.574, 722.830 757.620, 723.447 753.507 C 724.172 748.673, 726.360 746.647, 730.268 747.194 C 733.048 747.582, 733.720 744.827, 733.882 732.390 C 733.988 724.213, 733.744 722.901, 731.500 719.595 C 728.340 714.938, 728.364 714.488, 732 710.347 C 733.650 708.468, 735 706.270, 735 705.463 C 735 704.656, 736.350 700.100, 738 695.338 C 739.650 690.576, 741 685.202, 741 683.397 C 741 679.280, 743.969 677, 749.329 677 C 752.319 677, 753.085 676.665, 752.655 675.544 C 750.161 669.045, 749.714 662.165, 751.476 657.402 C 753.735 651.297, 754.819 636.845, 752.875 638.750 C 750.816 640.768, 749.527 640.240, 746.093 635.967 C 743.007 632.126, 742.900 631.710, 743.848 627.266 C 744.620 623.646, 744.524 621.980, 743.422 619.849 C 742.640 618.336, 742 615.480, 742 613.500 C 742 611.520, 741.338 608.620, 740.529 607.055 C 738.127 602.411, 737.035 596.039, 738.142 593.128 C 738.961 590.973, 738.771 590.233, 737.040 588.831 C 730.564 583.587, 727.174 560.409, 732.267 556.197 C 732.945 555.636, 734.850 555.025, 736.500 554.838 C 739.480 554.502, 739.504 554.449, 740.124 546.819 C 741.074 535.138, 741.375 534.499, 748.073 529.950 C 755.344 525.013, 755.783 524.082, 753.649 518.128 C 752.737 515.583, 751.992 510.602, 751.995 507.060 C 751.998 503.518, 751.460 498.008, 750.801 494.815 C 749.675 489.361, 749.737 488.843, 751.829 486.255 C 755.233 482.043, 757.156 477.144, 758.212 470 C 760.006 457.855, 760.525 456.825, 770.086 446.413 C 778.701 437.032, 784.872 428.196, 786.520 422.884 C 789.305 413.904, 800.672 400.890, 806.930 399.515 C 811.273 398.561, 809.953 393.922, 803.880 388.802 C 797.480 383.405, 797.532 381.293, 804.278 372.688 C 807.212 368.945, 807.257 368.710, 806.763 359.688 C 806.474 354.415, 805.309 347.405, 804.028 343.236 C 801.394 334.659, 801.616 333.747, 807.016 330.992 L 811.130 328.893 808.065 323.462 C 801.891 312.522, 804.021 308.830, 821.775 299.692 C 828.955 295.996, 837.680 291.926, 841.164 290.646 C 846.990 288.506, 847.701 287.913, 850 283.282 C 854.395 274.428, 860.279 256.248, 859.611 253.587 C 858.445 248.940, 853.613 246.654, 844.738 246.547 C 837.365 246.459, 836.614 246.253, 834.427 243.710 C 830.419 239.051, 828.826 231.889, 830.540 226.240 C 832.847 218.636, 832.462 216.730, 827.500 211.211 C 823.883 207.188, 823 205.482, 823 202.513 C 823 199.992, 822.347 198.292, 820.942 197.154 C 819.369 195.880, 818.833 194.166, 818.670 189.879 C 818.416 183.244, 814.284 175.639, 809.500 173.004 C 805.149 170.608, 804.954 166.674, 808.980 162.520 L 812.117 159.284 807.059 156.038 C 804.276 154.252, 801.972 152.388, 801.938 151.896 C 801.903 151.403, 801.847 148.449, 801.813 145.331 L 801.750 139.663 806.375 137.312 C 811.923 134.493, 812.046 133.815, 807.500 131.133 C 803.325 128.669, 803.047 126.244, 806.562 122.941 C 807.972 121.617, 810.057 119.026, 811.195 117.184 C 813.251 113.857, 813.252 113.814, 811.323 111.167 C 810.254 109.700, 807.093 107.375, 804.299 106 C 796.761 102.290, 796 101.384, 796 96.121 C 796 93.572, 794.881 87.439, 793.512 82.493 C 792.144 77.547, 791.019 71.575, 791.012 69.223 C 791.002 65.480, 790.449 64.417, 786.596 60.723 C 783.579 57.829, 781.667 54.855, 780.524 51.275 L 778.856 46.050 774.423 46.242 L 769.991 46.435 770.167 53.016" stroke="none" fill="#111111" fill-rule="evenodd"/>
</svg>