<svg xmlns="http://www.w3.org/2000/svg" width="1500" height="1500" viewBox="0 0 1500 1500" version="1.1">
	<path d="M 518.578 78.120 C 513.104 79.404, 512.260 80.376, 511.016 86.827 C 510.414 89.947, 509.711 93.491, 509.454 94.701 C 509.197 95.912, 506.678 99.175, 503.857 101.951 C 499.258 106.479, 498.273 107, 494.315 107 C 491.887 107, 488.461 107.755, 486.700 108.678 C 480.124 112.126, 475.507 112.079, 460.801 108.414 C 453.266 106.536, 446.257 105, 445.225 105 C 441.381 105, 436 113.467, 436 119.516 C 436 123.453, 434.572 126.810, 432.087 128.718 C 429.687 130.560, 428.705 130.295, 424.430 126.645 C 421.257 123.936, 418.389 122.784, 409.535 120.664 L 398.570 118.037 395.770 120.720 L 392.970 123.402 387.735 118.237 C 382.994 113.559, 381.956 113.008, 376.733 112.396 C 371.961 111.837, 370.624 112.030, 368.983 113.515 C 364.745 117.351, 367.393 123.138, 377.899 133 C 382.475 137.295, 382.751 137.864, 383.958 145.500 C 386.724 162.997, 392.846 175.045, 399.742 176.566 C 413.218 179.539, 416.288 181.410, 415.804 186.357 C 415.561 188.838, 414.896 189.636, 412.500 190.320 C 410.850 190.791, 407.025 192.374, 404 193.838 C 398.845 196.333, 398.340 196.908, 395.951 203 C 391.488 214.381, 377.358 222.109, 354.861 225.473 C 344.247 227.060, 337.628 229.438, 334.730 232.705 C 333.757 233.803, 329.760 235.781, 325.849 237.100 C 318.902 239.444, 318.711 239.456, 317.618 237.586 C 313.675 230.837, 299.468 222.628, 292.250 222.928 C 289.016 223.062, 289 223.039, 289 218.263 C 289 214.765, 288.308 212.446, 286.447 209.707 C 285.043 207.641, 282.602 203.070, 281.023 199.551 C 279.444 196.031, 277.247 192.667, 276.142 192.076 C 270.360 188.981, 264.805 192.425, 262.967 200.243 C 260.465 210.889, 258.202 212.973, 254 208.500 C 250.568 204.846, 245.198 205.210, 243.729 209.196 C 241.970 213.969, 220.125 216.209, 200.526 213.626 C 193.940 212.758, 188.260 212.375, 187.902 212.774 C 187.545 213.173, 186.979 217.100, 186.645 221.500 L 186.038 229.500 192.590 233.803 C 198.438 237.645, 199.698 238.081, 204.321 237.863 C 212.592 237.473, 214.164 238.380, 213.803 243.334 L 213.500 247.500 205.500 247.552 C 197.793 247.602, 187.467 249.435, 186.552 250.916 C 186.309 251.309, 185.167 257.158, 184.015 263.914 C 181.676 277.620, 181.365 276.324, 188.906 284.250 C 191.874 287.370, 193.993 288.819, 195.082 288.474 C 197.024 287.858, 198 291.420, 198 299.125 C 198 303.591, 198.199 304, 200.378 304 C 203.435 304, 204.447 305.318, 206.352 311.775 C 207.888 316.984, 207.809 317.690, 200.139 367.775 C 192.145 419.980, 191.716 421.849, 186.347 427.935 C 186.136 428.174, 184.181 426.630, 182.002 424.502 L 178.042 420.635 170.271 422.922 C 160.556 425.780, 159.761 426.182, 158.366 428.932 C 156.191 433.220, 155.278 433.498, 143.200 433.554 C 127.540 433.627, 122.562 435.899, 105.543 450.742 C 102.227 453.634, 98.534 456, 97.335 456 C 94.853 456, 93.570 459.153, 92.551 467.761 C 91.619 475.631, 88.213 485.879, 84.677 491.450 C 81.981 495.697, 81.505 497.435, 81.324 503.698 L 81.114 510.997 74.648 517.463 C 71.074 521.037, 66.991 526.362, 65.521 529.368 L 62.860 534.806 64.968 538.937 C 67.401 543.707, 66.995 545, 63.063 545 C 56.215 545, 56.965 549.190, 65.085 556.293 C 68.168 558.990, 69.759 561.031, 69.097 561.440 C 66.949 562.768, 68.094 565.221, 75.335 574.798 C 79.369 580.134, 84.419 587.200, 86.557 590.500 C 88.695 593.800, 91.470 597.772, 92.722 599.327 C 95.870 603.233, 95.581 605.451, 91.500 608.707 C 89.575 610.243, 88 612.041, 88 612.703 C 88 614.321, 94.348 615.988, 100.535 615.994 C 103.304 615.997, 108.130 616.900, 111.260 618 C 114.389 619.100, 117.567 620, 118.320 620 C 120.135 620, 122.601 622.894, 123.433 626 C 124.745 630.896, 128.361 638, 129.542 638 C 130.202 638, 136.977 636.591, 144.599 634.870 C 156.702 632.135, 159.456 631.119, 166.361 626.836 C 170.709 624.139, 174.503 622.169, 174.791 622.458 C 175.221 622.887, 180.797 657.113, 180.990 660.500 C 181.021 661.050, 183.766 663.921, 187.090 666.880 L 193.134 672.261 198.182 670.630 C 200.958 669.734, 205.163 669, 207.525 669 C 210.222 669, 214.180 667.884, 218.160 666.001 C 226.854 661.888, 229.161 662.131, 235.237 667.797 C 237.851 670.235, 238.203 670.297, 243.072 669.173 C 251.181 667.301, 261.696 661.441, 269.341 654.532 C 274.293 650.057, 277.768 647.775, 280.954 646.907 C 287.946 645.001, 309.431 630.839, 318.146 622.390 C 322.929 617.754, 327.774 614.104, 331.085 612.643 L 336.377 610.307 342.844 612.248 C 346.401 613.315, 350.552 613.940, 352.068 613.636 C 355.645 612.921, 356.432 614.024, 358.316 622.393 C 359.726 628.657, 359.721 630.015, 358.263 637.286 C 355.730 649.911, 357.279 656.690, 367.159 676.241 C 371.535 684.899, 376.260 693.344, 377.661 695.009 C 382.016 700.184, 401.090 708.515, 415.500 711.535 C 419.900 712.457, 427.775 715.125, 433 717.463 C 438.225 719.801, 448.293 723.214, 455.374 725.047 C 465.394 727.640, 468.758 728.947, 470.547 730.940 C 481.471 743.107, 483.578 745.055, 487.389 746.511 C 490.716 747.781, 492.480 747.897, 496.034 747.078 C 504.605 745.103, 506.051 745.526, 518.387 753.617 L 530 761.234 530 769.667 C 530 775.405, 530.506 779.078, 531.584 781.162 C 532.455 782.847, 533.418 786.651, 533.724 789.616 C 534.274 794.945, 534.245 795.019, 531.140 796.101 C 527.278 797.447, 527.253 796.975, 531.603 804.889 C 534.547 810.245, 535.617 813.877, 537.451 824.737 C 538.686 832.048, 539.877 838.183, 540.098 838.371 C 540.319 838.558, 553.550 840.025, 569.500 841.631 L 598.500 844.551 598.348 847.526 C 598.265 849.162, 598.116 852.075, 598.017 854 C 597.857 857.136, 598.930 862.150, 602.391 874.439 C 603.316 877.725, 604.873 879.381, 611.787 884.439 C 623.386 892.922, 627.521 898.764, 628.426 907.947 C 629.121 914.996, 629.095 915.102, 625.520 919.972 C 623.083 923.292, 621.634 926.606, 621.050 930.193 C 619.887 937.331, 617.473 946.367, 615.019 952.761 C 612.422 959.528, 612.415 964.161, 615 966.500 C 617.410 968.681, 617.613 973.246, 615.383 975.097 C 612.706 977.318, 613.954 989.539, 617.468 995.536 C 620.563 1000.818, 620.563 999.563, 617.471 1023.212 L 615.809 1035.923 618.919 1041.359 C 623.042 1048.565, 626.045 1049.720, 642.633 1050.478 C 668.505 1051.661, 669.930 1051.872, 670.617 1054.612 C 671.511 1058.172, 673.961 1059.022, 681.342 1058.333 C 689.431 1057.577, 688.777 1056.440, 693.530 1079.500 C 700.782 1114.681, 700.321 1113.520, 707.319 1114.239 C 709.618 1114.475, 713.593 1115.274, 716.151 1116.015 C 720.563 1117.293, 721.121 1117.219, 727 1114.580 C 731.459 1112.579, 733.503 1112.103, 734.285 1112.885 C 735.985 1114.585, 733.634 1142.165, 731.202 1149.056 C 730.124 1152.111, 728.928 1156.464, 728.546 1158.729 C 727.853 1162.831, 727.870 1162.859, 733.154 1166.418 C 736.070 1168.382, 741.220 1170.909, 744.598 1172.033 L 750.739 1174.076 751.678 1179.288 C 752.902 1186.080, 752.448 1216.692, 751.070 1220.317 C 749.915 1223.353, 743.368 1226.796, 731 1230.871 C 722.676 1233.613, 719.499 1235.753, 714.971 1241.666 C 712.322 1245.125, 708.994 1247.712, 702.991 1250.978 C 698.418 1253.465, 693.744 1256.762, 692.602 1258.305 C 690.574 1261.048, 690.568 1261.182, 692.345 1264.278 C 693.773 1266.767, 693.877 1267.528, 692.831 1267.829 C 692.099 1268.039, 688.345 1271.504, 684.489 1275.528 C 680.633 1279.552, 675.545 1283.943, 673.182 1285.285 C 667.931 1288.267, 653.244 1304.067, 644.793 1315.824 C 641.363 1320.596, 636.608 1326.909, 634.225 1329.854 C 628.112 1337.410, 628.653 1338.590, 638.018 1338.141 C 646.237 1337.746, 648.506 1336.938, 651.500 1333.340 L 653.500 1330.937 657.461 1332.969 C 659.640 1334.086, 662.173 1335, 663.089 1335 C 665.581 1335, 667.142 1337.340, 671 1346.862 C 674.309 1355.028, 674.678 1355.517, 677.750 1355.813 C 681.483 1356.173, 681.595 1356.739, 679.944 1366.916 C 679.064 1372.341, 679.143 1373.572, 680.458 1374.887 C 681.865 1376.294, 682.878 1375.565, 691.088 1367.238 L 700.162 1358.033 704.831 1362.766 C 708.286 1366.269, 711.304 1368.150, 716.438 1370 C 725.361 1373.216, 735 1381.604, 735 1386.155 C 735 1390.096, 738.728 1393.468, 747.732 1397.669 L 754.964 1401.044 758.982 1409.345 C 761.192 1413.911, 763 1418.087, 763 1418.627 C 763 1419.166, 764.529 1421.090, 766.398 1422.901 L 769.796 1426.195 766.648 1431.258 C 763.918 1435.648, 763.456 1437.395, 763.168 1444.410 C 762.618 1457.802, 765.767 1461.417, 774.342 1457.235 C 776.629 1456.120, 779.512 1454.906, 780.748 1454.537 C 784.777 1453.335, 791.446 1441.908, 797.623 1425.623 C 802.769 1412.053, 805.820 1408.160, 819.500 1397.706 C 834.151 1386.509, 837.503 1383.124, 847.253 1369.680 C 856.041 1357.562, 857.320 1355.171, 866.556 1333.590 C 870.302 1324.840, 875.118 1315.056, 877.260 1311.849 C 881.368 1305.696, 892.530 1295.506, 902.388 1288.909 C 913.041 1281.779, 919.133 1273.035, 920.878 1262.371 C 921.406 1259.142, 922.765 1254.475, 923.897 1252 C 926.404 1246.522, 926.715 1237.447, 924.481 1234.979 C 923.122 1233.478, 923.122 1231.324, 924.481 1214.572 C 925.316 1204.271, 926 1193.267, 926 1190.119 C 926 1185.359, 926.719 1182.981, 930.270 1175.997 C 934.221 1168.225, 935.140 1167.172, 942.596 1161.874 C 947.028 1158.725, 953.944 1152.499, 957.966 1148.037 C 962.722 1142.762, 967.591 1138.570, 971.890 1136.050 C 978.505 1132.173, 982.219 1128.791, 985.253 1123.885 C 986.710 1121.527, 987.678 1121.199, 995.085 1120.553 C 1005.461 1119.648, 1007.311 1118.919, 1013.199 1113.411 C 1017.210 1109.659, 1018.310 1109.096, 1019.931 1109.963 C 1022.395 1111.282, 1029.080 1111.300, 1032.506 1109.998 C 1034.582 1109.209, 1035.074 1108.435, 1034.821 1106.362 C 1034.532 1103.988, 1034.952 1103.613, 1039.071 1102.564 C 1049.382 1099.939, 1059 1091.715, 1059 1085.524 C 1059 1080.794, 1060.299 1080.422, 1066.402 1083.408 C 1072.934 1086.604, 1072.265 1086.622, 1081.146 1083.003 C 1090.130 1079.343, 1092.586 1079.297, 1103.735 1082.585 C 1111.285 1084.811, 1113.609 1085.078, 1120.500 1084.515 C 1124.900 1084.155, 1131.324 1083.922, 1134.775 1083.997 C 1144.792 1084.213, 1152.707 1078.287, 1151.438 1071.522 C 1150.338 1065.655, 1158.543 1058.683, 1172.613 1053.529 C 1178.363 1051.423, 1183.361 1049.225, 1183.720 1048.644 C 1184.079 1048.063, 1184.465 1043.491, 1184.578 1038.485 C 1184.808 1028.287, 1187.772 1020.843, 1196.519 1008.500 C 1198.858 1005.200, 1203.250 997.550, 1206.280 991.500 C 1209.671 984.727, 1214.300 977.485, 1218.325 972.654 C 1227.066 962.164, 1228.463 959.088, 1227.435 952.594 C 1225.487 940.287, 1225.953 938.375, 1235.689 918.720 C 1245.386 899.144, 1245.904 897.251, 1247.518 875.500 C 1248.575 861.248, 1249.946 855.959, 1255.233 845.739 L 1260.290 835.963 1258.562 828.625 C 1257.158 822.662, 1256.912 817.935, 1257.251 803.393 C 1257.978 772.228, 1262.990 747.861, 1270.227 740.304 C 1273.003 737.406, 1273.229 736.686, 1272.663 732.554 C 1271.937 727.258, 1272.987 726.768, 1276 731 C 1280.700 737.601, 1282.981 735.481, 1310.165 699.247 C 1331.797 670.414, 1336.510 665.041, 1349.097 654.867 C 1356.883 648.573, 1358.905 646.265, 1363.564 638.347 C 1366.543 633.285, 1370.739 627.112, 1372.888 624.629 C 1377.838 618.910, 1398.954 590.648, 1401.749 586 C 1402.907 584.075, 1405.763 577.325, 1408.095 571 L 1412.336 559.500 1412.760 540.859 C 1413.133 524.468, 1412.934 521.208, 1411.118 513.859 C 1409.982 509.261, 1408.141 499.475, 1407.027 492.110 C 1403.185 466.706, 1402.745 466.185, 1379.987 459.996 C 1367.261 456.536, 1354.173 454.584, 1349.938 455.514 C 1345.050 456.587, 1336.686 450.099, 1332.369 441.882 C 1329.250 435.947, 1328.244 434.877, 1324.413 433.414 C 1321.568 432.327, 1318.718 430.115, 1316.303 427.119 C 1303.342 411.041, 1292.641 402, 1286.572 402 C 1282.994 402, 1281.449 401.182, 1274.972 395.859 C 1262.560 385.657, 1234.924 373.698, 1223.536 373.601 C 1220.766 373.577, 1213.325 373.934, 1207 374.395 L 1195.500 375.231 1182 370.634 C 1172.522 367.406, 1165.669 365.739, 1159 365.038 C 1153.775 364.489, 1146.125 363.097, 1142 361.946 C 1132.589 359.318, 1114.715 356.035, 1109.710 356.015 C 1105.721 355.999, 1100.297 358.358, 1093.298 363.152 L 1089.096 366.030 1088.423 362.442 C 1087.866 359.475, 1088.400 357.589, 1091.509 351.547 C 1095.830 343.146, 1095.543 341.498, 1089.913 342.398 C 1084.903 343.199, 1083.600 341.048, 1084.540 333.527 C 1085.434 326.367, 1083.762 321.445, 1079.725 319.358 C 1077.196 318.050, 1063.408 313, 1062.367 313 C 1062.212 313, 1060.898 315.025, 1059.447 317.500 C 1056.170 323.092, 1055.973 323.084, 1052.305 317.183 C 1048.711 311.403, 1047.129 310.590, 1021.972 301.592 C 1011.813 297.958, 999.675 293.462, 995 291.601 C 984.526 287.432, 975.932 285.595, 970.763 286.422 C 960.594 288.048, 951.157 296.211, 948.372 305.792 C 946.028 313.855, 937.063 322.440, 924.236 328.906 C 920.252 330.914, 916 330.613, 916 328.323 C 916 327.989, 921.152 322.410, 927.449 315.926 C 942.871 300.044, 944.325 296.902, 946.497 274.750 C 947.232 267.258, 945.763 265.660, 942.592 270.500 C 940.487 273.712, 938.339 273.662, 927.938 270.156 C 920.880 267.777, 906.642 264.931, 896 263.772 C 893.609 263.512, 893.661 263.405, 897.202 261.312 C 900.679 259.257, 906.689 250.022, 905.392 248.725 C 905.107 248.440, 903.167 248.436, 901.081 248.716 C 896.102 249.384, 893.428 247.827, 891.971 243.412 C 890.907 240.189, 890.503 239.878, 888.141 240.465 C 881.703 242.065, 879.790 242.156, 876.986 240.994 C 871.403 238.682, 873.080 236.402, 882.472 233.537 C 894.412 229.895, 896.046 228.246, 896.959 218.917 C 897.372 214.701, 898.876 208.468, 900.398 204.663 C 904.540 194.308, 902.851 192.026, 892.788 194.382 L 887.077 195.720 882.880 190.743 C 880.572 188.005, 877.083 185.097, 875.126 184.279 C 870.845 182.491, 870.286 181.803, 864.445 171.133 C 860.535 163.993, 859.956 162.222, 860.492 159.050 C 860.838 157, 860.375 151.111, 859.460 145.917 C 858.548 140.738, 857.466 131.100, 857.056 124.500 C 856.484 115.285, 855.817 111.536, 854.184 108.345 C 851.927 103.938, 847.710 100, 845.247 100 C 842.010 100, 836.333 107.515, 832.446 116.947 C 828.413 126.730, 823.849 132.261, 810.703 143.297 C 806.994 146.410, 805.416 148.904, 801.935 157.155 C 799.600 162.688, 796.710 168.405, 795.512 169.858 C 794.315 171.311, 792.488 173.963, 791.452 175.750 C 789.238 179.571, 788.738 179.662, 784.906 176.933 C 781.122 174.239, 777.462 174.213, 772.303 176.846 C 767.730 179.178, 766.052 178.939, 761.673 175.330 C 757.844 172.174, 756.318 172.383, 752.333 176.608 C 749.154 179.979, 748.644 180.174, 744.591 179.566 C 737.098 178.442, 731.669 175.055, 730.494 170.772 C 728.344 162.929, 722.437 161.536, 712 166.412 C 708.975 167.824, 705.539 168.985, 704.364 168.990 C 703.190 168.996, 700.940 169.672, 699.364 170.494 C 695.063 172.737, 692.306 172.327, 689.342 169 C 685.936 165.177, 682.955 165.199, 679.077 169.077 C 675.482 172.672, 675.262 174.741, 677.996 179.226 C 679.162 181.137, 679.994 184.269, 679.996 186.750 C 680 191.518, 680.149 191.389, 676.315 189.925 C 669.058 187.152, 663.535 186.887, 656.908 188.995 C 653.384 190.115, 647.197 191.469, 643.159 192.003 C 635.181 193.058, 628.900 195.978, 626.400 199.793 C 624.943 202.016, 624.391 202.154, 619.427 201.534 C 615.314 201.020, 613.506 201.232, 611.796 202.430 C 608.598 204.670, 607.258 204.406, 604.060 200.904 C 600.251 196.734, 598.380 197.365, 593.385 204.506 C 588.457 211.551, 584.931 213.988, 579.654 213.995 C 574.861 214.001, 571.760 211.853, 561.891 201.691 C 553.533 193.083, 550 187.156, 550 181.738 C 550 178.734, 549.562 178.043, 547.122 177.192 L 544.244 176.189 543.796 159.845 C 543.313 142.186, 543.848 138.846, 547.422 137.217 C 550.280 135.915, 554 128.508, 554 124.120 C 554 115.787, 544.521 102, 538.792 102 C 535.498 102, 535.430 101.306, 538 94 C 539.973 88.390, 540.448 83.275, 539.370 79.250 C 538.804 77.139, 538.263 77.006, 530.633 77.100 C 526.160 77.156, 520.735 77.615, 518.578 78.120 M 518.283 81.110 C 514.880 82.094, 514.036 83.945, 512.478 93.837 C 511.942 97.242, 510.830 99.069, 507.307 102.337 C 504.839 104.627, 502.479 107.377, 502.064 108.449 C 501.431 110.082, 500.483 110.355, 496.239 110.130 C 492.984 109.957, 490.009 110.461, 487.926 111.538 C 481.194 115.020, 474.894 114.984, 461.144 111.386 C 454.190 109.566, 447.504 108.060, 446.286 108.039 C 443.125 107.983, 439 114.377, 439 119.331 C 439 124.434, 436.648 129.186, 433.080 131.294 C 429.047 133.676, 427.914 133.474, 423.341 129.560 C 420.210 126.880, 417.147 125.567, 409.482 123.621 L 399.643 121.122 396.745 123.561 C 392.873 126.819, 392.698 126.773, 386.467 120.880 C 382.005 116.660, 380.259 115.671, 376.535 115.251 C 366.906 114.166, 367.523 118.680, 378.461 129.352 C 384.677 135.417, 384.791 135.628, 386.429 144.003 C 388.516 154.678, 393.626 169.352, 396.006 171.506 C 397.001 172.406, 401.237 173.997, 405.420 175.042 C 414.817 177.391, 416.838 178.444, 418.048 181.626 C 420.511 188.103, 418.446 192.160, 412 193.511 C 406.721 194.617, 401.573 197.538, 400.282 200.159 C 399.648 201.447, 398.263 204.553, 397.204 207.063 C 392.872 217.328, 376.898 225.071, 352.185 228.887 C 344.514 230.071, 340.298 231.781, 335.801 235.533 C 334.317 236.772, 329.696 238.930, 325.532 240.330 C 317.281 243.104, 317.703 243.223, 313.733 237 C 310.395 231.767, 296.338 225.165, 289.860 225.787 L 285.168 226.238 285.683 220.369 C 286.143 215.135, 285.900 214.068, 283.431 210.500 C 281.909 208.300, 279.799 204.250, 278.743 201.500 C 276.262 195.040, 275.332 194, 272.033 194 C 268.569 194, 266.444 196.441, 265.543 201.453 C 264.231 208.759, 260.643 214, 256.953 214 C 256.467 214, 254.478 212.603, 252.534 210.895 L 248.998 207.791 246.186 210.801 C 240.428 216.965, 222.172 219.375, 201.500 216.699 C 195.450 215.916, 190.438 215.326, 190.362 215.388 C 190.287 215.450, 189.910 218.274, 189.524 221.664 L 188.824 227.828 194.148 231.414 C 198.715 234.489, 200.287 235, 205.190 235 C 215.016 235, 217.287 236.947, 216.622 244.800 C 216.140 250.481, 216.137 250.483, 206.166 250.614 C 195.403 250.755, 190.191 251.750, 189.115 253.866 C 188.659 254.765, 187.735 259.100, 187.064 263.500 C 186.392 267.900, 185.612 272.479, 185.331 273.675 C 184.584 276.858, 192.269 285, 196.020 285 C 199.212 285, 199.994 286.436, 200.014 292.332 C 200.034 298.472, 200.789 300.342, 203.988 302.179 C 206.193 303.444, 207.331 305.331, 208.846 310.238 L 210.826 316.646 203.034 367.779 C 194.814 421.719, 194.776 421.881, 188.239 429.953 L 186.314 432.331 181.650 428.032 L 176.987 423.733 172.743 425.290 C 170.410 426.147, 167.030 427.144, 165.233 427.507 C 163.072 427.943, 161.485 429.095, 160.549 430.906 C 157.875 436.075, 156.608 436.497, 143.596 436.542 C 127.870 436.598, 123.353 438.611, 108.128 452.353 C 105.171 455.022, 101.297 457.814, 99.519 458.557 C 96.460 459.835, 96.249 460.262, 95.609 466.508 C 94.727 475.122, 90.770 487.464, 87.275 492.500 C 84.879 495.954, 84.475 497.567, 84.317 504.318 L 84.135 512.136 77.625 518.488 C 74.044 521.981, 69.974 527.091, 68.580 529.843 L 66.044 534.846 68.151 539.609 L 70.258 544.372 68.018 546.186 C 66.786 547.184, 64.615 548, 63.193 548 L 60.608 548 64.054 551.566 C 65.949 553.527, 68.982 556.051, 70.794 557.175 C 74.001 559.163, 74.045 559.283, 72.465 561.694 C 70.874 564.122, 70.976 564.345, 77.818 573.335 C 87.531 586.098, 98 602.069, 98 604.125 C 98 605.072, 96.875 607.184, 95.500 608.818 C 92.075 612.888, 92.173 613, 99.180 613 C 104.607 613, 111.432 614.608, 121.116 618.170 C 123.932 619.205, 125.164 621.211, 126.861 627.519 C 129.020 635.548, 128.814 635.490, 143.605 632.199 C 155.243 629.610, 157.716 628.664, 166.379 623.495 C 171.984 620.150, 176.450 618.078, 176.933 618.598 C 177.393 619.094, 178.981 627.825, 180.462 638 C 183.743 660.539, 183.440 659.608, 189.180 664.851 L 193.861 669.127 198.465 667.563 C 200.998 666.703, 205.094 666, 207.568 666 C 210.458 666, 213.932 665.051, 217.283 663.347 C 224.818 659.516, 229.744 659.657, 234.965 663.852 C 239.008 667.101, 239.275 667.168, 243.682 666.059 C 251.263 664.150, 260.110 659.067, 267.494 652.379 C 272.448 647.892, 276.137 645.477, 280.089 644.136 C 288.433 641.305, 308.486 628.105, 315.877 620.580 C 319.628 616.760, 324.847 612.742, 328.552 610.821 C 334.838 607.562, 334.861 607.558, 340.675 608.953 C 343.879 609.722, 348.701 610.384, 351.391 610.425 C 357.556 610.519, 359.362 612.718, 361.283 622.472 C 362.466 628.477, 362.451 630.556, 361.176 637.472 C 358.778 650.478, 360.327 656.907, 370.603 676.597 C 375.224 685.450, 379.852 693.461, 380.888 694.398 C 385.672 698.728, 403.526 706.017, 415.500 708.528 C 419.900 709.451, 427.325 711.937, 432 714.052 C 436.675 716.167, 444.775 719.084, 450 720.533 C 455.225 721.982, 461.840 723.811, 464.700 724.598 C 467.797 725.449, 470.901 727.134, 472.373 728.764 C 487.627 745.647, 487.995 745.880, 496.694 744.133 C 505.728 742.318, 506.620 742.580, 519.254 750.746 C 532.703 759.440, 533 759.869, 533 770.615 C 533 774.938, 533.575 779.240, 534.361 780.800 C 537.618 787.263, 537.292 797.849, 533.807 798.761 C 532.768 799.032, 532.052 799.535, 532.215 799.877 C 532.378 800.220, 533.794 802.941, 535.361 805.924 C 537.386 809.779, 538.769 814.828, 540.140 823.376 C 541.202 829.991, 542.180 835.513, 542.314 835.647 C 542.448 835.781, 555.798 837.281, 571.981 838.981 C 588.164 840.681, 601.603 842.269, 601.844 842.511 C 602.086 842.753, 601.842 845.693, 601.302 849.046 C 600.503 854.006, 600.653 856.384, 602.103 861.820 C 603.083 865.494, 604.249 870.274, 604.693 872.442 C 605.398 875.883, 606.488 877.089, 613.288 881.942 C 625.386 890.577, 629.794 896.843, 631.148 907.334 L 632.241 915.804 628.595 920.579 C 626.590 923.205, 624.761 926.287, 624.530 927.427 C 621.891 940.494, 620.424 946.292, 618.398 951.675 C 615.477 959.434, 615.393 962.413, 618 965.727 C 620.423 968.807, 620.567 972.746, 618.371 975.880 C 615.952 979.334, 616.991 990.159, 620.144 994.361 C 623.093 998.290, 623.184 1003.412, 620.635 1021.815 L 618.791 1035.130 621.096 1039.476 C 624.755 1046.371, 627.348 1047.150, 649.772 1048.080 C 672.024 1049.003, 672.768 1049.152, 673.188 1052.798 C 673.480 1055.325, 673.791 1055.486, 678 1055.286 C 680.475 1055.168, 684.385 1055.304, 686.690 1055.588 C 691.750 1056.212, 691.525 1055.661, 696.453 1079.500 C 703.276 1112.503, 703.070 1111.921, 707.855 1111.785 C 709.354 1111.742, 712.918 1112.307, 715.774 1113.039 C 720.559 1114.265, 721.306 1114.205, 725.234 1112.283 C 731.361 1109.286, 735.428 1108.606, 736.866 1110.339 C 738.941 1112.839, 736.675 1140.771, 733.573 1150.926 C 732.158 1155.561, 731 1159.888, 731 1160.543 C 731 1162.427, 738.708 1167.034, 745.909 1169.453 C 754.684 1172.401, 754.887 1173.046, 754.887 1198 C 754.887 1210.488, 754.458 1218.757, 753.694 1220.997 C 752.244 1225.243, 747.132 1228.249, 733.186 1233.056 C 725.409 1235.737, 722.969 1237.087, 720.066 1240.318 C 712.452 1248.790, 709.316 1251.412, 704.006 1253.746 C 694.861 1257.767, 691.886 1261.663, 696 1264.232 C 698.909 1266.048, 698.451 1268.571, 694.949 1270.021 C 693.271 1270.716, 689.116 1274.416, 685.715 1278.242 C 682.314 1282.069, 677.631 1286.167, 675.309 1287.350 C 670.655 1289.719, 656.142 1304.961, 649 1314.979 C 646.525 1318.450, 642.143 1324.263, 639.263 1327.895 C 636.382 1331.528, 634.020 1334.735, 634.013 1335.023 C 634.006 1335.310, 636.870 1335.305, 640.377 1335.010 C 645.936 1334.544, 647.141 1334.060, 649.778 1331.238 C 653.349 1327.415, 653.013 1327.467, 657.739 1330 C 659.791 1331.100, 662.204 1332, 663.100 1332 C 666.151 1332, 669.869 1336.033, 671.953 1341.604 C 675.474 1351.014, 676.797 1353, 679.547 1353 C 683.434 1353, 684.537 1356.541, 683.188 1364.683 C 682.575 1368.381, 682.214 1371.547, 682.385 1371.718 C 682.555 1371.889, 686.349 1368.197, 690.814 1363.514 C 695.279 1358.831, 699.483 1355, 700.156 1355 C 700.829 1355, 703.431 1357.186, 705.940 1359.858 C 709.477 1363.626, 712.182 1365.347, 718 1367.531 C 727.406 1371.062, 738.461 1380.806, 737.683 1384.878 C 737.059 1388.141, 740.490 1391.192, 749.695 1395.561 L 756.993 1399.024 762.030 1409.467 C 765.482 1416.623, 768.203 1420.846, 770.675 1422.883 L 774.282 1425.857 771.286 1429.678 C 766.541 1435.730, 766 1437.381, 766 1445.812 C 766 1456.249, 766.784 1456.941, 775.078 1453.825 C 782.822 1450.917, 786.701 1445.489, 793.545 1427.990 C 800.567 1410.034, 803.050 1406.672, 817.286 1395.834 C 838.923 1379.361, 849.603 1365.506, 861.094 1339 C 874.462 1308.166, 878.824 1302.224, 898.230 1288.421 C 911.209 1279.188, 916.033 1272.598, 918.135 1261.228 C 918.713 1258.100, 919.831 1254.293, 920.619 1252.770 C 923.359 1247.471, 924.224 1239.905, 922.329 1237.811 C 920.423 1235.705, 920.347 1229.266, 922.009 1210.505 C 922.544 1204.452, 922.987 1195.650, 922.991 1190.944 C 922.999 1183.418, 923.298 1181.985, 925.476 1179.033 C 926.837 1177.187, 928.469 1174.062, 929.102 1172.089 C 930.626 1167.337, 932.056 1165.829, 940.968 1159.578 C 945.110 1156.673, 952.053 1150.378, 956.396 1145.591 C 961.438 1140.032, 966.059 1135.990, 969.182 1134.408 C 974.772 1131.575, 982 1125.400, 982 1123.456 C 982 1120.453, 986.794 1118.312, 994.928 1117.685 C 1003.996 1116.986, 1006.998 1115.734, 1011.946 1110.585 C 1015.511 1106.877, 1019.237 1105.986, 1022.925 1107.960 C 1023.912 1108.488, 1026.351 1108.655, 1028.346 1108.331 C 1031.507 1107.818, 1031.901 1107.452, 1031.407 1105.484 C 1030.792 1103.033, 1033.963 1100, 1037.140 1100 C 1040.281 1100, 1047.811 1096.165, 1051.869 1092.499 C 1055.024 1089.649, 1056.043 1087.894, 1056.565 1084.414 C 1057.561 1077.774, 1060.993 1077.040, 1069.583 1081.628 C 1072.565 1083.221, 1072.939 1083.169, 1081.069 1080.034 C 1090.429 1076.424, 1092.974 1076.419, 1104.948 1079.985 C 1110.661 1081.686, 1113.719 1081.906, 1126.456 1081.535 C 1141.121 1081.108, 1141.350 1081.066, 1144.902 1078.165 C 1148.136 1075.525, 1148.467 1074.806, 1148.177 1071.067 C 1147.871 1067.115, 1148.164 1066.614, 1154.057 1061.024 C 1159.420 1055.937, 1161.695 1054.606, 1170.879 1051.183 L 1181.500 1047.225 1182 1037.362 C 1182.586 1025.800, 1184.363 1021.280, 1193.791 1007.368 C 1197.097 1002.491, 1201.942 994.122, 1204.558 988.771 C 1207.174 983.420, 1211.518 976.445, 1214.212 973.271 C 1224.918 960.659, 1226.160 957.492, 1223.907 948.547 C 1222.178 941.680, 1224.215 934.849, 1233.472 916.469 C 1242.594 898.354, 1242.750 897.749, 1245.009 871.741 C 1246.170 858.365, 1247.391 854.136, 1253.204 843.359 C 1257.282 835.799, 1257.318 835.642, 1256.024 831.101 C 1255.303 828.570, 1254.497 819.343, 1254.233 810.596 C 1253.347 781.220, 1259.705 747.137, 1267.610 738.885 C 1270.047 736.342, 1270.169 735.764, 1269.498 729.980 C 1268.782 723.812, 1268.786 723.797, 1271.140 724.531 C 1276.602 726.234, 1277.863 726.992, 1278.482 728.943 C 1280.078 733.970, 1282.881 730.926, 1310.315 694.373 C 1329.923 668.248, 1334.199 663.418, 1346.936 653.003 C 1355.356 646.119, 1357.129 644.090, 1361.338 636.531 C 1363.979 631.790, 1368.033 625.777, 1370.349 623.170 C 1377.079 615.592, 1397.523 587.920, 1399.993 583.045 C 1401.234 580.595, 1403.994 573.546, 1406.125 567.382 L 1410 556.174 1410 538.275 C 1410 523.894, 1409.623 518.915, 1408.084 512.938 C 1407.031 508.847, 1405.196 498.975, 1404.008 491 C 1401.503 474.189, 1400.303 471.101, 1395.158 468.209 C 1388.225 464.312, 1365.522 458.811, 1354.854 458.442 C 1342.102 458.001, 1336.196 454.620, 1330.552 444.527 C 1327.553 439.165, 1326.015 437.535, 1322.063 435.532 C 1319.408 434.187, 1315.738 431.154, 1313.908 428.793 C 1308.647 422.008, 1294.768 407.955, 1291.800 406.408 C 1290.314 405.633, 1287.697 405, 1285.984 405 C 1281.960 405, 1279.865 403.835, 1272.151 397.304 C 1265.292 391.497, 1259.146 388.087, 1245.946 382.764 C 1230.418 376.502, 1225.695 375.631, 1214.109 376.892 C 1198.059 378.638, 1195.876 378.408, 1181.390 373.444 C 1172.028 370.236, 1165.344 368.608, 1158.797 367.942 C 1153.684 367.421, 1145.450 365.880, 1140.500 364.518 C 1130.085 361.651, 1115.253 359.008, 1109.558 359.003 C 1105.987 359, 1098.998 362.434, 1090.886 368.176 C 1088.162 370.104, 1086.016 368.446, 1085.844 364.281 C 1085.574 357.717, 1086.051 355.636, 1089.041 350.304 L 1091.956 345.108 1087.920 345.269 C 1082.624 345.480, 1082.034 344.348, 1082.015 333.941 C 1081.997 323.504, 1081.438 322.637, 1072.690 319.461 C 1063.903 316.272, 1063.733 316.293, 1060.619 321 C 1056.749 326.847, 1053.811 326.534, 1050.458 319.918 C 1047.359 313.801, 1046.523 313.372, 1016.500 302.469 C 1004.950 298.274, 992.350 293.661, 988.500 292.217 C 970.633 285.516, 954.608 291.959, 950.922 307.325 C 949.342 313.913, 942.006 321.467, 930.080 328.786 C 921.250 334.205, 918.666 334.613, 914.750 331.211 C 911.793 328.641, 912.603 327.319, 925.169 314.202 C 938.852 299.919, 941.479 295.419, 942.504 284.500 C 942.865 280.650, 943.370 276.744, 943.626 275.820 C 944.035 274.341, 943.727 274.277, 941.055 275.286 C 938.448 276.269, 936.638 275.983, 928.259 273.262 C 915.942 269.262, 901.803 266.785, 891.500 266.822 C 882.307 266.855, 880 266.397, 880 264.540 C 880 262.895, 882.197 262.007, 886.332 261.978 C 890.555 261.949, 897.343 258.776, 899.367 255.886 C 901.515 252.820, 901.427 252, 898.950 252 C 895.468 252, 891.343 249.241, 890.009 246.022 C 888.956 243.479, 888.371 243.083, 886.618 243.724 C 879.598 246.295, 871 243.150, 871 238.012 C 871 234.529, 872.346 233.664, 882.764 230.450 C 892.495 227.447, 894 226.009, 894 219.714 C 894 216.765, 895.254 211.086, 897.076 205.778 C 898.768 200.851, 899.910 196.577, 899.614 196.281 C 899.319 195.985, 897.060 196.251, 894.595 196.872 C 886.876 198.815, 885.557 198.443, 881.037 193.045 C 878.698 190.251, 875.376 187.542, 873.422 186.836 C 869.718 185.496, 868.979 184.596, 862.070 173 C 858.027 166.214, 857.614 164.929, 857.728 159.500 C 857.797 156.200, 857.177 149.450, 856.349 144.500 C 855.521 139.550, 854.514 130.251, 854.111 123.835 C 853.460 113.469, 853.074 111.711, 850.643 108.036 C 849.138 105.762, 847.226 103.640, 846.393 103.321 C 843.761 102.311, 839.258 107.913, 835.896 116.379 C 831.080 128.512, 827.518 132.950, 812.838 145.112 C 809.384 147.973, 807.775 150.466, 805.091 157.112 C 800.953 167.355, 792.292 180.876, 789.399 181.610 C 788.095 181.940, 785.862 181.167, 783.509 179.571 C 778.958 176.482, 778.938 176.481, 774 179 C 768.727 181.690, 764.791 181.536, 761.182 178.500 C 757.325 175.254, 756.749 175.330, 753.568 179.500 C 750.369 183.694, 747.809 183.945, 738.718 180.955 C 732.391 178.874, 728 175.274, 728 172.167 C 728 166.018, 722.235 164.514, 713.772 168.455 C 699.045 175.312, 691.081 175.915, 686.817 170.494 C 684.988 168.169, 684.747 168.120, 682.479 169.606 C 679.037 171.861, 678.626 174.309, 680.957 178.658 C 683.288 183.008, 683.634 189.750, 681.665 192.444 C 680.405 194.167, 680.051 194.180, 675.415 192.684 C 666.414 189.779, 663.539 189.658, 656.807 191.897 C 653.338 193.050, 647.219 194.406, 643.210 194.909 C 635.447 195.882, 632.136 197.496, 628.127 202.261 C 625.781 205.048, 625.307 205.194, 620.425 204.620 C 616.863 204.201, 614.103 204.477, 611.668 205.494 C 607.481 207.244, 605.328 206.705, 602.213 203.127 L 599.925 200.500 598.213 202.682 C 597.271 203.883, 595.227 206.704, 593.671 208.953 C 588.117 216.976, 578.754 219.209, 571.470 214.246 C 560.240 206.594, 547 189.592, 547 182.823 C 547 180.697, 546.417 179.892, 544.536 179.420 C 541.216 178.586, 541.126 178.068, 540.830 157.902 C 540.554 139.147, 541.222 136.016, 545.813 134.559 C 547.879 133.904, 549.555 131.187, 550.951 126.230 C 552.793 119.688, 543.836 105, 538.004 105 C 532.724 105, 531.675 101.138, 534.978 93.859 C 536.066 91.462, 536.966 87.362, 536.978 84.750 L 537 80 529.250 80.090 C 524.987 80.140, 520.052 80.599, 518.283 81.110" stroke="none" fill="#111111" fill-rule="evenodd"/>
</svg>