<svg xmlns="http://www.w3.org/2000/svg" width="1500" height="1500" viewBox="0 0 1500 1500" version="1.1">
	<path d="M 862.229 42.719 L 855.958 43.097 846.908 52.146 C 835.248 63.806, 826.568 68.294, 818.257 66.963 C 815.373 66.501, 812.010 65.420, 810.784 64.561 C 809.366 63.568, 806.376 63, 802.566 63 C 796.588 63, 796.566 63.011, 791.423 68.537 C 788.589 71.583, 785.466 75.970, 784.482 78.287 C 778.433 92.538, 778.366 92.642, 773.874 94.894 C 771.468 96.100, 767.250 99.620, 764.500 102.716 L 759.500 108.345 759.500 116.506 C 759.500 124.219, 759.329 124.861, 756.376 128.225 C 752.379 132.777, 751.359 137.490, 749.934 158 C 749.203 168.526, 748.102 176.652, 746.894 180.444 C 744.413 188.232, 744.464 194.911, 747.044 199.861 C 748.941 203.500, 749.008 204.422, 747.963 212.641 C 746.365 225.217, 743.536 230.395, 738.037 230.809 C 734.182 231.099, 733.578 231.597, 728.314 238.809 C 725.228 243.039, 720.930 248.842, 718.764 251.706 C 716.225 255.061, 713.831 260.037, 712.027 265.706 C 710.489 270.542, 707.755 277.159, 705.953 280.410 L 702.677 286.319 700.783 283.910 C 692.764 273.709, 691.760 272.895, 679.781 266.890 C 672.097 263.039, 665.855 259.103, 662.605 256.060 C 657.723 251.490, 657.182 251.253, 650.205 250.629 C 641.354 249.839, 640.302 250.334, 635.074 257.752 C 630.442 264.325, 625.853 267.796, 620.082 269.093 C 617.872 269.589, 613.992 271.456, 611.460 273.242 L 606.854 276.488 602.430 271.805 C 598.179 267.306, 597.724 267.094, 590.866 266.418 C 584.907 265.831, 582.599 265.019, 576.906 261.510 C 573.155 259.197, 568.089 256.542, 565.648 255.609 C 560.783 253.752, 557.208 249.330, 555.047 242.500 C 551.164 230.226, 528.021 189.733, 518.230 178.084 L 515.359 174.668 507.484 175.938 C 502.153 176.798, 496.903 178.548, 491.233 181.354 C 481.676 186.084, 481.718 185.952, 486.502 196.410 C 488.115 199.937, 488.996 203.420, 488.807 205.520 L 488.500 208.920 480 203.480 C 475.325 200.488, 471.033 198.031, 470.462 198.020 C 469.352 197.999, 460 207.124, 460 208.229 C 460 210.055, 471.411 218, 474.033 218 C 478.025 218, 478.416 219.269, 476.400 225.680 C 474.298 232.362, 475.198 233.606, 484.270 236.549 C 490.830 238.677, 490.786 238.636, 495 246.756 C 498.111 252.750, 498.806 253.479, 501.250 253.312 C 503.821 253.136, 504 253.382, 504 257.107 C 504 262.278, 506.784 265.085, 514.820 268.015 C 520.028 269.914, 521.410 270.964, 523.988 274.981 C 528.455 281.942, 530.654 283.697, 533.042 282.206 C 536.180 280.246, 536.668 280.682, 539.120 287.628 C 541.591 294.626, 543.320 296.357, 549 297.521 C 550.925 297.915, 561.476 302.752, 572.447 308.269 C 594.163 319.189, 600.570 324.074, 602.998 331.563 C 603.700 333.728, 605.563 338.075, 607.137 341.221 C 608.712 344.368, 610 347.824, 610 348.900 C 610 351.601, 612.827 354.190, 615.017 353.495 C 616.435 353.045, 616.974 353.629, 617.521 356.211 C 618.991 363.153, 622.152 368.835, 625.936 371.339 C 627.999 372.704, 630.466 375.463, 631.418 377.469 C 633.129 381.074, 633.117 381.176, 630.377 386.308 C 627.810 391.114, 627.554 392.651, 626.932 407 C 626.562 415.525, 626.618 425.403, 627.057 428.950 C 628.001 436.570, 627.173 438.641, 622.727 439.786 C 618.132 440.971, 618.098 443.765, 622.624 448.291 C 624.664 450.331, 626.718 452, 627.189 452 C 627.660 452, 630.060 453.857, 632.522 456.127 C 636.586 459.873, 637 460.682, 636.998 464.877 C 636.997 468.975, 636.543 469.927, 632.998 473.262 C 629.398 476.650, 629 477.508, 629 481.886 C 629 487.906, 629.789 490.149, 641.617 517.741 L 651.151 539.982 649.031 545.741 C 647.865 548.908, 645.971 553.809, 644.821 556.631 C 642.820 561.543, 642.800 561.966, 644.365 566.559 C 646.746 573.546, 646.614 574.024, 639.507 584.202 C 631.997 594.955, 631.326 597.387, 632.831 608.395 C 633.440 612.853, 634.290 620.095, 634.719 624.489 C 635.474 632.208, 635.616 632.546, 638.926 634.489 C 647.869 639.739, 650.414 643.551, 653.956 657 C 655.767 663.875, 657.686 673.100, 658.220 677.500 C 659.318 686.540, 660.114 688, 663.946 688 C 666.997 688, 682.992 692.592, 684.221 693.821 C 684.661 694.261, 685.872 697.687, 686.910 701.433 C 689.364 710.282, 691.622 712.676, 696.057 711.130 C 701.176 709.346, 702.614 709.726, 707.872 714.250 C 710.588 716.587, 716.003 721.161, 719.905 724.414 C 728.315 731.423, 728.897 733.942, 724.058 742.399 C 721.394 747.055, 721.134 748.315, 721.308 755.702 C 721.488 763.368, 721.333 764.038, 718.750 766.736 C 715.037 770.616, 715.215 771.477, 721 777.594 C 723.750 780.501, 726 783.519, 726 784.299 C 726 785.080, 727.838 787.807, 730.085 790.359 C 734.754 795.663, 734.441 796.035, 728.324 792.450 C 722.144 788.828, 721.660 789.982, 725.694 798.712 C 728.998 805.864, 731.091 814, 729.627 814 C 729.277 814, 725.636 811.075, 721.537 807.500 C 717.438 803.925, 713.322 801, 712.391 801 C 711.460 801, 708.344 803.431, 705.466 806.402 C 700.960 811.054, 699.420 811.979, 694.367 813.067 C 686.647 814.729, 686.549 814.830, 683.421 824.325 C 680.037 834.593, 678.638 837.406, 674.165 842.925 C 672.193 845.359, 668.466 851.712, 665.883 857.043 C 660.834 867.466, 655.458 874.323, 640.285 889.693 C 633.078 896.994, 630.832 899.951, 629.981 903.264 C 627.798 911.757, 627.373 912.492, 623.594 914.298 C 620.564 915.745, 619.274 917.324, 616.970 922.407 C 613.573 929.898, 609.918 934.489, 605.631 936.650 C 600.233 939.371, 597.138 943.097, 594.466 950.090 C 590.562 960.306, 589 960.921, 589 952.245 C 589 947.336, 588.565 944.884, 587.544 944.036 C 584.891 941.835, 582.727 944.895, 578.044 957.473 C 575.675 963.835, 575.005 964.697, 570.399 967.326 C 563.950 971.008, 562.809 972.941, 562.218 981.191 C 561.782 987.295, 561.567 987.839, 559.941 986.968 C 555.190 984.426, 553.123 989.117, 554.854 998.513 C 557.008 1010.199, 555.808 1011.541, 548.159 1006 C 543.035 1002.288, 543.137 1002.285, 534 1006.482 C 529.875 1008.377, 526.350 1009.494, 526.167 1008.964 C 524.557 1004.309, 515 1014.125, 515 1020.434 C 515 1023.818, 513.744 1023.673, 510.589 1019.923 C 507.148 1015.834, 506.490 1012.720, 507.836 1006.891 C 509.673 998.933, 508.513 997.849, 501 1000.500 C 498.662 1001.325, 495.730 1002, 494.485 1002 C 493.240 1002, 491.180 1002.843, 489.908 1003.874 L 487.594 1005.747 490.434 1015.365 C 493.709 1026.453, 494.176 1026.987, 502.365 1029 L 508.467 1030.500 509.763 1036.370 L 511.059 1042.241 505.279 1047.622 C 502.101 1050.582, 498.273 1053.282, 496.772 1053.622 C 492.849 1054.512, 492.616 1055.060, 489.597 1070.500 L 486.860 1084.500 489.576 1090.500 C 491.809 1095.430, 492.260 1097.762, 492.108 1103.577 C 491.954 1109.447, 492.456 1111.988, 495.050 1118.466 C 498.060 1125.984, 498.192 1126.934, 498.558 1143.809 L 498.938 1161.340 502.219 1164.731 C 505.275 1167.889, 505.486 1168.547, 505.298 1174.311 C 505.045 1182.078, 506.393 1187.258, 510.055 1192.580 C 511.897 1195.257, 513.293 1199.024, 513.961 1203.123 C 514.533 1206.630, 515.601 1211.525, 516.335 1214 C 518.758 1222.170, 516.794 1238.539, 512.380 1246.964 C 509.474 1252.511, 508.587 1255.588, 507.847 1262.681 C 506.404 1276.499, 504.051 1286.953, 501.030 1292.968 C 498.207 1298.588, 496 1306.867, 496 1311.841 C 496 1313.786, 497.336 1315.881, 500.592 1319.042 C 506.515 1324.792, 507.827 1327.912, 505.212 1330.029 C 500.268 1334.033, 499.935 1337.929, 503.992 1344.326 C 508.137 1350.862, 510.520 1351.567, 517.569 1348.340 L 523.211 1345.757 525.794 1348.340 C 527.929 1350.474, 528.336 1351.726, 528.139 1355.544 C 527.974 1358.715, 528.529 1361.231, 529.907 1363.567 C 531.011 1365.439, 532.399 1368.769, 532.991 1370.968 C 534.101 1375.089, 536.772 1377.409, 539.292 1376.441 C 541.634 1375.543, 543.267 1370.957, 543.903 1363.500 C 544.490 1356.627, 544.530 1356.545, 546.102 1359 C 547.339 1360.931, 547.599 1363.254, 547.245 1369.206 L 546.786 1376.911 539.143 1378.517 C 527.884 1380.883, 527 1381.376, 527 1385.287 C 527 1391.241, 528.579 1392.260, 536.027 1391.113 C 539.587 1390.565, 546.637 1389.809, 551.693 1389.434 C 559.580 1388.848, 561.202 1388.414, 563.117 1386.376 C 564.344 1385.069, 565.709 1384, 566.150 1384 C 567.777 1384, 564.889 1389.239, 561.499 1392.436 C 557.485 1396.222, 557.556 1395.715, 559.426 1407.236 C 560.876 1416.170, 563.219 1420.976, 567.148 1423.079 C 570.251 1424.740, 571.629 1423.608, 573.906 1417.523 C 577.432 1408.098, 579.840 1404.181, 583.735 1401.534 C 588.923 1398.009, 589.573 1398.263, 589.145 1403.645 C 588.942 1406.200, 589.360 1410.060, 590.074 1412.224 C 591.115 1415.380, 591.130 1417.066, 590.146 1420.745 C 587.980 1428.843, 590.640 1428.502, 607.604 1418.507 C 613.549 1415.004, 618.771 1412.358, 619.207 1412.628 C 619.643 1412.897, 620 1414.441, 620 1416.059 C 620 1419.707, 619.279 1419.767, 632.790 1414.996 C 647.486 1409.807, 649.547 1408.674, 652.376 1404.222 C 655.783 1398.860, 657.766 1397.375, 665.314 1394.534 C 674.021 1391.256, 674 1391.252, 674 1396.309 C 674 1403.431, 675.514 1404.550, 681.520 1401.864 C 685.424 1400.117, 688.040 1399.689, 693.631 1399.881 C 702.982 1400.203, 706.281 1398.726, 715.320 1390.170 C 721.336 1384.476, 723.439 1383.103, 727.073 1382.496 C 731.614 1381.739, 738.582 1375.630, 742.767 1368.739 L 744.444 1365.978 745.472 1370.204 C 746.383 1373.950, 747.174 1374.808, 752.427 1377.754 C 761.073 1382.604, 762.670 1381.553, 762.900 1370.865 L 763 1366.230 769.484 1366.751 C 777.427 1367.388, 779.454 1366.184, 778.661 1361.296 C 778.044 1357.495, 778.081 1357.487, 786.500 1359.520 C 795.165 1361.612, 795.710 1361.489, 798.042 1356.917 C 799.188 1354.671, 800.660 1353.039, 801.313 1353.288 C 807.587 1355.689, 814.179 1357.172, 816.259 1356.650 C 818.934 1355.978, 819.047 1355.797, 822.520 1346.528 C 825.619 1338.256, 826.197 1338.074, 835.701 1342.365 C 841.669 1345.060, 845.142 1346.009, 849.126 1346.035 C 852.082 1346.055, 855.625 1346.714, 857 1347.500 C 858.375 1348.286, 860.010 1348.945, 860.632 1348.965 C 861.255 1348.984, 871.451 1338.313, 883.291 1325.250 C 895.130 1312.188, 908.045 1298.350, 911.989 1294.500 C 917.210 1289.405, 920.258 1285.338, 923.191 1279.554 C 925.993 1274.027, 928.784 1270.232, 932.360 1267.085 C 951.827 1249.953, 962.348 1237.994, 963.539 1231.641 C 964.377 1227.177, 971.130 1218.326, 986.844 1201.101 C 992.664 1194.720, 1004.075 1180.500, 1012.202 1169.500 C 1020.329 1158.500, 1029.055 1147.050, 1031.594 1144.056 C 1038.215 1136.246, 1047.885 1121.578, 1049.580 1116.772 C 1050.378 1114.511, 1053.192 1110.374, 1055.834 1107.580 C 1058.476 1104.786, 1061.504 1100.475, 1062.564 1098 C 1063.624 1095.525, 1065.689 1091.171, 1067.153 1088.325 C 1068.617 1085.478, 1070.573 1080.542, 1071.499 1077.355 C 1072.426 1074.168, 1074.042 1069.877, 1075.092 1067.820 C 1078.697 1060.753, 1077.777 1055.876, 1070.524 1043.614 C 1066.334 1036.529, 1063.681 1030.769, 1062.927 1027.114 C 1060.864 1017.117, 1055.942 1011, 1049.960 1011 C 1049.279 1011, 1045.972 1008.625, 1042.611 1005.721 C 1039.250 1002.818, 1033.575 998.100, 1030 995.237 C 1023.678 990.173, 1019.333 985.660, 1000.069 964.141 L 990.795 953.782 996.647 950.555 C 1003.503 946.776, 1008.058 941.233, 1013.868 929.600 C 1020.199 916.926, 1020.711 913.944, 1018.701 901.452 L 1016.998 890.864 1008.249 882.089 C 1003.437 877.263, 997.878 872.115, 995.897 870.650 L 992.293 867.986 991.724 858.456 C 991.114 848.225, 993.090 839.370, 997.155 834.115 C 999.870 830.606, 999.434 827.886, 995.309 822.591 C 990.126 815.938, 987.933 815.024, 980.270 816.320 C 976.844 816.900, 973.795 817.128, 973.495 816.828 C 972.363 815.696, 969.594 797.222, 969.548 790.500 L 969.500 783.500 973.500 783.407 C 975.700 783.355, 978.008 783.243, 978.629 783.157 C 980.549 782.890, 982.073 777.686, 981.908 771.964 C 981.821 768.959, 982.069 765.335, 982.461 763.910 C 983.114 761.530, 982.760 761.143, 978.086 759.132 C 972.442 756.705, 972.109 755.778, 974.468 749.089 C 975.276 746.800, 976.155 740.848, 976.421 735.861 C 976.733 730.011, 977.463 725.943, 978.478 724.393 C 981.691 719.489, 981.549 716.315, 977.965 712.968 L 974.687 709.905 978.593 705.727 C 985.175 698.688, 986.811 698.398, 993.599 703.068 C 1002.391 709.117, 1003.592 705.495, 999.468 685.372 C 991.344 645.732, 990.812 644.307, 961.554 583.750 C 949.259 558.301, 941.323 540.622, 939.972 535.674 C 936.741 523.832, 937.431 521.973, 954.512 496.499 C 962.352 484.807, 969.749 472.614, 970.950 469.404 C 972.151 466.194, 976.023 459.158, 979.555 453.768 C 994.559 430.868, 994.756 424.959, 981.006 410.263 C 976.321 405.256, 972.123 399.627, 970.523 396.206 C 969.056 393.068, 964.686 384.751, 960.812 377.724 C 953.186 363.890, 951.743 362.388, 931.108 346.814 L 922.716 340.480 913.421 316.643 L 904.126 292.806 913.063 267.209 C 917.978 253.131, 922 241.266, 922 240.843 C 922 239.818, 911.101 232.470, 908.250 231.573 C 904.144 230.281, 905.883 228.223, 919.453 218.319 C 926.852 212.919, 932.927 207.901, 932.953 207.168 C 932.979 206.436, 931.445 203.938, 929.544 201.619 L 926.087 197.401 927.101 187.450 C 928.336 175.331, 929.391 173.334, 943.045 157.299 C 948.520 150.869, 953 145.034, 953 144.333 C 953 141.731, 943.708 108.420, 942.393 106.307 C 940.814 103.769, 931.573 98.525, 921.500 94.449 C 908.427 89.160, 897.009 80.208, 888.961 68.938 C 886.507 65.503, 883.328 61.299, 881.897 59.596 C 878.049 55.021, 876.655 52.018, 876.046 47 C 875.429 41.916, 875.448 41.922, 862.229 42.719 M 861.325 45.729 C 857.611 46.066, 856.109 47.123, 847.723 55.304 C 835.599 67.130, 827.225 71.123, 817.500 69.713 C 814.200 69.235, 810.790 68.204, 809.921 67.422 C 808.953 66.550, 806.178 66, 802.749 66 C 797.317 66, 797.037 66.137, 793.063 70.750 C 790.811 73.362, 788.189 77.300, 787.235 79.500 C 781.856 91.903, 779.502 95.499, 775.454 97.500 C 773.229 98.600, 769.233 101.859, 766.574 104.742 C 761.881 109.833, 761.758 110.123, 762.347 114.742 C 763.132 120.902, 761.779 126.553, 758.727 129.862 C 757.388 131.313, 755.949 133.400, 755.528 134.500 C 754.564 137.023, 752.076 161.644, 752.032 169.093 C 752.015 172.170, 751.073 177.345, 749.941 180.593 C 747.312 188.133, 747.297 193.917, 749.892 199.276 C 752.760 205.201, 750.932 220.765, 746.427 228.787 C 743.632 233.762, 743.312 233.998, 739.344 233.999 C 735.229 234, 735.117 234.098, 727.844 244.106 C 717.335 258.567, 717.118 258.932, 715.444 265 C 713.095 273.522, 704.863 290, 702.956 290 C 702.063 290, 699.618 287.510, 697.522 284.468 C 692.373 276.991, 689.510 274.774, 676.723 268.361 C 670.622 265.301, 663.724 260.960, 661.138 258.552 C 656.838 254.547, 655.979 254.181, 649.349 253.525 L 642.198 252.817 637.959 258.658 C 632.150 266.662, 625.152 271.956, 620.290 272.026 C 619.305 272.040, 616.046 273.615, 613.046 275.526 C 606.262 279.848, 606.886 279.909, 600.945 274.352 C 596.334 270.039, 595.489 269.655, 589.238 269.034 C 583.477 268.461, 581.280 267.613, 574.085 263.182 C 569.457 260.332, 564.866 258, 563.883 258 C 560.423 258, 555.266 251.153, 551.584 241.672 C 544.483 223.385, 519.016 180.095, 514.294 178.283 C 511.496 177.209, 499.230 180.295, 492.737 183.707 C 485.299 187.616, 485.299 187.617, 489.045 195.047 C 492.572 202.041, 492.735 212, 489.324 212 C 488.489 212, 483.964 209.496, 479.268 206.435 L 470.730 200.869 467.365 204.131 C 465.514 205.925, 464 207.715, 464 208.110 C 464 209.708, 472.581 215, 475.174 215 C 479.311 215, 481.187 218.392, 479.875 223.500 C 477.899 231.188, 477.925 231.240, 484.945 233.763 C 493.100 236.694, 493.405 236.967, 497.062 244.630 C 499.927 250.633, 500.281 250.980, 503.300 250.747 C 506.491 250.501, 506.501 250.515, 506.802 255.743 C 507.139 261.600, 507.504 261.954, 517 265.628 C 521.600 267.409, 523.169 268.718, 526.587 273.628 C 529.042 277.155, 531.239 279.336, 532.087 279.090 C 537.803 277.430, 538.647 278.125, 542.221 287.441 C 544.444 293.237, 544.622 293.412, 549.500 294.607 C 557.515 296.571, 592.378 314.794, 598.080 320 C 602.935 324.432, 611.331 340.579, 612.712 348.137 C 613.116 350.346, 613.690 350.752, 616.246 350.637 C 619.174 350.506, 619.353 350.738, 620.647 356.342 C 622.320 363.590, 624.414 367.223, 628.212 369.466 C 635.027 373.492, 636.754 381.331, 632.446 388.682 C 629.921 392.991, 629.891 393.297, 629.756 416.037 C 629.610 440.722, 629.589 440.823, 624.278 442.440 C 621.342 443.334, 622.908 446.018, 628.052 448.909 C 630.067 450.042, 633.580 452.991, 635.858 455.462 C 639.597 459.518, 640 460.457, 640 465.110 C 640 469.717, 639.624 470.619, 636.457 473.605 C 629.038 480.603, 629.212 481.533, 644.717 517.724 L 654.266 540.014 652.515 544.757 C 651.551 547.366, 649.618 552.115, 648.218 555.310 C 645.704 561.050, 645.693 561.185, 647.336 566.398 C 649.751 574.057, 649.672 574.337, 641.881 585.883 L 634.762 596.432 635.442 603.466 C 635.816 607.335, 636.432 614.775, 636.811 620 C 637.600 630.881, 637.805 631.350, 642.913 633.955 C 648.654 636.885, 652.636 642.106, 654.934 649.721 C 657.302 657.565, 660.741 673.404, 661.540 680.143 C 662.082 684.714, 662.156 684.796, 666.295 685.425 C 668.608 685.776, 673.875 687.090, 678 688.346 C 686.178 690.836, 687.814 692.637, 689.978 701.531 C 691.554 708.005, 692.906 709.277, 696.777 707.928 C 701.257 706.366, 704.139 707.319, 709.897 712.265 C 712.609 714.594, 718.241 719.367, 722.414 722.871 C 731.494 730.497, 732.175 733.488, 726.982 742.910 C 724.291 747.792, 724 749.202, 724 757.372 C 724 766.044, 723.884 766.518, 721.250 768.641 L 718.500 770.857 722.641 775.178 C 724.919 777.555, 727.535 781.075, 728.454 783 C 729.374 784.925, 732.410 788.580, 735.202 791.121 C 740.974 796.377, 740.947 798.543, 735.120 797.713 C 733.129 797.429, 730.634 796.850, 729.576 796.425 C 727.953 795.773, 727.782 795.953, 728.480 797.576 C 731.246 804.010, 733.068 810.666, 732.804 813.375 C 732.314 818.407, 729.421 817.867, 721.610 811.288 C 711.303 802.605, 712.452 802.811, 707.167 808.712 C 703.035 813.325, 701.708 814.128, 695.590 815.715 L 688.680 817.506 685.989 825.515 C 682.667 835.399, 680.696 839.332, 676.413 844.623 C 674.577 846.891, 671.043 853.006, 668.561 858.213 C 663.675 868.460, 657.443 876.422, 642.658 891.308 C 634.602 899.418, 633.656 900.782, 632.033 906.638 C 630.084 913.665, 627.947 916.723, 624.654 917.194 C 623.111 917.415, 621.486 919.584, 618.807 925 C 615.118 932.456, 610.549 937.516, 603.907 941.500 C 600.501 943.543, 599.919 944.420, 595.614 954 C 592.354 961.254, 589.457 964.848, 588.022 963.418 C 587.424 962.822, 586.600 958.772, 586.191 954.418 L 585.448 946.500 581.580 956.354 C 577.883 965.774, 577.474 966.361, 572.308 969.666 C 566.331 973.489, 565.007 975.868, 564.986 982.815 C 564.962 991.269, 563.065 994.193, 560 990.500 C 556.675 986.493, 556.499 988.249, 558.627 1004.242 C 559.736 1012.572, 555.854 1014.196, 547.497 1008.896 L 542.602 1005.792 535.551 1008.993 C 526.407 1013.145, 524.949 1013.536, 524.045 1012.073 C 522.655 1009.823, 518.118 1016.629, 517.400 1022.042 C 516.602 1028.058, 515.417 1028.275, 510.012 1023.392 C 505.071 1018.928, 503.450 1013.819, 504.867 1007.175 C 505.413 1004.618, 505.778 1002.455, 505.679 1002.369 C 505.292 1002.032, 492.001 1005.666, 491.391 1006.276 C 491.033 1006.633, 491.945 1010.786, 493.416 1015.505 C 496.267 1024.650, 496.892 1025.291, 504.076 1026.449 C 506.043 1026.766, 508.420 1027.587, 509.359 1028.273 C 511.337 1029.720, 514.376 1041.541, 513.256 1043.432 C 511.542 1046.326, 500.185 1055.915, 497.747 1056.527 C 495.798 1057.017, 494.967 1058.004, 494.535 1060.344 C 494.214 1062.080, 492.985 1068.077, 491.804 1073.672 L 489.657 1083.844 492.328 1089.797 C 494.442 1094.506, 495.001 1097.291, 495.005 1103.125 C 495.008 1108.933, 495.647 1112.140, 498.012 1118.219 C 500.836 1125.479, 501.041 1126.961, 501.464 1143.120 C 501.900 1159.749, 501.994 1160.384, 504.393 1162.900 C 507.815 1166.488, 509.114 1170.436, 508.381 1175.020 C 507.470 1180.714, 508.640 1185.252, 512.442 1190.779 C 514.888 1194.336, 516.018 1197.311, 516.548 1201.593 C 516.951 1204.842, 517.908 1209.290, 518.676 1211.477 C 519.740 1214.510, 519.913 1218.426, 519.405 1227.977 C 518.776 1239.807, 518.526 1240.943, 514.884 1248.500 C 511.536 1255.446, 510.893 1257.949, 510.004 1267.500 C 508.788 1280.579, 507.303 1286.573, 503.159 1295.128 C 501.327 1298.911, 499.812 1303.954, 499.431 1307.539 L 498.790 1313.577 502.824 1317.222 C 509.741 1323.471, 511.018 1328.885, 506.500 1332.813 C 503.202 1335.681, 503.345 1338.795, 507.006 1343.850 C 510.539 1348.727, 510.610 1348.738, 517 1345.500 C 523.327 1342.294, 523.969 1342.341, 527.804 1346.298 C 530.609 1349.192, 531 1350.266, 531 1355.075 C 531 1358.537, 531.604 1361.418, 532.641 1362.898 C 533.544 1364.187, 534.824 1367.076, 535.486 1369.319 C 536.148 1371.562, 537.167 1373.556, 537.750 1373.750 C 539.509 1374.336, 541.345 1366.930, 541.220 1359.750 C 541.085 1352.037, 541.952 1351.405, 546.923 1355.589 C 549.991 1358.171, 550 1358.206, 550 1368.457 L 550 1378.736 544.250 1380.333 C 541.087 1381.211, 536.587 1382.227, 534.250 1382.592 C 530.343 1383.202, 530 1383.497, 530 1386.253 C 530 1389.062, 530.192 1389.212, 533.057 1388.639 C 534.738 1388.302, 541.375 1387.512, 547.807 1386.883 C 557.780 1385.907, 559.873 1385.393, 562.036 1383.387 C 564.780 1380.843, 571 1379.042, 571 1380.792 C 571 1383.538, 566.540 1391.738, 563.804 1394.022 L 560.735 1396.585 561.972 1405.299 C 563.154 1413.631, 565.801 1419.789, 568.594 1420.704 C 569.195 1420.901, 570.880 1417.832, 572.338 1413.883 C 575.595 1405.062, 578.888 1400.608, 584.133 1397.932 C 590.556 1394.655, 591.379 1395.317, 592.306 1404.510 C 592.750 1408.904, 593.164 1414.862, 593.226 1417.750 C 593.288 1420.638, 593.626 1423, 593.978 1423 C 594.330 1423, 600.217 1419.626, 607.059 1415.502 C 621.036 1407.078, 622 1406.784, 622 1410.941 C 622 1415.268, 622.706 1415.288, 634.611 1411.302 C 645.694 1407.590, 646.670 1406.928, 653.303 1398.617 C 655.373 1396.023, 658.213 1394.292, 664.163 1391.997 C 675.276 1387.712, 676.422 1388.006, 676.800 1395.245 L 677.100 1400.990 681.253 1398.871 C 684.605 1397.161, 687.004 1396.784, 693.695 1396.916 C 703.512 1397.109, 704.209 1396.794, 713.562 1387.941 C 720.010 1381.839, 725.039 1379.029, 729.559 1379.006 C 730.689 1379, 738.465 1370.325, 741.441 1365.750 C 743.714 1362.256, 746.781 1362.129, 747.481 1365.500 C 747.766 1366.875, 748.233 1369.121, 748.517 1370.492 C 748.966 1372.656, 756.850 1378, 759.595 1378 C 759.959 1378, 760.047 1374.381, 759.791 1369.958 C 759.271 1360.974, 759.579 1360.378, 763.646 1362.499 C 765.216 1363.318, 768.638 1363.990, 771.250 1363.994 C 776.364 1364, 777.104 1362.932, 774.873 1358.763 C 772.765 1354.824, 775.940 1353.924, 784.291 1356.093 C 794.098 1358.640, 794.433 1358.583, 796.500 1354 C 798.584 1349.378, 798.771 1349.341, 806.500 1352 C 816.346 1355.388, 817.337 1354.888, 819.940 1345.222 C 822.577 1335.428, 825.427 1334.599, 837.550 1340.095 C 841.507 1341.890, 845.637 1343, 848.352 1343 C 850.770 1343, 854.567 1343.642, 856.790 1344.426 L 860.832 1345.852 877.156 1327.676 C 886.134 1317.679, 898.945 1303.875, 905.626 1297 C 915.213 1287.134, 918.558 1282.930, 921.499 1277.052 C 924.052 1271.948, 926.842 1268.181, 930.362 1265.085 C 940.046 1256.567, 954.961 1241.664, 957.572 1237.896 C 959.009 1235.823, 960.607 1232.246, 961.123 1229.946 C 962.178 1225.252, 968.361 1217.198, 984.766 1199.146 C 995.086 1187.791, 1002.341 1178.584, 1017.979 1157 C 1022.562 1150.675, 1028.047 1143.591, 1030.169 1141.258 C 1035.414 1135.490, 1045.554 1119.890, 1047.063 1115.267 C 1047.740 1113.195, 1050.590 1108.995, 1053.396 1105.934 C 1058.696 1100.155, 1064.345 1088.828, 1070.870 1070.900 C 1075.323 1058.665, 1075.125 1056.919, 1067.922 1044.787 C 1064.306 1038.697, 1061.245 1032.109, 1060.366 1028.525 C 1057.704 1017.664, 1055.007 1014, 1049.675 1014 C 1047.058 1014, 1022.620 993.029, 1012.618 982.200 C 998.540 966.958, 987 953.708, 987 952.787 C 987 952.353, 989.932 950.612, 993.515 948.919 C 1001.276 945.253, 1005.025 940.804, 1011.720 927.316 C 1017.107 916.465, 1017.815 911.642, 1015.680 900.326 L 1014.149 892.207 1005.325 883.353 C 1000.471 878.484, 994.826 873.150, 992.780 871.500 L 989.060 868.500 988.836 858 C 988.602 847.003, 991.169 835.765, 994.556 832.953 C 996.885 831.021, 996.241 828.131, 992.452 823.507 C 988.078 818.168, 987.121 817.787, 981.215 819.023 C 971.747 821.005, 970.818 820.098, 968.319 806.429 C 964.360 784.772, 965.623 779.045, 974.064 780.394 C 977.810 780.993, 977.924 780.922, 978.550 777.583 C 978.904 775.698, 978.906 772.849, 978.555 771.252 C 978.204 769.654, 978.361 767.180, 978.904 765.753 C 979.827 763.326, 979.589 763.010, 975.195 760.830 C 969.710 758.108, 969.078 756.141, 971.458 749.198 C 972.344 746.614, 973.353 740.225, 973.701 735 C 974.137 728.455, 974.903 724.567, 976.163 722.500 C 978.621 718.469, 978.499 717.580, 975 714 C 970.999 709.907, 971.115 709.415, 977.633 702.750 C 984.367 695.865, 987.283 695.372, 994.100 699.966 L 998.500 702.933 998.824 700.391 C 999.218 697.295, 995.230 677.764, 990.060 657.476 C 985.764 640.615, 984.460 637.575, 958.980 585 C 941.308 548.534, 938.153 541.285, 936.046 532.304 C 934.010 523.627, 936.079 518.794, 951.749 495.639 C 959.572 484.079, 966.714 472.305, 968.516 468 C 970.243 463.875, 974.802 455.742, 978.648 449.927 C 991.160 431.009, 991.194 425.271, 978.875 412.161 C 973.209 406.131, 969.845 401.526, 967.799 397 C 966.183 393.425, 961.744 385.049, 957.935 378.388 C 950.497 365.383, 948.857 363.712, 928.250 348.143 C 923.712 344.715, 920 341.796, 920 341.656 C 920 341.517, 915.744 330.471, 910.543 317.111 L 901.087 292.820 910.013 267.296 L 918.940 241.772 916.720 239.896 C 915.499 238.864, 912.129 236.833, 909.231 235.383 C 898.941 230.234, 899.730 228.958, 924.230 211.135 L 929.961 206.966 926.512 202.448 C 923.995 199.151, 923.181 197.197, 923.497 195.215 C 923.736 193.722, 924.207 189.039, 924.545 184.809 C 925.298 175.381, 928.107 170.271, 940.308 156.132 C 944.879 150.834, 948.983 145.893, 949.429 145.152 C 949.911 144.350, 948.267 136.485, 945.369 125.731 L 940.500 107.657 936.164 104.898 C 933.779 103.380, 927.029 100.044, 921.164 97.483 C 904.835 90.354, 894.442 81.758, 882.890 65.828 C 874.618 54.421, 873.812 53.014, 873.283 49.072 C 872.680 44.579, 873.001 44.668, 861.325 45.729 M 414.228 1352.293 C 411.362 1353.595, 410.637 1356.431, 411.823 1361.709 L 412.754 1365.852 406.786 1369.033 L 400.819 1372.214 401.510 1379.357 C 402.372 1388.259, 402.832 1388.732, 407.825 1385.858 C 412.680 1383.064, 413.270 1383.439, 411.890 1388.437 C 410.451 1393.648, 411.816 1394.781, 421.589 1396.488 C 431.463 1398.212, 432.776 1398.719, 433.530 1401.093 C 435.738 1408.051, 444.470 1403.240, 447.820 1393.222 C 449.576 1387.968, 448.620 1387.002, 441.643 1386.985 C 434.327 1386.966, 431.986 1385.887, 433.602 1383.278 C 434.284 1382.177, 436.374 1381.310, 439.094 1381 C 443.130 1380.540, 443.662 1380.137, 445.683 1376 C 448.513 1370.209, 448.502 1369.020, 445.585 1364.721 C 444.257 1362.764, 443.418 1360.915, 443.721 1360.613 C 444.023 1360.310, 443.525 1358.923, 442.612 1357.531 C 440.811 1354.782, 438.475 1354.371, 434.625 1356.125 C 432.038 1357.304, 431.390 1357.162, 421.500 1353.243 C 417.670 1351.725, 415.968 1351.503, 414.228 1352.293 M 415.225 1354.758 C 414.291 1355.070, 414.132 1356.834, 414.614 1361.535 L 415.265 1367.892 409.633 1370.654 L 404 1373.417 404 1378.815 C 404 1383.568, 404.209 1384.127, 405.750 1383.484 C 412.716 1380.578, 412.969 1380.540, 414.580 1382.151 C 415.885 1383.456, 415.979 1384.418, 415.107 1387.575 C 413.854 1392.114, 414.408 1392.673, 421 1393.519 C 430.298 1394.712, 434.027 1396.151, 435.574 1399.144 C 436.387 1400.715, 437.411 1402, 437.851 1402 C 439.285 1402, 442.870 1397.556, 444.410 1393.870 L 445.915 1390.267 439.448 1389.748 C 435.891 1389.462, 432.310 1388.672, 431.490 1387.992 C 427.673 1384.824, 432.337 1378, 438.319 1378 C 441.442 1378, 441.874 1377.619, 443.459 1373.469 C 445.116 1369.130, 445.111 1368.822, 443.345 1366.219 C 442.330 1364.723, 441.264 1362.375, 440.976 1361 C 440.543 1358.932, 439.938 1358.543, 437.476 1358.750 C 430.288 1359.355, 428.137 1359.072, 422.484 1356.775 C 419.185 1355.434, 415.919 1354.527, 415.225 1354.758 M 504.635 1363.073 C 503.186 1364.212, 502 1365.978, 502 1366.996 C 502 1368.014, 500.875 1370.184, 499.500 1371.818 C 498.125 1373.452, 497 1375.508, 497 1376.388 C 497 1378.146, 504.464 1384, 506.705 1384 C 508.929 1384, 513.438 1372.932, 512.092 1370.776 C 511.492 1369.814, 511 1367.761, 511 1366.214 C 511 1363.595, 509.474 1361, 507.935 1361 C 507.569 1361, 506.084 1361.933, 504.635 1363.073 M 505.733 1365.973 C 504.780 1367.332, 504 1369.103, 504 1369.908 C 504 1370.713, 502.993 1372.443, 501.763 1373.752 L 499.526 1376.134 502.013 1378.045 C 503.381 1379.096, 504.979 1379.966, 505.565 1379.978 C 507.051 1380.009, 510.188 1373.114, 509.324 1371.715 C 508.934 1371.084, 508.356 1368.978, 508.040 1367.034 L 507.465 1363.500 505.733 1365.973 M 514.586 1381.250 L 511.007 1385.500 514.965 1389.250 C 517.425 1391.581, 519.894 1393, 521.489 1393 C 524.051 1393, 524.055 1392.988, 523.446 1386.250 C 523.111 1382.537, 522.662 1378.938, 522.450 1378.250 C 521.671 1375.735, 518.076 1377.106, 514.586 1381.250 M 517.202 1382.471 L 514.919 1385.373 517.429 1387.884 C 520.633 1391.087, 521.058 1390.566, 520.191 1384.502 L 519.485 1379.568 517.202 1382.471 M 452.042 1395.456 C 446.215 1401.358, 445.947 1404.111, 451.402 1402.037 C 452.903 1401.467, 455.156 1401, 456.410 1401 C 459.778 1401, 462.199 1397.797, 461.820 1393.844 C 461.310 1388.513, 458.428 1388.988, 452.042 1395.456 M 456.056 1395.441 L 453.651 1398 455.857 1398 C 458.062 1398, 459.511 1396.034, 458.825 1393.974 C 458.624 1393.373, 457.378 1394.033, 456.056 1395.441" stroke="none" fill="#111111" fill-rule="evenodd"/>
</svg>