<svg xmlns="http://www.w3.org/2000/svg" width="1500" height="1500" viewBox="0 0 1500 1500" version="1.1">
	<path d="M 647 84.780 C 635.236 92.260, 602.034 120.065, 596.390 127.163 C 593.182 131.199, 587.844 137.452, 584.529 141.061 C 581.213 144.670, 577.756 149.018, 576.846 150.725 C 573.848 156.348, 571.509 157.109, 550.721 159.218 C 540.150 160.291, 523.512 161.266, 513.750 161.385 C 503.681 161.507, 495.571 162.029, 495.009 162.591 C 494.465 163.135, 491.183 169.863, 487.717 177.540 C 476.703 201.940, 474.844 204.439, 462.065 212.030 C 449.839 219.294, 448.986 220.444, 449.680 228.723 C 450.003 232.577, 449.960 237.780, 449.584 240.286 C 448.589 246.921, 436.801 264.319, 426.803 273.910 C 417.528 282.805, 416.021 285.023, 412.455 295.017 C 407.297 309.471, 398.444 322.152, 394.553 320.659 C 393.850 320.389, 390.401 323.107, 386.888 326.699 C 379.578 334.171, 365.126 346.525, 359.983 349.697 C 355.189 352.654, 336.788 357.253, 329.500 357.316 C 322.527 357.377, 317.108 355.191, 302.256 346.329 C 294.590 341.754, 291.663 340.554, 287.296 340.192 L 281.866 339.741 273.207 348.968 C 261.443 361.503, 255.133 364.449, 234.500 367.035 C 225.327 368.184, 218.937 367.325, 203.440 362.858 C 194.795 360.367, 190.358 363.883, 182.130 379.742 C 175.061 393.368, 172.452 396.532, 167.101 397.973 C 163.575 398.922, 162.728 399.874, 157.974 408.235 C 155.092 413.304, 146.642 427.362, 139.197 439.476 C 122.098 467.294, 118.705 474.546, 116.200 488.621 C 114.309 499.249, 114.307 499.555, 116.132 501.885 C 118.825 505.323, 118.551 506.573, 113.038 516.008 C 109.673 521.769, 107.540 526.912, 106.407 532 C 105.488 536.125, 102.797 544, 100.426 549.500 C 98.055 555, 95.814 560.850, 95.447 562.500 C 95.079 564.150, 92.916 569.550, 90.639 574.500 L 86.500 583.500 86.143 604.500 C 85.646 633.757, 85.756 636.966, 87.479 643.582 C 88.538 647.647, 89.006 654.443, 89.021 665.960 C 89.032 675.057, 89.701 690.150, 90.507 699.500 C 92.715 725.094, 92.502 731.189, 88.892 745.778 C 84.255 764.518, 86.173 768.267, 102.094 771.587 C 110.537 773.347, 113.543 775.247, 118.439 781.916 C 123.547 788.875, 125.703 794.445, 126.504 802.753 C 127.004 807.940, 127.866 810.932, 129.527 813.253 C 135.231 821.224, 143.129 837.250, 143.180 840.958 C 143.248 845.912, 139.249 852.692, 132.879 858.419 C 126.154 864.465, 121.770 865.870, 117.239 863.429 C 112.977 861.134, 110.288 862.370, 105.718 868.724 C 102.981 872.530, 102.596 874.012, 101.829 883.724 C 101.361 889.651, 100.316 898.325, 99.508 903 C 98.700 907.675, 97.752 913.300, 97.403 915.500 C 96.669 920.115, 90.984 939.476, 87.564 949 C 85.240 955.476, 81 974.423, 81 978.337 C 81 979.600, 85.152 984.671, 91.750 991.466 C 97.662 997.556, 105.224 1005.454, 108.554 1009.019 C 121.253 1022.614, 131.793 1031.668, 141.509 1037.327 C 152.232 1043.572, 153.004 1043.793, 155.204 1041.250 C 159.889 1035.834, 157.917 1028.680, 148.750 1017.846 C 144.867 1013.255, 139.230 1005.687, 136.223 1001.027 C 133.217 996.367, 127.813 989.504, 124.213 985.776 C 120.614 982.048, 117.856 978.819, 118.085 978.601 C 118.904 977.819, 130.106 980.068, 135.561 982.109 C 141.117 984.187, 148 989.881, 148 992.399 C 148 995.873, 155.569 1008.404, 160.999 1013.918 C 168.446 1021.482, 172.736 1023.656, 182.023 1024.571 C 189.187 1025.277, 189.621 1025.474, 194.816 1030.387 C 201.658 1036.858, 202.833 1039.219, 204.053 1048.948 C 204.600 1053.313, 205.673 1058.656, 206.437 1060.822 C 210.595 1072.607, 210.451 1085.570, 205.948 1104.829 C 203.230 1116.450, 203.424 1118.574, 208 1127.258 C 214.087 1138.813, 213.470 1140.735, 201.150 1148.589 C 193.637 1153.378, 193.657 1153.396, 194.467 1142.595 C 195.137 1133.657, 195.070 1133.157, 193.109 1132.535 C 191.974 1132.174, 189.178 1130.319, 186.895 1128.413 C 182.216 1124.503, 180.862 1124.552, 174.515 1128.866 C 167.919 1133.348, 166.724 1136.080, 163.710 1153.557 C 162.198 1162.326, 160.483 1171.618, 159.899 1174.206 C 158.109 1182.144, 160.830 1185, 170.181 1185 C 178.859 1185, 183.648 1180.802, 182.531 1174.175 C 181.793 1169.802, 182.386 1168.918, 190.500 1162.301 C 200.453 1154.184, 200.843 1153.999, 207.973 1154.015 C 211.563 1154.024, 215.167 1154.453, 215.983 1154.968 C 217.655 1156.025, 217.574 1156.288, 209.999 1174.328 L 205.873 1184.157 205.627 1203.328 C 205.408 1220.445, 205.147 1223.067, 203.191 1227.787 C 200.373 1234.587, 200.419 1238.213, 203.367 1241.640 C 205.654 1244.299, 206.029 1244.383, 214.617 1244.147 L 223.500 1243.903 230.500 1248.537 C 236.426 1252.459, 238.037 1253.088, 241 1252.632 C 242.925 1252.335, 248.775 1251.405, 254 1250.564 C 269.108 1248.134, 271.554 1248.377, 278.500 1253.001 C 281.800 1255.198, 286.075 1257.260, 288 1257.583 C 289.925 1257.906, 294.650 1258.764, 298.500 1259.489 C 303.015 1260.340, 307.275 1260.528, 310.500 1260.018 C 327.992 1257.251, 326.239 1256.506, 332.691 1269.446 C 338.102 1280.298, 341.289 1284, 345.221 1284 C 346.842 1284, 354.832 1280.466, 363.783 1275.790 L 379.500 1267.580 389.501 1267.186 C 398.670 1266.824, 399.660 1266.967, 401.406 1268.896 C 404.330 1272.128, 408.202 1271.476, 418.810 1265.969 C 425.100 1262.703, 430.283 1260.731, 433.582 1260.349 C 438.531 1259.777, 438.801 1259.883, 443.866 1264.381 C 449.306 1269.212, 450.811 1269.789, 452.800 1267.800 C 455.020 1265.580, 454.112 1260.640, 450.500 1255.276 C 448.575 1252.418, 447 1249.652, 447 1249.129 C 447 1247.953, 463.006 1246.534, 466.467 1247.402 C 467.856 1247.751, 471.497 1250.541, 474.558 1253.602 C 481.549 1260.593, 487.015 1263.053, 497.086 1263.743 C 504.880 1264.278, 504.948 1264.261, 511.754 1260.149 C 516.124 1257.508, 522.465 1254.930, 529.325 1253.003 L 540.059 1249.989 544.064 1252.033 C 548.460 1254.275, 550 1253.961, 550 1250.819 C 550 1249.304, 550.333 1249.020, 551.250 1249.749 C 552.079 1250.409, 556.301 1250.391, 563.796 1249.695 C 577.784 1248.397, 577.439 1248.138, 583.645 1264.611 C 586.109 1271.150, 589.075 1277.513, 590.237 1278.750 C 594.046 1282.808, 597.428 1281.260, 598.635 1274.905 C 599.619 1269.721, 600.648 1269, 607.057 1269 C 617.899 1269, 621.413 1265.708, 619.061 1257.753 C 616.631 1249.538, 614.586 1248.745, 604.215 1251.996 C 597.956 1253.958, 597.915 1253.958, 594.230 1251.983 C 592.195 1250.892, 589.970 1250, 589.285 1250 C 588.601 1250, 587.175 1248.313, 586.118 1246.250 C 583.382 1240.915, 580.439 1238.539, 572.801 1235.497 C 569.117 1234.029, 565.574 1232.192, 564.929 1231.414 C 563.252 1229.393, 558.518 1229.705, 550.768 1232.346 L 544.036 1234.640 542.967 1231.400 C 541.282 1226.295, 539.621 1225.425, 535.227 1227.346 C 531.034 1229.178, 512.086 1229.298, 510.765 1227.500 C 510.361 1226.950, 510.024 1224.659, 510.015 1222.409 C 509.987 1214.931, 507.552 1209.391, 501.092 1202.104 C 494.070 1194.183, 489.967 1191.807, 484.771 1192.650 C 480.307 1193.374, 476.472 1191.255, 471.512 1185.321 C 467.180 1180.138, 464.280 1178.523, 456.831 1177.146 C 448.280 1175.565, 444.812 1176.950, 436.259 1185.364 C 426.978 1194.494, 426.978 1195.124, 436.250 1204.703 C 444.482 1213.206, 447.012 1214.788, 453.733 1215.633 C 462.609 1216.748, 470 1224.541, 470 1232.784 C 470 1236.917, 469.184 1236.591, 456.110 1227.238 C 450.001 1222.868, 443.408 1219.048, 440.110 1217.967 C 435.766 1216.544, 433.371 1214.901, 429.500 1210.689 C 426.750 1207.696, 422.925 1204.114, 421 1202.728 L 417.500 1200.209 408 1201.670 C 402.775 1202.473, 395.398 1202.970, 391.606 1202.775 C 385.176 1202.442, 384.522 1202.189, 381.869 1199.012 C 378.403 1194.860, 376.355 1189.245, 377.786 1187.814 C 378.454 1187.146, 381.130 1187.176, 385.835 1187.906 C 389.711 1188.508, 395.406 1189, 398.490 1189 L 404.098 1189 406.027 1184.750 C 409.739 1176.572, 407.659 1171.300, 398.577 1165.868 C 391.881 1161.864, 391.744 1160.963, 397.250 1157.164 C 402.476 1153.560, 405.192 1150.626, 404.948 1148.848 C 404.535 1145.839, 405.274 1144.818, 411.695 1139.522 C 419.363 1133.196, 419.634 1133.133, 424.595 1136.500 C 429.242 1139.654, 432.444 1139.661, 436.552 1136.528 C 440.259 1133.701, 445 1124.919, 445 1120.880 C 445 1119.381, 446.125 1116.816, 447.500 1115.182 C 451.581 1110.332, 450.406 1104.687, 445.072 1103.516 L 442.127 1102.869 447.252 1095.845 C 451.296 1090.302, 452.159 1088.476, 451.345 1087.186 C 449.841 1084.801, 443.354 1083.758, 437.639 1084.984 C 431.786 1086.239, 430.985 1085.749, 428.224 1079.219 C 425.935 1073.804, 423.390 1055.568, 424.375 1051.641 C 424.759 1050.114, 426.612 1048.007, 428.774 1046.642 C 436.052 1042.048, 440 1036.594, 440 1031.132 C 440 1022.780, 435.238 1019.169, 421.338 1016.978 C 411.513 1015.429, 410.021 1014.250, 413.204 1010.549 C 414.891 1008.588, 416.520 1007.757, 418.564 1007.813 C 424.910 1007.989, 437.628 1007.936, 439.938 1007.724 C 442.167 1007.519, 442.485 1008.033, 443.655 1013.736 C 444.358 1017.166, 445.640 1021.337, 446.503 1023.006 C 448.210 1026.306, 454.868 1031.636, 459.247 1033.208 C 462.411 1034.343, 466.149 1044.796, 467.938 1057.507 C 468.805 1063.670, 471.236 1073.037, 475.138 1085.250 C 476.496 1089.501, 478.348 1090.053, 480.173 1086.750 C 481.410 1084.513, 481.421 1084.517, 482.090 1087.500 C 482.460 1089.150, 482.817 1093.251, 482.882 1096.614 C 483.129 1109.415, 484.395 1112.925, 490.951 1119 C 494.217 1122.025, 497.822 1126.412, 498.964 1128.750 C 500.249 1131.380, 501.719 1133, 502.820 1133 C 507.438 1133, 507.895 1136.093, 504.832 1146.633 C 501.756 1157.219, 502.413 1157.780, 515.870 1156.066 C 528.351 1154.475, 534 1155.220, 534 1158.456 C 534 1159.713, 531.309 1164.218, 528 1168.500 C 524.700 1172.770, 522 1177.015, 522 1177.932 C 522 1182.711, 528.481 1183.244, 539.824 1179.396 C 546.505 1177.130, 548.545 1176.869, 555.559 1177.387 C 560.765 1177.772, 563.999 1177.601, 564.696 1176.904 C 565.467 1176.133, 566.436 1177.003, 568.096 1179.957 C 570.393 1184.043, 577.405 1189.562, 581.657 1190.629 C 584.285 1191.288, 586.347 1195.996, 588.472 1206.185 C 589.364 1210.465, 590.798 1214.242, 591.979 1215.423 C 594.139 1217.583, 593.099 1217.704, 607.278 1213.652 C 611.794 1212.361, 617.208 1214.805, 624.875 1221.596 C 633.360 1229.111, 634.630 1229.318, 645.585 1224.966 C 654.191 1221.548, 672.539 1206.685, 673.658 1202.226 C 674.898 1197.284, 673.262 1188.883, 670.498 1185.998 L 667.879 1183.264 672.055 1179.957 C 674.352 1178.137, 677.979 1174.438, 680.115 1171.735 L 684 1166.820 684.024 1156.660 C 684.054 1143.808, 684.950 1140.042, 689.575 1133.326 C 694.125 1126.721, 695.056 1120.528, 692.582 1113.326 L 690.925 1108.500 695.462 1104.646 C 697.958 1102.526, 700 1100.331, 700 1099.767 C 700 1099.203, 697.468 1096.309, 694.373 1093.335 C 688.969 1088.143, 688.768 1087.767, 689.297 1083.822 C 689.600 1081.564, 689.423 1074.099, 688.903 1067.233 L 687.958 1054.750 691.143 1047.840 C 693.018 1043.773, 693.952 1040.588, 693.414 1040.100 C 691.918 1038.744, 683.551 1037.019, 675.260 1036.356 C 659.088 1035.063, 657.580 1032.311, 667.622 1022.417 C 673.616 1016.510, 674.194 1015.588, 673.714 1012.696 C 672.607 1006.019, 668.674 997.780, 663.954 992.249 C 661.260 989.092, 656.285 981.858, 652.899 976.174 C 644.398 961.902, 641.278 961.261, 641.757 973.884 C 641.899 977.612, 641.356 984.435, 640.551 989.046 L 639.087 997.431 642.117 1006.183 C 646.576 1019.061, 646.353 1019.577, 636.500 1019.168 L 628.500 1018.835 622.037 1024.035 C 615.193 1029.542, 609.445 1032.779, 608.388 1031.721 C 608.037 1031.370, 609.598 1026.002, 611.856 1019.792 C 614.115 1013.581, 616.684 1005.588, 617.566 1002.029 L 619.169 995.559 614.199 991.029 C 594.906 973.449, 584.951 965.799, 579.827 964.617 C 576.587 963.870, 571.917 967.372, 570.008 971.980 C 568.787 974.928, 568.593 975, 561.847 975 C 554.076 975, 549.354 976.604, 544.451 980.908 C 540.641 984.254, 540.995 984.131, 526.749 987.055 C 518.018 988.847, 514.551 990.122, 508.293 993.846 C 498.786 999.504, 490.057 1000.763, 485.450 997.139 C 480.839 993.512, 477.130 993.498, 465.948 997.065 C 454.085 1000.850, 453.167 1000.624, 451.134 993.426 C 450.002 989.420, 449.982 987.397, 451.016 981.913 C 453.170 970.500, 450.067 959.093, 442.983 952.387 C 439.170 948.777, 438.041 946.982, 437.804 944.158 C 437.419 939.584, 434.622 938.035, 426.710 938.015 C 419.846 937.997, 414.179 935.464, 410.992 930.989 L 408.816 927.933 421.158 928.499 C 440.233 929.373, 440.693 929.479, 457.770 936.960 C 478.285 945.947, 480.522 945.999, 492.662 937.758 C 495.831 935.606, 499.687 933.974, 502.649 933.530 C 512.479 932.056, 515.416 928.238, 519.978 911 C 521.215 906.325, 523.301 900.377, 524.613 897.783 C 525.926 895.189, 527 892.437, 527 891.668 C 527 886.889, 512.469 876.623, 503.077 874.769 C 499.545 874.071, 496.484 872.980, 496.275 872.344 C 495.547 870.123, 502.053 864.124, 507.310 862.169 C 520.230 857.364, 526.198 858.139, 534.066 865.645 L 539.657 870.978 547.579 868.357 C 559.650 864.363, 562.087 861.172, 566.164 844.032 C 567.913 836.678, 568.035 834.602, 567.089 828.242 C 566.490 824.214, 566 813.451, 566 804.325 C 566 784.350, 565.463 782.298, 557.767 772.880 C 550.281 763.717, 550.336 762.745, 559.388 744.320 C 565.315 732.257, 566.697 730.257, 574.452 722.519 C 579.148 717.834, 583.453 714, 584.018 714 C 586.148 714, 594 705.728, 594 703.483 C 594 702.239, 594.791 700.245, 595.757 699.052 C 597.473 696.933, 597.769 696.908, 608.483 697.998 C 614.663 698.627, 619.803 699.635, 620.254 700.307 C 622.336 703.404, 617.302 721.511, 613.029 726.295 C 610.350 729.294, 609.701 729.513, 602.926 729.695 C 595.041 729.907, 594.643 730.173, 592.925 736.384 C 590.541 745.002, 595.031 748.164, 606.564 745.988 C 614.782 744.437, 618.449 745.183, 623.891 749.509 C 630.992 755.155, 632.260 754.146, 636.464 739.500 C 640.358 725.937, 642.841 725.007, 651.348 733.926 C 658.365 741.282, 658.837 744.497, 653.500 748.568 C 649.142 751.892, 649.075 754.218, 653.250 757.289 C 661.876 763.635, 668.821 763.596, 673.708 757.172 C 677.774 751.827, 677.803 749.856, 674 737.500 C 672.350 732.140, 671 727.397, 671 726.960 C 671 725.901, 688.879 721.739, 690.596 722.399 C 694.303 723.821, 696.262 715.887, 694.081 708.282 C 693.048 704.680, 693.951 703.151, 705.547 688.881 C 713.684 678.868, 714.613 675.209, 713.074 659.238 C 710.793 635.560, 709.416 630.055, 704.621 625.461 C 701.181 622.165, 700.087 620.189, 698.787 614.919 C 694.570 597.832, 690.269 594.523, 673.500 595.463 C 645.543 597.032, 640.511 597.704, 633.413 600.817 C 623.280 605.261, 618.025 606.343, 610.486 605.535 C 599.548 604.364, 594.963 597.935, 590.858 578.013 L 588.776 567.909 591.045 560.057 C 593.300 552.253, 593.303 552.148, 591.565 543.396 C 588.908 530.019, 585.667 519.656, 577.084 497.091 C 572.776 485.766, 568.930 475.150, 568.538 473.500 C 566.291 464.048, 566.105 459.305, 567.561 448.592 C 569.441 434.760, 571 429.987, 575.260 425.009 C 580.090 419.367, 589.600 400.343, 590.787 393.950 C 591.344 390.952, 592.324 385.350, 592.965 381.500 C 594.631 371.492, 598.115 361.752, 605.154 347.427 C 612.599 332.274, 617.564 327.054, 626.644 324.838 C 635.781 322.608, 636.156 321.635, 635.042 303 C 634.239 289.583, 633.487 285.081, 629.443 269.500 C 620.198 233.877, 620.216 235.942, 629.063 226.433 C 632.328 222.922, 635 219.319, 635 218.424 C 635 217.530, 632.188 213.749, 628.750 210.024 C 616.352 196.586, 608.598 179.755, 607.303 163.469 C 606.574 154.295, 608.089 151.345, 623.981 131 C 630.640 122.475, 639.274 111.225, 643.168 106 C 647.062 100.775, 652.028 94.647, 654.203 92.382 C 662.064 84.195, 656.746 78.584, 647 84.780 M 642.278 91.683 C 618.561 109.739, 603.811 122.345, 598.323 129.248 C 595.152 133.237, 589.732 139.520, 586.279 143.210 C 582.825 146.901, 580 150.373, 580 150.926 C 580 153.916, 573.704 158.917, 568.699 159.903 C 559.015 161.811, 528.582 164.250, 512.563 164.402 L 496.626 164.554 489.914 179.759 C 480.377 201.362, 477.701 204.949, 464.651 213.615 C 458.758 217.529, 453.670 220.997, 453.344 221.323 C 453.018 221.648, 452.644 227.055, 452.512 233.338 L 452.272 244.762 444.689 256.247 C 439.791 263.663, 433.778 271.056, 427.713 277.116 C 419.166 285.655, 418.114 287.130, 416.026 293.500 C 410.912 309.097, 401.673 323, 396.421 323 C 395.527 323, 389.600 327.963, 383.248 334.028 C 366.786 349.748, 360.197 353.904, 346.280 357.342 C 326.916 362.125, 320.196 360.808, 300.118 348.294 C 294.819 344.991, 291.357 343.549, 287.945 343.221 L 283.177 342.763 273.338 352.747 C 262.307 363.942, 259.241 365.560, 243.347 368.580 C 230.779 370.967, 222.094 370.821, 212 368.051 C 195.133 363.423, 193.510 364.023, 186.843 377.356 C 179.257 392.525, 174.412 398.897, 169.457 400.223 C 165.707 401.226, 164.731 402.083, 162.377 406.443 C 160.875 409.224, 152.906 422.525, 144.668 436 C 124.733 468.606, 122.125 473.920, 119.403 487.469 C 117.234 498.269, 117.229 498.476, 119.100 500.854 C 122.352 504.988, 122.058 506.082, 113.650 521.134 C 111.513 524.959, 109.365 530.675, 108.575 534.634 C 107.822 538.410, 105.378 545.643, 103.144 550.706 C 100.909 555.770, 98.334 562.484, 97.420 565.626 C 96.507 568.768, 94.242 574.505, 92.387 578.376 L 89.014 585.413 88.848 604.457 C 88.572 636.113, 88.614 637.467, 89.986 641.045 C 90.883 643.384, 91.395 650.797, 91.572 664 C 91.716 674.725, 92.322 688.170, 92.919 693.878 C 95.710 720.556, 95.520 731.386, 92.025 744.862 C 87.843 760.990, 88.185 763.247, 95.309 766.564 C 98.164 767.893, 101.400 768.987, 102.500 768.996 C 115.826 769.098, 127.568 784.372, 129.558 804.194 C 129.990 808.497, 130.873 810.818, 133.170 813.694 C 138.538 820.416, 146.001 836.445, 145.991 841.232 C 145.972 849.678, 135.341 862.795, 125.453 866.571 C 121.187 868.200, 120.763 868.197, 117.004 866.502 C 112.493 864.467, 111.797 864.786, 107.673 870.773 C 105.458 873.988, 105.020 875.943, 104.487 885 C 103.352 904.299, 99.143 923.626, 90.440 949.500 C 88.591 955, 86.302 963.892, 85.356 969.260 L 83.634 979.019 94.067 989.781 C 99.805 995.699, 107.239 1003.458, 110.586 1007.021 C 125.715 1023.128, 133.939 1029.989, 146.432 1036.928 C 152.042 1040.044, 152.436 1040.125, 153.682 1038.420 C 156.549 1034.500, 154.276 1028.354, 146.940 1020.189 C 144.129 1017.060, 138.852 1010, 135.213 1004.500 C 131.575 999, 125.538 991.261, 121.799 987.302 C 111.701 976.612, 112.508 974.275, 125.521 976.534 C 140.083 979.063, 148.159 984.531, 151.558 994.163 C 154.723 1003.134, 161.638 1012.125, 169.583 1017.600 C 173.936 1020.599, 175.852 1021.222, 182.937 1021.936 L 191.209 1022.770 197.085 1028.585 C 204.005 1035.432, 205.581 1038.425, 206.519 1046.500 C 206.903 1049.800, 208.312 1056.775, 209.652 1062 C 213.207 1075.870, 212.841 1089.979, 208.510 1106 C 206.156 1114.710, 206.568 1118.185, 211 1127 C 213.200 1131.376, 215 1136.024, 215 1137.330 C 215 1140.925, 210.907 1146.264, 206.465 1148.463 L 202.500 1150.426 209 1151.032 C 220.534 1152.108, 222.224 1154.677, 217.513 1163.974 C 209.643 1179.504, 208.846 1182.993, 208.591 1202.994 C 208.386 1219.142, 208.078 1222.260, 206.178 1227.465 C 201.859 1239.294, 203.402 1241.676, 215.041 1241.153 C 223.364 1240.779, 224.337 1241.087, 232.699 1246.745 L 237.898 1250.262 248.699 1248.424 C 254.640 1247.413, 262.875 1246.566, 267 1246.543 C 274.102 1246.502, 274.768 1246.696, 279.548 1250.199 C 286.726 1255.458, 302.929 1258.818, 312.261 1256.983 C 328.017 1253.884, 328.359 1254.048, 335.031 1267.856 C 339.820 1277.770, 342.415 1281, 345.589 1281 C 346.821 1281, 354.920 1277.323, 363.587 1272.828 L 379.346 1264.656 389.452 1264.207 C 399.205 1263.773, 399.667 1263.849, 402.668 1266.374 C 406.217 1269.361, 407.805 1269.011, 417.997 1263.002 C 424.638 1259.086, 433.761 1256.545, 438.193 1257.376 C 440.308 1257.773, 443.098 1259.540, 445.509 1262.009 C 447.652 1264.204, 449.765 1266, 450.203 1266 C 452.134 1266, 450.710 1260.803, 447.500 1256.136 C 441.356 1247.204, 442.628 1245.560, 456.509 1244.503 C 467.442 1243.670, 469.108 1244.240, 476.331 1251.292 C 483.579 1258.369, 487.701 1260.241, 497.268 1260.803 C 504.889 1261.250, 505.143 1261.188, 510.650 1257.532 C 518.866 1252.076, 539.981 1246.173, 543.203 1248.430 C 546.362 1250.642, 547.289 1250.380, 545.610 1247.750 C 544.821 1246.513, 543.194 1242.125, 541.994 1238 C 539.335 1228.855, 538.977 1228.443, 535.327 1230.331 C 533.135 1231.465, 529.498 1231.776, 520.462 1231.605 L 508.500 1231.377 507.370 1222.847 C 506.078 1213.096, 505.367 1211.472, 499.235 1204.264 C 493.225 1197.199, 489.069 1194.709, 484.666 1195.535 C 480.089 1196.393, 476.254 1194.302, 469.174 1187.089 C 462.563 1180.352, 454.567 1177.668, 447.783 1179.907 C 444.053 1181.138, 432 1192.821, 432 1195.206 C 432 1196.403, 446.968 1211.987, 448.135 1212.006 C 452.607 1212.077, 461.148 1214.523, 464.125 1216.586 C 471.103 1221.422, 475.785 1235.439, 471.236 1237.874 C 468.713 1239.224, 465.107 1237.426, 453.708 1229.132 C 447.437 1224.569, 442.223 1221.582, 439.208 1220.823 C 435.467 1219.882, 433.165 1218.276, 428 1213.003 C 418.113 1202.909, 418.167 1202.931, 407.500 1204.572 C 394.558 1206.563, 387.179 1206.407, 383.329 1204.059 C 380.015 1202.038, 375.687 1195.445, 374.603 1190.765 C 373.685 1186.804, 377.076 1183.596, 381.349 1184.381 C 383.082 1184.700, 388.625 1185.258, 393.667 1185.622 L 402.835 1186.284 404.048 1182.233 C 406.172 1175.144, 403.898 1171.730, 393.100 1165.797 C 388.137 1163.069, 388.877 1159.993, 395.750 1154.779 C 400.118 1151.466, 401.579 1149.706, 401.830 1147.459 C 402.223 1143.934, 404.515 1141.308, 412.349 1135.406 C 419.082 1130.334, 421.069 1130.039, 425.182 1133.500 C 430.528 1137.998, 435.358 1136.190, 439.397 1128.180 C 440.696 1125.606, 442.070 1121.628, 442.452 1119.339 C 442.833 1117.051, 444.013 1114.393, 445.073 1113.434 C 448.008 1110.778, 447.588 1107.179, 444.250 1106.381 C 441.375 1105.694, 439 1104.213, 439 1103.106 C 439 1102.749, 441.282 1099.327, 444.071 1095.502 L 449.141 1088.547 446.391 1087.630 C 444.637 1087.046, 441.457 1087.120, 437.612 1087.835 C 432.041 1088.871, 431.415 1088.799, 429.379 1086.886 C 426.257 1083.953, 423.354 1075.040, 421.982 1064.178 C 420.514 1052.555, 421.153 1048.789, 425.103 1045.796 C 435.332 1038.043, 437 1035.972, 437 1031.028 C 437 1024.149, 433.655 1021.653, 422.278 1020.039 C 407.944 1018.006, 404.991 1014.809, 411.467 1008.333 L 414.934 1004.866 424.217 1005.165 C 429.323 1005.330, 435.847 1005.079, 438.715 1004.608 C 444.733 1003.620, 444.896 1003.814, 446.855 1014.369 C 448.252 1021.894, 451.301 1025.816, 458.907 1029.870 C 462.258 1031.656, 465 1033.309, 465 1033.544 C 465 1033.778, 466.142 1037.911, 467.538 1042.728 C 468.934 1047.546, 470.523 1054.640, 471.068 1058.493 C 471.614 1062.347, 473.234 1069.414, 474.669 1074.197 C 477.226 1082.722, 477.332 1082.884, 480.047 1082.341 C 484.034 1081.543, 485.023 1084.116, 486.004 1097.844 C 487.009 1111.914, 487.026 1111.961, 492.723 1116.629 C 495.223 1118.678, 498.510 1122.312, 500.028 1124.705 C 501.545 1127.098, 504.297 1130.070, 506.144 1131.310 C 510.394 1134.165, 510.729 1136.838, 507.990 1146.035 C 506.817 1149.971, 506.118 1153.451, 506.435 1153.768 C 506.752 1154.085, 511.193 1153.797, 516.305 1153.128 C 538.757 1150.191, 542.352 1154.837, 529.856 1170.642 C 527.185 1174.020, 525 1177.282, 525 1177.892 C 525 1179.793, 531.820 1179.110, 539.824 1176.407 C 546.530 1174.142, 548.479 1173.898, 555.250 1174.476 C 560.495 1174.924, 563 1174.792, 563 1174.069 C 563 1171.455, 567.125 1173.238, 569.395 1176.833 C 572.394 1181.584, 576.313 1184.938, 581.709 1187.370 C 586.476 1189.518, 589.388 1194.957, 591.162 1205.028 C 592.824 1214.466, 593.451 1214.893, 601.724 1212.228 C 605.529 1211.003, 609.614 1210, 610.802 1210 C 613.448 1210, 623.008 1215.948, 628.728 1221.153 C 633.869 1225.831, 636.131 1225.957, 645.248 1222.067 C 652.350 1219.037, 670.566 1204.377, 671.233 1201.153 C 671.985 1197.520, 670.011 1189.802, 667.595 1186.931 C 664.536 1183.295, 664.914 1182.131, 670.693 1177.396 C 679.296 1170.346, 681 1166.958, 681 1156.899 C 681 1144.917, 682.524 1138.493, 686.786 1132.511 C 691.198 1126.318, 691.994 1120.509, 689.471 1112.913 L 687.709 1107.607 692.449 1103.495 L 697.190 1099.382 693.690 1096.713 C 688.551 1092.793, 685.640 1087.606, 686.299 1083.544 C 686.596 1081.712, 686.445 1074.263, 685.963 1066.989 C 685.106 1054.072, 685.143 1053.652, 687.543 1048.916 C 688.894 1046.249, 690 1043.442, 690 1042.680 C 690 1041.164, 679.446 1039.017, 671.807 1038.978 C 665.772 1038.947, 659.240 1035.804, 658.420 1032.535 C 657.630 1029.391, 661.517 1023.286, 667.233 1018.692 C 669.305 1017.027, 671 1014.928, 671 1014.027 C 671 1010.008, 666.602 999.982, 662.852 995.454 C 657.780 989.328, 651.949 980.794, 649.219 975.500 C 644.573 966.489, 644.108 966.581, 644.201 976.500 C 644.247 981.450, 643.737 988.200, 643.068 991.500 C 641.905 997.235, 641.987 997.867, 644.926 1005.818 C 650.230 1020.170, 649.387 1022, 637.475 1022 L 629.350 1022 623.425 1026.604 C 616.226 1032.199, 610.926 1035, 607.540 1035 C 604.001 1035, 604.187 1032.030, 608.412 1021.090 C 610.288 1016.231, 612.812 1008.733, 614.020 1004.427 L 616.217 996.599 611.714 992.549 C 590.418 973.397, 580.611 966.168, 577.532 967.349 C 576.736 967.655, 574.874 969.838, 573.393 972.202 C 569.854 977.852, 569.622 977.967, 561.718 977.985 C 554.568 978.001, 549.447 979.549, 547.073 982.411 C 544.601 985.391, 540.214 987.050, 528.234 989.534 C 519.674 991.309, 515.274 992.786, 511.553 995.133 C 499.395 1002.801, 491.417 1004.087, 483.777 999.609 C 478.323 996.413, 477.374 996.399, 467.988 999.371 C 455.296 1003.390, 454.376 1003.467, 451.646 1000.737 C 448.055 997.146, 446.737 989.572, 448.209 980.989 C 450.103 969.939, 447.485 960.898, 440.349 953.851 C 436.115 949.669, 435 947.906, 435 945.391 C 435 941.689, 433.778 941.002, 427.168 940.994 C 419.266 940.985, 415.134 939.258, 409.862 933.759 C 407.188 930.970, 405 928.324, 405 927.879 C 405 925.593, 409.527 925.143, 425.089 925.884 L 441.500 926.665 457.809 933.833 C 478.725 943.024, 480.588 943.118, 490.603 935.473 C 493.424 933.320, 496.986 931.748, 500.728 931.007 C 503.902 930.377, 507.333 929.624, 508.351 929.332 C 510.769 928.639, 514.301 920.782, 517.391 909.223 C 518.754 904.121, 520.799 898.443, 521.935 896.605 C 524.937 891.749, 524.571 890.498, 518.819 885.951 C 511.833 880.429, 506.820 878.003, 500.964 877.309 C 484.602 875.372, 497.017 859.515, 517.196 856.577 C 524.203 855.557, 529.484 857.405, 535.391 862.944 L 540.500 867.734 547.365 865.394 C 557.653 861.887, 559.299 859.710, 563.091 844.592 C 565.052 836.772, 565.150 835.128, 564.128 827.161 C 563.508 822.323, 563 811.293, 563 802.650 C 563 784.349, 562.527 782.688, 554.756 773.719 C 547.254 765.058, 547.389 763.014, 556.801 742.937 C 562.388 731.019, 564.766 726.978, 566.958 725.684 C 568.531 724.755, 571.719 721.724, 574.042 718.950 C 576.365 716.175, 579.893 713.068, 581.883 712.044 C 586.729 709.551, 590.498 705.317, 591.969 700.715 C 593.854 694.814, 596.789 693.431, 604.434 694.840 C 607.897 695.478, 612.621 696, 614.931 696 C 623.234 696, 624.869 698.960, 622.594 709.870 C 620.715 718.884, 617.551 726.098, 613.975 729.524 C 611.490 731.904, 610.176 732.315, 604.400 732.516 C 597.055 732.770, 595.111 734.372, 595.035 740.231 C 594.988 743.889, 598.202 744.642, 607.092 743.053 C 615.559 741.540, 618.812 742.210, 624.656 746.671 C 627.174 748.593, 629.589 749.791, 630.022 749.333 C 630.455 748.875, 632.221 743.889, 633.946 738.254 C 636.645 729.439, 637.489 727.798, 639.992 726.504 C 644.453 724.198, 645.690 724.593, 651.656 730.236 C 661.183 739.247, 662.518 744.779, 656.384 749.835 C 652.071 753.390, 652.448 754.369, 659.373 757.593 C 666.062 760.708, 666.654 760.646, 670.632 756.429 C 674.845 751.962, 674.865 750.133, 670.853 736.994 C 668.726 730.027, 668.007 726.213, 668.634 725.218 C 669.769 723.419, 681.928 720.137, 687.750 720.058 L 692 720 691.976 715.750 C 691.963 713.413, 691.557 709.799, 691.075 707.721 C 690.224 704.058, 690.418 703.661, 697.349 694.885 C 710.339 678.434, 710.513 678.064, 710.413 667.065 C 710.365 661.804, 709.498 651.684, 708.486 644.576 L 706.645 631.652 702.354 627.299 C 699.579 624.484, 697.689 621.454, 697.005 618.723 C 696.424 616.400, 694.805 611.488, 693.408 607.808 C 690.056 598.973, 686.648 597.414, 672.749 598.352 C 641.823 600.438, 640.739 600.589, 633.438 603.800 C 621.075 609.239, 609.327 610.177, 601.730 606.331 C 595.514 603.183, 590.627 592.817, 587.578 576.313 C 586.140 568.529, 586.168 567.741, 588.150 560.313 C 590.034 553.248, 590.117 551.782, 589.016 545 C 587.313 534.506, 582.279 518.396, 574.095 497.245 C 563.284 469.306, 562.294 463.068, 565.519 443.181 C 567.228 432.646, 569.044 427.628, 572.460 424 C 573.755 422.625, 577.323 417, 580.389 411.500 C 585.986 401.460, 586.974 398.327, 590.470 379.534 C 592.427 369.010, 596.970 356.782, 604.020 343.056 C 610.389 330.657, 616.183 324.865, 624.645 322.438 C 633.440 319.915, 633.165 320.488, 632.478 306.095 C 631.808 292.048, 629.756 280.791, 624.029 259.740 C 617.798 236.832, 617.964 233.947, 626 225.579 C 629.300 222.142, 632 218.897, 632 218.368 C 632 217.839, 630.179 215.627, 627.953 213.454 C 614.898 200.706, 603.954 176.545, 604.022 160.622 C 604.053 153.492, 606.155 149.560, 618.618 133.326 C 624.603 125.530, 634.280 112.930, 640.123 105.326 C 645.966 97.722, 651.703 90.643, 652.873 89.595 C 654.043 88.547, 655 87.085, 655 86.345 C 655 83.469, 650.695 85.275, 642.278 91.683 M 735 275.292 C 733.075 276.645, 729.517 280.497, 727.093 283.853 C 722.304 290.484, 722.343 290.463, 705 295.696 C 693.209 299.253, 692.719 300.413, 699.690 308.263 C 702.336 311.242, 706.226 315.795, 708.335 318.381 C 710.444 320.968, 713.954 324.265, 716.135 325.708 L 720.101 328.333 732.506 327.233 C 749.224 325.750, 756 322.650, 756 316.483 C 756 315.577, 754.613 311.675, 752.918 307.813 C 748.063 296.751, 748.376 296.364, 766.177 291.444 C 774.768 289.069, 775.986 288.447, 777.040 285.904 C 779.948 278.883, 774.908 274.612, 763.500 274.431 C 759.650 274.370, 752.450 273.986, 747.500 273.577 C 738.949 272.871, 738.325 272.957, 735 275.292 M 735.761 278.172 C 734.255 279.452, 731.235 282.920, 729.050 285.879 C 724.106 292.573, 722.645 293.598, 715.350 295.493 C 707.301 297.585, 699.660 300.100, 698.697 300.976 C 697.793 301.798, 705.763 311.725, 713.875 319.880 L 719.251 325.284 729.184 324.633 C 745.649 323.554, 753 321.166, 753 316.895 C 753 315.762, 751.613 311.675, 749.918 307.813 C 744.933 296.455, 746.780 293.728, 762.267 289.575 C 773.694 286.510, 775 285.775, 775 282.403 C 775 279.083, 770.348 276.912, 763.762 277.159 C 760.868 277.267, 754 277.016, 748.500 276.600 C 738.930 275.877, 738.382 275.944, 735.761 278.172 M 619.291 758.509 C 618.106 759.339, 616.972 761.026, 616.771 762.259 C 616.433 764.326, 622.337 778, 623.567 778 C 623.866 778, 626.826 776.155, 630.146 773.901 C 635.124 770.520, 636.080 769.425, 635.604 767.651 C 635.287 766.468, 635.021 764.082, 635.014 762.348 C 635.002 759.717, 634.480 759.014, 631.851 758.098 C 627.415 756.551, 621.824 756.734, 619.291 758.509 M 620.008 761.986 C 619.186 763.522, 619.395 764.824, 620.934 767.736 C 624.602 774.678, 624.376 774.574, 628.872 771.390 C 632.648 768.717, 632.907 768.237, 632.333 765 C 631.569 760.695, 630.635 760.035, 625.285 760.015 C 622.094 760.004, 620.812 760.482, 620.008 761.986 M 1016.083 766.588 C 1010.038 768.213, 1008.737 768.920, 978.179 787.187 C 966.256 794.315, 951.775 802.395, 946 805.143 C 923.152 816.015, 921.636 817.123, 920.289 823.938 C 919.082 830.040, 919.336 830.325, 928.073 832.690 C 936.011 834.838, 947.318 834.778, 955.887 832.541 C 959.400 831.624, 962.592 831.240, 962.982 831.687 C 965.142 834.170, 966.459 870.830, 964.502 873.997 C 963.747 875.219, 961 875.335, 961 874.146 C 961 871.206, 955.911 868.001, 951.298 868.036 C 942.625 868.100, 932.966 871.061, 928.500 875.025 C 927.400 876.001, 925.608 876.962, 924.518 877.160 C 923.356 877.372, 921.466 879.547, 919.945 882.423 C 918.519 885.120, 915.744 888.715, 913.778 890.413 C 906.956 896.304, 905.318 903.034, 909.133 909.500 C 910.865 912.436, 911.151 914.078, 910.657 918.247 C 909.743 925.966, 908.086 927.022, 903.491 922.811 C 899.858 919.482, 899.751 919.174, 898.814 909.452 C 897.588 896.729, 897.017 896.073, 889.215 898.435 C 882.173 900.567, 879.611 900.258, 879.178 897.222 C 878.488 892.381, 880.889 888.443, 887.376 883.776 C 894.038 878.984, 898.321 874.033, 897.179 872.445 C 896.806 871.925, 894.738 870.600, 892.584 869.500 C 885.007 865.630, 885.142 865.249, 898.885 851.728 C 911.484 839.334, 913.015 836.975, 912.985 830.007 C 912.959 824.195, 912.162 823.727, 895 819.453 C 883.833 816.672, 880.685 816.654, 870 819.306 C 866.425 820.193, 856.383 822.022, 847.685 823.369 C 832.013 825.795, 831.801 825.801, 824.358 824.028 C 815.681 821.961, 814.532 822.698, 817.320 828.546 C 819.499 833.115, 823.211 834.785, 835.149 836.570 C 847.086 838.355, 848.439 838.951, 849.871 843.060 C 852.480 850.543, 852.222 855.107, 848.717 863.500 L 845.377 871.500 835.743 871.500 C 824.555 871.500, 824.250 871.688, 822.529 879.654 C 821.835 882.869, 820.427 888.577, 819.401 892.337 L 817.535 899.174 806.429 904.513 C 799.315 907.933, 793.378 911.621, 789.912 914.774 C 782.639 921.388, 780.999 922.121, 772.092 922.731 C 765.323 923.195, 763.864 922.968, 759.469 920.766 C 753.216 917.633, 745.400 915.081, 741.500 914.899 C 735.002 914.595, 716.462 916.356, 715.824 917.338 C 715.452 917.910, 717.248 920.206, 719.816 922.439 C 731.075 932.235, 732.959 935.403, 733.747 945.867 L 734.322 953.500 740.411 959.866 C 743.760 963.367, 748.750 967.688, 751.500 969.469 C 761.211 975.759, 761.841 977.742, 757.539 988.494 C 753.802 997.837, 754.764 1000.839, 767.198 1018.638 C 770.231 1022.978, 776.486 1043.374, 775.367 1045.271 C 774.968 1045.947, 773.203 1048.300, 771.445 1050.500 C 769.686 1052.700, 767.044 1056.985, 765.573 1060.022 C 764.102 1063.059, 760.978 1067.636, 758.632 1070.192 C 752.609 1076.751, 749.827 1087.694, 751.443 1098.468 C 752.743 1107.140, 756.766 1108.698, 767.720 1104.770 C 775.657 1101.924, 776.364 1102.549, 776.773 1112.782 C 777.244 1124.579, 777.350 1124.805, 783.787 1127.822 C 788.891 1130.215, 790.726 1130.510, 801 1130.590 C 807.325 1130.640, 814.629 1131.027, 817.230 1131.451 C 821.149 1132.089, 822.574 1131.859, 825.537 1130.111 C 830.339 1127.277, 832.608 1127.449, 836.591 1130.945 C 839.964 1133.908, 845.440 1135.984, 849.906 1135.994 C 851.503 1135.998, 853.857 1137.669, 856.906 1140.964 C 865.078 1149.794, 877.331 1152.946, 888.407 1149.068 C 899.393 1145.221, 901.659 1147.544, 896.978 1157.859 C 893.202 1166.181, 893.866 1168.102, 904.250 1178.890 C 909.337 1184.176, 914.590 1190.666, 915.922 1193.313 C 917.255 1195.960, 919.505 1198.978, 920.922 1200.020 C 922.340 1201.061, 925.525 1203.537, 928 1205.521 C 930.475 1207.504, 936.550 1210.949, 941.500 1213.175 C 951.473 1217.660, 951.963 1218.106, 951.985 1222.727 C 952.017 1229.524, 957.538 1230.286, 968 1224.937 C 971.025 1223.390, 975.576 1221.186, 978.114 1220.039 C 980.744 1218.850, 985.415 1215.155, 988.978 1211.444 L 995.229 1204.935 994.829 1198.648 C 994.509 1193.630, 993.771 1191.369, 991.167 1187.438 C 987.215 1181.472, 987.417 1180.170, 993.759 1170.718 C 1000.179 1161.149, 998.762 1159.308, 984.815 1159.100 C 975.351 1158.959, 973.613 1158.010, 968.589 1150.244 C 960.867 1138.306, 961.308 1137.884, 984.022 1135.454 C 996.831 1134.083, 1000.337 1133.347, 1004.354 1131.183 C 1011.859 1127.141, 1017.794 1121.420, 1019.138 1116.933 L 1020.317 1113 1030.757 1113 C 1043.120 1113, 1044.167 1112.291, 1050.248 1099.813 C 1055.890 1088.234, 1057.101 1082.320, 1055.446 1074.413 C 1053.196 1063.656, 1050.407 1060.465, 1041.551 1058.512 C 1037.290 1057.573, 1021.899 1042.180, 1018.198 1035.157 C 1012.668 1024.661, 1011.278 1009.380, 1015.092 1001 C 1016.618 997.647, 1016.980 995.420, 1016.511 992.264 C 1015.962 988.571, 1016.220 987.690, 1018.517 985.392 C 1021.019 982.890, 1021.501 982.791, 1028.030 983.434 C 1034.821 984.103, 1034.951 984.071, 1038.438 980.806 C 1041.795 977.663, 1045 969.353, 1045 963.790 C 1045 960.688, 1047.392 961.819, 1053.034 967.591 C 1063.310 978.103, 1076.819 986, 1084.527 986 C 1090.505 986, 1094.239 983.743, 1101.600 975.683 C 1111.818 964.492, 1111.950 962.084, 1103.043 949.319 C 1094.492 937.063, 1093.046 930.571, 1095.899 917.244 C 1099.607 899.925, 1098.758 897.014, 1086.496 885 C 1079.214 877.866, 1072 866.678, 1072 862.520 C 1072 860.116, 1078.994 835.912, 1080.569 832.867 C 1081.348 831.360, 1084.506 827.962, 1087.586 825.314 C 1095.136 818.825, 1096.840 815.144, 1098.037 802.742 C 1099.672 785.788, 1099.672 785.789, 1078.543 776.988 C 1051.990 765.928, 1031.332 762.488, 1016.083 766.588 M 1015.679 769.621 C 1013.028 770.435, 999.528 777.865, 985.679 786.131 C 971.831 794.397, 953.998 804.327, 946.050 808.198 C 926.764 817.592, 924.447 819.198, 923.222 824.024 C 922.253 827.839, 922.299 827.942, 925.366 828.877 C 937.096 832.451, 942.979 832.560, 956.479 829.448 C 965.455 827.380, 966.465 828.356, 967.585 840.175 C 969.134 856.519, 968.277 874.170, 965.834 876.250 C 962.749 878.876, 960.397 878.378, 958.064 874.604 C 956.910 872.736, 954.875 870.935, 953.543 870.600 C 950.047 869.723, 935.197 873.429, 932.118 875.948 C 930.678 877.125, 928.291 878.607, 926.814 879.240 C 925.257 879.907, 923.400 882.004, 922.396 884.230 C 921.444 886.342, 919.012 889.564, 916.992 891.389 C 909.419 898.230, 908.544 901.360, 912.129 908.767 C 914.418 913.495, 914.342 919.960, 911.936 925.242 C 910.373 928.671, 908.511 929.318, 905.187 927.588 C 899.033 924.386, 896 918.930, 896 911.060 C 896 902.726, 895.046 899.744, 892.609 900.459 C 883.428 903.154, 880.101 903.402, 878.046 901.542 C 873.632 897.547, 876.719 887.626, 883.873 882.816 C 888.906 879.432, 894 874.997, 894 873.998 C 894 873.653, 892.447 872.630, 890.549 871.725 C 886.420 869.756, 883.604 865.823, 884.439 863.192 C 884.772 862.144, 890.516 855.935, 897.205 849.393 C 909.290 837.574, 909.368 837.468, 909.805 832.272 C 910.319 826.151, 910.828 826.486, 894.708 822.330 C 884.257 819.636, 880.967 819.629, 870 822.280 C 852.527 826.505, 829.765 828.584, 822.162 826.651 C 818.950 825.834, 818.868 825.885, 819.992 827.986 C 821.603 830.995, 825.960 832.577, 836.414 833.949 C 849.965 835.726, 851.550 837.012, 853.965 848.181 C 855.224 854.001, 854.535 857.565, 850.392 866.662 C 846.588 875.016, 845.952 875.350, 834.811 874.854 L 826.854 874.500 823.570 887.321 C 819.849 901.847, 819.843 901.856, 811 905.513 C 802.189 909.156, 794.216 914.105, 790 918.549 C 785.471 923.323, 781.664 924.885, 772.713 925.641 C 766.060 926.204, 764.814 925.993, 758.461 923.223 C 745.225 917.453, 741.701 916.811, 730.753 918.177 L 721.002 919.394 726.896 925.215 C 734.176 932.406, 735.786 935.706, 736.599 945.109 L 737.239 952.500 743.370 958.793 C 746.741 962.253, 751.365 966.182, 753.645 967.523 C 763.481 973.309, 764.767 978.081, 759.900 990.745 L 757.500 996.990 759.995 1001.745 C 761.367 1004.360, 764.485 1009.425, 766.924 1013 C 771.961 1020.382, 773.991 1025.216, 776.990 1036.960 L 779.092 1045.195 775.043 1050.444 C 772.816 1053.331, 769.598 1058.486, 767.892 1061.900 C 766.186 1065.314, 763.323 1069.546, 761.531 1071.304 C 756.387 1076.348, 754.775 1080.486, 754.263 1089.967 C 753.491 1104.244, 755.792 1106.418, 767 1102 C 776.596 1098.218, 779.410 1100.548, 779.630 1112.456 C 779.701 1116.330, 779.814 1120.313, 779.880 1121.306 C 780.153 1125.409, 798.404 1130.045, 806.112 1127.970 C 809.093 1127.167, 811.549 1127.203, 815.599 1128.110 C 820.626 1129.235, 821.372 1129.159, 824.918 1127.166 C 830.279 1124.153, 833.138 1124.438, 837.957 1128.464 C 840.308 1130.428, 843.706 1132.186, 845.802 1132.522 C 853.520 1133.760, 854.569 1134.279, 858.975 1139.040 C 866.642 1147.323, 877.485 1149.916, 888.407 1146.076 C 901.703 1141.402, 905.197 1145.465, 899.507 1158.983 C 896.326 1166.541, 896.664 1167.377, 906.993 1177.500 C 912.105 1182.510, 916.252 1187.647, 918.090 1191.245 C 920.020 1195.025, 922.307 1197.800, 924.777 1199.359 C 926.841 1200.662, 929.171 1202.501, 929.955 1203.446 C 931.541 1205.357, 939.948 1209.749, 947.306 1212.511 C 952.433 1214.435, 955.595 1218.549, 954.529 1221.909 C 953.748 1224.368, 956.336 1226.338, 959.202 1225.467 C 960.466 1225.083, 964.623 1223.245, 968.440 1221.384 C 972.257 1219.523, 975.961 1218, 976.671 1218 C 977.381 1218, 981.167 1214.977, 985.084 1211.282 L 992.205 1204.564 991.819 1198.499 C 991.522 1193.834, 990.811 1191.618, 988.737 1188.900 C 984.224 1182.982, 984.580 1179.273, 990.514 1170.425 C 992.996 1166.723, 994.760 1163.427, 994.434 1163.100 C 994.107 1162.774, 989.568 1162.231, 984.346 1161.893 C 972.935 1161.156, 971.378 1160.220, 965.259 1150.423 C 957.156 1137.449, 959.613 1135.098, 983.991 1132.502 C 998.486 1130.958, 999.847 1130.630, 1005.155 1127.406 C 1011.885 1123.318, 1017 1117.816, 1017 1114.665 C 1017 1110.623, 1018.753 1110, 1030.132 1110 C 1042.292 1110, 1041.829 1110.285, 1047.306 1099.414 C 1052.369 1089.363, 1054.147 1082.050, 1053 1076.001 C 1051.547 1068.338, 1048.904 1063.681, 1045.406 1062.615 C 1037.895 1060.328, 1035.988 1059.127, 1028.645 1052.060 C 1015.312 1039.228, 1011.330 1031.385, 1010.334 1016 C 1009.899 1009.281, 1010.153 1006.557, 1011.546 1003 C 1012.515 1000.525, 1013.433 995.940, 1013.586 992.812 C 1014.085 982.566, 1017.904 979.402, 1028.415 980.528 C 1034.507 981.180, 1034.719 981.122, 1037.254 978.110 C 1038.795 976.279, 1040.326 972.679, 1041.019 969.262 C 1043.587 956.590, 1045.594 955.971, 1054.531 965.090 C 1064.746 975.512, 1077.342 983.141, 1084.517 983.249 C 1089.522 983.325, 1092.767 981.277, 1099.484 973.807 C 1108.424 963.863, 1108.627 961.789, 1101.594 952.235 C 1091.858 939.010, 1090.006 931.595, 1092.935 917.568 C 1096.633 899.860, 1096.532 899.524, 1083.475 886 C 1069.072 871.083, 1067.658 866.281, 1072.493 848.698 C 1076.919 832.600, 1078.619 829.303, 1085.575 823.322 C 1093.010 816.929, 1094.029 814.650, 1095.192 801.812 C 1096.488 787.497, 1096.854 787.974, 1078.556 780.126 C 1052.731 769.050, 1029.934 765.241, 1015.679 769.621 M 646.500 858.940 C 641.909 860.031, 639.749 861.464, 635.112 866.495 C 629.200 872.908, 627.047 878.102, 627.028 886 C 626.996 898.532, 630.021 904, 636.986 904 C 639.178 904, 643.005 904.544, 645.491 905.209 C 652.602 907.111, 653.165 906.014, 653.069 890.450 C 652.996 878.615, 653.184 877.247, 655.495 872.828 C 658.675 866.747, 658.763 862.527, 655.750 860.627 C 652.532 858.598, 649.932 858.124, 646.500 858.940 M 644.500 862.866 C 639.875 864.972, 633.435 871.715, 631.403 876.578 C 629.602 880.888, 629.593 893.089, 631.387 897.383 C 632.678 900.474, 633.176 900.745, 638.637 901.336 C 641.861 901.685, 645.673 902.242, 647.107 902.575 C 650.556 903.374, 651.219 900.187, 650.353 886.972 C 649.739 877.602, 649.827 876.971, 652.355 872.657 C 657.872 863.244, 654.071 858.507, 644.500 862.866 M 176.186 1130.980 C 170.163 1135.343, 169.418 1137.054, 166.595 1153 C 165.184 1160.975, 163.514 1170.362, 162.884 1173.860 C 161.525 1181.408, 161.983 1181.969, 169.500 1181.970 C 177.040 1181.971, 179.549 1180.299, 179.286 1175.447 C 178.929 1168.861, 179.705 1167.464, 186.985 1161.582 C 193.962 1155.944, 193.986 1155.908, 192.361 1153.428 C 190.809 1151.059, 190.781 1147.759, 192.225 1137.558 C 192.395 1136.357, 191.618 1135.166, 190.186 1134.434 C 188.914 1133.784, 186.639 1132.070, 185.132 1130.626 C 181.686 1127.325, 181.205 1127.344, 176.186 1130.980 M 717.693 1142.965 C 713.679 1146.489, 709.611 1153.876, 704.182 1167.500 C 695.542 1189.179, 693.679 1192.498, 688.875 1194.763 C 686.469 1195.897, 682.925 1197.142, 681 1197.528 C 674.591 1198.815, 673.352 1201.635, 677.102 1206.402 L 679.204 1209.075 674.837 1213.787 C 659.827 1229.985, 654.713 1242.263, 661.431 1245.969 C 663.043 1246.859, 664.520 1248.060, 664.713 1248.639 C 665.029 1249.587, 650.364 1257, 648.174 1257 C 646.026 1257, 641.959 1261.404, 640.928 1264.846 C 639.902 1268.269, 640.187 1269.549, 644.309 1280.042 C 646.785 1286.344, 649.332 1294.200, 649.970 1297.500 C 652.889 1312.607, 656.580 1318, 664 1318 C 672.511 1318, 676.097 1310.482, 687.374 1269 C 689.842 1259.925, 693.275 1248.675, 695.004 1244 C 696.733 1239.325, 699.222 1231, 700.536 1225.500 C 703.163 1214.497, 708.216 1199.069, 712.489 1189 C 714.007 1185.425, 717.243 1175.791, 719.681 1167.591 C 722.118 1159.391, 724.761 1151.429, 725.553 1149.897 C 727.526 1146.082, 725.241 1140.089, 721.785 1140.015 C 721.391 1140.007, 719.550 1141.334, 717.693 1142.965 M 717.613 1147.139 C 715.636 1149.448, 712.018 1156.190, 709.428 1162.389 C 694.858 1197.258, 695.382 1196.495, 683.759 1199.727 C 677.240 1201.539, 676.906 1202.248, 680.701 1206.210 L 683.402 1209.030 678.370 1214.265 C 671.562 1221.346, 667.923 1226.245, 663.540 1234.222 C 659.765 1241.094, 659.655 1243, 663.033 1243 C 664.832 1243, 668 1247.463, 668 1249.997 C 668 1250.600, 662.719 1253.660, 656.265 1256.797 C 641.094 1264.170, 641.081 1264.204, 647.333 1280.058 C 649.815 1286.351, 652.370 1294.422, 653.011 1297.993 C 655.241 1310.416, 658.225 1315, 664.082 1315 C 666.935 1315, 668.344 1314.378, 669.862 1312.449 C 672.325 1309.317, 678.448 1291.003, 684.388 1269 C 686.837 1259.925, 690.391 1248.225, 692.285 1243 C 694.179 1237.775, 696.481 1230.125, 697.400 1226 C 699.448 1216.811, 704.013 1202.690, 709.084 1189.863 C 711.179 1184.563, 714.754 1174.008, 717.028 1166.407 C 719.302 1158.806, 721.776 1151.399, 722.527 1149.947 C 723.876 1147.338, 723.523 1143, 721.961 1143 C 721.518 1143, 719.562 1144.863, 717.613 1147.139 M 1350.643 1151.724 C 1349.828 1153.299, 1348.422 1157.444, 1347.517 1160.933 C 1346.525 1164.762, 1344.270 1169.551, 1341.829 1173.012 C 1336.439 1180.655, 1334.156 1190.167, 1334.751 1202.500 C 1335.247 1212.780, 1333.162 1219.537, 1328.563 1222.551 C 1324.892 1224.956, 1325.267 1225.984, 1332.250 1232.642 C 1338.760 1238.850, 1339.981 1239.501, 1351.500 1242.908 C 1356.894 1244.504, 1360.221 1246.366, 1366 1251.025 C 1371.154 1255.181, 1375.220 1257.570, 1379 1258.666 C 1382.025 1259.542, 1388.550 1262, 1393.500 1264.127 C 1400.062 1266.947, 1403.894 1267.996, 1407.644 1267.998 C 1411.933 1268, 1413.302 1268.480, 1415.877 1270.886 C 1420.568 1275.267, 1425.526 1275.828, 1429.121 1272.384 C 1433.388 1268.296, 1435.990 1260.350, 1436.054 1251.212 C 1436.097 1245.062, 1436.776 1241.677, 1439.408 1234.500 L 1442.708 1225.500 1447.350 1224.955 C 1456.812 1223.842, 1456.116 1220.976, 1444.170 1211.858 C 1426.214 1198.152, 1425.734 1197.869, 1419.149 1197.092 C 1415.004 1196.603, 1412.560 1195.780, 1411.679 1194.575 C 1410.920 1193.537, 1408.926 1192.714, 1406.935 1192.616 C 1403.922 1192.468, 1403.178 1191.854, 1400.878 1187.612 C 1397.664 1181.684, 1396.757 1181.089, 1391.929 1181.736 C 1388.282 1182.225, 1387.744 1181.897, 1379.806 1174.333 C 1375.238 1169.979, 1368.681 1164.454, 1365.236 1162.054 C 1361.791 1159.654, 1358.073 1156.236, 1356.974 1154.458 C 1353.586 1148.976, 1352.342 1148.439, 1350.643 1151.724 M 1350.516 1160.935 C 1349.352 1165.685, 1347.441 1169.824, 1344.451 1174.069 C 1339.044 1181.749, 1337.540 1188.060, 1337.876 1201.668 C 1338.154 1212.946, 1336.018 1220.267, 1331.388 1223.910 L 1329.053 1225.746 1334.867 1231.292 C 1338.947 1235.183, 1341.996 1237.176, 1345.090 1237.974 C 1354.549 1240.412, 1359.018 1242.236, 1363.050 1245.306 C 1373.332 1253.135, 1376.361 1254.963, 1381.555 1256.473 C 1384.599 1257.358, 1390.629 1259.638, 1394.957 1261.541 C 1400.773 1264.098, 1404.242 1265, 1408.264 1265 C 1412.932 1265, 1414.144 1265.421, 1416.812 1267.971 C 1421.701 1272.643, 1424.832 1272.964, 1428.041 1269.120 C 1431.504 1264.972, 1432.999 1259.783, 1433.006 1251.884 C 1433.012 1244.698, 1433.901 1240.890, 1438.173 1229.750 L 1441.145 1222 1446.073 1222 C 1448.783 1222, 1450.981 1221.662, 1450.957 1221.250 C 1450.913 1220.464, 1439.279 1211.496, 1428.904 1204.250 C 1423.835 1200.710, 1422.030 1200, 1418.098 1200 C 1414.628 1200, 1412.756 1199.422, 1411.035 1197.818 C 1409.746 1196.617, 1407.074 1195.373, 1405.096 1195.052 C 1402.041 1194.557, 1401.094 1193.720, 1398.799 1189.485 C 1396.101 1184.507, 1396.091 1184.500, 1391.521 1184.842 C 1387.007 1185.180, 1386.833 1185.076, 1378.722 1177.230 C 1374.200 1172.855, 1367.330 1166.995, 1363.456 1164.207 C 1359.582 1161.420, 1355.794 1157.983, 1355.037 1156.570 C 1352.988 1152.740, 1352.380 1153.327, 1350.516 1160.935 M 1040.500 1192.172 C 1034.686 1194.082, 1034.261 1194.090, 1026.805 1192.421 C 1017.480 1190.333, 1015.549 1191.152, 1012.039 1198.679 C 1005.229 1213.287, 998.773 1223.188, 994.143 1226.125 C 988.075 1229.974, 975.194 1234, 968.948 1234 C 965.361 1234, 964 1234.387, 964 1235.407 C 964 1237.860, 973.815 1245.778, 978.983 1247.494 C 982.245 1248.578, 984.929 1250.374, 986.936 1252.815 C 988.602 1254.842, 990.648 1257.287, 991.483 1258.250 C 996.478 1264.012, 1005.209 1257.121, 1013.532 1240.851 C 1018.724 1230.699, 1019.563 1229.620, 1024.821 1226.313 C 1027.944 1224.348, 1031.949 1221.373, 1033.720 1219.703 C 1036.841 1216.759, 1037.072 1216.704, 1041.220 1217.912 C 1043.574 1218.597, 1048.425 1220.876, 1052 1222.975 C 1061.841 1228.752, 1064.289 1228.681, 1070.981 1222.421 C 1077.342 1216.471, 1078.033 1213.439, 1074.432 1207.294 C 1065.416 1191.910, 1055.179 1187.347, 1040.500 1192.172 M 1040.500 1195.147 C 1034.735 1197.018, 1034.218 1197.028, 1027.318 1195.414 C 1023.369 1194.490, 1019.480 1193.986, 1018.677 1194.294 C 1017.874 1194.602, 1014.131 1200.832, 1010.359 1208.140 C 1000.466 1227.303, 995.870 1231.159, 977.740 1235.511 L 968.929 1237.626 971.034 1239.563 C 972.191 1240.628, 976.370 1243.075, 980.319 1245 C 985.524 1247.537, 988.325 1249.652, 990.500 1252.689 C 996.303 1260.791, 1002.218 1256.886, 1011.299 1238.956 C 1016.189 1229.301, 1017.057 1228.193, 1022.631 1224.500 C 1025.951 1222.300, 1030.382 1218.994, 1032.478 1217.154 C 1037.287 1212.931, 1039.030 1213.186, 1052.586 1220.101 C 1063.979 1225.913, 1064.144 1225.903, 1070.336 1219.050 C 1074.806 1214.102, 1074.875 1212.531, 1070.872 1206.900 C 1061.202 1193.296, 1054.361 1190.649, 1040.500 1195.147 M 921.500 1223.662 C 916.279 1224.884, 913.147 1226.214, 911.183 1228.044 C 909.041 1230.039, 909.039 1230.039, 907.020 1228.020 C 904.324 1225.324, 903.305 1225.462, 900.027 1228.971 C 896.963 1232.251, 895 1238.585, 895 1245.193 C 895 1251.360, 890.452 1255.031, 883.748 1254.275 C 878.490 1253.682, 875.046 1256.300, 873.025 1262.424 C 871.430 1267.257, 866.158 1269.747, 854.910 1270.979 C 849.734 1271.546, 843.881 1272.274, 841.902 1272.597 C 838.701 1273.119, 838.039 1272.829, 835.902 1269.975 C 832.511 1265.445, 827.234 1260.135, 821.680 1255.665 C 818.892 1253.421, 816.274 1250.227, 815.369 1247.964 C 810.663 1236.202, 781.747 1223.630, 772.715 1229.420 C 768.681 1232.005, 748.558 1237.979, 740.464 1238.993 C 729.891 1240.318, 727.727 1241.343, 725.007 1246.309 C 723.744 1248.614, 721.651 1251.932, 720.356 1253.683 C 717.544 1257.483, 717.410 1259.163, 719.750 1261.253 C 721.492 1262.809, 734.481 1267.513, 745.046 1270.414 C 751.725 1272.249, 755.290 1275.605, 754.826 1279.623 C 754.224 1284.847, 745.543 1286.585, 735.409 1283.511 C 723.555 1279.915, 722.701 1281.683, 729.523 1295.705 C 735.318 1307.618, 738.002 1309.583, 750.569 1311.121 C 755.479 1311.721, 761.187 1313.075, 763.254 1314.129 C 768.045 1316.574, 797.864 1336.669, 809 1344.957 C 821.912 1354.568, 830.148 1358.279, 836.921 1357.537 C 844.485 1356.707, 850.655 1353.725, 856.500 1348.075 L 861.500 1343.241 881.899 1343.140 C 900.193 1343.048, 902.759 1343.242, 906.776 1345.019 C 915.173 1348.733, 919.988 1346.862, 924.437 1338.154 C 927.216 1332.715, 926.796 1331.785, 930.007 1350.500 C 932.901 1367.375, 939.950 1382, 945.189 1382 C 949.261 1382, 950.859 1376.665, 950.850 1363.102 C 950.845 1356.171, 951.327 1348.076, 951.921 1345.114 C 952.514 1342.151, 953.010 1337.201, 953.022 1334.114 C 953.035 1330.820, 953.812 1326.808, 954.903 1324.407 C 957.767 1318.100, 971.719 1298.533, 979.345 1290.128 C 986.881 1281.822, 990.585 1276.749, 993.949 1270.122 C 996.637 1264.826, 996.408 1264.530, 986.500 1260.505 C 982.650 1258.941, 974.771 1255.313, 968.990 1252.443 C 963.210 1249.573, 956.585 1246.656, 954.268 1245.962 C 948.613 1244.268, 946.317 1241.914, 942.692 1234.094 C 939.154 1226.460, 939.096 1226.408, 932.517 1224.993 C 924.566 1223.283, 923.613 1223.168, 921.500 1223.662 M 920.500 1226.909 C 916.589 1227.878, 913.348 1229.652, 910.762 1232.238 L 908.676 1234.324 906.336 1231.604 C 905.049 1230.108, 903.500 1229.191, 902.894 1229.565 C 900.507 1231.041, 898.044 1238.611, 898.022 1244.538 C 898 1250.481, 897.927 1250.637, 893.397 1254.424 C 889.255 1257.886, 888.478 1258.179, 885.647 1257.340 C 880.677 1255.869, 879.149 1256.762, 876.015 1262.969 C 872.362 1270.207, 867.485 1273, 858.500 1273 C 855.272 1273, 850.034 1273.729, 846.860 1274.619 C 839.841 1276.589, 836.873 1275.965, 833.826 1271.883 C 830.766 1267.783, 825.400 1262.409, 819.614 1257.651 C 817.040 1255.535, 813.847 1251.710, 812.518 1249.151 C 808.160 1240.759, 797.955 1234.413, 784.505 1231.730 C 777.789 1230.390, 777.310 1230.426, 772.491 1232.633 C 764.498 1236.292, 748.597 1240.863, 740.193 1241.917 C 730.123 1243.179, 729.465 1243.485, 727.453 1247.827 C 726.516 1249.847, 724.609 1253.028, 723.214 1254.895 C 720.802 1258.122, 720.766 1258.356, 722.483 1259.611 C 724.392 1261.007, 735.288 1264.733, 745.766 1267.574 C 762.549 1272.124, 761.835 1288, 744.848 1288 C 742.529 1288, 738.002 1287.262, 734.788 1286.361 C 731.575 1285.459, 728.705 1284.962, 728.410 1285.256 C 728.116 1285.551, 729.950 1289.923, 732.487 1294.974 C 737.832 1305.617, 740.323 1307.304, 752.500 1308.532 C 756.350 1308.921, 760.902 1309.811, 762.615 1310.512 C 766.125 1311.947, 798.138 1333.389, 810.800 1342.786 C 830.942 1357.734, 840.657 1358.472, 854.319 1346.090 L 860.812 1340.207 882.656 1340.353 C 902.898 1340.489, 904.830 1340.660, 909 1342.682 C 915.027 1345.604, 918.237 1343.912, 922.533 1335.549 C 927.811 1325.273, 928.768 1326.429, 932.449 1347.533 C 935.075 1362.586, 938.188 1371.462, 942.784 1377 C 946.480 1381.455, 947.422 1378.700, 948.182 1361.203 C 949.117 1339.699, 950.516 1325.778, 952.033 1322.907 C 955.130 1317.044, 971.045 1295.046, 976.512 1289.070 C 983.604 1281.320, 986.776 1277.161, 990.387 1270.875 L 993.044 1266.250 987.272 1263.980 C 984.097 1262.732, 976.742 1259.353, 970.926 1256.473 C 965.110 1253.592, 957.574 1250.223, 954.179 1248.985 C 950.785 1247.747, 946.888 1245.615, 945.519 1244.246 C 943.150 1241.877, 938 1232.219, 938 1230.145 C 938 1229.307, 933.786 1228.092, 925.517 1226.544 C 924.408 1226.336, 922.150 1226.500, 920.500 1226.909 M 552.160 1234.734 C 545.571 1236.674, 545.124 1237.716, 548.684 1242.844 C 552.300 1248.052, 551.619 1247.889, 564.733 1246.688 C 575.219 1245.727, 576.106 1245.786, 578.091 1247.579 C 580.768 1249.999, 584.102 1256.618, 586.864 1265 C 589.222 1272.154, 592.418 1278, 593.971 1278 C 594.521 1278, 595.485 1275.961, 596.112 1273.468 C 597.590 1267.599, 599.984 1266, 607.288 1266 C 616.873 1266, 618.656 1263.900, 615.497 1256.338 C 613.830 1252.349, 613.550 1252.327, 602.551 1255.340 C 595.642 1257.232, 587.469 1253.700, 583.188 1246.972 C 579.569 1241.286, 578.810 1240.714, 571.266 1237.993 C 567.837 1236.756, 564.520 1235.126, 563.894 1234.372 C 562.450 1232.632, 558.927 1232.741, 552.160 1234.734" stroke="none" fill="#111111" fill-rule="evenodd"/>
</svg>