<svg xmlns="http://www.w3.org/2000/svg" width="1500" height="1500" viewBox="0 0 1500 1500" version="1.1">
	<path d="M 891 31.549 C 889.625 31.743, 885.013 32.187, 880.750 32.536 C 871.572 33.288, 871.370 33.759, 877.120 41.033 C 880.940 45.866, 881.330 46.943, 882.466 55.812 C 884.099 68.552, 882.305 75.036, 873.952 86.600 C 866.613 96.758, 866.674 96.402, 871.715 99.778 L 875.930 102.602 869.480 111.952 C 865.933 117.095, 862.851 121.483, 862.631 121.703 C 862.411 121.923, 856.341 118.718, 849.141 114.581 C 826.146 101.368, 827.394 101.819, 813.148 101.574 L 800.646 101.359 796.937 97.179 C 794.897 94.881, 792.614 93.026, 791.864 93.058 C 789.831 93.145, 779.481 98.382, 779.618 99.254 C 779.683 99.669, 780.056 109.569, 780.448 121.254 L 781.160 142.500 776.018 154.500 C 773.190 161.100, 770.512 166.870, 770.066 167.322 C 769.621 167.773, 763.356 165.186, 756.143 161.572 C 748.930 157.957, 742.450 155, 741.742 155 C 741.034 155, 737.655 158.356, 734.231 162.458 C 730.808 166.560, 725.868 171.346, 723.254 173.093 C 714.963 178.633, 713.231 181.541, 708.873 197.231 C 706.694 205.079, 704.022 214.226, 702.937 217.558 L 700.964 223.617 693.066 227.468 C 680.710 233.492, 680.615 234.507, 690.450 255.439 C 695.089 265.311, 695.946 268.105, 696.806 276.153 L 697.799 285.456 689.029 294.978 C 681.025 303.667, 679.717 305.690, 674.065 318.104 C 668.920 329.407, 666.543 333.288, 660.017 341.043 C 651.005 351.750, 651.130 351.386, 652.161 364 L 652.938 373.500 643.015 383.448 L 633.092 393.396 622.296 393.948 L 611.500 394.500 611.817 417.500 C 612.076 436.310, 611.852 441.286, 610.588 444.816 C 608.872 449.608, 608.306 454.631, 607.051 476.223 C 606.355 488.210, 605.822 491.556, 604.186 494.223 C 603.081 496.026, 601.621 500.425, 600.941 504 C 599.485 511.665, 599.675 511.267, 581.877 544.108 C 574.245 558.192, 568 570.175, 568 570.736 C 568 571.297, 572.388 575.030, 577.750 579.031 C 583.112 583.032, 587.695 586.469, 587.933 586.669 C 588.171 586.868, 588.887 593.662, 589.524 601.766 L 590.683 616.500 587.592 624.295 C 584.910 631.056, 584.235 632.006, 582.500 631.459 C 574.575 628.964, 562.157 625.971, 556.685 625.237 C 550.549 624.415, 549.562 624.584, 540.028 628.084 C 526.681 632.984, 522.668 635.739, 519.391 642.255 C 517.940 645.140, 513.361 653.328, 509.216 660.451 L 501.680 673.402 500.774 683.402 C 499.899 693.069, 499.689 693.699, 494.489 702.283 L 489.110 711.163 494.456 726.418 L 499.801 741.674 496.901 746.334 C 493.587 751.657, 493.496 752.516, 495.454 759.872 C 496.830 765.042, 496.784 765.487, 494.242 771.676 L 491.601 778.107 494.951 791.803 C 496.793 799.337, 499.150 808.107, 500.188 811.292 C 502.068 817.061, 502.065 817.167, 499.602 836.792 C 495.197 871.890, 495.196 871.471, 499.671 878.607 C 505.856 888.472, 506.340 888.937, 511.391 889.881 C 517.059 890.940, 515.740 889.439, 521.988 901.937 L 527.206 912.374 525.045 923.437 C 523.857 929.522, 522.664 935.258, 522.396 936.184 C 522.090 937.239, 518.564 939.064, 512.961 941.068 C 499.484 945.889, 500.064 944.447, 505.530 959.545 C 508.110 966.670, 510.798 973.625, 511.505 975 C 513.855 979.571, 517 990.283, 517 993.715 C 517 995.576, 516.227 998.539, 515.282 1000.300 C 514.025 1002.641, 513.618 1005.512, 513.766 1011 C 513.894 1015.717, 513.190 1021.918, 511.870 1027.712 C 509.961 1036.090, 509.239 1037.592, 503.885 1044.322 C 498.283 1051.364, 497.762 1051.750, 493.112 1052.300 C 486.426 1053.092, 481 1055.486, 481 1057.644 C 481 1058.605, 482.171 1060.613, 483.602 1062.107 L 486.204 1064.823 482.036 1069.346 C 476.802 1075.024, 475.223 1082.827, 477.594 1091.298 C 482.551 1109.006, 480.827 1124.651, 472.873 1134.151 C 469.599 1138.062, 468.489 1138.821, 467.385 1137.904 C 466.623 1137.272, 466 1136.248, 465.999 1135.628 C 465.997 1133.044, 459.992 1122.066, 457.996 1120.998 C 455.334 1119.573, 453.723 1120.852, 448.342 1128.666 L 444.603 1134.093 446.194 1138.385 C 447.069 1140.746, 447.555 1143.877, 447.275 1145.344 C 446.994 1146.811, 447.328 1148.690, 448.016 1149.520 C 448.838 1150.509, 449.058 1152.562, 448.656 1155.491 C 448.137 1159.278, 448.344 1160.114, 450.022 1161.012 C 451.296 1161.694, 452 1163.105, 452 1164.976 C 452 1166.574, 452.450 1168.160, 453 1168.500 C 453.550 1168.840, 454 1171.701, 454 1174.859 C 454 1178.017, 454.540 1181.140, 455.200 1181.800 C 456.093 1182.693, 456.102 1183, 455.235 1183 C 454.595 1183, 453.612 1183.857, 453.052 1184.903 C 451.920 1187.019, 455.277 1194.131, 458.998 1197.498 C 460.227 1198.611, 461 1200.579, 461 1202.598 C 461 1204.840, 461.691 1206.371, 463.173 1207.408 C 465.090 1208.752, 465.149 1209.006, 463.673 1209.572 C 461.594 1210.370, 461.499 1213.340, 463.500 1215 C 464.325 1215.685, 465 1217.233, 465 1218.441 C 465 1222.846, 468.032 1231, 469.670 1231 C 470.546 1231, 473.229 1229.034, 475.632 1226.632 C 478.034 1224.229, 480 1222.853, 480 1223.574 C 480 1225.467, 475.989 1232.129, 473.301 1234.702 C 470.656 1237.234, 470.331 1240.200, 472.500 1242 C 473.325 1242.685, 474 1244.823, 474 1246.751 C 474 1249.700, 474.887 1251.110, 479.573 1255.612 C 483.535 1259.420, 484.981 1261.484, 484.577 1262.757 C 484.265 1263.741, 484.862 1266.137, 485.903 1268.081 C 487.283 1270.654, 487.658 1272.851, 487.285 1276.161 C 486.569 1282.519, 488.308 1285.684, 491.403 1283.656 C 493.624 1282.200, 493.698 1282.288, 495.769 1288.837 C 496.928 1292.502, 498.182 1297.750, 498.556 1300.500 C 499.303 1305.993, 502.141 1311.470, 505.046 1313.025 C 506.074 1313.575, 507.216 1315.633, 507.585 1317.600 C 508.005 1319.840, 509.702 1322.607, 512.128 1325.009 C 514.580 1327.437, 516 1329.765, 516 1331.356 C 516 1335.510, 517.779 1339, 519.895 1339 C 521.343 1339, 522.268 1340.292, 523.521 1344.063 C 524.689 1347.580, 525.924 1349.401, 527.562 1350.024 C 529.305 1350.686, 530.347 1352.386, 531.553 1356.534 C 533.470 1363.129, 532.960 1364.088, 528.804 1361.702 C 526.007 1360.097, 525.529 1360.079, 523.369 1361.494 C 520.183 1363.581, 520.366 1366.825, 523.949 1371.770 C 526.347 1375.082, 526.648 1376.047, 525.560 1376.950 C 524.543 1377.794, 523.506 1377.455, 521.218 1375.530 C 518.001 1372.823, 514.999 1372.205, 515.001 1374.250 C 515.002 1374.938, 516.612 1380.225, 518.579 1386 C 520.546 1391.775, 522.694 1398.525, 523.351 1401 C 524.008 1403.475, 525.323 1406.940, 526.273 1408.700 C 527.223 1410.461, 528 1412.833, 528 1413.973 C 528 1415.112, 529.855 1418.057, 532.122 1420.517 C 535.364 1424.034, 536.356 1425.978, 536.767 1429.622 C 537.272 1434.105, 537.139 1434.392, 532.644 1438.519 C 525.931 1444.683, 526.308 1446.349, 535.366 1450.533 C 539.417 1452.405, 545.935 1454.466, 549.850 1455.112 C 556.671 1456.239, 557.212 1456.178, 562.859 1453.644 C 566.099 1452.190, 569.819 1450.980, 571.125 1450.955 C 572.431 1450.930, 574.850 1450.322, 576.500 1449.603 C 578.611 1448.683, 580.241 1448.583, 582 1449.266 C 589.220 1452.068, 591.202 1452.008, 595.167 1448.868 C 599.539 1445.405, 602.428 1441.612, 604.535 1436.570 C 605.992 1433.084, 605.960 1432.961, 602.653 1429.262 C 596.786 1422.701, 596.560 1421.732, 599.182 1414.345 C 600.805 1409.772, 602.251 1407.422, 604.002 1406.509 C 607.791 1404.535, 609.757 1401.895, 610.526 1397.754 L 611.221 1394.008 614.105 1396.435 C 617.875 1399.608, 620.457 1400.361, 622.962 1399.020 C 625.701 1397.554, 625.529 1394.782, 622.474 1391.152 C 619.175 1387.231, 620.299 1386.670, 629.684 1387.549 C 636.829 1388.219, 637.397 1388.125, 638.991 1386.012 C 640.450 1384.078, 640.999 1383.929, 642.907 1384.950 C 644.127 1385.603, 646.335 1386.025, 647.813 1385.887 C 649.291 1385.750, 651.492 1385.968, 652.704 1386.372 C 654.096 1386.835, 655.757 1386.550, 657.207 1385.600 C 659.340 1384.202, 659.856 1384.312, 664.388 1387.133 C 671.572 1391.605, 677.500 1389.980, 679.468 1383 C 679.856 1381.625, 681.761 1378.142, 683.702 1375.260 C 686.499 1371.105, 687.123 1369.345, 686.715 1366.760 C 686.354 1364.476, 686.884 1362.302, 688.486 1359.500 C 689.743 1357.300, 691.551 1352.709, 692.504 1349.298 C 693.457 1345.887, 695.083 1342.329, 696.118 1341.393 C 697.153 1340.456, 698 1339.155, 698 1338.500 C 698 1337.353, 701.112 1334, 702.177 1334 C 703.007 1334, 701.085 1345.156, 699.594 1349 C 697.480 1354.448, 697.579 1381.230, 699.711 1380.810 C 702.569 1380.248, 705.165 1375.387, 707.143 1366.891 C 708.215 1362.286, 710.238 1356.563, 711.639 1354.173 C 713.039 1351.783, 715.543 1345.485, 717.202 1340.177 C 718.861 1334.869, 720.845 1329.632, 721.609 1328.540 C 722.374 1327.448, 723 1324.906, 723 1322.891 C 723 1318.772, 727.072 1305.847, 730.545 1298.945 C 731.805 1296.439, 733.157 1292.614, 733.549 1290.445 C 733.940 1288.275, 734.702 1285.943, 735.242 1285.263 C 736.735 1283.381, 735.346 1281, 732.754 1281 C 728.472 1281, 726.132 1283.736, 723.948 1291.296 C 718.185 1311.249, 709.979 1325.988, 704.168 1326.825 C 702.005 1327.137, 701.936 1326.929, 702.519 1321.825 C 702.854 1318.896, 704.081 1314.351, 705.246 1311.725 C 707.154 1307.426, 707.242 1306.469, 706.127 1302.120 C 704.658 1296.389, 705.249 1293.530, 709.441 1286.078 C 715.450 1275.393, 717.522 1267.540, 715.830 1261.852 C 714.973 1258.973, 715.202 1255.028, 716.917 1243.120 C 718.503 1232.112, 718.807 1227.507, 718.041 1226.078 C 717.221 1224.544, 717.536 1223.097, 719.497 1219.410 C 721.338 1215.948, 722 1213.170, 722 1208.910 C 722 1205.724, 722.396 1202.873, 722.879 1202.575 C 724.762 1201.411, 724.742 1197.942, 722.839 1195.523 C 721.027 1193.219, 720.995 1192.845, 722.436 1190.788 C 725.323 1186.667, 723.569 1179.193, 718.261 1172.991 C 715.298 1169.531, 715.071 1168.910, 716.554 1168.341 C 717.495 1167.980, 719.099 1168.205, 720.119 1168.842 C 723.075 1170.688, 725.379 1170.228, 731.434 1166.582 C 734.556 1164.702, 741.365 1161.515, 746.567 1159.500 C 755.902 1155.883, 760.920 1151.864, 761.044 1147.906 C 761.069 1147.133, 761.979 1148.188, 763.068 1150.250 C 766.106 1156.005, 768.488 1155.327, 771.893 1147.739 C 775.323 1140.094, 785.642 1131.552, 782.975 1138.565 C 780.217 1145.821, 783.092 1145.694, 790.136 1138.250 C 800.363 1127.442, 802.601 1122.104, 796.272 1123.611 L 793.500 1124.271 796.378 1121.197 C 798.482 1118.950, 799.125 1117.433, 798.767 1115.561 C 798.364 1113.452, 798.659 1113, 800.439 1113 C 803.134 1113, 811 1107.999, 811 1106.285 C 811 1105.588, 810.141 1104.480, 809.091 1103.825 C 807.270 1102.688, 807.320 1102.504, 810.167 1099.844 C 813.456 1096.771, 813.190 1095, 809.439 1095 L 806.996 1095 808.998 1091.265 C 811.449 1086.692, 811.496 1085.206, 809.271 1082.747 C 807.657 1080.963, 807.653 1080.773, 809.221 1079.896 C 812.839 1077.871, 814 1075.796, 814 1071.352 C 814 1067.668, 814.527 1066.359, 816.889 1064.173 C 821.665 1059.752, 823.022 1058.821, 825.744 1058.093 C 830.752 1056.754, 830.894 1054.486, 826.265 1049.770 C 823.956 1047.418, 821.527 1043.940, 820.865 1042.042 C 820.203 1040.143, 818.644 1037.090, 817.400 1035.257 C 816.156 1033.424, 814.169 1029.011, 812.984 1025.452 C 811.742 1021.721, 810.019 1018.545, 808.915 1017.955 C 807.862 1017.391, 807 1015.875, 807 1014.586 C 807 1013.297, 805.538 1009.812, 803.750 1006.843 C 801.962 1003.873, 799.644 999.543, 798.598 997.222 C 795.899 991.229, 793 991.934, 793 998.582 C 793 1001.392, 792.286 1001.605, 790.084 999.449 C 789.213 998.597, 786.498 996.909, 784.051 995.699 C 780.484 993.936, 778.923 992.249, 776.182 987.197 C 772.885 981.120, 772.649 980.917, 769.631 981.558 C 767.909 981.924, 765.790 982.848, 764.921 983.611 C 762.667 985.594, 762.450 985.446, 761.123 981.016 C 759.675 976.182, 757.690 975, 751.026 975 C 746.144 975, 738 971.987, 738 970.181 C 738 969.752, 739.532 968.848, 741.405 968.171 C 745.511 966.686, 746.405 964.757, 744.984 960.451 C 744.274 958.299, 742.876 956.777, 740.834 955.931 C 735.191 953.594, 734.082 947.742, 738.163 941.846 C 740.606 938.316, 740.479 935.332, 737.611 928.846 L 735.221 923.444 737.612 920.664 C 740.364 917.465, 740.273 909.823, 737.324 896.377 C 736.088 890.743, 735.999 888.532, 736.901 885.799 C 737.819 883.018, 737.742 881.627, 736.507 878.672 C 734.427 873.693, 736.733 873.622, 742.132 878.500 C 746.681 882.610, 747.375 882.731, 749.443 879.777 C 751.482 876.867, 751.407 875.116, 749.021 869.859 C 746.827 865.029, 746.999 850.081, 749.330 843 C 749.963 841.075, 750.486 837.705, 750.491 835.511 C 750.499 831.758, 750.809 831.343, 755.704 828.511 C 758.567 826.855, 761.183 824.826, 761.518 824.003 C 762.158 822.430, 757.860 818, 755.694 818 C 755.037 818, 753.305 816.502, 751.844 814.671 L 749.187 811.342 754.098 807.112 C 758.182 803.594, 758.905 802.471, 758.396 800.441 C 757.823 798.157, 758.041 798, 761.788 798 C 766.599 798, 769.554 795.065, 776.089 783.796 C 778.416 779.783, 781.373 775.228, 782.660 773.673 C 785.186 770.622, 785.690 767.545, 783.851 766.408 C 783.163 765.983, 784.067 765.249, 786.101 764.581 C 789.669 763.409, 790.146 761.937, 788.541 757.047 C 787.783 754.736, 787.835 754.692, 789.439 756.297 C 792.659 759.516, 796.101 757.180, 799.026 749.791 C 799.743 747.981, 801.004 745.708, 801.828 744.740 C 803.123 743.220, 803.138 742.627, 801.938 740.383 C 800.446 737.596, 800.029 738.203, 807.750 731.936 C 808.437 731.378, 809 729.452, 809 727.657 C 809 722.120, 818.870 714, 825.600 714 C 830.324 714, 832 712.324, 832 707.601 C 832 706.094, 832.809 704.637, 834 704 C 835.100 703.411, 836 702.027, 836 700.923 C 836 698.755, 839.378 694.584, 841.311 694.365 C 841.965 694.291, 843.051 694.179, 843.724 694.115 C 844.398 694.052, 845.668 692.610, 846.546 690.910 C 848.028 688.046, 848.272 687.936, 849.901 689.410 C 850.867 690.285, 853.077 691, 854.812 691 C 857.575 691, 858.268 690.405, 860.399 686.199 C 862.643 681.771, 870.884 674, 873.335 674 C 873.889 674, 875.128 673.289, 876.088 672.420 C 877.489 671.152, 878.261 671.069, 879.998 671.999 C 884.390 674.350, 892.263 666.548, 894.377 657.750 C 894.873 655.688, 895.645 655, 897.462 655 C 900.453 655, 902.991 651.591, 903.026 647.527 C 903.047 644.991, 903.686 644.208, 906.962 642.698 C 911.324 640.688, 915 634.586, 915 629.356 C 915 624.576, 920.351 617.511, 934.688 603.362 C 949.376 588.866, 950.203 587.232, 944.544 583.894 C 940.796 581.682, 940.457 580.994, 939.426 573.500 C 938.406 566.086, 936.127 561.117, 933.007 559.503 C 930.829 558.377, 930.362 557.557, 930.748 555.536 C 931.363 552.321, 929.485 550, 926.269 550 C 924.066 550, 923.857 549.687, 924.433 547.250 C 924.791 545.737, 926.190 543.583, 927.542 542.462 C 929.014 541.242, 930 539.369, 930 537.793 C 930 535.821, 932.129 533.042, 938.492 526.707 C 946.864 518.373, 946.969 518.208, 945.872 515.062 C 944.342 510.675, 945.589 502.499, 948.424 498.327 C 950.241 495.653, 950.640 493.987, 950.264 490.650 C 949.797 486.503, 949.887 486.343, 953.642 484.710 C 961.681 481.213, 963.425 479.616, 964.206 475.039 C 965.131 469.622, 964.335 470.115, 973.377 469.351 C 982.209 468.604, 983.626 467.318, 982.611 460.972 C 982.231 458.593, 982.527 456.213, 983.416 454.499 C 984.842 451.751, 984.004 446.739, 981.902 445.439 C 980.448 444.541, 980.868 441, 982.428 441 C 983.213 441, 984.950 439.601, 986.289 437.890 C 988.379 435.219, 989.014 434.937, 990.795 435.890 C 994.199 437.712, 998.116 437.271, 998.710 435 C 999.696 431.230, 1005.662 433.512, 1010.293 439.431 C 1013.699 443.784, 1015.541 443.889, 1019.725 439.968 C 1022.886 437.005, 1022.974 436.986, 1024.215 438.973 C 1025.989 441.813, 1029.466 441.503, 1031.802 438.297 C 1033.739 435.638, 1033.979 435.589, 1046.636 435.254 C 1053.711 435.067, 1061.205 434.924, 1063.289 434.937 C 1065.659 434.951, 1067.282 434.427, 1067.624 433.538 C 1067.924 432.756, 1066.277 425.903, 1063.964 418.308 C 1061.651 410.714, 1059.228 401.790, 1058.579 398.477 C 1057.050 390.673, 1056.704 390.206, 1051.471 388.888 C 1044.922 387.239, 1044.546 386.367, 1044.152 371.942 L 1043.804 359.189 1047.962 353.929 C 1054.481 345.682, 1055.271 343.523, 1055.803 332.500 C 1056.202 324.238, 1056.609 322.273, 1058.143 321.193 C 1061.735 318.666, 1061.335 317.420, 1047.484 287.966 C 1038.530 268.927, 1038.421 267.191, 1045.745 260.341 C 1049.449 256.876, 1050.065 255.790, 1049.432 253.841 C 1049.014 252.553, 1048.605 248.556, 1048.524 244.959 C 1048.339 236.781, 1048.322 236.756, 1041.302 234.475 C 1033.477 231.932, 1033.626 232.233, 1036.468 224.680 C 1038.967 218.041, 1038.975 217.921, 1037.855 202.680 L 1036.730 187.356 1039.865 183.028 C 1041.589 180.648, 1043 178.013, 1043 177.173 C 1043 175.497, 1029.941 154.272, 1026.104 149.711 C 1024.351 147.628, 1023.106 147.008, 1021.493 147.412 C 1019.412 147.935, 1019.246 147.557, 1018.627 140.894 L 1017.969 133.822 1010.735 125.891 C 1006.746 121.519, 1001.652 117.061, 999.382 115.955 C 997.117 114.852, 994.458 113.059, 993.473 111.971 C 992.488 110.882, 989.841 109.502, 987.591 108.903 C 985.341 108.304, 982.759 107.153, 981.853 106.346 C 980.591 105.220, 978.808 105.036, 974.214 105.555 L 968.221 106.233 965.491 101.574 C 963.343 97.909, 961.105 95.961, 955 92.439 C 946.325 87.436, 939.123 80.365, 935.861 73.650 C 934.666 71.191, 932.697 68.727, 931.484 68.175 C 930.022 67.508, 928.897 65.647, 928.140 62.642 C 926.794 57.296, 924.006 55, 918.859 55 C 912.465 55, 911.930 54.449, 912.621 48.571 C 913.322 42.599, 911.994 39.225, 907.111 34.584 C 904.030 31.654, 898.138 30.545, 891 31.549 M 885.330 34.912 C 881.387 35.235, 877.922 35.740, 877.631 36.032 C 877.340 36.325, 878.632 38.498, 880.501 40.860 C 883.879 45.128, 884.179 46.180, 885.820 59.500 C 887.112 69.991, 883.216 79.745, 871.765 94.691 C 871.134 95.515, 872.107 96.674, 874.926 98.454 C 877.167 99.868, 879 101.484, 879 102.046 C 879 103.729, 865.001 124.063, 863.426 124.667 C 862.624 124.975, 856.463 122.067, 849.734 118.207 C 823.838 103.349, 825.617 104, 810.917 104 C 803.813 104, 797.987 103.662, 797.971 103.250 C 797.955 102.838, 796.561 100.981, 794.873 99.125 L 791.805 95.750 786.890 98.051 C 782.323 100.190, 782.009 100.571, 782.449 103.427 C 782.710 105.117, 783.208 114.641, 783.555 124.590 L 784.188 142.681 778.481 156.090 C 775.342 163.466, 772.353 170.023, 771.838 170.661 C 771.157 171.506, 766.921 169.927, 756.297 164.870 L 741.693 157.917 738.646 161.709 C 734.566 166.785, 727.511 173.616, 721.302 178.500 C 715.783 182.842, 715.384 183.785, 708.498 208.810 C 704.026 225.061, 703.989 225.117, 694.929 229.535 C 689.534 232.165, 686.758 234.116, 686.404 235.527 C 685.820 237.854, 687.746 243.123, 694.073 256.500 C 697.671 264.107, 698.513 267.125, 699.512 276 L 700.693 286.500 691.954 296.014 C 684.120 304.543, 682.498 307.026, 676.275 320.014 C 670.943 331.143, 667.793 336.305, 662.682 342.288 C 653.509 353.027, 653.754 352.328, 654.976 364.234 L 656.026 374.463 645.692 384.796 C 634.234 396.254, 632.835 396.934, 620.609 396.976 L 613.719 397 614.374 418.250 C 614.808 432.330, 614.665 440.850, 613.951 443.500 C 611.543 452.439, 611.049 456.254, 610.077 473.364 C 609.246 488.006, 608.714 491.819, 607.126 494.511 C 606.061 496.317, 604.489 501.178, 603.634 505.314 C 602.325 511.643, 599.619 517.373, 586.539 541.507 C 577.993 557.278, 571 570.287, 571 570.417 C 571 570.547, 575.500 573.937, 581 577.951 C 586.500 581.964, 591.024 585.755, 591.054 586.374 C 591.084 586.993, 591.665 594.152, 592.346 602.282 L 593.585 617.063 590.328 625.136 C 586.063 635.708, 585.540 636.316, 582.149 634.630 C 574.685 630.920, 551.038 626.374, 547.910 628.048 C 546.722 628.684, 542.729 630.232, 539.036 631.488 C 528.214 635.169, 524.509 638.039, 520.622 645.757 C 518.754 649.466, 514.279 657.539, 510.677 663.698 C 504.185 674.799, 504.122 674.979, 503.430 684.413 C 502.755 693.602, 502.550 694.233, 497.480 702.671 L 492.229 711.412 497.634 726.838 L 503.039 742.264 499.891 747.170 C 496.772 752.030, 496.755 752.131, 497.994 757.973 C 499.366 764.439, 499.096 767.154, 496.381 774.169 L 494.574 778.838 497.903 792.169 C 499.733 799.501, 502.083 807.998, 503.124 811.051 C 505.009 816.576, 505.007 816.692, 502.572 836.051 C 498.383 869.364, 498.333 871.014, 501.360 876.121 C 506.229 884.335, 508.439 886.380, 513.635 887.475 L 518.500 888.500 524.334 899.850 L 530.169 911.200 527.475 925.545 L 524.780 939.890 514.472 943.628 L 504.163 947.366 507.945 957.969 C 510.026 963.801, 512.408 969.907, 513.240 971.537 C 515.871 976.692, 520 990.098, 520 993.487 C 520 995.279, 519.049 998.895, 517.888 1001.521 C 516.197 1005.343, 515.901 1007.416, 516.404 1011.898 C 517.126 1018.343, 513.981 1034.782, 511.191 1039.143 C 507.518 1044.883, 500.880 1052.994, 499.057 1053.970 C 497.998 1054.536, 495.737 1055, 494.034 1055 C 492.330 1055, 489.331 1055.670, 487.370 1056.490 L 483.805 1057.979 486.399 1061.062 C 489.371 1064.595, 489.024 1065.912, 483.489 1072.105 C 479.053 1077.069, 478.176 1084.052, 480.864 1093.009 C 484.176 1104.042, 484.413 1109.909, 481.979 1120.593 C 480.038 1129.111, 479.279 1130.762, 474.867 1136.064 C 468.088 1144.209, 466.143 1143.744, 462.065 1133 C 460.917 1129.975, 459.145 1126.424, 458.128 1125.109 L 456.278 1122.717 451.955 1128.444 L 447.632 1134.170 449.241 1138.513 C 450.126 1140.901, 450.606 1143.790, 450.307 1144.933 C 450.008 1146.076, 450.303 1147.660, 450.962 1148.454 C 451.621 1149.248, 452.035 1151.630, 451.882 1153.748 C 451.709 1156.142, 452.246 1158.514, 453.302 1160.021 C 454.236 1161.354, 455 1163.380, 455 1164.523 C 455 1165.665, 455.392 1167.028, 455.872 1167.550 C 457.541 1169.369, 458.091 1184.849, 456.518 1185.730 C 455.378 1186.368, 455.723 1187.468, 458.302 1191.414 C 463.377 1199.179, 463.970 1200.362, 463.985 1202.771 C 463.995 1204.215, 464.911 1205.458, 466.500 1206.182 C 469.502 1207.550, 469.786 1210.616, 466.992 1211.502 C 465.149 1212.088, 465.108 1212.316, 466.492 1214.292 C 467.322 1215.476, 468.020 1217.807, 468.045 1219.473 C 468.070 1221.138, 468.642 1223.793, 469.317 1225.373 L 470.544 1228.247 474.022 1224.294 C 475.935 1222.120, 477.997 1219.480, 478.605 1218.428 C 480.145 1215.758, 483 1218.170, 483 1222.141 C 483 1225.737, 478.412 1234.709, 475.880 1236.064 C 473.615 1237.276, 473.459 1239.306, 475.500 1241 C 476.350 1241.705, 477 1243.885, 477 1246.029 C 477 1249.346, 477.618 1250.331, 482 1254 C 486.028 1257.372, 487.007 1258.800, 487.035 1261.343 C 487.055 1263.079, 487.714 1265.625, 488.500 1267 C 489.286 1268.375, 489.974 1272.200, 490.028 1275.500 C 490.104 1280.134, 490.333 1280.988, 491.031 1279.250 C 492.944 1274.490, 495.265 1277.530, 498.855 1289.500 C 500.010 1293.350, 501.213 1298.607, 501.529 1301.182 C 501.976 1304.833, 502.949 1306.737, 505.949 1309.828 C 508.064 1312.008, 510.086 1315.117, 510.442 1316.738 C 510.798 1318.359, 512.869 1321.593, 515.045 1323.926 C 518.026 1327.123, 519 1328.995, 519 1331.529 C 519 1334.194, 519.560 1335.161, 521.704 1336.195 C 523.621 1337.120, 524.836 1338.882, 525.880 1342.250 C 526.880 1345.479, 527.896 1347, 529.052 1347 C 531.253 1347, 535.079 1355.758, 535.321 1361.349 C 535.486 1365.165, 535.283 1365.525, 532.808 1365.811 C 531.327 1365.982, 529.041 1365.418, 527.728 1364.557 C 523.382 1361.710, 522.612 1365.491, 526.500 1370.589 C 529.533 1374.566, 529.663 1377.090, 526.959 1379.537 C 524.975 1381.332, 524.832 1381.332, 521.793 1379.537 C 519.476 1378.168, 518.802 1378.054, 519.188 1379.095 C 519.474 1379.868, 520.489 1382.975, 521.442 1386 C 522.396 1389.025, 523.811 1392.918, 524.588 1394.651 C 525.365 1396.384, 526.004 1398.634, 526.010 1399.651 C 526.015 1400.668, 527.140 1403.907, 528.510 1406.849 C 529.879 1409.791, 531 1412.966, 531 1413.903 C 531 1414.841, 532.579 1417.138, 534.510 1419.009 C 541.444 1425.731, 541.822 1433.597, 535.500 1439.655 C 529.910 1445.011, 529.918 1445.292, 535.750 1447.780 C 546.412 1452.328, 557.999 1454.428, 559.453 1452.076 C 560.107 1451.018, 566.959 1448.789, 575.043 1447.004 C 579.765 1445.961, 581.294 1446.020, 585.369 1447.404 C 590.865 1449.270, 593.351 1448.181, 598.198 1441.786 C 603.510 1434.776, 603.581 1434.179, 599.580 1430.082 C 594.239 1424.613, 593.643 1421.366, 596.486 1413.236 C 598.368 1407.854, 599.551 1406.052, 602.379 1404.263 C 606.521 1401.641, 608 1399.253, 608 1395.188 C 608 1389.884, 610.434 1389.256, 614.999 1393.380 C 621.142 1398.930, 624.439 1398.052, 619.500 1392.182 C 616.482 1388.596, 616.423 1387.832, 618.985 1385.514 C 620.968 1383.719, 627.438 1383.746, 633.732 1385.575 C 635.531 1386.098, 636.166 1385.695, 637 1383.499 C 637.895 1381.147, 638.410 1380.872, 640.768 1381.492 C 642.271 1381.886, 645.382 1382.342, 647.681 1382.503 C 649.981 1382.665, 652.364 1383.107, 652.975 1383.485 C 653.587 1383.863, 655.207 1383.439, 656.574 1382.544 C 658.948 1380.988, 659.329 1381.058, 665.051 1384.108 C 672.301 1387.972, 675.081 1387.326, 677.054 1381.317 C 677.744 1379.218, 679.790 1375.554, 681.601 1373.176 C 684.315 1369.612, 684.732 1368.426, 683.975 1366.434 C 682.962 1363.769, 683.455 1361.763, 686.049 1358 C 686.997 1356.625, 688.727 1352.290, 689.894 1348.366 C 691.061 1344.442, 692.687 1340.675, 693.508 1339.994 C 694.329 1339.312, 695 1338.182, 695 1337.481 C 695 1336.780, 696.650 1334.758, 698.667 1332.987 C 701.824 1330.216, 702.105 1329.638, 700.687 1328.845 C 698.507 1327.625, 699.409 1317.420, 702.262 1311.020 C 704.018 1307.082, 704.116 1305.979, 703.075 1301.914 C 701.607 1296.189, 702.233 1293.604, 707.533 1283.500 C 712.894 1273.279, 714.415 1267.256, 712.982 1261.932 C 712.135 1258.789, 712.364 1254.811, 714.076 1242.927 C 716.168 1228.400, 716.180 1227.852, 714.413 1226.560 C 712.673 1225.288, 712.723 1225.017, 715.475 1220.862 C 717.704 1217.497, 718.501 1214.900, 718.962 1209.500 C 719.290 1205.650, 720.079 1201.600, 720.713 1200.500 C 721.667 1198.847, 721.491 1198.098, 719.701 1196.188 C 717.602 1193.948, 717.589 1193.782, 719.267 1190.857 C 722.182 1185.778, 720.749 1179.895, 715.003 1173.351 C 711.350 1169.190, 711.249 1167.740, 714.490 1166.006 C 716.539 1164.909, 717.670 1164.901, 720.885 1165.962 C 724.633 1167.199, 725.029 1167.107, 730.646 1163.691 C 733.866 1161.732, 740.299 1158.685, 744.942 1156.918 C 755.720 1152.818, 758.456 1150.253, 757.621 1145.034 C 756.474 1137.856, 761.322 1139.672, 765.537 1147.999 L 767.309 1151.498 769.150 1146.999 C 771.872 1140.347, 772.235 1139.880, 777.509 1136.245 C 783.167 1132.346, 786.553 1132.245, 786.396 1135.979 C 786.304 1138.173, 786.857 1137.829, 791.211 1132.979 C 796.107 1127.526, 796.118 1127.498, 793.506 1127.178 C 789.475 1126.683, 789.323 1124.294, 793.076 1120.422 C 796.373 1117.020, 796.395 1116.938, 794.735 1114.128 C 792.654 1110.605, 793.214 1110, 798.556 1110 C 801.266 1110, 803.624 1109.302, 805.139 1108.052 L 807.500 1106.104 805.250 1104.495 C 802.309 1102.393, 802.412 1101.383, 805.750 1099.572 C 807.760 1098.481, 808.021 1098.069, 806.719 1098.040 C 803.840 1097.975, 803.597 1095.237, 806.057 1090.598 L 808.355 1086.267 806.233 1083.570 C 803.681 1080.325, 804.165 1078.589, 808.072 1076.970 C 810.735 1075.867, 811 1075.322, 811 1070.950 C 811 1066.844, 811.483 1065.658, 814.310 1062.821 C 818.711 1058.405, 822.016 1056.039, 824.746 1055.351 C 826.891 1054.811, 826.790 1054.561, 822.496 1049.784 C 820.023 1047.034, 818 1044.020, 818 1043.086 C 818 1042.152, 816.889 1039.882, 815.531 1038.042 C 814.173 1036.201, 812.080 1031.726, 810.880 1028.097 C 809.680 1024.469, 807.641 1020.509, 806.349 1019.298 C 805.057 1018.087, 804 1016.036, 804 1014.742 C 804 1013.448, 802.886 1010.879, 801.524 1009.033 C 800.163 1007.187, 798.512 1004.062, 797.856 1002.089 L 796.664 998.500 795.329 1001.750 C 793.764 1005.560, 791.856 1005.878, 789.323 1002.750 C 788.320 1001.513, 785.376 999.500, 782.780 998.278 C 778.175 996.109, 774.230 991.459, 772.579 986.250 C 771.644 983.301, 769.856 983.409, 766.009 986.646 C 762.258 989.802, 760.279 988.641, 758.484 982.228 L 757.441 978.500 750.167 977.848 C 736.987 976.666, 729.439 968.575, 739.092 965.975 C 742.869 964.958, 743.133 964.667, 742.513 962.197 C 741.816 959.419, 740.407 958.042, 738.235 958.015 C 736.267 957.991, 733.008 951.864, 733.004 948.178 C 733.002 946.351, 734.095 942.976, 735.434 940.678 L 737.869 936.500 734.906 929.584 L 731.943 922.669 734.494 920.006 C 736.893 917.502, 737.012 916.898, 736.476 909.921 C 736.163 905.840, 735.192 899.651, 734.320 896.168 C 733.023 890.993, 732.953 889.167, 733.934 886.168 C 734.916 883.170, 734.865 881.864, 733.659 879.014 C 730.534 871.635, 736.271 869.540, 742.987 875.607 C 746.297 878.598, 747.087 878.937, 747.603 877.593 C 748.246 875.917, 748.051 874.978, 745.810 868.941 C 744.180 864.549, 745.055 842.844, 746.954 840.555 C 747.712 839.642, 747.919 837.910, 747.500 836 C 746.620 831.993, 748.792 828.657, 754.015 825.993 C 758.740 823.582, 759.029 822.255, 755.123 820.893 C 752.375 819.935, 746 813.147, 746 811.179 C 746 810.663, 748.025 808.582, 750.500 806.554 C 753.950 803.727, 755 802.190, 755 799.968 C 755 796.657, 757.284 795, 761.850 795 C 765.315 795, 768.280 791.659, 774.791 780.417 C 777.048 776.521, 779.593 772.753, 780.447 772.044 C 782.451 770.381, 782.407 769.108, 780.263 766.738 C 778.611 764.912, 778.620 764.751, 780.454 763.410 C 781.515 762.634, 783.421 762, 784.691 762 C 787.430 762, 787.379 762.327, 785.477 756.935 C 783.293 750.744, 785.277 748.679, 789.774 752.463 C 793.229 755.371, 793.015 755.523, 797.061 747.288 C 798.783 743.782, 799.336 741.565, 798.750 740.518 C 797.423 738.147, 798.769 735.278, 802.568 732.381 C 805.039 730.495, 806 728.978, 806 726.958 C 806 721.119, 817.974 711, 824.884 711 C 828.791 711, 829 710.847, 829 708 C 829 706.333, 829.889 704.111, 831 703 C 832.100 701.900, 833 700.375, 833 699.610 C 833 697.206, 839.553 690.614, 841.283 691.278 C 842.436 691.721, 843.334 690.706, 844.676 687.444 C 846.702 682.517, 848.059 681.950, 850.180 685.144 C 852.751 689.016, 856.503 688.428, 858.577 683.828 C 860.376 679.839, 865.773 674.737, 871.500 671.612 C 873.150 670.711, 875.286 669.421, 876.247 668.745 C 877.634 667.768, 878.415 667.778, 880.041 668.794 C 883.835 671.163, 889.744 665.217, 891.444 657.319 C 892.242 653.609, 893.548 652.323, 897 651.846 C 899.163 651.547, 899.542 650.924, 899.809 647.228 C 900.094 643.270, 900.439 642.804, 904.479 640.905 C 908.950 638.803, 912 634.408, 912 630.067 C 912 623.675, 920.159 612.645, 935.057 598.898 C 940.526 593.852, 945 589.122, 945 588.387 C 945 587.653, 943.713 586.386, 942.141 585.573 C 938.988 583.943, 937.476 580.811, 936.552 574 C 935.499 566.241, 934.085 563.248, 930.461 561.109 C 927.435 559.324, 927.104 558.730, 927.641 556.043 C 928.190 553.301, 928.003 553, 925.747 553 C 920.163 553, 919.660 544.790, 925.003 540.840 C 926.676 539.603, 927.587 538.139, 927.320 537.117 C 926.785 535.070, 931.680 528.801, 938.705 522.537 C 943.518 518.245, 943.833 517.692, 942.886 515.200 C 941.332 511.112, 942.825 501.103, 945.523 497.519 C 947.468 494.936, 947.691 493.819, 947.062 489.786 C 946.290 484.830, 947.099 483, 950.060 483 C 950.974 483, 953.379 481.875, 955.405 480.500 C 957.431 479.125, 959.491 478, 959.983 478 C 960.475 478, 961.179 475.989, 961.547 473.532 C 961.916 471.075, 962.774 468.602, 963.455 468.037 C 964.433 467.225, 971.814 466.295, 979.379 466.031 C 979.863 466.014, 979.953 463.300, 979.580 460 C 979.176 456.430, 979.282 454, 979.843 454 C 981.883 454, 981.918 450.603, 979.911 447.356 C 977.784 443.914, 977.877 439, 980.070 439 C 980.638 439, 982.620 437.343, 984.475 435.318 L 987.848 431.637 991.843 433.206 C 995.796 434.759, 995.846 434.750, 996.439 432.388 C 997.605 427.742, 1005.494 429.800, 1011.305 436.266 L 1015.109 440.500 1018.943 436.122 C 1023.118 431.353, 1024.074 431.350, 1026.043 436.104 L 1027.347 439.251 1029.943 436.070 L 1032.540 432.888 1047.020 432.433 C 1054.984 432.183, 1062.287 431.955, 1063.250 431.927 C 1065.434 431.863, 1065.678 433.357, 1060.989 418.085 C 1058.782 410.899, 1056.420 402.216, 1055.739 398.790 L 1054.500 392.559 1049.732 391.216 C 1042.493 389.178, 1041.619 387.175, 1041.172 371.580 L 1040.797 358.500 1044.018 354.500 C 1051.854 344.768, 1052.393 343.373, 1052.825 331.688 C 1053.168 322.435, 1053.498 320.706, 1055.113 319.698 C 1058.070 317.851, 1057.576 316.229, 1047.826 295.760 C 1039.893 279.104, 1038.597 275.645, 1038.238 270.172 L 1037.822 263.845 1042.423 259.621 L 1047.024 255.397 1045.989 249.949 C 1045.420 246.952, 1045.212 243.321, 1045.528 241.879 C 1046.038 239.551, 1045.648 239.076, 1042.031 237.629 C 1039.792 236.733, 1037.343 236, 1036.591 236 C 1035.838 236, 1034.188 235.163, 1032.925 234.141 L 1030.629 232.282 1033.320 224.891 L 1036.011 217.500 1034.962 201.802 L 1033.912 186.104 1036.956 181.902 C 1038.630 179.591, 1040 177.330, 1040 176.877 C 1040 175.951, 1026.477 154.368, 1024.365 151.923 C 1023.493 150.913, 1021.939 150.502, 1020.047 150.780 C 1016.708 151.270, 1016.490 150.773, 1015.636 140.760 C 1015.173 135.330, 1014.780 134.615, 1008.354 127.520 C 1004.617 123.394, 999.972 119.285, 998.030 118.388 C 996.089 117.491, 993.375 115.762, 992 114.546 C 990.625 113.330, 987.641 111.808, 985.369 111.163 C 983.096 110.518, 980.731 109.381, 980.113 108.636 C 979.241 107.585, 978.134 107.509, 975.184 108.296 C 969.457 109.825, 966.583 108.643, 963.345 103.426 C 961.189 99.952, 958.778 97.889, 953.389 94.907 C 945.271 90.414, 936.380 81.594, 933.575 75.250 C 932.542 72.912, 931.159 71, 930.503 71 C 928.502 71, 926.207 67.703, 925.480 63.786 C 924.597 59.029, 923.664 58.360, 917.082 57.757 C 910.024 57.111, 908.867 55.568, 909.671 47.874 C 910.275 42.092, 910.247 42.012, 906.258 38.022 C 901.826 33.591, 901.683 33.570, 885.330 34.912 M 830.021 1224.148 C 826.323 1225.576, 824 1228.036, 824 1230.525 C 824 1233.353, 815.574 1234.789, 812.921 1232.414 C 810.630 1230.362, 808.932 1230.712, 805.038 1234.041 C 803.134 1235.668, 801.077 1237, 800.468 1237 C 797.893 1237, 791 1244.168, 791 1246.846 C 791 1249.737, 787.703 1255.218, 782.332 1261.259 C 778.798 1265.232, 778.512 1268.110, 780.554 1279.151 C 781.045 1281.805, 780.743 1283.627, 779.447 1285.821 C 777.841 1288.539, 777.813 1289.070, 779.163 1291.169 C 779.987 1292.451, 781.249 1296.313, 781.968 1299.750 C 782.686 1303.188, 783.668 1306, 784.151 1306 C 784.634 1306, 783.642 1308.747, 781.947 1312.104 C 777.265 1321.381, 779.204 1323.096, 789.317 1318.623 C 795.502 1315.888, 796.121 1314.825, 795.348 1308.281 C 794.701 1302.805, 795.776 1301.374, 803.810 1297.012 C 806.355 1295.630, 809.491 1292.929, 810.781 1291.010 C 813.116 1287.532, 813.117 1287.513, 811.122 1285.898 C 809.147 1284.298, 809.164 1284.234, 812.392 1281.105 C 814.547 1279.016, 816.233 1278.152, 817.332 1278.574 C 818.249 1278.926, 819.691 1278.949, 820.535 1278.625 C 822.807 1277.753, 819.866 1272.499, 815.983 1270.491 C 812.604 1268.744, 812.277 1267.033, 814.636 1263.433 C 815.851 1261.579, 816.119 1259.656, 815.681 1255.952 C 815.142 1251.406, 815.360 1250.660, 818.149 1247.483 C 820.245 1245.096, 822.070 1244, 823.949 1244 C 826.698 1244, 830 1241.365, 830 1239.171 C 830 1238.527, 830.450 1238, 831 1238 C 831.550 1238, 832 1236.726, 832 1235.169 C 832 1233.160, 832.738 1231.943, 834.544 1230.976 C 839.418 1228.368, 835.277 1222.118, 830.021 1224.148 M 829.746 1227.625 C 827.008 1229.060, 825.601 1235, 828 1235 C 828.550 1235, 829 1234.229, 829 1233.288 C 829 1232.346, 830.200 1230.618, 831.666 1229.449 C 834.892 1226.877, 833.571 1225.621, 829.746 1227.625 M 804.500 1237.559 C 795.474 1243.613, 794.294 1244.798, 793.709 1248.408 C 793.170 1251.726, 787.169 1260.955, 783.652 1263.874 C 781.721 1265.477, 781.301 1275.450, 783.118 1276.573 C 784.472 1277.410, 783.539 1285.646, 781.861 1287.668 C 780.994 1288.713, 781.113 1289.467, 782.362 1290.847 C 783.263 1291.843, 784.006 1293.747, 784.014 1295.079 C 784.037 1299.200, 785.183 1302.144, 786.558 1301.616 C 789.335 1300.551, 790.449 1303.901, 788.289 1306.822 C 787.176 1308.329, 785.276 1311.500, 784.067 1313.869 L 781.869 1318.176 784.185 1317.468 C 792.785 1314.839, 793.079 1314.529, 792.413 1308.795 C 791.664 1302.357, 793.669 1299.216, 800.849 1295.575 C 807.512 1292.196, 810.049 1289.240, 807.737 1287.549 C 806.782 1286.851, 806 1285.671, 806 1284.928 C 806 1283.058, 814.066 1275.004, 815.958 1274.983 C 816.814 1274.974, 816.051 1274.039, 814.243 1272.881 C 810.183 1270.281, 809.336 1267.184, 811.526 1262.949 C 812.753 1260.577, 813.047 1258.409, 812.599 1255.032 C 812.030 1250.744, 812.256 1250.061, 815.503 1246.267 C 817.701 1243.700, 820.241 1241.893, 822.262 1241.459 C 826.798 1240.486, 827.119 1240.163, 825.739 1237.954 C 824.465 1235.913, 818.633 1235.167, 817.558 1236.906 C 816.808 1238.119, 812.703 1237.022, 811.700 1235.341 C 810.638 1233.560, 810.314 1233.660, 804.500 1237.559 M 729.208 1285.250 C 728.637 1285.938, 726.982 1290.729, 725.528 1295.899 C 724.075 1301.068, 721.359 1308.493, 719.492 1312.399 C 716.088 1319.523, 707.867 1329.995, 705.672 1330.005 C 704.898 1330.009, 704.482 1332.298, 704.446 1336.755 C 704.417 1340.465, 703.614 1345.800, 702.662 1348.611 C 701.334 1352.535, 700.998 1356.365, 701.216 1365.111 C 701.529 1377.669, 701.833 1377.448, 705.504 1362 C 706.354 1358.425, 707.937 1354.281, 709.023 1352.792 C 711.400 1349.533, 718.734 1328.500, 719.935 1321.500 C 720.994 1315.331, 724.472 1305.107, 727.719 1298.625 C 731.502 1291.071, 732.606 1281.154, 729.208 1285.250" stroke="none" fill="#111111" fill-rule="evenodd"/>
</svg>