<svg xmlns="http://www.w3.org/2000/svg" width="1500" height="1500" viewBox="0 0 1500 1500" version="1.1">
	<path d="M 663 270.411 C 663 274.632, 662.812 274.913, 658.612 276.946 C 656.198 278.114, 651.135 281.682, 647.362 284.874 C 639.811 291.259, 638.884 294.119, 642.957 298.455 C 644.081 299.651, 645 300.969, 645 301.384 C 645 302.578, 639.532 310.180, 636.112 313.741 C 632.037 317.985, 632.131 318.530, 637.901 324.091 C 642.678 328.696, 642.716 328.779, 639.433 327.407 C 634.663 325.415, 633.230 325.630, 630.484 328.750 C 627.453 332.193, 627.301 336.925, 630.039 342.580 C 634.606 352.014, 639.126 353.942, 647.627 350.082 C 652.865 347.703, 653.473 346.654, 651.686 343.073 C 650.359 340.413, 650.392 340.131, 652.081 339.689 C 653.095 339.424, 655.179 337.038, 656.712 334.386 C 662.053 325.151, 663.797 324, 672.448 324 C 681.566 324, 682 323.412, 682 311.060 C 682 299.759, 682.617 297.583, 686.205 296.229 L 689.234 295.085 687.367 292.123 C 686.340 290.493, 683.104 285.294, 680.176 280.569 C 672.414 268.043, 670.484 266, 666.411 266 C 663.045 266, 663 266.058, 663 270.411 M 665.811 272.151 C 665.520 276.182, 665.182 276.633, 660.664 279.015 C 655.392 281.795, 643 291.595, 643 292.984 C 643 293.458, 644.125 295.184, 645.500 296.818 C 646.875 298.452, 648 300.437, 648 301.229 C 648 303.006, 640.645 313.628, 637.677 316.139 L 635.500 317.980 639.500 321.509 C 641.700 323.450, 645.188 326.532, 647.250 328.359 C 649.849 330.661, 651 332.515, 651 334.399 C 651 338.032, 652.196 337.086, 655.897 330.528 C 659.957 323.334, 662.761 321.616, 671.449 321 L 678.500 320.500 679.154 309.221 C 679.896 296.440, 680.196 295.237, 682.891 294.226 C 684.650 293.566, 684.173 292.463, 677.663 282.120 C 673.723 275.861, 669.515 270.087, 668.311 269.289 C 666.184 267.878, 666.114 267.959, 665.811 272.151 M 621.667 270.667 C 618.955 273.378, 623.330 282, 627.418 282 C 630.145 282, 633 279.108, 633 276.346 C 633 272.168, 624.450 267.883, 621.667 270.667 M 624 274.378 C 624 277.206, 626.368 279.457, 628.487 278.643 C 630.683 277.801, 630.341 275.352, 627.777 273.557 C 624.745 271.432, 624 271.594, 624 274.378 M 677 325.854 C 665.358 329.231, 664.423 329.732, 659.187 335.413 C 655.983 338.889, 655 340.753, 655 343.355 C 655 345.225, 654.295 347.340, 653.434 348.055 C 648.697 351.986, 648.450 358.056, 652.970 359.490 C 654.667 360.029, 654.911 360.914, 654.721 365.847 C 654.370 374.964, 656.063 376.687, 668 379.359 C 669.375 379.667, 671.215 381.101, 672.088 382.547 C 675.176 387.656, 692.417 392.097, 699.666 389.650 C 703.944 388.206, 705.295 378.963, 702.134 372.763 C 700.277 369.121, 700.279 369.102, 702.384 368.802 C 705.099 368.414, 705.658 363.775, 703.781 357.218 C 702.824 353.879, 702.696 351.279, 703.341 348.323 C 704.558 342.752, 703.657 339.733, 699.358 334.975 C 695.336 330.523, 693.597 330.071, 691.768 333 C 689.656 336.381, 688.874 335.251, 689.194 329.284 C 689.571 322.236, 689.522 322.222, 677 325.854 M 684.500 326.700 C 667.436 330.691, 658 336.727, 658 343.650 C 658 345.561, 656.864 348.154, 655 350.500 C 651.405 355.024, 651.342 355.583, 654.250 357.115 C 657.642 358.901, 658.094 360.064, 657.421 365.277 C 656.616 371.522, 658.557 374.670, 663.742 375.529 C 669.693 376.515, 672.634 377.947, 674.020 380.536 C 674.826 382.043, 677.111 383.541, 680.141 384.547 C 682.801 385.430, 685.194 386.505, 685.459 386.934 C 686.435 388.513, 697.889 387.969, 699.594 386.263 C 702.196 383.661, 701.052 374.708, 697.666 371.173 C 693.660 366.992, 694.057 364.585, 698.630 365.327 L 702.260 365.917 701.437 361.208 C 700.984 358.619, 700.588 352.799, 700.557 348.275 C 700.503 340.420, 700.358 339.907, 697.357 336.901 C 694.319 333.858, 694.191 333.823, 693.539 335.876 C 693.108 337.234, 692.032 338, 690.555 338 C 686.976 338, 685.643 335.620, 686.347 330.486 C 686.685 328.019, 686.858 326.052, 686.731 326.116 C 686.604 326.180, 685.600 326.443, 684.500 326.700 M 632.655 330.829 C 630.188 333.555, 630.639 337.625, 634.073 343.628 C 637.506 349.628, 639.824 350.354, 646.564 347.538 L 650.063 346.076 646.483 338.967 C 643.642 333.324, 642.198 331.563, 639.484 330.429 C 635.107 328.600, 634.648 328.627, 632.655 330.829 M 723.789 364.548 C 723.080 365.399, 721.905 366.637, 721.178 367.298 C 720.451 367.959, 719.027 369.249, 718.013 370.165 C 717 371.081, 715.206 375.131, 714.028 379.165 C 711.747 386.976, 709.134 394.823, 702.932 412.489 C 699.615 421.935, 699.256 423.753, 700.372 425.434 C 702.927 429.282, 704.664 428.377, 711.179 419.808 C 713.838 416.312, 713.934 416.279, 723.679 415.575 C 731.261 415.028, 734.412 414.335, 737.500 412.538 C 739.700 411.258, 743.385 409.703, 745.690 409.083 C 750.968 407.662, 751.232 406.722, 749.715 394.755 C 748.487 385.066, 748.457 384.995, 744.627 382.392 C 740.489 379.581, 738.151 379.144, 733.629 380.340 C 730.935 381.052, 730.797 380.944, 731.390 378.581 C 732.636 373.617, 728.884 363, 725.884 363 C 725.441 363, 724.499 363.697, 723.789 364.548 M 725 367.974 C 725 368.510, 723.677 369.633, 722.059 370.469 C 719.646 371.717, 718.731 373.291, 716.957 379.245 C 714.251 388.330, 711.275 397.316, 706.133 411.935 C 702.017 423.633, 701.747 427.684, 705.431 422.463 C 711.319 414.117, 712.688 413.367, 723.450 412.579 C 731.116 412.017, 734.329 411.316, 737.450 409.523 C 739.677 408.243, 743.007 406.881, 744.848 406.497 C 748.123 405.813, 748.184 405.706, 747.620 401.649 C 747.303 399.367, 746.747 395.102, 746.383 392.172 C 745.791 387.401, 745.318 386.577, 741.858 384.287 C 737.996 381.732, 737.992 381.731, 733.412 383.480 C 727.869 385.597, 726.791 384.776, 728.187 379.500 C 729.316 375.234, 727.850 367, 725.961 367 C 725.433 367, 725 367.438, 725 367.974 M 726.374 444.591 C 722.593 449.865, 717.813 456.193, 715.750 458.651 C 711.622 463.572, 711.268 465.673, 713.500 472 C 716.385 480.178, 715.167 481.387, 702.860 482.557 C 694.227 483.377, 693 484.122, 693 488.545 C 693 491.478, 692.362 492.245, 687.281 495.423 C 683.712 497.655, 680.317 499, 678.249 499 C 673.614 499, 668.317 496.575, 667.529 494.091 C 666.278 490.150, 662.157 491.579, 649.013 500.513 C 637.894 508.070, 636.031 509, 632.004 509 C 623.883 509, 610.757 517.263, 596.614 531.278 L 584.728 543.057 585.295 547.839 C 585.606 550.470, 587.081 555.592, 588.572 559.222 C 592.001 567.573, 591.524 568.993, 585.281 569.024 C 578.595 569.059, 572.550 570.617, 568.206 573.427 C 563.824 576.261, 550.633 580, 545.015 580 C 539.397 580, 537.585 583.639, 538.227 593.635 C 538.484 597.634, 538.268 601.332, 537.747 601.853 C 536.066 603.534, 537.835 606.360, 544.989 613.419 C 548.845 617.224, 552 620.902, 552 621.592 C 552 623.625, 556.801 628.733, 559.302 629.361 C 561.578 629.932, 561.609 630.130, 561.555 643.970 C 561.525 651.686, 561.205 658, 560.845 658 C 560.485 658, 558.969 655.916, 557.476 653.369 L 554.762 648.739 556.506 642.980 C 558.172 637.479, 558.169 637.010, 556.455 632.522 L 554.661 627.824 550.508 628.446 C 546.024 629.119, 546.826 629.749, 533.615 615.166 C 531.625 612.969, 523.592 609.464, 517.977 608.343 C 515.067 607.762, 512.518 610.047, 511.494 614.154 C 510.958 616.301, 511.515 617.565, 514.416 620.775 C 516.387 622.957, 518 625.061, 518 625.451 C 518 626.809, 511.496 624.717, 508.416 622.368 C 503.138 618.342, 501.496 619.044, 500.418 625.787 C 499.777 629.796, 499.903 630.024, 506.382 636.567 C 510.022 640.243, 513 643.477, 513 643.754 C 513 644.329, 499.465 643.116, 497.510 642.365 C 494.506 641.213, 493.765 633.893, 495.954 627 C 497.089 623.425, 498.253 618.025, 498.542 615 C 499.559 604.336, 490.490 589.325, 485.079 592.715 C 482.456 594.358, 482.730 597.505, 485.934 602.557 C 487.607 605.195, 489.232 608.961, 489.545 610.927 C 489.859 612.892, 490.312 615.471, 490.553 616.657 C 490.898 618.353, 490.064 619.359, 486.662 621.352 C 484.281 622.748, 480.626 625.778, 478.541 628.086 C 474.812 632.214, 474.757 632.390, 475.263 638.687 C 475.675 643.814, 476.469 646.133, 479.250 650.321 C 484.311 657.944, 484.393 658.717, 481.446 671.043 C 478.378 683.872, 478.302 694.730, 481.258 697.687 C 482.850 699.278, 483.293 699.273, 488.610 697.597 C 497.518 694.789, 502.013 695.917, 509.189 702.762 C 515.382 708.669, 517.036 712.046, 514.962 714.546 C 512.995 716.916, 512.013 715.977, 507.553 707.452 C 502.895 698.551, 504.474 699.212, 491.235 700.625 C 485.302 701.258, 484.613 702.037, 483.560 709.294 C 483 713.150, 483.291 714.970, 485.047 718.596 C 487.694 724.064, 487.180 727.944, 483.140 732.986 C 479.096 738.033, 478 740.427, 478 744.212 C 478 749.024, 475.840 751.458, 468.488 754.932 C 461.179 758.386, 459.122 758.632, 455.072 756.537 C 449.396 753.602, 450.396 751.025, 458 748.993 C 465.321 747.036, 467.728 745.357, 469.068 741.267 C 469.748 739.195, 470.921 736.549, 471.677 735.387 C 472.432 734.225, 473.741 729.950, 474.586 725.887 C 475.623 720.900, 476.914 717.670, 478.561 715.945 C 481.547 712.818, 481.638 710.887, 478.917 708.425 C 473.773 703.770, 473.549 701.308, 474.346 658.140 C 474.500 649.801, 474.492 649.774, 471.137 646.973 C 467.106 643.608, 467.135 642.800, 471.963 624 C 475.654 609.624, 475.575 604.752, 471.597 601.330 C 467.942 598.186, 459.893 596.815, 452 597.991 C 448.425 598.524, 444.953 598.969, 444.285 598.980 C 442.142 599.015, 441.010 602.642, 438.951 616.078 C 436.554 631.714, 436.039 632.811, 427.566 640.312 C 420.326 646.721, 419.197 650.058, 423.080 653.572 C 425.415 655.686, 425.294 658.468, 422.293 671.693 C 420.604 679.138, 421.226 682, 424.534 682 C 426.423 682, 431.005 687.822, 430.386 689.437 C 429.568 691.568, 432.658 696.685, 435.931 698.618 C 440.335 701.220, 440.780 704.681, 437.175 708.287 L 434.226 711.235 428.363 706.899 C 425.138 704.513, 419.125 699.804, 415 696.433 C 410.875 693.062, 406.150 689.983, 404.500 689.591 C 402.850 689.198, 398.800 687.615, 395.500 686.072 C 392.200 684.530, 384.679 681.590, 378.787 679.539 C 371.364 676.954, 367.894 675.243, 367.489 673.966 C 365.953 669.125, 355.740 663.221, 353.908 666.115 C 352.103 668.965, 352.895 674.993, 355.376 677.295 C 356.683 678.508, 359.271 680.890, 361.126 682.588 C 365.413 686.512, 370.672 695.405, 371.534 700.188 L 372.199 703.875 367.908 704.188 C 364.041 704.469, 363.537 704.809, 362.812 707.624 C 361.294 713.522, 359.285 713.711, 358.504 708.030 C 358.025 704.543, 357.151 702.519, 355.682 701.490 C 352.576 699.314, 351.609 699.578, 346.500 704 C 342.150 707.765, 341.504 708, 335.504 708 C 327.512 708, 324.432 709.143, 323.611 712.414 C 322.802 715.637, 319.729 717.581, 314.131 718.413 C 310.209 718.995, 309.836 718.880, 310.487 717.281 C 314.670 707, 314.273 701.898, 309.234 701.180 C 305.858 700.698, 301 705.988, 301 710.146 C 301 713.417, 300.987 713.426, 299.443 711.223 C 297.105 707.885, 296.095 708.350, 288 716.500 C 282.029 722.511, 279.949 724.004, 277.525 724.018 C 275.843 724.028, 272.546 725.361, 270.100 727.018 C 267.679 728.658, 264.922 730, 263.972 730 C 261.465 730, 260.344 731.869, 259.545 737.380 C 258.612 743.821, 257.079 747, 254.905 747 C 251.938 747, 247.857 745.081, 244.439 742.080 C 242.654 740.513, 240.641 739.047, 239.965 738.822 C 239.042 738.514, 239.145 737.620, 240.378 735.236 C 242.535 731.066, 244.713 730.018, 249.805 730.701 C 255.343 731.444, 255.380 729.498, 250.038 718.460 C 245.697 709.492, 244.481 708.574, 235.500 707.480 C 232.750 707.145, 229.262 706.640, 227.750 706.356 C 224.270 705.704, 224.034 708.581, 227 715.500 C 229.487 721.301, 229.479 722.894, 226.930 731 C 224.534 738.617, 224.963 742.615, 228.650 746.995 C 230.884 749.651, 231.132 750.634, 230.549 754.525 C 229.800 759.514, 229.123 759.785, 223.387 757.389 C 219.117 755.604, 210.880 756.025, 208.309 758.159 C 207.495 758.834, 206.135 761.123, 205.286 763.244 C 204.135 766.121, 203.030 767.244, 200.941 767.662 C 193.869 769.076, 190.022 780.739, 193.806 789.294 C 195.520 793.169, 195.627 794, 194.412 794 C 191.995 794, 185.894 791.153, 179.500 787.043 C 171.938 782.182, 159 780.140, 159 783.809 C 159 786.418, 165.320 794.375, 172.110 800.315 C 178.378 805.798, 177.173 806.195, 167 802 C 162.999 800.350, 158.717 799, 157.485 799 C 154.427 799, 153.221 797.268, 151.088 789.809 C 149.585 784.553, 149.443 782.436, 150.281 777.812 C 151.413 771.564, 151.842 772.619, 142.729 759.223 C 140.104 755.366, 137.292 751.657, 136.479 750.982 C 132.696 747.843, 135.691 748.326, 142.250 751.913 C 146.238 754.094, 156.050 758.105, 164.055 760.827 L 178.611 765.776 185.936 763.388 C 189.965 762.075, 194.148 761, 195.231 761 C 198.879 761, 203.523 755.019, 205.459 747.827 C 207.725 739.410, 207.104 736.950, 201.195 730.928 C 198.613 728.297, 195.279 724.606, 193.788 722.728 C 192.230 720.766, 188.185 717.907, 184.288 716.013 C 179.048 713.466, 175.635 710.732, 169.324 704.025 L 161.148 695.337 148.325 692.033 C 131.588 687.722, 128.376 686.221, 132.500 684.638 C 134.668 683.806, 134.370 679.268, 132.066 678.035 C 126.482 675.047, 118.632 678.160, 116.863 684.063 C 115.639 688.149, 115.554 688.214, 114.178 686.141 C 112.147 683.083, 110.322 683.493, 109.070 687.289 C 108.473 689.098, 106.711 691.330, 105.156 692.249 C 99.990 695.300, 96.630 701.449, 96.169 708.694 C 95.760 715.106, 95.798 715.220, 99.742 719.338 C 101.934 721.627, 104.562 724.964, 105.581 726.753 L 107.435 730.007 103.844 737.264 L 100.253 744.521 104.100 756.510 C 107.786 767.998, 107.898 768.741, 106.770 774.265 C 105.858 778.735, 105.867 781.053, 106.810 784.580 C 107.563 787.393, 107.684 789.742, 107.129 790.733 C 106.485 791.884, 107.046 793.461, 109.116 796.319 C 112.556 801.068, 112.668 802.770, 109.896 808.203 L 107.793 812.326 115.896 820.079 C 120.353 824.343, 124 828.241, 124 828.741 C 124 829.242, 122.832 830.742, 121.404 832.076 C 119.977 833.409, 116.103 838.895, 112.797 844.267 C 108.340 851.508, 104.464 856.200, 97.811 862.408 C 88.854 870.766, 87.810 873.021, 93.963 870.718 C 96.952 869.600, 97.355 869.694, 98.860 871.861 C 99.762 873.160, 102.453 876.400, 104.840 879.061 C 109.986 884.799, 109.719 885.641, 102.464 886.548 C 98.152 887.087, 96.528 887.805, 94.965 889.868 C 93.869 891.315, 91.798 893.804, 90.364 895.398 C 87.975 898.053, 87.825 898.725, 88.567 903.398 C 89.504 909.300, 90.118 919.330, 90.404 933.448 L 90.606 943.395 93.553 944.652 C 95.174 945.344, 97.497 945.930, 98.715 945.955 C 99.933 945.980, 101.435 946.945, 102.053 948.099 C 103.191 950.226, 105.980 950.351, 111.597 948.528 C 114.526 947.576, 116.388 952.228, 115.486 958.244 L 114.818 962.701 123.611 972.596 C 132.509 982.609, 133.246 985.247, 126.117 981.560 C 119.310 978.041, 118.395 980.732, 122.399 992.500 C 124.645 999.102, 124.943 999.488, 127.640 999.280 C 141.140 998.244, 144.678 999.449, 143.376 1004.637 C 142.679 1007.415, 147.674 1013, 150.856 1013 C 151.989 1013, 153.143 1013.875, 153.502 1015.005 C 154.707 1018.803, 159.064 1023, 161.801 1023 C 163.464 1023, 165.227 1024.005, 166.613 1025.745 C 168.712 1028.376, 168.881 1028.418, 170.730 1026.745 C 173.379 1024.347, 174.278 1024.532, 176.842 1028 C 178.686 1030.494, 179.772 1031.006, 183.280 1031.036 C 189.507 1031.089, 193.504 1034.561, 191.956 1038.572 C 191.287 1040.308, 191.079 1043.780, 191.446 1047.102 L 192.066 1052.703 187.783 1054.343 C 183.080 1056.143, 180.921 1058.559, 173.345 1070.500 C 161.150 1089.721, 160.360 1094, 169.009 1094 C 170.793 1094, 172.535 1094.864, 173.677 1096.316 C 174.680 1097.590, 177.750 1100.345, 180.500 1102.437 C 183.250 1104.530, 185.725 1106.525, 186 1106.871 C 187.934 1109.304, 191.100 1110.383, 198.274 1111.055 C 202.932 1111.491, 208.452 1112.721, 211 1113.890 C 213.498 1115.037, 217.613 1115.966, 220.250 1115.978 C 222.863 1115.990, 225 1116.418, 225 1116.929 C 225 1119.668, 228.232 1120.990, 233.433 1120.379 C 238.420 1119.793, 238.832 1119.917, 240.612 1122.552 C 243.986 1127.546, 248.586 1131.218, 254.462 1133.609 C 262.641 1136.936, 265.457 1134.923, 271.339 1121.539 L 274.837 1113.578 272.419 1109.451 C 269.422 1104.337, 269.435 1101.363, 272.519 1087.500 L 274.966 1076.500 272.375 1074.205 C 270.458 1072.507, 269.913 1071.237, 270.279 1069.323 C 270.688 1067.179, 269.696 1065.659, 264.483 1060.446 C 260.559 1056.522, 257.934 1052.974, 257.503 1051.014 C 257.075 1049.064, 255.885 1047.449, 254.368 1046.758 C 252.662 1045.980, 252.138 1045.169, 252.634 1044.072 C 253.026 1043.207, 253.606 1039.306, 253.923 1035.402 C 254.741 1025.338, 257.431 1022.636, 261.898 1027.391 C 264.075 1029.709, 264.265 1029.735, 268.072 1028.240 C 270.899 1027.129, 272.002 1026.109, 272.007 1024.598 C 272.015 1021.763, 274.371 1018.441, 281.500 1011.213 L 287.500 1005.129 289.604 1007.750 L 291.707 1010.370 295.480 1008.144 C 298.814 1006.177, 299.441 1006.089, 300.876 1007.381 C 301.769 1008.186, 303.850 1009.181, 305.500 1009.593 C 307.159 1010.007, 310.774 1012.708, 313.587 1015.635 C 318.325 1020.566, 318.977 1020.917, 323.087 1020.755 C 325.514 1020.660, 328.198 1020.914, 329.050 1021.321 C 330.194 1021.867, 331.056 1021.107, 332.336 1018.421 C 333.846 1015.254, 334.425 1014.853, 336.786 1015.334 C 338.279 1015.639, 342.276 1015.392, 345.668 1014.786 C 351.641 1013.719, 351.937 1013.769, 354.995 1016.342 C 360.752 1021.187, 376.748 1019.518, 380.424 1013.689 C 381.714 1011.644, 376.448 1005.828, 370.558 1002.794 L 366.615 1000.763 371.058 998.632 C 375.566 996.468, 376.273 994.864, 374.528 990.750 C 373.916 989.305, 374.314 989, 376.811 989 C 383.665 989, 384.782 986.471, 380.103 981.548 C 378.510 979.871, 376.912 977.093, 376.551 975.373 L 375.895 972.247 383.698 972.350 C 389.976 972.432, 392.434 971.997, 396.283 970.121 C 399.705 968.453, 401.994 967.964, 404.330 968.402 C 407.144 968.930, 408.062 968.532, 410.993 965.507 C 414.389 962.003, 414.400 962, 423.500 962 C 431.868 962, 432.987 961.760, 437.259 959.051 C 444.100 954.712, 449.092 953.594, 453.461 955.419 C 458.054 957.338, 459.728 960.829, 458.026 964.937 C 455.951 969.948, 457.197 971.364, 463.004 970.594 C 466.581 970.119, 468.803 970.364, 470.937 971.467 C 472.567 972.310, 474.828 973, 475.962 973 C 477.820 973, 477.958 973.410, 477.359 977.156 L 476.695 981.311 482.433 980.637 C 488.471 979.927, 492.774 978.182, 494.949 975.562 C 496.096 974.179, 507.156 967, 508.138 967 C 508.345 967, 508.354 969.018, 508.158 971.484 C 507.838 975.509, 508.295 976.659, 512.629 982.734 C 515.285 986.455, 518.873 991.075, 520.603 993 C 526.161 999.186, 529 1004.135, 529 1007.640 C 529 1012.458, 531.954 1015.160, 535.965 1014.010 C 538.545 1013.270, 539.416 1013.507, 541.396 1015.487 C 543.366 1017.457, 544.315 1017.718, 547.164 1017.076 C 549.236 1016.608, 553.920 1016.890, 559.108 1017.795 L 567.642 1019.283 569.823 1024.038 C 571.023 1026.654, 573.362 1030.246, 575.020 1032.022 C 578.138 1035.359, 579.934 1035.539, 588.599 1033.382 C 590.224 1032.977, 590.978 1033.532, 591.931 1035.833 C 593.945 1040.695, 598.511 1040.909, 607.320 1036.557 C 611.279 1034.601, 615.248 1033, 616.140 1033 C 617.033 1033, 618.879 1031.537, 620.243 1029.750 C 622.479 1026.819, 635.234 1019.584, 641.701 1017.579 C 644.888 1016.591, 655 1021.370, 655 1023.864 C 655 1026.582, 656.680 1027.513, 663.903 1028.797 C 667.424 1029.423, 672.661 1030.912, 675.539 1032.105 C 682.272 1034.895, 685.096 1034.180, 688.821 1028.742 C 693.321 1022.172, 693.522 1020.567, 690.496 1015.403 C 687.419 1010.153, 687.606 1009.165, 692.361 1005.539 C 695.636 1003.040, 696.019 1002.966, 698.217 1004.406 C 699.510 1005.254, 703.679 1006.388, 707.482 1006.926 C 715.997 1008.132, 718.662 1010.016, 722.500 1017.542 C 725.320 1023.071, 725.799 1023.499, 730.493 1024.670 C 740.004 1027.044, 745.359 1027.295, 749.513 1025.559 C 753.194 1024.021, 753.616 1024.041, 757.450 1025.927 C 777.638 1035.859, 788.500 1039.066, 795.176 1037.065 C 797.474 1036.377, 803.972 1035.484, 809.615 1035.081 C 820.840 1034.280, 821.607 1033.914, 825.720 1027.404 C 829.050 1022.134, 828.663 1022.177, 835.231 1026.342 C 841.503 1030.320, 850.155 1032.134, 858 1031.115 C 865.559 1030.133, 867.546 1028.785, 869.575 1023.261 C 873.152 1013.525, 874.012 1011.822, 877.508 1007.555 C 883.832 999.838, 884.832 992.084, 879.891 989.080 L 876.782 987.189 879.251 985.571 C 884.146 982.364, 891.944 981.492, 899.271 983.332 C 902.923 984.249, 907.116 985, 908.589 985 C 912.524 985, 918.763 987.071, 920.350 988.903 C 921.110 989.782, 923.331 995.326, 925.285 1001.224 C 927.984 1009.372, 929.842 1013.140, 933.017 1016.905 C 936.948 1021.568, 937.175 1022.176, 936.848 1027.181 L 936.500 1032.500 942.548 1033 C 949.190 1033.549, 951.942 1034.995, 959.114 1041.704 C 963.184 1045.510, 963.861 1046.734, 964.433 1051.309 C 965.117 1056.787, 966.119 1057.655, 976.246 1061.541 C 977.511 1062.026, 979.401 1060.705, 983.240 1056.649 C 987.181 1052.486, 989.440 1050.928, 992.250 1050.435 C 996.772 1049.642, 996.841 1050.061, 993.500 1058 C 992.069 1061.400, 991 1065.887, 991 1068.493 C 991 1071.341, 989.825 1075.845, 987.861 1080.523 L 984.723 1088 979.426 1088 C 971.991 1088, 969.180 1089.324, 967.358 1093.686 C 965.958 1097.036, 965.963 1097.698, 967.406 1100.726 C 969.757 1105.655, 969.388 1108.222, 965.500 1114 C 961.313 1120.222, 961.267 1120.599, 964.584 1121.432 C 966.639 1121.947, 967.953 1121.371, 970.996 1118.623 C 976.580 1113.578, 978.549 1112.701, 980.940 1114.194 C 983.295 1115.665, 987.714 1114.678, 1000.028 1109.929 C 1009.683 1106.206, 1012.763 1102.502, 1020.080 1085.818 C 1024.513 1075.708, 1025.764 1073.847, 1033.347 1066.078 C 1044.099 1055.061, 1044.319 1054.580, 1049.523 1030.671 C 1051.938 1019.575, 1054.608 1008.528, 1055.457 1006.122 C 1057.571 1000.130, 1057.407 998.497, 1054.500 996.592 C 1053.125 995.691, 1052 994.577, 1052 994.116 C 1052 993.656, 1053.125 991.621, 1054.500 989.595 C 1055.875 987.569, 1057 985.488, 1057 984.970 C 1057 984.453, 1053.245 980.198, 1048.656 975.515 C 1038.243 964.889, 1036.804 964.643, 1031 972.500 C 1028.765 975.525, 1026.614 977.998, 1026.218 977.996 C 1025.383 977.992, 1022.401 970.867, 1021.407 966.500 C 1020.345 961.833, 1019.172 961.001, 1013.628 960.985 C 1005.990 960.962, 1004.698 959.631, 1008.850 956.064 C 1010.693 954.482, 1014.149 952.696, 1016.531 952.097 C 1019.717 951.294, 1021.774 949.883, 1024.316 946.753 C 1029.668 940.165, 1036.079 929.796, 1036.700 926.723 C 1037.063 924.923, 1039.905 921.582, 1044.782 917.223 C 1048.919 913.525, 1055.451 906.736, 1059.297 902.136 C 1068.744 890.837, 1072.820 888.361, 1083.433 887.477 C 1090.447 886.893, 1092.159 887.058, 1094.416 888.537 C 1096.630 889.988, 1097.482 890.080, 1099.362 889.074 C 1101.221 888.079, 1103.145 888.234, 1109.954 889.929 C 1120.874 892.647, 1120.974 892.635, 1125.395 888.108 C 1128.811 884.609, 1129.515 884.298, 1132.348 885.034 C 1134.082 885.485, 1138.200 886.398, 1141.500 887.062 C 1148.013 888.374, 1147.148 889.791, 1139.750 889.930 C 1135.092 890.017, 1134.634 892.628, 1138.750 895.629 C 1143.214 898.885, 1144.763 899.060, 1150.410 896.948 C 1154.836 895.292, 1156.228 895.147, 1158.361 896.119 C 1160.553 897.117, 1161.827 896.913, 1166.724 894.780 C 1169.901 893.395, 1173.287 891.993, 1174.250 891.663 C 1178.603 890.171, 1173.969 887, 1167.435 887 C 1162.714 887, 1163.089 885.919, 1169.750 880.327 C 1176.731 874.466, 1177.808 873.211, 1178.610 870 C 1178.953 868.625, 1184.244 862.422, 1190.367 856.215 C 1200.208 846.240, 1202.132 844.746, 1206.942 843.338 L 1212.385 841.746 1214.639 844.367 C 1216.886 846.979, 1216.887 847.002, 1215.048 851.244 C 1212.829 856.364, 1212.450 867, 1214.486 867 C 1217.164 867, 1228.649 859.725, 1233.531 854.935 C 1236.299 852.221, 1239.041 850, 1239.626 850 C 1242.697 850, 1244.291 846.061, 1243.661 840.029 C 1243.041 834.099, 1243.068 834.016, 1246.110 832.443 C 1247.802 831.568, 1249.319 830.998, 1249.483 831.176 C 1249.646 831.354, 1248.911 834.650, 1247.849 838.500 C 1246.787 842.350, 1245.446 848.425, 1244.869 852 C 1242.940 863.945, 1242.832 864.167, 1237.479 867.279 C 1229.514 871.909, 1216.223 885.994, 1201.240 905.682 C 1195.324 913.457, 1194.870 913.823, 1192.141 913.040 C 1187.759 911.784, 1186.253 913.182, 1187.741 917.124 C 1188.902 920.201, 1188.761 920.564, 1184.443 925.618 C 1178.607 932.449, 1176.192 938.058, 1175.411 946.596 C 1174.718 954.164, 1176.793 970.180, 1180.128 983 C 1181.631 988.776, 1181.929 992.155, 1181.427 997.697 C 1180.764 1005.011, 1182.219 1014.399, 1184.206 1015.627 C 1185.535 1016.448, 1200.038 1000.764, 1202.159 996.213 C 1203.164 994.054, 1203.610 991.369, 1203.289 989.394 C 1202.710 985.823, 1203.668 985.388, 1213.492 984.757 C 1218.333 984.445, 1219.101 982.408, 1215.972 978.176 C 1213.554 974.906, 1214.267 972.486, 1219.780 965.233 C 1222.137 962.132, 1222.506 961.998, 1227.034 962.599 C 1231.184 963.149, 1231.949 962.965, 1232.903 961.182 C 1234.329 958.517, 1234.300 954.432, 1232.836 951.684 C 1231.818 949.773, 1231.864 949.658, 1233.204 950.762 C 1235.516 952.669, 1236.543 950.763, 1238.459 941 C 1239.376 936.325, 1241.005 929.206, 1242.079 925.180 C 1244.265 916.986, 1244.019 915.827, 1240.175 916.224 C 1235.917 916.663, 1235.893 910.114, 1240.122 901.828 C 1242.460 897.246, 1243.510 893.598, 1243.926 888.606 L 1244.500 881.713 1248.982 880.393 C 1252.792 879.272, 1253.796 879.291, 1255.676 880.523 C 1257.763 881.891, 1258.097 881.718, 1261.585 877.461 C 1265.867 872.236, 1266.361 872.215, 1264.792 877.326 C 1262.501 884.790, 1268.618 884.486, 1275.571 876.790 C 1279.814 872.094, 1282.921 871.002, 1289.293 871.969 C 1294.695 872.788, 1298 875.304, 1298 878.596 C 1298 882.026, 1300.072 882.675, 1302.211 879.914 C 1303.240 878.586, 1305.888 875.118, 1308.097 872.208 C 1313.294 865.359, 1325.675 855.608, 1336.188 850.083 C 1340.760 847.680, 1346.753 844.047, 1349.506 842.009 C 1357.723 835.927, 1360.358 834.915, 1367.471 835.110 C 1380.245 835.462, 1385.249 828.514, 1379.149 818.896 C 1377.581 816.423, 1375.973 812.667, 1375.575 810.549 C 1374.879 806.837, 1373.465 805.092, 1366.112 798.865 C 1364.400 797.416, 1363 795.279, 1363 794.115 C 1363 792.198, 1363.558 792, 1368.963 792 C 1375.110 792, 1383.957 789.232, 1387.230 786.284 C 1389.736 784.027, 1390.445 778.568, 1389.046 772.314 C 1387.871 767.066, 1387.927 766.713, 1390.516 762.977 C 1391.996 760.842, 1394.285 758.388, 1395.603 757.524 C 1397.899 756.020, 1398 756.053, 1398 758.320 C 1398 759.622, 1397.083 763.345, 1395.963 766.593 C 1394.842 769.842, 1394.054 773.625, 1394.213 775 C 1394.532 777.779, 1396.812 778.065, 1406.268 776.508 C 1412.134 775.542, 1414.284 777.099, 1415.890 783.477 C 1416.493 785.871, 1418.188 789.258, 1419.657 791.004 C 1422.085 793.890, 1422.700 794.122, 1426.431 793.563 C 1430.438 792.962, 1430.621 793.064, 1434.286 797.974 C 1436.502 800.941, 1438.820 803, 1439.947 803 C 1442.514 803, 1447.788 796.442, 1449.196 791.500 C 1449.823 789.300, 1451.385 786.350, 1452.668 784.945 C 1455.248 782.119, 1455.609 780.009, 1453.817 778.217 C 1451.996 776.396, 1453.173 776.021, 1457.528 777.037 C 1462.181 778.122, 1463.819 776.664, 1468.629 767.157 L 1471.416 761.649 1467.958 759.074 C 1466.056 757.658, 1461.251 753.125, 1457.280 749 L 1450.060 741.500 1442.780 741.500 L 1435.500 741.500 1435.857 745.961 C 1436.167 749.840, 1436.017 750.259, 1434.708 749.173 C 1432.885 747.659, 1428 734.814, 1428 731.532 C 1428 728.712, 1419.603 720.118, 1414.169 717.377 C 1406.910 713.715, 1388.369 701.458, 1382 696.110 C 1369.081 685.264, 1337.119 673.717, 1325.156 675.574 C 1322.282 676.020, 1319.829 675.365, 1313.683 672.510 C 1309.384 670.512, 1305.399 669.034, 1304.827 669.224 C 1304.256 669.415, 1302.709 672.224, 1301.390 675.466 C 1299 681.339, 1298.999 681.370, 1300.962 683.459 C 1302.046 684.613, 1303.630 687.534, 1304.483 689.951 C 1306.004 694.262, 1305.982 694.418, 1303.350 698.216 C 1301.875 700.345, 1300.358 702.279, 1299.979 702.513 C 1297.172 704.248, 1291.059 688.770, 1291.017 679.821 C 1290.995 675.139, 1288.641 672.624, 1285.106 673.506 C 1278.486 675.157, 1273.288 680.688, 1275.901 683.301 C 1277.902 685.302, 1277.094 687, 1274.141 687 C 1272.569 687, 1266.430 685.200, 1260.500 683 C 1247.768 678.277, 1246.524 678.194, 1239.762 681.620 C 1231.408 685.854, 1218.872 683.696, 1211.250 676.713 C 1208.280 673.991, 1208.406 672.746, 1212.077 668.565 C 1216.018 664.076, 1215.551 662.597, 1207.654 654.554 C 1197.878 644.596, 1192.355 642.548, 1182.967 645.398 C 1180.473 646.155, 1174.173 647.327, 1168.967 648.003 C 1163.180 648.754, 1158.109 650.031, 1155.922 651.289 C 1151.184 654.014, 1150.152 653.451, 1143.580 644.564 C 1140.502 640.403, 1134.500 633.449, 1130.242 629.111 C 1125.984 624.773, 1120.194 618.652, 1117.375 615.510 C 1112.856 610.473, 1112.005 609.927, 1110.190 610.898 C 1109.058 611.504, 1104.727 612, 1100.566 612 C 1093.696 612, 1093 611.818, 1093 610.023 C 1093 606.826, 1089.190 605.232, 1077.500 603.536 C 1071.450 602.659, 1063.672 601.012, 1060.214 599.877 C 1052.804 597.444, 1051 597.849, 1051 601.946 C 1051 605.398, 1048.345 607.600, 1042.948 608.626 C 1038.332 609.503, 1037 610.710, 1037 614.014 C 1037 616.134, 1037.586 616.930, 1039.500 617.411 C 1042.325 618.120, 1042.612 619.607, 1040.468 622.441 C 1038.716 624.757, 1038.590 628.524, 1040.116 632.902 C 1041.684 637.402, 1040.752 637.708, 1034.738 634.665 C 1027.050 630.775, 1021 631.165, 1021 635.552 L 1021 637.889 1015.710 635.467 C 1009.338 632.550, 1005.037 633.265, 1000.506 637.994 C 996.566 642.106, 995.757 641.893, 988.359 634.789 C 979.865 626.633, 979.160 627.100, 971.620 645.873 L 968.258 654.245 960.523 643.873 C 950.674 630.666, 947.227 623.512, 949.500 621 C 951.630 618.647, 952.484 612.772, 951.078 610.146 C 950.179 608.466, 950.287 607.346, 951.589 604.828 C 952.862 602.365, 953.092 600.198, 952.593 595.331 C 951.746 587.069, 951.258 586, 948.327 586 C 944.611 586, 942.356 584.406, 939.905 580.045 C 937.388 575.566, 935.679 574.566, 932.993 576.004 C 929.781 577.723, 926.988 577.115, 920.940 573.382 C 914.248 569.251, 912.623 569.317, 906.189 573.978 L 902 577.013 901.997 586.256 L 901.994 595.500 890.112 595.500 C 878.770 595.500, 878.141 595.391, 876.280 593.095 C 875.208 591.772, 873.469 590.627, 872.415 590.549 C 871.361 590.471, 869.037 589.544, 867.249 588.488 C 864.317 586.756, 864 586.111, 864 581.868 L 864 577.167 855.126 575.083 C 843.317 572.311, 839.002 572.450, 828.688 575.937 C 823.909 577.552, 819.964 578.789, 819.920 578.687 C 819.875 578.584, 819.313 576.475, 818.670 574 L 817.500 569.500 811.251 569.846 C 805.917 570.141, 804.336 569.801, 800.455 567.526 C 795.607 564.685, 792.491 564.713, 786.750 567.646 C 783.203 569.459, 783.275 571.088, 787.028 573.862 C 790.739 576.606, 790.366 577.282, 783.125 580.937 C 774.938 585.070, 767.224 587.077, 763.010 586.172 L 759.520 585.422 763.510 581.325 C 765.705 579.072, 769.397 576.276, 771.716 575.111 C 774.035 573.947, 776.998 571.425, 778.301 569.508 C 779.604 567.591, 782.558 564.654, 784.865 562.982 C 787.606 560.998, 789.265 558.923, 789.649 557.003 C 790.084 554.832, 792.178 552.603, 797.657 548.479 C 805.310 542.719, 814.761 532.099, 818.807 524.712 C 820.642 521.362, 820.996 519.553, 820.539 515.871 C 820.034 511.811, 820.211 511.178, 821.982 510.715 C 823.289 510.373, 823.994 509.362, 823.983 507.844 C 823.951 503.550, 821.067 491.752, 819.445 489.275 C 817.928 486.960, 817.745 486.921, 815.969 488.528 C 814.182 490.145, 814.067 490.091, 813.510 487.362 C 811.394 477.012, 807.337 474.063, 793.712 472.972 C 787.722 472.492, 781.841 471.452, 780.136 470.570 C 776.042 468.453, 774.444 469.342, 772.987 474.545 C 771.597 479.511, 770.676 480.541, 766.744 481.528 C 764.159 482.177, 764 482.022, 764 478.852 C 764 473.982, 765.634 469.018, 768.103 466.391 C 771.811 462.443, 770.082 461, 761.642 461 C 755.858 461, 753.707 460.584, 751.890 459.112 L 749.558 457.224 753.279 452.448 C 757.325 447.255, 757.482 446.770, 756.013 444.024 C 754.121 440.490, 741.060 435, 734.543 435 C 733.831 435, 730.155 439.316, 726.374 444.591 M 726.771 448.745 C 722.526 454.738, 718.141 460.467, 717.027 461.476 C 714.581 463.689, 714.486 466.135, 716.602 472.346 C 719.450 480.704, 715.904 485, 706.157 485 C 698.519 485, 696 485.976, 696 488.934 C 696 492.412, 694.677 493.976, 688.013 498.377 C 684.628 500.612, 681.321 502, 679.378 502 C 674.381 502, 666.118 498.947, 665.454 496.855 C 664.493 493.828, 662.686 494.584, 649.586 503.500 C 638.216 511.238, 636.666 512.001, 632.298 512.010 C 624.517 512.026, 610.146 521.124, 597.617 533.969 L 587.733 544.100 588.293 548.800 C 588.601 551.385, 590.007 555.975, 591.417 559 C 596.074 568.991, 595.019 570.629, 583.045 571.995 C 577.005 572.684, 573.517 573.699, 569.685 575.885 C 564.265 578.977, 550.366 583, 545.102 583 C 541.266 583, 540.494 585.428, 541.295 594.979 C 541.664 599.378, 541.469 602.131, 540.736 602.864 C 539.901 603.699, 541.357 605.738, 546.361 610.745 C 550.073 614.460, 554.099 619.257, 555.306 621.404 C 556.513 623.551, 558.288 625.689, 559.250 626.154 C 564.883 628.877, 564.500 627.540, 564.500 644.486 C 564.500 661.357, 564.198 662.323, 559.589 660.222 C 558.332 659.650, 556.064 656.810, 554.549 653.911 L 551.792 648.640 553.539 642.872 C 556 634.742, 554.405 630.514, 549.242 631.482 C 546.008 632.089, 545.416 631.739, 539.648 625.805 C 536.267 622.327, 532.727 618.485, 531.783 617.268 C 530.839 616.051, 528.814 614.780, 527.283 614.444 C 525.752 614.108, 523.031 613.090, 521.235 612.181 C 514.590 608.819, 511.846 614.171, 517.297 619.861 C 521.281 624.020, 522.835 627.866, 520.993 629.004 C 519.242 630.086, 510.549 627.577, 507.362 625.070 C 505.271 623.425, 504.470 623.232, 503.843 624.220 C 502.073 627.010, 503.237 629.616, 508.552 634.764 C 518.637 644.532, 518.077 647.548, 506.381 646.467 C 495.176 645.431, 494.370 644.985, 492.538 638.818 C 490.907 633.325, 491.161 631.672, 496.091 615.644 C 497.542 610.929, 490.379 595, 486.809 595 C 485.270 595, 486.013 597.345, 489.051 602.080 C 491.432 605.789, 492.231 608.371, 492.688 613.821 L 493.274 620.807 490.150 622.422 C 478.085 628.661, 474.740 637.511, 480.806 647.145 C 487.234 657.355, 487.494 659.486, 483.952 673 C 481.609 681.939, 480.927 693.327, 482.632 695.032 C 483.309 695.709, 485.752 695.495, 490.070 694.383 C 498.887 692.112, 503.451 693.422, 510.737 700.313 C 519.362 708.470, 520.888 712.878, 516.510 716.991 C 512.794 720.482, 509.782 718.661, 505.987 710.629 C 502.046 702.288, 501.066 701.493, 496.558 702.981 C 494.623 703.620, 492.576 703.856, 492.011 703.507 C 487.115 700.481, 484.424 710.364, 488.040 718.086 C 490.911 724.215, 490.191 728.214, 484.965 735.170 C 482.096 738.988, 480.999 741.421, 480.996 743.973 C 480.990 750.031, 477.816 753.753, 469.304 757.686 C 459.027 762.434, 451.066 761.095, 449.369 754.333 C 448.359 750.311, 450.030 748.713, 457.908 746.168 C 462.225 744.773, 465.357 743.166, 465.702 742.168 C 466.020 741.251, 467.514 737.575, 469.024 734 C 470.534 730.425, 472.074 725.365, 472.445 722.755 C 472.855 719.878, 474.132 716.808, 475.690 714.957 L 478.259 711.904 476.177 709.688 C 471.971 705.212, 471.183 701.314, 470.980 683.989 C 470.869 674.521, 471.239 666.077, 471.850 664.158 C 473.520 658.907, 471.657 651.193, 467.887 647.749 C 464.140 644.327, 464.222 642.363, 468.865 624.500 C 473.570 606.398, 472.941 603.407, 463.911 600.976 C 459.937 599.906, 445.753 600.914, 444.297 602.370 C 444.003 602.663, 442.954 608.438, 441.965 615.202 C 439.346 633.119, 439.546 632.657, 430.817 641 L 422.970 648.500 425.559 652.130 L 428.148 655.759 426.550 664.630 C 425.672 669.508, 424.694 674.693, 424.379 676.152 C 423.928 678.234, 424.245 678.943, 425.858 679.455 C 428.962 680.440, 433 685.798, 433 688.931 C 433 691.585, 435.093 694.447, 439.773 698.192 C 440.936 699.123, 442.183 701.459, 442.544 703.384 C 443.136 706.538, 442.831 707.212, 439.468 710.192 C 433.797 715.217, 433.259 715.374, 430.749 712.742 C 429.512 711.445, 426.700 709.071, 424.500 707.466 C 422.300 705.861, 417.350 702.025, 413.500 698.942 C 409.650 695.859, 404.025 692.405, 401 691.266 C 397.975 690.127, 392.800 688.091, 389.500 686.742 C 386.200 685.392, 379.949 683.030, 375.609 681.492 C 371.270 679.953, 366.995 677.771, 366.109 676.643 C 362.857 672.496, 358.170 668, 357.100 668 C 354.570 668, 356.004 674.116, 359.223 677.056 C 360.995 678.675, 362.716 680, 363.046 680 C 364.355 680, 372.877 693.742, 373.900 697.500 C 376.094 705.562, 375.590 707, 370.567 707 C 366.839 707, 366.026 707.358, 365.452 709.250 C 364.592 712.087, 361.061 716, 359.361 716 C 357.660 716, 356 712.789, 356 709.500 C 356 703.166, 352.829 701.416, 348.924 705.595 C 345.096 709.693, 341.623 711, 334.562 711 L 328.025 711 325.475 715.039 C 322.741 719.371, 320.881 720.405, 314.302 721.254 C 307.307 722.157, 306.141 720.518, 308.813 713.538 C 311.404 706.765, 311.520 705.137, 309.463 704.347 C 306.692 703.284, 304 706.900, 304 711.686 C 304 717.213, 301.667 718.555, 298.585 714.804 L 296.500 712.267 288.865 719.633 C 282.971 725.319, 280.572 727, 278.347 727 C 276.761 727, 273.843 728.102, 271.861 729.449 C 269.879 730.795, 267.148 732.176, 265.793 732.516 C 263.692 733.043, 263.162 734.029, 262.203 739.183 C 260.830 746.567, 258.743 750, 255.626 750 C 251.736 750, 246.693 747.854, 242.921 744.594 C 240.952 742.892, 238.524 741.031, 237.525 740.457 C 235.929 739.540, 235.851 738.982, 236.883 735.854 C 238.669 730.443, 242.292 727.547, 247.039 727.736 C 249.218 727.823, 251 727.735, 251 727.540 C 251 725.932, 244.847 714.120, 243.285 712.729 C 241.299 710.961, 228 708.647, 228 710.070 C 228 710.461, 228.890 712.743, 229.978 715.141 C 232.474 720.641, 232.466 722.940, 229.924 731 C 227.528 738.599, 227.951 742.295, 231.660 746.167 C 233.974 748.583, 234.210 749.449, 233.656 753.494 C 232.477 762.098, 230.610 763.406, 223.654 760.500 C 219.287 758.675, 212.949 758.552, 210.802 760.250 C 209.932 760.938, 208.455 763.166, 207.519 765.203 C 206.297 767.861, 204.846 769.226, 202.373 770.042 C 195.700 772.244, 193.283 781.137, 197.005 789.791 C 198.209 792.589, 198.899 795.355, 198.538 795.939 C 196.873 798.633, 188.099 796.022, 179.143 790.166 C 174.254 786.970, 163.667 784, 162.242 785.425 C 161.970 785.697, 166.150 790.279, 171.531 795.608 C 180.601 804.590, 181.180 805.395, 179.466 806.648 C 176.818 808.585, 175.163 808.366, 167 805 C 162.999 803.350, 158.507 802, 157.017 802 C 153.461 802, 151.451 799.624, 149.013 792.538 C 146.735 785.916, 146.493 783.396, 147.512 776.885 C 148.210 772.426, 148.040 771.989, 142.425 763.885 C 139.230 759.273, 134.902 753.413, 132.808 750.861 C 125.553 742.024, 128.288 741.286, 141.965 748.392 C 147.905 751.479, 158.663 756.024, 165.870 758.493 L 178.975 762.981 184.237 761.049 C 187.132 759.987, 191.195 758.814, 193.268 758.444 C 197.829 757.629, 200.458 754.565, 202.502 747.681 C 204.832 739.837, 204.497 738.154, 199.698 733.591 C 197.332 731.341, 194.215 727.885, 192.771 725.912 C 191.135 723.676, 187.386 720.890, 182.823 718.518 C 177.384 715.691, 173.442 712.550, 167.500 706.309 L 159.500 697.907 148 694.934 C 133.932 691.297, 127 688.313, 127 685.896 C 127 684.928, 127.900 683.849, 129 683.500 C 133.262 682.147, 131.314 679.705, 126.413 680.257 C 120.862 680.883, 120.103 681.558, 119.309 686.586 C 118.557 691.349, 117.225 692.377, 114.295 690.458 C 111.514 688.635, 111 688.633, 111 690.443 C 111 691.237, 109.619 692.700, 107.932 693.693 C 104.463 695.736, 99.077 703.284, 98.849 706.421 C 98.454 711.869, 99.393 714.705, 102.846 718.493 C 104.856 720.697, 107.388 724.184, 108.473 726.242 L 110.446 729.984 106.850 737.253 L 103.253 744.521 107.100 756.510 C 110.786 767.998, 110.898 768.741, 109.770 774.265 C 108.865 778.701, 108.868 781.056, 109.782 784.473 C 110.435 786.916, 110.691 789.642, 110.350 790.530 C 109.998 791.448, 110.662 793.404, 111.888 795.063 C 115.106 799.414, 115.569 803.412, 113.411 808.198 L 111.555 812.313 119.284 819.407 C 127.974 827.383, 128.552 829.147, 123.917 833.563 C 122.222 835.178, 118.349 840.550, 115.311 845.500 C 112.274 850.450, 107.115 857.233, 103.848 860.574 L 97.907 866.647 100.423 869.574 C 113.709 885.031, 113.082 883.918, 110.149 886.851 C 109.097 887.903, 106.047 889.001, 103.090 889.394 C 98.563 889.994, 97.623 890.525, 95.895 893.453 C 94.802 895.306, 93.192 897.096, 92.317 897.432 C 90.994 897.939, 90.861 898.923, 91.528 903.271 C 92.380 908.825, 93.053 920.203, 93.331 933.752 L 93.500 942.004 97 942.595 C 98.925 942.921, 101.792 944.099, 103.372 945.213 C 105.950 947.032, 106.637 947.110, 110.089 945.971 C 116.140 943.974, 119.947 949.433, 118.496 958.026 C 117.840 961.906, 118.018 962.228, 125.269 970.256 C 134.163 980.102, 135.635 982.530, 133.947 984.564 C 132.409 986.417, 129.648 986.386, 125.950 984.474 C 122.397 982.637, 122.064 983.824, 124.500 989.654 C 125.325 991.629, 126 993.977, 126 994.872 C 125.999 996.249, 127.318 996.500, 134.555 996.500 C 142.494 996.500, 143.251 996.680, 145.059 999 C 146.301 1000.592, 146.808 1002.360, 146.456 1003.868 C 145.780 1006.760, 148.421 1010, 151.452 1010 C 152.931 1010, 154.663 1011.625, 157.047 1015.250 C 159.955 1019.671, 160.919 1020.451, 163.152 1020.191 C 165.003 1019.976, 166.284 1020.567, 167.393 1022.151 C 168.635 1023.924, 169.245 1024.155, 170.191 1023.209 C 172.337 1021.063, 175.828 1021.848, 178.158 1025 C 179.977 1027.460, 181.107 1028.007, 184.438 1028.038 C 187.573 1028.067, 189.399 1028.844, 192.440 1031.447 L 196.380 1034.819 195.062 1038.811 C 194.186 1041.467, 193.980 1044.684, 194.447 1048.423 L 195.149 1054.042 189.760 1056.509 C 184.846 1058.759, 183.752 1059.923, 177.326 1069.738 C 171.724 1078.297, 166 1088.795, 166 1090.514 C 166 1090.656, 167.958 1091.067, 170.352 1091.426 C 173.413 1091.885, 175.057 1092.739, 175.896 1094.306 C 176.552 1095.531, 179.544 1098.313, 182.544 1100.487 C 185.545 1102.661, 188 1104.736, 188 1105.098 C 188 1106.357, 193.539 1107.839, 200.276 1108.383 C 204.003 1108.684, 209.123 1109.845, 211.653 1110.965 C 214.184 1112.084, 218.190 1113, 220.556 1113 C 224.634 1113, 228 1114.845, 228 1117.080 C 228 1117.627, 230.276 1117.750, 233.466 1117.375 C 238.846 1116.743, 238.990 1116.794, 242.565 1120.616 C 244.563 1122.752, 247.124 1125.482, 248.255 1126.681 C 249.386 1127.881, 252.494 1129.770, 255.162 1130.878 L 260.012 1132.894 262.575 1130.689 C 263.986 1129.476, 266.610 1125.143, 268.408 1121.060 L 271.677 1113.636 269.351 1109.568 C 266.443 1104.484, 266.458 1102.169, 269.489 1088.500 L 271.927 1077.500 269.464 1075.462 C 267.722 1074.022, 267 1072.422, 267 1070 C 267 1067.139, 266.080 1065.705, 261.423 1061.300 C 258.057 1058.118, 255.479 1054.697, 254.920 1052.672 C 254.337 1050.563, 253.027 1048.878, 251.388 1048.131 C 249.294 1047.177, 248.924 1046.506, 249.507 1044.722 C 249.906 1043.500, 250.543 1039.111, 250.923 1034.968 C 251.712 1026.345, 252.078 1025.531, 256.331 1022.945 L 259.444 1021.052 262.128 1023.623 C 265.019 1026.392, 269 1026.227, 269 1023.337 C 269 1020.987, 272.686 1016.162, 280.141 1008.750 C 287.780 1001.157, 288.119 1001.020, 290.667 1004.514 L 292.500 1007.027 296.143 1004.550 L 299.787 1002.073 302.445 1004.536 C 303.907 1005.891, 305.960 1007, 307.007 1007 C 308.054 1007, 311.393 1009.423, 314.426 1012.385 C 319.658 1017.493, 320.200 1017.766, 324.964 1017.694 C 328.891 1017.635, 330.112 1017.224, 330.561 1015.808 C 331.333 1013.375, 334.609 1011.741, 337.117 1012.537 C 338.241 1012.894, 342.025 1012.616, 345.527 1011.920 C 351.761 1010.680, 351.974 1010.710, 355.751 1013.327 C 360.369 1016.527, 370.020 1017.075, 375.139 1014.428 C 378.125 1012.884, 378.146 1012.819, 376.340 1010.782 C 375.328 1009.641, 372.137 1007.185, 369.250 1005.323 C 362.574 1001.019, 362.408 998.880, 368.566 996.528 C 372.137 995.164, 372.975 994.427, 372.413 993.142 C 370.361 988.452, 371.306 986.514, 375.801 986.190 L 380.102 985.880 377.051 982.405 C 375.373 980.494, 374 978.208, 374 977.325 C 374 976.443, 373.252 975.173, 372.338 974.505 C 371.353 973.785, 370.932 972.619, 371.306 971.645 C 371.824 970.296, 373.476 970, 380.499 970 C 387.436 970, 390.215 969.514, 395.149 967.437 C 398.498 966.028, 402.473 965.004, 403.981 965.162 C 405.927 965.366, 407.831 964.478, 410.536 962.103 C 414.302 958.796, 414.434 958.763, 421.481 959.402 C 428.396 960.029, 428.856 959.926, 436.557 956.029 C 446.538 950.977, 453.095 950.526, 457.889 954.560 C 461.229 957.371, 463.039 963.361, 461.125 965.275 C 459.019 967.381, 459.992 968.177, 463.873 967.521 C 466.460 967.084, 469.003 967.392, 471.532 968.449 C 473.854 969.419, 476.566 969.797, 478.545 969.426 C 482.602 968.664, 483.535 970.064, 481.541 973.921 C 479.363 978.132, 479.508 978.334, 484.163 977.590 C 486.845 977.161, 490.487 975.300, 494.398 972.360 C 501.430 967.074, 508.959 963.088, 510.727 963.716 C 511.598 964.025, 511.783 965.797, 511.366 969.826 C 510.789 975.389, 510.872 975.628, 515.549 982 C 518.173 985.575, 522.093 990.525, 524.261 993 C 529.117 998.546, 530.915 1001.933, 531.867 1007.326 C 532.637 1011.687, 532.815 1011.772, 538.551 1010.504 C 541.168 1009.926, 541.765 1010.189, 542.754 1012.360 C 543.768 1014.585, 544.345 1014.818, 547.549 1014.298 C 551.888 1013.594, 567.868 1015.909, 569.182 1017.431 C 569.689 1018.019, 571.786 1021.425, 573.841 1025 C 577.925 1032.104, 577.586 1031.967, 588.389 1030.888 C 591.851 1030.543, 592.462 1030.829, 593.963 1033.500 C 596.268 1037.603, 599.619 1037.784, 606.162 1034.159 C 609.098 1032.532, 612.587 1030.877, 613.915 1030.481 C 615.244 1030.084, 617.435 1028.448, 618.784 1026.845 C 621.890 1023.153, 638.903 1014.793, 643.252 1014.821 C 648.699 1014.856, 655.983 1018.714, 657.513 1022.376 C 658.653 1025.106, 659.419 1025.618, 662.676 1025.829 C 667.472 1026.141, 672.990 1027.592, 676.667 1029.510 C 682.114 1032.351, 684.764 1030.965, 688.962 1023.083 C 690.097 1020.952, 689.916 1020.049, 687.430 1015.454 C 684.180 1009.446, 684.761 1007.572, 691.460 1002.463 L 694.961 999.793 700.230 1001.853 C 703.129 1002.986, 707.605 1004.181, 710.177 1004.507 C 716.750 1005.341, 721.024 1008.522, 724.127 1014.892 C 727.274 1021.348, 727.448 1021.458, 737.142 1023.077 C 743.961 1024.216, 745.277 1024.166, 749.351 1022.610 C 753.902 1020.872, 753.930 1020.875, 758.296 1023.433 C 760.705 1024.845, 763.344 1026, 764.160 1026 C 764.977 1026, 768.087 1027.319, 771.072 1028.932 C 779.346 1033.402, 789.170 1035.574, 794.883 1034.197 C 797.422 1033.585, 803.100 1032.818, 807.500 1032.492 C 819.450 1031.607, 819.708 1031.496, 823.518 1025.540 C 828.134 1018.323, 828.018 1018.349, 835.235 1022.907 C 842.764 1027.662, 849.233 1029.299, 857.012 1028.419 C 864.591 1027.562, 864.489 1027.654, 868.492 1018.019 C 870.400 1013.428, 872.822 1008.733, 873.875 1007.586 C 880.552 1000.313, 881.994 992.591, 877 990.850 C 873.158 989.511, 872.932 985.930, 876.541 983.565 C 882.277 979.806, 891.466 978.510, 899.331 980.349 C 903.274 981.271, 907.681 982.020, 909.124 982.013 C 912.539 981.996, 919.920 984.617, 922.156 986.641 C 923.121 987.515, 925.575 993.240, 927.610 999.365 C 930.409 1007.794, 932.248 1011.573, 935.177 1014.917 C 939.389 1019.726, 940.451 1022.477, 939.801 1026.905 C 939.387 1029.722, 939.491 1029.793, 944.627 1030.219 C 949.080 1030.588, 950.919 1031.448, 956.757 1035.885 C 964.545 1041.806, 967 1045.261, 967 1050.299 C 967 1053.471, 967.455 1054.028, 971.980 1056.394 L 976.960 1058.998 982.230 1053.585 C 986.658 1049.035, 988.247 1048.061, 992.179 1047.483 C 999.886 1046.349, 1000.636 1048.174, 996.500 1058 C 995.057 1061.429, 994 1065.884, 994 1068.539 C 994 1072.771, 989.324 1086.406, 986.726 1089.750 C 986.116 1090.535, 983.192 1091, 978.861 1091 C 972.031 1091, 971.953 1091.030, 970.375 1094.340 C 968.917 1097.398, 968.918 1097.941, 970.391 1100.790 C 972.676 1105.208, 972.413 1107.607, 968.972 1113.703 L 965.944 1119.068 971.511 1114.534 C 977.401 1109.737, 978.860 1109.271, 981.952 1111.202 C 984.133 1112.564, 990.960 1110.818, 1001.265 1106.262 C 1008.218 1103.188, 1012.851 1096.841, 1018.103 1083.194 C 1021.095 1075.419, 1022.363 1073.549, 1030.097 1065.500 C 1041.074 1054.077, 1042.151 1051.838, 1046.496 1031.376 C 1048.468 1022.094, 1051.027 1011.241, 1052.184 1007.257 L 1054.287 1000.014 1051.568 997.875 C 1048.496 995.459, 1048.640 992.719, 1052.093 987.870 L 1054.052 985.118 1045.977 976.977 C 1036.974 967.901, 1037.134 967.917, 1032.282 975.586 C 1027.922 982.478, 1022.831 983.399, 1021.702 977.500 C 1021.386 975.850, 1020.346 972.183, 1019.391 969.351 L 1017.654 964.203 1010.327 963.516 C 1003.322 962.860, 1003 962.717, 1003 960.283 C 1003 956.856, 1008.923 951.386, 1014.292 949.855 C 1016.606 949.195, 1019.268 948.006, 1020.206 947.213 C 1022.700 945.104, 1032.467 930.078, 1033.995 926 C 1034.768 923.939, 1039.471 918.388, 1045.435 912.500 C 1051.005 907, 1057.906 899.723, 1060.771 896.329 C 1067.645 888.184, 1073.466 885.363, 1085.300 884.441 C 1093.003 883.841, 1094.259 883.972, 1095.374 885.496 C 1096.473 887, 1096.938 887.056, 1098.783 885.903 C 1100.438 884.870, 1101.661 884.818, 1104.210 885.674 C 1106.019 886.281, 1110.349 887.347, 1113.831 888.043 L 1120.163 889.308 1124.169 885.301 L 1128.176 881.295 1137.338 883.167 C 1149.449 885.642, 1150 885.846, 1150 887.867 C 1150 890.188, 1148.060 891.997, 1145.550 892.015 C 1141.888 892.043, 1140.426 893.622, 1142.857 894.924 C 1144.570 895.840, 1145.961 895.642, 1149.990 893.909 C 1154.255 892.074, 1155.425 891.933, 1157.900 892.958 C 1160.342 893.970, 1161.495 893.858, 1165.152 892.251 L 1169.500 890.341 1165.850 889.644 C 1157.881 888.122, 1158.557 886.474, 1172.154 874.295 C 1174.122 872.533, 1175.987 869.833, 1176.298 868.295 C 1176.670 866.460, 1180.922 861.499, 1188.682 853.847 C 1199.324 843.354, 1201.077 842.027, 1206.297 840.513 C 1211.672 838.953, 1212.275 838.950, 1214.592 840.468 C 1218.799 843.225, 1219.668 846.440, 1217.702 851.976 C 1216.093 856.507, 1215.394 863, 1216.515 863 C 1218.368 863, 1228.325 856.302, 1231.380 852.999 C 1233.406 850.810, 1236.439 848.307, 1238.120 847.438 C 1240.984 845.957, 1241.162 845.533, 1240.964 840.679 C 1240.847 837.831, 1240.808 834.722, 1240.876 833.770 C 1241.002 832.009, 1247.661 828, 1250.460 828 C 1252.662 828, 1252.448 834.010, 1249.963 842 C 1248.850 845.575, 1247.516 852.051, 1246.998 856.391 C 1245.969 865.007, 1244.622 867.296, 1239.260 869.536 C 1233.250 872.047, 1217.689 888.690, 1201.572 909.844 C 1197.072 915.750, 1196.503 916.161, 1193.338 915.791 C 1190.832 915.499, 1190.077 915.737, 1190.469 916.697 C 1190.761 917.414, 1191.243 918.596, 1191.539 919.323 C 1191.836 920.051, 1189.765 923.539, 1186.938 927.073 C 1179.925 935.842, 1179.163 937.590, 1178.417 946.637 C 1177.735 954.898, 1179.279 967.380, 1182.948 983.276 C 1184.355 989.372, 1184.670 993.182, 1184.164 998 C 1183.789 1001.575, 1183.907 1006.152, 1184.427 1008.171 L 1185.371 1011.843 1191.936 1004.809 C 1199.653 996.540, 1201.077 993.810, 1200.312 988.752 C 1199.775 985.199, 1199.932 984.926, 1203.340 983.502 C 1205.318 982.676, 1208.820 982, 1211.123 982 C 1215.016 982, 1215.205 981.877, 1213.807 980.250 C 1210.039 975.862, 1211.534 970.175, 1218.437 962.639 C 1221.761 959.010, 1222.079 958.889, 1226.566 959.562 L 1231.235 960.262 1230.589 955.881 C 1229.173 946.273, 1229.278 945.500, 1232 945.500 C 1234.386 945.500, 1234.625 944.933, 1237.223 933.111 C 1239.979 920.572, 1240.008 919, 1237.476 919 C 1232.999 919, 1233.010 910.424, 1237.500 900.706 C 1240.061 895.163, 1241 891.755, 1241 888 C 1241 885.178, 1241.449 882.030, 1241.997 881.006 C 1243.369 878.441, 1253.645 875.461, 1255.580 877.066 C 1256.717 878.010, 1257.923 877.244, 1261.796 873.119 C 1268.680 865.787, 1271.481 866.550, 1268.517 874.951 C 1266.344 881.112, 1267.155 881.050, 1273.720 874.557 L 1279.500 868.840 1287.342 869.182 C 1294.833 869.508, 1295.322 869.677, 1298.255 872.959 L 1301.325 876.396 1302.838 873.948 C 1307.426 866.525, 1323.491 853.313, 1335 847.498 C 1338.025 845.970, 1344.470 841.970, 1349.323 838.610 L 1358.145 832.500 1365.823 832.445 C 1378.709 832.354, 1382.117 828.347, 1376.460 819.940 C 1374.557 817.113, 1373 813.922, 1373 812.850 C 1373 809.524, 1370.206 805.291, 1366.500 803 C 1360.604 799.356, 1358.053 792.112, 1361.934 790.035 C 1362.998 789.466, 1366.486 788.996, 1369.684 788.990 C 1373.727 788.983, 1377.090 788.240, 1380.715 786.552 C 1386.929 783.659, 1387.809 781.452, 1386.199 772.793 C 1384.975 766.212, 1385.253 764.933, 1388.934 760.203 C 1392.699 755.364, 1397.658 752.472, 1399.528 754.023 C 1401.563 755.712, 1401.372 759.202, 1398.811 767.156 C 1397.606 770.895, 1396.877 774.211, 1397.191 774.524 C 1397.504 774.837, 1400.750 774.543, 1404.404 773.870 C 1412.796 772.323, 1415.496 773.919, 1418.500 782.202 C 1421.435 790.295, 1422.536 791.297, 1427.654 790.529 C 1431.884 789.895, 1431.958 789.936, 1435.586 794.986 C 1437.600 797.790, 1439.755 799.918, 1440.374 799.715 C 1442.103 799.148, 1445.866 793.144, 1446.948 789.226 C 1447.481 787.296, 1448.889 784.683, 1450.077 783.418 L 1452.237 781.119 1450.004 777.507 C 1447.141 772.874, 1447.744 772.412, 1455.069 773.623 L 1461.098 774.620 1464.530 768.560 L 1467.962 762.500 1465.231 760.587 C 1463.729 759.534, 1459.350 755.370, 1455.500 751.332 C 1448.621 744.119, 1448.413 743.992, 1443.500 743.999 L 1438.500 744.006 1438.474 748.479 C 1438.441 754.177, 1436.818 756.051, 1434.070 753.563 C 1431.784 751.494, 1426.500 739.287, 1425.457 733.665 C 1424.607 729.085, 1418.785 723.001, 1411.859 719.453 C 1404.635 715.754, 1385.069 702.681, 1379.258 697.672 C 1367.728 687.733, 1336.772 676.762, 1325.309 678.552 C 1322.261 679.029, 1319.943 678.435, 1313.707 675.579 L 1305.913 672.011 1304.075 676.255 C 1302.323 680.298, 1302.319 680.595, 1303.983 682.500 C 1304.944 683.600, 1306.464 686.713, 1307.362 689.418 C 1308.961 694.239, 1308.946 694.417, 1306.600 698.419 C 1302.629 705.195, 1300.570 706.604, 1297.540 704.618 C 1296.158 703.713, 1294.279 701.829, 1293.364 700.432 C 1291.430 697.481, 1288.019 683.992, 1288.008 679.250 C 1287.999 675.450, 1287.283 675.305, 1281.960 678.020 C 1277.794 680.146, 1277.317 680.917, 1279.078 682.678 C 1279.671 683.271, 1280.009 685.049, 1279.828 686.628 C 1279.515 689.373, 1279.279 689.498, 1274.500 689.444 C 1271.304 689.408, 1265.927 688.055, 1259.598 685.694 C 1247.824 681.301, 1246.539 681.228, 1240.303 684.589 C 1231.747 689.201, 1217.252 686.353, 1208.640 678.367 C 1205.188 675.166, 1205.306 672.297, 1209.079 667.721 L 1212.157 663.986 1208.990 659.988 C 1200.615 649.413, 1191.983 645.155, 1184.607 647.959 C 1183.219 648.487, 1177.053 649.656, 1170.903 650.558 C 1164.244 651.535, 1158.465 652.965, 1156.611 654.095 C 1150.704 657.698, 1148.692 656.571, 1140.249 644.936 C 1138.029 641.876, 1132.452 635.530, 1127.856 630.834 C 1123.260 626.138, 1117.782 620.205, 1115.682 617.649 C 1112.493 613.770, 1111.555 613.168, 1109.997 614.001 C 1108.971 614.551, 1104.052 615, 1099.066 615 L 1090 615 1090 612.059 C 1090 608.209, 1090.220 608.300, 1075.338 606.050 C 1068.277 604.983, 1060.827 603.410, 1058.782 602.555 C 1054.007 600.558, 1054 600.559, 1054 603.427 C 1054 606.490, 1049.960 609.751, 1044.288 611.268 C 1039.768 612.477, 1038.676 614.445, 1041.949 615.484 C 1044.798 616.388, 1045.305 619.293, 1043.335 623.424 C 1041.832 626.576, 1041.770 627.616, 1042.868 631.279 C 1045.198 639.054, 1045.044 639.524, 1040.238 639.309 C 1037.803 639.201, 1034.736 638.236, 1033.084 637.059 C 1031.493 635.927, 1028.798 635, 1027.096 635 C 1024.323 635, 1024 635.313, 1024 638 C 1024 641.770, 1022.485 641.848, 1015.298 638.448 C 1009.021 635.478, 1007.157 635.779, 1001.747 640.633 C 996.556 645.291, 994.820 644.954, 987.425 637.853 L 981.024 631.706 978.600 637.103 C 977.266 640.071, 974.744 645.987, 972.994 650.250 C 971.245 654.513, 969.281 658, 968.630 658 C 966.869 658, 950.279 634.880, 947.450 628.483 C 944.481 621.769, 944.471 621.529, 947.064 618.936 C 948.810 617.190, 949.037 616.073, 948.535 611.686 C 948.157 608.377, 948.439 605.119, 949.314 602.685 C 950.332 599.855, 950.442 597.636, 949.741 594.087 C 948.870 589.683, 948.505 589.231, 945.147 588.401 C 942.348 587.709, 940.803 586.408, 938.500 582.802 C 936.443 579.581, 935.028 578.293, 934 578.704 C 929.062 580.681, 925.914 580.184, 920.726 576.611 C 914.506 572.327, 914.091 572.286, 909.076 575.452 C 904.955 578.053, 903.032 583.373, 904.518 588.057 C 906.234 593.465, 902.431 602.933, 900.074 599.119 C 899.161 597.643, 895.513 597.471, 885.983 598.457 L 878.466 599.234 875.313 596.009 C 873.578 594.235, 871.739 593.043, 871.226 593.360 C 870.713 593.678, 868.202 592.611, 865.646 590.991 C 861.269 588.215, 861 587.789, 861 583.647 C 861 578.693, 861.983 579.199, 847.156 576.522 C 839.875 575.207, 839.727 575.224, 829.975 578.509 C 818.888 582.242, 817.353 581.962, 816.130 575.981 L 815.430 572.561 808.965 572.530 C 803.830 572.506, 801.829 572.021, 799.238 570.173 C 796.693 568.358, 795.263 567.999, 792.738 568.541 C 787.732 569.614, 787.602 569.994, 791.026 573.526 C 794.803 577.424, 794.612 577.905, 787.750 581.754 C 775.765 588.478, 759.223 591.629, 757.635 587.491 C 756.241 583.857, 761.373 577.797, 770.136 572.730 C 772.686 571.255, 775.616 568.717, 776.646 567.090 C 777.677 565.462, 780.428 562.748, 782.760 561.059 C 785.756 558.888, 787 557.269, 787 555.539 C 787 553.655, 788.821 551.704, 794.896 547.079 C 811.262 534.620, 822.049 517.605, 816.500 513 C 815.675 512.315, 815 510.874, 815 509.798 C 815 508.129, 815.457 507.941, 818.108 508.524 L 821.216 509.206 820.525 503.853 C 819.262 494.069, 817.993 490.933, 815.776 492.120 C 812.674 493.780, 811.189 492.447, 810.419 487.308 C 809.144 478.803, 805.648 476.430, 793.399 475.759 C 787.087 475.413, 782.137 474.605, 780.205 473.606 C 776.731 471.810, 776.636 471.886, 775.083 477.674 C 774.107 481.314, 773.404 482.062, 769.592 483.518 C 763.670 485.780, 760.998 484.440, 761.006 479.215 C 761.013 474.361, 762.798 467.951, 764.754 465.750 C 766.219 464.103, 765.917 464, 759.613 464 C 755.929 464, 752.372 463.535, 751.708 462.966 C 751.044 462.397, 749.646 461.342, 748.603 460.621 C 746.113 458.902, 747.007 455.200, 751.014 450.636 C 752.657 448.766, 754 446.764, 754 446.186 C 754 444.500, 748.066 440.750, 744.125 439.946 C 742.131 439.539, 739.147 438.900, 737.494 438.527 C 734.591 437.871, 734.225 438.219, 726.771 448.745 M 425.261 462.557 C 419.928 465.215, 415.789 469.291, 410.248 477.340 C 408.459 479.938, 406.209 482.337, 405.248 482.671 C 404.287 483.004, 399.991 484.789, 395.702 486.638 C 386.376 490.658, 384.093 490.792, 381 487.500 C 376.786 483.015, 373.724 484.761, 371.060 493.170 C 369.467 498.198, 367.620 499.604, 364.484 498.175 C 362.464 497.254, 361.713 497.374, 360.263 498.849 C 359.293 499.836, 355.690 502.773, 352.257 505.375 C 345.110 510.791, 343.567 513.084, 344.368 517.092 C 344.900 519.750, 344.657 520.012, 340.719 521.019 C 338.399 521.613, 335.992 522.267, 335.370 522.472 C 333.653 523.039, 331.002 531.780, 330.986 536.928 C 330.975 540.352, 329.971 543.336, 326.986 548.812 C 324.475 553.418, 323 557.429, 323 559.649 C 323 562.603, 322.111 564.042, 317.500 568.543 C 311.245 574.650, 311.270 574.588, 314.092 576.874 C 316.181 578.565, 316.178 578.576, 312 582.880 C 307.378 587.644, 305.105 593.376, 300.963 610.724 L 298.522 620.947 294.908 620.369 C 288.223 619.300, 289.282 626.684, 296.678 632.717 C 305.365 639.803, 310.188 645.347, 309.416 647.359 C 308.041 650.940, 309.829 654, 313.296 654 C 315.647 654, 317.270 654.815, 319.123 656.927 C 324.011 662.498, 336.638 664.447, 341.184 660.333 C 343.424 658.306, 343.548 653.700, 341.410 651.926 C 338.917 649.856, 330.099 631.548, 328.398 624.907 C 326.672 618.170, 327.221 613.585, 330.135 610.407 C 331.193 609.253, 332.479 605.699, 333.002 602.486 C 334.831 591.253, 337.691 584.535, 341.770 581.896 C 346.884 578.586, 348.390 575.161, 347 569.998 C 345.672 565.068, 346.028 564.405, 350.454 563.575 C 354.559 562.804, 354.921 562.322, 356.402 555.656 C 357.546 550.505, 357.708 550.341, 365 546.987 C 365.825 546.608, 366.903 544.093, 367.396 541.399 C 368.172 537.156, 368.973 535.959, 373.376 532.459 C 376.173 530.237, 379.989 526.412, 381.856 523.959 C 385.754 518.840, 394.785 512.443, 400.205 510.961 C 402.242 510.403, 405.205 508.857, 406.790 507.524 C 408.374 506.191, 413.007 503.556, 417.085 501.669 C 425.343 497.847, 434.857 489.080, 437.343 483 C 440.216 475.972, 441.382 465.233, 439.572 462.470 C 437.397 459.150, 432.034 459.182, 425.261 462.557 M 427.422 464.394 C 422.955 466.375, 417.289 471.651, 414.478 476.448 C 410.890 482.570, 408.548 484.311, 397.759 488.877 C 386.414 493.679, 384.203 493.883, 380.182 490.500 C 376.329 487.258, 376.582 487.137, 374.032 493.421 C 371.256 500.260, 368.951 502.455, 365.464 501.580 C 363.335 501.046, 361.554 501.883, 355.898 506.076 C 348.049 511.895, 346.604 513.923, 347.478 517.899 C 348.242 521.380, 346.473 522.993, 341.098 523.714 C 336.310 524.356, 334 528.734, 334 537.170 C 334 541.332, 333.245 543.609, 330 549.238 C 327.743 553.152, 326 557.494, 326 559.202 C 326 561.991, 322.371 569.957, 321.066 570.033 C 319.062 570.151, 315.786 574.186, 316.840 575.240 C 318.983 577.383, 318.027 580.731, 314.122 584.755 C 311.924 587.019, 309.547 590.865, 308.636 593.626 C 306.745 599.361, 302.242 617.405, 301.804 621 C 301.528 623.266, 301.112 623.476, 297.342 623.242 C 293.580 623.009, 293.235 623.181, 293.722 625.045 C 294.019 626.179, 296.084 628.545, 298.313 630.303 C 306.501 636.764, 313.905 645.309, 312.915 647.158 C 311.368 650.049, 311.877 651, 314.970 651 C 317.115 651, 318.561 651.839, 320.174 654.022 C 323.918 659.085, 334.877 661.540, 338.964 658.230 C 341.148 656.462, 341.148 656.458, 339.180 653.957 C 333.937 647.291, 326.543 631.232, 325.059 623.284 C 324.046 617.866, 325.362 610.638, 327.805 608.195 C 328.839 607.161, 329.985 604.125, 330.352 601.449 C 331.795 590.919, 335.179 582.912, 339.280 580.323 C 344.101 577.280, 345.751 573.944, 344.161 570.453 C 341.498 564.610, 342.710 562.756, 350.641 560.534 C 352.262 560.080, 352.943 558.866, 353.442 555.537 C 354.198 550.494, 357.289 546, 360.001 546 C 362.875 546, 365 543.203, 365 539.422 C 365 536.911, 365.726 535.383, 367.700 533.743 C 374.642 527.974, 379.986 522.619, 380.539 520.876 C 381.353 518.311, 394.637 509.444, 399.713 508.077 C 401.943 507.477, 404.357 506.274, 405.079 505.405 C 405.801 504.535, 410.241 501.888, 414.946 499.522 C 430.405 491.750, 436.827 482.800, 437.332 468.326 L 437.500 463.500 434 463.265 C 432.075 463.135, 429.115 463.643, 427.422 464.394 M 1027.664 494.598 C 1020.268 507.243, 1017.252 520.060, 1020.561 524.784 C 1021.420 526.010, 1023.895 530.555, 1026.062 534.885 C 1028.230 539.215, 1030.588 543.243, 1031.304 543.838 C 1033.075 545.307, 1038.730 541.840, 1039.997 538.508 C 1040.935 536.041, 1041.030 536.023, 1050.222 536.582 C 1055.325 536.893, 1061.160 537.845, 1063.188 538.697 C 1067.417 540.475, 1072 539.776, 1072 537.352 C 1072 536.467, 1070.482 534.062, 1068.626 532.007 C 1066.770 529.953, 1064.464 525.903, 1063.502 523.007 C 1061.824 517.955, 1061.828 517.594, 1063.588 514.120 L 1065.423 510.500 1065.759 513.500 C 1066.680 521.722, 1068.930 526.512, 1074.407 531.915 C 1080.665 538.088, 1082.335 537.893, 1083.525 530.855 C 1084.081 527.560, 1084.748 526.635, 1087.174 525.789 C 1091.077 524.429, 1092.263 521.135, 1090.953 515.291 C 1089.479 508.713, 1088.751 507.801, 1083.863 506.410 C 1081.463 505.727, 1077.475 504.487, 1075 503.654 C 1072.525 502.821, 1069.306 501.885, 1067.848 501.575 C 1066.169 501.218, 1063.875 499.173, 1061.599 496.005 C 1055.765 487.884, 1052.597 490.162, 1053.148 502.083 C 1053.323 505.876, 1053.136 508.983, 1052.733 508.989 C 1052.330 508.995, 1051.114 509, 1050.030 509 C 1048.119 509, 1040.710 499.192, 1036.621 491.250 C 1034.112 486.375, 1032.014 487.159, 1027.664 494.598 M 1028.804 498.750 C 1026.814 502.462, 1024.255 508.552, 1023.116 512.282 L 1021.045 519.064 1026.605 530.032 C 1032.454 541.572, 1033.878 542.737, 1036.657 538.250 C 1037.594 536.737, 1038.988 534.976, 1039.755 534.335 C 1041.608 532.788, 1059.531 533.783, 1063.200 535.636 C 1068.462 538.294, 1069.406 537.293, 1065.710 532.974 C 1061.599 528.171, 1058.756 519.336, 1059.966 515.118 C 1062.739 505.450, 1069 504.078, 1069 513.139 C 1069 519.544, 1071.119 524.701, 1075.531 529.030 L 1079.886 533.304 1080.562 530.402 C 1081.586 526.006, 1083.817 523, 1086.054 523 C 1088.845 523, 1089.399 520.831, 1088.048 515.199 C 1086.787 509.945, 1085.614 509.266, 1071.432 505.582 C 1064.369 503.747, 1062.771 502.722, 1059.427 497.884 L 1056.500 493.649 1056 502.575 L 1055.500 511.500 1052.179 511.819 C 1047.401 512.277, 1045.117 510.325, 1039.076 500.622 C 1036.124 495.880, 1033.419 492, 1033.065 492 C 1032.711 492, 1030.793 495.038, 1028.804 498.750 M 1098 521.075 L 1098 528.151 1105.120 535.049 C 1112.162 541.870, 1112.303 541.947, 1117.870 542.034 C 1122.938 542.113, 1135.108 538.990, 1138.750 536.676 C 1141.167 535.140, 1140.047 531.134, 1136.017 526.897 L 1132.034 522.710 1125.085 523.355 C 1118.205 523.995, 1118.116 523.972, 1116 521.001 C 1114.296 518.608, 1113.118 517.995, 1110.182 517.978 C 1108.076 517.965, 1105.430 517.118, 1104 516 C 1099.148 512.205, 1098 513.176, 1098 521.075 M 1101 522.567 C 1101 526.860, 1101.369 527.485, 1107.147 532.983 C 1115.048 540.502, 1117.379 540.978, 1128.533 537.345 C 1137.821 534.320, 1138.271 533.664, 1134.302 528.947 C 1131.608 525.746, 1131.591 525.741, 1124.321 526.356 C 1117.104 526.966, 1117.019 526.945, 1114.831 523.986 C 1113.201 521.781, 1111.808 521, 1109.503 521 C 1107.787 521, 1105.509 520.339, 1104.441 519.532 C 1101.442 517.263, 1101 517.652, 1101 522.567 M 812.500 548.491 C 811.950 548.675, 810.271 549.096, 808.768 549.427 C 806.542 549.917, 803 554.140, 803 556.302 C 803 557.705, 809.383 563, 811.074 563 C 817.629 563, 822.596 553.660, 818.171 549.655 C 816.439 548.087, 814.751 547.741, 812.500 548.491 M 811.251 551.723 C 806.341 552.333, 805.177 555.388, 808.700 558.418 C 811.877 561.151, 814.352 560.517, 816.181 556.502 C 817.272 554.107, 816.726 550.864, 815.281 551.160 C 814.852 551.248, 813.038 551.502, 811.251 551.723 M 1045.615 555.465 C 1043.235 559.097, 1043.629 561.510, 1047.077 564.411 C 1050.518 567.307, 1054.751 567.813, 1055.663 565.437 C 1055.993 564.577, 1055.065 561.427, 1053.600 558.437 C 1050.615 552.340, 1048.241 551.457, 1045.615 555.465 M 1047.477 558.072 C 1046.770 560.301, 1049.330 564, 1051.581 564 C 1052.541 564, 1052.442 563.024, 1051.176 560.010 C 1049.287 555.514, 1048.431 555.065, 1047.477 558.072 M 1057.329 568.435 C 1055.585 569.206, 1053.638 570.809, 1053.002 571.996 C 1052.349 573.216, 1051.242 573.923, 1050.455 573.621 C 1047.796 572.601, 1047.827 575.140, 1050.524 579.215 C 1055.028 586.021, 1057.748 588, 1062.599 588 C 1064.968 588, 1068.105 588.546, 1069.570 589.214 C 1073.570 591.036, 1076.440 587.228, 1075.613 581.195 C 1074.897 575.966, 1073.499 573.828, 1068.645 570.534 C 1063.767 567.224, 1061.162 566.740, 1057.329 568.435 M 1058.500 571.161 C 1056.145 572.456, 1053.039 576.075, 1053.058 577.500 C 1053.066 578.050, 1054.141 579.807, 1055.447 581.405 C 1057.763 584.237, 1059.027 584.642, 1070.500 586.224 C 1075.755 586.949, 1072.807 576.638, 1066.647 572.750 C 1061.792 569.685, 1061.342 569.598, 1058.500 571.161 M 451.398 579.146 C 449.543 581.611, 446.768 588.804, 447.187 590.061 C 447.414 590.741, 450.036 591.921, 453.015 592.683 C 458.012 593.962, 458.626 593.924, 460.965 592.185 C 464.210 589.774, 464.866 584.291, 462.290 581.110 C 460.075 578.375, 452.946 577.090, 451.398 579.146 M 452.173 583.758 C 451.443 585.266, 450.618 587.035, 450.339 587.689 C 449.574 589.486, 457.729 591.470, 459.576 589.937 C 461.688 588.184, 461.370 583.269, 459.066 582.035 C 455.837 580.307, 453.568 580.875, 452.173 583.758 M 1384.589 638.537 C 1374.848 642.593, 1372.671 644.315, 1373.523 647.288 C 1375.950 655.763, 1388.710 657.606, 1401.161 651.281 C 1404.922 649.370, 1407.992 647.288, 1407.982 646.653 C 1407.973 646.019, 1405.767 643.138, 1403.080 640.250 C 1397.216 633.948, 1395.902 633.826, 1384.589 638.537 M 1386 641.121 C 1375.879 645.192, 1375.025 646.116, 1378.325 649.416 C 1382.014 653.105, 1390.899 653.089, 1398.283 649.380 C 1401.152 647.939, 1403.661 646.615, 1403.857 646.440 C 1404.804 645.590, 1397.266 638.040, 1395.500 638.070 C 1394.400 638.088, 1390.125 639.461, 1386 641.121 M 265.076 688.724 C 261.859 692.626, 260.611 696.727, 261.168 701.567 C 261.449 704.005, 262.265 704.732, 266.465 706.287 C 272.913 708.673, 274.723 707.826, 279.933 699.981 C 284.654 692.874, 284.617 693, 281.978 693 C 280.865 693, 278.003 691.200, 275.616 689 C 270.257 684.060, 268.949 684.026, 265.076 688.724 M 266.591 691.291 C 264.802 693.638, 264 695.925, 264 698.686 C 264 702.460, 264.216 702.748, 267.866 703.842 C 273.008 705.382, 272.497 705.591, 275.983 700.525 L 279.061 696.050 274.910 692.275 C 269.479 687.337, 269.597 687.351, 266.591 691.291 M 34.667 953.667 C 34.300 954.033, 34 955.383, 34 956.667 C 34 957.950, 33.885 959, 33.743 959 C 33.602 959, 32.051 958.588, 30.296 958.085 C 26.794 957.080, 24.302 958.738, 25.321 961.393 C 25.620 962.174, 24.985 963.609, 23.909 964.582 C 20.845 967.355, 22.792 968.038, 35.602 968.682 C 49.513 969.381, 50.656 968.840, 49.516 962.092 C 48.745 957.531, 48.161 956.957, 41.967 954.672 C 37.006 952.842, 35.674 952.659, 34.667 953.667 M 36.272 959.091 C 35.236 961.835, 34.777 962.110, 32.182 961.540 C 29.802 961.017, 29.163 961.268, 28.739 962.891 C 27.972 965.824, 28.506 966, 38.167 966 C 46.665 966, 46.999 965.915, 46.985 963.750 C 46.962 960.381, 45.614 958.855, 41.352 957.371 C 39.233 956.634, 37.486 956.023, 37.469 956.015 C 37.452 956.007, 36.913 957.391, 36.272 959.091 M 1065.632 969.855 C 1061.241 974.706, 1060 984.351, 1060.168 1012.303 C 1060.255 1026.801, 1059.963 1039.251, 1059.520 1039.968 C 1059.076 1040.686, 1058.587 1046.350, 1058.433 1052.555 C 1058.097 1066.097, 1060.121 1070.735, 1067.617 1073.598 C 1076.886 1077.138, 1078.189 1073.344, 1071.527 1062.217 C 1068.035 1056.387, 1067.059 1053.889, 1067.533 1052 C 1067.879 1050.625, 1068.393 1047.854, 1068.677 1045.843 C 1069.124 1042.671, 1069.618 1042.107, 1072.402 1041.584 C 1074.251 1041.237, 1077.187 1039.368, 1079.330 1037.174 L 1083.048 1033.366 1080.637 1026.933 C 1079.311 1023.395, 1077.675 1017.800, 1077.001 1014.500 C 1076.327 1011.200, 1075.298 1007.600, 1074.714 1006.500 C 1074.121 1005.383, 1073.571 997.566, 1073.468 988.791 C 1073.318 976.041, 1072.970 972.603, 1071.619 970.541 C 1069.643 967.526, 1067.918 967.328, 1065.632 969.855 M 1067.019 972.964 C 1063.619 979.317, 1062.915 986.302, 1063.069 1012.127 C 1063.154 1026.264, 1062.894 1038.362, 1062.493 1039.011 C 1062.092 1039.660, 1061.622 1045.436, 1061.449 1051.846 C 1061.089 1065.176, 1062.558 1069.014, 1068.817 1071.096 C 1073.395 1072.619, 1073.659 1071.847, 1070.453 1066.302 C 1063.989 1055.120, 1063.594 1054.013, 1064.840 1050.566 C 1065.478 1048.802, 1066 1046.017, 1066 1044.379 C 1066 1040.815, 1067.580 1039, 1070.684 1039 C 1071.941 1039, 1074.429 1037.695, 1076.213 1036.101 L 1079.458 1033.201 1077.310 1026.351 C 1076.129 1022.583, 1074.673 1017.103, 1074.075 1014.173 C 1073.477 1011.243, 1072.462 1007.868, 1071.819 1006.673 C 1071.090 1005.317, 1070.593 998.568, 1070.498 988.723 C 1070.343 972.653, 1069.421 968.476, 1067.019 972.964" stroke="none" fill="#111111" fill-rule="evenodd"/>
</svg>