<svg xmlns="http://www.w3.org/2000/svg" width="1500" height="1500" viewBox="0 0 1500 1500" version="1.1">
	<path d="M 1032.935 304.977 C 1032.074 305.480, 1024.424 306.606, 1015.935 307.478 C 999.318 309.186, 991.031 311.052, 988.954 313.556 C 986.019 317.092, 981.942 318.253, 974.896 317.558 C 966.615 316.742, 966.057 317.416, 965.249 329.199 C 964.832 335.289, 964.171 337.885, 962.421 340.321 C 958.963 345.134, 950.561 358.925, 947.994 364 C 946.743 366.475, 942.693 372.775, 938.994 378 C 934.919 383.757, 931.241 390.354, 929.659 394.742 C 928.223 398.725, 926.099 403.846, 924.938 406.121 L 922.827 410.259 916.454 409.606 C 911.143 409.061, 909.452 409.290, 906.305 410.976 C 901.755 413.415, 901.336 413.429, 893.209 411.390 C 885.234 409.390, 884.500 409.940, 882.307 419.556 C 881.187 424.465, 879.919 427.235, 877.839 429.315 C 876.241 430.912, 873.790 433.720, 872.391 435.554 C 870.268 438.337, 869.241 438.866, 866.174 438.753 C 863.844 438.668, 859.391 440.008, 854 442.418 C 841.851 447.848, 837.204 449.537, 836.459 448.793 C 836.101 448.434, 836.239 446.122, 836.765 443.655 C 837.291 441.187, 837.384 438.621, 836.970 437.952 C 835.716 435.922, 829.667 437.730, 823.344 442.025 C 820.130 444.209, 816.958 445.996, 816.295 445.998 C 814.542 446.001, 813.611 439.554, 814.851 435.997 C 816.305 431.828, 815.742 430.872, 809.668 427.191 C 803.506 423.457, 800.032 423.199, 795.295 426.127 C 791.203 428.656, 791.088 428.567, 786.613 419.371 C 781.442 408.745, 781.437 408.745, 765.482 420.542 C 754.234 428.857, 753.349 429.954, 749.898 439.862 C 748.871 442.811, 746.519 446.897, 744.670 448.943 C 742.483 451.365, 741.073 454.142, 740.632 456.900 C 739.339 464.986, 737.480 465.814, 720.831 465.721 C 704.242 465.629, 699.461 467.073, 695.121 473.485 C 692.276 477.689, 689.018 478.070, 682.845 474.921 C 680.603 473.777, 677.359 472.891, 675.635 472.950 C 673.911 473.010, 663.725 473.015, 653 472.961 C 634.799 472.869, 632.911 473.035, 624.656 475.454 C 608.676 480.137, 604 483.667, 604 491.050 C 604 494.793, 603.376 496.500, 600.869 499.612 C 596.161 505.459, 594.047 510.818, 594.022 516.967 C 594.010 519.973, 593.267 524.352, 592.371 526.698 C 590.166 532.473, 591.689 535.969, 598.656 541.115 C 606.661 547.029, 605.944 549.517, 595.274 552.837 C 587.370 555.298, 583 558.406, 583 561.568 C 583 563.548, 582.489 564.005, 580.250 564.028 C 578.737 564.043, 575.732 565.393, 573.572 567.028 C 569.058 570.443, 568.081 570.537, 558.283 568.493 C 551.761 567.132, 550.654 567.141, 546.783 568.587 C 532.830 573.797, 529.022 574.549, 525.842 572.724 C 521.632 570.308, 519.767 570.482, 500.737 575.063 L 483.859 579.127 466.370 576.494 C 452.115 574.349, 445.519 573.876, 430.691 573.937 C 404.185 574.046, 397.319 573.582, 389.645 571.162 C 385.874 569.973, 380.699 568.993, 378.145 568.985 C 367.370 568.951, 351.594 563.508, 345.191 557.615 C 340.996 553.755, 330.826 539.461, 324.652 528.748 C 322.789 525.515, 320.570 523.313, 317.707 521.857 C 315.393 520.680, 311.255 517.703, 308.510 515.240 C 300.517 508.069, 285.750 498.217, 279.379 495.805 C 276.145 494.581, 271.025 492.101, 268 490.293 C 261.501 486.408, 261.266 486.391, 251.261 489.105 C 241.363 491.789, 237.463 494.200, 233.879 499.852 C 231.143 504.166, 231 504.955, 231 515.741 C 231 528.717, 229.901 530.872, 222.231 532.938 C 215.710 534.694, 215.271 536.054, 219.070 542.731 C 222.468 548.703, 223.377 555.782, 221.562 562.144 C 221.002 564.107, 221.726 567.040, 224.374 573.537 C 226.336 578.349, 227.713 582.656, 227.433 583.108 C 226.430 584.732, 207.877 590, 203.238 589.978 C 200.579 589.966, 196.526 589.039, 194 587.867 C 191.525 586.718, 186.561 585.549, 182.968 585.270 C 176.895 584.798, 176.200 584.961, 173.078 587.588 C 166.904 592.783, 162.151 591.461, 147.433 580.461 C 137.255 572.855, 135.469 572, 129.751 572 C 121.724 572, 114.187 574.941, 108.128 580.436 C 105.032 583.244, 100.362 587.249, 97.750 589.337 C 91.015 594.720, 91.245 596.861, 99.520 605.799 C 107.751 614.689, 112.316 617, 121.644 617 C 127.811 617, 129.221 617.373, 133.329 620.094 C 135.898 621.796, 138 623.316, 138 623.472 C 138 623.628, 137.315 625.396, 136.477 627.401 C 133.812 633.778, 137.093 636.708, 145.487 635.450 C 148.339 635.022, 150 635.150, 150 635.797 C 150 637.626, 142.164 646.790, 139.003 648.657 C 135.928 650.474, 135.926 650.480, 136.586 657.175 C 137.612 667.586, 136.683 670.781, 132.397 671.585 C 130.457 671.949, 126.250 674.216, 123.048 676.624 C 116.279 681.711, 115.164 681.847, 107.596 678.500 C 99.298 674.830, 96 675.488, 96 680.813 C 96 682.141, 95.060 687.113, 93.911 691.863 C 91.398 702.253, 91.766 705.254, 96.375 711.955 C 100.322 717.693, 100.269 718.310, 95.256 724.883 C 93.418 727.294, 91.314 730.444, 90.582 731.883 C 89.169 734.660, 83.902 754.124, 83.649 757.500 C 83.447 760.205, 89.153 762.902, 97.963 764.266 C 103.553 765.131, 104.954 765.716, 105.385 767.364 C 106.069 769.980, 104.591 771.711, 101 772.500 C 96.573 773.472, 95.581 775.289, 97.475 778.952 C 98.356 780.655, 99.006 782.600, 98.920 783.274 C 98.497 786.582, 99.260 788.083, 102.115 789.559 C 105.798 791.464, 105.194 792.183, 98.500 793.862 C 91.169 795.702, 90.826 796.586, 95.777 800.886 L 100.054 804.601 96.084 806.832 C 93.901 808.060, 91.854 809.885, 91.535 810.890 C 91.216 811.895, 89.145 813.533, 86.933 814.530 C 83.103 816.257, 82.563 816.263, 75.705 814.659 C 66.185 812.433, 63.369 812.629, 58.009 815.889 C 54.466 818.044, 53.132 819.660, 51.692 823.539 C 49.204 830.240, 48.684 830.729, 39.270 835.224 C 34.303 837.595, 30.210 840.300, 28.984 842.023 C 27.863 843.596, 24.484 846.293, 21.473 848.015 C 18.463 849.738, 16 851.771, 16 852.535 C 16 856.229, 40.770 857.712, 52.740 854.734 C 60.685 852.758, 62.497 853.286, 65.531 858.463 C 68.752 863.959, 68.671 864.976, 64.391 872.628 C 61.424 877.935, 60.758 880.177, 60.641 885.256 L 60.500 891.431 66.250 894.198 C 69.412 895.720, 72 897.375, 72 897.875 C 72 898.375, 73.960 900.970, 76.354 903.642 C 78.749 906.314, 81.485 910.008, 82.432 911.851 C 84.104 915.102, 84.094 915.246, 82.078 916.658 C 79.607 918.388, 79.517 920.049, 81.484 927.602 C 82.822 932.736, 83.853 934.152, 91.893 941.900 C 100.104 949.813, 101.081 951.176, 104.106 958.959 C 105.914 963.612, 107.290 968.771, 107.164 970.424 C 106.865 974.349, 108.747 978.785, 111.015 979.505 C 112.005 979.819, 116.205 979.188, 120.349 978.103 C 126.096 976.597, 128.705 976.356, 131.347 977.085 C 136.407 978.483, 146.099 989.283, 150.497 998.426 C 153.977 1005.662, 154.286 1005.981, 161.706 1009.983 C 175.884 1017.631, 184.149 1025.109, 187.080 1032.943 C 188.217 1035.981, 192.326 1043.290, 196.212 1049.185 C 203.913 1060.868, 205.064 1061.752, 216.835 1065.031 C 232.179 1069.304, 237.613 1072.343, 247.128 1081.966 L 256 1090.940 256 1098.279 C 256 1107.185, 257.290 1109.601, 261.242 1108.098 C 263.785 1107.131, 263.958 1107.261, 264.584 1110.595 C 265.161 1113.670, 265.573 1114.073, 267.872 1113.806 C 270.447 1113.506, 270.510 1113.640, 271.013 1120.500 C 271.678 1129.559, 272.954 1131.708, 278.497 1133.104 C 281.615 1133.889, 283.704 1135.235, 285.540 1137.641 C 287.891 1140.724, 288.496 1140.998, 291.648 1140.406 C 294.673 1139.839, 295.586 1140.175, 298.388 1142.891 C 301.501 1145.908, 301.745 1145.974, 304.584 1144.558 C 307.174 1143.266, 309.123 1143.258, 320.304 1144.497 C 336.292 1146.269, 338.501 1147.690, 349.322 1163.168 C 354.188 1170.128, 363.060 1176, 368.709 1176 C 372.129 1176, 375.913 1178.228, 380.453 1182.918 C 383.156 1185.709, 385.259 1187, 387.104 1187 C 389.128 1187, 390.319 1187.875, 391.867 1190.500 C 394.388 1194.771, 396.296 1194.887, 402.079 1191.119 C 406.495 1188.241, 406.514 1188.238, 418.076 1188.903 C 428.808 1189.520, 430.013 1189.800, 434.589 1192.736 C 445.107 1199.486, 448.802 1200.134, 458.839 1196.987 C 467.118 1194.392, 471.021 1194.486, 479.500 1197.483 C 489.579 1201.046, 496.075 1200.888, 499.347 1197 C 502.573 1193.165, 502.586 1193.167, 507.977 1198.477 C 514.854 1205.251, 517.693 1205.399, 523.674 1199.296 C 528.071 1194.811, 539.491 1187, 541.652 1187 C 542.142 1187, 545.097 1185.312, 548.219 1183.250 C 554.508 1179.094, 563.439 1166.987, 567.582 1157 C 570.163 1150.777, 569.464 1150.881, 581.181 1154.981 C 595.338 1159.936, 598.413 1160.031, 602.433 1155.643 C 605.533 1152.258, 606.179 1152, 611.544 1152 C 616.742 1152, 617.853 1151.596, 622.679 1147.953 C 628.381 1143.647, 628.327 1143.646, 634.145 1148.270 C 640.908 1153.644, 643.594 1151.293, 643.882 1139.750 C 644.021 1134.139, 644.976 1133.859, 653.239 1136.999 C 663.427 1140.871, 664.477 1139.443, 660.528 1127.088 L 657.754 1118.407 660.742 1113.954 C 662.386 1111.504, 664.486 1108.248, 665.409 1106.718 C 667.694 1102.932, 668.333 1103.644, 671.454 1113.446 C 674.823 1124.025, 676.637 1126.346, 683.560 1128.937 C 695.027 1133.227, 700.142 1131.657, 706.811 1121.799 C 714.802 1109.989, 715.028 1109.886, 726.059 1113.018 C 728.567 1113.730, 731.717 1114.032, 733.059 1113.689 C 735.920 1112.958, 751.640 1094.619, 754.899 1088.211 L 757.081 1083.922 755.040 1081.057 C 753.918 1079.481, 753 1077.537, 753 1076.738 C 753 1074.505, 771.899 1069.630, 780 1069.774 C 800.454 1070.137, 802.360 1070.840, 806.476 1079.540 C 807.866 1082.479, 809.430 1085.148, 809.951 1085.470 C 810.472 1085.792, 816.434 1083.359, 823.199 1080.063 C 836.279 1073.691, 852.006 1068, 856.536 1068 C 858.343 1068, 860.754 1069.362, 863.616 1072 C 866.003 1074.200, 868.865 1076, 869.978 1076 C 872.079 1076, 876 1072.745, 876 1071 C 876 1070.450, 876.709 1070, 877.575 1070 C 878.545 1070, 880.143 1072.302, 881.739 1076 C 885.246 1084.130, 887.255 1083.814, 893.666 1074.127 C 893.802 1073.922, 896.709 1076.284, 900.127 1079.377 C 903.545 1082.470, 906.800 1085, 907.360 1085 C 907.921 1085, 911.450 1083.145, 915.202 1080.878 C 927.400 1073.508, 931.463 1072.723, 938.130 1076.449 C 946.883 1081.341, 961.421 1083.608, 964.013 1080.485 C 964.997 1079.299, 965.023 1077.742, 964.135 1073.318 C 963.511 1070.210, 963.224 1067.442, 963.498 1067.168 C 963.772 1066.894, 966.135 1068.529, 968.748 1070.801 C 974.689 1075.967, 989.144 1084, 992.497 1084 C 993.974 1084, 995.940 1082.918, 997.257 1081.381 C 998.490 1079.941, 1002.746 1077.274, 1006.712 1075.455 C 1014.246 1072.001, 1014.142 1072.139, 1015.469 1063.847 C 1015.847 1061.486, 1016.928 1059.622, 1018.527 1058.574 C 1020.179 1057.492, 1021 1056.028, 1021 1054.166 C 1021 1047.407, 1027.033 1044.632, 1041.419 1044.775 L 1052.337 1044.884 1055.941 1040.942 C 1060.440 1036.020, 1060.267 1036.008, 1068.593 1041.827 C 1073.596 1045.323, 1077.223 1047.015, 1081.749 1047.963 L 1087.998 1049.273 1090.249 1046.386 C 1095.622 1039.498, 1099.673 1035.693, 1103.937 1033.530 C 1112.128 1029.376, 1114.814 1024.297, 1115.056 1012.500 C 1115.280 1001.547, 1115.666 1000.830, 1122.028 999.520 C 1135.915 996.660, 1139.598 990.341, 1135 977.260 C 1131.569 967.497, 1132.634 958.252, 1137.964 951.546 C 1139.872 949.145, 1141.102 946.214, 1141.478 943.176 C 1141.796 940.604, 1142.742 936.138, 1143.579 933.250 L 1145.102 928 1149.301 927.990 C 1154.978 927.977, 1162.894 924.114, 1169.056 918.351 C 1171.851 915.737, 1176.223 912.226, 1178.772 910.549 C 1184.814 906.575, 1187.114 902.448, 1187.758 894.427 C 1188.269 888.058, 1188.217 887.883, 1184.738 884.405 C 1179.317 878.984, 1179.377 877.662, 1185.336 871.164 C 1188.192 868.049, 1191.558 864.048, 1192.816 862.274 C 1194.073 860.500, 1197.024 858.198, 1199.374 857.159 C 1205.146 854.606, 1206.876 850.630, 1205.048 844.124 C 1202.587 835.366, 1202.582 835.416, 1205.875 834.052 C 1209.743 832.450, 1217.675 824.021, 1219.560 819.511 C 1220.352 817.615, 1221 813.811, 1221 811.058 C 1221 806.576, 1220.704 805.898, 1218.177 804.592 C 1213.327 802.084, 1212.499 800.426, 1214.511 797.255 C 1217.793 792.082, 1221.500 788.777, 1231 782.552 C 1240.821 776.117, 1249.186 768.140, 1250.520 763.937 C 1250.941 762.611, 1252.430 759.796, 1253.830 757.681 C 1256.373 753.838, 1256.374 753.832, 1255.126 743.838 L 1253.879 733.840 1259.840 721.508 C 1266.275 708.196, 1266.437 708.035, 1276.658 704.879 C 1287.575 701.507, 1289.530 698.537, 1292.083 681.446 C 1293.665 670.857, 1292.745 664.899, 1288.941 661.095 C 1287.324 659.478, 1286 657.768, 1286 657.296 C 1286 654.359, 1308.105 635.936, 1323.941 625.674 C 1331.960 620.477, 1333.724 618.061, 1335.023 610.500 C 1335.589 607.200, 1336.249 603.600, 1336.489 602.500 C 1336.728 601.400, 1339.834 597.006, 1343.389 592.736 C 1346.945 588.465, 1350.739 583.756, 1351.822 582.270 C 1353.697 579.696, 1354.143 579.582, 1361.319 579.849 C 1372.270 580.257, 1379.011 576.413, 1381.109 568.565 C 1382.694 562.633, 1383.233 562.300, 1392.499 561.529 C 1400.129 560.893, 1401.231 561.028, 1403.900 562.929 C 1408.833 566.441, 1415.283 568.955, 1419.423 568.978 C 1422.844 568.997, 1423.869 568.409, 1427.423 564.385 C 1441.254 548.730, 1445.299 546, 1454.666 546 C 1461.352 546, 1462.738 542.745, 1458.500 537 C 1455.465 532.886, 1455.357 531.339, 1458.047 530.485 C 1462.878 528.952, 1480.997 511.025, 1480.999 507.776 C 1481 507.377, 1479.537 506.312, 1477.750 505.409 C 1468.924 500.948, 1468.137 497.288, 1473.620 486.192 C 1478.313 476.695, 1477.946 474.103, 1470.646 465.173 C 1460.833 453.169, 1459.495 452.011, 1455.306 451.894 C 1447.898 451.688, 1445.803 452.207, 1436.346 456.597 L 1426.788 461.033 1422.644 458.749 L 1418.500 456.466 1417.681 448.063 C 1416.744 438.457, 1414.112 432.319, 1407.577 424.500 C 1405.279 421.750, 1402.071 417.348, 1400.449 414.718 C 1396.655 408.567, 1394.494 408.056, 1386.823 411.499 C 1381.397 413.934, 1380.311 414.110, 1376.941 413.100 C 1369.448 410.856, 1359.958 397.092, 1356.530 383.500 C 1355.531 379.539, 1354.258 376.990, 1352.782 376 C 1345.318 370.990, 1344.077 369.149, 1344.687 363.996 C 1345.340 358.478, 1345.681 358.710, 1335.142 357.512 C 1329.865 356.912, 1329.650 356.993, 1320.902 362.904 C 1310.143 370.174, 1306.967 370.966, 1300.352 368.031 C 1294.287 365.340, 1290.671 365.311, 1280.153 367.869 C 1275.563 368.985, 1268.609 370.213, 1264.701 370.598 C 1258.080 371.251, 1257.272 371.601, 1252.853 375.734 L 1248.111 380.170 1239.915 378.098 C 1227.174 374.876, 1215.946 366.694, 1211.024 357.047 C 1208.110 351.335, 1205.002 339.228, 1204.985 333.520 C 1204.964 326.719, 1204.439 326.193, 1197.841 326.358 C 1190.461 326.543, 1185.331 323.084, 1178.711 313.462 C 1176.077 309.633, 1173.537 306.366, 1173.066 306.202 C 1172.596 306.038, 1169.126 307.543, 1165.355 309.548 C 1159.303 312.765, 1157.973 313.111, 1154 312.496 C 1142.287 310.684, 1141.755 310.858, 1139.486 317.227 C 1136.762 324.876, 1136.132 325.408, 1131.370 324.086 C 1120.047 320.942, 1106.951 323.395, 1099.296 330.093 C 1092.901 335.690, 1090.947 336.095, 1088.485 332.336 C 1087.525 330.871, 1084.994 327.779, 1082.861 325.465 C 1079.072 321.355, 1078.790 321.240, 1070.754 320.539 L 1062.525 319.821 1057.285 314.411 C 1051.620 308.561, 1051.333 308.435, 1047.588 310.142 C 1044.635 311.487, 1040.587 309.425, 1039.508 306.027 C 1038.825 303.874, 1035.679 303.371, 1032.935 304.977 M 1033.380 307.619 C 1031.665 308.323, 1023.609 309.598, 1015.478 310.452 C 998.816 312.202, 994.303 313.195, 990.881 315.862 C 984.564 320.785, 978.808 321.953, 971.089 319.879 C 969.209 319.374, 968.222 323.016, 968.100 330.915 C 968.004 337.069, 967.740 337.718, 961.596 346.915 C 958.074 352.187, 953.184 360.159, 950.729 364.632 C 948.274 369.104, 943.576 376.619, 940.288 381.331 C 936.396 386.909, 933.192 393.024, 931.106 398.856 C 926.576 411.521, 924.566 413.449, 916.746 412.631 C 911.800 412.114, 909.868 412.370, 906.541 413.980 C 902.916 415.735, 901.743 415.841, 896.469 414.890 C 886.226 413.042, 886.858 412.759, 885.041 420 C 883.200 427.332, 881.781 430.309, 879.223 432.199 C 878.254 432.914, 875.978 435.401, 874.166 437.726 C 871.168 441.570, 870.493 441.937, 866.685 441.799 C 863.582 441.686, 859.505 442.985, 850.912 446.824 C 844.539 449.671, 838.407 452, 837.285 452 C 833.725 452, 832.551 449.490, 833.721 444.378 C 834.744 439.905, 834.726 439.852, 832.386 440.439 C 831.081 440.767, 827.241 442.827, 823.852 445.017 C 820.463 447.208, 816.876 449, 815.880 449 C 812.485 449, 810.449 441.223, 812.211 434.981 C 812.832 432.782, 812.373 432.114, 808.606 429.731 C 803.432 426.457, 801.318 426.345, 796.093 429.069 C 790.635 431.914, 788.695 430.636, 784.502 421.436 C 782.639 417.346, 780.696 414, 780.184 414 C 778.719 414, 758.685 428.858, 756.842 431.312 C 755.929 432.526, 754.208 436.440, 753.016 440.010 C 751.681 444.009, 749.539 447.855, 747.435 450.031 C 745.012 452.538, 743.755 455.005, 743.103 458.531 C 741.469 467.370, 739.003 468.497, 721.260 468.516 C 704.291 468.535, 701.324 469.446, 696.760 476.041 C 693.379 480.924, 689.945 481.237, 681.612 477.423 C 677.239 475.421, 675.258 475.020, 672.741 475.630 C 670.958 476.061, 660.275 476.433, 649 476.457 C 628.911 476.499, 628.350 476.557, 621 479.360 C 609.880 483.600, 607 486.079, 607 491.411 C 607 494.371, 606.217 496.861, 604.500 499.360 C 603.125 501.362, 600.875 504.638, 599.500 506.640 C 597.489 509.567, 597 511.500, 597 516.517 C 597 519.949, 596.292 524.450, 595.427 526.520 C 593.220 531.803, 594.170 534.133, 600.473 538.892 C 609.304 545.559, 608.631 552.156, 598.869 554.619 C 591.380 556.509, 586 559.728, 586 562.320 C 586 565.301, 584.214 566.996, 581.050 567.018 C 579.647 567.028, 576.520 568.378, 574.100 570.018 C 569.024 573.457, 567.759 573.568, 558.186 571.406 C 551.181 569.824, 551.079 569.831, 544.768 572.356 C 534.488 576.469, 529.356 577.324, 525.751 575.526 C 521.390 573.350, 519.545 573.535, 500.914 578.021 L 484.213 582.041 467.357 579.565 C 453.282 577.497, 446.209 577.054, 424.500 576.882 C 400.844 576.694, 397.824 576.474, 391 574.440 C 386.875 573.210, 380.106 571.975, 375.958 571.695 C 363.973 570.886, 350.043 565.806, 343.560 559.881 C 338.100 554.891, 331.393 545.737, 324.009 533.196 C 320.704 527.584, 318.757 525.408, 315.604 523.804 C 313.347 522.656, 309.295 519.739, 306.600 517.321 C 298.635 510.175, 286.052 501.911, 277.740 498.367 C 273.472 496.547, 268.305 493.920, 266.258 492.529 C 261.744 489.462, 261.059 489.443, 251.261 492.121 C 236.669 496.109, 233.602 500.252, 233.887 515.589 C 234.152 529.874, 232.273 532.838, 220.675 536.430 C 218.995 536.950, 219.088 537.412, 221.839 542.247 C 225.531 548.736, 226.672 555.500, 224.900 560.399 C 223.707 563.699, 223.851 564.616, 226.685 571.745 C 231.091 582.830, 231.068 582.707, 229.200 584.881 C 227.136 587.283, 212.587 591.983, 204.963 592.711 C 200.713 593.116, 198.273 592.752, 194.463 591.144 C 183.466 586.502, 177.483 586.434, 173.760 590.909 C 172.415 592.525, 170.872 593, 166.970 593 C 160.954 593, 156.020 590.713, 147.262 583.864 C 137.701 576.386, 135.005 575.008, 129.932 575.004 C 121.858 574.997, 115.213 577.667, 109.083 583.380 C 106.012 586.242, 101.813 589.825, 99.750 591.343 C 94.681 595.072, 94.990 596.847, 102.015 604.356 C 109.656 612.526, 112.757 614, 122.292 614 C 129.127 614, 130.199 614.288, 134.558 617.292 C 141.174 621.851, 141.801 623.098, 139.694 627.515 C 137.270 632.599, 138.070 633.213, 146.091 632.422 C 152.947 631.747, 153 631.760, 153 634.199 C 153 637.453, 147.681 645.359, 142.915 649.189 L 139.099 652.255 139.663 658.378 C 140.566 668.173, 138.871 672.670, 133.720 674.149 C 131.399 674.815, 126.868 677.304, 123.651 679.680 C 116.850 684.703, 114.586 684.952, 107.151 681.490 C 99.517 677.937, 99.536 677.924, 97.492 687.750 C 94.331 702.941, 94.370 703.859, 98.418 709.744 C 102.872 716.220, 102.979 719.497, 98.901 724.612 C 94.253 730.441, 91.943 735.545, 89.447 745.500 C 88.206 750.450, 86.897 755.228, 86.538 756.119 C 85.707 758.185, 91.668 760.708, 99.573 761.638 C 106.380 762.438, 108.207 764.043, 107.803 768.874 C 107.540 772.027, 106.955 772.762, 103.324 774.507 C 99.682 776.257, 99.285 776.758, 100.221 778.431 C 100.812 779.486, 101.258 781.624, 101.214 783.183 C 101.151 785.404, 101.822 786.367, 104.317 787.629 C 109.467 790.237, 111.173 792.086, 109.874 793.652 C 109.259 794.393, 108.157 795, 107.427 795 C 106.696 795, 103.768 795.500, 100.919 796.111 L 95.740 797.221 100.053 800.937 L 104.367 804.652 99.433 808.018 C 96.720 809.869, 94.342 811.773, 94.148 812.248 C 92.074 817.339, 84.223 819.559, 75.471 817.530 C 63.138 814.669, 57.128 816.854, 53.934 825.361 C 51.434 832.019, 49.851 833.500, 40.479 837.953 C 35.767 840.192, 31.645 842.893, 30.670 844.381 C 29.745 845.792, 27.195 847.971, 25.002 849.223 C 22.809 850.476, 21.012 851.796, 21.008 852.157 C 20.987 853.907, 39.932 854.172, 48.171 852.537 C 61.234 849.945, 63.811 850.465, 67.743 856.489 C 71.906 862.864, 71.842 864.370, 67 874 C 64.443 879.086, 63 883.319, 63 885.734 C 63 889.294, 63.288 889.644, 67.989 891.800 C 70.732 893.059, 73.493 895.053, 74.124 896.232 C 74.755 897.411, 77.146 900.429, 79.437 902.938 C 81.728 905.447, 84.460 909.468, 85.508 911.873 L 87.415 916.246 85.056 918.156 C 82.772 920.005, 82.737 920.250, 83.964 925.783 C 85.137 931.077, 85.886 932.129, 94.081 940 C 102.197 947.796, 103.223 949.226, 106.465 957.262 C 108.634 962.637, 110 967.711, 110 970.389 C 110 976.702, 111.704 977.774, 118.390 975.666 C 124.889 973.618, 131.195 973.532, 134.889 975.442 C 139.725 977.943, 148.722 988.658, 152.636 996.579 C 156.159 1003.707, 156.753 1004.350, 162.443 1007.201 C 176.987 1014.488, 186.464 1023.249, 189.940 1032.619 C 191.140 1035.854, 193.362 1040.075, 194.879 1042 C 196.395 1043.925, 199.151 1048.052, 201.004 1051.170 C 204.703 1057.397, 208.445 1059.996, 216.500 1061.933 C 219.250 1062.594, 225.550 1064.748, 230.500 1066.721 C 238.918 1070.075, 240.130 1070.946, 249.250 1080.189 L 259 1090.071 259 1098.014 L 259 1105.957 261.470 1104.832 C 264.490 1103.456, 267 1105.099, 267 1108.452 C 267 1110.083, 267.574 1110.638, 269.200 1110.579 C 272.196 1110.471, 273.967 1114.260, 273.985 1120.816 C 274.005 1127.939, 275.191 1129.847, 280.085 1130.630 C 283.032 1131.101, 284.777 1132.152, 286.616 1134.563 C 288.760 1137.374, 289.591 1137.778, 292.313 1137.337 C 294.627 1136.961, 296.256 1137.413, 298.258 1138.988 C 300.709 1140.916, 302.510 1141.199, 314.490 1141.535 C 321.902 1141.743, 329.827 1142.415, 332.101 1143.027 C 337.277 1144.421, 344.352 1150.920, 350.379 1159.818 C 355.775 1167.782, 361.123 1171.530, 369.425 1173.163 C 374.522 1174.166, 376.318 1175.133, 380.596 1179.179 C 384.086 1182.480, 386.541 1184, 388.380 1184 C 390.391 1184, 391.587 1184.881, 393.133 1187.500 C 395.480 1191.478, 396.733 1191.774, 400.115 1189.149 C 404.870 1185.459, 406.220 1185.227, 418.688 1185.964 C 430.851 1186.682, 430.888 1186.692, 437.394 1190.931 C 445.540 1196.238, 449.535 1196.842, 458.399 1194.104 C 466.839 1191.497, 471.535 1191.452, 477.791 1193.917 C 480.466 1194.972, 485.320 1196.328, 488.577 1196.930 L 494.499 1198.024 497.812 1194.512 C 502.153 1189.912, 503.311 1190.058, 509.594 1196 C 512.501 1198.750, 515.537 1201, 516.339 1201 C 517.141 1201, 520.002 1198.862, 522.696 1196.250 C 525.391 1193.638, 530.375 1189.925, 533.772 1188 C 537.169 1186.075, 542.702 1182.937, 546.068 1181.026 C 550.339 1178.602, 552.749 1176.452, 554.046 1173.910 C 555.068 1171.906, 557.043 1168.914, 558.435 1167.260 C 561.655 1163.432, 566.998 1152.197, 566.999 1149.250 C 567 1146.607, 569.480 1146.293, 572.476 1148.557 C 575.137 1150.569, 592.286 1156, 595.977 1156 C 597.946 1156, 599.301 1155.306, 600.045 1153.915 C 601.437 1151.314, 607.241 1148.814, 611.375 1149.036 C 616.236 1149.295, 616.308 1149.266, 622.439 1144.505 L 628.227 1140.011 633.244 1144.005 C 640.249 1149.583, 641 1149.347, 641 1141.571 C 641 1131.694, 643.102 1130.422, 653.508 1134.003 C 656.709 1135.104, 659.519 1135.815, 659.752 1135.582 C 659.985 1135.349, 658.936 1131.353, 657.422 1126.703 L 654.669 1118.248 658.809 1111.874 C 665.302 1101.879, 666.004 1101, 667.490 1101 C 669.713 1101, 671.878 1104.881, 674.584 1113.718 C 677.767 1124.107, 682.804 1128, 693.067 1128 C 698.763 1128, 699.758 1127.303, 704.637 1119.897 C 712.298 1108.269, 715.554 1106.520, 724 1109.500 C 731.767 1112.240, 732.806 1111.814, 740.480 1102.747 C 744.319 1098.211, 748.909 1092.350, 750.680 1089.723 L 753.901 1084.946 751.876 1081.514 C 748.644 1076.036, 749.576 1073.808, 756 1071.664 C 765.989 1068.328, 779.284 1065.822, 783.500 1066.479 C 785.700 1066.822, 790.024 1067.226, 793.109 1067.377 C 800.850 1067.755, 804.831 1070.319, 808.344 1077.188 L 811.199 1082.770 821.850 1077.475 C 833.905 1071.480, 852.093 1065, 856.860 1065 C 859.186 1065, 861.215 1066.079, 864.384 1069 C 869.575 1073.784, 871.437 1073.989, 873.500 1070 C 874.448 1068.167, 875.838 1067, 877.073 1067 C 879.688 1067, 883.698 1071.347, 884.515 1075.068 C 885.483 1079.475, 886.662 1079.468, 889.595 1075.036 C 892.881 1070.070, 894.634 1069.987, 899.054 1074.587 C 900.949 1076.560, 903.679 1079.024, 905.121 1080.063 L 907.742 1081.952 915.621 1077.458 C 927.595 1070.627, 932.451 1069.642, 937.500 1073.021 C 941.692 1075.826, 952.365 1079, 957.605 1079 C 962.501 1079, 962.684 1078.596, 961.007 1071.500 C 958.963 1062.851, 962.279 1061.761, 970.213 1068.474 C 973.121 1070.934, 978.184 1074.334, 981.464 1076.029 C 984.745 1077.724, 987.895 1079.466, 988.464 1079.900 C 991.258 1082.029, 993.121 1081.874, 995.275 1079.332 C 996.499 1077.889, 1000.709 1075.210, 1004.632 1073.378 L 1011.763 1070.049 1012.451 1064.542 C 1012.968 1060.405, 1013.744 1058.560, 1015.570 1057.124 C 1016.906 1056.072, 1018 1054.446, 1018 1053.510 C 1018 1050.319, 1021.449 1045.961, 1025.544 1043.979 C 1028.859 1042.374, 1031.715 1042, 1040.648 1042 L 1051.665 1042 1054.880 1038 C 1058.996 1032.877, 1060.282 1032.963, 1069.244 1038.957 C 1073.490 1041.797, 1078.739 1044.381, 1081.533 1045.008 L 1086.411 1046.101 1092.456 1039.585 C 1095.780 1036.001, 1100.525 1031.974, 1103 1030.635 C 1110.056 1026.818, 1111.021 1024.859, 1112.231 1011.900 C 1113.440 998.950, 1114.437 997.011, 1119.905 996.978 C 1124.452 996.950, 1131.506 993.792, 1132.919 991.151 C 1134.569 988.069, 1134.215 982.619, 1132 977 C 1128.592 968.355, 1129.881 957.279, 1135.045 950.815 C 1137.191 948.130, 1138.235 945.416, 1138.893 940.815 C 1140.680 928.320, 1142.850 925.204, 1149.799 925.155 C 1154.547 925.121, 1161.314 921.519, 1167.832 915.559 C 1170.950 912.709, 1175.201 909.346, 1177.281 908.087 C 1179.361 906.828, 1181.948 904.062, 1183.031 901.939 C 1185.301 897.490, 1185.718 888.546, 1183.714 887.300 C 1177.634 883.519, 1176.386 875.895, 1181.117 871.437 C 1182.831 869.822, 1186.586 865.575, 1189.460 862 C 1193.094 857.481, 1195.722 855.195, 1198.083 854.500 C 1202.876 853.088, 1203.889 849.660, 1201.628 842.490 C 1199.667 836.269, 1200.113 833.416, 1203.197 832.438 C 1204.349 832.072, 1207.289 829.932, 1209.730 827.681 C 1218.357 819.729, 1220.705 810.063, 1214.998 805.999 C 1210.508 802.801, 1209.643 800.590, 1211.488 797.023 C 1214.283 791.619, 1219.320 786.805, 1227.977 781.265 C 1239.599 773.827, 1245.341 767.984, 1249.704 759.152 L 1253.337 751.800 1252.221 743.459 C 1250.919 733.725, 1251.067 733.086, 1257.966 718.769 C 1263.892 706.470, 1265.378 705.007, 1274.436 702.555 C 1284.233 699.903, 1286.338 697.473, 1288.355 686.486 C 1291.149 671.261, 1290.541 666.169, 1285.348 661.298 C 1284.057 660.087, 1283 658.366, 1283 657.474 C 1283 655.323, 1293.100 644.764, 1300 639.701 C 1303.025 637.482, 1307.129 634.220, 1309.120 632.453 C 1311.111 630.686, 1315.836 627.428, 1319.620 625.214 C 1329.595 619.376, 1330.869 617.679, 1332.564 607.968 C 1333.858 600.557, 1334.495 599.106, 1338.659 594.096 C 1341.216 591.018, 1345.338 585.910, 1347.819 582.744 L 1352.331 576.988 1360.495 577.239 C 1371.482 577.578, 1376.121 574.831, 1378.524 566.565 C 1379.887 561.876, 1380.551 560.982, 1383.304 560.128 C 1388.587 558.490, 1402.667 557.651, 1403.456 558.929 C 1404.765 561.047, 1415.953 566, 1419.429 566 C 1422.541 566, 1423.504 565.261, 1428.412 559.110 C 1437.612 547.579, 1445.079 543, 1454.682 543 C 1458.683 543, 1458.818 541.939, 1455.389 537.443 C 1451.822 532.766, 1452.731 530.315, 1459.634 526 C 1464.732 522.813, 1477 510.771, 1477 508.954 C 1477 508.538, 1475.458 507.288, 1473.574 506.176 C 1466.030 501.725, 1465.363 496.168, 1471.024 484.953 C 1472.661 481.710, 1474 477.964, 1474 476.629 C 1474 474.042, 1469.310 467.288, 1462.076 459.456 C 1455.862 452.729, 1450.744 452.730, 1436.723 459.460 L 1426.947 464.153 1422.421 461.962 C 1416.478 459.085, 1415.336 457.001, 1414.703 447.881 C 1414.101 439.212, 1412.209 434.790, 1405.664 426.754 C 1403.281 423.828, 1400.498 420.099, 1399.481 418.467 C 1395.125 411.481, 1394.049 410.809, 1390.591 412.919 C 1385.643 415.939, 1380.513 416.978, 1376.250 415.823 C 1368.203 413.644, 1356.876 397.744, 1353.902 384.452 C 1352.923 380.078, 1352.074 378.573, 1349.975 377.487 C 1344.567 374.691, 1341.116 369.554, 1341.703 365.176 L 1342.233 361.223 1336.273 360.532 L 1330.312 359.840 1322.186 365.373 C 1311.392 372.723, 1307.206 373.845, 1300.537 371.175 C 1292.382 367.911, 1291.542 367.843, 1284.280 369.855 C 1280.465 370.912, 1273.104 372.335, 1267.922 373.016 C 1258.763 374.221, 1258.370 374.381, 1253.843 378.749 L 1249.186 383.242 1241.635 381.562 C 1227.144 378.338, 1213.273 368.511, 1208.328 357.964 C 1205.234 351.364, 1202 339.017, 1202 333.802 L 1202 329.231 1197.074 329.305 C 1190.458 329.405, 1183.943 325.337, 1177.865 317.310 C 1175.315 313.943, 1173.065 310.720, 1172.865 310.146 C 1172.658 309.554, 1169.342 310.675, 1165.189 312.740 C 1157.997 316.316, 1157.786 316.356, 1152.129 315.188 C 1143.543 313.414, 1143.551 313.411, 1141.627 319.513 C 1139.375 326.659, 1136.594 328.681, 1131.384 326.962 C 1126.482 325.344, 1110.494 326.173, 1106.495 328.253 C 1104.848 329.109, 1102.375 331.020, 1101 332.500 C 1095.387 338.540, 1089.733 339.295, 1086.546 334.429 C 1081.233 326.320, 1078.225 324.180, 1071.201 323.506 C 1062.108 322.633, 1059.571 321.485, 1055.054 316.202 C 1051.359 311.879, 1051.060 311.733, 1048.278 312.885 C 1044.490 314.454, 1040.596 313.021, 1038.250 309.194 C 1036.591 306.488, 1036.338 306.406, 1033.380 307.619" stroke="none" fill="#111111" fill-rule="evenodd"/>
</svg>