<svg xmlns="http://www.w3.org/2000/svg" width="1500" height="1500" viewBox="0 0 1500 1500" version="1.1">
	<path d="M 466.311 62.250 C 465.050 63.939, 459.889 75.908, 456.717 84.500 C 452.030 97.198, 450.772 119.906, 454.581 123.067 C 456.875 124.971, 457.558 121.173, 457.885 104.719 C 457.996 99.120, 460.012 96.024, 461.851 98.627 C 462.208 99.133, 463.729 100.328, 465.231 101.284 C 467.889 102.975, 468.094 102.948, 472.986 100.260 C 479.125 96.888, 479.267 94.631, 473.367 94.199 C 462.303 93.388, 460.652 76.186, 471.192 71.535 C 474.218 70.200, 475.054 69.311, 474.840 67.652 C 474.687 66.468, 474.912 64.937, 475.341 64.248 C 476.863 61.803, 468.095 59.862, 466.311 62.250 M 458.609 87.020 C 457.724 89.231, 457 92.145, 457 93.495 C 457 95.720, 457.242 95.859, 459.574 94.972 C 461.781 94.133, 462.572 94.418, 465.126 96.972 C 467.702 99.549, 468.373 99.786, 470.086 98.726 C 471.914 97.595, 471.929 97.473, 470.284 97.155 C 466.469 96.416, 462 90.832, 462 86.804 C 462 81.876, 460.632 81.963, 458.609 87.020 M 494.298 87.750 C 493.947 88.713, 492.836 90.573, 491.830 91.885 C 488.043 96.820, 490.934 105.917, 497.669 110.255 C 498.314 110.671, 499.156 113.946, 499.541 117.534 C 500.065 122.432, 500.708 124.309, 502.121 125.065 C 503.156 125.619, 505.143 128.323, 506.538 131.074 C 508.001 133.963, 510.068 136.456, 511.429 136.973 C 512.927 137.543, 514.409 139.503, 515.500 142.361 C 516.444 144.833, 518.292 147.866, 519.608 149.102 C 523.296 152.567, 522.708 155.952, 517.500 161.235 C 510.565 168.269, 511.604 175.603, 519.889 178.085 C 525.137 179.657, 527.588 178.141, 530.668 171.414 C 533.095 166.113, 534.277 165.022, 535.482 166.971 C 537.221 169.785, 526.813 181.376, 520.977 183.125 C 518.182 183.962, 516.627 183.871, 513.835 182.704 C 505.988 179.426, 491.376 186.569, 494.780 192.019 C 496.474 194.732, 496.408 194.834, 492.750 195.187 C 489.576 195.493, 489.493 195.624, 489.196 200.798 C 488.918 205.642, 489.164 206.351, 492.063 209.059 C 496.184 212.909, 499.885 213.878, 501.585 211.553 C 502.555 210.227, 503.614 209.976, 506.014 210.503 C 508.521 211.054, 509.582 210.752, 511.184 209.033 C 513.137 206.936, 513.265 206.925, 515.349 208.674 C 516.532 209.667, 517.677 210.585, 517.893 210.715 C 518.108 210.845, 517.828 211.525, 517.270 212.226 C 516.712 212.927, 515.944 218.328, 515.562 224.230 C 514.876 234.850, 514.895 234.986, 517.451 237.542 C 519.991 240.082, 520.738 240.142, 525.865 238.212 C 526.880 237.830, 527.049 238.270, 526.524 239.926 C 525.973 241.660, 526.737 243.245, 529.973 247.084 C 532.977 250.646, 533.955 252.566, 533.498 254.007 C 532.842 256.074, 531.849 256.515, 530.618 255.285 C 530.225 254.892, 528.012 254.034, 525.702 253.380 C 523.391 252.726, 520.424 251.853, 519.108 251.441 C 516.767 250.708, 516.726 250.799, 517.194 255.665 C 517.476 258.605, 518.576 261.860, 519.885 263.631 C 521.190 265.396, 522.452 269.122, 522.959 272.709 C 523.665 277.705, 525.250 282.652, 526.285 283.091 C 526.403 283.141, 533.729 283.374, 542.565 283.609 C 569.649 284.328, 574.078 286.405, 581.610 301.920 C 583.633 306.089, 586.954 311.525, 588.989 314 C 591.196 316.684, 592.970 320.114, 593.385 322.500 C 594.557 329.233, 595.863 331.403, 600.517 334.348 C 605.887 337.745, 607.169 339.392, 603.307 337.933 C 598.841 336.246, 595.168 332.064, 592.953 326.145 C 591.824 323.127, 589.212 318.598, 587.147 316.079 C 582.750 310.713, 577 301.771, 577 300.297 C 577 297.868, 572.219 293.546, 566.581 290.879 C 559.104 287.341, 551.486 287.089, 542 290.065 C 534.996 292.262, 515.192 294.516, 511.355 293.553 C 509.680 293.132, 507.966 290.891, 505.376 285.732 C 500.141 275.304, 499.614 275.116, 493.692 281.563 C 489.294 286.350, 487.705 289.903, 480.367 311.365 C 476.178 323.616, 476.041 324.375, 477.484 327.269 C 478.318 328.940, 479 331.209, 479 332.311 C 479 333.413, 480.744 336.607, 482.875 339.408 C 487.004 344.835, 489.398 348.935, 488.791 349.542 C 487.818 350.515, 479.803 347.163, 478.435 345.211 C 477.435 343.783, 475.846 343, 473.951 343 C 471.932 343, 470.157 342.037, 468.267 339.915 C 465.431 336.733, 459.148 333.380, 454.146 332.379 C 451.504 331.851, 451.225 332.094, 450.396 335.654 C 449.903 337.769, 449.725 342.650, 450 346.500 L 450.500 353.500 454.750 353.311 C 458.926 353.125, 459 353.179, 459 356.406 C 459 358.409, 458.228 360.389, 457.020 361.482 C 455.930 362.468, 454.746 364.900, 454.388 366.887 C 452.887 375.212, 449.342 376.595, 446.969 369.782 C 445.110 364.444, 441.106 361.828, 437.878 363.844 C 435.274 365.470, 434.039 364.126, 434.015 359.639 C 434.001 356.893, 434.146 356.805, 437.600 357.453 C 445.781 358.988, 447.066 352.825, 440.852 341.859 C 438.570 337.832, 436.402 333.405, 436.034 332.019 C 435.594 330.362, 434.533 329.380, 432.933 329.149 C 429.668 328.678, 429.033 327.419, 429.015 321.372 C 428.997 315.155, 427.618 313.748, 421.185 313.376 C 415.238 313.032, 403.522 314.772, 399.113 316.653 C 397.118 317.504, 394.532 317.836, 392.822 317.461 C 390.924 317.044, 389.079 317.373, 387.495 318.412 C 386.161 319.285, 383.495 320, 381.569 320 C 379.643 320, 376.523 320.736, 374.636 321.637 C 371.458 323.152, 370.603 323.152, 363.082 321.637 C 358.614 320.736, 353.608 320, 351.957 320 C 345.572 320, 322 336.711, 322 341.237 C 322 342.150, 323.159 344.148, 324.577 345.677 L 327.153 348.457 324.966 350.229 C 323.763 351.203, 321.816 352.001, 320.639 352.001 C 316.777 352.004, 312.012 372.008, 313.883 380.366 C 315.787 388.876, 316.848 389.823, 321.919 387.537 C 325.079 386.112, 326.344 385.944, 327.233 386.833 C 327.875 387.475, 330.055 388, 332.078 388 C 336.043 388, 338.580 390.046, 337.643 392.487 C 337.324 393.319, 336.087 394, 334.894 394 C 332.618 394, 332.568 397.156, 334.636 410.325 C 335.037 412.882, 334.681 415.381, 333.560 417.868 C 332.007 421.312, 332.002 421.936, 333.499 426.345 C 334.806 430.195, 335.005 433.682, 334.541 444.616 L 333.967 458.128 329.364 466.314 C 326.832 470.816, 323.904 475.439, 322.858 476.588 C 321.366 478.226, 320.738 481.242, 319.945 490.588 C 319.389 497.139, 318.699 505.214, 318.411 508.532 C 317.698 516.751, 317.067 517.603, 313.181 515.594 C 310.702 514.312, 309.597 514.226, 307.553 515.158 C 305.436 516.122, 304.675 516.016, 303.027 514.524 C 301.428 513.077, 300.220 512.881, 296.772 513.509 C 294.423 513.937, 290.405 514.357, 287.845 514.442 C 281.570 514.651, 280 516.157, 280 521.967 C 280 525.460, 280.535 527.174, 282.052 528.547 C 284.102 530.402, 284.101 530.405, 280.552 532.226 C 276.772 534.165, 276.056 535.700, 278.495 536.636 C 279.623 537.069, 279.839 538.155, 279.374 541.061 C 278.832 544.449, 279.133 545.287, 281.873 548.027 C 284.756 550.910, 285.441 551.123, 291.075 550.894 C 295.301 550.721, 297.415 551.054, 297.989 551.983 C 298.451 552.729, 301.251 553.522, 304.326 553.777 C 309.091 554.172, 310.011 553.955, 311.125 552.171 C 312.325 550.250, 312.673 550.633, 316.173 557.724 C 319.680 564.830, 319.864 565.644, 318.915 569.879 C 318.356 572.376, 317.391 575.029, 316.772 575.775 C 315.947 576.768, 315.939 577.984, 316.741 580.316 C 319.401 588.053, 319.330 589.701, 316.303 590.456 C 313.034 591.272, 310 593.752, 310 595.607 C 310 596.320, 308.027 598.262, 305.615 599.921 C 303.203 601.580, 300.064 604.324, 298.638 606.018 C 296.347 608.742, 295.632 609.022, 292.483 608.431 C 288.309 607.648, 285 609.914, 285 613.556 C 285 615.063, 283.848 616.482, 281.500 617.867 C 279.575 619.003, 278 620.345, 278 620.850 C 278 622.087, 284.944 628.111, 288.682 630.116 C 290.974 631.345, 291.849 632.661, 292.338 635.616 C 292.930 639.194, 292.677 639.783, 289.130 643.081 C 287.012 645.050, 285.078 647.265, 284.833 648.001 C 284.480 649.059, 283.723 648.949, 281.231 647.478 C 278.093 645.623, 278.041 645.628, 271.288 648.362 C 267.555 649.874, 262.108 652.736, 259.184 654.723 L 253.868 658.334 249.620 656.270 C 244.607 653.835, 241.065 654.237, 237.905 657.601 C 234.979 660.716, 234.415 660.630, 233.106 656.873 C 232.118 654.041, 231.721 653.806, 228.880 654.374 C 226.240 654.902, 225.131 654.448, 221.869 651.501 C 219.738 649.575, 217.104 648, 216.016 648 C 213.508 648, 212.322 652.216, 213.873 655.621 C 215.930 660.135, 215.382 661, 210.469 661 C 207.363 661, 205.756 660.528, 205.362 659.500 C 205.045 658.675, 203.912 658, 202.844 658 C 199.490 658, 195.255 669.803, 198 671.500 C 199.655 672.523, 199.130 675.444, 196.957 677.304 C 194.396 679.497, 195.242 681, 199.036 681 C 202.310 681, 204.386 683.497, 205.481 688.750 C 206.015 691.309, 206.662 692, 208.523 692 C 212.022 692, 214.053 695.400, 212.698 698.990 C 211.446 702.306, 215.409 711.002, 221.633 718.597 C 224.901 722.586, 225.101 723.285, 225.678 732.760 C 226.416 744.871, 226.135 746.085, 221.034 752.850 C 218.815 755.793, 217 759.041, 217 760.067 C 217 761.094, 215.425 763.508, 213.500 765.433 C 208.204 770.729, 208.406 776.623, 214.017 780.512 L 218.034 783.296 213.267 786.551 C 210.645 788.341, 206.040 792.325, 203.034 795.403 C 196.822 801.764, 196.236 801.945, 193 798.500 C 187.343 792.478, 183.751 797.992, 186.728 808.129 C 188.587 814.462, 188.622 814.502, 192.549 814.817 C 194.722 814.991, 196.928 815.554, 197.450 816.067 C 197.973 816.580, 199.334 817, 200.476 817 C 202.279 817, 202.505 817.503, 202.189 820.813 C 201.876 824.094, 202.326 825.126, 205.413 828.213 C 209.771 832.571, 209.812 833.089, 205.977 835.354 C 200.282 838.718, 199.364 841.328, 201.768 847.315 C 202.913 850.167, 204.156 854.012, 204.529 855.860 C 205.124 858.809, 205.988 859.573, 211.604 862.120 C 217.295 864.700, 218 865.335, 218 867.875 C 218 871.848, 221.380 875.734, 226.054 877.134 C 228.674 877.919, 230.050 878.936, 230.150 880.158 C 230.233 881.171, 230.345 882.563, 230.400 883.250 C 230.459 883.984, 228.850 884.706, 226.500 885 C 220.856 885.705, 219.507 890.584, 223.146 897.123 C 225.505 901.360, 225.721 901.489, 229.904 901.170 C 236.434 900.671, 239 901.602, 239 904.469 C 239 905.807, 239.752 907.321, 240.670 907.835 C 242.174 908.677, 242.124 908.906, 240.170 910.126 C 238.977 910.871, 238 912.291, 238 913.280 C 238 915.295, 241.228 922.034, 244.241 926.309 C 246.166 929.040, 246.169 929.156, 244.360 930.483 C 242.783 931.640, 242.260 931.631, 240.921 930.424 C 238.401 928.151, 237.183 928.720, 234.876 933.250 C 233.685 935.587, 228.940 941.290, 224.331 945.922 C 215.525 954.773, 214.023 957.561, 215.874 961.622 C 216.758 963.564, 216.678 964.722, 215.501 966.999 C 213.187 971.473, 213.674 976.831, 217 983.500 C 218.646 986.800, 219.994 990.030, 219.996 990.677 C 219.998 991.325, 221.056 992.685, 222.346 993.700 C 223.709 994.772, 225 997.188, 225.427 999.463 C 225.941 1002.200, 227.493 1004.692, 230.581 1007.737 C 233.011 1010.133, 235 1012.731, 235 1013.511 C 235 1015.975, 238.628 1017.229, 240.458 1015.399 C 242.235 1013.622, 243.749 1014.362, 247.316 1018.750 C 248.653 1020.395, 250.207 1021, 253.096 1021 L 257.047 1021 256.374 1029.250 C 256.004 1033.788, 255.288 1037.660, 254.783 1037.856 C 251.226 1039.235, 248.900 1042.838, 248.316 1047.875 C 247.866 1051.746, 246.800 1054.419, 244.506 1057.424 C 241.748 1061.038, 241.230 1062.685, 240.643 1069.728 C 239.942 1078.139, 240.702 1080.322, 243.519 1077.985 C 244.645 1077.050, 245.873 1077.244, 249.290 1078.899 C 251.678 1080.054, 254.289 1081, 255.093 1081 C 259.490 1081, 263.857 1087.334, 264.392 1094.489 C 264.784 1099.724, 266.344 1102, 269.540 1102 C 271.374 1102, 272.174 1102.954, 273.523 1106.750 C 274.452 1109.362, 275.674 1112.482, 276.239 1113.683 C 276.804 1114.883, 276.995 1116.570, 276.665 1117.431 C 276.287 1118.415, 276.927 1119.561, 278.389 1120.519 C 280.090 1121.634, 280.587 1122.708, 280.241 1124.521 C 279.968 1125.948, 280.235 1127, 280.870 1127 C 281.477 1127, 282.625 1128.559, 283.421 1130.464 C 284.996 1134.234, 287.498 1135.360, 293.112 1134.824 C 296.411 1134.509, 296.527 1134.344, 297.516 1128.578 C 298.797 1121.105, 301.761 1119.453, 307.511 1123.007 C 311.506 1125.476, 312.460 1126.966, 313.408 1132.218 C 314.597 1138.806, 319.031 1140.969, 323.069 1136.931 C 325.023 1134.977, 325.279 1134.953, 327.640 1136.500 C 331.192 1138.827, 337.522 1140.923, 338.672 1140.152 C 339.208 1139.794, 339.944 1138.693, 340.308 1137.707 C 340.837 1136.276, 341.364 1136.124, 342.919 1136.957 C 346.051 1138.633, 347 1138.191, 347 1135.059 C 347 1131.408, 347.864 1130.863, 354.336 1130.432 C 362.225 1129.906, 364.626 1130.701, 366.927 1134.601 C 368.086 1136.566, 371.581 1139.682, 374.984 1141.785 C 378.290 1143.828, 381.236 1146.239, 381.531 1147.142 C 382.369 1149.713, 387.362 1151.412, 389.971 1150.015 C 394.197 1147.754, 403.137 1148.142, 407.158 1150.761 C 410.268 1152.788, 411.338 1153.001, 414.297 1152.184 C 417.222 1151.376, 418.091 1151.536, 419.740 1153.184 C 420.818 1154.263, 423.677 1155.589, 426.093 1156.132 C 430.071 1157.026, 430.656 1156.908, 432.300 1154.878 C 434.083 1152.676, 434.169 1152.668, 437.152 1154.431 C 439.279 1155.687, 441.286 1156.051, 443.845 1155.644 C 449.612 1154.728, 450.283 1155.795, 447.593 1161.601 C 446.312 1164.367, 443.930 1168.176, 442.301 1170.065 C 440.672 1171.954, 437.471 1177.393, 435.188 1182.152 C 431.448 1189.948, 430.590 1191.020, 426.502 1192.999 C 421.808 1195.271, 420 1197.451, 420 1200.835 C 420 1202.920, 412.906 1213.112, 407.319 1219.054 C 404.181 1222.391, 401.080 1231.859, 401.017 1238.290 C 401.008 1239.275, 400.051 1241.365, 398.891 1242.934 C 397.365 1244.998, 396.310 1249.096, 395.075 1257.752 C 393.824 1266.521, 392.811 1270.425, 391.281 1272.370 C 390.133 1273.829, 388.639 1277.380, 387.961 1280.262 C 386.593 1286.075, 384.606 1290.284, 380.057 1297 C 376.417 1302.374, 376.112 1307.613, 378.586 1322.260 C 380.053 1330.939, 380.047 1331.947, 378.512 1335.575 C 375.427 1342.866, 371.827 1358.370, 372.391 1361.936 C 372.810 1364.583, 372.239 1366.587, 369.901 1370.673 C 368.108 1373.807, 367.183 1376.492, 367.640 1377.238 C 368.064 1377.932, 369.924 1380.485, 371.771 1382.912 C 373.619 1385.339, 376.234 1389.501, 377.582 1392.162 C 380.225 1397.377, 381.334 1397.913, 384.171 1395.345 C 386.459 1393.275, 386.613 1395.135, 384.430 1398.466 C 382.940 1400.740, 382.992 1400.949, 385.449 1402.559 C 390.075 1405.590, 399.037 1402.662, 401.009 1397.476 C 403.065 1392.068, 410.735 1392.852, 413.474 1398.750 C 415.419 1402.936, 415.524 1402.999, 420.474 1402.956 C 427.561 1402.895, 434.191 1401.459, 435.471 1399.709 C 438.394 1395.712, 446.068 1390.966, 447.966 1391.982 C 449.013 1392.542, 450.935 1393, 452.238 1393 C 453.633 1393, 456.003 1394.439, 458 1396.500 C 461.685 1400.302, 463.463 1400.721, 466.420 1398.484 C 467.722 1397.498, 469.561 1397.226, 472.132 1397.637 C 475.670 1398.203, 476.063 1398.007, 478.008 1394.711 C 479.154 1392.768, 480.746 1390.928, 481.546 1390.621 C 485.088 1389.262, 480.724 1382.197, 475.340 1380.574 C 470.841 1379.217, 470.277 1377.035, 473.647 1374.024 C 475.340 1372.511, 477.559 1369.862, 478.578 1368.137 C 479.795 1366.077, 481.216 1365, 482.716 1365 C 485.027 1365, 489 1361.839, 489 1360 C 489 1357.817, 491.624 1359.216, 493.784 1362.550 C 495.040 1364.489, 496.499 1365.810, 497.025 1365.484 C 499.148 1364.173, 502.936 1368.407, 502.969 1372.128 C 503.006 1376.414, 504.279 1377.694, 508.970 1378.157 C 511.796 1378.436, 512.511 1378.129, 512.817 1376.500 C 513.025 1375.400, 513.590 1374.083, 514.073 1373.574 C 515.213 1372.373, 519 1375.749, 519 1377.966 C 519 1383.607, 527.371 1386.401, 532.866 1382.593 C 537.637 1379.287, 541.586 1379.296, 549.922 1382.635 C 554.920 1384.637, 558.029 1385.229, 562.867 1385.098 C 570.648 1384.888, 578.120 1386.961, 588 1392.073 C 592.125 1394.206, 596.686 1396.184, 598.135 1396.466 C 600.364 1396.901, 600.871 1397.654, 601.426 1401.355 C 602.517 1408.630, 603.472 1409.301, 610.477 1407.710 C 616.400 1406.365, 616.447 1406.325, 618.634 1400.928 C 620.309 1396.796, 621.272 1395.576, 622.667 1395.819 C 624.886 1396.206, 627 1398.766, 627 1401.069 C 627 1403.829, 629.400 1405.179, 632.329 1404.065 C 633.748 1403.526, 636.813 1403.414, 639.169 1403.816 C 642.862 1404.446, 643.562 1404.976, 644.354 1407.739 C 645.058 1410.195, 646.107 1411.202, 648.885 1412.093 C 652.102 1413.124, 656.868 1417.320, 656.964 1419.205 C 656.984 1419.592, 655.875 1421.034, 654.500 1422.409 C 651.398 1425.512, 651.304 1428.499, 654.250 1430.424 C 657.141 1432.313, 663.855 1432.698, 666.749 1431.141 L 668.999 1429.930 668.422 1436.886 C 667.550 1447.395, 670.373 1450.641, 676.318 1445.964 C 677.742 1444.845, 680.200 1443.478, 681.780 1442.927 C 684.442 1441.999, 695 1430.117, 695 1428.049 C 695 1427.557, 696.059 1425.881, 697.353 1424.327 C 700.505 1420.540, 701.721 1411.750, 699.551 1408.438 C 698.284 1406.504, 698.222 1405.579, 699.206 1403.290 C 700.890 1399.373, 700.876 1399.378, 702.580 1401.810 C 704.455 1404.487, 706.470 1404.566, 711.015 1402.139 C 712.932 1401.116, 717.088 1400.066, 720.250 1399.807 C 725.851 1399.348, 726.049 1399.418, 727.878 1402.518 C 730.943 1407.713, 737.666 1408.224, 739.851 1403.428 C 740.837 1401.264, 741.216 1401.118, 742.986 1402.224 C 745.460 1403.768, 745.527 1404.887, 743.250 1406.581 C 740.927 1408.309, 742.688 1411.378, 746.247 1411.806 C 749.792 1412.233, 751.871 1414.886, 753.978 1421.671 L 755.789 1427.500 763.599 1427.128 C 769.038 1426.869, 772.183 1426.210, 773.955 1424.957 C 775.355 1423.967, 777.962 1422.861, 779.750 1422.499 C 782.747 1421.892, 783 1422.042, 783 1424.421 C 783 1427.750, 785.356 1427.802, 790.102 1424.576 C 792.064 1423.243, 795.381 1421.832, 797.472 1421.439 C 799.564 1421.047, 802.676 1419.434, 804.388 1417.856 L 807.500 1414.987 805.236 1413.072 L 802.972 1411.156 805.979 1409.015 C 807.683 1407.802, 809.515 1407.200, 810.207 1407.628 C 811.903 1408.676, 820.204 1409.859, 821.737 1409.271 C 822.432 1409.004, 823 1408.137, 823 1407.343 C 823 1405.342, 825.825 1399.947, 828.280 1397.262 C 830.230 1395.129, 830.838 1395.052, 841.226 1395.610 C 850.126 1396.088, 852.436 1395.919, 853.813 1394.687 C 856.502 1392.284, 866.332 1389.800, 869.107 1390.823 C 873.470 1392.431, 890.804 1391.625, 892.703 1389.726 C 894.271 1388.157, 894.243 1387.774, 892.270 1383.775 C 889.016 1377.182, 889.077 1375.915, 892.750 1373.740 L 896 1371.816 896 1375.389 C 896 1379.336, 896.080 1379.378, 905.790 1380.479 C 910.181 1380.977, 911.583 1380.721, 914.039 1378.972 L 916.999 1376.865 920.149 1381.932 C 921.881 1384.720, 924.019 1387.006, 924.899 1387.014 C 925.780 1387.021, 927.529 1387.303, 928.787 1387.640 C 930.585 1388.122, 931.867 1387.394, 934.787 1384.235 C 938.028 1380.728, 939.136 1380.176, 943.500 1379.896 C 949.881 1379.486, 954.642 1381.899, 956.575 1386.525 C 957.916 1389.735, 957.858 1390.051, 955.496 1392.413 C 954.123 1393.786, 953 1395.380, 953 1395.955 C 953 1397.671, 956.861 1401, 958.851 1401 C 959.870 1401, 963.428 1403.700, 966.759 1407 C 970.090 1410.300, 973.671 1413, 974.716 1413 C 975.762 1413, 977.491 1413.661, 978.559 1414.468 C 981.484 1416.681, 982.833 1416.322, 985.011 1412.750 C 986.347 1410.558, 986.996 1407.709, 987.002 1404 C 987.008 1400.975, 987.685 1397.211, 988.506 1395.636 C 989.328 1394.060, 990 1391.846, 990 1390.714 C 990 1389.583, 990.704 1387.879, 991.565 1386.928 C 993.178 1385.146, 992.143 1377.825, 990.100 1376.562 C 989.634 1376.274, 988.038 1373.555, 986.553 1370.519 C 984.286 1365.886, 983.423 1364.998, 981.176 1364.985 C 975.799 1364.954, 975.395 1363.575, 979.352 1358.746 C 981.358 1356.298, 983 1353.289, 983 1352.061 C 983 1348.169, 976.694 1336.904, 972.504 1333.313 C 970.075 1331.231, 968.105 1328.448, 967.479 1326.216 C 966.809 1323.830, 965.254 1321.740, 963.036 1320.245 C 959.224 1317.676, 956.695 1311.985, 957.550 1307.897 C 958.397 1303.848, 967.666 1294, 970.630 1294 C 974.806 1294, 978.747 1291.298, 979.968 1287.597 C 981.038 1284.354, 985.912 1281.209, 987.932 1282.458 C 988.318 1282.697, 990.629 1282.182, 993.067 1281.315 C 995.505 1280.447, 999.075 1279.618, 1001 1279.473 C 1011.644 1278.670, 1016.300 1277.309, 1018.370 1274.396 C 1019.502 1272.803, 1022.357 1269.513, 1024.714 1267.085 C 1028.775 1262.902, 1029 1262.362, 1029 1256.795 C 1029 1252.305, 1029.520 1250.215, 1031.205 1247.937 C 1032.924 1245.612, 1033.381 1243.701, 1033.277 1239.277 C 1033.064 1230.177, 1035.912 1227.710, 1041.846 1231.853 C 1043.306 1232.873, 1046.265 1233.982, 1048.422 1234.319 C 1051.028 1234.725, 1053.559 1236.116, 1055.964 1238.465 C 1060.640 1243.031, 1061.108 1242.953, 1064.809 1237 C 1066.802 1233.795, 1068.612 1232, 1069.852 1232 C 1072.513 1232, 1073.141 1229.951, 1073.746 1219.280 C 1074.173 1211.755, 1073.965 1209.595, 1072.612 1207.530 C 1071.700 1206.139, 1071.404 1205, 1071.954 1205 C 1072.504 1205, 1073.719 1203.833, 1074.654 1202.406 C 1076.460 1199.649, 1076.478 1199.726, 1071.889 1190.764 C 1071.400 1189.809, 1071 1188.176, 1071 1187.136 C 1071 1186.096, 1070.299 1184.663, 1069.442 1183.952 C 1068.585 1183.241, 1067.258 1181.161, 1066.493 1179.330 C 1065.287 1176.442, 1064.630 1176, 1061.548 1176 C 1057.987 1176, 1052.015 1170.975, 1049.629 1165.969 C 1047.724 1161.974, 1039.115 1160.447, 1037.423 1163.804 L 1036.262 1166.108 1031.695 1162.304 C 1028.015 1159.239, 1027.115 1157.859, 1027.064 1155.200 C 1026.980 1150.867, 1024.781 1146.756, 1021.651 1145.081 C 1020.266 1144.339, 1018.590 1142.426, 1017.929 1140.828 C 1016.503 1137.386, 1014.115 1135.896, 1011.232 1136.650 C 1008.366 1137.399, 1003.142 1134.138, 1001.381 1130.500 C 999.898 1127.438, 997.518 1122.693, 996.114 1120 C 995.684 1119.175, 993.704 1117.608, 991.715 1116.518 C 988.793 1114.917, 987.969 1113.778, 987.431 1110.590 C 986.095 1102.685, 977.319 1097.005, 965.809 1096.596 C 959.791 1096.383, 958.731 1096.050, 957.298 1093.926 C 956.398 1092.592, 952.764 1088.770, 949.221 1085.433 C 942.860 1079.440, 942.778 1079.294, 942.523 1073.562 C 942.293 1068.383, 941.925 1067.492, 939.113 1065.291 C 933.888 1061.202, 933.281 1058.918, 933.656 1044.750 C 933.994 1031.979, 933.547 1030.305, 930.450 1032.750 C 929.928 1033.162, 925.900 1033.275, 921.500 1033 C 914.440 1032.559, 913.911 1032.398, 917 1031.635 C 921.452 1030.534, 923 1029.270, 923 1026.737 C 923 1025.627, 923.872 1022.870, 924.938 1020.610 C 932.101 1005.418, 933 999, 927.965 999 C 926.376 999, 926 998.312, 926 995.406 C 926 992.689, 925.526 991.689, 924.057 991.305 C 922.869 990.994, 921.994 989.767, 921.807 988.148 C 921.552 985.951, 920.650 985.218, 916.513 983.846 C 913.770 982.937, 910.358 981.024, 908.930 979.596 C 907.502 978.168, 905.614 977, 904.734 977 C 903.854 977, 902.860 976.134, 902.524 975.077 C 902.189 974.019, 900.585 971.854, 898.961 970.267 C 896.523 967.882, 895.893 966.267, 895.340 960.980 C 894.839 956.189, 894.084 953.993, 892.336 952.245 C 891.051 950.960, 890 949.280, 890 948.511 C 890 946.797, 886.179 944, 883.837 944 C 880.971 944, 880.713 942.060, 883.440 941.023 C 886.172 939.984, 886.766 937.300, 884.996 933.993 C 884.200 932.506, 884.459 931.790, 886.246 930.528 C 888.352 929.043, 888.615 929.079, 890.250 931.080 C 891.212 932.258, 892 934.308, 892 935.636 C 892 937.290, 892.786 938.348, 894.500 939 C 896.361 939.708, 897 940.680, 897 942.806 C 897 944.839, 897.730 946.053, 899.535 947.019 C 901.249 947.936, 901.855 948.881, 901.406 949.938 C 899.525 954.367, 899.762 955.959, 902.452 956.982 C 905.817 958.261, 905.570 958.287, 907.403 956.454 C 908.531 955.326, 908.792 953.761, 908.368 950.665 C 907.929 947.467, 908.182 946.094, 909.393 945.089 C 910.277 944.355, 911 943.094, 911 942.285 C 911 941.477, 911.900 939.671, 913 938.273 C 914.100 936.874, 915 935.116, 915 934.365 C 915 933.614, 915.487 933, 916.082 933 C 916.677 933, 919.152 931.371, 921.582 929.380 C 925.834 925.895, 926 925.551, 926 920.249 L 926 914.738 929.750 915.540 C 931.813 915.981, 935.750 916.431, 938.500 916.540 C 941.250 916.648, 944.295 917.072, 945.267 917.482 C 946.528 918.014, 947.609 917.496, 949.043 915.673 C 951.205 912.925, 954.405 911.457, 957.310 911.881 C 958.305 912.027, 959.691 911.671, 960.390 911.091 C 961.330 910.311, 962.404 910.812, 964.518 913.018 C 971.667 920.480, 985 914.280, 985 903.494 C 985 900.682, 986.719 899.319, 988.287 900.887 C 989.834 902.434, 992.525 902.277, 993.953 900.556 C 994.916 899.396, 995.653 899.340, 997.698 900.272 C 1000.816 901.693, 1003.549 898.815, 1007.642 889.798 C 1010.015 884.570, 1010.453 884.141, 1012.917 884.633 C 1015.016 885.053, 1016.741 884.272, 1020.802 881.062 C 1025.827 877.090, 1026 877.034, 1026 879.366 C 1026 880.693, 1026.814 882.784, 1027.810 884.013 C 1031.425 888.477, 1036.427 883.662, 1040.808 871.500 C 1042.434 866.988, 1042.879 866.529, 1045.368 866.798 C 1047.299 867.006, 1049.172 866.178, 1051.610 864.038 C 1054.525 861.478, 1055.426 861.158, 1057.137 862.073 C 1058.639 862.877, 1059.949 862.849, 1062.077 861.968 C 1063.850 861.234, 1066.704 861.028, 1069.439 861.439 C 1073.581 862.060, 1075.671 861.431, 1079.935 858.284 C 1080.175 858.107, 1080.625 856.078, 1080.935 853.775 C 1081.465 849.845, 1081.743 849.537, 1085.450 848.768 C 1087.622 848.317, 1090.217 847.209, 1091.216 846.305 C 1092.903 844.778, 1093.122 844.784, 1094.294 846.387 C 1095.475 848.002, 1095.909 847.949, 1101.028 845.567 C 1104.038 844.166, 1107.175 843.005, 1108 842.986 C 1111.724 842.904, 1119.500 837.497, 1119.500 834.990 C 1119.500 833.097, 1119.980 832.550, 1121.500 832.708 C 1128.496 833.437, 1135.330 832.518, 1136.875 830.641 C 1137.392 830.014, 1137.969 827.940, 1138.157 826.032 C 1138.449 823.077, 1138.094 822.367, 1135.750 821.228 C 1134.237 820.492, 1133 819.496, 1133 819.013 C 1133 818.530, 1132.149 817.865, 1131.108 817.534 C 1130.067 817.204, 1128.970 815.993, 1128.669 814.843 C 1128.233 813.174, 1127.611 812.881, 1125.584 813.390 C 1123.456 813.924, 1122.942 813.618, 1122.411 811.502 C 1122.063 810.114, 1120.472 808.048, 1118.877 806.912 C 1117.282 805.776, 1116.270 804.372, 1116.629 803.792 C 1117.710 802.043, 1129.683 803.638, 1132.954 805.967 C 1136.135 808.232, 1138.637 808.588, 1139.214 806.857 C 1139.498 806.005, 1140.157 806.014, 1141.798 806.892 C 1143.249 807.668, 1144.601 807.749, 1145.761 807.128 C 1151.132 804.254, 1156.074 809.915, 1156.997 820 C 1157.464 825.104, 1157.697 825.523, 1160.236 825.815 L 1162.972 826.130 1161.470 829.726 C 1159.682 834.006, 1160.295 836.643, 1163.301 837.593 C 1164.511 837.975, 1166.952 839.394, 1168.727 840.745 C 1176.772 846.871, 1185 845.048, 1185 837.140 C 1185 834.527, 1185.983 832.460, 1188.839 829.064 C 1193.670 823.320, 1194.675 821.413, 1196.009 815.462 C 1196.614 812.762, 1198.374 809.199, 1200.041 807.300 C 1202.312 804.714, 1203.003 802.950, 1203.011 799.715 C 1203.017 797.397, 1203.692 793.291, 1204.511 790.591 C 1205.330 787.891, 1206 782.884, 1206 779.463 C 1206 776.043, 1206.675 771.629, 1207.500 769.654 C 1209.541 764.770, 1209.395 762.861, 1206.675 758.852 C 1203.661 754.412, 1201.768 746.390, 1201.516 737 C 1201.231 726.330, 1200.865 725.651, 1193.722 722.524 C 1185.733 719.025, 1175.763 714.022, 1174.577 712.915 C 1174.022 712.397, 1174.673 710.144, 1176.206 707.277 C 1179.060 701.935, 1181.499 692.743, 1180.650 690.529 C 1180.344 689.733, 1177.831 687.935, 1175.065 686.533 C 1168.734 683.325, 1167.298 681.108, 1166.300 673 C 1165.613 667.415, 1165.198 666.457, 1163.352 666.194 C 1159.902 665.702, 1159.737 662.323, 1163.048 659.966 C 1167.673 656.672, 1176.578 641.155, 1175.152 638.872 C 1173.421 636.100, 1173.716 634.732, 1176.972 630.428 C 1181.034 625.060, 1180.800 623.191, 1175.480 618.500 C 1171.496 614.987, 1170.948 614.013, 1170.983 610.500 C 1171.037 605.123, 1171.725 596.511, 1172.547 590.931 C 1173.411 585.061, 1171.825 583.372, 1164.605 582.470 C 1158.615 581.721, 1158 580.709, 1158 571.585 C 1158 569.294, 1157.328 564.839, 1156.506 561.684 L 1155.012 555.948 1158.036 550.590 C 1160.577 546.089, 1160.955 544.571, 1160.401 541.106 C 1159.847 537.642, 1160.163 536.372, 1162.375 533.181 C 1164.966 529.441, 1164.983 529.307, 1163.441 524.781 C 1162.016 520.599, 1161.372 519.977, 1156.347 517.938 C 1153.307 516.704, 1150.599 515.118, 1150.328 514.413 C 1150.058 513.708, 1147.460 511.494, 1144.556 509.494 C 1140.706 506.842, 1138.637 504.495, 1136.921 500.830 C 1134.366 495.375, 1130.867 492, 1127.767 492 C 1126.686 492, 1123.659 489.679, 1121.029 486.833 C 1116.848 482.310, 1115.797 481.684, 1112.584 481.804 C 1107.753 481.986, 1107.147 480.171, 1109.856 473.634 C 1111.251 470.268, 1112 466.323, 1112 462.339 C 1112 456.835, 1112.227 456.156, 1114.250 455.615 C 1115.487 455.284, 1119.790 452.252, 1123.810 448.877 C 1133.826 440.469, 1136.217 435.636, 1136.517 423.190 C 1136.720 414.786, 1136.987 413.617, 1139.257 411.190 C 1145.716 404.282, 1146.307 399.753, 1141.500 394 C 1139.096 391.122, 1138 388.805, 1138 386.598 C 1138 380.900, 1134.225 362.637, 1131.880 356.988 C 1130.479 353.615, 1129.304 348.032, 1128.829 342.500 C 1127.559 327.690, 1126.855 323, 1125.903 323 C 1125.407 323, 1125 320.546, 1125 317.547 C 1125 308.559, 1122.640 305.292, 1118.441 308.468 C 1115.754 310.501, 1105.071 310.435, 1100.284 308.357 C 1084.789 301.630, 1081.750 299.528, 1080.615 294.750 C 1079.980 292.075, 1080.080 292, 1084.258 292 C 1086.622 292, 1089.443 291.397, 1090.527 290.660 C 1093.356 288.740, 1103.524 286.999, 1110.345 287.269 L 1116.189 287.500 1118.080 281.500 C 1120.990 272.266, 1120.906 272.039, 1112.377 265.946 C 1108.185 262.951, 1102.897 258.697, 1100.627 256.493 C 1098.357 254.289, 1092.225 249.687, 1087 246.266 C 1079.303 241.226, 1076.974 239.104, 1074.726 235.083 C 1070.473 227.474, 1066 226.949, 1066 234.059 C 1066 238.953, 1064.815 239.054, 1061.942 234.407 C 1059.991 231.249, 1059.317 230.861, 1056.388 231.203 C 1053.481 231.542, 1052.929 231.234, 1052.079 228.796 C 1050.926 225.490, 1049.936 225.308, 1047.534 227.962 C 1046.557 229.042, 1044.125 230.454, 1042.129 231.101 C 1036.151 233.039, 1032.751 235.916, 1033.264 238.603 C 1033.510 239.888, 1033.326 240.702, 1032.856 240.411 C 1032.385 240.120, 1032 238.611, 1032 237.057 C 1032 233.806, 1025.286 227, 1022.079 227 C 1017.093 227, 1015.540 224.271, 1018.601 220.888 C 1019.881 219.474, 1021.187 219.235, 1025.101 219.698 C 1029.650 220.237, 1030 220.122, 1030 218.092 C 1030 216.889, 1028.809 214.801, 1027.354 213.452 C 1025.698 211.917, 1025.230 210.986, 1026.104 210.961 C 1026.872 210.940, 1028.404 209.478, 1029.509 207.711 C 1030.676 205.846, 1033.984 203.188, 1037.402 201.371 C 1040.638 199.650, 1043.693 197.513, 1044.192 196.622 C 1044.983 195.209, 1045.387 195.338, 1047.363 197.636 C 1049.351 199.947, 1049.905 200.121, 1051.892 199.058 C 1054.113 197.869, 1054.152 197.939, 1053.897 202.726 C 1053.581 208.686, 1054.305 210, 1057.904 210 C 1064.203 210, 1068.443 197.659, 1064.311 191.352 C 1063.320 189.840, 1062.715 187.201, 1062.847 184.968 C 1063.130 180.167, 1062.423 179.767, 1056.693 181.492 C 1052.094 182.876, 1052.014 182.860, 1049.143 179.989 C 1046.707 177.553, 1045.679 177.178, 1042.747 177.654 C 1040.778 177.973, 1038.974 177.768, 1038.613 177.182 C 1037.960 176.126, 1039.062 175.638, 1044.607 174.527 C 1046.316 174.184, 1049.365 172.391, 1051.383 170.543 C 1054.857 167.362, 1055.072 166.799, 1055.410 160.022 C 1055.758 153.054, 1055.696 152.837, 1053.134 151.931 C 1051.685 151.418, 1049.704 150.541, 1048.732 149.980 C 1047.397 149.210, 1046.003 149.514, 1043.038 151.221 C 1038.976 153.558, 1039.052 153.563, 1031.758 150.519 C 1029.313 149.499, 1028.466 152.297, 1030.058 156.141 C 1030.859 158.074, 1032.600 159.771, 1034.672 160.636 C 1039.180 162.520, 1039.291 166.281, 1034.907 168.548 C 1031.251 170.438, 1030.887 170.192, 1030.050 165.261 C 1029.507 162.059, 1029.065 161.539, 1027.075 161.761 C 1024.037 162.101, 1022.082 159.399, 1022.225 155.056 C 1022.288 153.162, 1021.813 151.438, 1021.171 151.224 C 1020.336 150.945, 1020.430 150.224, 1021.501 148.695 C 1022.326 147.518, 1023 145.539, 1023 144.298 C 1023 142.683, 1024.103 141.478, 1026.874 140.064 C 1031.019 137.950, 1035.070 130.670, 1033.163 128.763 C 1032.127 127.727, 1017.618 130.334, 1012.392 132.495 C 1007.992 134.313, 1005 137.884, 1005 141.314 C 1005 144.022, 1005.226 144.205, 1007.907 143.669 L 1010.815 143.087 1009.810 146.794 C 1008.072 153.208, 1005.149 157.150, 1002.988 155.994 C 1000.231 154.518, 998 154.789, 998 156.599 C 998 159.678, 1001.121 164.734, 1003.798 165.993 C 1005.476 166.781, 1006.004 167.441, 1005.192 167.734 C 1004.473 167.993, 1003.039 167.440, 1002.005 166.505 C 999.738 164.453, 998.661 164.989, 997.001 168.997 C 994.986 173.862, 997.995 180.773, 1002.310 181.191 C 1004.835 181.436, 1005.573 182.015, 1005.849 183.972 C 1006.040 185.331, 1006.828 187.344, 1007.599 188.444 C 1009.981 191.846, 1009.259 192.229, 1001.863 191.486 L 994.725 190.769 995.387 193.405 C 996.170 196.527, 994.573 200, 992.354 200 C 991.061 200, 990.917 199.324, 991.551 196.250 C 993.077 188.849, 992.794 187.732, 989.148 186.772 C 986.446 186.061, 985.912 185.513, 986.398 183.945 C 986.729 182.875, 987.276 181.105, 987.613 180.012 C 988.650 176.655, 985.514 176.613, 978.575 179.891 C 973.787 182.153, 971.634 183.827, 970.418 186.232 C 966.854 193.283, 960 197.078, 960 192 C 960 190.459, 960.667 190, 962.902 190 C 965.269 190, 966.010 189.409, 966.922 186.793 C 967.537 185.029, 968.988 182.577, 970.147 181.344 C 974.264 176.961, 972.441 176.248, 957.040 176.212 C 945.264 176.185, 942.476 175.887, 940.226 174.413 C 937.756 172.794, 932.285 171.178, 927.637 170.694 C 926.219 170.546, 925.004 172.239, 922.547 177.788 C 920.771 181.796, 917.894 186.546, 916.152 188.343 C 913.860 190.708, 912.918 192.689, 912.743 195.517 C 912.416 200.773, 914.852 201.286, 917.428 196.503 C 918.480 194.550, 920.276 192.768, 921.420 192.542 C 931.216 190.609, 931.181 190.568, 925.305 197 C 913.811 209.580, 913.001 210.257, 912.986 207.298 C 912.955 200.797, 910.629 197.645, 909.420 202.463 C 909.039 203.982, 907.045 205.956, 904.218 207.613 C 901.697 209.090, 895.836 214.088, 891.194 218.720 C 883.066 226.830, 882.651 227.098, 879.959 225.983 C 877.518 224.972, 875.921 225.319, 867.332 228.729 C 859.201 231.957, 856.462 232.593, 851.500 232.402 C 848.200 232.276, 842.013 232.635, 837.752 233.201 C 830.278 234.193, 829.896 234.376, 826.940 238.365 C 823.911 242.454, 823.704 244.038, 825.475 249.567 C 826.024 251.279, 825.431 251.953, 822.022 253.490 C 819.335 254.702, 817.059 256.760, 815.463 259.423 C 813.266 263.088, 813.016 263.248, 812.994 261 C 812.956 257.130, 811.241 255.030, 809.932 257.250 C 809.365 258.212, 807.895 259, 806.666 259 C 804.205 259, 801 263.437, 801 266.845 C 801 269.481, 800.661 269.640, 793.269 270.482 L 787.038 271.192 787.269 267.346 C 787.482 263.794, 787.309 263.518, 785 263.741 C 783.125 263.921, 781.997 263.171, 780.487 260.741 C 778.922 258.222, 777.697 257.443, 774.987 257.244 C 773.069 257.103, 769.895 256.496, 767.933 255.894 C 764.891 254.962, 763.788 255.110, 760.447 256.900 C 758.293 258.055, 756.014 259, 755.383 259 C 754.267 259, 749.727 264.291, 747.285 268.437 C 746.155 270.357, 746.068 270.278, 746.035 267.287 C 746.003 264.377, 745.458 263.811, 740.250 261.287 C 733.256 257.897, 730.807 254.181, 734.346 252.327 C 735.595 251.672, 737.143 249.981, 737.787 248.569 C 739.108 245.670, 740.614 245.394, 743.441 247.532 C 746.250 249.656, 746.738 249.434, 749 245 C 750.123 242.799, 752.737 239.928, 754.810 238.620 C 759.783 235.481, 768.835 225.508, 769.646 222.273 C 770 220.864, 769.887 214.579, 769.395 208.306 C 768.509 197.012, 768.523 196.887, 770.828 195.377 C 772.108 194.538, 773.615 192.535, 774.176 190.926 C 774.912 188.814, 775.848 188, 777.539 188 C 778.828 188, 780.160 187.550, 780.500 187 C 781.338 185.644, 786.331 185.731, 787.727 187.127 C 788.363 187.763, 789.973 187.973, 791.427 187.608 C 794.764 186.770, 794.721 184.694, 791.157 174.500 C 788.535 167.003, 788.081 166.362, 783.930 164.309 C 781.493 163.104, 778.600 162.081, 777.500 162.037 C 776.400 161.992, 774.375 161.076, 773 160 C 769.994 157.648, 768.031 157.510, 765.441 159.467 C 764.187 160.414, 762.347 160.728, 760.239 160.353 C 755.755 159.556, 754 161.297, 754 166.545 C 754 173.184, 759.279 179.612, 764.393 179.199 L 768.120 178.898 767.810 183.133 C 767.535 186.883, 767.157 187.460, 764.500 188.182 C 762.703 188.670, 760.450 188.570, 758.882 187.932 C 754.283 186.061, 745.454 189.321, 742.516 193.975 C 739.562 198.654, 735.033 202, 731.655 202 C 730.260 202, 728.850 202.433, 728.523 202.962 C 727.475 204.658, 723.740 202.165, 715.194 194.066 C 709.236 188.419, 706.017 186.102, 703.583 185.707 C 701.730 185.407, 698.375 183.999, 696.127 182.580 C 693.879 181.161, 691.186 180, 690.142 180 C 689.098 180, 686.604 179.315, 684.599 178.477 C 680.183 176.632, 678.932 177.181, 673.084 183.524 L 668.794 188.179 669.387 184.339 C 669.926 180.844, 669.582 180.052, 665.547 175.500 L 661.114 170.500 652.119 170.500 C 643.190 170.500, 643.137 170.485, 644.927 168.500 C 650.336 162.498, 652.084 157.500, 652.242 147.583 C 652.335 141.767, 651.964 137.564, 651.300 136.900 C 650.507 136.107, 650.656 135.020, 651.840 132.955 C 653.420 130.203, 653.387 130.011, 650.859 127.303 C 649.420 125.761, 647.924 122.715, 647.535 120.532 C 647.039 117.750, 645.548 115.285, 642.545 112.282 C 637.305 107.041, 636.439 106.978, 635.317 111.750 C 633.970 117.482, 630.409 117.453, 626.338 111.678 C 623.971 108.319, 622.372 107.105, 619.643 106.593 C 617.671 106.223, 615.444 105.044, 614.694 103.974 C 613.142 101.758, 605.463 98.746, 603.083 99.419 C 602.212 99.665, 597.225 100.164, 592 100.528 C 583.937 101.089, 582.122 101.544, 580 103.537 C 578.117 105.305, 576.170 105.944, 572.110 106.127 C 566.267 106.391, 564.528 105.115, 559.450 96.840 C 557.437 93.560, 557.288 93.505, 551.118 93.797 C 544.663 94.101, 538.479 91.692, 535.021 87.525 C 533.667 85.894, 522.886 86.243, 520.500 87.995 C 517.927 89.884, 508.108 89.840, 504.347 87.922 C 499.570 85.486, 495.152 85.411, 494.298 87.750 M 495.188 91.960 C 491.738 96.626, 492.293 100.792, 497.012 105.654 C 500.215 108.954, 501.251 110.969, 502.149 115.644 C 502.822 119.151, 504.130 122.334, 505.407 123.578 C 506.581 124.720, 508.344 127.437, 509.326 129.614 C 510.308 131.792, 512.099 134.007, 513.306 134.537 C 514.513 135.067, 516.625 137.792, 518 140.594 C 519.375 143.395, 521.513 146.943, 522.750 148.478 C 526.568 153.215, 525.805 157.097, 519.916 162.893 C 515.754 166.991, 514.958 168.314, 515.524 170.199 C 516.583 173.726, 518.427 175.162, 522.125 175.339 C 525.332 175.492, 525.646 175.189, 528.428 169.250 C 531.634 162.408, 534.097 161.240, 537.467 164.963 C 540.431 168.239, 536.800 174.889, 527.810 182.648 C 523.274 186.563, 517.383 187.766, 513.239 185.624 C 510.677 184.299, 509.625 184.280, 505.092 185.476 C 497.633 187.443, 494.764 190.182, 499 191.290 C 503.275 192.408, 498.733 198, 493.550 198 C 490.516 198, 491.544 205.539, 494.904 207.932 C 498.405 210.424, 500 210.560, 500 208.364 C 500 207, 500.749 206.831, 504.500 207.345 C 507.096 207.701, 509 207.562, 509 207.016 C 509 204.738, 513.090 203.829, 515.685 205.529 C 517.668 206.829, 519.434 207.051, 523.618 206.529 C 527.854 205.999, 529 206.150, 529 207.237 C 529 209.775, 526.436 212.163, 522.951 212.871 L 519.500 213.571 518.608 223.858 C 517.552 236.026, 518.264 237.645, 523.951 236.014 C 528.080 234.830, 530.368 236.294, 529.716 239.703 C 529.398 241.371, 530.386 243.292, 533.217 246.509 C 536.528 250.271, 537.058 251.461, 536.516 253.926 C 535.436 258.843, 533.943 259.339, 527.127 257.043 C 523.792 255.919, 520.824 255, 520.532 255 C 519.279 255, 520.203 258.182, 523 263.500 C 524.650 266.637, 526 270.703, 526 272.536 C 526 280.001, 527.119 281.014, 535.225 280.888 C 557.779 280.537, 570.489 282.703, 576.059 287.848 C 577.638 289.307, 581.006 294.550, 583.543 299.500 C 586.081 304.450, 589.862 310.625, 591.946 313.222 C 594.696 316.649, 595.912 319.277, 596.380 322.809 C 597.158 328.673, 597.770 329.276, 613.267 339.428 C 624.114 346.535, 626.433 349, 622.273 349 C 621.388 349, 615.677 346.716, 609.582 343.925 C 597.177 338.245, 593.235 334.846, 590.454 327.430 C 589.437 324.718, 586.635 320.055, 584.227 317.066 C 581.820 314.078, 578.039 308.333, 575.826 304.300 C 568.799 291.497, 559.262 288.010, 543.773 292.580 C 536.500 294.726, 531.748 295.415, 521.745 295.776 C 506.835 296.315, 506.987 296.385, 502.786 287.024 C 501.188 283.462, 499.717 280.384, 499.518 280.185 C 498.589 279.256, 491.460 288.644, 489.926 292.816 C 479.388 321.480, 478.875 323.331, 480.493 326.819 C 481.340 328.644, 481.808 330.501, 481.533 330.946 C 481.259 331.391, 482.135 333.272, 483.481 335.127 C 490.633 344.986, 493.296 351.081, 491.055 352.466 C 489.239 353.588, 477.093 349.869, 476.503 348.010 C 476.150 346.897, 474.522 346.019, 472.092 345.631 C 469.530 345.221, 467.695 344.184, 466.614 342.534 C 465.050 340.146, 454.378 334.289, 453.391 335.276 C 452.768 335.898, 452.589 339.196, 452.817 345.829 L 453 351.159 456.041 350.491 C 460.174 349.583, 462 351.341, 462 356.228 C 462 359.018, 461.251 361.101, 459.500 363.182 C 458.125 364.816, 456.997 366.681, 456.994 367.327 C 456.948 377.059, 447.379 380.836, 445.015 372.056 C 443.504 366.443, 441.702 365.295, 437.530 367.284 C 434.704 368.632, 433.973 368.673, 433.030 367.536 C 431.283 365.431, 430.722 359.804, 431.942 356.626 C 432.966 353.958, 433.326 353.797, 436.971 354.379 C 443.442 355.414, 443.553 353.347, 437.640 341.870 C 434.307 335.402, 431.984 332, 430.900 332 C 428.147 332, 426.719 329.239, 426.094 322.710 C 425.520 316.714, 425.397 316.488, 422.500 316.143 C 418.404 315.655, 403.383 317.942, 399.201 319.689 C 397.233 320.512, 394.580 320.847, 392.921 320.483 C 391.047 320.071, 389.269 320.399, 387.802 321.426 C 386.566 322.292, 383.892 323, 381.859 323 C 379.825 323, 376.868 323.742, 375.287 324.650 C 372.593 326.196, 371.725 326.172, 361.471 324.268 L 350.530 322.237 344.193 325.868 C 337.622 329.634, 325 339.530, 325 340.917 C 325 341.352, 326.125 342.922, 327.500 344.405 C 328.875 345.889, 330 347.550, 330 348.097 C 330 349.750, 325.335 353.878, 322.726 354.533 C 318.452 355.605, 314.611 374.591, 317.148 382.101 C 318.649 386.541, 318.342 386.392, 322.046 384.476 C 324.586 383.163, 325.792 383.040, 327.686 383.903 C 329.010 384.506, 331.362 385, 332.912 385 C 336.631 385, 341 388.512, 341 391.501 C 341 393.935, 338.658 397, 336.799 397 C 336.108 397, 335.973 398.654, 336.408 401.750 C 338.245 414.802, 338.251 415.688, 336.522 418.326 C 334.917 420.775, 334.916 421.232, 336.507 426.022 C 337.933 430.313, 338.085 433.269, 337.476 444.807 C 336.680 459.900, 335.878 462.330, 327.681 474.500 C 323.695 480.417, 323.627 480.673, 322.726 493 C 321.246 513.271, 320.060 518.435, 316.799 518.812 C 315.314 518.983, 313.128 518.604, 311.942 517.969 C 310.382 517.134, 309.483 517.117, 308.693 517.907 C 307.096 519.504, 303.926 519.243, 301.824 517.341 C 300.192 515.864, 299.247 515.820, 293.245 516.939 C 289.535 517.631, 285.825 518.041, 285 517.849 C 282.119 517.179, 282.477 525.160, 285.453 527.956 C 288.661 530.969, 288.639 531.493, 285.250 532.897 C 282.726 533.942, 282.500 534.484, 282.500 539.481 C 282.500 547.092, 283.936 548.296, 292.801 548.113 C 298.202 548.002, 299.906 548.312, 300.356 549.485 C 301.391 552.184, 308.081 551.431, 310.547 548.339 C 313.257 544.940, 314.373 545.705, 317.012 552.769 C 318.189 555.921, 319.897 559.325, 320.807 560.334 C 322.858 562.606, 322.766 567.897, 320.568 574.245 C 319.389 577.649, 319.208 579.521, 319.930 580.869 C 321.649 584.082, 321.694 591.128, 320 591.949 C 319.175 592.350, 317.150 593.329, 315.500 594.127 C 313.850 594.924, 312.444 596.122, 312.375 596.788 C 312.306 597.455, 312.194 598.367, 312.125 598.816 C 312.056 599.265, 310.217 600.634, 308.037 601.859 C 305.858 603.084, 302.699 605.754, 301.018 607.793 C 298.290 611.102, 297.461 611.500, 293.299 611.500 C 288.886 611.500, 288.592 611.673, 287.796 614.727 C 287.333 616.502, 285.952 618.475, 284.727 619.112 C 283.502 619.750, 282.311 620.437, 282.079 620.639 C 281.432 621.207, 286.206 625.999, 287.424 626.005 C 290.510 626.019, 294.282 630.767, 295.016 635.559 C 295.752 640.365, 295.669 640.599, 292.001 644.101 C 289.927 646.081, 287.923 648.669, 287.547 649.851 C 286.734 652.412, 284.978 652.557, 280.818 650.406 C 277.879 648.886, 277.435 648.940, 271.234 651.576 C 267.657 653.096, 262.553 655.838, 259.890 657.670 C 254.285 661.525, 253.156 661.674, 248.947 659.114 C 245.345 656.923, 242.688 657.333, 238.617 660.706 C 235.093 663.626, 232.931 663.342, 231.201 659.733 C 230.121 657.480, 229.436 657.103, 227.366 657.623 C 225.342 658.131, 224.077 657.505, 220.941 654.443 C 216.401 650.010, 215.165 650.439, 216.944 655.829 C 219.046 662.198, 218.291 663.454, 212.150 663.805 C 208.600 664.009, 206.036 663.599, 204.479 662.578 C 202.214 661.094, 202.103 661.158, 200.973 664.582 C 200.080 667.288, 200.084 668.789, 200.992 670.980 C 201.644 672.554, 202.025 674.630, 201.839 675.594 C 201.652 676.558, 202.743 678.590, 204.262 680.109 C 205.781 681.627, 207.300 684.249, 207.637 685.935 C 208.033 687.913, 208.853 689, 209.951 689 C 213.457 689, 216.329 693.540, 215.622 697.965 C 214.865 702.696, 217.673 709.115, 224.001 717.121 C 227.406 721.428, 227.903 722.788, 228.534 729.515 C 229.749 742.482, 228.922 747.109, 224.304 753.183 C 222.081 756.107, 219.972 759.728, 219.617 761.230 C 219.262 762.731, 217.628 765.334, 215.986 767.014 C 210.804 772.316, 212.361 778.099, 219.495 780.044 C 223.371 781.101, 222.298 783.722, 216.308 787.832 C 213.114 790.024, 208.025 794.366, 205 797.482 C 197.284 805.430, 196.772 805.616, 192.626 801.977 C 188.330 798.205, 187.500 799.290, 189.174 806.491 C 190.443 811.951, 190.488 812, 194.168 812 C 196.211 812, 198.160 812.450, 198.500 813 C 198.840 813.550, 200.126 814, 201.359 814 C 204.676 814, 205.909 815.783, 205.279 819.668 C 204.833 822.419, 205.222 823.637, 207.239 825.800 C 212.725 831.685, 212.901 834.446, 207.976 837.355 C 203.263 840.139, 202.636 842.248, 204.886 847.742 C 205.958 850.359, 207.096 853.700, 207.415 855.167 C 207.866 857.236, 209.060 858.223, 212.748 859.577 C 218.933 861.846, 220.168 863.074, 220.896 867.682 C 221.419 870.985, 222.107 871.798, 226 873.710 C 232.346 876.827, 233 877.593, 233 881.917 C 233 886.289, 231.775 887.679, 227.500 888.162 C 223.840 888.574, 223.119 891.396, 225.499 895.999 C 226.903 898.713, 227.502 899.049, 229.976 898.505 C 235.812 897.224, 239.742 898.835, 241.961 903.420 C 244.461 908.585, 244.553 911.585, 242.250 912.900 C 240.632 913.825, 240.726 914.324, 243.500 919.520 C 245.150 922.610, 247.287 925.852, 248.250 926.724 C 250.745 928.985, 250.491 929.647, 245.986 932.628 C 242.208 935.128, 241.863 935.186, 240.121 933.609 C 238.365 932.020, 238.201 932.102, 236.932 935.217 C 236.196 937.023, 231.845 942.308, 227.263 946.962 C 218.788 955.570, 216.859 958.921, 218.938 961.426 C 219.830 962.500, 219.740 963.687, 218.550 966.535 C 216.215 972.122, 216.565 977.896, 219.500 982.215 C 220.875 984.238, 222 986.787, 222 987.879 C 222 988.971, 223.350 990.825, 225 992 C 227.371 993.688, 228 994.882, 228 997.693 C 228 1000.648, 228.845 1002.068, 233 1006.094 C 235.750 1008.758, 238.014 1011.740, 238.030 1012.719 C 238.059 1014.407, 238.114 1014.409, 239.080 1012.750 C 240.646 1010.061, 243.383 1010.654, 247.110 1014.489 C 249.853 1017.313, 251.264 1017.984, 254.500 1018.005 C 259.078 1018.034, 261.583 1019.248, 260.542 1020.933 C 260.149 1021.569, 259.528 1026.002, 259.164 1030.784 C 258.533 1039.046, 258.360 1039.545, 255.694 1040.820 C 252.733 1042.237, 251 1045.484, 251 1049.615 C 251 1052.393, 248.674 1057.467, 246.009 1060.500 C 244.174 1062.589, 242.392 1075.494, 244.083 1074.449 C 244.575 1074.145, 247.120 1074.899, 249.738 1076.125 C 252.357 1077.351, 255.325 1078.439, 256.334 1078.544 C 261.589 1079.091, 267.200 1087.184, 267.394 1094.500 C 267.491 1098.161, 267.731 1098.500, 270.222 1098.500 C 272.986 1098.500, 277 1104.119, 277 1107.989 C 277 1108.850, 277.720 1110.583, 278.600 1111.840 C 279.481 1113.096, 279.985 1114.949, 279.721 1115.957 C 279.394 1117.208, 280.029 1118.148, 281.723 1118.920 C 283.680 1119.811, 284.077 1120.556, 283.604 1122.442 C 283.274 1123.758, 283.340 1124.984, 283.752 1125.167 C 284.163 1125.350, 285.189 1126.850, 286.031 1128.500 C 287.154 1130.699, 288.387 1131.581, 290.651 1131.804 C 293.974 1132.130, 294.957 1130.535, 294.986 1124.773 C 295.002 1121.714, 297.856 1119.346, 302.552 1118.495 C 307.756 1117.553, 314.325 1123.405, 315.884 1130.374 C 317.247 1136.461, 319.855 1138.007, 322 1134 C 323.398 1131.388, 324.882 1131.477, 330.148 1134.488 C 335.455 1137.522, 337.137 1137.611, 338.802 1134.946 C 339.648 1133.591, 340.714 1133.092, 341.933 1133.479 C 343.338 1133.925, 344.035 1133.339, 344.839 1131.033 C 345.990 1127.730, 346.913 1127.528, 359 1127.938 C 366.573 1128.195, 367.683 1128.652, 368.846 1131.988 C 369.517 1133.914, 372.070 1136.344, 376.416 1139.197 C 380.022 1141.564, 383.227 1144.264, 383.538 1145.199 C 384.269 1147.399, 387.424 1148.378, 389.758 1147.129 C 393.787 1144.973, 404.676 1145.385, 407.967 1147.818 C 410.632 1149.788, 411.517 1149.951, 414.727 1149.065 C 417.865 1148.198, 418.726 1148.332, 420.460 1149.956 C 422.421 1151.793, 427.118 1154, 429.065 1154 C 429.579 1154, 430 1153.086, 430 1151.969 C 430 1148.975, 432.300 1148.602, 436.753 1150.874 C 439.232 1152.138, 442.595 1152.873, 445.791 1152.848 C 451.432 1152.805, 453 1153.401, 453 1155.588 C 453 1157.830, 447.366 1168.500, 444.224 1172.207 C 442.689 1174.018, 439.554 1179.356, 437.258 1184.068 C 433.491 1191.799, 432.590 1192.905, 428.042 1195.381 C 424.220 1197.461, 423 1198.687, 423 1200.448 C 423 1203.079, 417.318 1211.957, 410.665 1219.719 C 406.754 1224.282, 406.044 1225.852, 405.007 1232.219 C 403.848 1239.343, 403.336 1240.912, 400.517 1246 C 399.755 1247.375, 398.465 1253.605, 397.650 1259.845 C 396.557 1268.219, 395.658 1271.755, 394.217 1273.345 C 393.143 1274.530, 391.273 1278.823, 390.062 1282.885 C 388.851 1286.947, 386.092 1293.070, 383.930 1296.493 C 379.336 1303.767, 379.008 1307.434, 381.595 1322.609 L 383.190 1331.966 380.700 1338.733 C 376.442 1350.303, 375 1356.448, 375.225 1362.074 C 375.404 1366.573, 374.962 1368.213, 372.638 1371.675 L 369.834 1375.849 373.667 1380.701 C 375.775 1383.369, 378.362 1387.466, 379.415 1389.805 L 381.330 1394.058 384.084 1391.420 C 385.598 1389.969, 387.324 1389.082, 387.919 1389.450 C 389.279 1390.291, 389.346 1397.668, 388 1398.500 C 386.176 1399.627, 386.964 1401, 389.435 1401 C 393.637 1401, 396.635 1399.284, 398.777 1395.653 C 400.533 1392.677, 401.566 1392.038, 405.592 1391.434 C 411.232 1390.588, 412.821 1391.390, 415.500 1396.434 L 417.500 1400.199 424.617 1399.687 C 430.266 1399.280, 432.245 1398.692, 434.209 1396.837 C 441.905 1389.566, 446.260 1386.926, 447.984 1388.486 C 448.905 1389.319, 450.858 1390, 452.326 1390 C 453.980 1390, 456.494 1391.355, 458.941 1393.565 C 462.461 1396.746, 463.133 1396.999, 465.168 1395.910 C 466.422 1395.239, 469.147 1394.756, 471.224 1394.838 C 473.301 1394.919, 475 1394.518, 475 1393.947 C 475 1393.376, 476.163 1391.746, 477.584 1390.325 C 480.653 1387.256, 480.038 1386.284, 472.374 1382.092 C 466.187 1378.707, 466.051 1377.817, 470.946 1372.753 C 473.207 1370.414, 475.937 1367.038, 477.014 1365.250 C 478.463 1362.843, 479.688 1361.998, 481.735 1361.994 C 483.756 1361.989, 484.958 1361.182, 486.203 1358.994 C 488.281 1355.342, 491.243 1355.114, 494.087 1358.385 C 495.228 1359.697, 496.912 1360.582, 497.831 1360.351 C 498.903 1360.082, 500.109 1361.017, 501.203 1362.966 C 502.140 1364.635, 503.603 1366, 504.453 1366 C 505.620 1366, 506 1367.107, 506 1370.500 C 506 1374.240, 506.318 1375, 507.883 1375 C 508.919 1375, 509.997 1374.120, 510.278 1373.046 C 511.548 1368.189, 521.976 1371.203, 522.015 1376.438 C 522.056 1381.855, 527.036 1383.283, 532.601 1379.473 C 535.986 1377.156, 537.201 1376.874, 541.819 1377.337 C 544.745 1377.630, 547.670 1378.290, 548.319 1378.805 C 550.949 1380.886, 557.865 1382.359, 564 1382.143 C 571.727 1381.871, 580.789 1384.553, 589 1389.542 C 592.025 1391.380, 596.223 1393.192, 598.329 1393.568 C 602.425 1394.300, 603.418 1395.684, 604.454 1402.103 L 605.035 1405.705 609.768 1404.768 C 614.283 1403.873, 614.592 1403.594, 616.500 1398.665 C 618.178 1394.332, 618.953 1393.448, 621.315 1393.177 C 625.109 1392.742, 628.681 1395.271, 629.493 1398.966 C 630.253 1402.431, 630.115 1402.361, 633.326 1400.897 C 634.995 1400.137, 636.338 1400.111, 637.649 1400.812 C 638.917 1401.491, 640.145 1401.499, 641.328 1400.836 C 643.657 1399.533, 645.664 1401.195, 646.532 1405.146 C 647.043 1407.471, 648.159 1408.568, 651.455 1409.981 C 655.700 1411.801, 660 1417.016, 660 1420.345 C 660 1421.230, 658.855 1422.704, 657.455 1423.622 C 651.291 1427.660, 660.160 1431.548, 666.775 1427.707 C 671.330 1425.063, 673.163 1425.944, 671.945 1430.191 C 670.647 1434.717, 670.732 1445, 672.067 1445 C 672.653 1445, 674.608 1443.875, 676.411 1442.500 C 678.214 1441.125, 680.370 1440, 681.202 1440 C 682.797 1440, 693 1427.423, 693 1425.457 C 693 1424.826, 693.845 1423.546, 694.877 1422.611 C 697.583 1420.163, 698.537 1411.749, 696.467 1408.591 C 695.018 1406.379, 695.014 1405.874, 696.422 1403.150 C 697.926 1400.243, 697.888 1400.083, 695.237 1398.070 L 692.500 1395.991 695.500 1393.501 C 699.326 1390.325, 700.012 1390.590, 702.769 1396.300 C 705.285 1401.510, 706.135 1401.825, 710.501 1399.162 C 712.293 1398.070, 716.453 1397.084, 720.822 1396.718 L 728.140 1396.105 729.193 1399.124 C 730.916 1404.067, 734.700 1404.784, 738.028 1400.798 C 740.634 1397.676, 740.875 1397.595, 743.463 1398.980 C 747.417 1401.096, 749.778 1405.958, 747.617 1407.538 C 745.669 1408.963, 745.483 1410.135, 747.318 1409.431 C 749.724 1408.508, 753.702 1412.856, 755.949 1418.865 L 758.167 1424.795 764.334 1424.268 C 767.725 1423.978, 771.175 1423.193, 772 1422.522 C 773.950 1420.938, 783.180 1417.993, 784.207 1418.628 C 784.643 1418.897, 785 1420.216, 785 1421.559 C 785 1424.579, 785.347 1424.585, 789.317 1421.632 C 791.068 1420.330, 794.228 1419.002, 796.339 1418.681 C 801.524 1417.892, 803.620 1416.174, 801.389 1414.542 C 797.391 1411.619, 805.805 1402.936, 810.810 1404.819 C 818.096 1407.560, 819.404 1407.235, 821.763 1402.093 C 826.084 1392.674, 827.529 1391.943, 840.520 1392.608 C 849.779 1393.082, 851.949 1392.924, 852.649 1391.727 C 853.964 1389.475, 859.206 1388.764, 875.500 1388.627 C 884.790 1388.548, 890.479 1388.119, 890.445 1387.500 C 890.415 1386.950, 889.403 1384.325, 888.195 1381.667 C 885.162 1374.989, 885.330 1374.373, 890.967 1371.517 C 897.911 1367.998, 899 1368.180, 899 1372.860 L 899 1376.720 904.747 1377.313 C 908.912 1377.743, 911.104 1377.506, 912.712 1376.453 C 916.601 1373.905, 918.865 1374.652, 921.788 1379.448 C 925.718 1385.895, 929.246 1386.494, 933.494 1381.434 C 936.311 1378.079, 937.361 1377.560, 942.589 1376.940 C 946.897 1376.429, 949.101 1376.614, 950.715 1377.620 C 951.933 1378.379, 953.739 1379, 954.729 1379 C 956.562 1379, 959.558 1384.541, 960.634 1389.921 C 961.073 1392.114, 960.686 1392.822, 958.507 1393.815 C 955.167 1395.337, 955.690 1397.163, 959.768 1398.220 C 961.557 1398.683, 965.169 1401.382, 968.194 1404.516 C 971.105 1407.532, 974.390 1410.014, 975.494 1410.032 C 976.597 1410.049, 978.381 1410.730, 979.458 1411.544 C 982.102 1413.543, 983.915 1410.395, 983.965 1403.718 C 983.984 1401.088, 984.675 1397.320, 985.500 1395.346 C 986.325 1393.371, 987.003 1391.023, 987.006 1390.128 C 987.010 1389.233, 987.667 1387.245, 988.467 1385.712 C 990.063 1382.651, 989.354 1379.369, 986.604 1377.086 C 985.722 1376.354, 985 1374.890, 985 1373.832 C 985 1371.165, 980.577 1367, 977.745 1367 C 972.137 1367, 971.725 1363.393, 976.648 1357.384 C 980.122 1353.145, 980.241 1352.755, 979.150 1349.216 C 977.249 1343.054, 973.655 1337.636, 969.815 1335.142 C 967.058 1333.352, 965.917 1331.726, 965.078 1328.396 C 964.206 1324.931, 963.135 1323.479, 959.987 1321.492 C 957.449 1319.890, 956 1318.228, 956 1316.922 C 956 1315.792, 955.568 1314.061, 955.040 1313.075 C 953.063 1309.381, 955.028 1304.441, 961.192 1297.611 C 966.143 1292.126, 967.699 1290.997, 970.330 1290.985 C 974.460 1290.965, 975.315 1290.322, 977.843 1285.334 C 979.826 1281.422, 984.094 1278.976, 987.398 1279.859 C 987.892 1279.991, 990.142 1279.351, 992.398 1278.438 C 994.654 1277.525, 998.525 1276.606, 1001 1276.397 C 1014.193 1275.281, 1014.442 1275.221, 1015.948 1272.844 C 1016.765 1271.555, 1019.361 1268.528, 1021.717 1266.118 C 1025.754 1261.989, 1026 1261.407, 1026 1256.003 C 1026 1251.686, 1026.521 1249.608, 1028.107 1247.590 C 1029.729 1245.529, 1030.255 1243.336, 1030.387 1238.074 C 1030.643 1227.909, 1034.385 1225.072, 1042.411 1228.957 C 1044.732 1230.081, 1047.419 1231, 1048.381 1231 C 1050.758 1231, 1053.930 1232.721, 1057.361 1235.872 C 1060.096 1238.385, 1060.272 1238.417, 1061.361 1236.616 C 1063.677 1232.786, 1067.216 1229, 1068.480 1229 C 1071.436 1229, 1072.325 1211.122, 1069.524 1208.026 C 1067.909 1206.242, 1067.448 1203, 1068.809 1203 C 1070.925 1203, 1073.391 1200.171, 1072.419 1198.858 C 1071.865 1198.111, 1070.571 1195.025, 1069.543 1192 C 1068.515 1188.975, 1066.847 1185.427, 1065.837 1184.115 C 1064.827 1182.803, 1064 1181.116, 1064 1180.365 C 1064 1179.458, 1062.743 1178.993, 1060.250 1178.981 C 1056.854 1178.963, 1055.950 1178.312, 1050.673 1172.082 C 1044.011 1164.217, 1040 1162.359, 1040 1167.139 C 1040 1171.341, 1037.738 1170.797, 1030.378 1164.825 C 1024.302 1159.896, 1024 1159.444, 1024 1155.278 C 1024 1151.063, 1020.620 1146, 1017.806 1146 C 1017.309 1146, 1016.289 1144.537, 1015.537 1142.750 C 1014.336 1139.892, 1013.701 1139.493, 1010.267 1139.439 C 1005.945 1139.372, 999 1134.916, 999 1132.210 C 999 1131.356, 998.224 1129.800, 997.276 1128.752 C 996.328 1127.704, 995.090 1125.419, 994.526 1123.674 C 993.868 1121.637, 992.307 1119.904, 990.171 1118.838 C 985.864 1116.687, 985.973 1116.825, 984.927 1112.171 C 983.958 1107.857, 979.300 1102.474, 975.086 1100.797 C 973.664 1100.231, 969.125 1099.646, 965 1099.497 C 955.493 1099.155, 956 1099.270, 956 1097.457 C 956 1096.609, 952.400 1092.434, 948 1088.179 L 940 1080.443 940 1074.972 C 940 1069.970, 939.714 1069.272, 936.670 1066.843 C 931.331 1062.583, 930.345 1059.471, 930.641 1047.817 C 930.823 1040.673, 930.537 1037.326, 929.701 1036.794 C 929.040 1036.374, 924.386 1036.024, 919.357 1036.015 C 912.474 1036.004, 910.082 1035.656, 909.679 1034.606 C 909.042 1032.947, 912.952 1029, 915.233 1029 C 917.956 1029, 920 1027.854, 920 1026.328 C 920 1024.825, 922.518 1018.371, 926.640 1009.312 C 929.627 1002.746, 929.620 1002.672, 925.880 1001.261 C 923.152 1000.231, 922.817 999.702, 923.207 997.042 C 923.557 994.661, 923.281 994, 921.938 994 C 920.788 994, 920.018 992.909, 919.601 990.686 C 919.045 987.724, 918.472 987.243, 914.198 986.147 C 911.283 985.400, 908.694 983.961, 907.568 982.461 C 906.551 981.107, 904.894 980, 903.886 980 C 902.866 980, 901.374 978.690, 900.527 977.052 C 899.688 975.430, 897.682 972.843, 896.069 971.302 C 893.566 968.911, 893.064 967.549, 892.646 962.019 C 892.242 956.663, 891.727 955.187, 889.679 953.519 C 888.316 952.408, 887.039 950.600, 886.842 949.500 C 886.594 948.119, 885.557 947.403, 883.491 947.188 C 877.779 946.592, 876.067 941.043, 880.969 939.013 C 883.886 937.805, 883.911 937.729, 882.407 934.819 C 880.659 931.440, 881.440 929.858, 886.028 927.485 C 889.513 925.683, 892.133 927.375, 894.320 932.840 C 895.233 935.124, 896.730 936.958, 897.939 937.274 C 899.450 937.669, 900 938.624, 900 940.850 C 900 942.860, 900.756 944.416, 902.238 945.454 C 904.326 946.917, 904.591 946.871, 906.215 944.761 C 907.172 943.517, 907.966 941.768, 907.978 940.872 C 907.990 939.977, 908.701 938.663, 909.558 937.952 C 910.415 937.241, 911.742 935.161, 912.507 933.330 C 913.272 931.498, 914.483 929.982, 915.199 929.959 C 915.915 929.937, 917.969 928.661, 919.764 927.125 C 922.649 924.656, 923.008 923.792, 922.854 919.711 C 922.613 913.354, 924.247 911.578, 929.459 912.533 C 934.961 913.541, 946.385 913.917, 947 913.110 C 948.433 911.229, 953.296 909, 955.965 909 C 957.941 909, 959 908.497, 959 907.559 C 959 904.444, 961.299 904.989, 964.646 908.899 C 967.753 912.529, 968.653 913, 972.489 913 C 977.593 913, 982 908.845, 982 904.034 C 982 902.487, 982.847 900.175, 983.883 898.897 C 985.591 896.787, 986.026 896.691, 988.592 897.860 C 991.054 898.982, 991.583 898.923, 992.693 897.406 C 993.773 895.928, 994.366 895.846, 996.600 896.864 C 999.824 898.333, 1000.715 897.419, 1005.241 888 C 1008.881 880.423, 1009.531 879.829, 1012.628 881.240 C 1014.651 882.162, 1015.630 881.705, 1020.458 877.580 C 1026.631 872.306, 1027.716 872.373, 1028.629 878.080 C 1028.977 880.260, 1029.652 882.285, 1030.127 882.578 C 1031.744 883.578, 1035.581 878.172, 1037.401 872.327 C 1039.762 864.745, 1041.539 862.740, 1045.189 863.542 C 1046.805 863.896, 1048 863.735, 1048 863.161 C 1048 862.612, 1049.609 861.169, 1051.576 859.953 C 1054.675 858.037, 1055.470 857.914, 1057.542 859.022 C 1059.485 860.062, 1060.222 860.061, 1061.484 859.014 C 1062.536 858.140, 1064.654 857.917, 1068.062 858.321 C 1073.176 858.927, 1077.929 857.631, 1078.081 855.589 C 1078.126 854.990, 1078.255 853.214, 1078.369 851.642 C 1078.600 848.442, 1081.278 846, 1084.556 846 C 1085.752 846, 1087.874 845.100, 1089.273 844 C 1092.042 841.822, 1094.070 841.478, 1095.550 842.935 C 1096.141 843.518, 1099.520 842.830, 1104.500 841.113 C 1114.730 837.587, 1117.286 836.188, 1116.628 834.472 C 1116.338 833.716, 1116.869 832.149, 1117.808 830.989 C 1119.342 829.094, 1119.970 828.983, 1124.007 829.890 C 1126.845 830.528, 1128.850 830.550, 1129.450 829.950 C 1129.973 829.427, 1131.383 829, 1132.583 829 C 1134.118 829, 1134.909 828.257, 1135.245 826.500 C 1135.508 825.125, 1135.400 824, 1135.005 824 C 1134.610 824, 1132.225 822.425, 1129.704 820.500 C 1127.183 818.575, 1124.427 817, 1123.580 817 C 1122.733 817, 1121.174 815.313, 1120.115 813.250 C 1119.057 811.188, 1116.798 808.687, 1115.095 807.693 C 1111.223 805.434, 1111.187 803.912, 1114.951 801.688 C 1118.818 799.404, 1128.817 800.106, 1133.483 802.989 C 1136.387 804.784, 1136.889 804.839, 1138.015 803.481 C 1139.148 802.116, 1139.548 802.129, 1141.794 803.601 C 1144.184 805.167, 1144.386 805.140, 1145.959 803.055 L 1147.612 800.863 1151.806 803.609 C 1154.113 805.120, 1156 806.933, 1156 807.639 C 1156 808.345, 1156.946 809.803, 1158.102 810.880 C 1159.821 812.482, 1160.140 813.764, 1159.852 817.920 C 1159.531 822.547, 1159.690 823.001, 1161.628 823.001 C 1165.284 823, 1166.316 825.307, 1164.550 829.535 C 1162.661 834.056, 1162.618 835, 1164.303 835 C 1165.020 835, 1167.382 836.296, 1169.553 837.881 C 1177.161 843.433, 1182.699 842.589, 1182.193 835.954 C 1182.033 833.856, 1183.216 831.585, 1186.686 827.325 C 1190.031 823.218, 1191.914 819.673, 1193.185 815.090 C 1194.186 811.480, 1196.082 807.480, 1197.487 806.013 C 1199.169 804.258, 1200.004 802.251, 1200.012 799.945 C 1200.018 798.050, 1200.688 794.025, 1201.500 791 C 1202.312 787.975, 1203.001 782.800, 1203.032 779.500 C 1203.063 776.200, 1203.736 771.700, 1204.529 769.500 C 1206.465 764.125, 1206.372 762.742, 1203.857 759.546 C 1201.139 756.090, 1198.754 746.392, 1198.558 738 C 1198.316 727.614, 1198.332 727.657, 1193.739 725.624 C 1184.530 721.548, 1174.412 716.487, 1172.750 715.125 C 1170.327 713.138, 1170.545 711.207, 1173.901 704.928 C 1175.496 701.942, 1177.106 697.613, 1177.479 695.307 L 1178.157 691.113 1173.328 688.665 C 1166.571 685.238, 1165.052 683.166, 1163.813 675.688 C 1162.903 670.196, 1162.369 669.058, 1160.479 668.584 C 1156.134 667.493, 1156.561 662.159, 1161.369 657.477 C 1167.516 651.491, 1173.244 641.324, 1171.891 638.797 C 1170.505 636.207, 1171.532 632.345, 1174.565 628.740 C 1177.814 624.879, 1177.679 624.147, 1172.956 620.027 C 1169.077 616.643, 1167.488 613.067, 1167.834 608.500 C 1168.632 597.957, 1169.023 593.963, 1169.573 590.766 C 1170.298 586.550, 1168.143 585, 1161.557 585 C 1156.987 585, 1156.208 583.634, 1155.553 574.471 C 1155.239 570.087, 1154.305 564.268, 1153.476 561.541 C 1152.005 556.699, 1152.034 556.451, 1154.704 551.041 C 1156.591 547.219, 1157.448 543.898, 1157.469 540.334 C 1157.492 536.538, 1158.113 534.339, 1159.812 532.041 C 1162.100 528.946, 1162.105 528.876, 1160.312 525.224 C 1159.021 522.595, 1157.560 521.270, 1155.231 520.617 C 1153.432 520.112, 1150.316 518.148, 1148.305 516.252 C 1146.295 514.356, 1143 511.762, 1140.983 510.490 C 1138.555 508.957, 1136.459 506.362, 1134.775 502.807 C 1131.922 496.780, 1130.728 495.569, 1126.685 494.602 C 1125.137 494.232, 1121.688 491.677, 1119.020 488.924 C 1114.894 484.665, 1113.779 484.017, 1111.545 484.578 C 1105.991 485.972, 1103.633 480.936, 1106.694 474.218 C 1107.625 472.173, 1108.638 466.702, 1108.944 462.059 C 1109.495 453.693, 1109.526 453.612, 1112.500 452.842 C 1114.150 452.415, 1118.570 449.514, 1122.323 446.396 C 1131.509 438.764, 1134.072 433.198, 1133.737 421.608 C 1133.502 413.460, 1133.524 413.377, 1137.196 409.086 C 1142.494 402.894, 1142.924 399.816, 1139.099 395.460 C 1135.713 391.604, 1135.885 392.202, 1133.500 376 C 1132.532 369.427, 1130.719 361.929, 1129.269 358.500 C 1127.473 354.253, 1126.469 349.433, 1125.833 342 C 1124.515 326.598, 1124.426 326.026, 1123.160 324.760 C 1122.522 324.122, 1122 320.792, 1122 317.359 C 1122 310.823, 1121.067 309.010, 1118.991 311.511 C 1118.117 312.564, 1115.752 313, 1110.911 313 C 1104.038 313, 1100.969 312.106, 1091.749 307.416 C 1089.137 306.087, 1086.405 305, 1085.680 305 C 1083.207 305, 1078 299.429, 1078 296.783 C 1078 295.387, 1077.330 293.689, 1076.511 293.009 C 1074.197 291.088, 1075.543 290.193, 1081.766 289.516 C 1084.920 289.172, 1088.625 288.307, 1090 287.592 C 1094.743 285.128, 1104.159 283.778, 1108.973 284.871 C 1114.198 286.058, 1113.896 286.231, 1115.170 281.329 C 1117.479 272.442, 1117.665 272.924, 1109.839 267.500 C 1105.871 264.750, 1101.022 260.875, 1099.062 258.890 C 1097.103 256.904, 1090.948 252.289, 1085.386 248.633 C 1077.283 243.309, 1074.797 241.093, 1072.887 237.494 C 1070.439 232.878, 1069.598 232.223, 1068.468 234.051 C 1068.111 234.629, 1068.984 236.183, 1070.409 237.504 C 1073.475 240.345, 1073.997 247.132, 1071.432 250.794 C 1069.433 253.648, 1068.004 252.776, 1067.986 248.691 C 1067.964 243.515, 1066.961 241.207, 1064.459 240.579 C 1063.165 240.254, 1061.310 238.641, 1060.338 236.994 C 1058.857 234.487, 1057.938 234, 1054.691 234 C 1051.628 234, 1050.701 233.571, 1050.279 231.960 C 1049.817 230.191, 1049.530 230.102, 1048.123 231.291 C 1047.230 232.044, 1044.329 233.462, 1041.676 234.441 C 1036.400 236.389, 1035.305 237.833, 1036.876 240.769 C 1037.592 242.105, 1037.578 243.022, 1036.831 243.769 C 1034.634 245.966, 1029 242.057, 1029 238.336 C 1029 234.858, 1024.449 230.306, 1020.171 229.507 C 1013.170 228.199, 1011.893 223.953, 1016.973 218.873 C 1019.554 216.292, 1020.446 215.980, 1023.723 216.512 L 1027.500 217.124 1024.750 214.979 C 1021.357 212.332, 1021.225 209.674, 1024.413 208.221 C 1025.741 207.617, 1027.106 206.242, 1027.447 205.167 C 1027.791 204.082, 1031.115 201.611, 1034.915 199.614 C 1039.039 197.447, 1041.971 195.219, 1042.286 194.013 C 1042.867 191.791, 1046.183 190.048, 1046.726 191.678 C 1048.062 195.685, 1049.768 196.549, 1052.812 194.761 C 1056.715 192.468, 1058.767 194.360, 1057.213 198.819 C 1054.837 205.634, 1058.851 209.995, 1061.551 203.532 C 1063.475 198.928, 1063.378 196.134, 1061.135 191.522 C 1060.109 189.413, 1059.486 186.857, 1059.751 185.843 C 1060.301 183.741, 1059.765 183.633, 1055.230 184.934 C 1051.817 185.913, 1047.541 184.493, 1045.899 181.836 C 1045.436 181.088, 1043.698 180.662, 1041.777 180.828 C 1039.292 181.042, 1037.863 180.483, 1036.101 178.608 C 1032.835 175.131, 1033.913 173.402, 1039.836 172.616 C 1043.334 172.152, 1045.995 170.999, 1048.671 168.785 C 1052.279 165.802, 1052.495 165.305, 1052.419 160.190 C 1052.344 155.149, 1052.127 154.673, 1049.366 153.512 C 1046.789 152.428, 1046.088 152.510, 1044.086 154.131 C 1041.515 156.213, 1038.433 156.495, 1034.520 155.007 C 1032.214 154.131, 1032.021 154.215, 1032.864 155.722 C 1033.390 156.661, 1035.323 157.932, 1037.160 158.547 C 1039.870 159.455, 1040.558 160.254, 1040.810 162.787 C 1041.231 167.030, 1039.913 169.119, 1035.109 171.819 L 1031.036 174.108 1029.022 170.804 C 1027.914 168.987, 1027.006 166.994, 1027.004 166.375 C 1027.002 165.756, 1025.650 164.980, 1024 164.650 C 1022.350 164.320, 1021 163.412, 1021 162.632 C 1021 161.852, 1020.294 160.943, 1019.431 160.612 C 1018.375 160.206, 1018.051 159.273, 1018.441 157.755 C 1018.792 156.388, 1018.354 156.780, 1017.328 158.750 C 1015.215 162.811, 1013.504 162.884, 1012.140 158.972 C 1010.949 155.556, 1011.556 153, 1013.556 153 C 1015.415 153, 1019.494 147.220, 1020.613 143 C 1021.278 140.492, 1022.429 139.106, 1024.673 138.111 C 1027.176 137.002, 1030 133.533, 1030 131.569 C 1030 130.790, 1015.739 134.030, 1012.588 135.525 C 1008.317 137.552, 1006.841 140.329, 1010.527 139.404 C 1012.879 138.814, 1013 139, 1013 143.212 C 1013 149.699, 1008.402 158.396, 1004.750 158.816 C 1000.624 159.291, 1001.493 162.096, 1006.337 163.938 C 1010.314 165.450, 1009.854 170.345, 1005.690 170.822 C 1004.144 170.999, 1002.271 170.640, 1001.529 170.024 C 999.643 168.459, 998.688 170.302, 999.490 173.955 C 1000.279 177.546, 1001.641 178.726, 1005.500 179.162 C 1008.004 179.444, 1008.508 179.952, 1008.546 182.229 C 1008.572 183.729, 1009.633 186.365, 1010.904 188.085 C 1014.135 192.454, 1012.083 194.544, 1004.711 194.394 C 999.566 194.290, 999.475 194.340, 997.500 198.394 C 995.725 202.039, 995.107 202.500, 992 202.500 C 988.232 202.500, 987.965 201.581, 989.125 192.589 C 989.453 190.044, 989.105 189.572, 986.357 188.838 C 982.468 187.799, 981.535 185.639, 983.608 182.476 L 985.193 180.057 982.346 181.467 C 980.781 182.243, 978.295 183.332, 976.822 183.887 C 975.288 184.465, 973.421 186.419, 972.452 188.460 C 968.341 197.122, 957.871 200.362, 957.182 193.185 C 956.800 189.212, 958.389 187, 961.622 187 C 962.965 187, 964 186.406, 964 185.635 C 964 184.884, 964.857 183.180, 965.904 181.849 C 968.155 178.988, 969.187 179.226, 953.500 178.984 C 945.015 178.853, 941.700 178.394, 939 176.980 C 937.075 175.971, 934.375 174.946, 933 174.701 C 931.625 174.457, 929.825 173.969, 928.999 173.617 C 927.874 173.137, 926.912 174.489, 925.153 179.026 C 923.863 182.353, 921.629 186.476, 920.188 188.188 C 917.756 191.079, 917.728 191.216, 919.796 190.109 C 921.021 189.454, 922.580 189.009, 923.261 189.122 C 923.943 189.234, 925.808 188.961, 927.406 188.515 C 929.690 187.878, 930.599 188.098, 931.656 189.544 C 933.561 192.149, 933.474 192.387, 928.750 197.519 C 913.186 214.426, 912.750 214.741, 910.818 210.500 C 910.192 209.125, 909.414 208.002, 909.089 208.004 C 907.432 208.016, 899.561 214.413, 892.175 221.750 C 883.689 230.180, 882.386 230.883, 879.081 228.818 C 877.517 227.842, 875.648 228.276, 868.307 231.318 C 860.619 234.505, 858.354 235.001, 851.462 235.006 C 830.821 235.021, 825.015 238.718, 828.492 249.631 C 829.226 251.933, 828.629 252.657, 823 256.299 C 821.075 257.545, 818.287 260.799, 816.804 263.532 C 813.736 269.184, 811.755 269.860, 811.002 265.512 C 810.016 259.819, 804.731 261.291, 803.549 267.588 C 803.187 269.522, 802.352 271.257, 801.695 271.444 C 789.419 274.921, 783.335 274.258, 784.237 269.541 C 784.585 267.722, 784.185 267.012, 782.588 266.611 C 781.428 266.320, 779.671 264.714, 778.683 263.041 C 777.260 260.632, 776.202 260, 773.593 260 C 771.781 260, 768.861 259.499, 767.104 258.886 C 764.478 257.971, 763.591 258.060, 762.126 259.386 C 761.145 260.274, 759.568 261, 758.620 261 C 755.953 261, 750.298 267.864, 748.925 272.768 C 746.653 280.881, 743.042 279.342, 743.015 270.250 C 743.003 266.179, 742.652 265, 741.448 265 C 737.989 265, 732.021 260.476, 730.505 256.704 L 728.980 252.908 734.050 247.758 C 738.989 242.740, 739.202 242.638, 742.310 243.828 C 745.080 244.889, 745.632 244.822, 746.500 243.320 C 747.050 242.370, 748.762 240.446, 750.303 239.046 C 751.845 237.646, 756.298 233.424, 760.199 229.664 L 767.290 222.828 766.603 210.672 C 766.226 203.986, 765.485 198.085, 764.958 197.558 C 763.411 196.011, 763.817 195.318, 767.061 193.975 C 768.932 193.200, 770.781 191.305, 771.815 189.103 C 772.859 186.881, 774.329 185.383, 775.651 185.194 C 777.536 184.925, 777.731 184.413, 777.266 180.944 C 776.613 176.079, 779.086 175.379, 780.958 179.898 C 781.753 181.819, 783.059 182.952, 784.829 183.257 C 786.298 183.510, 788.355 184.080, 789.400 184.523 C 791.639 185.473, 791.338 183.336, 787.907 173.905 C 785.952 168.529, 781.956 165, 777.826 165 C 777.217 165, 774.764 164.024, 772.375 162.831 C 768.125 160.708, 767.987 160.702, 765.966 162.531 C 764.226 164.105, 763.432 164.224, 760.940 163.284 C 755.518 161.237, 754.795 167.159, 759.665 173.719 C 761.693 176.451, 762.505 176.849, 765.025 176.345 C 769.297 175.491, 771.003 177.359, 770.985 182.872 C 770.966 188.655, 770.497 189.306, 765.256 190.837 C 762.098 191.759, 760.480 191.792, 758.934 190.964 C 755.323 189.032, 747.368 191.711, 745.050 195.639 C 740.947 202.595, 730.033 207.502, 723.912 205.145 C 722.586 204.634, 718.043 200.848, 713.817 196.733 C 709.457 192.487, 704.915 188.976, 703.317 188.616 C 701.768 188.268, 698.250 186.909, 695.500 185.597 C 692.750 184.285, 688.281 182.480, 685.568 181.586 L 680.636 179.961 677.227 183.230 C 675.353 185.029, 672.520 189.055, 670.932 192.177 C 667.748 198.438, 666.901 199.283, 664.668 198.426 C 662.152 197.461, 661.870 194.948, 663.904 191.637 C 667.626 185.581, 667.458 182.023, 663.226 177.258 C 659.149 172.666, 659.087 172.651, 647.191 173.397 C 638.399 173.949, 637.113 172.609, 641.704 167.684 C 647.743 161.206, 649.228 157.298, 649.370 147.521 L 649.500 138.541 645.753 136.521 C 640.209 133.531, 641.179 130.547, 647.313 131.720 C 650.673 132.362, 650.739 131.043, 647.500 128 C 645.816 126.418, 645 124.578, 645 122.360 C 645 120.092, 644.017 117.950, 641.838 115.468 L 638.676 111.866 637.401 114.898 C 634.985 120.645, 628.859 120.409, 624.834 114.416 C 622.868 111.489, 620.974 110.009, 618.087 109.144 C 615.879 108.483, 613.494 107.167, 612.786 106.221 C 610.499 103.160, 605.899 102.253, 596.464 103.003 C 591.587 103.390, 586.895 103.524, 586.037 103.299 C 585.180 103.075, 583.161 104.266, 581.552 105.946 C 578.866 108.750, 578.083 109, 572 109 C 564.694 109, 562.426 107.518, 558.231 100 C 556.321 96.577, 556.156 96.507, 550.690 96.802 C 544.829 97.118, 541.351 95.897, 535.361 91.416 C 532.680 89.410, 531.477 89.156, 527.111 89.673 C 524.300 90.006, 522 90.666, 522 91.139 C 522 92.694, 504.585 92.154, 502.441 90.532 C 499.512 88.317, 497.604 88.692, 495.188 91.960 M 474.544 119.390 C 468.420 120.375, 467.505 120.807, 466.894 123.004 C 465.458 128.164, 465.884 130.007, 468.750 131.045 C 470.262 131.593, 472.400 132.446, 473.500 132.942 C 474.600 133.437, 477.881 134.084, 480.791 134.379 C 485.812 134.888, 486.140 134.777, 487.234 132.208 C 487.868 130.718, 489.054 128.702, 489.870 127.726 C 491.007 126.367, 491.078 125.678, 490.176 124.776 C 489.529 124.129, 489 122.806, 489 121.835 C 489 118.099, 485.864 117.568, 474.544 119.390 M 475.500 122.389 C 464.843 124.362, 468.129 130.260, 480.591 131.527 C 484.466 131.920, 484.734 131.772, 485.653 128.721 C 487.768 121.705, 485.804 120.480, 475.500 122.389 M 458.162 130.440 C 453.535 135.460, 453.128 137.128, 455.862 139.862 C 456.886 140.886, 458.550 143.122, 459.559 144.831 C 460.568 146.539, 462.044 148.187, 462.838 148.491 C 464.893 149.280, 468 148.106, 468 146.541 C 468 145.813, 469.154 144.927, 470.565 144.573 C 474.656 143.546, 473.571 139.500, 469.204 139.500 C 466.322 139.500, 465.682 138.996, 464.107 135.482 C 462.753 132.462, 462.572 131.040, 463.380 129.759 C 464.141 128.553, 464.143 127.743, 463.390 126.990 C 462.636 126.236, 461.107 127.245, 458.162 130.440 M 458.165 134.235 C 456.592 135.808, 456.694 137.945, 458.374 138.590 C 459.130 138.880, 460.582 140.666, 461.602 142.559 C 462.621 144.451, 463.707 146, 464.015 146 C 465.233 146, 464.780 142.062, 463.433 140.944 C 462.645 140.290, 461.986 139.023, 461.968 138.128 C 461.914 135.346, 459.512 132.888, 458.165 134.235 M 493.991 137.394 C 493.171 138.190, 490.274 139.480, 487.553 140.260 C 482.058 141.836, 479.521 144.447, 481.990 145.986 C 482.983 146.605, 484.224 146.428, 485.705 145.458 C 486.929 144.656, 488.958 143.998, 490.215 143.996 C 493.637 143.991, 499.197 140.262, 498.807 138.235 C 498.376 136, 495.877 135.564, 493.991 137.394 M 502.529 140.355 C 500.134 142.107, 501.125 145.041, 503.870 144.324 C 505.996 143.768, 507.371 141.410, 506.444 139.910 C 505.670 138.657, 504.700 138.768, 502.529 140.355 M 473.236 152.261 C 471.568 154.346, 470.860 157.795, 471.959 158.475 C 472.532 158.829, 473 161.061, 473 163.437 C 473 171.560, 478.089 171.913, 479.292 163.873 C 479.759 160.748, 479.502 160.094, 477.436 159.153 C 475.461 158.253, 475.140 157.548, 475.620 155.151 C 476.251 151.993, 474.829 150.269, 473.236 152.261 M 481.250 151.723 C 476.865 152.268, 477.081 154.589, 481.697 156.518 C 485.932 158.287, 488 157.865, 488 155.231 C 488 153.430, 486.128 150.846, 485.050 151.160 C 484.748 151.248, 483.038 151.502, 481.250 151.723 M 495.223 157.542 C 492.871 158.894, 490.269 160, 489.442 160 C 486.992 160, 486.623 162.838, 488.524 167.054 C 490.885 172.288, 494.488 172.486, 498.763 167.617 C 502.192 163.712, 503.893 157.182, 501.823 155.869 C 500.053 154.747, 500.113 154.732, 495.223 157.542 M 496.500 160.068 C 494.850 161.125, 492.712 161.992, 491.750 161.995 C 490.788 161.998, 490 162.480, 490 163.066 C 490 164.996, 492.046 168, 493.361 168 C 495.264 168, 498.751 163.905, 499.534 160.750 C 500.328 157.553, 500.400 157.570, 496.500 160.068 M 472.212 173.188 C 470.021 175.379, 471.297 182.193, 474.260 184.127 C 476.963 185.892, 482.695 180.959, 481.507 177.891 C 481.075 176.775, 477.697 174.254, 473.962 172.262 C 473.667 172.104, 472.879 172.521, 472.212 173.188 M 474 178.008 C 474 180.328, 476.624 181.776, 478.119 180.281 C 478.764 179.636, 478.225 178.722, 476.551 177.626 C 474.102 176.021, 474 176.036, 474 178.008 M 497.409 248.498 C 495.845 250.885, 495.832 251.261, 497.268 252.697 C 499.725 255.154, 502.186 253.604, 501.814 249.834 C 501.409 245.734, 499.583 245.180, 497.409 248.498 M 469.437 268.456 C 466.639 272.726, 470.481 275.007, 473.415 270.818 C 474.542 269.209, 474.656 268.290, 473.849 267.318 C 472.271 265.417, 471.257 265.678, 469.437 268.456 M 477.200 273.200 C 474.922 275.478, 475.731 279, 478.531 279 C 481.540 279, 482.582 276.956, 481.042 274.078 C 479.769 271.700, 478.899 271.501, 477.200 273.200 M 405.017 299.968 C 403.615 302.588, 404.142 303.294, 407.778 303.672 C 409.275 303.828, 412.637 304.221, 415.250 304.546 C 418.954 305.006, 420 304.825, 420 303.723 C 420 301.126, 416.094 298.715, 411.108 298.236 C 406.810 297.823, 406.049 298.040, 405.017 299.968 M 386.500 302.643 C 384.848 304.295, 384.704 305.065, 385.607 307.418 C 386.295 309.211, 388.211 309.446, 390.764 308.051 C 391.719 307.529, 394.664 306.823, 397.308 306.481 C 401.775 305.904, 404.257 303.924, 402.595 302.262 C 401.142 300.808, 388.024 301.119, 386.500 302.643 M 422.172 302.293 C 420.794 303.953, 422.747 310, 424.660 310 C 426.534 310, 426.904 308.765, 426.144 305.050 C 425.371 301.269, 423.880 300.234, 422.172 302.293 M 363.571 306.571 C 362.707 307.436, 362 308.762, 362 309.519 C 362 310.629, 361.390 310.683, 358.855 309.800 C 356.449 308.961, 354.862 309.022, 352.105 310.062 C 350.122 310.809, 344.450 311.468, 339.500 311.526 C 330.353 311.634, 326 312.916, 326 315.500 C 326 317.357, 329.645 319.384, 330.498 318.003 C 330.839 317.451, 334.736 317, 339.158 317 C 344.602 317, 348.336 316.460, 350.722 315.327 C 353.399 314.058, 354.884 313.895, 356.894 314.654 C 360.161 315.887, 361.990 315.357, 362.030 313.167 C 362.058 311.663, 362.161 311.671, 363.080 313.250 C 364.450 315.601, 365.668 315.457, 369.144 312.533 C 371.360 310.668, 372.791 310.208, 375.001 310.650 C 379.276 311.505, 383 310.312, 383 308.088 C 383 305.552, 381.121 305, 372.490 305 C 367.144 305, 364.715 305.428, 363.571 306.571 M 441 311.709 C 438.961 312.459, 436 315.111, 436 316.187 C 436 317.600, 440.361 318.844, 442 317.899 C 446.350 315.391, 447.323 314.094, 446.026 312.531 C 444.712 310.948, 443.575 310.763, 441 311.709 M 309.500 319.151 C 306.750 319.654, 302.714 320.389, 300.530 320.783 C 296.857 321.446, 296.544 321.761, 296.340 325 C 296.059 329.487, 296.708 331.674, 298.531 332.373 C 300.426 333.101, 304.159 329.077, 303.504 327.013 C 302.891 325.082, 309.599 323, 316.433 323 C 321.699 323, 324 322.240, 324 320.500 C 324 317.900, 318.920 317.428, 309.500 319.151 M 280 332.418 C 278.625 333.169, 276.262 334.272, 274.750 334.870 C 268.439 337.365, 272.656 341.851, 282.750 343.380 C 286.902 344.009, 288.860 342.267, 285.992 340.495 C 284.561 339.611, 287.147 337.259, 290.009 336.841 C 293.717 336.299, 293.522 334.116, 289.620 332.486 C 285.263 330.665, 283.236 330.651, 280 332.418 M 281.548 334.923 C 281.234 335.431, 279.632 336.142, 277.989 336.503 C 274.379 337.295, 274.109 338.597, 277.423 339.230 C 279.180 339.566, 279.980 339.185, 280.330 337.847 C 280.600 336.814, 281.710 336, 282.847 336 C 283.966 336, 285.160 335.550, 285.500 335 C 285.840 334.450, 285.218 334, 284.118 334 C 283.018 334, 281.861 334.415, 281.548 334.923" stroke="none" fill="#111111" fill-rule="evenodd"/>
</svg>