<svg xmlns="http://www.w3.org/2000/svg" width="1500" height="1500" viewBox="0 0 1500 1500" version="1.1">
	<path d="M 738.405 72.387 C 737.987 73.477, 736.988 73.748, 734.912 73.332 C 730.500 72.450, 728.662 74.518, 729.356 79.584 C 730.368 86.961, 731.569 88.367, 740.211 92.293 C 750.866 97.133, 752.450 96.037, 747.360 87.351 C 745.772 84.642, 744.477 80.585, 744.110 77.173 C 743.583 72.269, 743.194 71.457, 741.246 71.180 C 739.915 70.991, 738.751 71.486, 738.405 72.387 M 739.637 75.505 C 739.166 76.731, 738.221 76.944, 735.513 76.436 C 731.547 75.692, 731.202 76.588, 732.985 83.005 C 733.822 86.016, 734.805 86.884, 739.979 89.170 C 743.291 90.634, 746 91.626, 746 91.376 C 746 91.125, 745.058 89.074, 743.907 86.818 C 742.756 84.562, 741.683 80.957, 741.523 78.807 C 741.191 74.355, 740.525 73.189, 739.637 75.505 M 776.767 81.567 C 776.417 81.916, 773.739 82.494, 770.815 82.851 L 765.500 83.500 763.733 88.829 C 762.760 91.760, 760.854 95.793, 759.496 97.792 C 757.055 101.383, 757.427 103.985, 760.183 102.607 C 771.564 96.913, 781.405 87.813, 780.792 83.550 C 780.505 81.552, 778.010 80.323, 776.767 81.567 M 772.406 85.392 C 767.412 86.295, 767.282 86.409, 765.825 91.157 C 765.008 93.821, 764.509 96, 764.718 96 C 766.147 96, 776.092 88.697, 777.017 86.967 C 778.459 84.274, 778.506 84.290, 772.406 85.392 M 726.207 102.851 C 725.170 103.509, 725.274 104.644, 726.732 108.571 C 729.645 116.415, 736.132 117.125, 740.308 110.056 C 741.845 107.454, 741.840 107.169, 740.227 105.763 C 736.139 102.199, 729.431 100.806, 726.207 102.851 M 729 105.435 C 729 111.008, 733.096 113.761, 736.429 110.429 C 738.693 108.164, 738.412 107.423, 734.599 105.614 C 730.403 103.623, 729 103.578, 729 105.435 M 705.743 108.124 C 703.182 109.557, 701.839 115.356, 701.480 126.529 C 701.152 136.723, 701.204 137.016, 703.707 138.984 C 705.116 140.093, 707.318 141, 708.600 141 C 711.100 141, 713 143.573, 713 146.960 C 713 148.919, 712.825 148.961, 710.250 147.633 C 708.737 146.853, 705.489 146.054, 703.031 145.857 L 698.562 145.500 697.752 150.285 C 696.433 158.074, 698.120 162.256, 704.159 166.176 C 714.775 173.066, 713.739 172.660, 716.451 171 C 731.078 162.047, 733.423 158.304, 726.250 155.358 C 724.188 154.511, 720.476 152.935, 718.003 151.856 L 713.506 149.894 721.003 147.327 C 725.126 145.915, 729.295 144.063, 730.266 143.211 C 732.402 141.336, 733.733 142.731, 736.823 150.083 L 738.750 154.665 734.885 158.083 C 730.392 162.055, 730.030 164.571, 732.964 171.417 C 735.296 176.855, 737.277 177.230, 740.018 172.750 C 745.351 164.032, 746.149 156.817, 741.929 155.477 C 739.977 154.858, 739.961 154.749, 741.638 153.523 C 743.098 152.455, 743.779 152.464, 745.470 153.572 C 748.162 155.336, 752.361 153.418, 752.821 150.214 C 752.998 148.978, 754.403 147.326, 755.963 146.519 C 761.426 143.694, 762.057 133.786, 756.664 135.499 C 750.985 137.304, 749.188 137.221, 748.054 135.100 C 747.256 133.610, 745.959 133, 743.587 133 C 741.749 133, 739.730 132.379, 739.100 131.621 C 738.470 130.862, 736.608 129.972, 734.961 129.642 C 731.685 128.987, 730.801 127.439, 728.109 117.646 C 726.557 111.999, 726.324 111.723, 721.500 109.824 C 715.883 107.613, 708.147 106.779, 705.743 108.124 M 762.253 108.250 C 760.823 110.054, 758.706 119.715, 759.471 120.953 C 760.446 122.531, 764.110 122.210, 766.146 120.368 C 767.659 118.999, 768.418 118.931, 770.867 119.945 C 777.547 122.712, 781.792 119.716, 778.885 114.286 C 776.092 109.066, 764.844 104.984, 762.253 108.250 M 705.859 112.769 C 704.402 116.462, 703.899 135.158, 705.213 136.750 C 705.780 137.438, 707.716 138, 709.514 138 C 712.403 138, 712.972 138.473, 714.408 142.062 C 715.810 145.567, 716.340 146.027, 718.267 145.417 C 722.861 143.963, 728.802 141.129, 729.449 140.083 C 730.942 137.667, 733.890 139.153, 736.896 143.838 C 738.603 146.498, 740 149.202, 740 149.846 C 740 150.726, 740.483 150.715, 741.944 149.803 C 743.532 148.811, 744.223 148.892, 745.717 150.244 C 747.849 152.173, 749.074 151.563, 750.758 147.730 C 751.428 146.206, 753.067 144.545, 754.402 144.037 C 756.673 143.174, 758.803 139.470, 757.677 138.344 C 757.399 138.066, 756.262 138.324, 755.151 138.919 C 752.104 140.550, 749.225 140.225, 747 138 C 745.900 136.900, 743.987 135.997, 742.750 135.993 C 741.513 135.990, 739.150 135.093, 737.500 134 C 735.850 132.907, 733.782 132.010, 732.905 132.007 C 729.836 131.994, 726.880 126.275, 724.630 116 C 724.008 113.160, 719.620 111.295, 711.718 110.512 C 707.249 110.069, 706.865 110.217, 705.859 112.769 M 763.173 114.218 C 761.875 119.331, 762.094 119.640, 765.454 117.438 C 767.590 116.039, 768.552 115.930, 770.588 116.858 C 771.966 117.486, 774.202 118, 775.556 118 C 778.674 118, 777.379 115.483, 772.562 112.183 C 767.313 108.586, 764.444 109.208, 763.173 114.218 M 700.667 149.667 C 699.606 150.728, 699.894 156.672, 701.139 159.405 C 701.765 160.779, 703.701 162.579, 705.441 163.405 C 707.182 164.231, 709.439 165.828, 710.458 166.953 C 713.045 169.812, 714.164 169.577, 720.933 164.750 C 726.621 160.693, 728.518 158, 725.687 158 C 724.965 158, 720.405 155.975, 715.555 153.500 C 707.397 149.337, 702.307 148.027, 700.667 149.667 M 736.250 160.603 C 733.659 163.559, 733.444 165.699, 735.364 169.401 C 736.945 172.448, 737.971 171.707, 740.479 165.705 C 743.565 158.320, 740.982 155.204, 736.250 160.603 M 706.243 186.250 C 705.693 186.938, 704.278 189.412, 703.101 191.750 C 700.652 196.610, 700.911 196.530, 694.599 194.379 C 688.173 192.189, 682.997 193.055, 676.428 197.417 C 670.173 201.570, 665.213 202.038, 655.050 199.434 L 648.939 197.869 638.912 201.434 C 628.194 205.246, 622.676 205.826, 619.559 203.468 C 616.225 200.946, 610.483 201.697, 602.836 205.654 C 594.591 209.921, 592.013 209.627, 588.213 203.989 C 585.247 199.586, 585.104 199.514, 575.532 197.538 C 565.200 195.405, 564.083 195.787, 559.146 203.139 C 554.384 210.230, 554.303 210.714, 557 216 C 560.402 222.668, 559.570 226.561, 553.354 233.071 L 549.944 236.642 551.957 243.071 C 554.712 251.867, 553.986 252.406, 540.614 251.494 C 533.107 250.983, 530.540 251.126, 529.944 252.091 C 529.293 253.144, 532.452 263.356, 536.566 273.500 C 537.106 274.832, 536.502 274.498, 534.758 272.500 C 531.048 268.250, 529.630 270.014, 530.198 278.171 C 530.822 287.128, 534.301 294.688, 538.191 295.542 C 541.284 296.221, 544 300.629, 544 304.968 C 544 307.705, 543.716 307.613, 537.818 302.950 C 530.417 297.100, 528.636 297.684, 528 306.169 C 527.725 309.837, 527.254 313.083, 526.954 313.382 C 526.654 313.680, 523.850 311.917, 520.723 309.462 C 514.979 304.954, 513 304.092, 513 306.099 C 513 311.361, 507.618 316, 501.512 316 C 497.354 316, 496.934 316.635, 496.274 323.913 C 495.865 328.428, 496.144 330.290, 497.552 332.438 C 498.886 334.474, 499.306 336.882, 499.173 341.723 C 498.919 350.926, 500.252 354.850, 505.323 359.826 C 508.884 363.321, 510.159 363.998, 512.211 363.483 C 515.465 362.666, 516.656 365.350, 514.500 368.641 C 512.093 372.314, 509.273 371.530, 503.194 365.500 C 496.993 359.348, 495.392 358.839, 493.975 362.565 C 492.382 366.755, 492.795 383.041, 494.630 388.427 C 496.705 394.519, 501.711 397.266, 506.127 394.738 C 508.719 393.254, 508.768 393.283, 509.877 396.983 C 510.495 399.045, 511 402.383, 511 404.401 C 511 406.419, 511.688 409.120, 512.528 410.403 C 516.074 415.814, 511.468 428.290, 502.641 437.185 C 497.771 442.093, 496.999 443.391, 496.994 446.685 C 496.990 448.783, 496.260 451.850, 495.371 453.500 C 493.177 457.572, 489.962 468.130, 490.601 469.164 C 490.885 469.624, 493.116 470, 495.559 470 C 498.002 470, 500 470.357, 500 470.793 C 500 471.229, 496.814 475.352, 492.919 479.955 C 486.447 487.605, 485.892 488.611, 486.464 491.662 C 487.254 495.873, 485.944 495.980, 479.946 492.193 C 473.269 487.977, 472.334 487.809, 469.436 490.301 C 467.683 491.810, 466.790 493.648, 466.673 495.995 C 466.506 499.333, 466.652 499.481, 470.620 500.030 C 472.886 500.344, 476.036 501.443, 477.620 502.474 C 484.293 506.816, 494.020 515.368, 495.889 518.537 L 497.902 521.949 493.917 523.143 C 489.573 524.445, 483.005 522.414, 482.996 519.766 C 482.994 519.070, 481.936 516.419, 480.645 513.876 C 479.355 511.333, 478.054 508.316, 477.755 507.172 C 476.872 503.795, 473.182 503.709, 463.034 506.828 C 451.630 510.333, 451.023 511.058, 453.339 518.407 C 455.394 524.926, 457.886 527, 463.663 527 C 469.123 527, 469.698 528.148, 466.059 531.787 C 464.434 533.412, 463.092 535.587, 463.076 536.621 C 463.021 540.284, 462.334 544.651, 461.635 545.781 C 460.376 547.818, 454.322 548.912, 450.610 547.772 C 445.172 546.103, 443.621 547.227, 444.425 552.255 C 445.309 557.787, 447.929 560.409, 453.960 561.801 C 459.365 563.049, 461.944 562.495, 473.711 557.558 C 478.383 555.598, 481.990 554.882, 488.264 554.672 C 496.255 554.404, 496.848 554.219, 502.395 550.247 C 507.940 546.276, 514 538.556, 514 535.464 C 514 534.657, 511.863 532.435, 509.250 530.526 C 504.313 526.918, 499.447 522.172, 500.115 521.617 C 501.068 520.825, 507.497 519, 509.335 519 C 510.455 519, 512.370 519.939, 513.591 521.086 C 516.506 523.824, 517.687 523.144, 527.066 513.323 C 532.284 507.860, 534.922 504.214, 535.813 501.237 C 536.741 498.136, 538.099 496.327, 540.794 494.604 C 542.832 493.301, 544.627 492.346, 544.782 492.483 C 545.712 493.300, 539.684 506.683, 536.784 510.242 C 534.875 512.584, 531.898 517.478, 530.169 521.117 C 526.443 528.957, 524.669 530.800, 522.544 529.036 C 519.959 526.891, 518.873 528.909, 521.037 531.836 C 523.929 535.748, 524.639 541.376, 522.628 544.445 C 521.732 545.812, 521 547.578, 521 548.370 C 521 549.163, 519.451 551.665, 517.558 553.930 C 511.961 560.630, 511.007 574.278, 515.641 581.353 C 518.836 586.232, 518.431 587.958, 511.496 598.997 C 503.237 612.143, 502.076 619.038, 507.521 622.606 C 509.592 623.963, 510.275 624.017, 511.589 622.926 C 513.016 621.742, 513.120 622.605, 512.663 631.861 C 512.384 637.496, 511.731 642.645, 511.211 643.303 C 510.690 643.961, 509.965 649, 509.600 654.500 C 508.738 667.472, 504.438 682.394, 499.495 689.572 C 495.257 695.725, 495.630 697.648, 501.611 700.486 C 506.128 702.629, 512.474 701.989, 518.948 698.735 C 526.706 694.837, 527.113 693.621, 525.886 678 C 524.038 654.464, 525.839 647.508, 535.976 639.020 C 538.739 636.707, 540.990 634.068, 540.978 633.157 C 540.939 630.187, 537.045 622.792, 533.391 618.748 C 530.413 615.451, 529.911 614.267, 530.381 611.646 C 530.692 609.916, 531.249 606.537, 531.619 604.139 C 532.232 600.164, 540.385 589.052, 541.713 590.380 C 541.933 590.599, 541.412 593.481, 540.556 596.784 C 538.607 604.305, 538.592 611.084, 540.511 617.409 C 541.330 620.109, 542 623.610, 542 625.190 C 542 629.446, 544.555 629.824, 548.364 626.132 C 552.438 622.183, 552.632 622.206, 553.464 626.750 C 554.459 632.184, 559.025 641.943, 561.090 643.048 C 564.998 645.139, 566.244 641.669, 565.839 629.825 L 565.468 619.003 568.743 618.388 C 572.637 617.658, 573.824 614.590, 572.226 609.386 C 571.098 605.710, 573.218 603, 577.223 603 C 579.786 603, 579.524 605.737, 575.435 621.637 C 571.674 636.262, 571.669 636.496, 574.909 647.500 C 577.212 655.319, 579.792 658.258, 585.982 660.113 C 589.657 661.214, 590.074 661.727, 591.900 667.399 C 595.931 679.924, 595.842 680.627, 589.221 688.508 C 585.990 692.354, 580.753 700.450, 577.582 706.500 C 574.411 712.550, 570.956 718.431, 569.905 719.568 C 567.134 722.565, 561.998 737.344, 562.012 742.279 C 562.018 744.600, 562.693 748.975, 563.512 752 C 564.867 757.006, 564.650 766.983, 563.218 765.551 C 562.920 765.253, 562.106 761.155, 561.410 756.443 C 559.535 743.765, 557.763 742.625, 552.128 750.471 C 548.240 755.885, 547.739 764.608, 550.953 770.908 C 556.315 781.418, 569.896 799.095, 574.494 801.549 L 578.152 803.500 580.076 801.139 C 582.845 797.742, 582.493 795.443, 578.073 788.060 C 572.414 778.607, 572.453 778.134, 579.080 775.745 L 584.660 773.734 592.311 779 C 597.382 782.490, 601.015 785.907, 603.084 789.130 C 609.741 799.505, 617.676 802.413, 620.551 795.532 C 622.810 790.125, 622.481 777.881, 619.991 774.716 C 618.886 773.311, 617.696 770.663, 617.345 768.831 C 616.711 765.518, 616.745 765.536, 623.612 772.111 C 627.410 775.747, 632.927 779.943, 635.873 781.436 L 641.229 784.150 648.865 782.460 C 657.421 780.567, 660.636 779.164, 663.386 776.126 C 664.456 774.944, 670.214 772.419, 676.732 770.274 L 688.196 766.500 687.710 762.878 C 687.443 760.885, 687.546 758.735, 687.939 758.099 C 689.279 755.931, 700.115 754.701, 711.210 755.457 C 727.003 756.533, 730.945 760.500, 716.221 760.500 L 708.612 760.500 702.090 771 C 698.503 776.775, 693.425 783.650, 690.805 786.277 C 684.722 792.377, 684.694 792.435, 681.060 806.430 C 677.485 820.200, 677.385 821.683, 679.845 824.436 C 680.860 825.571, 684.528 832.575, 687.998 840 C 691.467 847.425, 695.587 854.978, 697.153 856.785 C 698.719 858.591, 700.002 860.841, 700.005 861.785 C 700.008 862.728, 701.119 865.300, 702.474 867.500 C 703.829 869.700, 704.952 872.272, 704.969 873.215 C 704.986 874.158, 705.857 875.388, 706.904 875.949 C 708.229 876.658, 709.023 878.569, 709.516 882.234 C 710.353 888.459, 711.385 890, 714.718 890 C 718.868 890, 723.024 886.818, 727.908 879.901 C 732.299 873.683, 732.690 873.382, 734.672 874.698 C 736.608 875.984, 737.017 875.803, 739.799 872.427 L 742.822 868.760 745.902 874.130 C 749.785 880.902, 749.791 880.821, 744.986 885.514 C 738.024 892.312, 735.997 896.022, 735.575 902.744 C 735.091 910.429, 734.346 912.744, 731.943 914.031 C 729.456 915.362, 727.444 919.416, 726.629 924.740 C 726.077 928.346, 726.318 929.287, 728.240 931.036 C 729.483 932.167, 731.288 933.826, 732.250 934.721 C 734.540 936.853, 734.478 939.674, 732.111 940.940 C 729.546 942.314, 723 951.569, 723 953.824 C 723 954.825, 723.624 957.636, 724.386 960.072 C 725.149 962.507, 726.263 966.316, 726.862 968.536 C 727.744 971.801, 729.084 973.371, 733.871 976.747 C 739.130 980.455, 740.017 981.594, 741.829 986.960 C 742.951 990.282, 743.426 993, 742.885 993 C 740.305 993, 735.756 989.453, 728.272 981.605 C 722.696 975.757, 719.601 973.216, 718.546 973.621 C 716.544 974.389, 716.558 978.854, 718.579 983.906 C 720.797 989.449, 720.150 992.176, 716.141 994.177 C 711.510 996.490, 710.481 995.775, 708.552 988.902 C 707.114 983.774, 706.214 982.440, 702.188 979.465 C 693.837 973.293, 691.778 973.670, 687.516 982.155 C 681.551 994.032, 676.563 997.357, 672 992.500 C 668.824 989.119, 667.426 989.327, 661.872 994.011 C 655.482 999.399, 653.454 1000.033, 648.265 998.265 C 644.042 996.826, 644 996.765, 644 992.028 C 644 986.439, 641.950 983.807, 639.166 985.822 C 630.584 992.037, 628.936 992.166, 627.803 986.712 C 626.334 979.645, 621.291 972, 618.097 972 C 614.945 972, 603.217 977.141, 601.010 979.489 C 598.761 981.884, 598.752 981.993, 600.310 988.179 C 602.091 995.248, 602.012 995.612, 599.043 994.023 C 597.873 993.397, 595.247 993.023, 593.208 993.192 C 590.002 993.458, 589.500 993.838, 589.500 996 C 589.500 998.623, 589.509 998.628, 602 1002.162 C 608.302 1003.946, 611.996 1007.822, 612.015 1012.673 C 612.034 1017.258, 613.113 1019.221, 615.702 1019.381 C 618.153 1019.533, 624 1024.417, 624 1026.313 C 624 1027.106, 623.378 1028.272, 622.617 1028.903 C 621.856 1029.534, 619.560 1032.913, 617.514 1036.412 C 613.402 1043.442, 611.042 1045, 604.500 1045 C 597.979 1045, 595.994 1046.380, 590.682 1054.606 C 585.919 1061.981, 583.854 1068.174, 585.764 1069.354 C 586.305 1069.689, 589.617 1068.104, 593.124 1065.833 C 600.945 1060.767, 605.030 1059, 608.918 1059 C 610.577 1059, 612.287 1058.310, 612.771 1057.445 C 613.250 1056.589, 616.493 1053.403, 619.978 1050.363 C 625.819 1045.269, 626.594 1044.889, 629.873 1045.504 C 639.531 1047.316, 642.767 1051.843, 638.651 1057.782 C 635.459 1062.388, 635.438 1062.966, 638.084 1073.330 C 639.923 1080.532, 640.026 1082.166, 638.957 1087.203 C 637.810 1092.609, 637.878 1093.137, 640.235 1097.128 L 642.724 1101.344 639.981 1111.742 C 638.262 1118.259, 636.140 1123.700, 634.297 1126.320 C 632.680 1128.619, 630.746 1132.024, 630 1133.886 C 628.462 1137.727, 615.447 1148.006, 608 1151.260 C 605.525 1152.342, 601.913 1154.744, 599.973 1156.598 L 596.446 1159.970 592.214 1157.876 C 588.243 1155.911, 587.828 1155.883, 585.491 1157.414 C 584.121 1158.312, 583 1159.445, 583 1159.932 C 583 1160.419, 580.085 1163.109, 576.521 1165.909 C 570.531 1170.617, 569.632 1171, 564.587 1171 C 557.382 1171, 554.705 1172.140, 552.286 1176.239 C 551.123 1178.211, 548.646 1180.366, 546.390 1181.369 C 536.036 1185.974, 533.183 1189.335, 536.509 1193.009 C 538.136 1194.807, 539.347 1195.102, 543.974 1194.828 C 549.492 1194.500, 549.499 1194.503, 550.692 1198 C 552.966 1204.659, 552.409 1207.279, 548.247 1209.502 C 545.196 1211.132, 544.500 1212.061, 544.500 1214.502 C 544.500 1217.424, 544.650 1217.516, 550.434 1218.137 C 555.400 1218.671, 556.786 1219.268, 558.934 1221.804 C 564.576 1228.465, 578.459 1233.089, 584.828 1230.428 C 592.829 1227.085, 594.998 1224.480, 595.015 1218.199 C 595.037 1210.192, 595.464 1209.776, 601.922 1211.479 C 605.967 1212.546, 608.391 1212.641, 611.884 1211.869 C 621.003 1209.852, 620.949 1209.830, 623.501 1216.834 C 626.265 1224.418, 628.398 1226.862, 635.304 1230.356 C 641.613 1233.549, 644.751 1233.669, 649.444 1230.901 C 656.894 1226.505, 665.881 1231.778, 673.741 1245.155 C 677.600 1251.721, 691.491 1258.099, 702 1258.129 C 714.798 1258.166, 721.362 1254.494, 728.686 1243.202 C 732.988 1236.570, 734.507 1236.012, 746.320 1236.716 C 755.253 1237.249, 761.920 1236.151, 762.036 1234.129 C 762.056 1233.783, 763.216 1232.150, 764.614 1230.500 L 767.156 1227.500 765.169 1231.500 C 760.760 1240.379, 757.270 1243.927, 749.434 1247.498 C 741.613 1251.063, 738.082 1255.487, 738.022 1261.800 C 738.010 1263.064, 737.364 1265.330, 736.586 1266.834 C 735.808 1268.338, 734.856 1271.253, 734.469 1273.312 C 733.698 1277.425, 732.714 1278.172, 725.877 1279.838 C 723.334 1280.458, 718.384 1282.322, 714.877 1283.982 C 707.094 1287.664, 704.132 1287.748, 698.499 1284.447 C 690.722 1279.889, 672.773 1276.823, 658 1277.529 C 651.125 1277.858, 643.475 1278.541, 641 1279.047 C 638.525 1279.554, 634.354 1280.229, 631.731 1280.548 C 623.695 1281.526, 622.952 1283.865, 626.891 1295.789 C 629.927 1304.980, 629.997 1305.529, 628.293 1306.780 C 627.307 1307.504, 625.600 1307.813, 624.500 1307.467 C 623.400 1307.121, 621.375 1306.578, 620 1306.259 C 618.625 1305.940, 616.314 1304.804, 614.864 1303.736 C 610.847 1300.774, 608.504 1302.158, 604.958 1309.588 C 602.745 1314.226, 601.625 1318.441, 601.002 1324.484 C 599.756 1336.558, 597.677 1340.404, 585.854 1352.505 C 578.014 1360.529, 574.986 1363, 572.991 1363 C 571.556 1363, 569.633 1363.563, 568.718 1364.250 C 565.210 1366.885, 558.906 1376.627, 557.268 1381.944 C 555.864 1386.501, 554.203 1388.849, 548.028 1395.006 C 543.888 1399.134, 539.046 1404.648, 537.268 1407.260 C 533.838 1412.298, 528.841 1415.990, 525.444 1415.996 C 520.698 1416.005, 510.487 1420.432, 506.291 1424.300 C 500.821 1429.342, 499.975 1432.280, 503.052 1435.555 C 506.948 1439.702, 510.533 1438.882, 516.802 1432.409 C 521.751 1427.300, 522.501 1426.871, 525.508 1427.436 C 527.318 1427.775, 529.386 1428.761, 530.104 1429.625 C 530.822 1430.490, 533.931 1433.138, 537.012 1435.510 C 540.527 1438.214, 543.303 1441.346, 544.460 1443.911 C 546.982 1449.504, 548.567 1449.144, 556.188 1441.250 C 562.592 1434.617, 565.590 1429.939, 567.888 1423 C 568.526 1421.075, 570.757 1417.690, 572.846 1415.479 C 576.343 1411.778, 577 1411.486, 581.093 1411.811 C 588.358 1412.389, 591.606 1406.573, 587.985 1399.471 C 586.471 1396.502, 586.303 1395.426, 587.258 1394.819 C 589.792 1393.210, 594.095 1394, 596.412 1396.500 C 599.381 1399.703, 599.799 1399.673, 610.429 1395.500 C 621.111 1391.306, 621.814 1391.273, 628.665 1394.624 C 631.615 1396.068, 636.029 1397.474, 638.473 1397.750 C 641.026 1398.038, 643.639 1399.049, 644.613 1400.125 C 645.547 1401.156, 647.555 1402, 649.077 1402 C 650.753 1402, 654.736 1403.970, 659.172 1406.993 C 671.455 1415.362, 676.896 1414.033, 683.472 1401.056 C 684.770 1398.494, 686.973 1395.878, 688.368 1395.242 C 692.001 1393.587, 694.111 1388.774, 695.017 1380.080 C 695.798 1372.581, 700.219 1358.831, 702.872 1355.647 C 703.627 1354.741, 705.511 1354, 707.059 1354 C 708.750 1354, 712.471 1352.222, 716.379 1349.546 C 730.668 1339.764, 737.426 1337.840, 740.703 1342.622 C 744.813 1348.618, 746.595 1349.805, 752.612 1350.557 C 757.507 1351.169, 759.079 1351.883, 761.996 1354.819 C 773.728 1366.626, 774.755 1367.344, 778.001 1365.999 C 779.941 1365.196, 781.234 1363.806, 781.606 1362.123 C 782.967 1355.970, 782.645 1356.203, 789.479 1356.403 C 793.724 1356.528, 796.501 1357.133, 797.695 1358.194 C 798.688 1359.076, 802.191 1361.243, 805.480 1363.011 C 812.311 1366.682, 817.357 1366.705, 825.499 1363.103 C 831.223 1360.571, 831.327 1358.395, 826 1352.616 C 819.603 1345.676, 819.870 1345.500, 836.756 1345.500 C 847.275 1345.500, 852.177 1345.886, 853.864 1346.846 C 856.225 1348.190, 860.804 1348.034, 864.407 1346.485 C 866.185 1345.721, 866.275 1346.032, 865.740 1351.083 C 865.423 1354.062, 864.865 1357.260, 864.499 1358.189 C 863.619 1360.420, 870.346 1362.385, 877.994 1362.131 C 888.243 1361.791, 906.899 1347.602, 899.750 1345.584 C 899.063 1345.390, 894.900 1344.032, 890.500 1342.566 C 886.100 1341.099, 880.976 1339.585, 879.114 1339.200 C 876.899 1338.742, 875.441 1337.722, 874.896 1336.250 C 873.800 1333.285, 877.280 1333.203, 886.161 1335.987 C 889.647 1337.080, 893.670 1337.980, 895.101 1337.987 C 896.531 1337.994, 899.076 1338.479, 900.755 1339.064 C 902.939 1339.826, 904.988 1339.811, 907.953 1339.013 C 913.532 1337.510, 915.195 1338.238, 917.524 1343.204 C 920.126 1348.751, 921.101 1348.840, 923.531 1343.750 C 926.704 1337.103, 929.879 1336.006, 946 1335.986 C 954.301 1335.975, 961.811 1335.411, 965.500 1334.520 C 974.019 1332.463, 976.481 1332.645, 981.270 1335.687 C 983.596 1337.165, 990.187 1340.291, 995.916 1342.633 L 1006.333 1346.892 1012.916 1340.001 C 1017.273 1335.441, 1020.515 1332.916, 1022.500 1332.539 C 1030.948 1330.932, 1034.890 1329.642, 1038.833 1327.192 C 1050.701 1319.819, 1050.857 1319.755, 1054.175 1320.911 C 1058.704 1322.490, 1066.198 1322.250, 1068.777 1320.443 C 1070.678 1319.112, 1071 1317.965, 1071 1312.523 L 1071 1306.160 1076.525 1301.236 C 1083.158 1295.323, 1084.856 1294.424, 1092.025 1293.028 C 1099.339 1291.603, 1103.477 1288.946, 1105.960 1284.079 C 1108.637 1278.831, 1108.534 1276.112, 1105.500 1272 C 1102.312 1267.679, 1102.374 1266.478, 1106.060 1261.037 C 1111.070 1253.643, 1110.191 1252.500, 1099.500 1252.500 C 1093.101 1252.500, 1089.479 1252.989, 1086.969 1254.193 C 1081.565 1256.784, 1068.209 1260.201, 1066.100 1259.532 C 1065.068 1259.204, 1062.991 1257.038, 1061.484 1254.718 C 1055.213 1245.065, 1053.107 1244.211, 1047.565 1249.077 C 1043.379 1252.752, 1042 1252.227, 1042 1246.960 C 1042 1242.502, 1041.120 1242.026, 1032.270 1241.693 C 1025.163 1241.426, 1026.841 1240.509, 1038.069 1238.522 C 1045.477 1237.211, 1049.657 1235.772, 1056.569 1232.151 C 1066.750 1226.817, 1068.471 1224.488, 1069.607 1214.500 C 1070.678 1205.084, 1071.064 1204.547, 1078.671 1201.887 C 1090.815 1197.640, 1097.577 1189.125, 1093.467 1183.256 C 1091.990 1181.147, 1092.108 1180.978, 1096.717 1178.613 C 1111.362 1171.097, 1122.218 1156.272, 1123.312 1142.295 C 1123.769 1136.452, 1124.718 1133.396, 1128.331 1126.124 C 1134.444 1113.822, 1136.467 1102.503, 1135.743 1084.641 C 1135.139 1069.735, 1134.777 1068.458, 1128.923 1060.630 C 1123.822 1053.810, 1121.585 1053.028, 1116.136 1056.164 L 1112.082 1058.497 1107.791 1054.428 C 1101.212 1048.189, 1093.921 1042.481, 1089.500 1040.108 C 1085.901 1038.176, 1084.539 1038.026, 1075.906 1038.613 C 1068.255 1039.132, 1065.279 1038.921, 1061.212 1037.570 C 1046.260 1032.604, 1029.087 1039.988, 1018.739 1055.831 C 1014.086 1062.954, 1006.765 1063.891, 1005.569 1057.516 C 1004.786 1053.341, 1003.869 1052.605, 995.945 1049.788 C 989.912 1047.643, 989.480 1047.283, 989.180 1044.155 C 988.970 1041.971, 989.489 1040.118, 990.676 1038.806 C 993.689 1035.476, 1009.623 1025.242, 1012.922 1024.517 C 1016.826 1023.660, 1017.481 1021.434, 1017.492 1009 C 1017.500 999.541, 1017.481 999.470, 1013.181 992.500 C 1003.973 977.577, 996 963.582, 996 962.343 C 996 960.558, 992.367 958.391, 987 956.976 C 981.052 955.408, 974.245 951.348, 973.471 948.908 C 973.129 947.832, 970.360 944.263, 967.317 940.976 C 961.560 934.757, 961.407 934.393, 965.203 935.931 C 966.466 936.443, 968.735 937.126, 970.244 937.448 C 972.148 937.856, 973.423 939.077, 974.410 941.440 C 976.449 946.318, 979.734 948.224, 983.996 947.001 C 986.766 946.207, 988.007 946.396, 990.796 948.042 C 993.778 949.802, 994.634 949.900, 997.603 948.826 C 1001.931 947.261, 1001.870 946.437, 997.124 942.374 C 994.344 939.995, 991.638 935.733, 987.555 927.308 C 982.236 916.330, 980.950 912.410, 979.452 902.613 C 979.019 899.778, 977.795 897.771, 974.929 895.199 C 968.993 889.871, 970.262 882, 977.057 882 C 978.676 882, 979.994 881.663, 979.987 881.250 C 979.980 880.837, 976.220 876.358, 971.632 871.296 C 961.447 860.057, 952.239 847.970, 946.910 838.845 C 944.711 835.080, 942.506 832, 942.010 832 C 941.515 832, 939.441 828.826, 937.403 824.947 C 933.299 817.138, 930.470 815.036, 924.986 815.723 C 921.916 816.108, 921.011 815.665, 917.813 812.209 C 914.786 808.937, 912.594 807.775, 905.130 805.485 L 896.106 802.717 891.667 795.078 C 887.591 788.063, 885.120 785.389, 875.726 777.829 C 869.756 773.026, 866.840 765.525, 865.962 752.720 C 865.036 739.211, 865.676 732.309, 868.152 729.115 C 869.168 727.803, 870 725.991, 870 725.087 C 870 721.896, 863.106 709.111, 859.233 705.120 L 855.309 701.077 854.658 690.448 C 853.426 670.310, 850.253 662.601, 840.099 655.074 C 835.993 652.030, 831.019 647.073, 828.044 643.060 C 825.259 639.302, 822.299 635.663, 821.467 634.973 C 820.636 634.283, 816.595 628.858, 812.487 622.917 C 802.278 608.151, 798.196 605.403, 780.796 601.578 C 774.431 600.178, 771.797 598.938, 765.640 594.442 C 755.252 586.855, 751.645 587.133, 745.505 595.993 C 741.690 601.498, 733.519 606.830, 727.670 607.632 C 723.682 608.178, 721.633 607.681, 712.812 604.020 C 704.591 600.608, 701.147 599.712, 695.280 599.461 C 686.364 599.079, 682.040 597.739, 678.897 594.383 L 676.500 591.823 680.500 592.516 C 682.700 592.897, 688.325 594.294, 693 595.620 C 708.231 599.941, 718.569 597.686, 722.956 589.086 C 724.001 587.037, 726.351 583.544, 728.178 581.324 C 730.005 579.104, 732.400 576.102, 733.500 574.654 L 735.500 572.021 743 573.348 C 747.249 574.099, 751.691 574.342, 753.248 573.908 C 756.947 572.875, 772 562.188, 772 560.594 C 772 558.758, 764.241 548.199, 762.017 547.009 C 760.980 546.454, 757.964 545.993, 755.316 545.985 C 748.363 545.963, 747.362 545.073, 748.818 540.213 C 749.468 538.043, 750 535.308, 750 534.134 C 750 532.327, 750.587 532, 753.826 532 C 756.618 532, 758.289 531.322, 760.011 529.489 C 761.308 528.108, 764.107 526.510, 766.230 525.938 C 771.443 524.534, 773.289 521.172, 775.985 508.173 C 778.767 494.757, 781.180 490.544, 789.726 484.180 C 797.925 478.075, 798.319 477.459, 802.517 464.232 C 805.082 456.148, 805.632 453.161, 804.905 451.249 C 804.170 449.318, 804.527 447.528, 806.510 443.196 C 807.913 440.133, 809.508 434.470, 810.055 430.611 C 812.683 412.081, 817.724 400.240, 827.831 388.854 C 831.035 385.245, 834.631 380.922, 835.824 379.247 L 837.992 376.203 834.624 365.813 C 826.818 341.729, 822.155 337.890, 805.822 342.100 L 796.868 344.409 789.928 342.046 C 783.378 339.816, 782.666 339.762, 777.244 341.092 C 770.112 342.840, 768.207 342.598, 759.684 338.860 C 751.311 335.187, 749.101 335.531, 741.964 341.624 C 738.876 344.259, 736.005 345.946, 735.083 345.666 C 734.212 345.402, 731.250 344.275, 728.500 343.162 C 721.298 340.248, 711.016 336.931, 707.279 336.317 C 702.971 335.609, 691.532 339.167, 685.946 342.951 C 682.565 345.242, 680.362 345.968, 676.751 345.982 C 673.163 345.996, 669.776 347.099, 662.904 350.494 C 657.901 352.966, 651.263 355.643, 648.153 356.443 C 644.108 357.485, 641.931 358.691, 640.500 360.684 C 636.971 365.599, 632.249 370, 630.506 370 C 628.652 370, 644.403 352.601, 648.595 350.018 C 652.144 347.832, 651.622 346, 647.450 346 C 643.680 346, 639.153 344.094, 637.128 341.655 C 636.068 340.376, 636.482 340.265, 640.201 340.825 C 651.699 342.559, 653.012 342.135, 657.980 335.084 C 660.466 331.556, 665.087 326.073, 668.250 322.902 C 677.036 314.090, 676.147 313.363, 661.838 317.657 C 654.512 319.856, 652.546 320.114, 650.445 319.157 C 649.049 318.521, 646.690 317.968, 645.203 317.930 C 643.716 317.891, 641.600 317.508, 640.500 317.078 C 639.133 316.544, 639.986 316.329, 643.200 316.399 C 648.870 316.521, 649.966 315.566, 651.096 309.513 C 652.386 302.612, 656.589 297.157, 664.975 291.500 C 670.731 287.617, 672.910 285.444, 674.728 281.774 C 676.167 278.870, 678.700 275.926, 681.300 274.138 C 683.626 272.537, 688.448 267.732, 692.015 263.459 C 700.725 253.024, 708.613 246.613, 716.101 243.883 C 722.880 241.411, 725.730 238.340, 731.152 227.663 C 734.958 220.170, 734.670 217.126, 730.012 215.625 C 725.514 214.174, 725.282 212.453, 728.498 204.412 C 729.952 200.780, 731.221 195.939, 731.320 193.654 C 731.496 189.592, 731.422 189.493, 728 189.190 C 726.075 189.019, 721.640 188.006, 718.145 186.940 C 710.762 184.687, 707.641 184.506, 706.243 186.250 M 705.929 192.429 C 703.015 198.626, 701.083 199.557, 695.255 197.571 C 687.377 194.887, 684.230 195.511, 675.388 201.511 C 671.006 204.485, 665.370 204.753, 655.469 202.457 L 648.814 200.913 638.850 204.457 C 628.187 208.249, 622.994 208.783, 619 206.500 C 614.914 204.164, 610.375 204.742, 603.294 208.500 C 599.667 210.425, 595.979 211.998, 595.099 211.996 C 592.383 211.990, 587.175 208.239, 585.568 205.131 C 584.003 202.106, 580.617 200.888, 569.487 199.348 C 565.553 198.804, 565.402 198.899, 561.737 204.220 C 557.397 210.521, 557.354 210.814, 560 216 C 563.565 222.987, 562.578 227.351, 555.797 234.602 L 552.895 237.703 554.947 243.102 C 557.762 250.509, 557.594 251.429, 553.042 253.481 C 549.781 254.952, 547.670 255.142, 541.042 254.564 C 535.161 254.051, 533 254.178, 533 255.035 C 533 255.679, 535.475 262.493, 538.500 270.177 C 541.525 277.861, 544 284.564, 544 285.074 C 544 288.214, 537.148 282.662, 533.323 276.421 C 531.539 273.511, 532.805 281.202, 535.168 287.630 C 536.751 291.937, 537.540 292.858, 540.077 293.365 C 545.778 294.506, 549.638 309.051, 544.437 309.795 C 543.209 309.971, 540.320 308.454, 537.294 306.045 C 530.997 301.031, 531 301.031, 531 306.435 C 531 316.572, 527.467 318.520, 519.918 312.547 L 515.554 309.094 513.597 312.518 C 511.406 316.352, 506.732 319, 502.156 319 C 499.294 319, 499.096 319.251, 498.800 323.250 C 498.616 325.726, 499.167 328.961, 500.120 331 C 501.115 333.130, 501.924 338.126, 502.186 343.762 C 502.613 352.927, 502.657 353.064, 506.458 356.957 C 509.550 360.123, 510.817 360.787, 512.955 360.359 C 518.400 359.270, 520.560 366.594, 516.108 371.046 C 511.771 375.383, 508.880 374.945, 502.594 369 C 499.686 366.250, 497.013 364, 496.653 364 C 495.485 364, 496.117 384.401, 497.395 387.940 C 499.549 393.900, 503.102 394.107, 508.469 388.585 C 515.431 381.422, 520.200 383.116, 514.417 390.698 C 512.150 393.670, 511.966 394.465, 512.917 397.191 C 513.513 398.900, 514 401.737, 514 403.496 C 514 405.254, 514.701 408.097, 515.557 409.813 C 518.886 416.487, 514.346 429.477, 505.657 438.141 C 501.034 442.752, 499.998 444.396, 499.990 447.141 C 499.985 448.989, 498.909 452.801, 497.600 455.613 C 496.290 458.425, 494.909 462.137, 494.530 463.863 C 493.862 466.907, 493.944 467, 497.298 467 C 505.109 467, 504.573 470.539, 495.043 481.888 C 489.039 489.037, 488.712 489.923, 490.488 494.236 C 491.018 495.523, 490.548 496.221, 488.669 496.936 C 485.501 498.140, 481.382 497.016, 476.336 493.568 L 472.500 490.948 470.750 493.085 C 468.265 496.119, 468.522 496.667, 472.750 497.353 C 478.254 498.246, 496.228 511.997, 498.064 516.719 C 498.898 518.863, 499.065 518.888, 503.089 517.469 C 509.220 515.305, 513.689 515.550, 515.066 518.124 C 516.149 520.147, 516.557 519.896, 523.607 512.894 C 528.608 507.926, 531.550 504.073, 532.675 501.020 C 533.590 498.534, 535.008 495.711, 535.827 494.748 C 537.382 492.916, 545.614 488, 547.126 488 C 550.123 488, 545.205 503.523, 539.977 510.563 C 537.909 513.348, 534.785 518.465, 533.033 521.934 C 531.282 525.403, 528.812 529.279, 527.544 530.547 C 525.456 532.635, 525.340 533.233, 526.318 536.897 C 527.205 540.221, 527.095 541.578, 525.699 544.505 C 524.765 546.465, 524 548.726, 524 549.531 C 524 550.336, 522.462 552.696, 520.583 554.777 C 517.711 557.956, 517.006 559.708, 516.168 565.751 C 515.036 573.926, 515.384 576.003, 518.708 580.901 C 521.606 585.173, 521.168 588.381, 516.712 595.500 C 510.553 605.341, 506.899 613.367, 507.203 616.387 C 507.589 620.232, 509.653 620.855, 511.146 617.579 C 511.812 616.117, 513.149 615, 514.232 615 C 516.022 615, 516.127 615.771, 515.896 627.250 C 515.740 634.961, 515.124 640.797, 514.232 643 C 513.453 644.925, 512.658 650.375, 512.465 655.111 C 511.930 668.298, 507.369 682.965, 500.626 693.186 C 498.859 695.864, 498.863 695.878, 501.877 697.436 C 507.286 700.234, 517.487 698.303, 521.853 693.657 C 523.895 691.483, 523.928 690.992, 522.936 677.458 C 521.202 653.795, 522.649 647.730, 532.166 638.785 L 538.246 633.071 536.548 628.785 C 535.614 626.428, 533.562 623.150, 531.987 621.500 C 527.633 616.939, 527.063 614.466, 528.401 605.935 C 529.537 598.694, 529.803 598.183, 535.644 592.046 C 544.335 582.913, 546.855 584.502, 543.500 597 C 541.556 604.242, 541.609 610.041, 543.694 618.176 L 545.405 624.852 548.796 621.874 C 553.269 617.947, 554.177 618.460, 556.226 626.081 C 558.264 633.663, 560.962 640, 562.152 640 C 563.345 640, 563.213 623.267, 562.002 621.004 C 560.723 618.613, 563.125 616, 566.603 616 C 569.754 616, 570.579 613.772, 569.133 609.162 C 568.071 605.775, 568.177 605.331, 570.540 603.257 C 573.689 600.493, 577.783 599.376, 579.905 600.704 C 582.414 602.273, 582.335 607.322, 579.654 616.772 C 574.779 633.957, 574.550 636.341, 577.007 644.353 C 578.213 648.284, 579.380 652.101, 579.601 652.835 C 579.822 653.569, 582.711 655.367, 586.021 656.830 C 591.689 659.335, 592.160 659.811, 594.100 664.995 C 599.403 679.167, 599.078 681.321, 590.027 692 C 587.462 695.025, 584.334 699.525, 583.075 702 C 581.815 704.475, 579.272 709.471, 577.423 713.102 C 575.574 716.733, 573.390 720.262, 572.568 720.943 C 570.153 722.948, 564.996 737.512, 565.036 742.218 C 565.055 744.573, 565.664 748.976, 566.388 752.003 C 567.800 757.903, 567.178 767.222, 565.243 769.157 C 562.143 772.257, 559.745 767.319, 558.405 755.075 L 557.702 748.650 554.851 751.841 C 551.453 755.644, 550.820 764.817, 553.586 770.167 C 556.893 776.562, 571.215 795.785, 574.561 798.320 C 579.631 802.161, 580.546 797.085, 576.048 790.075 C 572.397 784.385, 569.732 778.139, 570.313 776.633 C 570.554 776.010, 573.937 774.398, 577.832 773.051 L 584.914 770.603 593.014 776.051 C 598.913 780.020, 602.526 783.401, 606.312 788.500 C 610.617 794.296, 612.059 795.553, 614.699 795.809 C 618.239 796.152, 618.443 795.639, 619.317 784.162 C 619.662 779.623, 619.360 778.392, 617.292 775.935 C 615.620 773.948, 614.682 771.319, 614.290 767.523 C 613.491 759.783, 615.362 760.159, 625.394 769.754 C 636.646 780.516, 639.620 781.730, 649.406 779.553 C 655.004 778.308, 658.014 776.995, 661.010 774.492 C 663.682 772.259, 668.439 770.003, 675.027 767.843 L 685 764.575 685 760.236 C 685 756.238, 685.270 755.785, 688.437 754.462 C 696.794 750.970, 722.354 751.910, 726.298 755.854 C 728.641 758.197, 727.846 761.597, 724.724 762.588 C 723.528 762.967, 719.756 763.201, 716.342 763.107 L 710.133 762.936 706.463 769.218 C 700.927 778.693, 694.374 787.563, 690.899 790.282 C 688.323 792.298, 687.312 794.426, 684.972 802.762 C 681.467 815.246, 680.464 821.551, 681.846 822.405 C 682.417 822.758, 686.085 829.673, 689.996 837.773 C 693.908 845.873, 698.161 853.625, 699.449 855 C 700.736 856.375, 702.085 858.907, 702.447 860.627 C 702.809 862.346, 704.206 865.246, 705.552 867.071 C 706.899 868.896, 708 871.093, 708 871.954 C 708 872.815, 708.900 874.081, 710 874.768 C 711.100 875.455, 712 877.082, 712 878.383 C 712 890.474, 717.758 889.898, 726.626 876.918 C 731.151 870.296, 734.148 868.349, 735.352 871.250 C 735.883 872.527, 738.195 870.389, 740.633 866.369 C 741.716 864.582, 741.883 864.609, 744.441 866.979 C 745.913 868.342, 748.442 872.236, 750.063 875.632 L 753.009 881.805 746.522 888.293 C 739.403 895.412, 738.003 898.042, 737.994 904.315 C 737.986 910.928, 736.208 915.971, 733.525 916.990 C 731.080 917.920, 730.552 918.985, 729.447 925.223 C 728.856 928.560, 729.056 929.069, 731.379 930.127 C 732.853 930.798, 734.917 933.262, 736.164 935.840 C 738.312 940.276, 738.318 940.394, 736.437 941.436 C 733.691 942.957, 728.742 948.183, 727.088 951.307 C 725.858 953.630, 725.884 954.718, 727.292 959.737 C 728.181 962.907, 729.159 966.625, 729.466 968 C 729.813 969.555, 732.345 972.201, 736.165 975 C 742.009 979.283, 742.447 979.905, 745.224 987.879 C 746.829 992.487, 747.773 996.609, 747.321 997.038 C 745.156 999.097, 735.724 993.376, 727.921 985.273 C 720.062 977.111, 718.614 976.746, 721.500 983.654 C 724.960 991.936, 720.903 998.409, 712.633 997.801 C 708.551 997.501, 708.533 997.482, 706.020 990.636 C 704.004 985.146, 702.700 983.204, 699.500 980.927 C 694.117 977.098, 693.419 977.242, 690.620 982.750 C 689.293 985.362, 686.322 989.862, 684.018 992.750 C 679.099 998.916, 675.995 999.550, 671.058 995.395 L 667.963 992.791 664.382 995.645 C 657.108 1001.444, 655.658 1002.122, 651.436 1001.697 C 643.652 1000.913, 641.540 999.175, 641.199 993.272 L 640.898 988.062 636.799 991.031 C 632.581 994.086, 627.251 994.979, 626.537 992.750 C 626.317 992.063, 625.423 988.928, 624.551 985.785 C 623.678 982.642, 621.904 978.837, 620.608 977.330 L 618.251 974.590 612.412 976.545 C 609.200 977.620, 605.505 979.410, 604.200 980.523 L 601.827 982.545 603.482 988.931 C 604.392 992.444, 604.886 996.319, 604.579 997.542 C 604.136 999.305, 604.619 1000.014, 606.912 1000.963 C 611.400 1002.822, 613.798 1006.053, 614.703 1011.459 C 615.350 1015.327, 616.006 1016.536, 617.685 1016.959 C 620.634 1017.701, 627 1023.675, 627 1025.701 C 627 1026.610, 625.340 1029.862, 623.312 1032.927 C 621.283 1035.992, 618.526 1040.182, 617.184 1042.238 C 614.536 1046.296, 610.560 1047.973, 603.500 1048.010 C 598.838 1048.034, 597.762 1048.607, 596.005 1052 C 595.293 1053.375, 593.486 1056.075, 591.989 1058 C 586.208 1065.434, 587.104 1066.643, 594.645 1061.584 C 599.423 1058.379, 602.501 1057, 604.876 1057 C 607.645 1057, 609.613 1055.801, 615.510 1050.523 C 624.148 1042.793, 626.283 1041.827, 631.930 1043.096 C 637.640 1044.378, 641.006 1046.771, 642.655 1050.718 C 644.081 1054.130, 643.643 1055.731, 639.799 1061.161 C 638.875 1062.465, 639.102 1064.905, 640.855 1072.537 C 642.822 1081.100, 642.943 1082.895, 641.878 1087.657 C 640.756 1092.666, 640.826 1093.274, 642.834 1095.990 C 644.025 1097.601, 644.992 1100.175, 644.983 1101.710 C 644.950 1107.104, 640.202 1122.134, 636.745 1127.786 C 634.823 1130.929, 632.526 1134.926, 631.641 1136.670 C 629.791 1140.312, 616.900 1150.155, 609.435 1153.624 C 606.649 1154.918, 603.274 1157.149, 601.935 1158.580 C 597.834 1162.964, 596.469 1163.280, 591.831 1160.914 L 587.634 1158.773 585.067 1161.837 C 583.655 1163.523, 579.834 1166.949, 576.575 1169.451 C 571.051 1173.693, 570.240 1174.001, 564.575 1174.015 C 557.706 1174.033, 557.298 1174.220, 554.058 1178.856 C 552.523 1181.053, 549.517 1183.198, 545.356 1185.065 C 541.860 1186.633, 539 1188.385, 539 1188.958 C 539 1189.531, 538.992 1190.338, 538.983 1190.750 C 538.974 1191.162, 541.783 1191.725, 545.225 1192 C 552.645 1192.593, 553.985 1194.323, 554.305 1203.718 C 554.499 1209.404, 554.480 1209.443, 550.750 1211.225 C 545.701 1213.636, 546.027 1214.613, 552.149 1215.425 C 555.964 1215.931, 557.979 1216.837, 559.924 1218.918 C 563.495 1222.742, 572.629 1227.681, 577.500 1228.423 C 580.804 1228.926, 582.414 1228.504, 586.750 1225.996 L 592 1222.960 592 1216.980 C 592 1210.834, 594.523 1206.240, 597.327 1207.280 C 604.425 1209.912, 608.822 1210.242, 614.212 1208.547 C 621.624 1206.215, 623.225 1207.160, 626.002 1215.505 C 628.234 1222.215, 630.556 1224.770, 637.700 1228.382 C 641.925 1230.518, 644.126 1230.424, 648.968 1227.900 C 657.243 1223.586, 665.730 1228.094, 674.662 1241.546 C 679.988 1249.568, 691.191 1255.230, 701.896 1255.310 C 713.679 1255.398, 719.678 1252.024, 726.528 1241.457 C 731.714 1233.456, 731.692 1233.465, 745.404 1233.763 C 752.057 1233.908, 757.960 1233.683, 758.522 1233.263 C 759.084 1232.843, 762.859 1228.310, 766.910 1223.188 C 776.063 1211.617, 778.486 1211.862, 772.598 1223.763 C 763.848 1241.451, 759.447 1246.559, 749.558 1250.501 C 744.062 1252.692, 741.762 1255.991, 740.560 1263.405 C 740.212 1265.552, 739.606 1267.802, 739.213 1268.405 C 738.821 1269.007, 737.825 1271.934, 737 1274.909 L 735.500 1280.318 727.500 1282.505 C 723.100 1283.707, 717.025 1285.881, 714 1287.336 C 706.945 1290.728, 704.319 1290.674, 697.265 1286.989 C 693.824 1285.192, 688.093 1283.382, 683.050 1282.500 C 678.403 1281.688, 673.122 1280.535, 671.316 1279.939 C 669.509 1279.343, 667.054 1279.165, 665.860 1279.544 C 664.666 1279.923, 658.696 1280.627, 652.594 1281.109 C 635.925 1282.424, 629.164 1283.436, 627.776 1284.824 C 626.771 1285.829, 627.082 1287.608, 629.345 1293.789 C 633.832 1306.046, 633.854 1307.367, 629.602 1309.385 C 626.316 1310.944, 625.594 1310.957, 620.844 1309.546 C 617.997 1308.701, 614.871 1307.288, 613.897 1306.407 C 611.580 1304.310, 610.483 1305.114, 607.428 1311.142 C 605.753 1314.448, 604.560 1319.083, 603.908 1324.816 C 602.476 1337.425, 599.931 1342.140, 587.870 1354.537 C 581.904 1360.669, 576.568 1365.289, 575.070 1365.619 C 573.656 1365.931, 571.734 1366.393, 570.798 1366.645 C 568.374 1367.299, 561.805 1377.528, 559.174 1384.743 C 557.443 1389.490, 555.766 1391.903, 551.720 1395.467 C 548.849 1397.997, 544.016 1403.302, 540.981 1407.256 C 534.792 1415.318, 530.061 1419, 525.890 1419 C 521.105 1419, 511.686 1423.062, 507.750 1426.823 C 503.467 1430.916, 503.219 1431.983, 505.974 1434.477 C 508.458 1436.725, 510.950 1435.334, 516.644 1428.521 C 522.232 1421.836, 525.517 1422.350, 537.040 1431.708 C 540.986 1434.912, 545.065 1439.231, 546.170 1441.375 L 548.169 1445.251 552.674 1440.875 C 558.424 1435.292, 562.078 1429.926, 564.846 1423 C 567.547 1416.242, 575.355 1407.692, 578.116 1408.469 C 579.152 1408.761, 580.875 1409.247, 581.944 1409.550 C 583.307 1409.935, 584.403 1409.314, 585.608 1407.476 C 587.253 1404.965, 587.234 1404.662, 585.163 1400.399 C 582.155 1394.207, 582.374 1393.246, 587.084 1391.977 C 592.045 1390.641, 596.680 1391.515, 598.288 1394.090 C 599.856 1396.600, 600.048 1396.575, 610.429 1392.500 C 621.127 1388.300, 622.573 1388.235, 629.117 1391.656 C 631.911 1393.117, 636.383 1394.523, 639.055 1394.779 C 642.070 1395.069, 644.557 1395.958, 645.611 1397.123 C 646.546 1398.155, 648.516 1399, 649.989 1399 C 651.523 1399, 655.197 1400.786, 658.584 1403.178 C 670.984 1411.935, 674.486 1411.545, 680.184 1400.772 C 682.322 1396.732, 684.510 1394.024, 686.342 1393.153 C 689.913 1391.456, 692 1386.575, 692 1379.920 C 692 1374.012, 697.937 1356.846, 701.200 1353.320 C 702.446 1351.973, 704.339 1351.172, 706.152 1351.223 C 708.155 1351.280, 711.448 1349.658, 716.527 1346.112 C 732.511 1334.952, 738.963 1334.229, 744.486 1342.977 C 746.630 1346.374, 747.550 1346.950, 751.721 1347.507 C 758.342 1348.391, 761.666 1349.817, 764.270 1352.892 C 769.156 1358.660, 775.782 1364.021, 777.304 1363.437 C 778.155 1363.110, 779.148 1361.081, 779.512 1358.927 C 780.337 1354.044, 780.863 1353.731, 788.691 1353.452 C 793.815 1353.270, 795.681 1353.649, 798.277 1355.400 C 809.112 1362.708, 813.127 1363.926, 820.046 1362.004 C 827.551 1359.919, 827.980 1358.787, 823.221 1353.624 C 819.256 1349.323, 817.747 1344.892, 819.813 1343.616 C 820.260 1343.340, 827.880 1343.016, 836.746 1342.898 C 850.416 1342.715, 853.257 1342.938, 855.435 1344.366 C 857.766 1345.893, 858.278 1345.908, 860.953 1344.525 C 867.142 1341.324, 869.633 1343.955, 868.615 1352.617 L 867.992 1357.921 871.746 1358.885 C 877.666 1360.405, 883.789 1358.864, 890.742 1354.107 C 897.604 1349.411, 898.787 1348.154, 896.813 1347.652 C 896.091 1347.468, 891.675 1346.123, 887 1344.663 C 882.325 1343.203, 877.601 1341.888, 876.502 1341.741 C 874.583 1341.484, 870.253 1335.024, 870.081 1332.161 C 869.973 1330.382, 879 1330.974, 888.500 1333.370 C 902.312 1336.853, 904.008 1337.075, 908.200 1335.946 C 913.398 1334.547, 917.376 1336.078, 919.052 1340.124 L 920.275 1343.077 922.093 1340.087 C 925.436 1334.591, 928.752 1333.655, 947.500 1332.923 C 956.850 1332.557, 966.072 1331.750, 967.993 1331.129 C 973.757 1329.266, 977.177 1329.811, 983.445 1333.590 C 988.472 1336.621, 997.369 1340.511, 1004.223 1342.675 C 1005.420 1343.053, 1007.481 1341.540, 1010.967 1337.727 C 1016.352 1331.834, 1021.087 1329.013, 1025.651 1328.978 C 1029.255 1328.950, 1036.004 1325.913, 1042.714 1321.301 C 1046.017 1319.031, 1048.950 1317.779, 1050.714 1317.887 C 1052.246 1317.980, 1056.650 1318.157, 1060.500 1318.278 L 1067.500 1318.500 1068.066 1311.227 C 1068.589 1304.499, 1068.889 1303.729, 1072.066 1300.961 C 1079.516 1294.470, 1084.265 1291.769, 1090.531 1290.458 C 1098.554 1288.779, 1100.629 1287.657, 1103.050 1283.686 C 1105.632 1279.452, 1105.504 1276.832, 1102.500 1272.405 C 1099.280 1267.660, 1099.381 1265.391, 1103.028 1260.572 C 1104.663 1258.411, 1106 1256.274, 1106 1255.822 C 1106 1254.125, 1092.032 1254.944, 1088.210 1256.864 C 1086.170 1257.890, 1080.553 1259.760, 1075.728 1261.021 C 1065.148 1263.787, 1063.732 1263.316, 1058.377 1255.249 C 1053.854 1248.435, 1052.810 1248.082, 1048.468 1251.894 C 1043.149 1256.564, 1040.039 1255.475, 1039.514 1248.758 C 1039.229 1245.111, 1037.442 1244.336, 1028.809 1244.118 C 1023.831 1243.993, 1022.615 1243.167, 1023.605 1240.587 C 1024.263 1238.872, 1030.541 1236.866, 1041.105 1234.997 C 1049.110 1233.581, 1062.918 1226.458, 1064.721 1222.816 C 1065.392 1221.460, 1066.239 1217.684, 1066.603 1214.425 C 1067.753 1204.111, 1068.795 1202.633, 1077.146 1199.463 C 1087.595 1195.496, 1095.310 1187.164, 1091 1184.500 C 1090.450 1184.160, 1090 1182.806, 1090 1181.490 C 1090 1179.582, 1091.335 1178.351, 1096.603 1175.405 C 1109.877 1167.982, 1119.293 1154.789, 1120.442 1142 C 1120.985 1135.967, 1121.985 1132.740, 1125.559 1125.500 C 1131 1114.476, 1133.115 1104.411, 1133.124 1089.500 C 1133.132 1075.962, 1131.739 1068.407, 1128.616 1065.040 C 1127.319 1063.643, 1125.474 1061.263, 1124.514 1059.750 C 1122.582 1056.704, 1120.470 1056.268, 1118.079 1058.422 C 1114.030 1062.069, 1111.623 1061.470, 1104.382 1055.013 C 1100.597 1051.638, 1094.817 1047.075, 1091.538 1044.873 L 1085.577 1040.870 1076.038 1041.543 C 1067.820 1042.123, 1065.499 1041.912, 1059.264 1040.015 L 1052.028 1037.814 1043.512 1040.468 C 1033.660 1043.538, 1027.832 1047.555, 1023.364 1054.355 C 1017.529 1063.237, 1016.418 1064, 1009.326 1064 L 1003 1064 1003 1060.691 C 1003 1056.171, 1001.416 1054.521, 995.130 1052.492 C 987.694 1050.093, 985.626 1047.824, 986.299 1042.806 C 986.591 1040.627, 987.656 1037.922, 988.665 1036.795 C 991.270 1033.885, 1006.925 1023.502, 1010.472 1022.332 C 1014.106 1021.134, 1014.769 1019.055, 1014.900 1008.444 C 1014.989 1001.274, 1014.718 1000.010, 1012.436 996.944 C 1011.025 995.050, 1007.795 989.675, 1005.258 985 C 1002.721 980.325, 998.879 973.869, 996.720 970.654 C 994.561 967.438, 992.688 964.078, 992.557 963.186 C 992.407 962.164, 990.283 960.961, 986.805 959.928 C 978.388 957.430, 973.101 954.029, 970.358 949.347 C 966.901 943.448, 959.637 937, 956.449 937 C 954.552 937, 953.941 936.546, 954.178 935.313 C 954.742 932.386, 960.171 931.783, 967.690 933.813 C 973.604 935.410, 974.725 936.093, 976.209 938.999 C 979.045 944.554, 980.355 945.421, 983.998 944.151 C 986.653 943.225, 987.820 943.378, 991.181 945.092 C 996.527 947.820, 996.966 946.946, 992.734 942.002 C 987.546 935.942, 978.271 914.968, 977.090 906.629 C 976.205 900.384, 975.773 899.497, 972.061 896.320 C 969.004 893.703, 968 892.110, 968 889.872 C 968 886.010, 970.574 881.093, 973.082 880.165 C 974.857 879.509, 974.413 878.716, 968.743 872.421 C 959.393 862.040, 949.517 849.106, 945.465 841.938 C 943.498 838.458, 940.989 834.980, 939.891 834.211 C 938.792 833.442, 936.559 830.042, 934.928 826.656 C 931.279 819.084, 929.989 818.058, 924.961 818.732 C 921.366 819.214, 920.661 818.896, 916.834 815.069 C 913.425 811.661, 910.907 810.322, 903.349 807.901 L 894.055 804.924 890.308 798.212 C 886.286 791.007, 879.539 783, 877.489 783 C 875.395 783, 868.928 775.084, 866.258 769.253 C 862.017 759.988, 861.306 733.827, 865.153 728.595 C 867.075 725.981, 867.163 725.329, 866.029 722.095 C 864.085 716.550, 859.048 708.096, 857.054 707.029 C 854.069 705.431, 852.003 699.674, 851.965 692.849 C 851.866 674.887, 847.769 664.190, 838.337 657.272 C 832.445 652.951, 822.511 641.789, 814.600 630.601 C 800.242 610.296, 797.133 607.870, 781.184 604.531 C 772.795 602.775, 771.350 602.126, 764.500 597.040 C 754.559 589.657, 753.471 589.698, 747.810 597.663 C 743.321 603.980, 734.381 609.687, 727.696 610.506 C 723.076 611.071, 721.391 610.677, 712.500 606.949 C 704.363 603.537, 700.824 602.625, 693.500 602.049 C 688.550 601.661, 683.150 600.633, 681.500 599.766 C 677.231 597.523, 673.634 593.395, 674.342 591.551 C 675.350 588.923, 680.036 589.192, 692.829 592.612 C 700.485 594.659, 703.388 594.984, 709.020 594.429 C 716.440 593.698, 717.795 592.783, 721.747 585.836 C 722.893 583.821, 726.178 579.186, 729.047 575.535 C 733.625 569.710, 734.582 568.968, 736.881 569.467 C 743.966 571.006, 751.253 571.845, 752.789 571.299 C 754.340 570.748, 766.220 562.831, 768.404 560.894 C 768.917 560.439, 767.495 557.689, 765.122 554.546 C 761.038 549.137, 760.814 549, 756.015 549 C 746.751 549, 743.962 546.196, 746.107 539.038 C 747.651 533.885, 747.254 533.576, 742.222 536.007 C 739.953 537.103, 737.449 538, 736.657 538 C 735.866 538, 733.040 539.800, 730.377 542 C 720.001 550.574, 716.678 543.783, 724.903 530.814 C 729.967 522.829, 731.126 522.493, 741.508 526.003 C 752.373 529.675, 755.321 529.749, 759.245 526.447 C 760.914 525.043, 763.597 523.631, 765.207 523.309 C 769.281 522.494, 770.467 520.147, 773.348 507.205 C 776.495 493.067, 779.049 488.635, 787.780 482.163 C 791.535 479.379, 795.138 476.066, 795.786 474.801 C 798.611 469.287, 802.353 455.238, 802.144 450.934 C 801.990 447.783, 802.705 444.684, 804.451 440.934 C 805.842 437.945, 806.985 434.129, 806.990 432.453 C 807.007 427.369, 810.853 411.389, 813.503 405.397 C 816.184 399.336, 823.359 388.756, 826.998 385.500 C 828.227 384.400, 830.477 381.697, 831.998 379.492 L 834.763 375.485 831.945 366.840 C 827.671 353.726, 823.823 346.758, 819.601 344.484 C 816.034 342.563, 815.993 342.565, 806.583 344.927 L 797.143 347.297 790.011 345.003 C 783.489 342.907, 782.418 342.820, 777.514 343.997 C 770.799 345.608, 765.922 344.975, 758.142 341.483 C 751.267 338.398, 748.362 338.843, 743.849 343.675 C 739.036 348.828, 736.800 349.293, 729.786 346.598 C 720.307 342.956, 707.516 339, 705.218 339 C 701.470 339, 690.883 342.809, 686.838 345.613 C 683.885 347.659, 681.467 348.439, 677.598 348.592 C 673.632 348.750, 670.126 349.921, 663.177 353.411 C 658.128 355.947, 651.789 358.495, 649.092 359.074 C 644.850 359.983, 643.665 360.826, 640.319 365.311 C 636.152 370.897, 633.438 372.639, 628.084 373.165 C 622.611 373.702, 623.312 371.681, 631.682 362.791 C 635.982 358.225, 640.578 353.267, 641.896 351.775 L 644.291 349.061 641.396 347.967 C 635.655 345.797, 630.993 339.359, 633.874 337.578 C 634.354 337.281, 638.366 337.566, 642.790 338.211 C 652.159 339.576, 652.120 339.595, 657.610 331.157 C 659.635 328.046, 662.651 324.051, 664.313 322.280 L 667.335 319.059 660.077 321.113 C 654.463 322.702, 652.216 322.932, 650.159 322.127 C 648.697 321.555, 644.911 320.632, 641.746 320.076 C 634.965 318.886, 632 317.483, 632 315.465 C 632 313.727, 632.557 313.608, 640.960 313.547 L 647.419 313.500 648.150 309.297 C 649.573 301.105, 653.928 295.315, 663.079 289.449 C 668.526 285.958, 670.465 284.016, 672.485 280.030 C 674.009 277.023, 676.535 274.012, 678.784 272.524 C 680.850 271.157, 686.177 265.861, 690.622 260.755 C 700.223 249.727, 707.535 243.886, 714.906 241.356 C 720.817 239.326, 724.085 235.790, 728.758 226.366 C 731.460 220.914, 731.262 218, 728.186 218 C 725.861 218, 723 214.966, 723 212.500 C 723 211.486, 724.079 207.922, 725.397 204.578 C 730.094 192.667, 730.124 192.781, 721.766 190.634 C 708.254 187.163, 708.412 187.145, 705.929 192.429 M 458.500 213.561 C 456.850 214.413, 453.250 217.299, 450.500 219.975 C 444.400 225.911, 432.450 234, 429.781 234 C 428.706 234, 425.053 236.612, 421.663 239.805 C 418.274 242.998, 414.317 246.348, 412.872 247.248 C 410.923 248.463, 410.073 250.029, 409.581 253.308 C 409.216 255.740, 408.293 258.578, 407.529 259.615 C 406.200 261.418, 405.987 261.353, 402.635 258.116 C 400.044 255.616, 398.548 254.885, 396.903 255.315 C 395.678 255.635, 393.897 255.480, 392.943 254.970 C 390.689 253.763, 389.413 255.320, 387.505 261.609 C 385.388 268.589, 385.642 273.161, 388.541 280.270 L 391.081 286.500 388.812 288 C 384.111 291.108, 382.881 292.908, 384.012 295.023 C 384.594 296.110, 385.468 297, 385.954 297 C 386.439 297, 388.710 298.800, 391 301 C 393.916 303.802, 396.037 305, 398.082 305 C 402.176 305, 401.732 306.291, 396.250 310.324 C 387.306 316.904, 386.719 317.912, 387.931 324.632 C 388.513 327.859, 389.237 332.188, 389.540 334.250 C 389.930 336.908, 390.589 338, 391.802 338 C 395.486 338, 400.224 335.985, 402.075 333.632 C 403.143 332.274, 406.855 329.576, 410.323 327.636 C 417.008 323.898, 419 321.146, 419 315.650 L 419 312.394 424.471 312.447 C 429.925 312.500, 429.964 312.478, 437.038 305.500 C 450.488 292.234, 451.235 290.769, 452.285 275.609 C 452.784 268.399, 453.571 262.266, 454.033 261.980 C 454.496 261.694, 455.765 259.381, 456.854 256.840 C 457.943 254.299, 459.316 251.922, 459.905 251.558 C 460.494 251.194, 462.213 248.786, 463.724 246.207 C 466.579 241.337, 467.533 236.387, 468.630 220.750 L 469.245 212 465.372 212.006 C 463.243 212.010, 460.150 212.709, 458.500 213.561 M 459.500 216.175 C 458.400 216.787, 454.519 220.036, 450.876 223.394 C 443.482 230.209, 433.225 237, 430.325 237 C 429.280 237, 426.192 239.285, 423.462 242.078 C 420.733 244.872, 417.304 247.787, 415.842 248.557 C 413.895 249.582, 413.002 251.028, 412.508 253.955 C 411.809 258.087, 408.386 264.055, 406.327 264.731 C 405.682 264.942, 403.753 263.576, 402.040 261.694 C 399.553 258.961, 398.173 258.273, 395.179 258.273 C 391.483 258.273, 391.407 258.352, 389.751 263.973 C 387.927 270.162, 388.307 273.055, 392.022 281.239 C 394.680 287.095, 394.566 287.597, 389.878 290.699 L 385.757 293.427 388.128 294.953 C 389.433 295.793, 391.772 297.722, 393.327 299.240 C 395.012 300.886, 397.253 302, 398.877 302 C 401.970 302, 404 303.614, 404 306.074 C 404 306.994, 400.962 310.195, 397.250 313.187 C 389.941 319.077, 390.257 318.178, 391.596 329.297 L 392.295 335.094 395.351 334.423 C 397.032 334.054, 399.245 332.687, 400.269 331.386 C 401.292 330.085, 404.913 327.394, 408.315 325.408 C 416.106 320.857, 415.404 321.793, 415.994 315.172 L 416.500 309.500 422.266 309.837 L 428.033 310.175 435.566 302.870 C 446.438 292.329, 448.988 288.113, 449.051 280.579 C 449.139 270.198, 450.467 261.391, 452.206 259.652 C 453.103 258.755, 454.127 256.697, 454.483 255.079 C 454.838 253.462, 455.836 251.551, 456.700 250.834 C 460.191 247.937, 463.427 241.318, 464.197 235.500 C 464.634 232.200, 465.334 227.250, 465.753 224.500 C 467.141 215.385, 465.306 212.942, 459.500 216.175 M 463.401 255.198 C 455.839 262.168, 453.269 270, 458.543 270 C 461.907 270, 470.541 261.920, 472.044 257.366 C 474.502 249.920, 470.277 248.860, 463.401 255.198 M 463.637 258.957 C 459.432 263.452, 457.736 267, 459.792 267 C 461.189 267, 468.761 258.580, 469.460 256.250 C 470.519 252.720, 468.666 253.581, 463.637 258.957 M 376.618 339.715 C 376.225 340.108, 375.008 342.454, 373.914 344.928 C 370.041 353.683, 367.119 354.987, 362.893 349.847 C 359.462 345.672, 357.710 346.486, 355.098 353.469 C 352.249 361.082, 352.270 365.232, 355.154 364.813 C 356.799 364.574, 357.999 365.621, 360.237 369.248 C 362.970 373.677, 363.097 374.321, 362.129 378.836 C 361.558 381.498, 360.777 389.614, 360.394 396.873 C 360.011 404.131, 359.315 410.305, 358.849 410.594 C 354.726 413.141, 363.196 435.290, 367.640 433.585 C 368.430 433.282, 369.332 433.701, 369.645 434.517 C 369.992 435.422, 371.528 436, 373.584 436 C 379.622 436, 382.540 427.969, 379.619 419.395 C 377.075 411.930, 378.066 398.873, 381.599 393.285 C 383.533 390.228, 383.378 389.315, 380.500 386.813 C 377.189 383.934, 377.324 383.334, 381.750 381.248 C 385.190 379.627, 385.509 379.127, 385.608 375.194 C 385.689 371.949, 386.398 370.195, 388.522 367.977 C 391.003 365.387, 391.381 364.124, 391.790 357.060 C 392.244 349.230, 392.201 349.049, 389.646 347.884 C 388.212 347.231, 386.778 345.877, 386.460 344.874 C 385.257 341.085, 378.691 337.643, 376.618 339.715 M 451.285 343.656 C 446.430 346.484, 445.234 350.046, 446.524 357.826 C 448.968 372.554, 444.934 373.213, 436.026 359.541 C 429.134 348.962, 423.346 351.393, 424.182 364.515 L 424.596 371.026 419.739 376.263 C 414.467 381.947, 414.499 381.697, 417.861 391 C 420.272 397.672, 422.207 398.294, 429.018 394.587 C 434.847 391.414, 435.073 391.411, 438.354 394.452 C 440.603 396.536, 441 397.738, 441 402.452 C 441 407.597, 442.007 409.415, 443.510 406.984 C 444.693 405.070, 445.912 407.065, 447.055 412.782 C 448.034 417.681, 449.097 419.487, 454.474 425.390 C 461.465 433.063, 462.999 433.396, 468.816 428.501 C 471.249 426.454, 471.891 426.273, 472.362 427.501 C 473.214 429.720, 475.085 429.275, 479 425.919 C 485.450 420.392, 483.409 428.393, 476.364 436.253 C 472.250 440.843, 472.196 442.072, 475.930 446.234 L 478.859 449.500 482.395 447.611 C 485.741 445.824, 492.198 439.350, 505.250 424.695 C 510.495 418.807, 511 417.832, 511 413.604 C 511 409.323, 510.741 408.844, 507.626 407.359 C 503.033 405.169, 499.375 406.513, 495.249 411.908 C 491.286 417.089, 491.009 416.618, 490.135 403.229 C 489.460 392.885, 488.998 392.237, 483.860 394.430 C 481.722 395.342, 482.315 383.443, 484.689 377.819 C 485.755 375.290, 486.111 372.081, 485.824 367.572 C 485.365 360.376, 483.968 357.900, 481.311 359.575 C 479.119 360.958, 473.305 377.137, 472.534 384 C 471.112 396.658, 470.528 396.658, 469.901 384 C 469.218 370.226, 468.546 366.661, 464.184 353.702 C 461.278 345.068, 458.769 340.901, 456.595 341.100 C 455.993 341.155, 453.603 342.305, 451.285 343.656 M 375.954 347.098 C 371.728 356.120, 366.843 358.185, 361.996 352.996 L 359.191 349.992 357.595 354.674 C 355.530 360.735, 355.575 361.334, 358.183 362.513 C 360.034 363.350, 363.394 367.974, 365.635 372.768 C 365.961 373.466, 365.749 375.941, 365.163 378.268 C 364.578 380.596, 363.790 388.575, 363.413 396 C 363.015 403.821, 362.172 410.600, 361.407 412.116 C 359.916 415.072, 360.815 419.732, 364.139 426.262 C 365.763 429.455, 366.421 429.932, 368.483 429.415 C 370.499 428.909, 371.024 429.248, 371.565 431.403 C 372.316 434.395, 373.221 434.636, 375.427 432.430 C 377.883 429.974, 378.429 426.022, 376.998 421.059 C 374.306 411.720, 374.988 399.792, 378.614 392.779 C 380.042 390.017, 379.992 389.781, 377.557 387.866 C 373.381 384.581, 374.870 380.344, 380.843 378.521 C 382.841 377.912, 383.100 377.341, 382.604 374.653 C 382.127 372.069, 382.652 370.707, 385.511 367.109 C 388.655 363.153, 389 362.101, 389 356.476 C 389 351.087, 388.728 350.162, 387.012 349.713 C 385.919 349.427, 384.590 348.052, 384.060 346.658 C 383.262 344.558, 380.338 342, 378.737 342 C 378.520 342, 377.267 344.294, 375.954 347.098 M 453.221 345.823 C 449.338 347.674, 448.504 350.209, 449.445 357.304 C 450.538 365.544, 450.149 369.296, 447.976 371.469 C 446.108 373.336, 445.822 373.359, 443.244 371.847 C 440.626 370.312, 431.698 359.595, 430.805 356.914 C 430.558 356.174, 429.672 355.912, 428.690 356.289 C 426.704 357.051, 426.268 366.763, 428.069 370.128 C 429.481 372.766, 429.578 377.822, 428.243 379.157 C 427.492 379.908, 426.772 379.443, 425.790 377.569 L 424.401 374.918 421.166 378.943 C 418.122 382.730, 418.015 383.130, 419.345 385.734 C 420.123 387.255, 421.072 389.952, 421.454 391.727 L 422.149 394.954 428.108 391.946 C 433.956 388.993, 434.131 388.968, 437.577 390.604 C 441.389 392.412, 444 396.416, 444 400.450 C 444 401.853, 444.418 403, 444.929 403 C 447 403, 448.844 406.227, 449.501 411.005 C 450.081 415.222, 451.125 417.136, 455.788 422.531 C 458.863 426.089, 461.981 429, 462.716 429 C 463.451 429, 466.090 426.963, 468.579 424.474 C 473.205 419.848, 475 419.496, 475 423.214 C 475 425.163, 475.125 425.197, 476.787 423.693 C 479.572 421.172, 485.786 418.845, 486.528 420.045 C 487.733 421.995, 483.782 431.800, 479.897 436.502 C 475.396 441.949, 475.357 442.108, 477.946 444.451 C 480.430 446.699, 482.769 445.184, 491.500 435.669 C 506.761 419.038, 508.517 416.679, 508.187 413.253 C 507.555 406.696, 501.234 407.893, 495.952 415.570 C 490.988 422.785, 488.461 419.845, 487.364 405.580 C 486.733 397.360, 486.573 396.890, 484.589 397.388 C 480.446 398.428, 479.550 396.718, 479.861 388.364 C 480.020 384.100, 480.791 379.371, 481.575 377.855 C 483.125 374.857, 483.603 361.959, 482.105 363.550 C 479.957 365.831, 475.770 380.248, 474.859 388.500 C 473.735 398.682, 472.143 401.571, 469.250 398.679 C 467.817 397.246, 467.480 394.987, 467.390 386.215 C 467.329 380.322, 466.797 373.700, 466.208 371.500 C 461.409 353.581, 457.905 343.465, 456.730 344.130 C 456.603 344.201, 455.024 344.963, 453.221 345.823 M 360.500 442 C 360.160 442.550, 358.577 443, 356.981 443 C 353.867 443, 352.370 446.379, 349.004 461 C 348.308 464.025, 346.168 469.072, 344.249 472.215 C 341.002 477.532, 340.495 481, 342.966 481 C 346.143 481, 359 465.924, 359 462.198 C 359 460.953, 360.353 459.327, 362.484 458.010 C 370.126 453.287, 372.217 446.889, 367.365 443.073 C 364.540 440.851, 361.504 440.376, 360.500 442 M 448.165 441.699 C 445.837 442.160, 443 447.061, 443 450.623 C 443 453.840, 447.884 458.892, 452.090 460.024 C 454.309 460.622, 456.737 461.346, 457.485 461.633 C 460.027 462.608, 463 458.332, 463 453.703 C 463 446.638, 455.179 440.309, 448.165 441.699 M 359.500 445.343 C 355.542 446.835, 355.464 446.979, 352.958 457.463 C 351.770 462.433, 349.488 468.750, 347.888 471.500 L 344.977 476.500 350.004 471 C 352.769 467.975, 355.291 464.375, 355.609 463 C 355.926 461.625, 356.384 459.761, 356.626 458.858 C 356.868 457.954, 358.417 456.656, 360.067 455.972 C 363.564 454.524, 367 450.524, 367 447.900 C 367 446.405, 364.018 443.701, 362.816 444.106 C 362.642 444.165, 361.150 444.722, 359.500 445.343 M 447.557 446.223 C 444.327 450.833, 447 455.541, 454.025 457.615 C 459.382 459.197, 460 458.837, 460 454.137 C 460 446.925, 451.051 441.233, 447.557 446.223 M 464.234 462.406 C 459.292 467.413, 460.107 469.455, 467.046 469.455 C 473.722 469.455, 477.435 463.514, 473.171 459.655 C 470.441 457.184, 468.928 457.650, 464.234 462.406 M 467.184 463.714 C 464.416 466.686, 465.028 467.728, 468.770 466.412 C 470.443 465.823, 471.500 464.719, 471.500 463.559 C 471.500 460.809, 469.833 460.869, 467.184 463.714 M 436.500 498.440 C 430.101 501.415, 420.685 510.126, 421.166 512.626 C 422.111 517.530, 437.086 515.357, 443.536 509.379 C 446.462 506.667, 446.959 500.102, 444.429 497.571 C 442.482 495.625, 442.576 495.615, 436.500 498.440 M 438.701 500.603 C 434.370 502.115, 423.741 510.772, 424.570 512.112 C 426.204 514.756, 441.618 509.134, 443.048 505.373 C 444.747 500.906, 443.079 499.076, 438.701 500.603 M 462.671 509.797 C 455.007 512.402, 454.854 512.519, 455.417 515.335 C 456.776 522.129, 458.110 523.443, 464.450 524.235 C 473.071 525.312, 473.985 527.487, 468.364 533.552 C 466.351 535.725, 465.905 537.029, 466.315 539.551 C 467.526 547.015, 460.374 552.115, 450.836 550.590 C 446.788 549.942, 446.771 549.953, 447.464 552.714 C 448.457 556.667, 449.704 557.843, 454.182 559.049 C 458.542 560.223, 462.520 559.310, 473.500 554.614 C 477.938 552.716, 481.266 552.041, 486.282 552.024 C 496.145 551.989, 504.176 547.633, 508.862 539.775 L 511.350 535.604 508.467 533.552 C 506.882 532.423, 504.017 530.021, 502.100 528.213 C 499.117 525.398, 498.177 525.034, 495.558 525.680 C 485.401 528.188, 480.620 524.624, 476.537 511.500 C 474.965 506.448, 473.172 506.228, 462.671 509.797 M 398.677 521.162 C 397.860 522.448, 396.890 525.379, 396.521 527.675 C 395.679 532.913, 397.296 534, 405.931 534 C 411.493 534, 412.325 533.701, 415.997 530.384 C 418.199 528.395, 420 525.992, 420 525.044 C 420 522.715, 415.476 520.654, 410 520.489 C 407.525 520.415, 404.299 520.009, 402.831 519.589 C 400.653 518.965, 399.888 519.255, 398.677 521.162 M 400.692 522.689 C 400.411 523.144, 399.878 525.136, 399.506 527.116 C 398.833 530.704, 398.846 530.720, 402.918 531.371 C 407.528 532.108, 412.435 530.472, 415.315 527.237 C 417.677 524.585, 416.261 523.660, 409.529 523.456 C 406.763 523.371, 403.758 522.979, 402.851 522.583 C 401.944 522.187, 400.973 522.235, 400.692 522.689 M 729.481 529.195 C 727.946 531.013, 725.870 534.300, 724.867 536.500 C 721.505 543.876, 722.828 544.944, 728.747 539.633 C 730.811 537.781, 733.625 535.955, 735 535.575 C 739.273 534.394, 745 531.733, 745 530.928 C 745 530.506, 742.638 529.384, 739.750 528.435 C 736.862 527.485, 733.998 526.524, 733.385 526.299 C 732.772 526.074, 731.015 527.377, 729.481 529.195 M 502.464 578.058 C 502.105 578.640, 499.398 580.258, 496.449 581.654 C 491.828 583.842, 490.438 585.233, 486.400 591.713 C 483.822 595.849, 481.093 601.346, 480.336 603.928 C 478.647 609.691, 473.106 616.816, 473.041 613.309 C 473.018 612.104, 472.508 610.814, 471.907 610.443 C 470.205 609.391, 459.969 614.884, 455.191 619.414 C 451.338 623.067, 450.776 623.315, 449.891 621.750 C 449.346 620.788, 448.223 620, 447.395 620 C 445.758 620, 441.702 628.299, 440.553 634 C 440.164 635.925, 438.675 639.878, 437.243 642.784 C 435.187 646.954, 434.834 648.620, 435.569 650.681 C 438.150 657.923, 443.768 655.775, 448.984 645.550 C 453.009 637.661, 455.002 636.170, 454.831 641.176 C 454.768 643.004, 455.043 646.402, 455.442 648.727 C 456.033 652.168, 455.683 654.013, 453.559 658.652 C 449.543 667.424, 454.203 668.954, 459.771 660.691 L 462.595 656.500 468.870 656.856 C 476.330 657.279, 478.805 655.595, 482.623 647.500 C 485.081 642.286, 485.908 632.679, 484 631.500 C 482.480 630.561, 482.805 627.407, 484.573 625.939 C 485.438 625.221, 487.077 622.804, 488.215 620.567 C 489.353 618.330, 494.045 610.782, 498.642 603.794 C 507.343 590.566, 508.456 587.033, 506.370 579.250 C 505.740 576.899, 503.587 576.241, 502.464 578.058 M 462.878 581.122 C 459.874 584.126, 455.864 593.772, 455.668 598.464 L 455.500 602.500 459.485 602.177 C 464.720 601.754, 465.185 601.273, 468.481 592.872 C 471.605 584.908, 471.263 581.367, 467.226 579.883 C 465.508 579.251, 464.447 579.553, 462.878 581.122 M 498.201 583.891 C 492.218 586.931, 486.128 595.276, 483.021 604.691 C 480.796 611.431, 478.631 614.645, 474.696 617.044 C 470.069 619.865, 468.628 619.610, 469.331 616.095 L 469.912 613.190 465.206 615.765 C 462.618 617.182, 458.137 620.540, 455.248 623.229 C 450.107 628.014, 448.015 628.579, 447.985 625.191 C 447.957 622.166, 446.174 625.883, 443.488 634.564 C 442.115 638.999, 440.333 643.499, 439.528 644.564 C 436.422 648.671, 438.874 654.009, 442.489 651.009 C 443.294 650.341, 445.269 647.007, 446.879 643.601 C 450.251 636.463, 451.974 634.717, 455.195 635.173 C 457.071 635.439, 457.464 636.059, 457.306 638.500 C 457.200 640.150, 457.580 643.999, 458.152 647.054 C 459 651.594, 458.899 653.306, 457.595 656.427 C 455.464 661.526, 455.589 662.187, 457.950 658.314 C 460.697 653.809, 462.781 652.939, 468.010 654.114 C 471.711 654.945, 472.788 654.810, 474.946 653.240 C 480.723 649.039, 483.498 638.784, 480.844 631.444 C 479.555 627.880, 478.281 630.310, 495.224 604.012 C 504.250 590.003, 505.309 587.635, 504.245 583.850 L 503.500 581.199 498.201 583.891 M 462.172 587.683 C 460.564 590.882, 458.922 595.007, 458.523 596.850 C 457.836 600.022, 457.922 600.161, 460.149 599.487 C 463.163 598.574, 463.181 598.550, 465.881 591.787 C 469.889 581.742, 466.850 578.378, 462.172 587.683 M 542.073 642.635 C 540.933 644.084, 540 646.120, 540 647.160 C 540 648.463, 539.062 649.238, 536.979 649.654 C 533.057 650.439, 532.707 651.088, 531.399 660 C 530.441 666.527, 530.520 667.954, 532.014 671 C 532.957 672.925, 534.275 676.188, 534.942 678.250 C 535.609 680.313, 536.785 682, 537.554 682 C 538.324 682, 539.725 683.177, 540.667 684.615 C 542.275 687.068, 542.722 687.191, 547.875 686.585 C 550.896 686.230, 554.032 685.390, 554.843 684.720 C 557.692 682.363, 559.956 675.614, 559.978 669.411 C 559.998 663.875, 559.772 663.217, 557.500 662.182 C 555.164 661.118, 555 660.561, 555 653.713 C 555 646.075, 554.365 644.534, 550.027 641.646 C 546.551 639.332, 544.467 639.591, 542.073 642.635 M 544.200 644.200 C 543.540 644.860, 543 646.442, 543 647.716 C 543 649.782, 541.085 651.223, 535.273 653.531 C 535.148 653.581, 534.617 656.646, 534.093 660.344 C 532.990 668.133, 535.461 675.308, 541.236 681.082 C 545.465 685.311, 552.026 684.645, 555.053 679.680 C 558.045 674.774, 557.752 666.379, 554.500 663.821 C 552.214 662.024, 552 661.185, 552 654.042 C 552 646.842, 551.807 646.103, 549.535 644.615 C 546.588 642.684, 545.779 642.621, 544.200 644.200 M 611.469 835.674 C 610.548 836.595, 608.154 837.615, 606.149 837.941 C 601.651 838.672, 598.727 843.509, 599.475 848.984 C 600.001 852.837, 597.583 857.450, 584.830 876.933 C 581.073 882.671, 578 887.748, 578 888.215 C 578 890.180, 581.512 890.150, 585.633 888.148 C 588.064 886.966, 591.362 886, 592.962 886 C 594.561 886, 597.137 885.462, 598.685 884.805 C 601.459 883.627, 602.449 883.343, 604.580 883.115 C 605.175 883.052, 607.177 880.889, 609.030 878.309 C 610.883 875.729, 614.392 871.373, 616.828 868.630 L 621.258 863.643 620.597 855.725 C 620.195 850.894, 620.397 845.468, 621.118 841.805 C 622.100 836.813, 622.064 835.654, 620.900 834.917 C 618.593 833.456, 613.258 833.885, 611.469 835.674 M 613.801 837.342 C 611.782 839.361, 608.370 841, 606.187 841 C 603.717 841, 601.651 845.760, 602.556 849.365 C 603.246 852.118, 597.052 864.290, 589.510 875 C 587.768 877.475, 585.309 881.218, 584.047 883.318 L 581.752 887.137 585.611 885.068 C 587.734 883.931, 590.962 883, 592.785 883 C 594.608 883, 597.440 882.307, 599.079 881.459 C 600.718 880.612, 602.429 880.147, 602.883 880.427 C 603.336 880.707, 605.171 878.897, 606.962 876.404 C 608.752 873.911, 612.019 869.789, 614.221 867.245 L 618.225 862.618 617.558 854.969 C 617.134 850.115, 617.329 845.581, 618.090 842.558 C 619.082 838.617, 619.048 837.644, 617.894 836.914 C 615.997 835.712, 615.365 835.778, 613.801 837.342" stroke="none" fill="#111111" fill-rule="evenodd"/>
</svg>