<svg xmlns="http://www.w3.org/2000/svg" width="1500" height="1500" viewBox="0 0 1500 1500" version="1.1">
	<path d="M 235.500 244.673 C 234.400 244.916, 231.250 245.960, 228.500 246.994 C 225.267 248.209, 220.074 249, 213.807 249.231 C 202.265 249.656, 201.105 250.396, 198.500 259 C 196.329 266.171, 195.598 266.841, 186 270.457 C 173.286 275.248, 172.573 276.878, 179.993 284.182 C 182.739 286.886, 185.243 290.313, 185.556 291.799 C 187.396 300.524, 188.002 300.204, 179.500 295 C 175.906 292.800, 172.499 291, 171.929 291 C 171.359 291, 167.862 293.450, 164.156 296.443 C 157.653 301.697, 146.090 308.008, 143 307.989 C 142.175 307.985, 139.136 306.880, 136.248 305.535 L 130.995 303.090 121.748 305.057 C 108.352 307.907, 107.627 308.314, 108.323 312.603 C 109.489 319.785, 106.628 322.335, 95.500 324.034 C 87.335 325.280, 86.799 325.717, 84.497 333 C 83.541 336.025, 81.445 340.836, 79.839 343.692 C 73.977 354.118, 75.243 363.500, 82.513 363.500 C 86.079 363.500, 86.631 363.856, 88.203 367.174 C 89.160 369.194, 90.376 371.114, 90.904 371.441 C 91.453 371.780, 90.828 373.848, 89.444 376.267 C 85.321 383.479, 87.374 386.288, 94 382.500 C 99.019 379.631, 100.746 380.461, 101.964 386.327 C 103.186 392.215, 102.895 393.472, 98.807 399.946 C 95.959 404.456, 95.203 408.390, 96.974 409.484 C 97.510 409.815, 102.391 407.817, 107.820 405.043 C 117.590 400.052, 125.847 398.326, 127.461 400.937 C 127.780 401.453, 126.242 406.045, 124.045 411.142 L 120.050 420.409 122.571 424.712 C 126.020 430.596, 129.468 432.816, 132.348 431.006 C 133.532 430.262, 136.064 428.728, 137.974 427.596 L 141.449 425.538 139.307 429.019 C 138.129 430.933, 136.111 434.520, 134.823 436.989 C 132.666 441.125, 132.105 441.532, 127.683 442.164 C 116.221 443.804, 117.251 449.435, 129.750 453.467 C 132.638 454.399, 134.983 455.462, 134.962 455.830 C 134.941 456.199, 132.884 458.075, 130.390 460 C 125.630 463.675, 118.028 472.469, 117.960 474.381 C 117.062 499.697, 118.461 507.131, 124.252 507.812 C 126.486 508.074, 127.664 507.126, 131.703 501.812 C 141.107 489.439, 142.042 488.788, 158 483.533 C 165.975 480.907, 175.696 477.017, 179.603 474.890 L 186.705 471.022 188.272 475.011 C 189.594 478.377, 190.289 479, 192.720 479 C 196.465 479, 198 480.638, 198 484.635 C 198 490.245, 196.427 492.570, 190.328 495.974 C 177.825 502.951, 176.504 508.601, 186.331 513.063 C 191.444 515.384, 194.192 515.469, 198.141 513.427 C 200.939 511.980, 201.333 511.991, 203.077 513.570 C 204.877 515.199, 205.171 515.153, 208.948 512.653 C 211.135 511.206, 213.931 508.660, 215.162 506.995 L 217.400 503.968 219.562 506.680 L 221.724 509.392 228.787 505.196 C 237.018 500.306, 237.748 500.211, 242.464 503.411 C 249.781 508.377, 261.083 511.097, 265.213 508.886 C 266.817 508.028, 268.607 508.170, 273.024 509.507 C 278.397 511.134, 279.066 511.139, 283.760 509.580 C 290.247 507.425, 291.764 505.612, 293.092 498.423 C 293.694 495.165, 294.360 491.927, 294.571 491.228 C 294.843 490.325, 296.630 490.855, 300.727 493.054 C 305.087 495.394, 307.324 496.022, 309.866 495.620 C 312.353 495.227, 314.760 495.859, 319.087 498.044 C 322.308 499.670, 325.642 501, 326.496 501 C 328.215 501, 330 497.174, 330 493.490 L 330 491.110 335.503 493.544 C 342.637 496.699, 348.095 497.555, 351.038 495.980 C 354.195 494.290, 356 496.858, 356 503.036 C 356 506.420, 356.546 508.184, 358 509.500 C 360.524 511.784, 360.524 514.596, 358 521 C 353.739 531.811, 355.443 536.628, 363.152 535.562 C 370.666 534.523, 370.617 534.516, 379.500 537.927 C 395.189 543.952, 396.488 545.842, 390.526 553.964 C 388.616 556.567, 385.722 561.663, 384.095 565.289 C 381.841 570.312, 380.153 572.532, 377.003 574.617 C 374.729 576.121, 372.267 578.511, 371.531 579.926 C 370.648 581.624, 368.472 583.104, 365.140 584.275 C 362.362 585.252, 358.381 587.702, 356.294 589.721 C 353.248 592.667, 351.711 593.402, 348.500 593.446 C 344.599 593.499, 344.423 593.657, 341.392 599.812 C 339.683 603.284, 336.693 607.784, 334.748 609.812 C 332.803 611.841, 330.278 615.368, 329.136 617.652 C 327.218 621.487, 326.675 621.857, 322.030 622.496 C 319.263 622.876, 317 623.636, 317 624.184 C 317 624.731, 319.212 627.661, 321.915 630.694 C 327.334 636.774, 334.356 652.048, 332.082 652.806 C 329.916 653.528, 329.176 657.469, 330.175 662.963 C 331.001 667.506, 330.833 669.194, 329.075 674.015 C 326.454 681.203, 326.430 686.006, 329 689.273 C 331.630 692.616, 331.573 695.617, 328.867 696.324 C 325.122 697.304, 326.694 706.078, 331.496 710.996 L 335.273 714.864 328.386 719.300 C 324.599 721.740, 319.625 724.686, 317.334 725.846 C 306.945 731.105, 305.998 742.262, 315.491 747.561 C 318.346 749.155, 320.121 751.171, 321.728 754.645 C 324.676 761.016, 324.581 762.574, 321 766.653 C 318.924 769.017, 318 771.118, 318 773.472 C 318 775.524, 316.017 780.930, 313 787.098 C 310.250 792.722, 308 798.134, 308 799.126 C 308 801.609, 305.603 802.651, 298 803.474 C 293.739 803.935, 288.541 805.524, 282.908 808.089 C 272.769 812.704, 273.297 812.662, 264.232 809.579 C 255.395 806.573, 254.850 807.448, 260.541 815.500 C 262.874 818.800, 264.950 822.399, 265.154 823.498 C 265.368 824.642, 267.871 826.890, 271.013 828.759 C 280.212 834.230, 280 833.874, 280 843.881 L 280 852.782 284 857.623 C 286.200 860.285, 288 863.536, 288 864.847 C 288 866.293, 289.376 868.490, 291.500 870.436 C 294.415 873.106, 295 874.331, 295 877.762 C 295 882.885, 295.718 883.343, 300.691 881.389 C 307.042 878.894, 311.382 881.181, 313.438 888.105 C 315.767 895.946, 315.508 897.820, 311.825 899.797 C 304.680 903.630, 301.520 907.468, 301.646 912.160 C 301.735 915.488, 301.123 917.316, 299.018 920 C 297.509 921.925, 295.529 924.956, 294.618 926.737 C 293.708 928.517, 291.679 931.442, 290.110 933.237 C 285.375 938.654, 282 944.152, 282 946.450 C 282 947.643, 280.425 951.817, 278.500 955.725 C 273.942 964.977, 273.984 965.272, 280.869 972.443 C 285.702 977.475, 286.939 979.486, 287.870 983.827 C 289.299 990.492, 291.012 993.797, 295.118 997.811 C 298.240 1000.863, 298.693 1000.991, 305.672 1000.783 C 315.068 1000.502, 315.733 1001.132, 314.050 1008.717 C 312.644 1015.051, 311.236 1018.066, 307.722 1022.259 L 305.410 1025.018 302.084 1021.587 C 298.893 1018.295, 296 1017.779, 296 1020.503 C 296 1022.389, 289.256 1028, 286.991 1028 C 284.917 1028, 283.078 1030.922, 281.010 1037.500 C 280.319 1039.700, 278.069 1043.750, 276.011 1046.500 C 273.954 1049.250, 271.080 1053.571, 269.626 1056.103 C 268.172 1058.635, 266.096 1061.509, 265.012 1062.489 C 263.928 1063.470, 262.100 1066.798, 260.949 1069.886 C 259.797 1072.974, 257.934 1076.486, 256.809 1077.691 L 254.762 1079.882 258.620 1086.691 C 261.827 1092.353, 262.577 1094.764, 263.067 1101 C 263.391 1105.125, 264.457 1112.550, 265.435 1117.500 C 268.428 1132.653, 265.932 1130.902, 285.500 1131.577 C 311.347 1132.468, 312.409 1132.574, 318.150 1134.812 C 321.092 1135.959, 326.700 1137.815, 330.610 1138.935 C 337.809 1140.998, 339.449 1142.195, 354.500 1156.374 C 356.150 1157.929, 359.723 1160.413, 362.440 1161.894 C 368.063 1164.961, 368.617 1166.224, 369.637 1178.304 C 370.229 1185.311, 370.077 1186.404, 368.148 1189.013 C 365.261 1192.919, 365.269 1192.950, 371.129 1199.964 C 375.739 1205.480, 376.547 1206.039, 379.107 1205.477 C 386.230 1203.912, 388.713 1207.419, 386.982 1216.597 C 385.607 1223.884, 386.025 1226.489, 389.228 1230.569 C 390.478 1232.160, 391.500 1234.419, 391.500 1235.588 C 391.500 1237.801, 412.860 1261, 414.898 1261 C 415.489 1261, 416.664 1259.346, 417.509 1257.325 L 419.044 1253.650 424.255 1259.497 C 427.121 1262.713, 430.637 1266.954, 432.067 1268.922 C 435.742 1273.980, 436.980 1274.821, 445.329 1277.936 L 452.752 1280.705 461.086 1278.299 C 476.168 1273.945, 484 1268.271, 484 1261.699 C 484 1260.875, 485.815 1257.793, 488.034 1254.850 C 490.253 1251.908, 492.331 1248.375, 492.652 1247 C 494.299 1239.951, 497.594 1236.519, 508.073 1230.937 C 515.021 1227.237, 519.422 1224.143, 521.853 1221.250 C 525.914 1216.417, 526.689 1216.230, 531.226 1218.996 C 535.444 1221.568, 536.125 1221.528, 544.639 1218.211 C 552.704 1215.068, 554.539 1213.792, 556.530 1209.943 C 557.298 1208.456, 560.865 1204.931, 564.456 1202.109 C 568.047 1199.287, 572.005 1195.367, 573.251 1193.397 L 575.518 1189.815 584.009 1189.467 C 588.679 1189.276, 594.158 1189.488, 596.185 1189.939 C 598.681 1190.494, 601.999 1190.249, 606.466 1189.180 C 611.863 1187.889, 613.866 1187.817, 617.480 1188.783 C 621.635 1189.895, 629.310 1188.489, 640.647 1184.541 C 641.277 1184.322, 644.652 1185.506, 648.147 1187.172 C 652.442 1189.221, 655.948 1190.180, 658.970 1190.133 C 662.225 1190.083, 664.058 1190.645, 665.715 1192.202 C 669.144 1195.424, 685.573 1194.963, 693.582 1191.421 C 699.674 1188.727, 716.831 1184, 720.516 1184 C 723.010 1184, 736.436 1190.597, 744.570 1195.820 C 747.359 1197.610, 750.310 1198.818, 751.128 1198.504 C 752.914 1197.819, 759.822 1187.558, 760.609 1184.421 C 760.993 1182.891, 763.053 1181.352, 767.215 1179.484 C 774.390 1176.264, 780.703 1176.432, 784.440 1179.944 C 786.075 1181.480, 788.482 1182.272, 792.628 1182.640 C 800.373 1183.328, 803.497 1184.601, 804.880 1187.636 C 806.798 1191.847, 809.812 1190.300, 816.836 1181.500 C 820.347 1177.100, 825.158 1171.422, 827.526 1168.883 C 833.473 1162.505, 836.971 1155.098, 838.531 1145.579 C 839.260 1141.136, 840.563 1135.827, 841.428 1133.782 C 842.292 1131.737, 843 1128.728, 843 1127.096 C 843 1123.141, 856.659 1110.773, 870.163 1102.500 C 873.035 1100.740, 874.542 1098.638, 876.969 1093 C 878.749 1088.865, 902.647 1081.423, 911.435 1082.268 C 920.139 1083.104, 946.812 1076.402, 952.225 1072.019 C 954.417 1070.244, 954.430 1070.132, 952.662 1068.180 C 951.661 1067.073, 948.403 1065.178, 945.421 1063.968 C 938.624 1061.209, 938.590 1060.069, 945.075 1052.457 C 953.786 1042.231, 955.388 1038.766, 955.503 1029.906 C 955.597 1022.554, 955.759 1022.027, 958.802 1019.185 C 961.679 1016.497, 966.960 1007.031, 966.994 1004.500 C 967.001 1003.950, 969.368 1002.375, 972.254 1001 L 977.500 998.500 978.058 991.330 C 978.782 982.034, 981.691 977.741, 992.451 970.086 C 996.878 966.937, 1002.975 962.481, 1006 960.184 C 1009.025 957.888, 1012.370 956.007, 1013.434 956.004 C 1017.135 955.996, 1023.543 952.019, 1030.441 945.450 C 1034.258 941.815, 1039.501 937.766, 1042.092 936.453 C 1047.319 933.805, 1051 929.785, 1051 926.726 C 1051 924.401, 1046.281 916.367, 1041.337 910.277 C 1037.781 905.894, 1035.924 905.076, 1024.690 902.939 C 1012.177 900.558, 1005.207 888.237, 1002.037 862.897 C 1001.514 858.715, 999.717 851.018, 998.043 845.793 C 993.466 831.506, 993.828 829.608, 1004 814.500 C 1009.923 805.703, 1012.134 801.295, 1015.012 792.546 C 1016.987 786.542, 1018.221 784.698, 1024.050 779.046 C 1032.063 771.277, 1032.895 769.804, 1034.106 761.256 C 1035.559 750.993, 1037.972 746.555, 1043.668 743.667 C 1049.434 740.742, 1050.508 739.598, 1056.011 730.500 C 1058.341 726.650, 1062.148 721.454, 1064.473 718.953 C 1067.663 715.522, 1069.385 712.331, 1071.488 705.953 C 1074.814 695.871, 1076.517 692.578, 1082.841 684 L 1087.633 677.500 1093.067 677.326 C 1102.559 677.021, 1106.359 675.992, 1112 672.199 C 1120.705 666.345, 1120.622 665.595, 1110.542 659.028 C 1106.944 656.683, 1104 654.353, 1104 653.850 C 1104 647.796, 1125.562 626.049, 1137 620.567 C 1141.525 618.399, 1145.942 617, 1148.265 617 C 1151.414 617, 1152.931 616.209, 1156.897 612.500 C 1159.543 610.025, 1162.292 608, 1163.007 608 C 1163.722 608, 1170.911 605.782, 1178.982 603.071 C 1196.193 597.291, 1206.721 595.544, 1216.227 596.890 C 1221.234 597.599, 1223.750 597.494, 1226.663 596.456 C 1228.773 595.704, 1231.977 595.068, 1233.782 595.044 C 1240.475 594.954, 1243.636 592.673, 1247.387 585.225 C 1252.290 575.489, 1255.076 572.566, 1266.474 565.198 C 1271.988 561.633, 1278.799 556.756, 1281.608 554.358 C 1284.417 551.961, 1287.677 550, 1288.851 550 C 1290.025 550, 1295.079 548.362, 1300.081 546.360 C 1309.582 542.557, 1314.726 538.491, 1317.009 532.977 C 1318.189 530.130, 1318.367 530.068, 1323.860 530.590 C 1331.156 531.284, 1334.628 529.191, 1340.020 520.847 C 1342.209 517.461, 1344 514.371, 1344 513.981 C 1344 513.591, 1345.757 512.055, 1347.904 510.567 C 1352.858 507.133, 1359.949 497.091, 1360.704 492.437 C 1361.179 489.508, 1360.452 487.232, 1356.626 479.686 C 1353.289 473.101, 1351.709 468.565, 1351.049 463.666 C 1349.859 454.842, 1350.073 454.412, 1355.439 454.839 C 1359.640 455.173, 1359.999 454.984, 1362.971 450.881 C 1367.606 444.482, 1366.928 441.717, 1360.500 440.805 C 1353.924 439.873, 1352 437.515, 1352 430.389 C 1352 424.416, 1351.140 423.842, 1346.098 426.450 C 1343.520 427.782, 1342.924 427.702, 1338.693 425.450 C 1326.884 419.163, 1309.069 424.954, 1303.925 436.750 C 1301.886 441.424, 1301.139 441.666, 1295.207 439.573 C 1292.983 438.788, 1289.214 438.211, 1286.832 438.290 C 1283.377 438.404, 1281.141 437.607, 1275.790 434.354 C 1272.100 432.110, 1266.354 429.254, 1263.022 428.008 C 1257.041 425.772, 1256.902 425.766, 1252.234 427.548 C 1249.634 428.541, 1245.167 431.566, 1242.308 434.270 C 1239.282 437.132, 1236.629 438.888, 1235.958 438.474 C 1235.324 438.082, 1232.844 434.729, 1230.446 431.023 C 1223.003 419.517, 1211.271 416.252, 1197.970 421.986 C 1184.286 427.885, 1184.196 427.882, 1176.876 421.269 L 1172.930 417.704 1175.165 415.325 C 1178.795 411.460, 1178.072 407.549, 1172.087 398.685 C 1165.383 388.757, 1163.918 388.036, 1157.441 391.482 L 1152.500 394.112 1150.500 391.679 C 1149.400 390.340, 1147.240 387.610, 1145.699 385.612 C 1141.271 379.868, 1138.570 378.556, 1131.727 378.827 C 1124.302 379.120, 1117.813 377.282, 1107.596 371.990 C 1094.922 365.426, 1090.513 367.135, 1092.849 377.704 C 1093.554 380.892, 1094.385 385.188, 1094.697 387.250 L 1095.263 391 1087.708 391 C 1083.553 391, 1077.875 391.526, 1075.091 392.168 C 1070.623 393.200, 1069.799 393.128, 1068.065 391.558 C 1066.161 389.836, 1065.992 389.897, 1062.670 393.523 C 1058.795 397.754, 1057.835 397.557, 1054.974 391.948 C 1052.365 386.835, 1049.992 386.350, 1040.108 388.912 C 1027.091 392.286, 1018.908 390.823, 1014.947 384.414 C 1011.558 378.931, 999.435 373.535, 992.650 374.489 C 985.586 375.482, 980.090 375.512, 976.352 374.578 C 973.409 373.842, 973.161 373.991, 972.525 376.884 C 971.121 383.277, 968.815 381.916, 961.113 370.149 C 958.359 365.942, 955.315 359.913, 954.347 356.750 C 952.554 350.889, 951.218 349.827, 949 352.500 C 946.223 355.846, 922.026 353.665, 912.824 349.239 C 909.346 347.566, 904.601 345.689, 902.280 345.068 C 898.456 344.045, 897.961 343.544, 896.994 339.720 C 894.799 331.036, 894.614 330.943, 891.022 336.687 L 887.779 341.874 884.412 339.687 C 882.377 338.366, 881.223 336.906, 881.496 336 C 884.595 325.695, 886.036 316.502, 884.960 313.905 C 883.426 310.201, 881.657 309.741, 870.545 310.153 L 861.267 310.498 858.132 307.141 C 855.725 304.565, 854.451 303.921, 852.650 304.373 C 850.983 304.791, 849.176 304.108, 846.402 302.009 C 844.256 300.384, 841.801 299.043, 840.946 299.028 C 839.574 299.003, 826.931 303.141, 815.500 307.356 C 812.970 308.289, 809.763 308.628, 806.773 308.279 C 804.174 307.975, 800.064 308.282, 797.640 308.961 C 792.580 310.378, 791.534 310.010, 783.401 303.958 C 776.361 298.719, 762.570 293.962, 752.500 293.298 C 746.692 292.916, 743.301 292.118, 740.124 290.386 C 734.695 287.426, 734.423 287.429, 725.639 290.548 C 718.694 293.013, 718.276 293.046, 712.685 291.590 C 708.440 290.484, 706.192 290.357, 704.214 291.109 C 702.733 291.672, 699.967 291.841, 698.069 291.485 C 695.553 291.013, 693.317 291.447, 689.820 293.084 C 683.601 295.997, 681.483 295.075, 676.061 287.091 C 672.638 282.049, 671.284 280.884, 667.736 279.925 C 659.567 277.717, 646.114 281.056, 640.924 286.581 C 638.111 289.575, 634.999 289.639, 629.351 286.818 L 624.983 284.637 622.222 286.678 C 620.704 287.800, 618.557 289.006, 617.452 289.357 C 613.623 290.572, 585.438 293.262, 572 293.695 L 558.500 294.130 549 290.445 C 534.461 284.806, 531.264 284.086, 521.500 284.255 C 513.380 284.396, 511.812 284.103, 505.468 281.265 C 497.917 277.887, 487.307 275.770, 469.110 274.011 C 455.301 272.676, 451.890 271.370, 448.602 266.162 C 442.983 257.260, 436.003 256.343, 428.958 263.580 C 419.091 273.716, 414.064 274.928, 389.679 273.048 C 377.288 272.092, 369.988 272.062, 358.500 272.917 C 350.250 273.531, 335.175 274.107, 325 274.195 L 306.500 274.357 297.500 271.068 C 290.986 268.687, 285.600 265.701, 278 260.258 C 272.225 256.122, 266.669 252.508, 265.654 252.227 C 264.639 251.946, 260.218 249.980, 255.830 247.858 C 247.983 244.064, 242.299 243.173, 235.500 244.673 M 238.404 247.098 C 235.601 247.561, 231.176 248.853, 228.571 249.970 C 225.006 251.498, 221.656 252, 215.028 252 C 204.503 252, 203.116 252.879, 200.664 261.098 C 198.584 268.069, 197.472 269.054, 187.269 272.971 C 182.741 274.709, 178.737 276.616, 178.371 277.209 C 178.004 277.802, 179.806 280.245, 182.374 282.637 C 187.720 287.616, 189 290.313, 189 296.596 C 189 302.771, 187.332 303.019, 179.021 298.082 L 172.056 293.944 163.657 300.352 C 156.201 306.041, 146.386 311, 142.583 311 C 141.845 311, 138.825 309.894, 135.871 308.542 C 131.348 306.472, 129.868 306.230, 126.500 307.009 C 124.300 307.517, 119.912 308.430, 116.750 309.038 L 111 310.142 110.978 314.821 C 110.942 322.278, 107.623 325.254, 98 326.457 C 89.542 327.514, 89.260 327.697, 87.425 333.297 C 86.487 336.159, 84.184 341.574, 82.307 345.331 C 77.723 354.504, 77.823 360.667, 82.546 360.196 C 85.935 359.858, 91 363.134, 91 365.665 C 91 366.501, 91.890 368.317, 92.979 369.700 L 94.958 372.216 92.393 376.593 L 89.828 380.970 93.382 379.485 C 98.249 377.451, 102.618 377.566, 103.465 379.750 C 103.839 380.713, 104.394 384.443, 104.700 388.039 C 105.212 394.076, 105.007 395.018, 102.032 400.289 C 100.259 403.430, 98.965 405.993, 99.155 405.985 C 99.345 405.977, 103.505 403.952, 108.400 401.485 C 115.598 397.857, 118.311 397, 122.593 397 C 131.956 397, 132.256 399.911, 124.667 417.143 C 123.087 420.729, 123.109 420.850, 126.038 424.893 C 129.624 429.844, 128.889 429.808, 136.064 425.380 C 141.988 421.723, 145 421.474, 145 424.640 C 145 425.576, 144.337 427.075, 143.527 427.970 C 142.717 428.865, 140.348 432.726, 138.262 436.549 C 134.487 443.471, 134.448 443.504, 128.985 444.554 C 121.421 446.007, 121.967 447.730, 130.991 450.883 C 140.434 454.182, 140.674 455.345, 133.155 461.376 C 121.868 470.429, 120.778 472.484, 120.440 485.358 C 120.133 497.034, 121.043 502.961, 123.450 504.958 C 124.629 505.937, 125.746 505.023, 129.693 499.854 C 139.768 486.658, 139.844 486.606, 158 480.489 C 167.075 477.432, 176.204 473.803, 178.288 472.426 C 186.355 467.092, 189.236 467.243, 190.515 473.069 C 191.015 475.344, 191.711 476, 193.625 476 C 197.346 476, 201 480.205, 201 484.487 C 201 490.901, 198.745 494.433, 192.357 498.020 C 182.255 503.695, 180.707 506.268, 185.504 509.411 C 189.611 512.102, 193.679 512.449, 198.044 510.480 C 201.847 508.765, 202.083 508.765, 203.981 510.483 C 205.907 512.226, 206.116 512.108, 212.081 505.916 C 218.440 499.316, 219.399 499.158, 221.339 504.392 C 221.590 505.071, 224.467 504.048, 228.767 501.750 C 236.746 497.487, 240.079 497.095, 242.870 500.091 C 245.063 502.445, 256.760 507, 260.611 507 C 261.997 507, 264.068 506.499, 265.213 505.886 C 266.817 505.028, 268.607 505.170, 273.019 506.506 C 283.158 509.576, 289.462 506.215, 290.575 497.149 C 291.953 485.914, 292.704 485.407, 301.181 489.998 C 304.933 492.031, 307.970 492.949, 310.608 492.849 C 313.079 492.755, 316.405 493.668, 319.717 495.351 C 326.514 498.803, 327 498.721, 327 494.122 C 327 488.181, 328.854 487.317, 335.212 490.296 C 342.576 493.746, 346.319 494.376, 350.490 492.867 C 355.431 491.081, 358.080 493.732, 358.780 501.167 C 359.062 504.167, 360.095 507.543, 361.141 508.885 C 363.518 511.934, 363.486 514.693, 361 521 C 359.900 523.791, 359 527.632, 359 529.537 C 359 533.268, 360.899 533.867, 367 532.060 C 370.815 530.930, 390.113 538.246, 395.250 542.769 C 398.039 545.225, 397.335 549.207, 393.055 555.184 C 390.885 558.214, 387.926 563.574, 386.480 567.096 C 384.287 572.434, 383.030 574.042, 378.925 576.758 C 376.216 578.549, 374 580.617, 374 581.353 C 374 583.382, 370.982 585.517, 366.172 586.891 C 363.358 587.694, 360.368 589.668, 357.623 592.533 C 353.747 596.579, 353.098 596.890, 349.703 596.339 L 346.005 595.739 343.426 601.620 C 342.008 604.854, 339.346 609.075, 337.510 611 C 335.675 612.925, 332.868 616.750, 331.274 619.500 C 328.732 623.884, 327.926 624.538, 324.738 624.807 L 321.101 625.115 325.800 630.966 C 328.637 634.498, 331.453 639.529, 332.904 643.659 C 334.226 647.421, 335.494 651.017, 335.722 651.648 C 335.949 652.279, 335.189 653.678, 334.032 654.756 C 332.127 656.530, 332.013 657.262, 332.831 662.479 C 333.785 668.559, 333.284 672.042, 330.549 678.365 C 328.910 682.154, 328.929 682.332, 331.565 687.542 C 334.576 693.492, 334.346 697.438, 330.925 698.524 C 329.618 698.939, 329.066 699.730, 329.428 700.672 C 329.742 701.492, 330 702.812, 330 703.604 C 330 704.396, 331.831 707.031, 334.069 709.459 C 337.433 713.108, 337.960 714.206, 337.112 715.792 C 336.118 717.649, 328.507 722.874, 318.768 728.385 C 309.556 733.598, 309.293 740.594, 318.112 745.843 C 320.718 747.394, 322.458 749.629, 324.362 753.871 C 327.725 761.365, 327.676 763.160, 324 767.347 C 321.881 769.760, 321 771.799, 321 774.286 C 321 776.540, 319.200 781.332, 316 787.599 C 313.250 792.984, 311 798.357, 311 799.540 C 311 803.242, 307.704 805.107, 299.324 806.143 C 293.940 806.809, 289.254 808.189, 284.295 810.571 C 275.031 815.021, 272.467 815.465, 267.094 813.549 C 261.521 811.563, 261.358 811.796, 264.977 816.578 C 266.609 818.735, 267.957 821.245, 267.972 822.155 C 267.988 823.119, 270.680 825.379, 274.410 827.561 C 282.171 832.100, 283 833.734, 283 844.488 C 283 849.352, 283.448 853.159, 284.066 853.541 C 286.181 854.848, 291 862.345, 291 864.329 C 291 865.445, 292.575 867.801, 294.500 869.564 C 297.065 871.913, 298 873.602, 298 875.885 C 298 877.598, 298.115 879, 298.257 879 C 298.398 879, 300.045 878.561, 301.917 878.024 C 304.614 877.250, 306.202 877.438, 309.574 878.930 C 314.579 881.143, 315.396 882.439, 317.028 890.732 C 318.473 898.084, 317.212 901.049, 311.648 903.374 C 306.783 905.406, 303.832 909.586, 304.552 913.423 C 305.024 915.940, 304.482 917.392, 301.718 921.018 C 299.839 923.483, 297.491 927.075, 296.501 929 C 295.512 930.925, 292.733 934.750, 290.327 937.500 C 287.835 940.349, 285.527 944.221, 284.962 946.500 C 284.417 948.700, 282.627 953.321, 280.985 956.769 C 277.144 964.835, 277.127 964.715, 282.944 970.445 C 288.112 975.535, 288.892 976.973, 291.395 986.020 C 292.337 989.425, 294.133 992.779, 296.080 994.770 C 299.099 997.859, 299.575 998, 306.964 998 C 315.214 998, 318 999.414, 318 1003.600 C 318 1007.866, 314.081 1019.312, 311.759 1021.828 C 310.403 1023.297, 309.016 1025.287, 308.678 1026.250 C 307.759 1028.865, 304.726 1028.367, 301.582 1025.085 L 298.789 1022.171 295.845 1025.524 C 294.225 1027.369, 291.376 1029.381, 289.513 1029.996 C 286.517 1030.984, 285.877 1031.861, 283.979 1037.562 C 282.799 1041.108, 280.269 1045.883, 278.356 1048.173 C 276.443 1050.462, 274.177 1053.722, 273.321 1055.418 C 272.465 1057.113, 270.073 1060.750, 268.006 1063.500 C 265.939 1066.250, 263.686 1070.300, 263 1072.500 C 262.315 1074.700, 260.920 1077.417, 259.902 1078.538 C 258.086 1080.536, 258.127 1080.702, 262.024 1087.038 C 265.483 1092.661, 266.002 1094.279, 266.023 1099.500 C 266.036 1102.800, 267.105 1110.675, 268.399 1117 L 270.752 1128.500 274.626 1128.340 C 283.638 1127.969, 315.603 1130.366, 317.500 1131.556 C 318.600 1132.246, 323.100 1133.780, 327.500 1134.965 C 337.698 1137.710, 341.678 1140.134, 351.311 1149.463 C 355.606 1153.624, 361.328 1158.146, 364.025 1159.512 C 369.903 1162.491, 370.465 1163.432, 371.892 1172.692 C 373.527 1183.305, 373.309 1187.338, 370.934 1190.357 L 368.867 1192.984 373.050 1197.944 C 376.639 1202.201, 377.621 1202.826, 379.977 1202.355 C 383.545 1201.641, 388.811 1204.374, 390.026 1207.569 C 390.636 1209.174, 390.559 1212.666, 389.806 1217.509 L 388.645 1224.975 391.821 1228.928 C 393.568 1231.101, 394.886 1233.723, 394.749 1234.754 C 394.430 1237.158, 414.100 1258.140, 414.783 1256.125 C 415.662 1253.536, 419.018 1250.910, 420.416 1251.718 C 421.715 1252.469, 430.534 1262.303, 436.224 1269.344 C 438.167 1271.748, 440.943 1273.426, 445.904 1275.195 L 452.861 1277.674 461.146 1275.282 C 474.630 1271.389, 481 1267, 481 1261.601 C 481 1260.884, 482.941 1257.342, 485.313 1253.730 C 487.685 1250.118, 490.235 1245.319, 490.979 1243.064 C 492.905 1237.228, 497.316 1233.197, 507.803 1227.692 C 514.207 1224.330, 518.055 1221.549, 520.601 1218.442 C 524.723 1213.412, 526.155 1213.130, 532.331 1216.130 L 536.716 1218.260 544.108 1215.295 C 549.906 1212.970, 552.055 1211.516, 554.075 1208.552 C 555.491 1206.475, 559.541 1202.447, 563.075 1199.602 C 566.609 1196.757, 570.400 1192.755, 571.500 1190.708 C 573.784 1186.458, 575.661 1185.541, 579.268 1186.912 C 580.946 1187.550, 582.994 1187.508, 585.341 1186.787 C 587.890 1186.005, 590.399 1186.005, 594.289 1186.786 C 598.611 1187.654, 601.073 1187.557, 606.569 1186.304 C 612.118 1185.038, 614.317 1184.957, 617.972 1185.882 C 621.964 1186.893, 623.447 1186.733, 630.500 1184.529 C 640.851 1181.295, 643.846 1181.364, 650.644 1184.992 C 655.202 1187.424, 656.983 1187.866, 660.168 1187.357 C 663.406 1186.839, 664.512 1187.133, 666.554 1189.051 C 669.883 1192.178, 685.984 1192.069, 692.242 1188.877 C 696.335 1186.788, 717.077 1181.017, 720.528 1181.006 C 723.221 1180.998, 735.950 1187.123, 743.746 1192.180 L 749.993 1196.230 751.977 1193.865 C 754.483 1190.878, 758 1183.852, 758 1181.834 C 758 1179.282, 770.521 1174.494, 777.097 1174.532 C 781.700 1174.559, 783.268 1175.048, 785.924 1177.282 C 788.487 1179.439, 790.176 1180, 794.109 1180 C 800.222 1180, 805.590 1182.131, 806.471 1184.909 C 807.494 1188.132, 808.621 1187.497, 813.751 1180.808 C 816.363 1177.402, 821.158 1171.665, 824.406 1168.058 C 831.396 1160.296, 834.676 1153.687, 835.605 1145.491 C 835.978 1142.196, 837.120 1137.346, 838.142 1134.713 C 839.164 1132.080, 840 1128.480, 840 1126.713 C 840 1122.092, 851.995 1110.905, 867.906 1100.687 C 869.780 1099.484, 871.619 1097.825, 871.995 1097 C 875.112 1090.146, 875.820 1089.340, 881 1086.752 C 889.198 1082.655, 905.414 1078.737, 911.422 1079.402 C 917.184 1080.039, 927.610 1078.068, 940.811 1073.845 C 950.948 1070.603, 951.738 1069.427, 945.417 1066.989 C 934.855 1062.915, 934.434 1060.529, 942.594 1051 C 950.084 1042.253, 953.371 1035.738, 952.640 1031.084 C 951.778 1025.600, 953.394 1020.525, 957.272 1016.531 C 959.207 1014.539, 961.797 1010.217, 963.028 1006.925 C 965.085 1001.425, 965.659 1000.772, 970.133 998.847 C 975.063 996.726, 975.349 996.233, 975.036 990.375 C 974.662 983.400, 980.345 974.861, 989.437 968.736 C 992.772 966.489, 998.589 962.250, 1002.365 959.316 C 1006.140 956.381, 1010.415 953.727, 1011.865 953.418 C 1017.684 952.175, 1022.175 949.458, 1028.398 943.417 C 1031.988 939.931, 1036.855 936.110, 1039.213 934.926 C 1044.412 932.317, 1048 929.160, 1048 927.197 C 1048 924.855, 1042.061 915.145, 1038.126 911.054 C 1035.094 907.902, 1033.599 907.170, 1029 906.590 C 1010.561 904.265, 1003.351 893.711, 999.098 862.827 C 998.517 858.606, 996.682 850.910, 995.021 845.723 C 990.301 830.990, 990.518 829.934, 1001.825 812.603 C 1005.892 806.369, 1009.858 798.879, 1011.092 795.103 C 1014.221 785.523, 1016.526 781.862, 1023.035 776.133 C 1029.250 770.662, 1030.039 769.006, 1031.953 757.413 C 1033.444 748.381, 1035.740 744.673, 1041.714 741.643 C 1047.346 738.787, 1048.190 737.869, 1054.249 728 C 1056.782 723.875, 1060.450 718.960, 1062.402 717.078 C 1065.061 714.514, 1066.712 711.382, 1068.992 704.578 C 1072.169 695.097, 1073.717 692.146, 1080.756 682.141 C 1085.378 675.572, 1087.331 674.012, 1090.047 674.723 C 1094.231 675.817, 1105.949 672.995, 1110.479 669.802 C 1112.966 668.049, 1115 666.304, 1115 665.925 C 1115 665.545, 1112.069 663.326, 1108.488 660.992 C 1097.644 653.927, 1098.618 650.581, 1116.663 632.906 C 1129.725 620.113, 1141.166 613.183, 1147.226 614.395 C 1149.567 614.863, 1150.932 614.137, 1155.525 609.978 C 1158.548 607.240, 1161.848 605, 1162.858 605 C 1163.869 605, 1171.401 602.645, 1179.598 599.768 L 1194.500 594.536 1209 594.293 C 1221.810 594.080, 1238.442 592.081, 1241.105 590.435 C 1241.622 590.116, 1243.638 586.625, 1245.585 582.677 C 1250.156 573.411, 1252.419 571.079, 1264.500 563.182 C 1270 559.588, 1277.111 554.476, 1280.302 551.823 C 1283.798 548.917, 1287.089 547, 1288.582 547 C 1290.834 547, 1298.271 544.253, 1306.763 540.285 C 1308.829 539.319, 1311.346 536.621, 1313.625 532.928 L 1317.225 527.096 1323.389 527.672 C 1330.947 528.378, 1333.937 526.348, 1338.811 517.203 C 1340.788 513.494, 1343.456 510.263, 1345.993 508.505 C 1350.758 505.203, 1358 494.825, 1358 491.298 C 1358 489.938, 1355.938 484.671, 1353.418 479.595 C 1349.444 471.590, 1348.762 469.281, 1348.277 462.205 C 1347.592 452.214, 1348.279 451.052, 1354.458 451.748 C 1358.624 452.218, 1358.998 452.051, 1360.936 448.873 C 1363.652 444.419, 1363.629 444.356, 1359.052 443.624 C 1352.810 442.626, 1349.966 439.497, 1349.712 433.349 C 1349.527 428.861, 1349.283 428.314, 1347.816 429.099 C 1344.995 430.608, 1340.921 430.114, 1337.195 427.812 C 1332.945 425.185, 1326.928 425.045, 1319.049 427.390 C 1312.707 429.277, 1308.618 432.815, 1306.038 438.648 C 1303.786 443.737, 1301.392 444.614, 1295.230 442.606 C 1292.629 441.758, 1288.590 441.103, 1286.255 441.150 C 1282.976 441.216, 1280.473 440.313, 1275.255 437.180 C 1258.857 427.335, 1254.072 427.241, 1243.931 436.563 C 1240.679 439.554, 1237.759 442, 1237.443 442 C 1235.338 442, 1232.273 438.938, 1228.432 433.001 C 1224.459 426.859, 1223.416 425.925, 1218.460 424.071 C 1210.657 421.151, 1206.374 421.438, 1197.136 425.500 C 1185.685 430.535, 1182.589 430.305, 1175.581 423.900 C 1169.196 418.064, 1169.124 417.830, 1172.500 413.818 C 1175.829 409.861, 1175.777 409.591, 1169.969 400.743 C 1163.805 391.355, 1163.976 391.461, 1159.074 393.962 C 1152.646 397.242, 1150.609 396.735, 1146.165 390.750 C 1139.828 382.215, 1138.756 381.549, 1131.806 381.823 C 1124.307 382.120, 1117.247 380.133, 1107.440 374.968 C 1095.182 368.512, 1093.203 369.587, 1096.557 380.879 C 1097.413 383.762, 1097.975 387.781, 1097.807 389.811 L 1097.500 393.500 1087 394.147 C 1081.225 394.503, 1075.089 395.109, 1073.365 395.494 C 1071.583 395.891, 1069.348 395.722, 1068.188 395.101 C 1066.472 394.182, 1065.668 394.485, 1063.150 397.004 C 1058.618 401.536, 1056.391 400.743, 1052.595 393.250 C 1050.662 389.434, 1049.814 389.349, 1039.932 391.976 C 1030.478 394.491, 1027.368 394.484, 1020.556 391.935 C 1016.713 390.497, 1014.499 388.957, 1013.268 386.866 C 1011.237 383.416, 1007.684 381.016, 1000.307 378.116 C 995.404 376.188, 994.823 376.160, 989.907 377.620 C 985.139 379.036, 980.614 378.940, 976.429 377.334 C 975.491 376.974, 975 377.457, 975 378.738 C 975 380.979, 972.048 384, 969.858 384 C 966.690 384, 954.121 366.473, 951.847 358.884 C 950.933 355.832, 950.406 355.248, 949.356 356.119 C 946.788 358.251, 922.441 356.206, 915.500 353.276 C 912.200 351.882, 906.271 349.642, 902.325 348.297 C 895.218 345.875, 895.144 345.813, 894.441 341.676 C 893.821 338.031, 893.589 337.737, 892.615 339.369 C 888.964 345.486, 888.791 345.548, 883.675 342.549 C 881.104 341.043, 878.762 339.425, 878.471 338.953 C 878.180 338.482, 879.119 333.536, 880.558 327.963 C 882.098 322, 882.912 316.785, 882.536 315.289 L 881.898 312.747 870.869 313.202 L 859.840 313.656 857.301 310.328 C 855.394 307.828, 853.997 307, 851.685 307 C 849.966 307, 846.878 305.801, 844.689 304.284 L 840.770 301.569 828.635 305.891 C 819.730 309.063, 813.971 310.459, 807 311.135 C 790.144 312.769, 791.198 312.940, 782.974 307.220 C 773.724 300.786, 763.426 297.155, 751.492 296.119 C 744.941 295.551, 741.383 294.705, 738.451 293.017 L 734.419 290.696 726.296 293.401 C 718.270 296.074, 718.107 296.087, 712.515 294.461 C 707.990 293.146, 706.296 293.049, 704.055 293.977 C 702.482 294.629, 699.728 294.852, 697.777 294.486 C 695.228 294.008, 693.267 294.389, 690.416 295.917 C 688.278 297.063, 685.848 297.998, 685.015 297.996 C 682.011 297.989, 677.202 294.090, 673.889 288.978 C 672.031 286.111, 669.466 283.367, 668.190 282.882 C 661.628 280.387, 649.453 283.109, 642.980 288.517 C 638.195 292.515, 635.135 292.873, 629.653 290.078 L 625.883 288.156 621.192 290.550 C 617.479 292.445, 613.788 293.170, 603.500 294.028 C 596.350 294.624, 588.700 295.525, 586.500 296.031 C 577.668 298.062, 559.543 297.209, 551.731 294.395 C 531.414 287.074, 531.158 287.012, 522.086 287.138 C 513.556 287.256, 507.590 286.055, 503.495 283.394 C 500.147 281.219, 489.292 279.071, 473.500 277.459 C 454.645 275.534, 451.821 274.773, 448.549 270.734 C 447.108 268.955, 444.933 266.279, 443.715 264.788 C 439.491 259.615, 437.041 260.052, 429.025 267.408 C 418.554 277.018, 415.798 277.664, 392 276.090 C 378.165 275.175, 368.709 275.134, 354.500 275.928 C 305.930 278.642, 296.942 277.191, 277.761 263.540 C 268.812 257.172, 251.475 248.137, 245.500 246.728 C 244.400 246.469, 241.207 246.635, 238.404 247.098 M 1440.697 749.942 C 1439.155 750.929, 1435.330 752.036, 1432.197 752.402 C 1419.344 753.902, 1417 755.786, 1417 764.614 C 1417 768.814, 1419.084 770, 1426.466 770 C 1432.815 770, 1437.577 771.687, 1440.500 774.971 C 1441.600 776.207, 1445.200 778.579, 1448.500 780.242 C 1451.800 781.905, 1456.381 784.556, 1458.680 786.133 C 1465.259 790.645, 1469.192 789.260, 1472.647 781.211 C 1474.385 777.164, 1472.175 771.297, 1467.130 766.563 C 1465.409 764.948, 1464 762.655, 1464 761.468 C 1464 758.581, 1460.976 756, 1457.593 756 C 1455.712 756, 1453.592 754.737, 1450.883 752 C 1446.525 747.599, 1444.875 747.265, 1440.697 749.942 M 1441.016 753.057 C 1439.099 754.126, 1436.321 755, 1434.842 755 C 1430.798 755, 1421.601 757.254, 1420.765 758.449 C 1420.361 759.027, 1420.024 761.188, 1420.015 763.250 L 1420 767 1426.032 767 C 1433.046 767, 1437.801 768.740, 1442.813 773.141 C 1444.785 774.872, 1448.418 777.182, 1450.887 778.274 C 1453.356 779.366, 1457.159 781.552, 1459.338 783.130 C 1464.466 786.845, 1465.987 786.740, 1468.893 782.473 C 1471.262 778.994, 1471.268 778.921, 1469.508 775.018 C 1468.530 772.850, 1466.216 769.698, 1464.365 768.014 C 1462.254 766.093, 1461 764.017, 1461 762.444 C 1461 759.886, 1460.669 759.646, 1455.591 758.525 C 1453.991 758.171, 1451.134 756.334, 1449.241 754.441 C 1445.269 750.469, 1445.568 750.519, 1441.016 753.057 M 1322.595 771.501 C 1311.798 777.241, 1297.785 788.656, 1292.896 795.692 C 1290.690 798.868, 1287.986 800.883, 1281.742 804.007 C 1272.056 808.851, 1269 811.442, 1269 814.808 C 1269 819.152, 1271.311 825.157, 1274.029 827.875 C 1275.482 829.328, 1277.211 831.526, 1277.871 832.759 C 1279.662 836.105, 1281.071 835.586, 1288.380 828.889 C 1294.514 823.269, 1300.811 820.147, 1303.128 821.579 C 1305.042 822.762, 1306.243 833.520, 1305.002 838.366 C 1303.310 844.974, 1302.695 844.645, 1321.262 847.067 L 1330.025 848.210 1334.634 853.605 C 1339.959 859.838, 1341.528 860.165, 1345.563 855.883 C 1347.178 854.168, 1352.896 848.961, 1358.269 844.311 C 1370.409 833.806, 1373.352 828.840, 1373.567 818.500 C 1373.646 814.650, 1373.777 810.937, 1373.856 810.248 C 1373.935 809.560, 1376.250 807.380, 1379 805.405 C 1384.594 801.386, 1385.142 799.386, 1382.044 794.304 C 1378.322 788.199, 1375.793 787.376, 1370.027 790.391 C 1363.880 793.605, 1358.834 793.711, 1352.962 790.750 L 1348.500 788.500 1348 780 L 1347.500 771.500 1343 770.330 C 1335.130 768.285, 1327.858 768.702, 1322.595 771.501 M 1322.500 774.825 C 1313.273 780.267, 1299.581 791.461, 1295.562 796.848 C 1292.498 800.955, 1289.957 803.001, 1284.540 805.719 C 1274.217 810.898, 1271.996 812.690, 1272.022 815.818 C 1272.049 819.089, 1275.514 827, 1276.919 827 C 1277.478 827, 1278.550 828.171, 1279.300 829.603 L 1280.664 832.206 1286.816 826.510 C 1293.495 820.327, 1300.650 817.207, 1304.019 819.010 C 1307.405 820.822, 1310.210 834.871, 1308.007 838.987 C 1306.348 842.087, 1307.079 842.393, 1319.755 843.911 L 1330.500 845.197 1335.768 850.800 L 1341.035 856.403 1346.768 850.882 C 1349.920 847.846, 1355.327 842.973, 1358.782 840.054 C 1367.936 832.320, 1370.375 827.626, 1370.671 817.172 C 1370.935 807.882, 1371.600 806.583, 1378.264 802.349 C 1381.910 800.032, 1381.984 799.870, 1380.617 797.226 C 1377.482 791.164, 1375.806 790.558, 1370.131 793.434 C 1364.070 796.505, 1358.804 796.702, 1352.700 794.086 C 1346.439 791.402, 1345 788.925, 1345 780.837 C 1345 777.141, 1344.521 773.822, 1343.935 773.460 C 1343.350 773.098, 1339.412 772.594, 1335.185 772.339 C 1328.050 771.909, 1327.142 772.087, 1322.500 774.825 M 1187.113 877 C 1182.843 881.671, 1181.524 881.878, 1177.594 878.499 C 1172.760 874.341, 1171.781 874.963, 1166 885.865 C 1162.517 892.433, 1160.273 894.344, 1154.707 895.486 C 1150.478 896.354, 1150.262 898.695, 1153.820 905.119 C 1155.569 908.276, 1157.006 912.128, 1157.014 913.679 C 1157.063 923.967, 1161.745 924.194, 1173.832 914.496 C 1180.050 909.508, 1181.264 907.982, 1183.164 902.771 C 1184.523 899.042, 1187.120 894.840, 1190.041 891.640 C 1198.139 882.772, 1200.822 876.046, 1197.066 874.035 C 1193.497 872.125, 1190.847 872.915, 1187.113 877 M 1188.574 879.492 C 1184.533 884.789, 1180.246 885.103, 1175.586 880.443 C 1173.403 878.260, 1172.456 879.145, 1168.446 887.107 C 1164.822 894.303, 1160.694 897.989, 1156.250 897.996 C 1153.321 898.001, 1153.410 899.541, 1156.604 904.149 C 1158.175 906.417, 1159.474 910.006, 1159.879 913.203 C 1160.755 920.103, 1162.495 919.987, 1171.949 912.403 C 1178.120 907.451, 1179.184 906.091, 1180.735 901.172 C 1181.962 897.279, 1184.055 893.888, 1187.607 890.037 C 1192.482 884.753, 1196 879.309, 1196 877.050 C 1196 874.537, 1191.132 876.139, 1188.574 879.492" stroke="none" fill="#111111" fill-rule="evenodd"/>
</svg>