<svg xmlns="http://www.w3.org/2000/svg" width="1500" height="1500" viewBox="0 0 1500 1500" version="1.1">
	<path d="M 136.353 400.217 C 130.053 406.266, 129.738 406.431, 124.689 406.335 C 121.835 406.280, 116.618 405.477, 113.095 404.550 C 102.076 401.651, 102.562 399.991, 101.149 445.376 C 100.417 468.913, 100.373 469.280, 98.022 471.183 C 96.164 472.688, 94.778 472.969, 91.747 472.457 C 78.861 470.280, 76.280 472.383, 77.745 483.863 C 78.865 492.633, 78.449 495.741, 75.467 500.908 C 71.146 508.394, 69.033 509.897, 60.600 511.479 C 52.976 512.909, 49 514.982, 49 517.527 C 49 519.088, 58.126 533.066, 60.322 534.868 C 62.517 536.669, 68.407 536.519, 75.408 534.484 C 80.436 533.022, 105.847 530.737, 106.921 531.650 C 108.163 532.707, 102.349 536.849, 98.831 537.411 C 94.113 538.165, 89.447 540.363, 86.182 543.367 C 84.907 544.540, 79.282 547.750, 73.682 550.500 L 63.500 555.500 61.619 561 C 60.584 564.025, 59.684 569.412, 59.619 572.972 C 59.444 582.517, 60.886 582.170, 73.544 569.618 C 84.673 558.583, 92.044 553.564, 108 546.158 C 116.842 542.054, 135.879 535.575, 142.075 534.560 C 146.325 533.864, 149.172 531.030, 155.276 521.416 C 159.597 514.612, 164.437 509.710, 169.523 506.988 C 171.487 505.937, 173.846 505.982, 182.708 507.243 C 194.628 508.938, 194.782 508.905, 201.831 503.157 L 206.163 499.626 216.309 500.892 C 224.860 501.959, 227.326 502.696, 231.997 505.579 C 235.045 507.461, 238.281 509, 239.188 509 C 240.095 509, 241.810 510.575, 243 512.500 C 246.114 517.538, 248.965 517.524, 256.735 512.431 C 259.614 510.544, 262.326 509, 262.763 509 C 263.762 509, 277.082 495.353, 279.329 492.027 C 283.197 486.304, 279.588 483.243, 262.287 477.572 C 259.419 476.632, 253.244 473.009, 248.561 469.517 C 243.879 466.027, 238.533 462.671, 236.680 462.059 C 231.202 460.252, 216.333 444.387, 215.504 439.467 C 215.136 437.285, 213.694 431.965, 212.300 427.644 C 210.573 422.291, 209.933 418.535, 210.292 415.858 C 210.730 412.593, 210.454 411.693, 208.660 410.541 C 204.569 407.913, 195.143 406.876, 186.866 408.142 C 177.930 409.510, 175.691 408.868, 163.444 401.434 C 147.577 391.802, 145.226 391.696, 136.353 400.217 M 137.627 402.882 C 131.142 408.915, 130.970 409, 125.275 408.984 C 122.099 408.976, 116.800 408.330, 113.500 407.550 C 109.941 406.708, 107.128 406.496, 106.585 407.030 C 105.411 408.184, 105.089 413.024, 104.144 443.644 C 103.487 464.960, 103.104 469.192, 101.632 471.439 C 99.156 475.217, 96.020 476.121, 89.538 474.922 C 80.441 473.241, 79.894 473.950, 80.657 486.426 C 81.280 496.611, 81.240 496.877, 78.396 501.557 C 72.794 510.772, 70.285 512.647, 61.716 514.030 C 51.216 515.724, 50.932 516.313, 56.460 524.938 C 62.405 534.213, 63.719 534.774, 73.111 532.056 C 83.432 529.069, 109.358 527.884, 110.306 530.355 C 111.147 532.548, 105.600 538.833, 102.139 539.609 C 93.969 541.440, 91.669 542.351, 88.737 544.915 C 86.957 546.472, 80.930 550.036, 75.345 552.834 L 65.190 557.923 63.139 566.627 C 62.010 571.414, 61.309 575.690, 61.580 576.129 C 61.851 576.568, 66.669 572.395, 72.287 566.855 C 84.224 555.082, 95.063 548.202, 113.408 540.754 C 125.594 535.807, 137.828 532, 141.543 532 C 144.174 532, 147.486 528.427, 153.285 519.330 C 157.885 512.115, 166.105 504.514, 170.500 503.411 C 171.770 503.092, 177.373 503.557, 182.953 504.444 C 188.533 505.331, 193.639 505.731, 194.299 505.333 C 194.960 504.935, 197.678 502.897, 200.340 500.804 C 205.695 496.595, 207.039 496.394, 218.231 498.123 C 227.829 499.607, 243.459 507.054, 245.579 511.153 C 246.389 512.719, 247.573 514, 248.210 514 C 252.973 514, 278.484 491.753, 277.800 488.197 C 277.609 487.207, 273.068 484.848, 265.720 481.923 C 257.457 478.633, 251.792 475.598, 246.723 471.744 C 242.750 468.724, 237.475 465.355, 235 464.258 C 232.158 462.998, 227.328 458.990, 221.890 453.381 C 214.203 445.452, 213.205 443.990, 212.577 439.741 C 212.191 437.124, 210.763 431.724, 209.405 427.741 C 207.975 423.550, 207.054 418.832, 207.217 416.541 L 207.500 412.582 201.500 411.192 C 196.621 410.061, 194.087 410.023, 187.936 410.989 C 178.170 412.524, 175.189 411.705, 162.186 403.917 C 147.670 395.224, 145.937 395.151, 137.627 402.882 M 709.667 420.385 C 707.891 423.097, 696.836 428.018, 686.993 430.479 C 678.151 432.690, 654.213 431.407, 651.060 428.554 C 649.194 426.866, 648.363 426.827, 639.432 428.009 C 628.181 429.498, 617.651 428.854, 607 426.026 C 596.533 423.246, 592.077 423.428, 585.170 426.914 C 581.995 428.517, 565.245 435.441, 547.949 442.300 C 530.652 449.160, 512.450 456.573, 507.500 458.773 C 502.550 460.974, 496.077 463.335, 493.115 464.019 C 489.072 464.954, 486.426 466.444, 482.504 469.996 C 479.630 472.599, 475.079 475.534, 472.390 476.518 C 451.859 484.035, 447.759 486.873, 449.763 492.182 C 450.866 495.104, 450.690 495.592, 446.918 500.098 C 444.706 502.740, 441.458 505.784, 439.699 506.864 C 428.193 513.925, 401.836 510.061, 375.887 497.508 C 372.369 495.806, 371.984 495.829, 361.317 498.380 C 346.612 501.896, 344.980 501.786, 324.364 495.894 C 295.402 487.616, 289.037 487.565, 280.167 495.540 C 274.085 501.008, 273.081 504.302, 275.861 509.669 C 278.100 513.992, 286.709 524.408, 289.877 526.626 C 291.885 528.033, 297.341 537.999, 296.104 538.001 C 289.705 538.009, 260.091 546.193, 257.380 548.702 C 252.574 553.150, 254.564 557.025, 262.378 558.438 C 264.512 558.823, 268.787 560.305, 271.878 561.731 L 277.500 564.324 273.500 565.020 C 271.300 565.404, 267.425 566.307, 264.888 567.029 C 260.923 568.157, 259.450 568.113, 254.388 566.716 C 241.170 563.067, 212.216 561.965, 198 564.569 L 194.500 565.211 197.750 562.162 C 203.723 556.559, 200.093 550, 191.020 550 C 189.326 550, 185.366 548.927, 182.220 547.615 C 173.999 544.186, 170.572 543.606, 169.090 545.392 C 167.354 547.483, 168.863 549.874, 175.489 555.534 C 181.630 560.781, 182.638 564.362, 179 568 C 176.353 570.647, 174.932 570.546, 163.882 566.927 C 152.211 563.104, 150.968 562.301, 147.967 556.645 L 145.546 552.081 137.523 552.237 C 133.110 552.323, 123.786 552.013, 116.803 551.547 C 105.337 550.783, 103.833 550.878, 101.303 552.525 C 95.234 556.473, 75.213 574.051, 70.225 579.810 C 67.323 583.160, 63.177 586.897, 61.011 588.114 C 56.316 590.753, 54.548 594.128, 52.953 603.500 C 52.298 607.350, 50.194 614.545, 48.279 619.488 C 41.211 637.733, 41.634 638.369, 61.169 638.861 C 81.569 639.375, 81.251 639.373, 94.855 639.078 C 107.813 638.797, 110.487 639.503, 107.967 642.539 C 106.281 644.571, 97.460 649.032, 89.250 652.005 C 83.951 653.923, 83 654.633, 83 656.665 C 83 660.475, 90.776 672.665, 94.079 674.033 C 99.411 676.241, 99.569 677.521, 95.059 681.943 L 90.946 685.974 92.867 689.737 C 96.244 696.354, 98.049 697.350, 105.574 696.746 C 113.530 696.107, 112.879 697.505, 104.458 699.141 C 96.608 700.665, 95.663 701.492, 96.413 706.181 C 96.972 709.679, 96.814 710.008, 94.258 710.637 C 86.253 712.609, 85.278 715.490, 88.946 726.340 C 93.171 738.839, 94.328 740.651, 98.595 741.452 C 102.785 742.238, 102.303 743.002, 96.101 745.401 L 91.702 747.103 88.553 744.052 C 84.723 740.339, 84.361 740.318, 81.293 743.629 C 78.216 746.949, 75.970 745.556, 77.827 741.480 C 79.772 737.211, 79.201 734.154, 74.672 724.616 C 68.318 711.231, 65.323 709.909, 59.295 717.828 C 54.445 724.197, 54.650 729.318, 60 735.500 C 62.200 738.042, 64 740.691, 64 741.387 C 64 744.551, 54.806 750, 49.466 750 C 46.216 750, 43 751.665, 43 753.348 C 43 755.231, 47.319 758.947, 58.176 766.405 L 67.852 773.052 74.081 769.026 C 82.667 763.477, 84.398 763.647, 86.550 770.250 C 89.159 778.253, 90.918 780.664, 97.990 785.926 C 101.570 788.590, 106.916 793.327, 109.870 796.452 C 114.854 801.725, 115.196 802.399, 114.631 805.817 C 114.296 807.843, 114.017 810.513, 114.011 811.750 C 114.001 813.700, 113.476 814, 110.065 814 C 105.843 814, 101 815.458, 101 816.728 C 101 817.156, 103.663 819.170, 106.917 821.204 L 112.834 824.903 112.764 833.789 C 112.686 843.775, 114.551 848.598, 118.916 849.694 C 121.109 850.244, 122.492 849.923, 128.185 847.541 C 129.565 846.964, 129.855 847.401, 129.782 849.948 C 129.625 855.471, 131.855 858.250, 135.843 857.502 C 139.057 856.899, 139.231 857.003, 138.649 859.179 C 138.307 860.456, 138.021 863.638, 138.014 866.250 C 138.001 870.803, 137.882 871, 135.149 871 C 133.581 871, 130.316 869.946, 127.894 868.658 C 125.472 867.371, 121.759 865.745, 119.642 865.047 C 114.122 863.225, 113.264 864.544, 112.845 875.500 L 112.500 884.500 120.500 884.564 C 124.900 884.599, 131.875 885.239, 136 885.987 C 149.607 888.452, 181.304 887.571, 188.595 884.525 L 192.350 882.956 190.425 885.084 C 188.113 887.641, 182.672 890.503, 178.354 891.435 C 174.809 892.199, 172.593 894.317, 171.483 898 C 170.396 901.611, 170.719 901.556, 151.817 901.300 L 134.500 901.064 125.203 904.668 C 114.331 908.881, 113.366 910.904, 121.512 912.404 C 127.779 913.557, 149.529 911.563, 159.438 908.926 C 168.933 906.400, 172.164 906.481, 174.826 909.314 C 177.578 912.244, 177.563 912.999, 174.750 913.004 C 169.471 913.013, 163.366 919.547, 165.465 922.943 C 167.203 925.755, 173.865 924.060, 179 919.500 C 181.787 917.025, 184.695 915, 185.462 915 C 188.275 915, 190.198 911.869, 189.540 908.360 C 188.803 904.433, 190.669 899.868, 192.092 902.115 C 192.575 902.877, 192.976 905.188, 192.985 907.250 C 193.013 914.126, 197.270 911.773, 203.638 901.360 C 204.627 899.743, 204.710 899.860, 204.270 902.256 C 203.515 906.371, 205.475 908, 211.184 908 L 216.123 908 215.469 912.355 C 214.715 917.389, 217.368 920.416, 223.553 921.576 C 225.483 921.938, 227.561 923.207, 228.452 924.567 C 232.928 931.399, 239 928.743, 239 919.953 C 239 916.081, 240.946 916.136, 245.503 920.137 C 251.220 925.157, 251.612 926.614, 248.048 929.613 C 244.169 932.877, 244.182 935.408, 248.090 937.693 C 250.825 939.293, 251.126 939.910, 250.708 943.078 C 249.865 949.475, 253.383 953.879, 271.364 968.939 C 272.805 970.147, 275.725 970.500, 284.268 970.500 L 295.309 970.500 296.452 974.500 C 298.230 980.721, 303.410 980.245, 316.044 972.700 C 322.738 968.701, 326.619 967.001, 329.044 967.003 C 330.945 967.004, 334.411 965.993, 336.747 964.756 C 341.932 962.010, 343.449 962.685, 347 969.322 C 350.240 975.378, 351.640 975.219, 357.841 968.090 C 364.163 960.821, 365.360 957.965, 364.060 953.257 C 363.306 950.525, 363.447 949.036, 364.689 946.635 C 365.569 944.932, 368.245 937.250, 370.635 929.565 C 373.025 921.879, 375.680 914.895, 376.534 914.045 C 378.708 911.882, 392.927 912.152, 399 914.471 C 405.009 916.766, 409.037 918.090, 425 923.017 C 438.418 927.158, 443.800 929.650, 462.018 940.154 C 472.470 946.181, 485.002 955.173, 489.173 959.638 C 490.643 961.212, 494.383 967, 497.485 972.500 C 504.961 985.757, 506.764 987.491, 516.459 990.741 C 524.401 993.403, 524.790 993.433, 548 993.168 C 581.908 992.781, 605.368 988.107, 619.196 978.982 C 624.712 975.343, 624.946 975.283, 626.578 977.086 C 630.700 981.641, 638.530 979.246, 643.485 971.916 C 653.099 957.691, 676.465 934.407, 685.824 929.724 C 694.134 925.567, 694.998 925.684, 699.004 931.505 C 701.716 935.447, 702.812 936.080, 713.507 939.875 C 729.202 945.445, 729.734 945.550, 731.970 943.527 C 733.782 941.887, 734.009 942.045, 737.571 947.409 C 742.108 954.243, 743.495 954.394, 753.963 949.202 C 762.460 944.987, 766.465 940.392, 765.493 935.970 C 764.968 933.577, 765.300 933.227, 769.208 932.059 C 776.775 929.799, 781.367 926.936, 787.077 920.922 L 792.654 915.048 795.950 923.520 C 800.448 935.085, 799.701 936.603, 781.844 952.175 C 775.765 957.475, 775.186 958.353, 773.063 965.505 L 770.791 973.161 773.378 980.330 C 777.437 991.579, 779.194 1000.599, 778.465 1006.437 L 777.820 1011.593 784.259 1014.147 L 790.697 1016.701 796.502 1011.915 C 799.695 1009.283, 804.897 1006.160, 808.062 1004.977 C 818.056 1001.239, 820.279 996.306, 817.569 983.872 L 816.778 980.244 823.639 979.108 C 835.072 977.215, 843.852 974.883, 845.070 973.415 C 846.746 971.396, 845.602 968.208, 841.025 962.137 C 835.738 955.125, 835.459 953.653, 836.864 940.171 C 838.281 926.581, 839.107 924.545, 842.839 925.437 C 844.302 925.787, 848.640 926.729, 852.478 927.530 C 856.315 928.331, 862.615 930.516, 866.478 932.385 C 872.543 935.320, 874.862 935.864, 883.500 936.374 C 889 936.699, 895.975 937.642, 899 938.471 C 906.936 940.643, 909.245 940.388, 913.612 936.857 C 915.751 935.128, 923.029 931.082, 929.786 927.867 C 936.543 924.651, 945.712 919.540, 950.162 916.510 C 959.810 909.940, 961.640 909.749, 972.627 914.164 C 982.259 918.034, 986.954 920.899, 993.658 926.995 C 1003.014 935.502, 1003.050 935.510, 1031.500 935.430 C 1051.671 935.373, 1057.273 935.057, 1060.500 933.797 C 1072.753 929.009, 1091.835 921.875, 1101.111 918.613 C 1113.123 914.389, 1136.464 901.114, 1150.519 890.514 C 1160.232 883.188, 1160.945 883.038, 1171.701 886.057 C 1179.023 888.111, 1179.038 888.111, 1186.265 886.154 C 1199.077 882.685, 1205.308 881.746, 1214.665 881.873 C 1227.520 882.048, 1232.725 880.147, 1249.338 869.208 C 1266.177 858.121, 1268.579 857.186, 1274.459 859.431 C 1280.424 861.709, 1282.386 864.110, 1281.635 868.210 C 1280.617 873.771, 1281.683 874.371, 1291.145 873.565 C 1301.489 872.684, 1303.290 871.554, 1305.938 864.282 C 1309.446 854.650, 1311.281 850.920, 1312.952 850.026 C 1314.405 849.248, 1323.705 850.372, 1324.790 851.456 C 1325.039 851.706, 1327.384 850.826, 1329.999 849.500 C 1339.750 844.559, 1342.677 844.409, 1350.617 848.443 C 1356.937 851.653, 1357.982 851.902, 1360.886 850.890 C 1363.715 849.904, 1364.404 850.031, 1366.399 851.905 C 1369.733 855.037, 1374.263 856.003, 1385.493 855.976 C 1401.379 855.937, 1406.756 854.059, 1409.514 847.588 L 1410.756 844.676 1421.999 844.573 C 1430.233 844.497, 1433.373 844.809, 1433.729 845.737 C 1434.527 847.817, 1433.163 851.652, 1430.500 854.817 C 1426.033 860.126, 1427.926 863.813, 1436.279 866.071 C 1441.135 867.384, 1447.076 863.723, 1451 857 C 1453.593 852.557, 1453.718 852.486, 1460.912 851.399 C 1469.332 850.128, 1469.964 849.471, 1469.985 841.973 C 1470.004 834.835, 1468.489 832.775, 1460.118 828.560 C 1450.492 823.712, 1450.299 823.359, 1452.823 815.235 C 1458.105 798.237, 1457.881 789.031, 1452.221 790.470 C 1444.415 792.453, 1442.636 792.241, 1436.603 788.606 C 1433.359 786.652, 1428.747 784.305, 1426.353 783.391 C 1423.959 782.476, 1422 781.424, 1422 781.052 C 1422 780.681, 1422.852 777.029, 1423.894 772.938 C 1424.936 768.847, 1426.080 763.817, 1426.437 761.761 C 1426.830 759.498, 1428.648 756.217, 1431.043 753.450 C 1436.305 747.370, 1436.301 744.301, 1431.022 739.022 C 1425.601 733.601, 1421 724.740, 1421 719.720 C 1421 712.581, 1417.055 692.374, 1414.560 686.732 C 1413.223 683.708, 1411.142 677.918, 1409.937 673.867 C 1408.732 669.815, 1406.067 663.800, 1404.016 660.500 C 1400.539 654.907, 1395 644.567, 1395 643.670 C 1395 643.452, 1397.857 643.045, 1401.348 642.764 C 1404.840 642.484, 1408.986 641.635, 1410.562 640.877 C 1413.429 639.499, 1413.883 638.834, 1418.328 629.500 C 1429.228 606.614, 1430.583 605.167, 1436.649 609.938 C 1440.257 612.776, 1448.924 615.476, 1450.231 614.169 C 1451.713 612.687, 1446.110 604.227, 1440.846 599.996 C 1438.554 598.155, 1432.187 592.402, 1426.696 587.213 C 1413.409 574.655, 1414.426 574.980, 1390.736 575.706 C 1366.337 576.455, 1366.815 576.617, 1359.631 565.136 C 1349.057 548.237, 1347.672 541.476, 1352.376 529.719 C 1355.498 521.913, 1355.785 515.281, 1353.148 511.885 C 1352.129 510.573, 1349.489 505.629, 1347.282 500.898 C 1344.886 495.763, 1342.181 491.531, 1340.572 490.398 C 1333.522 485.437, 1332.251 483.974, 1331.634 480.113 C 1330.751 474.591, 1325.966 470.596, 1321.285 471.474 C 1316.398 472.391, 1314.217 471.346, 1312.016 467.032 C 1309.194 461.500, 1307.670 460.325, 1302.300 459.542 C 1294.530 458.409, 1281 450.414, 1281 446.956 C 1281 446.002, 1280.185 444.215, 1279.188 442.984 C 1276.454 439.607, 1273.982 441.053, 1267.966 449.548 C 1262.169 457.734, 1260.610 458.589, 1253.197 457.647 C 1250.614 457.318, 1238.375 456.974, 1226 456.881 C 1204.157 456.717, 1203.398 456.643, 1200.018 454.356 C 1194.167 450.397, 1191.249 451.107, 1184.443 458.145 C 1181.174 461.524, 1175.125 466.738, 1171 469.731 C 1166.875 472.724, 1160.800 477.994, 1157.500 481.442 C 1152.274 486.901, 1150.362 488.141, 1142.681 491.053 C 1135.123 493.918, 1133.674 494.844, 1132.554 497.526 C 1131.015 501.209, 1126.621 503.550, 1119.500 504.480 C 1116.750 504.840, 1111.499 506.472, 1107.830 508.109 C 1098.665 512.196, 1086.181 513.552, 1071.500 512.056 C 1058.302 510.711, 1054.403 509.601, 1050.681 506.129 C 1047.088 502.779, 1039.378 502.670, 1032.753 505.878 C 1030.168 507.129, 1026.416 508, 1023.611 508 C 1020.994 508, 1015.623 509.084, 1011.676 510.408 C 1007.729 511.733, 1001.575 513.571, 998 514.492 C 994.425 515.414, 988.279 517.505, 984.342 519.139 L 977.185 522.110 955.119 521.805 L 933.054 521.500 926.777 515.281 L 920.500 509.062 913.705 511.531 C 905.705 514.437, 904.351 514.499, 894.208 512.420 C 885.145 510.562, 866.425 500.847, 862.175 495.797 C 858.422 491.336, 851.160 487, 847.443 487 C 845.701 487, 841.852 488.361, 838.888 490.024 C 828.172 496.037, 827.287 496.286, 822.463 494.642 C 813.022 491.425, 797.640 478.142, 795.178 471.081 C 794.148 468.126, 794.179 468.086, 797.065 468.663 C 801.140 469.478, 801.041 466.255, 796.845 461.476 C 788.621 452.110, 776.807 450.837, 763.143 457.844 L 754.786 462.130 745.726 459.315 C 734.590 455.855, 732.640 454.020, 727.750 442.393 C 723.635 432.608, 723.230 430.233, 725.528 429.351 C 727.701 428.517, 729.218 425.262, 728.495 422.983 C 728.093 421.716, 726.098 420.513, 722.758 419.521 C 715.229 417.285, 711.539 417.528, 709.667 420.385 M 711.214 422.946 C 707.827 426.183, 695.624 431.431, 686.829 433.433 C 678.090 435.422, 654.585 434.269, 650.595 431.654 C 648.137 430.044, 646.989 429.987, 638.193 431.046 C 627.035 432.389, 617.664 431.771, 607 428.990 C 596.337 426.209, 592.086 426.423, 584.786 430.108 C 581.400 431.817, 564.463 438.817, 547.149 445.662 C 529.835 452.508, 513.087 459.389, 509.932 460.955 C 506.777 462.520, 501.564 464.547, 498.348 465.457 C 495.131 466.368, 491.668 467.357, 490.652 467.655 C 489.635 467.953, 486.429 470.347, 483.527 472.975 C 479.726 476.418, 476.330 478.387, 471.376 480.021 C 455.592 485.228, 450.573 488.485, 452.810 492.068 C 453.465 493.116, 454 494.470, 454 495.077 C 454 497.197, 444.622 507.138, 440.149 509.759 C 428.819 516.399, 398.939 512.259, 376.368 500.922 L 372.235 498.847 360.368 501.520 C 345.880 504.784, 344.076 504.628, 321.500 498.151 C 299.229 491.762, 292.330 491.031, 286.508 494.443 C 281.557 497.344, 277 502.359, 277 504.905 C 277 507.606, 282.252 514.917, 288.932 521.516 C 292.257 524.801, 295.654 529.178, 296.481 531.244 L 297.984 535 315.976 535 L 333.968 535 337.234 537.940 C 340.300 540.700, 340.397 540.984, 338.816 542.588 C 337.311 544.115, 336.360 544.172, 329.816 543.120 C 325.792 542.473, 317.775 541.899, 312 541.846 C 306.225 541.792, 300.756 541.362, 299.846 540.890 C 298.838 540.368, 295.515 540.650, 291.346 541.612 C 261.674 548.460, 258 549.703, 258 552.888 C 258 554.310, 259.225 554.970, 263.437 555.816 C 269.684 557.070, 280.487 562.220, 281.296 564.329 C 282.156 566.571, 279.953 568, 275.638 568 C 273.459 568, 269.294 568.751, 266.382 569.669 C 261.300 571.271, 260.738 571.252, 252.294 569.195 C 237.828 565.672, 217.715 564.520, 205.542 566.516 C 189.286 569.183, 185.401 567.709, 193.449 561.929 C 200.363 556.964, 199.323 553.884, 190.350 552.744 C 188.067 552.454, 183.186 551.012, 179.503 549.538 C 175.821 548.065, 172.525 547.141, 172.181 547.486 C 171.836 547.830, 174.355 550.704, 177.777 553.871 C 184.490 560.082, 185.329 562.529, 182.575 567.855 C 181.186 570.541, 177.327 573, 174.502 573 C 171.834 573, 153.491 566.648, 150.793 564.790 C 149.304 563.764, 147.108 561.185, 145.913 559.058 L 143.740 555.192 135.620 555.227 C 131.154 555.246, 123.675 554.825, 119 554.291 C 105.087 552.703, 104.791 552.814, 90.320 564.984 C 83.269 570.913, 75.135 578.490, 72.245 581.821 C 69.354 585.153, 65.218 588.873, 63.053 590.090 C 58.535 592.630, 57.531 594.624, 55.553 605 C 54.766 609.125, 52.495 616.710, 50.506 621.856 C 48.516 627.002, 47.026 632.177, 47.194 633.356 C 47.555 635.885, 48.782 635.979, 85.596 636.299 C 109.804 636.510, 112 636.905, 112 641.050 C 112 643.976, 105.513 648.479, 95.426 652.556 C 90.242 654.651, 86 656.913, 86 657.582 C 86 659.936, 93.178 669.528, 96.818 672.041 C 102.120 675.699, 102.360 679.481, 97.545 683.523 L 93.912 686.574 96.271 690.037 L 98.630 693.500 107.315 693.295 C 115.226 693.108, 116 693.257, 116 694.972 C 116 697.880, 111.414 700.818, 104.865 702.106 L 98.919 703.276 99.563 707.572 L 100.207 711.867 96.149 712.960 C 92.849 713.848, 89 716.230, 89 717.384 C 89 717.742, 94.679 734.239, 95.449 736.117 C 95.833 737.054, 98.819 738.466, 102.556 739.478 C 106.100 740.437, 109 741.611, 109 742.085 C 109 743.168, 105.290 745.021, 97.195 747.980 L 90.889 750.285 87.445 746.946 C 85.550 745.110, 84 744.134, 84 744.778 C 84 745.422, 82.658 746.643, 81.017 747.491 C 78.232 748.931, 77.900 748.900, 76.017 747.017 C 73.594 744.594, 73.540 743.789, 75.543 739.917 C 77.026 737.049, 76.926 736.568, 72.956 727.517 C 66.995 713.924, 64.865 713.004, 60.250 722.025 C 57.675 727.059, 57.996 729.173, 61.990 733.500 C 66.355 738.228, 67.348 740.748, 66.063 743.841 C 64.463 747.694, 59.185 750.884, 51.978 752.354 L 45.682 753.638 51.591 758.140 C 59.775 764.376, 66.681 769, 67.809 769 C 68.331 769, 71.373 767.425, 74.570 765.500 C 77.767 763.575, 81.404 762, 82.652 762 C 85.109 762, 89 765.526, 89 767.753 C 89 771.791, 93.408 778.952, 97.823 782.087 C 104.273 786.668, 114.906 796.931, 116.612 800.223 C 118.039 802.976, 117.651 812.329, 115.999 815.002 C 115.585 815.671, 113.153 816.454, 110.593 816.742 L 105.938 817.267 110.920 820.331 L 115.902 823.395 115.701 832.521 C 115.404 846.013, 118.431 849.827, 126 845.500 C 127.375 844.714, 129.570 844.055, 130.878 844.035 C 133.078 844.003, 133.210 844.286, 132.643 847.830 C 131.794 853.141, 133.570 855.494, 137.345 854.059 C 138.877 853.477, 140.546 853, 141.054 853 C 142.258 853, 141.056 871.083, 139.741 872.750 C 138.037 874.910, 133.030 874.126, 124.800 870.410 C 120.426 868.435, 116.700 866.972, 116.519 867.160 C 116.338 867.347, 116.039 870.844, 115.853 874.931 L 115.516 882.361 124.508 882.473 C 129.454 882.535, 137.775 883.183, 143 883.914 C 149.650 884.844, 155.950 885.009, 164 884.463 C 170.325 884.035, 177.052 883.729, 178.948 883.785 C 180.844 883.840, 184.548 882.960, 187.178 881.828 C 192.388 879.587, 195 879.905, 195 882.782 C 195 886.105, 184.766 893.988, 180.441 893.996 C 177.363 894.002, 174.911 896.217, 173.527 900.242 C 172.345 903.682, 172.418 903.933, 175.198 905.989 C 181.147 910.387, 181.092 916, 175.100 916 C 171.929 916, 168 918.532, 168 920.576 C 168 923.123, 173.111 921.034, 178.358 916.343 C 181.030 913.954, 184.124 912, 185.233 912 C 186.933 912, 187.157 911.537, 186.660 909.049 C 185.901 905.257, 187.649 900.258, 190.213 898.886 C 192.755 897.526, 194.119 898.784, 195.522 903.784 L 196.560 907.486 200.290 901.346 C 205.797 892.281, 209.032 892.144, 207.610 901.038 L 206.976 905 212.381 905 C 218.537 905, 219.354 905.933, 218.404 911.878 C 217.682 916.392, 219.170 917.945, 224.961 918.722 C 227.182 919.020, 229.002 919.542, 229.005 919.882 C 229.008 920.222, 230.122 921.850, 231.481 923.500 C 234.350 926.982, 235.958 925.851, 235.985 920.332 C 236.009 915.391, 236.919 914, 240.129 914 C 243.612 914, 251.111 920.440, 253.034 925.082 C 254.221 927.949, 254.105 928.275, 250.895 931.114 C 248.458 933.268, 247.888 934.275, 248.875 934.682 C 252.769 936.290, 254.210 939.113, 253.512 943.769 L 252.827 948.340 260.663 955.762 C 273.616 968.029, 274.297 968.357, 285.231 967.593 C 295.592 966.868, 296.930 967.330, 298.562 972.200 C 299.291 974.374, 300.410 975.609, 301.842 975.821 C 303.879 976.121, 305.979 975.119, 320 967.159 C 323.033 965.437, 326.976 964.028, 328.790 964.018 C 330.599 964.008, 333.844 963.100, 336 962 C 338.156 960.900, 340.754 960, 341.773 960 C 343.976 960, 348.119 964.319, 349.883 968.454 L 351.143 971.408 356.011 965.954 C 361.400 959.918, 362.476 957.045, 361.110 952.342 C 360.429 949.998, 360.589 948.450, 361.731 946.342 C 362.577 944.779, 365.213 937.265, 367.589 929.645 C 372.771 913.022, 373.715 911.425, 379.247 909.926 C 384.594 908.477, 397.371 910.084, 403.378 912.962 C 405.645 914.048, 413.220 916.545, 420.211 918.509 C 435.820 922.896, 445.293 926.740, 454.472 932.413 C 458.337 934.802, 463.075 937.542, 465 938.502 C 470.673 941.330, 487.545 953.754, 491.181 957.781 C 493.028 959.827, 496.739 965.422, 499.429 970.216 C 506.989 983.689, 508.618 985.283, 517.687 988.086 C 529.991 991.888, 564.868 991.276, 587 986.869 C 605.190 983.247, 610.818 981.305, 619.050 975.808 L 625.128 971.749 627.869 974.374 C 629.376 975.818, 631.170 977, 631.854 977 C 634.586 977, 638.930 973.848, 641.123 970.274 C 642.397 968.198, 646.153 963.536, 649.470 959.914 C 652.786 956.292, 657.737 950.654, 660.472 947.386 C 670.498 935.401, 686.640 924.050, 693.704 924.016 C 696.359 924.003, 697.529 924.814, 700.533 928.750 C 703.910 933.175, 704.956 933.787, 715.829 937.695 C 729.719 942.687, 729.614 942.674, 730.411 939.500 C 731.483 935.228, 734.371 937.147, 739.812 945.748 C 743.059 950.880, 743.642 950.917, 752.707 946.573 C 761.102 942.550, 763.887 939.242, 762.129 935.384 C 760.572 931.968, 761.112 931.400, 767.755 929.469 C 776.428 926.948, 778.958 925.365, 785.677 918.261 C 789.392 914.334, 792.408 911.943, 793.243 912.263 C 795.534 913.142, 802.310 930.629, 801.543 933.684 C 800.509 937.803, 795.606 944.272, 790.330 948.480 C 780.013 956.706, 778.006 959.171, 775.854 966.255 L 773.802 973.012 776.399 980.256 C 780.250 990.998, 782.248 1000.861, 781.535 1005.615 C 780.922 1009.702, 780.961 1009.767, 784.978 1011.374 C 790.334 1013.517, 790.149 1013.554, 795.155 1009.365 C 797.545 1007.365, 802.723 1004.259, 806.663 1002.461 C 815.059 998.630, 816.517 996.597, 815.522 990.104 C 813.890 979.449, 814.083 978.621, 818.500 977.334 C 820.700 976.692, 826.932 975.376, 832.349 974.408 C 838.123 973.377, 842.405 972.109, 842.698 971.344 C 842.974 970.626, 841.637 967.893, 839.729 965.270 C 832.377 955.165, 832.099 953.646, 834.404 936.209 C 835.933 924.638, 837.669 921.466, 841.977 922.367 C 843.365 922.658, 847.875 923.594, 852 924.448 C 856.125 925.303, 862.650 927.522, 866.500 929.381 C 872.502 932.279, 874.946 932.855, 883.636 933.419 C 889.210 933.780, 896.860 934.961, 900.636 936.042 C 907.489 938.005, 907.504 938.005, 910 935.995 C 915.350 931.686, 920.348 928.828, 930.060 924.521 C 935.614 922.059, 943.066 918.011, 946.622 915.526 C 959.197 906.735, 960.614 906.491, 972.523 911.062 C 982.808 915.011, 987.910 918.032, 994.744 924.221 C 1004.317 932.891, 1006.598 933.526, 1027.500 933.341 C 1048.828 933.152, 1058.581 931.960, 1066.142 928.616 C 1069.206 927.261, 1080.215 923.125, 1090.607 919.426 C 1113.304 911.346, 1134.223 899.914, 1152.425 885.645 C 1159.293 880.260, 1161.177 880.009, 1171.576 883.091 L 1178.653 885.188 1190.947 882.094 C 1200.693 879.641, 1205.355 879, 1213.439 879 C 1227.270 879, 1231.364 877.562, 1247.376 867.081 C 1265.155 855.443, 1268.235 854.241, 1274.672 856.426 C 1282.703 859.152, 1285.456 862.469, 1284.336 868.070 L 1283.689 871.304 1291.567 870.590 C 1301.232 869.714, 1301.277 869.677, 1304.507 859.978 C 1308.241 848.766, 1309.873 846.983, 1316.323 847.070 C 1319.170 847.109, 1322.400 847.500, 1323.500 847.940 C 1324.866 848.485, 1326.981 847.995, 1330.172 846.392 C 1339.369 841.772, 1342.577 841.626, 1350.693 845.454 C 1357.146 848.498, 1358.253 848.735, 1361.449 847.754 C 1364.550 846.803, 1365.301 846.926, 1367.255 848.706 C 1371.359 852.443, 1373.689 853, 1385.184 852.994 C 1399.177 852.988, 1403.606 851.885, 1405.837 847.854 C 1409.287 841.623, 1408.757 841.833, 1421.516 841.622 C 1432.040 841.449, 1433.647 841.647, 1435.325 843.325 C 1437.926 845.926, 1436.975 851.204, 1433.018 856.128 L 1429.963 859.929 1432.231 861.361 C 1438.486 865.306, 1445.012 862.818, 1449.021 854.959 C 1451.380 850.336, 1453.215 849.367, 1461.296 848.481 L 1467.091 847.845 1466.796 841.711 L 1466.500 835.578 1459.339 831.539 C 1446.673 824.395, 1446.974 825.131, 1450.936 811 C 1452.092 806.875, 1453.325 801.067, 1453.675 798.093 C 1454.307 792.727, 1454.294 792.691, 1451.906 793.456 C 1445.266 795.584, 1442.165 795.274, 1436.777 791.944 C 1433.875 790.150, 1429.055 787.682, 1426.066 786.460 C 1419.252 783.672, 1418.844 782.466, 1421.181 772 C 1424.602 756.676, 1425.119 755.277, 1428.603 751.900 C 1432.987 747.651, 1432.986 744.666, 1428.599 740.529 C 1423.586 735.801, 1419.221 727.387, 1418.467 721 C 1416.864 707.416, 1413.751 691.433, 1412.063 688.120 C 1411.048 686.129, 1408.969 680.450, 1407.444 675.500 C 1405.918 670.550, 1403.453 664.700, 1401.966 662.500 C 1398.243 656.992, 1391 642.403, 1391 640.411 C 1391 639.051, 1391.627 638.909, 1394.750 639.561 C 1403.080 641.302, 1413 638.551, 1413 634.499 C 1413 633.191, 1425.403 608.257, 1427.052 606.250 C 1428.568 604.404, 1435.492 604.682, 1437.128 606.655 C 1438.628 608.465, 1444.931 611.403, 1445.688 610.645 C 1446.554 609.780, 1443.027 605.356, 1438.739 601.929 C 1436.407 600.066, 1430.675 594.906, 1426 590.462 C 1411.496 576.676, 1414.808 577.814, 1391.524 578.607 C 1365.589 579.491, 1365.567 579.484, 1358.530 568.642 C 1346.387 549.930, 1344.526 541.837, 1349.509 529.389 C 1353.081 520.466, 1353.170 516.434, 1349.891 511.981 C 1348.482 510.066, 1346.581 506.475, 1345.667 504 C 1343.102 497.052, 1340.432 493.298, 1336.122 490.577 C 1331.518 487.671, 1329 484.431, 1329 481.412 C 1329 480.234, 1328.051 478.064, 1326.892 476.590 C 1325.005 474.191, 1324.336 473.977, 1320.504 474.552 C 1315.119 475.359, 1312.097 473.543, 1308.948 467.608 C 1306.809 463.575, 1306.275 463.218, 1300.895 462.218 C 1295.530 461.220, 1284.015 455.426, 1279.750 451.579 C 1278.787 450.710, 1278 448.902, 1278 447.559 C 1278 442.002, 1275.410 443.561, 1269.028 452.959 C 1264.513 459.607, 1260.991 461.504, 1254.764 460.639 C 1252.419 460.314, 1239.700 459.947, 1226.500 459.823 L 1202.500 459.599 1198.377 456.697 C 1193.463 453.237, 1192.737 453.485, 1185.500 461.086 C 1182.750 463.975, 1176.382 469.383, 1171.350 473.104 C 1166.317 476.825, 1160.692 481.768, 1158.850 484.090 C 1155.644 488.130, 1145.818 493.753, 1138.954 495.475 C 1137.462 495.850, 1135.895 497.339, 1135.097 499.143 C 1133.254 503.307, 1128.962 505.657, 1120.587 507.087 C 1116.689 507.752, 1112.150 509.090, 1110.500 510.060 C 1103.302 514.290, 1096.605 515.271, 1078.576 514.738 C 1059.878 514.186, 1054.145 512.983, 1048.812 508.495 C 1045.047 505.327, 1039.887 505.486, 1033.037 508.981 C 1030.609 510.220, 1027.122 511, 1024.013 511 C 1021.227 511, 1015.471 512.106, 1011.223 513.457 C 994.416 518.804, 985.318 521.811, 981.410 523.311 C 976.598 525.157, 940.376 525.717, 934.152 524.041 C 931.859 523.423, 928.508 521.053, 925.211 517.713 L 919.937 512.374 912.719 514.810 L 905.500 517.246 896.056 515.586 C 884.607 513.575, 865.773 504.277, 860.233 497.902 C 856.111 493.158, 851.048 490, 847.567 490 C 846.084 490, 840.996 492.044, 836.261 494.541 C 826.307 499.792, 825.081 499.780, 815.211 494.331 C 802.329 487.218, 791.038 473.829, 791.010 465.633 C 791.001 463.205, 791.324 462.851, 793.114 463.320 C 797.333 464.423, 791.092 459.219, 786.195 457.551 C 778.836 455.043, 774.015 455.541, 766.323 459.602 C 755.483 465.325, 754.914 465.384, 744.296 461.882 C 732.669 458.046, 730.536 455.998, 725.157 443.508 C 720.304 432.240, 720.040 429.675, 723.500 427.408 C 727.414 424.843, 726.514 423.376, 720.025 421.741 L 714.050 420.236 711.214 422.946 M 318.500 538.996 C 323.450 539.377, 329.515 540.041, 331.977 540.471 C 336.043 541.181, 336.330 541.103, 335.105 539.626 C 333.980 538.271, 331.731 538.025, 321.628 538.151 L 309.500 538.301 318.500 538.996 M 28.400 561.765 C 22.425 565.755, 26.018 573.391, 36 577.916 C 44.307 581.682, 46.480 579.933, 45.357 570.385 C 44.453 562.689, 42.626 560.996, 35.250 561.015 C 32.087 561.024, 29.005 561.361, 28.400 561.765 M 31.798 563.712 C 25.483 564.674, 28.078 570.923, 36.482 574.991 C 42.930 578.113, 43.334 577.863, 42.544 571.250 C 41.613 563.457, 40.159 562.437, 31.798 563.712 M 132.500 904.890 C 129.750 905.903, 125.925 907.430, 124 908.284 L 120.500 909.837 127.564 909.918 C 138.737 910.047, 164 906.210, 164 904.384 C 164 904.097, 159.387 904.006, 153.750 904.181 C 148.113 904.356, 142.150 904.173, 140.500 903.774 C 138.492 903.288, 135.847 903.657, 132.500 904.890" stroke="none" fill="#111111" fill-rule="evenodd"/>
</svg>