<svg xmlns="http://www.w3.org/2000/svg" width="1500" height="1500" viewBox="0 0 1500 1500" version="1.1">
	<path d="M 1231.500 59.099 C 1219.652 64.336, 1218.361 65.865, 1217.486 75.701 C 1217.104 79.991, 1216.163 86.567, 1215.396 90.315 C 1214.628 94.064, 1214 99.713, 1214 102.868 C 1214 107.532, 1213.239 110.179, 1209.934 117.013 C 1204.451 128.351, 1203.552 133.491, 1205.665 141.419 L 1207.318 147.625 1204.632 153.492 C 1199.536 164.624, 1198.494 181.529, 1201.997 196.269 C 1203.271 201.632, 1204.087 206.246, 1203.811 206.523 C 1203.534 206.800, 1200.750 205.895, 1197.625 204.513 C 1191.203 201.673, 1189.776 201.502, 1186.684 203.199 C 1185.483 203.859, 1183.553 204.285, 1182.396 204.147 C 1180.068 203.868, 1176.855 210.065, 1175.562 217.326 C 1175.005 220.454, 1174.259 221.412, 1171.473 222.576 C 1166.165 224.794, 1163.996 224.341, 1155.974 219.344 C 1145.378 212.742, 1141.204 211.047, 1135.484 211.022 C 1128.628 210.992, 1124.598 213.388, 1117.698 221.597 C 1114.507 225.394, 1109.832 229.701, 1107.308 231.168 C 1101.621 234.475, 1101.109 235.296, 1101.154 241.037 C 1101.173 243.573, 1100.244 248.708, 1099.089 252.448 C 1097.933 256.188, 1096.713 261.780, 1096.377 264.874 C 1096.040 267.968, 1094.693 272.380, 1093.383 274.678 C 1090.770 279.259, 1090.333 282, 1092.214 282 C 1092.963 282, 1092.757 282.672, 1091.678 283.750 C 1090.210 285.218, 1088.025 285.501, 1078.109 285.508 C 1069.170 285.514, 1065.827 285.878, 1064.394 287.003 C 1050.558 297.870, 1049.486 299.852, 1050.246 313.181 C 1050.987 326.177, 1047.889 329.360, 1038.372 325.381 C 1036.242 324.491, 1032.038 323.120, 1029.028 322.336 C 1026.018 321.552, 1021.101 319.580, 1018.100 317.955 C 1011.374 314.311, 1012.003 314.283, 1006.133 318.500 C 1000.324 322.673, 999.909 322.701, 991.404 319.500 C 987.751 318.125, 984.452 317, 984.074 317 C 983.695 317, 981.238 319.925, 978.613 323.500 C 975.988 327.075, 973.523 330, 973.135 330 C 972.747 330, 968.621 328.447, 963.965 326.549 C 946.742 319.527, 931.512 315.693, 920.443 315.592 L 910.386 315.500 905.566 319.737 C 902.916 322.068, 897.991 325.290, 894.624 326.897 C 888.316 329.907, 880.705 336.860, 879.573 340.647 C 878.642 343.760, 881.422 355.926, 884.413 361.829 C 886.557 366.059, 887.097 368.852, 887.653 378.588 C 888.240 388.865, 888.546 390.330, 890.200 390.763 C 892.455 391.352, 894.191 394.556, 896.379 402.170 C 897.688 406.722, 898.845 408.491, 902.255 411.150 C 904.590 412.971, 907.691 415.705, 909.147 417.226 C 910.603 418.747, 914.732 421.309, 918.321 422.920 C 921.911 424.531, 925.279 426.670, 925.805 427.674 C 926.743 429.467, 930 442.878, 930 444.951 C 930 445.532, 926.440 449.510, 922.090 453.792 C 915.129 460.641, 913.981 462.291, 912.524 467.538 C 908.932 480.470, 907.015 483.629, 900.407 487.502 C 890.053 493.570, 885.843 493.052, 878.055 484.752 C 869.962 476.128, 868.999 475.771, 857.284 477.060 C 851.903 477.651, 844.153 479.005, 840.062 480.068 C 829.222 482.883, 815.816 482.675, 803.597 479.500 C 798.305 478.125, 791.796 477, 789.132 477 C 784.530 477, 784.243 476.839, 783.361 473.762 C 781.922 468.745, 779.050 468.267, 765.797 470.840 C 752.082 473.502, 749.256 473.526, 735.784 471.097 C 723.079 468.805, 722.419 468.480, 716.541 461.600 C 712.731 457.140, 711.044 455.970, 707.037 455.009 C 701.080 453.580, 699.426 451.863, 698.038 445.667 C 696.655 439.499, 692.215 430.729, 687.295 424.448 C 685.163 421.727, 682.882 417.671, 682.225 415.435 C 679.335 405.599, 665.677 386.498, 659.407 383.523 C 652.380 380.188, 649.949 381.628, 637.697 396.382 C 635.496 399.033, 631.073 402.520, 627.197 404.662 C 615.692 411.020, 608.702 416.089, 602.886 422.288 L 597.273 428.273 595.136 426.136 C 592.510 423.510, 587.883 423.367, 585.643 425.842 C 584.726 426.856, 583.075 430.343, 581.975 433.592 C 580.875 436.842, 578.724 441.679, 577.195 444.343 L 574.415 449.185 576.780 456.237 C 579.757 465.112, 579.524 465.890, 571.171 475.001 C 567.388 479.126, 563.982 483.481, 563.602 484.677 C 562.616 487.787, 565.102 492.861, 569.842 497.413 C 574.782 502.156, 574.554 502.688, 567.234 503.483 C 564.080 503.825, 560.507 504.310, 559.293 504.561 C 557.166 505, 552.377 511.580, 544.418 525 C 542.623 528.025, 539.133 532.856, 536.660 535.735 C 531.533 541.706, 529.545 546.653, 530.510 551.044 C 530.939 552.998, 530.699 554.659, 529.838 555.700 C 527.783 558.185, 518.901 561.979, 515.116 561.990 C 513.197 561.996, 507.625 563.945, 502.248 566.492 C 491.826 571.429, 492.528 570.294, 494.665 578.756 C 495.450 581.860, 493.897 583.392, 486.422 586.890 C 478.420 590.634, 477.565 592.425, 479.206 601.994 C 480.558 609.882, 479.397 612.386, 473.896 613.443 C 472.303 613.749, 469.654 614.260, 468.008 614.578 C 465.683 615.027, 464.503 616.196, 462.710 619.828 C 459.871 625.580, 455.585 627.996, 448.218 627.998 C 445.313 627.999, 441.293 628.686, 439.286 629.525 C 435.658 631.041, 435.614 631.030, 432.068 627.643 C 423.431 619.396, 416.722 620.401, 404.854 631.720 C 396.740 639.459, 395.179 642.464, 397.773 645.352 C 400.630 648.533, 401.137 650.777, 399.974 655.097 C 398.690 659.863, 396.204 660.719, 388.268 659.125 C 380.471 657.559, 380.434 657.567, 376.774 661.678 C 370.378 668.863, 369.868 669.268, 368.700 668.100 C 368.095 667.495, 366.276 667, 364.657 667 C 361.142 667, 352 675.481, 352 678.742 C 352 682.806, 345.221 685.175, 339.653 683.058 C 337.574 682.268, 336.679 682.590, 334.097 685.058 C 330.695 688.309, 327.924 688.781, 325.643 686.500 C 323.485 684.342, 322.751 684.559, 317.482 688.913 C 312.812 692.773, 306.865 695, 301.232 695 C 299.647 695, 293.658 696.380, 287.925 698.068 C 272.676 702.555, 271.502 704.782, 277.415 718 C 279.261 722.125, 280.564 725.848, 280.312 726.272 C 280.060 726.697, 277.122 728.424, 273.783 730.110 C 266.170 733.953, 257.818 735.051, 255.076 732.569 C 252.860 730.563, 251.693 731.022, 240.208 738.410 C 236.518 740.784, 231.452 743.622, 228.949 744.718 C 220.469 748.432, 215.077 754.469, 213.515 762 C 211.620 771.135, 205.760 776.674, 192.316 782.032 C 188.267 783.646, 184.221 786.501, 179 791.425 C 174.875 795.316, 169.067 800.525, 166.093 803 C 159.304 808.650, 135 835.012, 135 836.726 C 135 837.427, 135.814 838, 136.809 838 C 137.804 838, 139.491 838.643, 140.559 839.430 C 142.401 840.787, 142.101 841.228, 134.682 848.076 C 130.382 852.045, 124.703 858.495, 122.062 862.408 C 119.422 866.321, 116.135 870.125, 114.758 870.862 C 110.536 873.121, 108.294 878.619, 106.599 890.866 C 105.734 897.118, 105.272 902.631, 105.572 903.116 C 106.780 905.071, 108.112 903.710, 110.829 897.750 C 113.738 891.366, 123.532 877.665, 128.671 872.789 L 131.528 870.078 137.100 877.289 C 143.787 885.943, 144.884 887.908, 146.368 893.896 C 147.688 899.225, 149.187 899.548, 160.739 896.987 C 166.923 895.617, 167.002 895.627, 169.739 898.173 C 171.257 899.586, 173.755 901.038, 175.290 901.400 C 177.920 902.020, 178.035 902.271, 177.295 905.779 C 175.994 911.952, 176.623 916.355, 179.387 920.429 C 180.824 922.547, 182 925.466, 182 926.917 C 182 930.404, 184.353 933.621, 187.477 934.405 C 189.960 935.028, 190 935.193, 190 944.864 C 190 959.607, 193.022 961.253, 204.882 952.973 C 215.214 945.759, 215.585 945.266, 218.769 934.500 C 220.846 927.475, 222.226 924.401, 223.406 924.168 C 224.330 923.986, 229.454 926.752, 234.793 930.315 C 240.132 933.878, 246.750 937.929, 249.500 939.318 C 252.250 940.707, 258.089 943.904, 262.476 946.422 C 269.088 950.217, 271.323 951, 275.548 951 C 280.571 951, 280.729 951.095, 286.448 957.569 C 297.643 970.241, 303.345 972.023, 310.436 965.063 C 312.713 962.828, 314.841 961, 315.165 961 C 316.671 961, 320.483 972.175, 320.964 978 C 321.696 986.881, 322.880 986.860, 336.519 977.723 C 348.875 969.446, 354.235 967, 360.020 967 C 365.224 967, 365.005 967.711, 358.325 972.500 C 348.288 979.696, 337 993.656, 337 998.873 C 337 1004.213, 347.947 1018, 352.187 1018 C 355.892 1018, 355.779 1019.640, 351.663 1025.638 C 348.558 1030.161, 348.358 1030.938, 348.785 1036.780 C 349.138 1041.598, 349.682 1043.295, 351.122 1044.065 C 355.566 1046.444, 351.535 1053.155, 343.736 1056.362 C 339.101 1058.268, 338.393 1059.964, 339.656 1066.132 C 340.816 1071.794, 340.859 1071.707, 334.827 1075.811 C 328.105 1080.384, 324.191 1085.542, 323.390 1090.884 C 322.673 1095.669, 319.339 1100.976, 310.292 1111.734 C 303.991 1119.227, 301.656 1123.766, 296.007 1139.500 C 293.637 1146.100, 291.144 1152.175, 290.467 1153 C 286.532 1157.797, 288.475 1163.036, 295.901 1167.649 C 306.821 1174.434, 312.636 1181.795, 311.569 1187.483 C 311.146 1189.740, 311.419 1191.103, 312.468 1191.973 C 314.401 1193.578, 339.274 1195.063, 345.160 1193.926 C 352.211 1192.563, 362.288 1192.882, 367.572 1194.635 C 372.360 1196.223, 379.002 1200.388, 378.999 1201.801 C 378.998 1202.185, 368.729 1202.562, 356.180 1202.637 C 335.083 1202.764, 333.050 1202.934, 329.221 1204.887 C 323.852 1207.626, 321.589 1207.551, 317.589 1204.500 C 311.630 1199.955, 307.008 1201.618, 288.409 1215 C 275.767 1224.096, 274.017 1224.965, 268.323 1224.984 C 261.646 1225.005, 259.557 1227.394, 258.653 1236.043 C 257.729 1244.883, 253.193 1253.500, 246.830 1258.500 C 243.038 1261.479, 240.618 1264.619, 237.343 1270.805 C 231.126 1282.547, 229.779 1288.271, 231.494 1295.651 C 232.599 1300.404, 232.610 1301.989, 231.553 1304.473 C 228.709 1311.156, 211.713 1330.335, 202.728 1337 C 196.803 1341.395, 196.930 1343.243, 203.500 1348.203 C 212.471 1354.977, 221.716 1356.716, 229 1353 C 234.691 1350.097, 235.515 1350.322, 246.359 1357.748 L 256.217 1364.500 263.859 1364.481 C 269.858 1364.466, 273.612 1363.744, 281.330 1361.122 C 292.844 1357.210, 293.825 1357.291, 306.295 1363.204 C 313.563 1366.650, 315.039 1367.733, 314.795 1369.437 C 314.515 1371.398, 313.711 1371.525, 298.500 1372 C 281.684 1372.525, 278.685 1373.267, 277.435 1377.206 C 276.863 1379.006, 277.601 1380.166, 281.424 1383.483 C 286.914 1388.246, 286.602 1388.987, 279.083 1389.037 C 271.402 1389.087, 260.189 1391.383, 258.275 1393.297 C 256.830 1394.741, 256.838 1395.105, 258.369 1397.440 C 259.291 1398.848, 260.413 1400, 260.861 1400 C 261.309 1400, 263.661 1402.064, 266.088 1404.586 L 270.500 1409.172 286.630 1408.545 C 295.501 1408.200, 305.176 1407.529, 308.130 1407.054 C 312.728 1406.315, 314.039 1406.491, 317.250 1408.279 C 322.706 1411.319, 321.960 1412.522, 312.750 1415.534 C 303.293 1418.627, 299.960 1421.042, 301.908 1423.389 C 303.550 1425.368, 314.051 1428.722, 321.218 1429.557 L 326.937 1430.223 333.360 1425.111 C 342.060 1418.188, 344.424 1418.393, 349.926 1426.546 C 351.617 1429.051, 353 1431.198, 353 1431.317 C 353 1431.436, 351.190 1431.581, 348.978 1431.639 C 341.453 1431.837, 336.218 1434.636, 333.558 1439.885 C 332.250 1442.467, 329.001 1446.466, 326.339 1448.771 C 323.678 1451.076, 320.488 1453.854, 319.250 1454.945 C 316.306 1457.540, 316.406 1459.565, 319.579 1461.644 C 323.721 1464.358, 327.399 1463.776, 331.919 1459.692 C 334.136 1457.689, 337.086 1455.814, 338.475 1455.525 C 339.864 1455.236, 342.105 1454.771, 343.455 1454.492 C 344.805 1454.213, 349.811 1450.838, 354.580 1446.992 C 364.133 1439.287, 365.817 1438.832, 371.215 1442.500 C 376.369 1446.002, 379.792 1445.726, 384.846 1441.400 C 391.113 1436.036, 391.769 1434.404, 394.562 1417.250 C 394.853 1415.463, 395.572 1414, 396.159 1414 C 397.639 1414, 417.007 1401.226, 416.972 1400.273 C 416.925 1398.961, 411.403 1392.105, 408.650 1389.939 C 407.214 1388.810, 403.748 1387.524, 400.948 1387.081 C 395.258 1386.181, 387.946 1380.152, 386.090 1374.829 C 384.803 1371.137, 385.479 1371.198, 394.499 1375.596 C 400.560 1378.552, 402.821 1379.150, 407.187 1378.949 C 424.321 1378.163, 424.684 1378.440, 431.459 1397.500 C 434.001 1404.650, 436.591 1411.794, 437.214 1413.376 C 437.837 1414.959, 440.472 1417.780, 443.069 1419.645 C 445.667 1421.511, 448.986 1424.604, 450.447 1426.519 C 453.699 1430.783, 457.006 1431.079, 459.927 1427.365 C 462.509 1424.083, 462.518 1422.387, 459.986 1415.964 C 456.360 1406.765, 459.372 1406.832, 464.028 1416.055 C 466.095 1420.151, 467.748 1422.150, 469.411 1422.567 C 473.614 1423.622, 475.698 1426.989, 476.447 1433.936 C 477.585 1444.486, 482.582 1450.598, 490.991 1451.726 C 494.794 1452.236, 495.320 1451.987, 499.120 1447.885 C 501.355 1445.473, 504.954 1440.476, 507.117 1436.781 C 512.705 1427.239, 515.754 1425.214, 526.620 1423.831 C 532.320 1423.106, 536.354 1422.038, 537.885 1420.850 C 541.685 1417.902, 545.071 1418.550, 551.355 1423.430 C 554.492 1425.866, 560.555 1429.876, 564.829 1432.340 C 569.102 1434.805, 575.051 1438.815, 578.049 1441.251 C 590.913 1451.703, 593.183 1451.052, 611.750 1431.580 C 617.387 1425.668, 621.996 1420.082, 621.991 1419.166 C 621.986 1418.250, 619.756 1414.631, 617.034 1411.125 L 612.086 1404.751 622.293 1397.305 C 638.937 1385.164, 639.783 1384.039, 641.457 1371.836 C 642.279 1365.847, 646.892 1360.500, 659.292 1351.168 C 671.007 1342.351, 672.630 1340.571, 679.687 1328.812 C 683.584 1322.316, 686.866 1318.137, 689.647 1316.130 C 692.753 1313.888, 694.210 1311.885, 695.452 1308.145 C 697.529 1301.893, 699.127 1300.557, 704.181 1300.856 C 706.390 1300.986, 711.563 1300.344, 715.678 1299.428 C 724.777 1297.404, 728.808 1297.950, 734.238 1301.944 C 739.276 1305.648, 740.751 1305.714, 746.788 1302.500 C 754.101 1298.607, 759.406 1299.481, 765 1305.500 C 771.785 1312.801, 775.424 1312.122, 783.453 1302.059 C 786.551 1298.176, 789.629 1294.999, 790.293 1294.998 C 790.957 1294.996, 797.575 1294.525, 805 1293.951 C 823.728 1292.501, 832.560 1293.395, 835.929 1297.082 C 841.625 1303.314, 848.181 1304.283, 857.922 1300.331 C 863.729 1297.974, 866.435 1297.575, 881 1296.923 C 900.078 1296.070, 915.538 1293.797, 920.813 1291.071 C 926.519 1288.122, 932.172 1281.524, 939.436 1269.337 C 947.511 1255.790, 947.808 1254.832, 949.007 1238.500 C 949.532 1231.350, 950.491 1223.225, 951.138 1220.445 C 952.656 1213.926, 951.885 1211.144, 946.995 1205.494 C 944.798 1202.955, 943 1199.881, 943 1198.662 C 943 1193.353, 936.942 1189, 929.553 1189 C 925.154 1189, 924.627 1188.647, 913.254 1178.086 C 906.789 1172.083, 896.352 1163.265, 890.061 1158.490 C 868.880 1142.415, 857.740 1131.244, 841.115 1109.408 C 833.573 1099.502, 833 1098.410, 833 1093.956 C 833 1084.989, 830.797 1083.867, 823.491 1089.114 C 816.984 1093.787, 811.611 1094.069, 804.674 1090.100 C 801.654 1088.372, 796.779 1086.101, 793.842 1085.053 C 790.904 1084.006, 786.025 1082.230, 783 1081.107 C 779.921 1079.964, 774.997 1079.051, 771.815 1079.033 C 762.104 1078.977, 757.711 1076.251, 753.269 1067.522 C 747.599 1056.382, 745.265 1044.628, 748.250 1042.249 C 748.938 1041.701, 751.723 1040.930, 754.440 1040.536 C 761.185 1039.559, 765.542 1035.236, 766.549 1028.521 C 767.744 1020.550, 764.352 1017.843, 758.908 1022.424 C 755.245 1025.506, 751.688 1026.135, 754.235 1023.250 C 755.085 1022.288, 757.634 1017.788, 759.901 1013.250 C 762.168 1008.712, 764.436 1005, 764.941 1005 C 765.447 1005, 768.166 1007.138, 770.984 1009.750 L 776.108 1014.500 777.176 1024 C 777.763 1029.225, 778.876 1035.862, 779.649 1038.750 C 780.996 1043.778, 781.199 1044, 784.457 1044 C 787.936 1044, 791 1041.905, 791 1039.525 C 791 1038.792, 789.173 1034.384, 786.939 1029.729 C 783.220 1021.979, 782.705 1019.877, 780.829 1004.787 L 778.779 988.308 782.798 980.904 C 785.008 976.832, 787.618 970.902, 788.598 967.727 L 790.380 961.954 785.440 956.928 C 782.723 954.164, 778.407 950.556, 775.848 948.910 C 768.826 944.392, 768.817 943.258, 775.646 923.500 C 780.043 910.778, 780.684 909.861, 788.236 905.471 C 791.681 903.468, 797.071 899.826, 800.213 897.377 L 805.927 892.925 806.213 902.701 C 806.597 915.797, 807.660 915.958, 816.871 904.314 L 823.844 895.500 835.356 891.635 C 841.912 889.434, 847.712 886.851, 848.829 885.635 C 851.924 882.266, 854.992 876.692, 854.996 874.432 C 854.998 873.294, 855.684 870.059, 856.521 867.242 C 857.939 862.466, 858.528 861.826, 865.271 857.744 C 871.016 854.265, 873.020 852.387, 875.035 848.594 C 878.720 841.654, 879.848 841.354, 886.155 845.638 C 899.480 854.688, 907.266 856.045, 918.922 851.350 C 923.191 849.630, 928.132 848.533, 933 848.226 C 937.125 847.965, 941.098 847.273, 941.828 846.689 C 943.510 845.342, 948 836.547, 948 834.598 C 948 833.791, 948.429 832.001, 948.954 830.622 C 949.816 828.355, 950.217 828.202, 953.113 829.032 C 958.847 830.677, 969.106 827.608, 974.725 822.567 C 977.351 820.211, 981.370 817.332, 983.655 816.169 C 985.941 815.007, 988.786 812.806, 989.978 811.278 C 991.169 809.750, 994.474 807.375, 997.322 806 C 1005.631 801.988, 1006.452 796.714, 1001.459 779.429 C 1000.234 775.191, 1011.083 770.010, 1026.341 767.545 C 1041.142 765.154, 1049.568 761.754, 1056 755.578 C 1064.662 747.260, 1076.021 737.739, 1082.669 733.225 C 1092.724 726.397, 1098.766 716.525, 1103.321 699.481 C 1104.647 694.521, 1106.924 688.110, 1108.381 685.235 C 1109.877 682.284, 1111.301 677.409, 1111.654 674.040 L 1112.277 668.073 1114.774 670.036 C 1117.857 672.462, 1123.684 672.594, 1127.027 670.314 C 1128.387 669.387, 1133.325 665.032, 1138 660.636 C 1148.610 650.661, 1154.248 647, 1158.999 647 C 1164.784 647, 1172.391 642.586, 1176.526 636.831 C 1179.853 632.200, 1180.400 631.841, 1183.322 632.379 C 1198.166 635.108, 1203.020 633.567, 1214.750 622.401 L 1222 615.499 1221.980 607.500 C 1221.951 595.567, 1220.419 587.119, 1216.933 579.671 C 1212.809 570.858, 1212.341 566.529, 1214.514 557.301 C 1216.124 550.467, 1216.191 548.069, 1215.179 533.599 C 1213.850 514.601, 1214.260 512.109, 1220.430 501.672 L 1224.904 494.105 1222.870 488.080 C 1220.159 480.053, 1217.040 475.620, 1206.687 465.078 C 1196.422 454.626, 1196.471 454.865, 1201.573 439.946 C 1204.935 430.115, 1205.120 428.915, 1204.716 419.561 L 1204.286 409.622 1213.733 391.870 C 1223.066 374.333, 1223.212 374.130, 1225.785 375.109 C 1229.243 376.423, 1233.092 373.620, 1234.275 368.925 C 1234.750 367.041, 1235.814 363.137, 1236.640 360.250 L 1238.142 355 1243.667 355 C 1250.926 355, 1254.372 352.888, 1256.973 346.842 C 1258.943 342.261, 1265.006 322.073, 1266.475 315.200 C 1266.863 313.386, 1269.557 309.111, 1272.461 305.700 C 1277.086 300.270, 1278.482 299.287, 1283.702 297.787 C 1289.507 296.119, 1289.897 295.780, 1298.661 284.787 C 1303.610 278.579, 1309.741 270.625, 1312.285 267.111 C 1315.299 262.948, 1318.609 259.752, 1321.784 257.939 C 1328.690 253.994, 1333 248.799, 1333 244.420 C 1333 236.488, 1341.247 232.253, 1356.739 232.228 L 1367.977 232.210 1370.989 235.640 C 1372.645 237.526, 1374 239.659, 1374 240.380 C 1374 241.100, 1374.865 242.473, 1375.922 243.429 C 1378.709 245.952, 1383.996 243.232, 1387.973 237.228 C 1391.614 231.730, 1391.616 231.690, 1388.618 227.683 C 1384.569 222.272, 1383.150 218.608, 1381.399 209.036 C 1380.140 202.156, 1378.907 198.617, 1376.561 195.151 C 1374.829 192.593, 1371.676 186.225, 1369.554 181 C 1360.508 158.726, 1354.504 151.366, 1349.771 156.750 C 1347.453 159.387, 1344 166.658, 1344 168.901 C 1344 171.955, 1342.776 172.084, 1337.413 169.600 C 1332.789 167.457, 1332.340 166.916, 1330.625 161.403 C 1326.179 147.107, 1317.279 134.606, 1307.700 129.200 C 1302.443 126.233, 1298.727 121.870, 1295.383 114.739 C 1293.685 111.119, 1293.699 110.360, 1295.745 94.403 C 1298.439 73.399, 1298.061 72.284, 1290.050 77.586 C 1287.901 79.008, 1284.310 80.417, 1282.070 80.717 L 1277.996 81.264 1278.129 71.747 C 1278.313 58.464, 1277.175 57.487, 1268.093 63.133 C 1260.520 67.841, 1255.301 67.016, 1248.911 60.102 C 1243.298 54.029, 1243.009 54.012, 1231.500 59.099 M 1232.166 61.948 C 1221.022 67.018, 1221.039 66.996, 1219.959 78.410 C 1219.453 83.755, 1218.768 88.566, 1218.436 89.103 C 1218.105 89.640, 1217.503 94.698, 1217.100 100.344 C 1216.442 109.566, 1215.949 111.467, 1212.246 119.054 C 1207.131 129.536, 1206.369 134.020, 1208.470 141.250 C 1210.189 147.162, 1210.265 146.713, 1205.457 159 C 1204.704 160.925, 1204.068 164.603, 1204.044 167.174 C 1204.020 169.744, 1203.486 174.074, 1202.858 176.794 C 1201.854 181.145, 1202.055 183.282, 1204.523 194.514 C 1207.164 206.536, 1207.227 207.361, 1205.596 208.554 C 1203.697 209.942, 1200.507 209.348, 1195.241 206.625 C 1191.105 204.486, 1189.425 204.575, 1186.933 207.067 C 1185.344 208.656, 1184.551 208.872, 1183.503 208.002 C 1181.747 206.545, 1180.422 208.893, 1178.893 216.173 C 1177.449 223.048, 1175.930 224.648, 1169.472 226.094 L 1164.170 227.280 1153.335 221.123 C 1134.657 210.508, 1130.341 210.816, 1119.734 223.521 C 1116.415 227.496, 1111.776 231.725, 1108.954 233.347 C 1104.079 236.148, 1104 236.271, 1104 241.081 C 1104 243.770, 1102.875 249.852, 1101.500 254.597 C 1100.125 259.342, 1099 264.766, 1099 266.652 C 1099 268.537, 1098.076 271.890, 1096.947 274.103 L 1094.895 278.127 1097.055 276.971 C 1101.347 274.673, 1101.182 277.565, 1096.745 282.398 C 1091.543 288.064, 1087.722 289.213, 1076.947 288.350 C 1068.065 287.639, 1066.178 288.393, 1058.184 295.851 L 1052.868 300.810 1053.137 312.388 C 1053.406 323.949, 1053.402 323.971, 1050.516 326.983 C 1047.200 330.444, 1043.879 330.830, 1038.218 328.412 C 1036.173 327.538, 1032.134 326.193, 1029.243 325.423 C 1026.352 324.652, 1021.281 322.656, 1017.974 320.987 L 1011.961 317.952 1006.217 321.852 L 1000.474 325.753 992.530 322.949 C 985.026 320.301, 984.518 320.243, 983.348 321.914 C 982.666 322.887, 980.280 325.997, 978.045 328.824 L 973.980 333.966 968.240 331.380 C 952.206 324.155, 929.784 318, 919.499 318 C 912.445 318, 912.066 318.127, 907.359 322.071 C 904.686 324.311, 899.549 327.648, 895.943 329.487 C 889.093 332.980, 881.983 339.757, 882.024 342.753 C 882.076 346.439, 884.150 353.759, 886.910 360 C 889.249 365.289, 889.891 368.429, 890.357 376.852 C 890.861 385.981, 891.202 387.458, 893.242 389.352 C 895.498 391.447, 896.002 392.490, 899.445 402.172 C 900.531 405.228, 902.383 407.814, 904.803 409.652 C 906.836 411.197, 909.898 413.853, 911.606 415.554 C 913.315 417.255, 917.097 419.513, 920.010 420.573 C 926.797 423.042, 928.712 425.738, 931.023 436.084 C 933.425 446.833, 933.157 447.680, 925.104 454.838 C 918.201 460.972, 916.322 464.108, 913.583 474.064 C 910.464 485.401, 900.003 494.008, 889.360 493.993 C 883.575 493.986, 881.238 492.588, 873.777 484.675 L 868.285 478.851 860.892 479.552 C 851.225 480.470, 845.915 481.386, 838.019 483.499 C 829.578 485.759, 812.740 485.120, 802 482.133 C 797.875 480.986, 791.462 480.036, 787.750 480.024 C 781.284 480.001, 781 479.898, 781 477.582 C 781 471.178, 780.092 471.004, 763.263 474.172 C 752.717 476.158, 750.945 476.236, 742.613 475.086 C 724.543 472.593, 721.504 471.439, 715.723 464.871 C 711.533 460.111, 709.594 458.733, 705.351 457.500 C 699.120 455.688, 696.551 452.797, 695.080 445.938 C 693.679 439.404, 690.040 432.354, 684.656 425.744 C 682.256 422.798, 679.999 418.806, 679.634 416.864 C 678.416 410.370, 664.902 390.131, 659.642 386.923 C 653.458 383.153, 651.413 384.337, 639.331 398.684 C 636.760 401.738, 632.735 404.911, 628.831 406.963 C 619.289 411.979, 610.133 418.689, 603.978 425.178 C 598.176 431.295, 594.653 432.606, 593.710 429 C 592.684 425.074, 588.087 426.410, 586.176 431.189 C 585.254 433.494, 582.899 438.655, 580.943 442.659 C 578.685 447.282, 577.680 450.463, 578.189 451.374 C 579.951 454.522, 582.007 464.807, 581.271 466.792 C 580.847 467.936, 577.193 472.517, 573.150 476.971 C 564.476 486.530, 564.424 487.396, 572.046 495.456 C 574.771 498.336, 577 501.202, 577 501.824 C 577 503.987, 572.362 505.969, 565.517 506.732 C 557.781 507.594, 559.332 506.029, 548.904 523.500 C 546.606 527.350, 542.610 532.975, 540.023 536 C 533.583 543.533, 532.667 545.513, 533.426 550.260 C 534.563 557.371, 528.125 562.833, 516.235 564.845 C 508.594 566.138, 496.406 571.856, 496.719 574 C 496.839 574.825, 497.235 576.770, 497.599 578.322 C 498.653 582.816, 496.408 585.601, 489.301 588.622 C 481.254 592.042, 480.624 593.175, 482.088 601.584 C 483.799 611.407, 481.264 615.206, 471.935 616.798 C 468.171 617.441, 467.276 618.117, 465.025 622.018 C 461.705 627.771, 455.695 631, 448.308 631 C 445.411 631, 441.222 631.728, 438.999 632.617 L 434.958 634.234 430.022 629.617 C 422.349 622.440, 415.920 623.986, 405.033 635.624 L 398.952 642.124 400.976 644.697 C 403.251 647.588, 403.704 654.361, 401.890 658.343 C 399.919 662.668, 396.853 663.554, 388.701 662.153 L 381.500 660.915 376.336 666.457 C 370.978 672.207, 369.098 673.028, 367.022 670.526 C 364.672 667.695, 355.955 674.541, 354.602 680.281 C 353.568 684.665, 348.581 687.233, 342.397 686.567 C 338.224 686.117, 336.985 686.359, 335.596 687.894 C 333.208 690.533, 328.434 691.276, 325.063 689.533 C 322.438 688.175, 322.122 688.245, 319.884 690.679 C 316.489 694.372, 310.617 696.734, 301.985 697.878 C 297.868 698.424, 290.675 700.138, 286 701.686 C 275.714 705.091, 275.335 706.033, 279.985 716.615 C 284.159 726.113, 283.844 727.616, 276.803 731.787 C 269.266 736.251, 259.076 738.154, 255.057 735.847 C 252.360 734.299, 252.110 734.372, 245.394 738.677 C 241.602 741.107, 235.125 744.831, 231 746.951 C 221.389 751.893, 218.276 755.216, 216.350 762.590 C 213.452 773.688, 210.423 776.680, 194.677 783.996 C 190.180 786.085, 185.150 789.235, 183.500 790.995 C 181.850 792.755, 176.270 797.864, 171.100 802.348 C 159.285 812.595, 138.330 835.290, 140.166 835.852 C 142.433 836.547, 145 839.230, 144.999 840.905 C 144.999 841.782, 141.382 845.808, 136.962 849.850 C 132.542 853.893, 126.679 860.531, 123.932 864.600 C 121.186 868.670, 118.564 872, 118.106 872 C 117.648 872, 116.087 873.185, 114.639 874.634 C 111.902 877.371, 110.617 881.124, 109.611 889.319 L 109.019 894.139 114.244 886.319 C 120.948 876.288, 136.014 860.663, 138.515 861.147 C 141.530 861.732, 141.356 863.865, 138.041 866.962 L 134.904 869.892 141.381 878.381 C 146.343 884.884, 148.018 887.938, 148.543 891.435 C 149.322 896.633, 149.653 896.740, 158 894.500 C 165.829 892.399, 167.797 892.615, 171.653 896 C 173.532 897.650, 175.899 899, 176.912 899 C 180.333 899, 181.038 901.140, 179.805 907.774 C 178.706 913.685, 178.761 914.048, 181.332 917.758 C 182.799 919.875, 184.003 922.033, 184.006 922.554 C 184.029 926.588, 186.312 930.887, 189.028 932.012 C 192.619 933.499, 193.450 936.139, 192.754 943.846 C 191.703 955.469, 193.813 957.015, 202.576 951.044 C 212.647 944.182, 212.972 943.755, 216.109 933.263 C 220.390 918.944, 221.969 918.323, 233.691 926.344 C 237.986 929.283, 246.450 934.392, 252.500 937.696 C 258.550 941.001, 265.075 944.670, 267 945.849 C 269.484 947.370, 272.134 947.994, 276.128 947.996 L 281.756 948 287.595 954.651 C 293.680 961.582, 300.304 967, 302.693 967 C 303.459 967, 306.251 964.975, 308.897 962.500 C 313.854 957.863, 315.993 957.082, 317.795 959.252 C 319.948 961.847, 323.376 971.699, 323.927 976.879 L 324.500 982.258 335.884 974.628 C 350.355 964.929, 358.924 962.186, 365.453 965.161 C 369.311 966.918, 368.616 968.353, 361.250 973.833 C 349.998 982.205, 339.944 994.071, 340.072 998.827 C 340.114 1000.348, 342.187 1004.301, 344.884 1008 C 349.071 1013.742, 350.082 1014.558, 353.562 1015 C 359.151 1015.710, 359.472 1019.345, 354.574 1026.456 C 351.289 1031.227, 351.046 1032.059, 351.653 1036.487 C 352.017 1039.142, 353.144 1042.144, 354.158 1043.158 C 358.245 1047.245, 354.230 1054.789, 345.989 1058.505 L 341.879 1060.358 342.547 1066.597 C 343.286 1073.491, 343.772 1072.676, 335.011 1079.227 C 329.344 1083.466, 326 1088.386, 326 1092.485 C 326 1095.744, 321.160 1103.529, 314.354 1111.218 C 307.969 1118.432, 304.036 1125.645, 299.086 1139.221 C 296.335 1146.768, 293.325 1154.101, 292.397 1155.517 C 290.069 1159.070, 291.561 1161.522, 298.972 1166.319 C 309.550 1173.165, 315.754 1181.447, 314.609 1187.194 C 314.213 1189.181, 314.522 1190.017, 315.786 1190.380 C 318.814 1191.250, 343.219 1191.344, 352.113 1190.520 C 359.511 1189.835, 361.699 1190.019, 367.613 1191.825 C 377.874 1194.959, 385.116 1201.956, 380.836 1204.601 C 380.196 1204.997, 369.699 1205.220, 357.509 1205.096 C 335.441 1204.873, 335.325 1204.883, 330.524 1207.436 C 324.325 1210.732, 321.510 1210.662, 316.105 1207.076 C 312.559 1204.723, 311.239 1204.339, 309.276 1205.085 C 306.753 1206.044, 291.629 1215.995, 281.963 1223.056 C 277.432 1226.365, 275.341 1227.207, 270.463 1227.686 C 262.768 1228.441, 262.357 1228.845, 261.543 1236.446 C 260.534 1245.865, 255.848 1254.786, 249.166 1260.010 C 244.644 1263.544, 243.069 1265.748, 238.823 1274.483 C 233.548 1285.332, 233.146 1287.543, 234.465 1298.500 C 235.167 1304.335, 235.078 1304.665, 231.211 1310.500 C 226.037 1318.307, 212.925 1332.760, 206.205 1338.063 C 199.966 1342.987, 200.213 1343.703, 209.946 1348.890 C 217.027 1352.665, 223.860 1353.073, 228.500 1350 C 233.238 1346.862, 236.157 1347.478, 244.965 1353.476 C 259.965 1363.690, 262.321 1364.013, 280.501 1358.352 L 292.217 1354.703 297.858 1356.443 C 303.947 1358.321, 316.039 1364.511, 317.235 1366.362 C 318.542 1368.387, 318.045 1371.649, 316.171 1373.345 C 314.635 1374.735, 311.863 1375, 298.862 1375 C 278.501 1375, 277.089 1375.789, 284.928 1382.787 C 292.144 1389.228, 291.598 1390.538, 281.329 1391.430 C 272.092 1392.231, 261.816 1393.989, 260.732 1394.953 C 260.309 1395.329, 261.884 1397.162, 264.232 1399.026 C 266.579 1400.891, 269.135 1403.290, 269.912 1404.358 C 271.249 1406.198, 272.197 1406.263, 287.912 1405.589 C 297.035 1405.198, 306.634 1404.528, 309.242 1404.099 C 315.399 1403.087, 324 1407.397, 324 1411.495 C 324 1414.328, 321.882 1415.616, 311.750 1418.945 C 308.037 1420.165, 305 1421.515, 305 1421.945 C 305 1423.026, 314.404 1425.807, 320.740 1426.599 C 325.904 1427.245, 326.078 1427.179, 332.712 1422.058 C 338.772 1417.380, 339.796 1416.927, 342.972 1417.520 C 347.428 1418.352, 348.088 1418.921, 353.076 1426.229 C 357.853 1433.227, 357.406 1434.500, 350.168 1434.500 C 343.193 1434.500, 337.583 1437.380, 335.482 1442.041 C 333.485 1446.469, 329.107 1451.222, 323.750 1454.777 C 319.328 1457.712, 319.103 1458.708, 322.565 1460.025 C 325.913 1461.297, 325.241 1461.551, 330.450 1457.043 C 333.174 1454.686, 336.533 1452.813, 338.761 1452.410 C 343.956 1451.469, 346.478 1450.043, 354.336 1443.600 C 363.153 1436.370, 364.988 1435.932, 371.557 1439.486 C 377.899 1442.916, 380.429 1442.481, 385.264 1437.130 C 388.693 1433.334, 391 1426.613, 391 1420.419 C 391 1417.054, 393.621 1411, 395.077 1411 C 396.881 1411, 413.001 1400.637, 412.967 1399.500 C 412.872 1396.350, 404.692 1390, 400.728 1390 C 392.992 1390, 381.867 1378.169, 383.172 1371.329 C 383.738 1368.357, 387.378 1368.664, 394.660 1372.298 C 403.494 1376.706, 406.178 1377.298, 411.197 1375.947 C 421.966 1373.047, 427.137 1377.424, 433.438 1394.773 C 440.016 1412.888, 440.990 1414.873, 444.428 1417.172 C 446.118 1418.301, 449.143 1421.040, 451.152 1423.257 C 457.296 1430.041, 460.673 1426.541, 457.226 1416.961 C 452.607 1404.123, 460.134 1402.071, 466.582 1414.410 C 468.227 1417.559, 470.182 1419.996, 471.063 1419.998 C 474.834 1420.003, 478.351 1425.709, 479.141 1433.103 C 480.211 1443.115, 485.055 1448.986, 492.252 1448.996 C 495.049 1449, 501.858 1441.163, 505.718 1433.500 C 509.724 1425.544, 514.448 1422.625, 526.033 1420.945 C 531.182 1420.199, 535.435 1418.990, 536.885 1417.859 C 540.983 1414.664, 545.777 1415.437, 552 1420.295 C 555.025 1422.656, 561.100 1426.755, 565.500 1429.404 C 569.900 1432.052, 576.681 1436.645, 580.569 1439.610 C 591.327 1447.813, 591.686 1447.717, 606.692 1432.602 C 613.461 1425.783, 619 1419.738, 619 1419.168 C 619 1418.597, 616.300 1414.733, 613 1410.581 C 606.196 1402.019, 606.192 1402.010, 609.250 1401.972 C 612.117 1401.937, 632.728 1386.538, 635.578 1382.303 C 636.835 1380.435, 638.010 1376.628, 638.404 1373.149 C 639.401 1364.335, 644.494 1358.272, 660.633 1346.686 C 667.009 1342.109, 671.939 1336.713, 675.536 1330.375 C 681.615 1319.663, 684.318 1315.967, 687.519 1313.989 C 689.732 1312.620, 691.451 1310.386, 692.596 1307.387 C 695.570 1299.601, 697.396 1298, 703.300 1298 C 706.135 1298, 711.886 1297.263, 716.081 1296.361 C 725.200 1294.401, 729.294 1294.981, 734.873 1299.023 C 739.843 1302.624, 739.837 1302.623, 746 1299.500 C 754.244 1295.323, 758.746 1296.169, 766.926 1303.435 C 773.141 1308.954, 773.456 1308.978, 777.629 1304.250 C 779.450 1302.188, 782.640 1298.616, 784.720 1296.314 L 788.500 1292.128 805 1291.116 C 827.674 1289.726, 833.988 1290.504, 838.308 1295.221 C 843.264 1300.632, 847.137 1300.998, 858.551 1297.137 C 866.764 1294.359, 869.122 1293.998, 879.162 1293.980 C 890.555 1293.961, 908.402 1292.046, 915.827 1290.047 C 920.810 1288.705, 929.184 1281.296, 932.682 1275.134 C 934.129 1272.585, 936.947 1267.800, 938.943 1264.500 C 944.624 1255.111, 945.087 1253.448, 946.032 1239.046 C 946.521 1231.596, 947.389 1223.928, 947.960 1222.007 C 949.948 1215.328, 949.317 1212.299, 944.951 1207.563 C 942.380 1204.773, 940.687 1201.849, 940.314 1199.550 C 939.474 1194.369, 936.038 1192, 929.367 1192 L 924.003 1192 911.752 1180.579 C 905.013 1174.298, 894.352 1165.255, 888.061 1160.484 C 881.770 1155.712, 873.943 1149.489, 870.669 1146.654 C 856.529 1134.412, 829.281 1100.839, 830.463 1097.115 C 830.817 1096, 830.812 1093.517, 830.452 1091.597 L 829.797 1088.106 824.869 1091.496 C 816.965 1096.933, 810.476 1097.217, 802.929 1092.454 C 800.965 1091.215, 797.248 1089.484, 794.669 1088.609 C 792.090 1087.733, 787.298 1085.888, 784.020 1084.508 C 779.781 1082.724, 776.237 1082, 771.742 1082 C 759.546 1082, 752.748 1076.072, 747.126 1060.536 C 741.981 1046.317, 743.739 1038, 751.889 1038 C 758.810 1038, 763.989 1032.974, 763.996 1026.250 C 764.001 1022.344, 763.645 1022.280, 759.818 1025.500 C 756.466 1028.320, 751.265 1028.855, 750.351 1026.473 C 750.029 1025.633, 750.918 1023.271, 752.327 1021.223 C 753.736 1019.175, 756.230 1014.497, 757.869 1010.826 C 762.587 1000.258, 766.422 1000.083, 775.403 1010.025 C 777.382 1012.214, 779 1013.803, 779 1013.554 C 779 1013.306, 778.304 1007.793, 777.453 1001.305 C 775.689 987.846, 775.762 987.298, 780.320 979.729 C 782.167 976.661, 784.480 971.602, 785.460 968.487 L 787.242 962.822 782.871 958.331 C 780.467 955.861, 776.577 952.703, 774.227 951.312 C 766.408 946.684, 766.148 942.538, 772.506 923.872 C 777.682 908.679, 777.839 908.460, 787.944 902.333 C 792.100 899.814, 797.629 895.973, 800.231 893.799 C 807.349 887.851, 808.397 888.584, 809 899.931 L 809.500 909.341 815.750 901.253 L 822 893.165 831.750 889.946 C 837.112 888.175, 842.739 886.101, 844.254 885.335 C 847.960 883.464, 851.664 877.495, 852.530 872 C 853.959 862.932, 855.626 860.440, 863.568 855.490 C 869.559 851.756, 871.322 850.060, 872.885 846.528 C 876.309 838.786, 880.408 838.165, 889.108 844.073 C 900.711 851.953, 907.548 852.933, 918.922 848.348 C 923.321 846.575, 927.701 845.622, 932.144 845.473 C 935.798 845.350, 939.292 844.938, 939.908 844.557 C 941.659 843.475, 944.760 836.814, 945.543 832.453 C 946.609 826.519, 948.353 824.982, 952.668 826.174 C 959.120 827.955, 969.168 824.652, 974.500 818.996 C 976.150 817.246, 979.189 815.131, 981.254 814.297 C 983.318 813.463, 986.178 811.367, 987.609 809.640 C 989.040 807.913, 992.526 805.367, 995.355 803.982 C 1002 800.731, 1003.142 797.217, 1000.605 787.828 C 997.391 775.932, 997.338 776.492, 1002.003 773.112 C 1007.604 769.055, 1014.797 766.467, 1024.506 765.016 C 1038.886 762.867, 1047.763 759.400, 1054 753.500 C 1063.076 744.913, 1074.197 735.620, 1080.597 731.274 C 1090.384 724.627, 1096.024 715.532, 1100.325 699.458 C 1101.655 694.486, 1104.012 687.736, 1105.562 684.460 C 1107.334 680.715, 1108.588 676.091, 1108.940 672.002 C 1109.567 664.727, 1111.846 662.963, 1115.460 666.956 C 1119.442 671.356, 1124.606 669.562, 1134 660.516 C 1146.254 648.716, 1151.310 645.230, 1157.246 644.488 C 1164.725 643.554, 1170.154 640.398, 1175.028 634.152 C 1178.991 629.073, 1179.384 628.833, 1182.850 629.376 C 1195.921 631.421, 1197.713 631.359, 1202.185 628.712 C 1208.065 625.231, 1217.968 616.215, 1219.057 613.349 C 1220.740 608.925, 1218.099 589.390, 1214.907 582.639 C 1210.442 573.197, 1209.406 567.124, 1211.091 560.250 C 1212.091 556.169, 1212.500 547.968, 1212.500 532 L 1212.500 509.500 1217.171 501.563 L 1221.842 493.627 1219.402 487.143 C 1216.712 479.995, 1213.375 475.509, 1204.052 466.500 C 1193.630 456.429, 1193.369 455.164, 1198.571 439.946 C 1202.172 429.412, 1203.133 420.434, 1201.470 412.863 C 1200.947 410.482, 1202.256 407.318, 1208.768 395.231 C 1213.132 387.129, 1217.644 378.362, 1218.795 375.750 C 1220.950 370.858, 1222.455 370.103, 1226.130 372.069 C 1228.761 373.478, 1230.358 372.117, 1231.770 367.262 C 1232.372 365.193, 1233.602 360.913, 1234.503 357.750 L 1236.142 352 1242.821 351.968 C 1246.642 351.950, 1250.218 351.391, 1251.177 350.661 C 1253.565 348.846, 1257.398 338.616, 1261.487 323.144 C 1264.894 310.255, 1265.214 309.564, 1270.611 303.417 C 1275.473 297.878, 1276.962 296.834, 1282.009 295.417 C 1287.635 293.839, 1288.090 293.444, 1296.690 282.644 C 1301.571 276.515, 1307.920 268.284, 1310.800 264.354 C 1313.832 260.215, 1317.010 256.963, 1318.351 256.627 C 1319.625 256.307, 1322.767 254.197, 1325.333 251.938 C 1329.341 248.410, 1330 247.297, 1330 244.050 C 1330 239.372, 1332.457 236.094, 1338.713 232.428 C 1343.085 229.866, 1344.344 229.642, 1355.727 229.404 C 1369.666 229.112, 1371.968 230.097, 1376.051 238.101 C 1377.890 241.704, 1378.178 241.876, 1380.561 240.790 C 1381.962 240.152, 1384.177 237.836, 1385.484 235.644 L 1387.861 231.658 1385.111 227.579 C 1381.447 222.146, 1380.300 219.005, 1378.511 209.515 C 1377.526 204.287, 1375.934 199.804, 1373.901 196.534 C 1372.194 193.787, 1369.496 188.265, 1367.905 184.262 C 1360.619 165.919, 1354.527 156.488, 1351.557 158.953 C 1349.850 160.369, 1346 170.128, 1346 173.038 C 1346 175.839, 1343.022 175.545, 1336.123 172.062 C 1330.364 169.155, 1330.275 169.043, 1327.570 161.312 C 1322.773 147.606, 1311.616 132, 1306.614 132 C 1304.094 132, 1296.442 123.602, 1293.520 117.630 L 1290.689 111.845 1292.427 97.672 C 1293.383 89.878, 1294.411 82.256, 1294.711 80.736 L 1295.256 77.972 1289.526 80.986 C 1282.541 84.660, 1276.476 85.074, 1275.482 81.944 C 1275.123 80.813, 1275.146 76.088, 1275.533 71.444 C 1276.338 61.776, 1275.905 61.342, 1269.680 65.571 C 1261.874 70.876, 1253.351 69.693, 1247.311 62.468 C 1242.853 57.134, 1242.754 57.131, 1232.166 61.948 M 240.253 954.364 C 238.189 956.214, 235.014 958.487, 233.199 959.416 C 228.933 961.597, 228.432 963.124, 230.381 967.994 C 231.883 971.748, 231.859 972.284, 229.975 977.065 C 226.963 984.704, 229.174 985.986, 237.783 981.593 C 248.651 976.047, 250.759 973.773, 251.495 966.806 C 252.219 959.954, 251.302 956.302, 248.040 953.040 C 245.317 950.317, 244.639 950.433, 240.253 954.364 M 241.924 956.597 C 240.591 958.026, 237.775 960.079, 235.667 961.160 C 232.715 962.674, 232.009 963.513, 232.594 964.813 C 233.958 967.839, 234.207 975.745, 233.009 977.984 C 232.365 979.187, 232.085 980.418, 232.386 980.719 C 233.012 981.345, 246.575 973.497, 247.525 971.959 C 249.152 969.328, 249.195 960.277, 247.595 957.184 C 245.601 953.327, 245.031 953.269, 241.924 956.597 M 189.657 965.055 C 184.639 969.002, 187.428 973.974, 197.202 978.502 C 203.620 981.475, 205 980.664, 205 973.920 C 205 969.280, 204.828 968.986, 200.750 966.646 C 194.277 962.933, 192.652 962.699, 189.657 965.055 M 191.203 967.197 C 189.063 969.337, 189.907 970.985, 194.696 974.022 C 200.583 977.755, 201.663 977.749, 202.217 973.977 C 202.589 971.441, 202.164 970.653, 199.580 969.091 C 195.138 966.404, 192.575 965.825, 191.203 967.197 M 780.521 1027.500 C 781.686 1038.135, 782.751 1041, 785.539 1041 C 788.897 1041, 788.691 1039.562, 783.932 1029.824 L 779.864 1021.500 780.521 1027.500 M 214.571 1229.571 C 212.424 1231.719, 212.575 1232.730, 215.903 1238.500 C 220.703 1246.821, 225.765 1250, 234.215 1250 C 246.672 1250, 243.924 1243.575, 225.770 1230.250 C 222.203 1227.632, 216.836 1227.307, 214.571 1229.571 M 216.004 1232.250 C 216.009 1233.844, 219.583 1239.818, 222.296 1242.768 C 226.333 1247.156, 239 1249.146, 239 1245.392 C 239 1244.626, 238.662 1243.996, 238.250 1243.992 C 237.838 1243.988, 234.216 1241.063, 230.203 1237.492 C 224.215 1232.165, 222.287 1231, 219.453 1231 C 217.355 1231, 216.001 1231.491, 216.004 1232.250" stroke="none" fill="#111111" fill-rule="evenodd"/>
</svg>