<svg xmlns="http://www.w3.org/2000/svg" width="1500" height="1500" viewBox="0 0 1500 1500" version="1.1">
	<path d="M 1080 39.644 C 1069.988 42.885, 1065.933 45.387, 1063.022 50.118 C 1059.550 55.761, 1059.298 57.500, 1061.750 58.899 C 1063.327 59.798, 1063.173 60.198, 1060.203 62.935 C 1057.308 65.603, 1056.935 66.520, 1057.139 70.467 C 1057.457 76.600, 1056.493 77.068, 1052.504 72.714 C 1050.633 70.671, 1048.368 69, 1047.472 69 C 1046.175 69, 1045.978 68.377, 1046.509 65.959 C 1047.378 62.005, 1045.667 60, 1041.425 60 C 1037.841 60, 1034.019 58.625, 1029.945 55.869 C 1026.659 53.647, 1025.654 54.390, 1023.676 60.500 C 1020.467 70.409, 1020.444 73.606, 1023.536 80.076 C 1025.088 83.322, 1026.051 86.282, 1025.679 86.655 C 1025.306 87.028, 1022.547 85.643, 1019.548 83.578 C 1012.947 79.032, 1011.966 79.459, 1012.118 86.809 C 1012.323 96.653, 1012.999 98.219, 1018.274 101.069 C 1023.824 104.068, 1023.491 105, 1016.869 105 C 1011.363 105, 1010 106.498, 1010 112.549 C 1010 114.655, 1008.846 118.349, 1007.303 121.185 C 1005.006 125.405, 1004.792 126.438, 1005.861 128.149 C 1007.079 130.099, 1006.948 130.137, 1001.477 129.454 L 995.837 128.749 991.169 133.632 C 988.601 136.317, 984.825 139.762, 982.777 141.287 C 980.730 142.812, 977.614 146.184, 975.854 148.780 C 974.094 151.376, 970.978 155.076, 968.930 157.001 C 965.057 160.643, 963.627 165.933, 964.067 175 C 964.160 176.925, 963.911 180.118, 963.513 182.095 C 962.888 185.199, 963.193 186.155, 965.748 189.095 C 974.048 198.647, 970.331 201.033, 957.303 194.515 C 947.081 189.401, 946.945 189.170, 948.175 179.004 L 949.204 170.508 944.352 166.098 C 938.800 161.053, 931.838 157.599, 929.021 158.493 C 927.962 158.829, 925.848 161.654, 924.324 164.771 L 921.551 170.438 920.723 166.252 C 920.105 163.125, 918.840 161.163, 915.725 158.496 C 908.416 152.240, 904.530 152.948, 902.126 160.974 C 900.545 166.251, 899.931 166.436, 895.391 163 C 890.759 159.495, 889.617 159.369, 886.273 162 C 884.874 163.100, 882.646 164, 881.320 164 C 877.821 164, 873.693 168.438, 874.560 171.267 C 875.595 174.643, 876.298 175.262, 885.458 180.859 C 890.123 183.710, 895.270 187.720, 896.895 189.771 C 899.962 193.640, 908.347 208.986, 907.732 209.602 C 906.042 211.291, 888.542 197.995, 887.132 193.950 C 885.452 189.131, 882.438 190.317, 877.315 197.814 C 874.401 202.078, 873 205.187, 873 207.390 C 873 213.360, 865.018 217.927, 863.630 212.750 C 863.299 211.513, 863.021 208.348, 863.014 205.718 C 862.990 197.547, 859.508 191.504, 856.338 194.134 C 855.053 195.201, 854.883 196.753, 855.411 202.579 C 856.268 212.032, 855.230 214.592, 849.968 216.009 C 844.766 217.409, 843.481 220.221, 841.365 234.823 C 839.985 244.346, 839.329 246.311, 835.302 253 C 831.447 259.401, 830.881 259.987, 831.436 257 C 831.794 255.075, 832.339 250.575, 832.647 247 C 832.956 243.425, 833.854 238.250, 834.643 235.500 C 836.267 229.838, 838.394 203.817, 837.471 200.908 C 835.110 193.470, 823.727 211.935, 816.026 235.693 C 808.189 259.872, 801.764 258.792, 803.270 233.548 C 803.888 223.183, 807.510 212.316, 813.459 202.978 C 819.636 193.282, 817.835 191.785, 806.804 197.446 L 800.108 200.882 800.691 195.962 C 801.427 189.744, 799.907 188.933, 793.045 191.885 C 786.981 194.494, 785 194.552, 785 192.122 C 785 187.340, 776.556 186.912, 768.708 191.297 C 764.581 193.603, 757 206.809, 757 211.693 C 757 214.152, 761.195 219.228, 764.010 220.174 C 767.792 221.445, 757.440 227, 751.290 227 C 748.101 227, 747.445 229.311, 749.442 233.519 C 751.489 237.832, 751.032 238.650, 746.118 239.480 C 741.823 240.206, 738.540 243.206, 735.041 249.603 C 731.363 256.328, 732.203 257.450, 741.167 257.790 L 748.813 258.081 749.517 264.290 C 750.369 271.810, 752.232 276.588, 755.740 280.250 L 758.374 283 752.784 283 L 747.195 283 745.097 276.095 C 743.944 272.297, 743 268.697, 743 268.095 C 743 266.252, 740.463 266.875, 738.291 269.250 C 735.031 272.815, 733.203 277.169, 731.954 284.345 C 730.595 292.148, 730.106 292.658, 726.618 289.914 C 723.459 287.430, 723.399 286.653, 726.070 282.902 C 728.058 280.109, 728.078 279.780, 726.570 274.593 C 725.707 271.623, 725 267.349, 725 265.096 C 725 258.029, 719.042 254.981, 708.156 256.478 L 703.352 257.139 698.426 267.167 C 695.592 272.936, 692.040 278.534, 690.062 280.348 C 678.597 290.861, 676 295.504, 676 305.487 C 676 315.961, 685.789 320.516, 694.553 314.119 C 699.611 310.428, 703.390 309.657, 711.750 310.611 L 718.500 311.380 713.500 312.142 C 705.527 313.357, 703.748 316.989, 706.468 326.500 C 707.170 328.955, 698.775 334.838, 693.302 335.726 C 686.929 336.760, 688.059 341.131, 695.196 343.053 C 698.068 343.826, 701.170 343.795, 706.470 342.940 C 716.957 341.249, 717.161 341.934, 707.814 347.440 C 703.241 350.134, 697.632 354.030, 695.349 356.098 C 693.067 358.166, 689.251 360.852, 686.870 362.067 C 684.488 363.281, 680.860 365.626, 678.806 367.276 C 675.300 370.094, 674.929 370.184, 672.731 368.743 C 669.841 366.850, 664.760 357.379, 662.635 349.926 C 658.569 335.659, 650.430 337.898, 646.010 354.500 C 644.527 360.070, 633.451 372.338, 632.393 369.583 C 631.995 368.544, 632.198 365.850, 632.845 363.597 C 637.394 347.753, 637.421 347.575, 636.055 342.697 C 634.545 337.304, 631.002 333, 628.071 333 C 625.418 333, 623.176 336.568, 620.051 345.761 C 617.717 352.629, 617.203 353.362, 614 354.391 C 610.131 355.634, 609.601 358.329, 611.375 367.750 C 612.166 371.950, 612.111 372.063, 606.588 377.543 C 603.515 380.592, 601 383.480, 601 383.962 C 601 384.886, 587.024 395.846, 583.311 397.834 C 582.112 398.475, 579.189 399.003, 576.816 399.006 C 568.051 399.017, 565.259 400.471, 558.689 408.450 L 556.259 411.400 550.011 409.663 C 542.591 407.600, 540.983 408.257, 536.108 415.343 C 533.417 419.254, 531.558 420.520, 525.826 422.346 C 524.906 422.639, 522.314 425.367, 520.067 428.409 C 517.820 431.450, 513.132 436.775, 509.648 440.242 C 504.943 444.923, 502.748 448.058, 501.113 452.428 C 497.288 462.651, 501.420 462.487, 512.526 451.976 C 520.672 444.265, 524.099 442.302, 535.909 438.582 C 543.205 436.283, 545.174 435.131, 550.793 429.875 C 556.240 424.779, 557.683 423.913, 559.884 424.416 C 570.244 426.783, 572.176 426.473, 577.145 421.648 C 579.348 419.508, 582.735 417.638, 586.264 416.612 C 591.162 415.188, 592.734 414.026, 598.607 407.490 C 606.186 399.055, 606.122 399.083, 610.151 402.473 C 611.767 403.834, 614.862 405.478, 617.027 406.126 C 620.782 407.251, 621.256 407.126, 627.232 403.435 C 630.680 401.306, 636.650 397.658, 640.500 395.327 L 647.500 391.090 648.094 394.556 C 648.911 399.320, 649.566 399.688, 653.477 397.582 C 655.649 396.413, 657.799 395.984, 659.432 396.394 C 661.231 396.845, 663.766 396.137, 667.997 394.002 C 673.802 391.071, 688.134 387.021, 692.750 387.007 C 696.199 386.996, 696.051 396.040, 692.545 399.545 C 689.594 402.497, 687.948 402.554, 676.265 400.108 C 662.069 397.137, 657.049 398.709, 645.162 409.847 C 638.881 415.734, 638.773 417.697, 644.583 420.400 C 647.929 421.957, 648.860 423.025, 649.739 426.315 C 651.128 431.519, 650.652 432.534, 645.370 435.629 C 639.554 439.037, 638.363 438.396, 637.795 431.546 C 636.973 421.630, 632.616 421.531, 625.222 431.259 L 620.859 437 615.364 437 C 608.597 437, 606.574 438.028, 603.978 442.783 C 602.863 444.828, 599.936 449.341, 597.475 452.814 C 591.947 460.613, 591.184 467.426, 595.460 470.789 C 597.504 472.397, 597.823 473.317, 597.349 476.235 C 596.575 481.007, 598.101 481.633, 604.158 479.027 C 606.928 477.836, 609.430 477.096, 609.717 477.384 C 612.077 479.744, 604.340 488.859, 595.699 493.899 C 588.390 498.162, 586.703 499.817, 582.245 507.099 C 580.084 510.630, 576.196 516.615, 573.606 520.398 C 568.888 527.290, 568.139 530.633, 571 532.027 C 576.361 534.638, 580.443 536, 582.911 536 C 584.475 536, 586.273 536.625, 586.907 537.388 C 587.855 538.530, 586.430 539.275, 578.850 541.600 C 572.626 543.510, 568.143 545.610, 565.017 548.081 C 560.425 551.710, 560.376 551.723, 558.085 549.868 C 552.169 545.077, 549.164 548.005, 543.956 563.632 C 539.289 577.637, 537.763 580, 534.999 577.499 C 531.801 574.605, 526.518 573.757, 522.401 575.477 C 515.839 578.219, 514.759 581.143, 517.977 587.455 C 520.437 592.280, 519.973 594.406, 514.459 603.563 C 509.358 612.035, 508.016 615.820, 504.553 631.500 C 496.997 665.715, 496.307 667.689, 488.806 676.500 C 480.474 686.286, 478.612 689.850, 479.968 693.416 C 480.508 694.837, 481.299 696.002, 481.725 696.004 C 482.151 696.006, 484.016 696.932, 485.870 698.062 L 489.239 700.116 486.973 702.529 C 485.726 703.856, 483.196 705.440, 481.351 706.049 C 479.170 706.769, 476.462 709.141, 473.609 712.828 C 471.196 715.948, 468.047 719.591, 466.611 720.924 C 463.052 724.228, 463.328 726.230, 467.736 729.083 C 472.735 732.318, 472.845 734.127, 468.430 740.536 L 464.693 745.963 466.403 752.278 C 467.393 755.938, 467.983 761.088, 467.806 764.527 C 467.475 770.940, 467.521 770.895, 459.552 772.532 C 457.491 772.955, 452.319 777.475, 442.348 787.569 C 434.507 795.506, 427.387 802, 426.527 802 C 425.667 802, 422.742 800.838, 420.026 799.418 C 414.472 796.514, 411.832 796.801, 409.358 800.576 C 407.904 802.795, 407.908 803.210, 409.399 805.486 C 411.695 808.991, 415.595 811.309, 420.274 811.950 C 424.686 812.554, 427.144 815.103, 425.495 817.363 C 424.948 818.113, 422.810 821.151, 420.745 824.113 C 418.680 827.076, 409.419 837.375, 400.166 847 C 383.690 864.136, 383.296 864.648, 381.178 871.630 C 378.495 880.474, 377.201 882.085, 368.573 887.316 C 359.479 892.828, 357.563 895.385, 359.226 899.788 C 360.282 902.587, 360.217 903.480, 358.783 905.788 C 354.026 913.444, 352.561 917.026, 351.948 922.500 C 351.246 928.764, 346.187 940.813, 342.863 944.137 C 341.471 945.529, 339.523 946, 335.164 946 C 329.664 946, 328.972 946.286, 323.142 950.964 C 318.584 954.622, 315.056 956.481, 309.729 958.028 C 305.753 959.184, 298.829 962.342, 294.341 965.048 C 289.854 967.754, 282.204 972.023, 277.341 974.534 C 263.797 981.530, 258.814 988, 266.969 988 C 271.304 988, 270.806 988.995, 263.576 994.789 C 252.318 1003.811, 251.356 1004.222, 246.878 1001.938 C 244.634 1000.793, 241.053 1000, 238.129 1000 C 230.763 1000, 227.799 1004.056, 225.558 1017.203 C 224.804 1021.631, 218.745 1027.266, 209.500 1032.142 C 206.200 1033.883, 201.449 1037.150, 198.942 1039.403 C 196.434 1041.656, 192.947 1044.267, 191.192 1045.203 C 189.040 1046.352, 187.993 1047.655, 187.980 1049.203 C 187.923 1055.594, 187.088 1066.048, 186.568 1066.890 C 186.243 1067.416, 184.615 1068.145, 182.950 1068.511 C 181.285 1068.877, 178.028 1070.619, 175.711 1072.382 C 169.297 1077.265, 168.895 1077.442, 163.001 1077.989 L 157.501 1078.500 156.775 1084.500 C 155.660 1093.721, 155.204 1094.843, 151.871 1096.567 C 150.166 1097.448, 146.891 1099.903, 144.592 1102.022 C 141.543 1104.833, 140.020 1105.625, 138.957 1104.952 C 135.061 1102.488, 127.976 1104.430, 128.019 1107.950 C 128.060 1111.304, 133.917 1119, 136.429 1119 C 139.812 1119, 143.282 1114.378, 142.730 1110.610 C 142.339 1107.951, 142.421 1107.856, 143.651 1109.537 C 145.572 1112.165, 145.383 1113.298, 141.859 1120.279 C 135.907 1132.068, 136.266 1135.905, 143.894 1142.035 C 146.152 1143.850, 148 1145.841, 148 1146.459 C 148 1148.009, 140.308 1155.211, 135.750 1157.928 C 131.070 1160.717, 130.962 1163.195, 135.401 1165.939 C 139.432 1168.430, 140.417 1170.409, 138.441 1172.049 C 136.506 1173.655, 136.624 1175.344, 139 1180 C 141.637 1185.168, 141.523 1187.903, 138.500 1192 C 136.342 1194.924, 136 1196.445, 136 1203.100 L 136 1210.812 141 1211.500 C 143.750 1211.878, 146 1212.400, 146 1212.660 C 146 1214.602, 143.525 1217, 141.521 1217 C 137.719 1217, 133.214 1221.348, 134.905 1223.385 C 135.642 1224.273, 136.804 1225, 137.488 1225 C 138.171 1225, 139.913 1225.930, 141.358 1227.067 L 143.986 1229.134 140.805 1233.093 L 137.623 1237.052 139.812 1243.847 C 141.015 1247.584, 142 1252.474, 142 1254.712 C 142 1258.570, 142.222 1258.871, 146.250 1260.468 C 148.587 1261.396, 151.728 1263.320, 153.229 1264.744 C 155.801 1267.185, 156.181 1267.260, 159.820 1266.059 C 163.132 1264.966, 164.133 1265.018, 166.841 1266.418 C 172.055 1269.114, 171.308 1269.766, 159.858 1272.526 C 158.224 1272.920, 156.003 1272.536, 154.041 1271.521 C 152.296 1270.619, 149.660 1270.019, 148.184 1270.190 C 142.695 1270.824, 145.239 1284, 150.850 1284 C 153.165 1284, 157 1286.797, 157 1288.485 C 157 1290.863, 153.980 1293, 150.620 1293 C 144.528 1293, 143.522 1294.685, 145.043 1302.339 C 146.501 1309.674, 147.369 1310.236, 151.673 1306.634 C 153.228 1305.333, 156.750 1303.123, 159.500 1301.723 C 162.250 1300.324, 166.051 1297.563, 167.946 1295.589 C 169.842 1293.615, 171.754 1292, 172.196 1292 C 173.429 1292, 173.151 1295.782, 171.750 1298.058 C 170.668 1299.816, 170.817 1300.329, 172.858 1301.880 L 175.216 1303.672 166.683 1309.349 C 155.638 1316.699, 151 1322.717, 151 1329.700 C 151 1332.413, 150.517 1337.247, 149.926 1340.442 C 148.492 1348.202, 149.472 1349.149, 155.750 1346.068 C 158.660 1344.639, 163.592 1343.417, 168.483 1342.912 C 175.867 1342.150, 176.635 1342.248, 178.733 1344.219 C 181.211 1346.547, 181.586 1349.036, 179.926 1352.139 C 179.113 1353.657, 179.271 1355.311, 180.571 1358.927 C 183.375 1366.724, 182.210 1369, 175.415 1369 C 168.054 1369, 163.295 1371.521, 164.493 1374.786 C 164.753 1375.494, 164.305 1377.969, 163.497 1380.286 C 161.058 1387.289, 162.260 1393.001, 169.454 1408.597 C 175.595 1421.907, 179.024 1424.297, 201.500 1430.932 C 209.045 1433.159, 218.129 1437.768, 218.742 1439.681 C 218.950 1440.330, 217.518 1442.634, 215.560 1444.802 C 209.274 1451.760, 211.177 1453.047, 227.500 1452.874 C 233.369 1452.811, 237.098 1453.367, 241.500 1454.960 C 244.800 1456.154, 250.749 1457.391, 254.720 1457.708 C 261.784 1458.272, 262.056 1458.206, 267.220 1454.663 C 270.124 1452.671, 275.093 1450.155, 278.261 1449.071 C 284.836 1446.822, 302.644 1437.128, 308.288 1432.726 C 310.371 1431.101, 312.945 1428.069, 314.007 1425.987 C 315.069 1423.905, 317.483 1421.246, 319.372 1420.079 C 325.900 1416.045, 332.918 1406.441, 335.508 1398 C 335.930 1396.625, 337.113 1394.427, 338.138 1393.115 C 339.362 1391.547, 340 1389.092, 340 1385.947 C 340 1381.578, 340.297 1380.980, 343.428 1379.044 C 345.681 1377.652, 347.693 1377.136, 349.297 1377.538 C 351.250 1378.029, 352.255 1377.489, 354.336 1374.830 L 356.934 1371.510 360.370 1373.360 L 363.807 1375.211 370.930 1371.467 C 386.316 1363.382, 388.724 1359.058, 386.776 1343 C 384.890 1327.452, 385.030 1325.466, 388 1325.679 C 389.375 1325.777, 392.425 1325.238, 394.777 1324.480 C 399.348 1323.008, 399.372 1323.104, 395.692 1328.161 C 392.829 1332.096, 393.658 1341.635, 397.543 1349.443 C 400.467 1355.320, 400.628 1355.452, 411.906 1361.211 C 418.886 1364.776, 424.012 1366.814, 425.118 1366.463 C 429.162 1365.179, 431.288 1367.769, 430.579 1373.115 C 429.704 1379.715, 431.240 1380.156, 439.332 1375.631 C 454.908 1366.920, 457.561 1356.394, 450.075 1333 C 446.165 1320.780, 446.148 1317.347, 449.974 1312.532 C 453.333 1308.306, 454.530 1303.638, 453.569 1298.514 C 452.753 1294.167, 454.349 1291, 457.354 1291 C 461.522 1291, 469.861 1287.988, 472.996 1285.350 C 480.395 1279.124, 484.354 1264.301, 484.441 1242.500 L 484.500 1227.500 477.640 1211.500 C 468.379 1189.900, 468.422 1191.942, 477.154 1188.273 L 484.474 1185.198 490.151 1172.417 L 495.827 1159.636 493.818 1154.568 C 492.713 1151.781, 490.896 1147.025, 489.781 1144 C 487.123 1136.790, 487.076 1136.751, 478.774 1134.963 L 471.639 1133.426 468.123 1127.019 L 464.607 1120.611 468.356 1094.810 L 472.104 1069.009 468.511 1060.028 C 464.568 1050.171, 463.020 1040.452, 463.008 1025.462 C 463.002 1019.159, 462.425 1014.791, 461.101 1011.030 C 458.925 1004.853, 459.254 1003, 462.525 1003 C 468.957 1003, 469.109 1002.068, 464.471 991.072 C 458.216 976.240, 458.218 976.488, 464.091 953.610 C 469.414 932.878, 473.742 922.313, 482.664 908.274 C 489.423 897.637, 492.778 894.227, 498.635 892.035 C 501.637 890.912, 505.948 889.047, 508.217 887.889 C 513.186 885.354, 516.310 886.008, 525.406 891.485 C 534.613 897.030, 534.765 897.017, 543.412 890.007 C 552.642 882.524, 553.005 881.890, 552.980 873.316 C 552.934 857.454, 550.179 848.044, 542.095 836.140 L 538.004 830.116 552.505 800.808 C 570.192 765.058, 571.256 761.553, 573.464 731.779 C 575.425 705.323, 575.397 696.189, 573.312 682.239 C 571.252 668.459, 571.015 668.826, 584.080 665.549 C 589.261 664.249, 597.793 661.177, 603.041 658.723 L 612.581 654.260 612.173 644.105 L 611.765 633.950 620.303 619.725 C 628.478 606.105, 631.178 600.265, 637.520 582.500 C 640.019 575.498, 641.224 573.668, 647.181 567.832 C 654.050 561.102, 656 557.912, 656 553.403 C 656 549.874, 652.312 539.351, 649.024 533.500 C 644.178 524.877, 642.177 509.520, 645.750 508.378 C 650.121 506.981, 652.029 505.455, 653.592 502.105 C 654.518 500.122, 659.208 492.425, 664.016 485 C 668.823 477.575, 674.659 467.675, 676.985 463 C 679.310 458.325, 682.907 452.234, 684.976 449.465 C 687.046 446.696, 689.707 442.534, 690.890 440.215 C 692.073 437.897, 693.386 436, 693.808 436 C 694.229 436, 700.590 439.825, 707.942 444.500 C 715.293 449.175, 721.813 453, 722.429 453 C 723.045 453, 725.778 448.613, 728.503 443.250 L 733.456 433.500 734.007 411 C 734.502 390.730, 734.772 388.028, 736.727 383.738 C 739.530 377.589, 741.049 377.117, 747.638 380.349 C 751.498 382.242, 754.619 383, 758.551 383 C 762.700 383, 765.544 383.751, 770.093 386.047 C 776.389 389.225, 816.708 405, 818.535 405 C 819.941 405, 827.176 397.447, 830.404 392.610 C 833.890 387.387, 833.837 384.227, 830.250 383.419 C 818.408 380.752, 818.037 380.281, 823.580 374.946 C 837.038 361.991, 837.997 354.777, 829.177 332.823 C 825.771 324.344, 825.758 324.403, 831.292 322.948 C 833.606 322.340, 840 319.789, 845.500 317.279 L 855.500 312.715 860 314.438 C 869.631 318.127, 870.450 317.714, 867.500 310.654 C 865.576 306.050, 865.584 299.706, 867.517 295.967 C 870.500 290.198, 878.538 288.486, 888.604 291.475 L 893.571 292.950 908.643 321.725 C 916.933 337.551, 924.468 352.796, 925.389 355.601 C 928.263 364.365, 928.977 364.802, 938.500 363.629 C 943.543 363.007, 945.744 363.298, 952.300 365.451 C 956.591 366.860, 961.091 367.768, 962.300 367.469 C 963.510 367.170, 968.891 366.559, 974.258 366.111 C 985.721 365.153, 987.482 364.047, 988.460 357.190 C 988.828 354.610, 989.582 350.758, 990.136 348.629 L 991.142 344.758 997.061 345.427 C 1000.316 345.796, 1004.379 346.585, 1006.089 347.181 C 1009.279 348.293, 1009.548 349.860, 1007.471 355.228 C 1006.370 358.076, 1011.706 362.302, 1021.543 366.372 C 1026.625 368.475, 1033.394 372.286, 1036.995 375.073 C 1040.519 377.801, 1043.713 379.913, 1044.092 379.766 C 1044.472 379.620, 1046.631 377.151, 1048.891 374.279 C 1052.585 369.587, 1053 368.497, 1053 363.497 C 1053 357.363, 1054.924 351.791, 1058.298 348.153 C 1063.267 342.794, 1071.867 337, 1074.851 337 C 1080.751 337, 1082.002 333.686, 1081.983 318.115 C 1081.973 310.627, 1081.521 300.282, 1080.978 295.127 C 1080.056 286.373, 1080.158 285.226, 1082.515 277.762 C 1085.331 268.848, 1087.926 255.050, 1088.323 246.879 C 1088.567 241.864, 1089.352 240.349, 1099.907 224.500 C 1106.134 215.150, 1111.965 206.909, 1112.865 206.187 C 1114.081 205.211, 1117.977 204.955, 1128.065 205.187 L 1141.630 205.500 1150.065 201.315 C 1154.704 199.014, 1160.771 195.186, 1163.546 192.809 C 1169.737 187.507, 1176.563 184.229, 1178.644 185.559 C 1179.453 186.077, 1181.180 189.126, 1182.481 192.335 C 1185.835 200.609, 1189.542 205.562, 1197 211.732 C 1204.786 218.172, 1218.894 227.920, 1224.655 230.839 C 1230.223 233.660, 1232.597 236.930, 1235.047 245.157 C 1240.575 263.719, 1236.704 279.938, 1223.501 293.537 C 1216.522 300.725, 1214.867 304.690, 1217.342 308.291 C 1227.132 322.532, 1228.843 324.208, 1231.750 322.403 C 1234.791 320.514, 1238.109 310.291, 1241.946 290.991 C 1243.195 284.713, 1247.593 280.862, 1258.050 276.890 C 1261.048 275.751, 1266.620 272.723, 1270.432 270.160 C 1274.245 267.597, 1277.826 265.191, 1278.390 264.813 C 1278.954 264.435, 1279.659 259.035, 1279.958 252.813 L 1280.500 241.500 1285.085 245.725 C 1290.714 250.913, 1301.639 256.163, 1308.095 256.783 C 1314.897 257.437, 1319.010 253.485, 1318.979 246.327 C 1318.961 242.272, 1315.202 228.868, 1313.646 227.312 C 1313.386 227.053, 1309.377 226.010, 1304.738 224.997 C 1294.130 222.679, 1290.813 221.146, 1284.213 215.513 C 1279.733 211.689, 1278.271 211, 1274.646 211 C 1268.733 211, 1259.140 209.124, 1255.543 207.264 L 1252.546 205.714 1254.773 204.235 C 1255.998 203.422, 1257 202.329, 1257 201.807 C 1257 201.285, 1249.688 197.319, 1240.750 192.993 C 1228.557 187.091, 1223.501 184.076, 1220.500 180.916 C 1218.050 178.337, 1217.227 176.963, 1218.377 177.370 C 1219.409 177.735, 1225.709 179.409, 1232.377 181.089 C 1239.044 182.768, 1248.946 185.461, 1254.380 187.071 C 1263.822 189.870, 1271.901 190.743, 1275.517 189.355 C 1277.046 188.769, 1288.863 173.864, 1293.345 166.869 C 1295.274 163.859, 1296.238 163.489, 1304.632 162.542 C 1316.080 161.250, 1325.046 156.733, 1324.968 152.298 C 1324.940 150.698, 1312.188 134.698, 1301.605 122.984 L 1297.710 118.673 1290.769 121.080 C 1283.918 123.456, 1283.811 123.462, 1282.401 121.534 C 1280.415 118.817, 1281.120 117.553, 1284.827 117.187 C 1288.812 116.793, 1288.817 115.735, 1284.879 107.400 C 1277.881 92.589, 1273.316 90.700, 1267 100 C 1262.287 106.940, 1261.797 107.272, 1263.249 102.540 C 1265.305 95.841, 1261.277 94.306, 1252.851 98.576 L 1247.768 101.151 1245.052 98.549 C 1243.364 96.932, 1241.453 93.132, 1240.003 88.509 C 1237.545 80.672, 1234.720 78, 1228.892 78 C 1225.473 78, 1215.839 88.541, 1206.584 102.409 L 1198.668 114.271 1199.632 121.244 C 1200.295 126.038, 1200.268 128.328, 1199.548 128.571 C 1196.998 129.429, 1181.733 131.066, 1181.204 130.537 C 1180.881 130.215, 1182.909 127.599, 1185.711 124.725 C 1192.551 117.707, 1199.789 103.219, 1198.340 99.443 C 1197.253 96.611, 1192.908 98.095, 1183.275 104.588 L 1173.500 111.177 1178.750 105.807 C 1185.772 98.624, 1185.543 96.798, 1177.079 92.506 C 1172.897 90.386, 1173.622 89.883, 1184.180 87.574 C 1193.771 85.477, 1197.230 83.161, 1202.683 75.186 C 1210.098 64.341, 1208.161 59, 1196.813 59 C 1190.233 59, 1189 57.778, 1189 51.257 C 1189 49.126, 1188.343 46.509, 1187.539 45.441 C 1186.107 43.538, 1185.978 43.554, 1181.038 46.250 C 1174.504 49.816, 1172.976 49.720, 1169.136 45.500 C 1164.150 40.020, 1162.396 40.800, 1159.463 49.802 C 1157.847 54.762, 1157.340 55.302, 1151.618 58.165 C 1140.017 63.967, 1139.193 66.763, 1146.942 74.038 L 1151.884 78.678 1145.866 84.589 C 1137.551 92.756, 1137 94.081, 1137 105.901 C 1137 120.802, 1135.965 124.251, 1128.943 132.750 C 1125.648 136.738, 1122.514 140, 1121.976 140 C 1121.439 140, 1121 137.350, 1121 134.110 C 1121 130.871, 1120.318 124.625, 1119.484 120.230 C 1117.886 111.808, 1118.769 86.598, 1120.980 77.500 C 1122.633 70.699, 1122.300 67, 1120.035 67 C 1118.955 67, 1117.636 67.812, 1117.104 68.805 C 1116.573 69.797, 1112.479 74.635, 1108.006 79.555 C 1103.534 84.475, 1098.684 90.525, 1097.229 93 C 1095.774 95.475, 1092.634 100.200, 1090.252 103.500 C 1087.870 106.800, 1083.447 114.335, 1080.423 120.243 C 1077.399 126.152, 1072.786 133.577, 1070.173 136.743 C 1062.148 146.467, 1061.028 148.554, 1057.946 159.531 C 1054.863 170.508, 1051.651 178, 1050.027 178 C 1049.514 178, 1048.625 176.313, 1048.053 174.250 C 1046.160 167.437, 1046.755 163.900, 1050.936 157.102 C 1057.013 147.223, 1058.611 136.154, 1054.834 130.106 C 1053.818 128.479, 1054.040 127.538, 1056.214 124.253 C 1057.639 122.100, 1060.483 117, 1062.534 112.919 C 1064.585 108.839, 1068.838 101.900, 1071.985 97.500 C 1079.614 86.835, 1084.320 78.277, 1083.595 76.388 C 1083.172 75.284, 1081.880 74.928, 1079.045 75.133 C 1074.085 75.491, 1073.149 74.607, 1075.589 71.868 C 1078.185 68.955, 1083.124 67, 1087.886 67 C 1094.919 67, 1096.874 64.985, 1098.986 55.561 C 1100.894 47.050, 1097.522 44.581, 1092.111 50.528 C 1088.332 54.681, 1086.570 54.296, 1088.447 49.728 C 1090.009 45.926, 1089.153 42.921, 1085.849 40.607 C 1083.489 38.954, 1082.588 38.806, 1080 39.644 M 1078 43.424 C 1076.075 44.159, 1073.029 45.312, 1071.231 45.985 C 1066.803 47.643, 1061.804 55.751, 1064.336 57.168 C 1066.905 58.606, 1066.312 61.709, 1063 64.158 C 1060.337 66.127, 1060 66.959, 1060 71.566 C 1060 79.844, 1054.922 81.389, 1050.399 74.486 C 1049.064 72.449, 1048.018 71.948, 1045.596 72.189 C 1042.257 72.520, 1041.901 71.485, 1043.433 65.889 C 1044.117 63.389, 1043.941 63.250, 1039.324 62.634 C 1036.671 62.280, 1032.987 61.069, 1031.137 59.942 C 1027.148 57.510, 1027.591 57.190, 1025.603 63.932 C 1023.391 71.428, 1023.585 74.617, 1026.565 79.700 C 1031.543 88.195, 1028.083 92.215, 1020.076 87.238 L 1015 84.083 1015 88.476 C 1015 93.808, 1016.464 98, 1018.325 98 C 1019.081 98, 1021.556 99.344, 1023.824 100.987 C 1029.538 105.126, 1028.591 106.722, 1019.913 107.577 L 1013 108.258 1013 112.162 C 1013 114.375, 1011.884 118.269, 1010.424 121.149 L 1007.849 126.232 1010.424 128.921 C 1015.546 134.267, 1014.284 134.717, 1000.719 132.380 C 997.153 131.765, 996.670 132.011, 992.219 136.717 C 989.624 139.461, 986.039 142.702, 984.252 143.920 C 982.466 145.137, 979.592 148.240, 977.866 150.816 C 976.139 153.392, 973.125 156.896, 971.167 158.603 C 967.647 161.672, 967.604 161.805, 967.300 170.603 C 967.131 175.496, 966.738 180.625, 966.428 182 C 966.010 183.853, 966.750 185.665, 969.288 189 C 971.171 191.475, 972.992 194.298, 973.334 195.273 C 974.154 197.615, 970.729 201, 967.538 201 C 961.508 201, 947.416 193.611, 945.187 189.281 C 944.627 188.193, 944.655 184.466, 945.259 179.696 C 946.204 172.233, 946.147 171.785, 943.931 169.427 C 940.419 165.689, 932.182 160.716, 930.543 161.345 C 928.842 161.998, 925.176 168.809, 923.490 174.448 C 921.285 181.824, 919.595 180.496, 918.469 170.501 C 917.868 165.156, 917.351 164.094, 913.731 160.751 C 908.312 155.749, 907.390 155.969, 904.341 163 C 901.351 169.894, 900.448 170.164, 894.552 165.930 L 890.278 162.860 886.889 164.926 C 885.025 166.063, 882.543 166.994, 881.372 166.996 C 880.202 166.998, 878.709 167.646, 878.053 168.436 C 876.139 170.743, 878.236 173.290, 885.590 177.588 C 896.380 183.895, 900.006 187.715, 905.779 198.857 C 912.616 212.053, 912.559 214.330, 905.448 211.983 C 900.350 210.301, 886.114 199.431, 884.931 196.317 C 883.823 193.404, 883.685 193.489, 879.128 199.900 C 877.079 202.783, 876 205.490, 876 207.750 C 876 210.340, 875.153 212.047, 872.600 214.600 C 865.530 221.670, 860.091 217.885, 859.930 205.782 C 859.891 202.877, 859.474 199.600, 859.003 198.500 C 858.438 197.179, 858.154 199.313, 858.168 204.781 C 858.193 214.554, 856.754 217.580, 851.628 218.542 C 847.254 219.363, 846.454 221.209, 844.091 235.930 C 842.521 245.718, 841.620 248.653, 838.817 253.117 C 836.958 256.078, 834.776 259.814, 833.968 261.420 C 830.459 268.399, 827.261 264.067, 828.914 254.573 C 829.511 251.143, 830 246.758, 830 244.828 C 830 242.899, 830.840 237.985, 831.866 233.910 C 832.892 229.834, 834.017 221.100, 834.367 214.500 L 835.002 202.500 832.460 206.500 C 826.074 216.553, 822.905 223.462, 818.932 236 C 815.560 246.640, 813.970 250.189, 811.427 252.750 C 804.680 259.545, 800.786 255.678, 800.203 241.605 C 799.625 227.658, 803.275 213.817, 810.713 201.750 C 813.553 197.143, 813.250 197.129, 805.434 201.500 C 797.616 205.872, 795.530 206.045, 796.390 202.250 C 798.420 193.293, 798.422 192.620, 796.408 193.467 C 785.949 197.865, 782.660 197.902, 782.172 193.629 C 781.863 190.925, 781.624 190.787, 778.064 191.265 C 770.297 192.306, 767.240 194.657, 763.478 202.479 C 759.330 211.104, 759.173 213.323, 762.547 215.703 C 763.948 216.691, 766.085 218.249, 767.297 219.165 L 769.500 220.830 767.099 223.390 C 764.737 225.909, 758.906 228.597, 754 229.428 C 752.625 229.661, 751.410 229.885, 751.301 229.926 C 751.192 229.967, 751.778 231.618, 752.604 233.595 C 754.490 238.109, 752.550 242, 748.411 242 C 747.013 242, 744.968 242.482, 743.867 243.071 C 741.980 244.081, 736 252.505, 736 254.154 C 736 254.573, 739.487 255.047, 743.750 255.208 L 751.500 255.500 751.779 259.500 C 752.491 269.703, 754.006 273.846, 759.043 279.357 C 761.739 282.307, 763.658 285.009, 763.306 285.360 C 762.954 285.712, 758.715 286, 753.886 286 L 745.105 286 742.773 278.275 L 740.441 270.550 738.174 274.218 C 736.927 276.236, 735.469 280.606, 734.934 283.930 C 733.064 295.538, 731.848 296.738, 725.992 292.750 C 720.647 289.111, 720.187 287.656, 722.830 282.763 C 725.041 278.669, 725.071 278.326, 723.566 274.124 C 722.705 271.718, 722 267.807, 722 265.433 C 722 260.405, 721.659 260.102, 715.107 259.326 C 706.472 258.304, 705.564 258.933, 700.027 269.769 C 694.326 280.927, 694.020 281.343, 688.116 285.956 C 679.880 292.389, 675.964 307.093, 681.189 311.961 C 683.843 314.434, 690.161 314.716, 692.045 312.445 C 695.520 308.258, 702.601 306.835, 713.719 308.088 C 722.667 309.097, 727 310.582, 727 312.641 C 727 314.278, 724.332 314.915, 716.104 315.244 C 708.026 315.567, 707.049 316.764, 708.917 324.052 C 710.240 329.214, 710.235 329.238, 707.372 331.611 C 705.792 332.920, 701.850 335.293, 698.611 336.885 L 692.721 339.780 695.869 340.471 C 697.601 340.852, 702.991 340.600, 707.848 339.913 C 722.967 337.773, 724.023 340.713, 710.988 348.656 C 706.320 351.501, 700.774 355.329, 698.664 357.164 C 696.555 358.999, 692.224 362.075, 689.041 364 C 685.858 365.925, 681.464 368.752, 679.278 370.283 C 675.929 372.627, 674.884 372.906, 672.644 372.055 C 669.072 370.697, 662.741 360.701, 660.584 353.014 C 659.634 349.627, 657.916 345.916, 656.767 344.767 L 654.679 342.679 652.852 344.934 C 651.848 346.174, 650.549 349.059, 649.966 351.345 C 648.150 358.467, 647.078 360.296, 640.498 367.500 C 635.027 373.491, 633.845 374.341, 632.303 373.396 C 628.652 371.161, 628.406 367.557, 631.300 358.671 C 634.491 348.873, 634.607 345.934, 632.027 340.250 C 628.762 333.057, 626.077 335.107, 622.536 347.500 C 620.525 354.534, 618.625 357, 615.215 357 C 612.553 357, 612.496 358.087, 614.569 369.271 C 615.233 372.850, 614.996 373.316, 609.884 378.464 C 606.923 381.446, 603.132 385.374, 601.460 387.193 C 596.672 392.401, 586.421 400.019, 582.807 401.055 C 580.995 401.575, 577.553 402, 575.158 402 C 570.838 402, 564 404.477, 564 406.043 C 564 406.491, 562.532 408.414, 560.737 410.317 C 557.489 413.761, 557.451 413.772, 551.987 412.799 C 542.769 411.157, 542.960 411.095, 538.274 417.225 C 534.916 421.616, 532.988 423.195, 530.001 424 C 526.936 424.825, 525.108 426.376, 521.424 431.274 C 518.848 434.698, 514.590 439.412, 511.960 441.749 C 507.386 445.815, 502.096 454.430, 503.384 455.718 C 503.721 456.055, 507.039 453.394, 510.757 449.805 C 518.297 442.525, 523.992 439.270, 535.025 435.934 C 541.485 433.980, 543.498 432.756, 549.851 426.916 L 557.201 420.160 561.226 421.580 C 567.851 423.917, 571.244 423.436, 575.195 419.599 C 577.304 417.550, 580.978 415.479, 584.431 414.390 C 589.403 412.823, 591.096 411.549, 597.188 404.792 C 604.978 396.150, 607.722 395.106, 611.160 399.476 C 612.231 400.838, 614.834 402.469, 616.945 403.102 C 620.700 404.227, 621.003 404.114, 631.141 397.805 C 647.977 387.329, 648.987 386.781, 650.439 387.338 C 651.454 387.728, 651.677 389.029, 651.267 392.185 L 650.707 396.500 652.831 394.615 C 654.424 393.202, 655.855 392.877, 658.558 393.316 C 661.359 393.770, 663.422 393.243, 667.830 390.944 C 675.858 386.759, 691.971 383.210, 695.548 384.840 C 698.123 386.013, 698.213 386.315, 697.819 392.498 C 697.077 404.161, 692.554 406.383, 676.378 403.030 C 661.795 400.008, 659.578 400.683, 647 411.970 C 642.666 415.859, 642.572 416.064, 644.441 417.504 C 645.509 418.327, 647.180 419, 648.156 419 C 651.163 419, 653.899 427.284, 652.600 432.457 C 651.997 434.859, 646.128 439.009, 641.301 440.447 C 637.645 441.536, 635 437.960, 635 431.927 C 635 425.199, 633.176 425.558, 627.006 433.500 L 622.345 439.500 615.427 440 C 608.868 440.474, 608.430 440.662, 607.004 443.621 C 606.177 445.337, 603.619 449.163, 601.319 452.123 C 594.214 461.270, 593.586 464.538, 598.038 469.197 C 600.504 471.777, 600.956 472.923, 600.439 475.276 C 599.835 478.028, 599.917 478.115, 602.041 476.978 C 608.403 473.573, 613 474.161, 613 478.378 C 613 481.969, 607.284 489.672, 602.359 492.720 C 591.982 499.141, 589.410 501.742, 580.780 514.547 C 575.979 521.671, 572.039 527.957, 572.025 528.515 C 571.994 529.770, 580.844 533, 584.312 533 C 586.863 533, 591 537.021, 591 539.501 C 591 540.181, 586.604 542.126, 581.178 543.846 C 571.707 546.848, 563.512 551.502, 562.346 554.540 C 561.469 556.825, 559.687 556.276, 556.615 552.774 L 553.784 549.548 551.969 551.789 C 550.971 553.022, 548.708 558.411, 546.939 563.765 C 541.356 580.666, 538.725 583.915, 533.762 580.041 C 530.307 577.344, 527.309 576.743, 523.532 577.989 C 519.366 579.364, 518.379 581.897, 520.448 585.900 C 522.710 590.273, 522.359 595.855, 519.533 600.500 C 512.618 611.864, 511.130 615.962, 506.103 637.500 C 498.355 670.690, 498.872 669.196, 492.714 676.240 C 486.551 683.289, 482 689.727, 482 691.397 C 482 692.012, 484.038 693.745, 486.529 695.250 C 489.019 696.754, 491.326 698.686, 491.655 699.544 C 492.461 701.645, 488.569 705.654, 482.942 708.519 C 480.420 709.803, 477.172 712.587, 475.673 714.751 C 474.182 716.902, 471.621 719.947, 469.981 721.518 C 466.292 725.053, 466.286 725.462, 469.914 726.964 C 475.857 729.426, 476.163 735.426, 470.693 742.232 L 467.670 745.994 469.335 751.982 C 470.251 755.275, 471 760.908, 471 764.500 C 471 770.793, 470.883 771.101, 467.750 773.011 C 465.962 774.101, 463.222 774.994, 461.661 774.996 C 459.331 774.999, 456.160 777.688, 443.967 790 C 434.511 799.549, 428.374 805, 427.079 805 C 425.960 805, 422.558 803.780, 419.518 802.290 C 414.234 799.698, 413.915 799.657, 412.246 801.350 C 410.582 803.037, 410.654 803.259, 413.766 806.060 C 416.007 808.078, 418.082 809, 420.381 809 C 426.979 809, 431.812 816.421, 427.529 819.976 C 426.720 820.647, 424.677 823.290, 422.989 825.848 C 421.300 828.407, 412.293 838.445, 402.973 848.156 C 386.046 865.792, 386.024 865.821, 383.536 873.698 C 380.762 882.478, 378.721 884.897, 369.934 889.819 C 362.927 893.743, 360.185 896.585, 361.824 898.224 C 363.725 900.125, 363.181 904.454, 360.554 908.325 C 356.446 914.379, 355.799 916.057, 354.956 922.853 C 354.383 927.472, 352.802 932.109, 349.597 938.563 L 345.051 947.721 340.386 948.361 C 337.820 948.712, 334.278 949, 332.515 949 C 330.492 949, 328.608 949.793, 327.405 951.151 C 324.166 954.809, 316.813 958.971, 310.007 960.999 C 306.428 962.065, 299.225 965.471, 294 968.568 C 288.775 971.665, 281.100 975.915, 276.944 978.013 C 267.303 982.880, 265.745 984.565, 270.020 985.504 C 276.681 986.967, 275.489 989.174, 262.678 999.088 C 253.135 1006.473, 249.648 1007.543, 245.225 1004.445 C 243.785 1003.436, 241.371 1002.997, 238.353 1003.195 C 232.500 1003.579, 230.356 1006.171, 229 1014.500 C 228.464 1017.794, 227.192 1021.617, 226.174 1022.995 C 223.633 1026.433, 215.435 1032.562, 210 1035.088 C 207.525 1036.239, 203.700 1038.890, 201.500 1040.981 C 199.300 1043.072, 196.037 1045.518, 194.250 1046.417 C 192.463 1047.316, 190.945 1048.377, 190.877 1048.776 C 190.809 1049.174, 190.640 1053.437, 190.501 1058.248 C 190.217 1068.073, 189.508 1069.468, 183.944 1071.135 C 181.844 1071.764, 178.041 1074.002, 175.493 1076.107 C 170.893 1079.909, 165.729 1081.685, 162.066 1080.728 C 160.422 1080.298, 160.068 1080.943, 159.525 1085.364 C 158.279 1095.506, 158.098 1095.876, 152.665 1099.358 C 145.319 1104.067, 144.641 1105.083, 146.483 1108.615 C 148.664 1112.797, 148.444 1113.984, 143.843 1122.834 C 138.919 1132.305, 139.286 1134.642, 146.642 1140.670 C 149.039 1142.634, 151 1145.106, 151 1146.163 C 151 1148.621, 143.115 1157.085, 138.521 1159.559 C 134.257 1161.855, 134.251 1161.982, 138.289 1164.516 C 141.795 1166.717, 142.838 1170.057, 141.062 1173.399 C 140.171 1175.075, 140.355 1176.301, 141.973 1179.461 C 144.680 1184.752, 144.528 1188.620, 141.452 1192.652 C 139.243 1195.547, 138.944 1196.824, 139.202 1202.246 L 139.500 1208.500 143.398 1209 C 148.344 1209.634, 149.744 1211.676, 147.887 1215.547 C 146.926 1217.550, 145.330 1218.765, 142.690 1219.506 C 138.322 1220.730, 138.262 1221.693, 142.379 1224.500 C 147.481 1227.978, 147.762 1229.369, 144.186 1233.441 C 140.419 1237.731, 140.479 1237.173, 143 1244.500 C 144.100 1247.697, 145 1251.763, 145 1253.535 C 145 1256.203, 145.539 1256.981, 148.133 1258.055 C 149.856 1258.769, 152.547 1260.431, 154.113 1261.748 C 156.696 1263.922, 157.273 1264.031, 160.342 1262.921 C 163.359 1261.830, 164.198 1261.959, 168.112 1264.114 C 176.331 1268.640, 174.032 1272.306, 161.264 1275.032 C 157.159 1275.909, 155.947 1275.766, 152.500 1273.997 L 148.500 1271.943 148.175 1274.556 C 147.683 1278.518, 148.493 1279.682, 153.191 1281.764 C 159.167 1284.414, 160.503 1286.255, 159.355 1290.257 C 158.302 1293.931, 155.039 1295.964, 150.162 1295.985 L 146.824 1296 147.526 1300.250 C 148.394 1305.503, 148.566 1305.692, 150.744 1303.777 C 151.710 1302.928, 154.977 1300.850, 158.006 1299.159 C 161.034 1297.468, 165.287 1294.266, 167.459 1292.042 C 169.630 1289.819, 172.001 1288, 172.728 1288 C 174.573 1288, 176.258 1292.933, 175.579 1296.345 C 175.148 1298.507, 175.542 1299.619, 177.224 1300.980 C 180.103 1303.312, 179.289 1304.292, 168.540 1311.445 C 157.315 1318.914, 154.741 1322.467, 153.858 1331.716 C 153.476 1335.709, 152.876 1340.288, 152.524 1341.891 L 151.884 1344.807 156.144 1342.699 C 158.917 1341.327, 163.389 1340.361, 168.952 1339.932 L 177.500 1339.274 180.750 1342.622 C 184.153 1346.128, 184.742 1348.746, 182.901 1352.184 C 182.051 1353.772, 182.195 1355.107, 183.538 1358.084 C 185.573 1362.598, 184.982 1368.809, 182.332 1370.747 C 181.389 1371.436, 178.116 1372.007, 175.059 1372.015 C 167.997 1372.035, 167.454 1372.446, 166.505 1378.500 C 165.015 1388.006, 165.589 1392.075, 169.889 1402.474 C 176.530 1418.535, 181.179 1422.520, 198.500 1426.991 C 207.968 1429.436, 218.654 1434.543, 220.639 1437.572 C 222.310 1440.122, 221.346 1443.494, 218.115 1446.405 C 214.634 1449.541, 215.566 1450, 225.411 1450 C 232.138 1450, 236.630 1450.581, 241.161 1452.037 C 244.647 1453.158, 250.731 1454.345, 254.680 1454.676 C 261.639 1455.260, 261.985 1455.180, 265.863 1452.108 C 268.064 1450.365, 272.445 1448.051, 275.599 1446.966 C 281.449 1444.953, 297.379 1436.736, 304.388 1432.115 C 306.526 1430.706, 309.499 1427.585, 310.995 1425.182 C 312.491 1422.778, 315.910 1419.153, 318.591 1417.126 C 324.332 1412.788, 330.053 1404.981, 331.979 1398.861 C 332.733 1396.462, 334.171 1393.571, 335.175 1392.436 C 336.394 1391.057, 337 1388.799, 337 1385.638 C 337 1379.114, 343.289 1373.217, 348.729 1374.639 C 350.052 1374.985, 351.196 1374.350, 352.310 1372.650 C 354.528 1369.264, 357.291 1368.582, 361.006 1370.503 C 364.039 1372.071, 364.266 1372.024, 370.614 1368.473 C 384.475 1360.722, 385.940 1357.975, 384.007 1343.364 C 381.506 1324.462, 381.491 1325.379, 384.333 1323.517 C 385.941 1322.464, 387.710 1322.091, 389.061 1322.519 C 390.355 1322.930, 392.795 1322.494, 395.153 1321.431 C 398.720 1319.823, 399.232 1319.803, 400.649 1321.221 C 402.067 1322.638, 402.066 1323.050, 400.642 1325.642 C 395.342 1335.290, 395.308 1338.781, 400.423 1348.825 C 402.610 1353.120, 403.658 1353.926, 413.330 1358.750 C 420.086 1362.120, 425.127 1364, 427.405 1364 C 432.087 1364, 434.523 1367.398, 433.552 1372.573 L 432.880 1376.154 437.690 1373.414 C 452.901 1364.746, 454.695 1356.681, 446.857 1332.212 C 443.127 1320.569, 443.306 1315.378, 447.590 1310.906 C 450.139 1308.245, 450.461 1307.101, 450.954 1298.945 C 451.550 1289.101, 452.194 1288.042, 457.601 1288.015 C 465.207 1287.978, 473.219 1283.025, 476.052 1276.608 C 479.695 1268.359, 482.171 1252.433, 481.823 1239.500 L 481.500 1227.500 473.622 1209.178 C 469.178 1198.840, 466.127 1190.491, 466.622 1190.018 C 467.105 1189.558, 470.875 1187.771, 475 1186.047 L 482.500 1182.913 487.441 1171.540 C 490.158 1165.284, 492.329 1159.791, 492.264 1159.333 C 492.200 1158.875, 490.506 1154.166, 488.499 1148.869 L 484.852 1139.237 477.207 1137.369 L 469.563 1135.500 465.597 1128.500 L 461.631 1121.500 465.405 1095.348 L 469.180 1069.197 465.657 1060.348 C 461.852 1050.789, 460 1038.894, 460 1024.007 C 460 1019.095, 459.413 1014.531, 458.500 1012.346 C 455.366 1004.844, 457.106 1000, 462.934 1000 C 465.499 1000, 465.563 1000.517, 462.037 992.743 C 460.408 989.149, 458.363 983.349, 457.493 979.854 L 455.911 973.500 461.518 952 C 467.413 929.396, 470.757 921.521, 481.560 904.807 C 488.961 893.356, 492.739 890.566, 509.128 884.448 C 513.825 882.695, 518.311 883.854, 527.060 889.081 C 530.668 891.236, 534.043 892.980, 534.560 892.956 C 535.077 892.931, 538.650 890.318, 542.500 887.149 L 549.500 881.386 549.815 874.443 C 550.534 858.578, 547.598 848.706, 538.258 835.578 L 534.756 830.655 549.353 801.078 C 567.321 764.671, 568.484 760.952, 570.507 733.424 C 572.164 710.886, 572.379 692.411, 571.055 686.500 C 567.185 669.229, 568.516 666.110, 580.902 663.417 C 585.081 662.508, 593.225 659.746, 599 657.278 L 609.500 652.792 609.500 642.146 L 609.500 631.500 616.126 620.961 C 624.821 607.132, 627.502 601.720, 632.210 588.500 C 637.092 574.789, 639.786 570.129, 645.569 565.390 C 648.076 563.336, 650.773 560.405, 651.564 558.877 C 653.156 555.798, 653.496 549.424, 652.113 548.570 C 651.626 548.269, 650.909 546.330, 650.522 544.261 C 650.134 542.192, 648.294 537.776, 646.433 534.448 C 642.633 527.651, 640.610 517.128, 641.647 509.556 C 642.207 505.475, 642.544 504.998, 644.886 504.985 C 648.428 504.964, 649.382 504.190, 651.839 499.343 C 652.998 497.056, 657.778 489.330, 662.461 482.174 C 667.144 475.019, 672.493 465.864, 674.347 461.832 C 676.201 457.799, 679.779 451.724, 682.297 448.331 C 684.816 444.938, 687.797 440.358, 688.922 438.153 C 692.579 430.985, 692.697 431.025, 718.985 448.231 L 721.630 449.962 726.253 440.731 L 730.876 431.500 731.247 410 C 731.558 391.987, 731.917 387.770, 733.461 384 C 737.343 374.522, 740.619 373.213, 749.213 377.707 C 753.260 379.823, 755.567 380.364, 759.789 380.187 C 764.189 380.003, 766.143 380.507, 770.344 382.907 C 773.180 384.527, 785.098 389.523, 796.830 394.009 C 821.096 403.288, 818.451 403.319, 826.145 393.660 C 831.221 387.288, 831.085 386.765, 823.750 384.462 C 815.173 381.769, 815.091 380.140, 823.096 371.334 C 832.290 361.221, 833.654 357.576, 831.524 348.815 C 830.598 345.006, 828.507 338.655, 826.877 334.702 C 822.463 323.998, 822.803 323.150, 833 319.415 C 837.675 317.702, 844.425 314.884, 848 313.151 C 855.407 309.562, 856.905 309.382, 861.143 311.574 C 864.829 313.480, 865.370 313.104, 864.028 309.574 C 862.161 304.663, 862.779 297.790, 865.439 293.875 C 870.035 287.111, 878.732 285.326, 890 288.835 L 895.500 290.547 910.742 319.524 C 919.125 335.461, 926.746 350.869, 927.679 353.764 C 930.001 360.974, 931.394 362.050, 937 360.963 C 942.276 359.940, 946.530 360.476, 953.736 363.074 C 958.607 364.830, 959.809 364.871, 971.009 363.657 C 977.630 362.940, 983.499 361.901, 984.051 361.349 C 984.604 360.796, 985.513 357.507, 986.071 354.039 C 987.540 344.916, 989.290 341.997, 993.276 342.015 C 997.518 342.034, 1009.015 344.768, 1010.686 346.154 C 1012.301 347.495, 1012.387 351.408, 1010.865 354.252 C 1009.313 357.151, 1012.709 359.766, 1024.228 364.540 C 1029.103 366.561, 1035.399 370.038, 1038.221 372.269 L 1043.351 376.324 1046.542 372.523 C 1049.301 369.237, 1049.806 367.743, 1050.280 361.478 C 1050.582 357.493, 1051.507 352.920, 1052.337 351.315 C 1055.296 345.594, 1068.411 334.923, 1073.164 334.369 C 1079.378 333.646, 1079.363 333.714, 1078.529 310.510 C 1077.521 282.445, 1077.465 283.551, 1080.314 274.903 C 1083.012 266.713, 1085.068 255.032, 1085.385 246.086 C 1085.576 240.695, 1086.026 239.848, 1098.301 221.810 L 1111.019 203.120 1115.682 202.420 C 1118.247 202.036, 1124.595 202, 1129.789 202.341 C 1138.737 202.929, 1139.605 202.804, 1146.366 199.960 C 1150.290 198.310, 1155.525 195.392, 1158 193.476 C 1160.475 191.561, 1164.257 188.644, 1166.404 186.994 C 1175.594 179.933, 1181.697 181.155, 1184.909 190.700 C 1188.936 202.667, 1201.093 213.690, 1227.325 229.161 C 1234.080 233.144, 1237.434 239.768, 1240.144 254.478 C 1242.477 267.142, 1236.464 284.340, 1225.960 295.041 C 1217.821 303.333, 1217.728 304.214, 1224.071 312.908 C 1226.944 316.846, 1229.791 319.903, 1230.397 319.701 C 1232.149 319.117, 1234.693 311.180, 1237.566 297.332 C 1240.714 282.161, 1240.396 282.545, 1256.500 274.500 C 1262.550 271.477, 1269.623 267.435, 1272.218 265.516 L 1276.936 262.027 1277.218 250.275 C 1277.560 236.013, 1278.086 235.625, 1286.681 243.294 C 1293.220 249.129, 1303.582 254, 1309.454 254 C 1316.118 254, 1318.017 245.577, 1313.719 235.079 L 1311.500 229.658 1302.364 227.425 C 1291.634 224.803, 1290.148 224.092, 1283.394 218.346 C 1278.754 214.399, 1277.704 213.963, 1271.894 213.569 C 1256.931 212.554, 1248.047 208.506, 1250.819 203.966 C 1252.485 201.238, 1253.619 202.039, 1237.394 194.491 C 1226.205 189.287, 1222.575 187.066, 1218.750 183.088 C 1214.196 178.352, 1212.548 174, 1215.309 174 C 1217.067 174, 1242.081 180.457, 1254.380 184.085 C 1259.901 185.714, 1266.626 187, 1269.622 187 L 1274.984 187 1282.242 177.354 C 1286.234 172.049, 1290.519 166.199, 1291.765 164.354 C 1293.010 162.509, 1294.147 161, 1294.291 161 C 1304.316 161, 1322 155.680, 1322 152.663 C 1322 151.868, 1320.066 149.030, 1317.703 146.358 C 1315.340 143.686, 1310.666 138.125, 1307.317 134 C 1303.968 129.875, 1300.127 125.479, 1298.780 124.232 L 1296.333 121.964 1289.712 124.456 C 1283.593 126.760, 1282.968 126.825, 1281.462 125.319 C 1277.120 120.977, 1277.420 115.266, 1282.038 114.342 L 1284.916 113.767 1282.346 108.633 C 1279.067 102.083, 1275.257 97, 1273.626 97 C 1272.926 97, 1270.225 100.114, 1267.624 103.921 C 1261.878 112.330, 1260.352 113.752, 1258.771 112.171 C 1257.912 111.312, 1258.047 109.693, 1259.313 105.675 C 1260.241 102.732, 1261 100.026, 1261 99.662 C 1261 98.174, 1257.205 99.208, 1252.501 101.977 L 1247.502 104.919 1243.772 101.277 C 1241.179 98.745, 1239.395 95.632, 1237.922 91.067 C 1232.768 75.100, 1226.524 77.909, 1208.853 104.146 L 1201.206 115.500 1202.465 122.164 C 1203.158 125.829, 1203.442 129.285, 1203.096 129.844 C 1202.177 131.332, 1190.345 133.170, 1184.001 132.811 C 1176.571 132.390, 1176.460 130.658, 1183.382 123.128 C 1188.906 117.120, 1192.024 112.017, 1194.554 104.847 C 1196.698 98.769, 1194.669 99.585, 1178.878 111.150 C 1167.385 119.567, 1165.003 115.990, 1175.098 105.476 C 1178.452 101.984, 1180.895 98.639, 1180.527 98.044 C 1180.159 97.449, 1177.640 95.838, 1174.929 94.464 C 1166.938 90.415, 1168.200 88.546, 1181 85.475 C 1192.273 82.769, 1194.548 81.513, 1199.106 75.476 C 1202.145 71.451, 1203.306 68.942, 1203.388 66.226 L 1203.500 62.500 1198.500 62.239 C 1188.620 61.722, 1186 59.377, 1186 51.050 C 1186 46.260, 1186.402 46.369, 1180.325 49.521 C 1174.230 52.683, 1169.775 52.120, 1167.265 47.871 C 1164.693 43.517, 1164.310 43.892, 1161.002 54 C 1160.029 56.972, 1158.774 58.029, 1152.678 61.006 C 1143.423 65.527, 1143.038 67.226, 1149.944 73.050 C 1152.725 75.395, 1155 77.755, 1155 78.295 C 1155 78.836, 1151.625 82.810, 1147.500 87.128 C 1143.375 91.446, 1139.985 95.771, 1139.967 96.739 C 1139.426 125.156, 1139.572 124.570, 1130.334 135.500 C 1121.276 146.217, 1118.055 145.694, 1117.998 133.500 C 1117.980 129.650, 1117.301 123.363, 1116.488 119.528 C 1114.858 111.829, 1115.829 86.535, 1118.102 77.507 C 1118.737 74.986, 1119.075 72.742, 1118.854 72.520 C 1118.632 72.298, 1114.938 76.097, 1110.645 80.961 C 1101.450 91.381, 1087.418 112.201, 1081.977 123.500 C 1079.858 127.900, 1075.351 134.875, 1071.962 139 C 1065.214 147.214, 1062.632 151.659, 1061.507 157 C 1057.345 176.757, 1050.639 185.936, 1046.347 177.750 C 1043.289 171.917, 1043.893 162.073, 1047.628 156.863 C 1053.413 148.796, 1055.823 136.792, 1052.532 132.441 C 1051.724 131.374, 1051.049 129.919, 1051.032 129.208 C 1050.980 127.116, 1063.804 104.087, 1069.129 96.708 C 1074.136 89.770, 1080 79.972, 1080 78.544 C 1080 78.107, 1078.716 78.007, 1077.146 78.321 C 1073.702 79.010, 1072 77.544, 1072 73.889 C 1072 68.838, 1082.205 63.010, 1088.349 64.551 C 1091.541 65.353, 1094.450 62.242, 1095.902 56.473 C 1097.576 49.826, 1097.256 49.217, 1093.945 52.750 C 1088.608 58.444, 1082.776 56.173, 1085.569 49.488 C 1086.706 46.769, 1086.680 45.988, 1085.393 44.151 C 1083.659 41.675, 1082.802 41.590, 1078 43.424 M 965.103 83.804 C 959.253 86.060, 957.025 89.293, 956.312 96.559 C 955.365 106.211, 952.704 107.688, 949.212 100.500 C 946.438 94.789, 944.428 94.778, 941.915 100.459 C 939.231 106.528, 938.676 106.643, 934.400 102.022 C 930.070 97.342, 929.137 97.173, 925.327 100.377 C 923.772 101.685, 919.467 104.130, 915.759 105.811 C 904.698 110.825, 903.582 116.968, 913.719 117.043 L 919.500 117.085 915.250 120.820 C 910.153 125.299, 909.917 127.383, 914.250 129.647 C 922.013 133.705, 937.535 130.759, 946.388 123.548 C 949.360 121.128, 953.553 118.248, 955.707 117.149 C 958.294 115.830, 961.060 113.004, 963.855 108.826 C 966.182 105.347, 969.623 100.577, 971.502 98.226 C 975.367 93.390, 976.785 88.019, 975.147 84.423 C 973.835 81.544, 971.360 81.392, 965.103 83.804 M 966.603 86.477 C 960.926 88.500, 959.838 90.073, 959.084 97.351 C 957.945 108.362, 951.860 111.713, 947.681 103.631 L 945.681 99.762 944.215 102.631 C 940.368 110.163, 938.352 110.551, 933.027 104.784 L 929.134 100.568 926.998 102.534 C 925.823 103.615, 921.648 106.075, 917.720 108 C 908.581 112.480, 908.143 113.807, 915.674 114.198 C 923.260 114.593, 923.824 116.575, 917.940 122.172 C 913.258 126.625, 913.535 127.408, 920.184 128.531 C 928.083 129.866, 939.032 126.162, 947.069 119.436 C 949.506 117.397, 952.746 115.293, 954.269 114.760 C 956.019 114.148, 958.676 111.344, 961.486 107.145 C 963.932 103.490, 967.334 98.866, 969.046 96.868 C 971.005 94.582, 972.363 91.710, 972.711 89.118 C 973.337 84.448, 972.867 84.244, 966.603 86.477 M 985.522 97.327 C 984.002 99.646, 984.011 124.590, 985.532 127.052 C 986.881 129.234, 991.660 127.946, 995 124.500 C 996.866 122.575, 998.945 121, 999.619 121 C 1002.779 121, 1007 115.847, 1007 111.989 C 1007 101.630, 990.211 90.169, 985.522 97.327 M 987.562 98.900 C 987.256 99.395, 987.117 105.468, 987.253 112.396 C 987.526 126.313, 988.268 127.584, 993.076 122.371 C 994.409 120.925, 996.954 119.123, 998.730 118.366 C 1004.217 116.028, 1005.530 112.960, 1003.091 108.178 C 999.461 101.062, 989.795 95.287, 987.562 98.900 M 972.255 112.250 C 971.710 112.938, 970.516 115.796, 969.601 118.601 C 967.068 126.370, 966.304 127.002, 957.608 128.512 C 953.316 129.257, 948.948 130.642, 947.902 131.589 C 944.616 134.562, 945.755 140.368, 950.906 146.894 C 952.471 148.877, 954.072 152.410, 954.463 154.745 C 956.003 163.940, 958.882 162.093, 975.894 141 L 979.287 136.793 978.649 127.062 C 977.747 113.294, 975.518 108.130, 972.255 112.250 M 972.990 117.250 C 972.985 117.938, 971.917 120.784, 970.617 123.576 C 968.019 129.155, 965.985 130.388, 957.500 131.526 C 947.620 132.852, 946.752 135.406, 953 144.762 C 955.200 148.057, 957 151.906, 957 153.317 C 957 157.908, 958.773 157.159, 964.686 150.068 C 974.941 137.772, 977.057 134.760, 976.603 133.113 C 976.359 132.226, 975.859 128.012, 975.494 123.750 C 975.128 119.487, 974.418 116, 973.915 116 C 973.412 116, 972.996 116.563, 972.990 117.250 M 931.823 145.709 C 924.551 146.822, 926.012 150.641, 936.559 158.090 C 940.771 161.066, 945.069 164.117, 946.109 164.872 C 948.155 166.356, 951 165.010, 951 162.559 C 951 159.082, 947.615 150.799, 945.088 148.094 C 942.144 144.943, 939.702 144.504, 931.823 145.709 M 931.580 148.893 C 929.938 149.536, 930.519 150.242, 935.580 153.745 C 938.836 156, 943.041 159.118, 944.925 160.673 L 948.349 163.500 947.663 160.069 C 947.286 158.181, 945.839 154.694, 944.447 152.319 C 942.082 148.284, 941.639 148.005, 937.708 148.070 C 935.394 148.109, 932.636 148.479, 931.580 148.893 M 797.570 158.923 C 795.103 161.648, 795.216 166.700, 798 178.151 C 801.043 190.674, 801.710 191.353, 810.346 190.740 C 818.209 190.181, 820.652 188.476, 821.971 182.627 C 823.302 176.726, 822.412 175.262, 816.440 173.526 C 810.474 171.791, 808.259 169.413, 807.351 163.769 C 806.397 157.844, 800.977 155.158, 797.570 158.923 M 798.820 162.496 C 797.907 164.499, 798.128 166.807, 799.936 174.179 C 803.439 188.464, 803.133 188, 809.041 188 C 815.566 188, 817.556 186.875, 819.052 182.341 C 820.431 178.165, 818.785 176, 814.232 176 C 810.903 176, 806.424 171.166, 804.889 165.917 C 803.024 159.540, 800.751 158.259, 798.820 162.496 M 777.560 164.250 C 776.464 166.914, 773.771 175.543, 772.452 180.622 C 772.292 181.239, 770.110 182.736, 767.604 183.950 C 760.383 187.445, 755.867 194, 760.679 194 C 763.719 194, 780.888 182.918, 782.876 179.673 C 784.848 176.453, 784.713 165.545, 782.661 162.250 C 781.266 160.012, 778.927 160.929, 777.560 164.250 M 843.754 164.389 C 837.929 168.811, 836.051 172.918, 836.155 181.002 C 836.211 185.289, 836.536 189.232, 836.878 189.764 C 837.756 191.131, 849.078 191.908, 851.585 190.773 C 852.731 190.254, 854.479 188.459, 855.469 186.783 C 858.476 181.693, 856.572 166.418, 852.600 163.765 C 850.832 162.585, 845.650 162.950, 843.754 164.389 M 777.403 173.537 C 774.413 183.127, 774.541 184.082, 778.343 180.558 C 780.698 178.376, 781 177.351, 781 171.548 C 781 167.946, 780.790 165, 780.532 165 C 780.275 165, 778.867 168.842, 777.403 173.537 M 842.434 169.750 C 839.060 173.403, 838.978 173.691, 839.235 180.911 L 839.500 188.323 844.651 188.581 C 853.685 189.034, 856.587 182.742, 853.107 170.250 C 851.485 164.430, 847.520 164.244, 842.434 169.750 M 633.287 291.250 C 630.502 294.688, 627.478 299.300, 626.567 301.500 C 625.655 303.700, 623.495 307.267, 621.766 309.427 C 617.710 314.492, 610.550 330.950, 611.841 332.241 C 613.358 333.758, 619.799 330.144, 622.771 326.109 C 624.234 324.124, 627.762 320.250, 630.613 317.500 C 640.012 308.434, 647.024 290.424, 642.800 286.200 C 640.491 283.891, 638.310 285.049, 633.287 291.250 M 635.646 292.754 C 633.527 295.364, 630.302 300.451, 628.481 304.058 C 626.659 307.664, 624.383 311.264, 623.423 312.058 C 621.893 313.322, 618.611 319.747, 615.905 326.778 C 614.511 330.399, 618.446 327.795, 621.624 322.992 C 623.051 320.835, 625.762 317.893, 627.647 316.455 C 635.253 310.654, 645.245 287.975, 640.183 288.004 C 639.807 288.006, 637.766 290.143, 635.646 292.754 M 592.762 327.973 C 588.880 331.026, 586.594 337.879, 587.408 344.019 C 588.266 350.488, 587.579 351.488, 584.061 348.887 C 578.841 345.027, 575.055 349.282, 571.498 363.006 C 569.319 371.418, 571.248 376.021, 575.039 371.453 C 575.745 370.603, 577.652 368.960, 579.276 367.803 L 582.230 365.700 581.525 367.920 C 580.978 369.646, 581.274 370.259, 582.857 370.673 C 584.888 371.204, 584.888 371.216, 582.947 374.838 C 580.804 378.837, 580.565 380.764, 581.944 382.943 C 583.249 385.007, 586.125 383.493, 598.038 374.471 C 609.446 365.832, 609.813 365.093, 608.151 354.090 C 607.520 349.916, 607.290 344.146, 607.639 341.268 C 608.223 336.461, 608.090 335.969, 606.008 335.199 C 604.761 334.738, 602.542 332.594, 601.076 330.435 C 597.889 325.742, 596.224 325.249, 592.762 327.973 M 594.327 330.469 C 591.353 332.572, 589.634 338.314, 590.370 343.684 C 591.200 349.740, 588.878 355.540, 586.197 354.106 C 585.173 353.558, 583.755 352.410, 583.045 351.555 C 580.144 348.058, 578.377 350.208, 574.876 361.500 C 572.390 369.515, 572.430 369.615, 576.750 366.229 C 582.354 361.837, 584.487 360.887, 585.800 362.200 C 586.582 362.982, 586.599 363.880, 585.861 365.261 C 585.124 366.637, 585.138 367.538, 585.907 368.307 C 587.434 369.834, 587.269 372.579, 585.439 376.117 C 582.603 381.602, 584.396 381.096, 594.429 373.578 C 606.857 364.266, 607.047 363.929, 605.357 354.211 C 604.631 350.036, 604.310 344.914, 604.643 342.828 C 605.169 339.542, 604.865 338.667, 602.362 336.268 C 600.774 334.746, 598.805 332.472, 597.987 331.216 C 596.607 329.096, 596.344 329.043, 594.327 330.469 M 585.114 465.649 C 583.510 469.169, 581.033 479.804, 581.015 483.250 C 580.994 487.195, 584.409 490.387, 587.108 488.942 C 593.254 485.653, 594.195 463, 588.185 463 C 587.139 463, 585.791 464.163, 585.114 465.649 M 585.622 473.456 C 583.146 483.311, 583.775 489.386, 586.884 485.640 C 589.566 482.408, 590.497 467, 588.010 467 C 587.588 467, 586.513 469.905, 585.622 473.456 M 478.043 658.448 C 477.382 659.244, 476.516 662.282, 476.118 665.198 C 475.637 668.717, 474.150 672.440, 471.697 676.269 C 465.586 685.807, 466.580 687.010, 475.700 681.116 C 482.348 676.818, 486 671.072, 486 664.907 C 486 658.684, 481.129 654.730, 478.043 658.448 M 479.623 661.540 C 479.280 662.433, 478.995 664.589, 478.988 666.332 C 478.981 668.074, 477.856 671.458, 476.488 673.852 C 473.399 679.256, 473.402 679.438, 476.558 677.370 C 480.134 675.027, 483.179 668.638, 482.806 664.257 C 482.479 660.412, 480.654 658.854, 479.623 661.540 M 449.215 713.473 C 445.920 716.245, 442.937 721.673, 443.666 723.572 C 444.839 726.630, 455.258 725.735, 457.723 722.364 C 460.495 718.573, 458.027 711, 454.020 711 C 452.993 711, 450.831 712.113, 449.215 713.473 M 449.630 717.028 C 445.188 722.306, 446.902 724.509, 453.498 722.001 C 455.703 721.163, 456.076 720.478, 455.813 717.759 C 455.393 713.406, 452.923 713.114, 449.630 717.028 M 303.693 917.364 C 301.278 919.712, 297.884 922.220, 296.151 922.938 C 292.730 924.355, 291.995 927.243, 294.265 930.347 C 295.861 932.531, 301.524 930.799, 308.511 925.992 C 313.512 922.552, 313.372 922.880, 311.975 917.849 C 310.510 912.575, 308.728 912.470, 303.693 917.364 M 306.269 918.941 C 305.602 920.009, 303.019 922.077, 300.528 923.536 C 295.816 926.298, 294.750 928.007, 297.750 927.991 C 299.931 927.979, 310 922.283, 310 921.062 C 310 919.555, 308.826 917, 308.134 917 C 307.775 917, 306.936 917.874, 306.269 918.941 M 317 932.500 C 311.390 935.437, 309.505 935.910, 303.236 935.951 L 295.972 936 290.978 941.250 C 280.893 951.854, 284.699 957.808, 298.864 953.586 C 301.964 952.662, 307.847 951.020, 311.939 949.938 C 322.749 947.077, 327.443 944.024, 329.561 938.479 C 333.227 928.881, 328.348 926.559, 317 932.500 M 318 935 C 311.524 938.368, 309.586 938.908, 303.805 938.951 C 297.165 939, 297.075 939.037, 292.805 943.593 C 290.437 946.119, 288.500 948.932, 288.500 949.843 C 288.500 952.196, 294.054 952.520, 299.824 950.503 C 302.396 949.604, 307.813 948.004, 311.862 946.947 C 321.414 944.453, 325.567 941.843, 327.028 937.417 C 328.165 933.971, 327.811 930.953, 326.281 931.049 C 325.852 931.077, 322.125 932.854, 318 935 M 270.127 953.478 C 263.986 960.140, 264.951 962.966, 274.035 964.914 C 280.853 966.376, 283.149 966.284, 285.777 964.443 C 288.422 962.591, 288.548 960.985, 286.383 956.700 C 281.735 947.501, 276.579 946.479, 270.127 953.478 M 272.974 954.790 C 267.950 959.814, 267.996 960.510, 273.443 961.881 C 284.160 964.580, 287.159 962.525, 282.386 955.753 C 278.510 950.253, 277.604 950.160, 272.974 954.790 M 175.500 1053.600 C 173.300 1054.431, 169.475 1055.649, 167 1056.306 C 162.551 1057.486, 162.497 1057.553, 162.199 1062.160 C 161.861 1067.391, 164.157 1074, 166.311 1074 C 167.089 1074, 169.424 1072.650, 171.500 1071 C 173.576 1069.350, 175.855 1068, 176.565 1068 C 180.390 1068, 185.008 1054.886, 181.880 1052.905 C 180.146 1051.806, 180.284 1051.791, 175.500 1053.600 M 174.500 1057 C 172.300 1058.063, 169.311 1058.947, 167.857 1058.966 C 164.460 1059.010, 163.732 1061.051, 165.132 1066.609 C 166.217 1070.921, 166.329 1071.021, 168.378 1069.540 C 169.545 1068.696, 172.138 1067.120, 174.140 1066.039 C 177.529 1064.207, 180 1060.122, 180 1056.351 C 180 1054.595, 179.310 1054.677, 174.500 1057 M 146.223 1075.557 C 143.477 1077.479, 143.416 1079.934, 145.986 1084.972 C 149.418 1091.699, 150.415 1091.358, 152.017 1082.912 C 152.855 1078.492, 152.750 1077.382, 151.350 1075.835 C 149.333 1073.605, 149.032 1073.589, 146.223 1075.557 M 147.519 1077.970 C 147.130 1078.599, 147.135 1080.326, 147.529 1081.807 L 148.247 1084.500 149.236 1081.662 C 150.287 1078.646, 148.919 1075.704, 147.519 1077.970 M 131 1107.540 C 131 1109.248, 135.246 1116, 136.320 1116 C 138.249 1116, 140 1113.859, 140 1111.500 C 140 1110.345, 139.460 1108.860, 138.800 1108.200 C 137.629 1107.029, 131 1106.468, 131 1107.540" stroke="none" fill="#111111" fill-rule="evenodd"/>
</svg>