<svg xmlns="http://www.w3.org/2000/svg" width="1500" height="1500" viewBox="0 0 1500 1500" version="1.1">
	<path d="M 1173.566 183.439 C 1163.232 188.625, 1159.744 191.712, 1152.294 202.265 C 1146.289 210.771, 1144.717 212.019, 1140.394 211.708 C 1135.951 211.389, 1136.229 214.360, 1142.458 233.779 C 1145.506 243.283, 1148 251.743, 1148 252.581 C 1148 253.418, 1145.518 259.142, 1142.485 265.301 C 1139.451 271.461, 1136.031 280.266, 1134.884 284.868 L 1132.798 293.236 1134.946 296.141 L 1137.095 299.047 1129.253 307.274 C 1124.940 311.798, 1118.666 319.100, 1115.312 323.500 C 1103.111 339.504, 1101.256 340.348, 1087.597 336.112 C 1078.868 333.404, 1076.614 334.419, 1075.546 341.539 C 1074.307 349.802, 1068.994 367.220, 1064.358 378.217 C 1059.240 390.357, 1059.205 391.548, 1063.869 394.690 C 1068.750 397.980, 1073.387 398.559, 1079.480 396.638 C 1086.417 394.451, 1089.096 394.562, 1099.021 397.447 C 1103.651 398.793, 1107.677 399.654, 1107.969 399.359 C 1108.261 399.064, 1108.500 396.512, 1108.500 393.687 C 1108.500 387.181, 1109.612 386.880, 1118.774 390.901 C 1123.669 393.049, 1128.047 394.124, 1133.886 394.611 C 1143.227 395.390, 1145.242 396.531, 1150.159 403.826 C 1151.891 406.397, 1156.614 412.609, 1160.654 417.631 C 1164.694 422.653, 1168 427.317, 1168 427.996 C 1168 429.626, 1159.939 428.642, 1146.087 425.319 C 1129.722 421.395, 1129.947 421.307, 1111.389 438.811 C 1102.828 446.886, 1093.858 456.248, 1091.455 459.615 C 1082.053 472.791, 1074.560 477.283, 1059.679 478.666 C 1052.108 479.370, 1052.262 479.218, 1049.940 488.298 C 1048.346 494.530, 1043.761 500.784, 1039.470 502.577 C 1034.645 504.593, 1022.070 504.318, 1012 501.975 C 990.246 496.915, 985.595 496.962, 981.636 502.279 L 979.566 505.058 981.955 512.075 C 983.269 515.934, 987.866 526.325, 992.172 535.166 C 996.477 544.007, 1000 551.353, 1000 551.490 C 1000 551.628, 997.862 552.322, 995.250 553.034 C 988.213 554.950, 980.274 558.598, 973.378 563.085 C 961.957 570.516, 930.274 583.143, 911.041 587.930 C 906.673 589.018, 893.739 593.652, 882.299 598.230 L 861.500 606.553 859.262 610.965 C 858.030 613.392, 856.611 615.789, 856.107 616.293 C 854.482 617.918, 844.813 617.132, 832 614.334 C 820.661 611.858, 817.503 611.596, 798 611.517 C 775.294 611.424, 771.795 610.869, 761.500 605.729 C 756.333 603.149, 755.913 602.399, 756.611 596.992 C 757.494 590.154, 756.048 589.359, 741.500 588.685 C 734.900 588.380, 723.940 587.595, 717.143 586.940 C 706.424 585.909, 702.994 585.985, 691.254 587.514 C 680.709 588.887, 675.377 589.090, 667.110 588.431 C 661.275 587.966, 650.377 587.723, 642.894 587.892 C 620.665 588.395, 620.628 588.355, 612.990 555.848 C 609.168 539.584, 604.156 528.518, 599.246 525.500 C 597.456 524.400, 589.027 518.933, 580.515 513.351 C 557.782 498.444, 553.196 496.720, 534.439 496.031 C 518.313 495.439, 514.870 494.418, 513.074 489.695 C 511.848 486.471, 508.996 469.215, 509.447 467.752 C 509.659 467.063, 510.106 465.256, 510.439 463.737 C 510.955 461.385, 511.414 461.066, 513.522 461.595 C 517.030 462.475, 516.968 462.067, 509.091 432.465 C 495.456 381.228, 495.756 381.714, 479.933 385.108 C 472.727 386.653, 471.288 385.679, 465.570 375.380 C 459.046 363.629, 447.347 344.991, 444.973 342.568 C 443.105 340.661, 443.034 340.685, 439.629 344.294 C 437.731 346.307, 434.571 351.339, 432.607 355.477 C 429.134 362.795, 428.938 363, 425.422 363 C 423.434 363, 419.264 363.689, 416.154 364.530 C 413.044 365.372, 408.815 366.514, 406.756 367.069 C 400.844 368.660, 399.713 371.880, 399.056 389 L 398.500 403.500 393.500 404.851 C 390.750 405.594, 383.550 406.268, 377.500 406.350 C 363.575 406.539, 360.021 405.062, 350.484 395.129 C 339.342 383.524, 338.015 384.485, 328.490 411.066 C 322.880 426.718, 320.709 430.500, 315.615 433.486 C 310.458 436.508, 309.673 438.594, 311.459 444.529 C 312.181 446.930, 312.604 449.062, 312.399 449.268 C 311.914 449.752, 290.358 447.407, 286.687 446.470 C 284.085 445.805, 266.660 447.208, 257.604 448.811 C 251.158 449.951, 251.011 451.516, 256.317 462.491 C 261.624 473.468, 262.003 476.716, 258.981 485.315 C 257.050 490.808, 257.032 491.334, 258.578 497.280 C 261.281 507.675, 260.035 511.085, 246.268 530.967 C 241.494 537.862, 230.903 543.712, 210.922 550.491 C 197.017 555.209, 194.766 556.626, 190.659 563.250 C 187.967 567.592, 183.210 566.598, 163.761 557.629 L 156.022 554.060 151.761 558.113 C 142.876 566.563, 130.502 572.865, 126.044 571.209 C 124.994 570.819, 123.070 568.925, 121.769 567 C 119.583 563.766, 119.027 563.505, 114.451 563.572 C 102.950 563.740, 79.763 566.005, 77.288 567.203 C 74.422 568.590, 64.450 580.863, 62.842 584.982 C 61.264 589.025, 62.882 601.946, 65.209 603.880 C 74.365 611.490, 80.048 620.332, 80.225 627.244 C 80.319 630.931, 77.629 647.565, 76.497 650.293 C 75.701 652.211, 70.255 655.294, 65.750 656.377 C 61.010 657.516, 62.512 660.128, 71.284 665.999 C 89.021 677.869, 91.594 682.271, 91.271 700.189 L 91.042 712.878 101.271 719.599 C 106.897 723.296, 114.320 727.606, 117.766 729.177 C 121.213 730.749, 125.812 733.642, 127.986 735.606 C 130.160 737.571, 134.315 740.376, 137.220 741.841 C 143.594 745.056, 143.966 746.460, 141.020 756.161 C 138.155 765.592, 138.773 767.698, 146.472 774.754 L 152.794 780.547 149.897 783.789 C 146.118 788.018, 146.129 792.077, 149.949 803.038 C 155.431 818.771, 155.050 828.170, 148.775 831.996 C 144.313 834.716, 142.082 834.517, 137.836 831.016 C 127.309 822.339, 121.114 826.144, 124.404 839.264 C 125.282 842.764, 126 847.547, 126 849.894 C 126 857.597, 134.869 876.250, 143.218 886.107 C 147.128 890.723, 152.520 897.511, 155.201 901.192 C 157.882 904.872, 164.096 911.668, 169.009 916.293 L 177.943 924.703 185.222 924.303 C 193.275 923.859, 191.581 923.199, 216.308 936.425 C 230.735 944.141, 236.704 951.479, 241.122 966.925 C 243.705 975.958, 245.365 977.413, 248.627 973.500 C 250.003 971.850, 252.542 968.925, 254.270 967 L 257.411 963.500 257.702 966 C 260.096 986.546, 259.997 986.205, 264.905 990.833 C 276.150 1001.436, 286.048 1006.404, 303 1009.954 C 311.260 1011.684, 314.781 1012.981, 319.504 1016.034 C 328.282 1021.707, 338.840 1023.583, 373.500 1025.629 C 384.232 1026.263, 388 1027.463, 388 1030.247 C 388 1031.349, 385.698 1036.652, 382.885 1042.031 C 377.812 1051.732, 376.757 1056.100, 380.356 1052.502 C 381.327 1051.530, 385.453 1045.917, 389.525 1040.028 C 396.908 1029.350, 403.849 1021.937, 408.409 1019.859 C 410.523 1018.896, 411.764 1019.387, 418.657 1023.915 C 428.291 1030.242, 432.580 1031.691, 437.056 1030.130 C 442.250 1028.320, 446.064 1028.793, 453 1032.110 C 478.729 1044.414, 495.578 1043.426, 511.983 1028.651 C 519.890 1021.529, 524.251 1019.003, 528.651 1018.994 C 533.903 1018.984, 539.017 1016.922, 544.278 1012.694 C 547.150 1010.386, 552.348 1006.761, 555.830 1004.639 L 562.160 1000.779 564.879 1003.384 C 567.933 1006.310, 568.869 1006.427, 581.500 1005.459 C 590.248 1004.788, 590.565 1004.840, 592.835 1007.289 C 596.871 1011.646, 597.608 1022.879, 594.499 1032.665 C 593.584 1035.544, 596.767 1037.606, 604 1038.822 C 607.025 1039.330, 613.449 1040.550, 618.276 1041.534 C 625.485 1043.003, 628.253 1043.137, 633.776 1042.282 C 637.474 1041.709, 640.817 1041.526, 641.204 1041.875 C 641.591 1042.223, 642.907 1046.331, 644.127 1051.004 C 646.807 1061.270, 646.408 1060.718, 656.036 1067.465 C 668.134 1075.942, 668.264 1077.755, 658.599 1103.316 C 655.649 1111.117, 652.256 1121.100, 651.058 1125.500 C 647.670 1137.953, 643.547 1143.876, 635.756 1147.487 C 631.488 1149.465, 627.345 1153.849, 623.430 1160.530 C 620.604 1165.351, 618.315 1182.151, 620.151 1184.584 C 620.729 1185.349, 624.583 1184.993, 633.235 1183.375 C 639.981 1182.114, 648.087 1181.063, 651.250 1181.041 L 657 1181 657 1185.318 C 657 1190.173, 658.797 1196.849, 663.172 1208.250 L 666.145 1216 670.573 1216 C 675.774 1216, 676.077 1216.972, 672.847 1223.290 C 670.480 1227.921, 668.030 1236.247, 668.012 1239.727 C 667.995 1242.961, 671.832 1244.997, 680.185 1246.185 C 689.227 1247.470, 691.299 1248.718, 692.819 1253.789 C 694.153 1258.244, 701.004 1265.712, 704.579 1266.609 C 706.368 1267.058, 707.589 1266.399, 709.949 1263.711 C 715.674 1257.190, 719.602 1258.460, 723.063 1267.952 C 726.391 1277.080, 727.741 1277.917, 739.639 1278.233 C 755.525 1278.655, 756.895 1275.404, 747 1260.760 C 738.454 1248.111, 738.743 1246.669, 750.641 1242.622 C 759.599 1239.575, 765.817 1236.420, 769.301 1233.154 L 772.101 1230.529 777.657 1236.264 C 785.439 1244.298, 788.662 1243.755, 795.108 1233.326 C 797.627 1229.249, 798.516 1229.222, 806 1233 C 813.315 1236.692, 815.290 1236.745, 817.789 1233.315 L 819.744 1230.631 826.818 1231.966 C 838.016 1234.079, 840.393 1231.578, 843.467 1214.448 C 846.346 1198.405, 846.772 1198.261, 856.123 1210.156 C 859.586 1214.561, 863.562 1218.748, 864.959 1219.461 C 870.147 1222.106, 881.342 1223.939, 888.597 1223.331 C 896.696 1222.652, 900 1223.827, 900 1227.385 C 900 1229.747, 894.671 1238, 893.147 1238 C 892.684 1238, 891.852 1239.013, 891.297 1240.250 C 890.481 1242.073, 890.926 1243.701, 893.645 1248.833 C 895.490 1252.316, 897 1255.749, 897 1256.461 C 897 1259.509, 899.911 1260.397, 906.318 1259.303 C 911.077 1258.490, 914.803 1258.585, 922.500 1259.715 C 937.925 1261.978, 942.593 1261.315, 950.828 1255.687 C 954.602 1253.109, 958.056 1251, 958.504 1251 C 958.952 1251, 961.848 1253.412, 964.938 1256.359 L 970.557 1261.719 983.778 1262.450 C 991.050 1262.852, 997 1263.295, 997 1263.434 C 997 1263.573, 996.100 1266.303, 995 1269.500 C 991.043 1281.002, 993.232 1291.404, 1001.514 1300.446 L 1004.740 1303.967 1009.356 1302.394 C 1013.794 1300.882, 1019 1296.156, 1019 1293.639 C 1019 1292.974, 1018.158 1289.971, 1017.129 1286.965 C 1013.334 1275.882, 1013.343 1275.833, 1020.288 1269.143 C 1029.320 1260.442, 1040.953 1251.011, 1047.570 1247.026 C 1053.099 1243.695, 1053.694 1243.561, 1061.919 1243.801 C 1069.729 1244.029, 1071.084 1243.773, 1077 1240.948 C 1081.556 1238.773, 1085.594 1237.678, 1090.500 1237.286 C 1099.073 1236.602, 1100.776 1235.779, 1102.585 1231.452 C 1104.948 1225.796, 1103.859 1215.798, 1099.421 1202.395 C 1098.811 1200.553, 1103.771 1205.469, 1113.041 1215.894 C 1118.480 1222.011, 1121.197 1222.489, 1123.588 1217.750 C 1128.133 1208.744, 1133.435 1206.523, 1153.664 1205.152 L 1166.827 1204.260 1174.880 1198.585 C 1179.309 1195.464, 1185.910 1191.170, 1189.549 1189.043 C 1195.555 1185.534, 1197.591 1183.344, 1211.584 1165.344 C 1222.137 1151.769, 1227.510 1143.979, 1228.614 1140.657 C 1230.420 1135.219, 1233.191 1133.482, 1242.375 1132.030 C 1250.197 1130.793, 1253 1125.109, 1253 1110.480 C 1253 1104.938, 1254.028 1101.310, 1260.500 1084 C 1265.564 1070.457, 1268 1062.544, 1268 1059.638 C 1268 1055.762, 1268.372 1055.095, 1271.750 1052.918 C 1276.992 1049.538, 1286.468 1030.291, 1297.894 999.817 C 1298.809 997.374, 1299.196 997.209, 1302.200 997.970 C 1304.015 998.430, 1306.806 999.100, 1308.403 999.460 L 1311.305 1000.115 1310.665 991.817 C 1310.227 986.133, 1310.503 980.972, 1311.541 975.431 C 1312.567 969.959, 1312.967 962.683, 1312.778 952.945 L 1312.500 938.548 1303.040 936.354 L 1293.580 934.160 1286.982 938.080 C 1283.353 940.236, 1280.072 942, 1279.692 942 C 1279.311 942, 1279 939.796, 1279 937.103 C 1279 932.291, 1279.124 932.096, 1286.096 925.915 C 1297.256 916.020, 1297.239 914.275, 1285.867 903.485 C 1274.477 892.677, 1268.797 886.869, 1269.212 886.455 C 1269.420 886.247, 1274.295 887.597, 1280.045 889.456 C 1295.716 894.522, 1297.768 894.772, 1298.537 891.711 C 1299.313 888.617, 1297.266 884.535, 1292.835 880.346 C 1287.296 875.109, 1273.878 865.910, 1267.500 862.977 C 1259.276 859.196, 1254.530 852.342, 1254.437 844.113 C 1254.385 839.515, 1253.593 837.002, 1250.058 830.217 C 1243.538 817.702, 1239.624 815.162, 1223.437 812.944 C 1219.072 812.346, 1214.487 811.204, 1213.250 810.405 C 1208.461 807.316, 1211.515 796.830, 1220.917 784.075 C 1226.631 776.323, 1230.872 768.077, 1233.942 758.750 C 1236.088 752.227, 1236.274 752, 1239.467 752 C 1243.348 752, 1244.564 750.460, 1248.088 741.084 C 1250.371 735.011, 1250.902 734.409, 1258 729.834 C 1264.700 725.516, 1266.101 725, 1271.131 725 C 1276.425 725, 1276.928 724.783, 1279.517 721.389 C 1285.087 714.086, 1283.466 703.873, 1276.188 700.419 C 1272.593 698.713, 1272.314 698.740, 1259.754 701.987 C 1247.501 705.155, 1246.473 705.263, 1234.696 704.609 L 1222.416 703.926 1215.046 714.502 C 1199.190 737.254, 1194.331 736.531, 1191.513 711 C 1190.599 702.723, 1189.006 701.275, 1177.738 698.484 C 1172.424 697.168, 1166.661 695.359, 1164.931 694.464 C 1160.472 692.158, 1153.786 685.192, 1151.597 680.571 C 1148.554 674.146, 1149.591 673.547, 1164.336 673.220 L 1176.958 672.941 1183.123 665.777 C 1188.303 659.759, 1197.301 646.815, 1204.756 634.657 C 1205.715 633.093, 1208.660 630.143, 1211.299 628.102 C 1215.099 625.163, 1216.897 622.673, 1219.932 616.145 C 1222.041 611.611, 1224.003 607.664, 1224.293 607.374 C 1225.346 606.321, 1239.595 603.034, 1243.179 603.017 C 1251.181 602.980, 1251.584 606.471, 1246 627.500 C 1243.809 635.750, 1242.013 644.556, 1242.009 647.068 C 1241.998 652.801, 1244.647 661.927, 1246.531 662.650 C 1247.417 662.990, 1252.772 658.655, 1260.727 651.156 C 1281.462 631.611, 1289.419 625.828, 1300.246 622.437 C 1307.448 620.181, 1308.980 618.444, 1312.528 608.504 C 1315.521 600.120, 1316.800 598.565, 1333.223 583.343 C 1340.067 577, 1342.511 571.079, 1343.903 557.467 C 1344.449 552.134, 1345.075 547.592, 1345.295 547.371 C 1345.515 547.151, 1348.168 548.103, 1351.189 549.486 C 1361.037 553.995, 1382.918 556.314, 1389.532 553.551 C 1394.096 551.644, 1394.074 548.972, 1389.421 539.981 C 1387.453 536.177, 1386.107 532.635, 1386.432 532.110 C 1386.756 531.585, 1389.829 530.214, 1393.261 529.062 C 1403.057 525.775, 1413.281 519.818, 1414.932 516.435 C 1417.153 511.884, 1417.462 503.803, 1415.621 498.401 C 1414.733 495.794, 1414.224 493.443, 1414.491 493.176 C 1414.758 492.909, 1418.558 494.560, 1422.937 496.845 C 1427.316 499.130, 1431.473 501, 1432.175 501 C 1432.877 501, 1436.971 497.288, 1441.274 492.750 L 1449.096 484.500 1448.748 478.208 C 1448.442 472.675, 1447.453 470.049, 1440.551 456.442 C 1432.787 441.136, 1432.692 440.857, 1431.821 430.734 C 1430.768 418.493, 1431.119 416.717, 1435.571 411.790 C 1437.457 409.702, 1439 406.946, 1439 405.664 C 1439 402.076, 1439.643 401.997, 1447.248 404.654 C 1454.683 407.252, 1457.281 407.172, 1461.803 404.210 C 1463.230 403.275, 1466.670 401.607, 1469.449 400.505 C 1477.970 397.123, 1478.715 394.398, 1476.093 376.193 C 1472.851 353.682, 1472.591 347.009, 1474.389 332.460 C 1477.110 310.435, 1475.955 300.802, 1469.864 294.710 C 1464.618 289.464, 1456.044 292.385, 1451 301.137 C 1446.886 308.274, 1438.951 315.362, 1427.392 322.223 C 1409.580 332.796, 1411.531 332.242, 1404 328.867 L 1397.500 325.955 1397.430 321.137 C 1397.291 311.470, 1387.946 302.496, 1373.707 298.356 C 1369.354 297.091, 1363.702 294.842, 1361.147 293.360 C 1348.366 285.945, 1349.194 286.160, 1335.660 286.744 L 1323.247 287.280 1317.078 279.518 C 1313.686 275.249, 1309.835 269.673, 1308.522 267.128 C 1307.208 264.582, 1300.129 255.007, 1292.790 245.849 C 1281.065 231.218, 1278.521 227.337, 1271.812 213.849 C 1260.997 192.106, 1263.302 193.500, 1238.169 193.500 L 1217.500 193.500 1207.467 188.764 C 1199.985 185.232, 1184.068 179, 1182.530 179 C 1182.465 179, 1178.431 180.998, 1173.566 183.439 M 1174.138 186.450 C 1164.152 191.693, 1161.455 194.107, 1154.390 204.122 C 1147.917 213.298, 1147.011 214.105, 1143.069 214.217 C 1139.118 214.329, 1139.054 213.814, 1145.500 233.910 C 1148.525 243.342, 1151 251.829, 1151 252.771 C 1151 253.712, 1148.516 259.437, 1145.481 265.491 C 1142.423 271.590, 1139.046 280.180, 1137.909 284.751 L 1135.857 293.003 1137.906 295.608 C 1140.543 298.960, 1139.904 300.221, 1130.620 310 C 1126.704 314.125, 1120.132 321.838, 1116.016 327.141 C 1104.610 341.834, 1100.977 343.318, 1087.076 338.961 C 1083.543 337.853, 1080.307 337.297, 1079.885 337.724 C 1079.463 338.151, 1078.213 342.651, 1077.109 347.724 C 1074.574 359.365, 1069.019 376.038, 1065.069 383.864 L 1062.029 389.885 1065.005 392.004 C 1069.204 394.994, 1074.010 395.525, 1079.605 393.619 C 1085.799 391.508, 1089.028 391.577, 1097.500 394 C 1101.346 395.100, 1104.608 396, 1104.747 396 C 1104.886 396, 1105 394.425, 1105 392.500 C 1105 388.766, 1107.803 385, 1110.582 385 C 1111.453 385, 1115.349 386.397, 1119.240 388.105 C 1124.404 390.372, 1128.425 391.355, 1134.124 391.746 C 1143.880 392.415, 1146.574 393.989, 1152.741 402.623 C 1155.358 406.288, 1160.537 413.072, 1164.250 417.698 C 1167.963 422.324, 1171 426.996, 1171 428.079 C 1171 432.418, 1163.164 432.406, 1144.947 428.039 C 1135.318 425.731, 1131.398 425.552, 1128.397 427.285 C 1124.238 429.688, 1097.876 455.589, 1094.074 461.011 C 1084.988 473.963, 1076.589 479.342, 1062.507 481.226 C 1055.442 482.171, 1054 482.666, 1054 484.145 C 1054 487.524, 1049.786 497.174, 1046.851 500.517 C 1040.393 507.873, 1026.082 508.936, 1005.737 503.573 C 993.914 500.457, 988.110 500.276, 984.861 502.924 L 982.500 504.847 984.842 511.674 C 986.130 515.428, 990.742 525.878, 995.092 534.896 C 999.441 543.914, 1003 551.884, 1003 552.608 C 1003 553.331, 1001.087 554.405, 998.750 554.995 C 991.022 556.945, 983.569 560.044, 978.392 563.461 C 964.619 572.550, 935.530 584.465, 912.396 590.495 C 907.388 591.800, 894.338 596.463, 883.396 600.858 C 863.597 608.809, 863.490 608.868, 861.380 613.093 C 860.213 615.427, 858.440 617.936, 857.438 618.669 C 854.678 620.687, 845.587 620.275, 832.332 617.529 C 814.886 613.914, 805.139 613.041, 794.078 614.103 C 780.319 615.423, 774.333 614.431, 761.730 608.741 C 754.436 605.449, 753.757 604.431, 753.587 596.532 L 753.500 592.500 748.500 592.276 C 745.750 592.153, 735.011 591.285, 724.636 590.347 C 706.540 588.711, 705.145 588.717, 690.353 590.502 C 677.075 592.103, 673.376 592.202, 663.717 591.211 C 657.548 590.578, 648.410 590.334, 643.411 590.668 C 630.508 591.530, 625.672 590.602, 620.982 586.365 C 616.566 582.375, 615.865 580.466, 610.491 557.803 C 606.175 539.602, 602.190 530.557, 597.147 527.520 C 595.304 526.409, 588.148 521.735, 581.246 517.134 C 574.344 512.532, 564.386 506.682, 559.116 504.134 L 549.535 499.500 534.518 498.953 C 513.367 498.183, 511.279 496.858, 508.524 482.462 C 505.903 468.767, 506.772 459.785, 510.867 458.223 C 512.661 457.539, 512.447 456.296, 506.862 435 C 500.278 409.892, 494.329 390.143, 492.779 388.250 C 491.514 386.706, 487.045 386.656, 479.823 388.107 C 472.004 389.677, 469.609 388.190, 464.112 378.352 C 456.970 365.571, 443.955 345, 443.011 345 C 441.582 345, 438.155 350.411, 434.488 358.456 L 431.050 366 425.775 366.082 C 422.874 366.127, 416.900 367.140, 412.500 368.332 C 402.590 371.017, 402.138 371.958, 402.056 390.027 C 401.988 405.251, 401.487 406.267, 393.290 407.823 C 370.859 412.081, 360.792 409.803, 349.214 397.850 C 345.565 394.083, 342.007 391, 341.307 391 C 339.519 391, 335.939 398.488, 331.026 412.500 C 325.606 427.960, 323.059 432.295, 317.473 435.568 C 312.370 438.559, 312.521 438.103, 314.489 444.591 C 315.308 447.291, 315.983 449.580, 315.989 449.679 C 315.995 449.777, 315.387 450.470, 314.638 451.219 C 313.489 452.369, 311.342 452.353, 300.888 451.119 C 286.551 449.426, 279.087 449.282, 266.325 450.449 C 253.614 451.612, 253.852 451.213, 259.342 462.164 C 264.721 472.892, 265.174 476.963, 261.905 485.213 C 259.852 490.393, 259.845 490.642, 261.546 497.510 C 263.699 506.209, 262.315 512.251, 256.040 521.540 C 253.826 524.818, 250.464 529.798, 248.568 532.607 C 243.171 540.604, 235.901 544.661, 212 553.011 C 198.551 557.709, 198.484 557.749, 194.179 563.364 C 188.359 570.956, 185.604 570.787, 165.625 561.615 C 156.137 557.259, 156.886 557.290, 152.812 561.080 C 140.215 572.794, 126.605 577.303, 121.674 571.395 C 116.375 565.046, 116.578 565.150, 111.359 566.133 C 108.686 566.637, 100.587 567.446, 93.359 567.931 C 78.015 568.961, 77.547 569.154, 71.674 576.876 C 64.888 585.800, 64.702 586.332, 65.482 594.650 C 66.116 601.412, 66.411 602.161, 68.968 603.483 C 72.930 605.532, 76.847 610.495, 80.290 617.828 C 83.506 624.676, 83.570 626.946, 81.022 643.466 C 79.673 652.208, 78.080 654.636, 71.910 657.359 L 66.990 659.531 76.027 665.909 C 92.267 677.371, 94.590 681.587, 94.270 699.015 L 94.041 711.530 105.270 718.575 C 111.447 722.449, 118.621 726.591, 121.213 727.779 C 123.805 728.966, 127.634 731.481, 129.722 733.368 C 131.810 735.255, 136.107 738.024, 139.271 739.522 C 146.320 742.859, 147.056 744.880, 144.543 753.991 C 141.373 765.488, 141.360 765.351, 146.021 770.406 C 148.343 772.926, 151.763 775.926, 153.621 777.075 C 157.843 779.684, 157.832 780.330, 153.500 784.134 C 149.166 787.939, 148.897 792.024, 152.373 801.258 C 153.678 804.725, 155.291 810.798, 155.958 814.753 C 157.857 826.009, 156 831.429, 149.025 834.987 C 143.632 837.739, 141.862 837.541, 136.713 833.611 C 127.148 826.310, 124.894 827.645, 127.288 839.193 C 128.235 843.762, 129.007 849.018, 129.005 850.874 C 129.002 852.730, 130.536 857.680, 132.412 861.874 C 134.289 866.068, 136.473 871.075, 137.266 873 C 138.058 874.925, 141.641 879.946, 145.228 884.158 C 148.815 888.370, 154.297 895.201, 157.410 899.337 C 160.524 903.474, 166.630 910.207, 170.981 914.300 L 178.890 921.741 185.695 921.256 C 192.359 920.781, 192.707 920.880, 202.500 926.031 C 208 928.923, 216.100 933.179, 220.500 935.487 C 232.322 941.688, 240.510 952.551, 244.064 966.750 C 244.787 969.638, 245.667 972, 246.020 972 C 246.372 972, 248.139 969.942, 249.946 967.426 C 255.819 959.248, 261 959.353, 261 967.650 C 261 969.448, 261.504 974.305, 262.119 978.443 L 263.238 985.968 269.869 991.350 C 281.996 1001.192, 288.206 1004, 305.853 1007.620 C 311.844 1008.849, 315.824 1010.380, 319.927 1013.031 C 328.920 1018.843, 334.192 1019.940, 363 1021.994 C 371.525 1022.602, 380.445 1023.334, 382.822 1023.621 C 387.614 1024.201, 391 1026.886, 391 1030.108 C 391 1031.814, 391.883 1031.235, 395.630 1027.067 C 400.705 1021.422, 407.961 1016, 410.440 1016 C 411.309 1016, 415.877 1018.567, 420.591 1021.704 C 429.682 1027.754, 430.503 1027.944, 441.188 1026.460 C 445.224 1025.899, 447.032 1026.318, 454.188 1029.475 C 472.006 1037.335, 480.475 1039.076, 490.666 1036.973 C 498.628 1035.329, 502.713 1033.070, 510.691 1025.900 C 518.423 1018.950, 523.846 1016.054, 529.185 1016.022 C 534.256 1015.992, 537.518 1014.586, 542.900 1010.110 C 547.904 1005.948, 560.585 998, 562.220 998 C 562.779 998, 564.816 999.387, 566.747 1001.083 C 569.235 1003.268, 570.876 1003.990, 572.379 1003.562 C 573.546 1003.231, 578.100 1002.691, 582.500 1002.364 C 591.450 1001.698, 594.418 1003.040, 597.598 1009.189 C 599.363 1012.603, 599.643 1025.394, 598.070 1030.802 C 596.927 1034.732, 595.691 1034.152, 612.500 1037.574 C 622.836 1039.678, 626.832 1040.073, 632 1039.502 C 644.929 1038.074, 642.565 1035.614, 648.816 1057 C 649.277 1058.577, 652.403 1061.463, 657.283 1064.818 C 670.381 1073.822, 670.951 1078.714, 661.737 1103 C 658.711 1110.975, 655.275 1121.020, 654.101 1125.323 C 650.443 1138.729, 645.998 1145.440, 638.120 1149.450 C 628.853 1154.168, 623.837 1162.257, 623.052 1173.750 C 622.394 1183.386, 621.080 1182.773, 636.419 1179.985 C 648.818 1177.731, 657.043 1177.443, 658.800 1179.200 C 659.460 1179.860, 660.003 1182.447, 660.006 1184.950 C 660.012 1190.310, 661.135 1194.720, 665.173 1205.250 C 668.145 1212.999, 668.146 1213, 671.873 1213 C 678.756 1213, 679.449 1215.636, 675.064 1225.138 C 671.541 1232.772, 670.182 1240.376, 672.125 1241.577 C 672.848 1242.024, 677.194 1242.945, 681.782 1243.624 C 691.658 1245.084, 692.145 1245.423, 696.018 1253.538 C 697.945 1257.575, 700.153 1260.533, 702.211 1261.837 L 705.410 1263.862 709.208 1260.431 C 714.158 1255.959, 718.109 1255.835, 722.025 1260.027 C 723.581 1261.692, 725.126 1264.298, 725.460 1265.817 C 727.027 1272.953, 729.250 1274.759, 737.403 1275.523 C 750.690 1276.768, 752.925 1274.515, 746.946 1265.900 C 745.267 1263.480, 742.774 1259.876, 741.406 1257.890 C 735.297 1249.020, 737.614 1243.937, 749.560 1240.006 C 758.684 1237.004, 764.939 1233.799, 767.924 1230.599 C 771.405 1226.868, 773.060 1227.313, 778.984 1233.576 C 785.351 1240.309, 787.001 1240.234, 791.884 1232.991 C 796.250 1226.514, 798.232 1226.079, 805.847 1229.923 C 813.271 1233.670, 814.302 1233.715, 816.486 1230.381 C 818.064 1227.972, 818.574 1227.818, 822.851 1228.458 C 834.701 1230.230, 834.478 1230.235, 836.312 1228.208 C 837.353 1227.058, 839.077 1221.465, 840.487 1214.661 C 843.334 1200.935, 844.210 1199, 847.581 1199 C 850.468 1199, 852.521 1200.877, 859.868 1210.232 C 864.199 1215.748, 865.909 1217.159, 869.327 1218.042 C 871.622 1218.634, 874.400 1219.418, 875.500 1219.784 C 876.600 1220.150, 882.289 1220.461, 888.143 1220.475 C 897.182 1220.496, 899.103 1220.787, 900.893 1222.405 C 904.965 1226.086, 902.861 1232.912, 895.563 1239.698 L 893.199 1241.896 897.227 1249.975 C 900.816 1257.173, 901.487 1257.969, 903.378 1257.277 C 906 1256.317, 918.376 1256.402, 931.040 1257.467 C 941.583 1258.353, 942.597 1258.062, 952.360 1251.346 C 958.678 1247, 959.129 1247.063, 965.621 1253.203 L 971.123 1258.406 985.213 1259.655 C 992.963 1260.342, 999.676 1261.276, 1000.130 1261.730 C 1000.585 1262.185, 999.852 1265.244, 998.502 1268.528 C 994.091 1279.261, 995.431 1288.381, 1002.773 1297.582 C 1005.098 1300.496, 1005.526 1300.651, 1008.617 1299.703 C 1010.452 1299.140, 1012.945 1297.623, 1014.157 1296.333 L 1016.361 1293.987 1014.256 1287.244 C 1010.245 1274.395, 1010.171 1274.811, 1017.773 1267.578 C 1028.649 1257.230, 1041.085 1247.253, 1047.140 1244.015 C 1052.194 1241.313, 1053.700 1241, 1061.640 1240.999 C 1069.303 1240.999, 1071.314 1240.614, 1076.521 1238.150 C 1080.757 1236.146, 1084.711 1235.146, 1089.858 1234.778 C 1098.957 1234.127, 1100.227 1233.004, 1100.799 1225.102 C 1101.124 1220.605, 1100.562 1216.858, 1098.506 1209.822 C 1097.007 1204.695, 1095.555 1199.718, 1095.277 1198.762 C 1094.968 1197.697, 1095.452 1196.764, 1096.526 1196.352 C 1098.261 1195.686, 1103.097 1200.247, 1114.556 1213.359 C 1119.146 1218.611, 1120.689 1219.086, 1121.583 1215.524 C 1122.531 1211.746, 1129.244 1206.302, 1135.097 1204.564 C 1137.965 1203.712, 1145.944 1202.714, 1152.827 1202.346 L 1165.341 1201.677 1174.921 1195.125 C 1180.189 1191.521, 1186.625 1187.405, 1189.223 1185.979 C 1192.932 1183.943, 1196.697 1179.853, 1206.749 1166.943 C 1223.035 1146.027, 1223.899 1144.781, 1226.017 1139.164 C 1228.127 1133.567, 1231.316 1131.418, 1240.173 1129.625 C 1248.139 1128.012, 1248.932 1126.598, 1249.960 1112.154 C 1250.670 1102.194, 1251.193 1100.261, 1257.990 1082.500 C 1262.874 1069.738, 1265.219 1062.245, 1265.135 1059.676 C 1264.979 1054.960, 1266.381 1052.186, 1269.524 1050.991 C 1273.816 1049.359, 1279.169 1039.138, 1290.205 1011.500 C 1297.414 993.447, 1297.034 993.986, 1301.780 995.088 C 1308.370 996.619, 1308.351 996.635, 1307.658 990.005 C 1307.266 986.256, 1307.588 981.105, 1308.516 976.255 C 1309.378 971.747, 1310 962.759, 1310 954.789 L 1310 941.077 1306.250 940.084 C 1294.350 936.931, 1294.832 936.892, 1286.525 941.707 C 1276.823 947.330, 1276 947.051, 1276 938.137 L 1276 931.212 1284 924 C 1288.400 920.033, 1292.009 916.048, 1292.020 915.144 C 1292.030 914.240, 1286.922 908.550, 1280.668 902.500 C 1267.054 889.331, 1265.006 886.566, 1267.222 884.350 C 1268.595 882.976, 1269.865 883.174, 1279.626 886.286 C 1295.127 891.227, 1296 891.388, 1296 889.306 C 1296 885.435, 1275.941 869.581, 1265.251 865.003 C 1257.270 861.585, 1249.145 848.277, 1251.419 842.350 C 1252.061 840.677, 1245.315 826.363, 1242.114 822.605 C 1239.616 819.672, 1233.270 817.288, 1224.500 815.988 C 1211.325 814.034, 1208 811.835, 1208 805.076 C 1208 799.974, 1211.532 792.323, 1217.995 783.427 C 1224.284 774.772, 1228.387 766.729, 1231.478 757 C 1233.450 750.793, 1235.162 749, 1239.117 749 C 1241.602 749, 1242.155 748.255, 1245.176 740.826 C 1248.422 732.844, 1248.674 732.537, 1255.878 727.826 C 1262.295 723.629, 1263.931 723, 1268.437 723 C 1277.613 723, 1282.697 715.014, 1278.870 706.615 C 1276.623 701.682, 1273.295 701.400, 1259.740 704.992 C 1248.114 708.072, 1246.898 708.203, 1235.500 707.600 L 1223.500 706.966 1217 716.591 C 1201.703 739.242, 1191.747 739.390, 1189.487 717 C 1188.314 705.384, 1187.652 704.228, 1181.174 702.485 C 1168.198 698.994, 1165.137 697.863, 1160.700 694.924 C 1152.250 689.328, 1145.639 678.412, 1148.012 673.977 C 1149.787 670.661, 1152.511 670, 1164.412 670 L 1175.956 670 1181.576 663.250 C 1187.411 656.241, 1196.599 642.995, 1201.368 634.717 C 1202.883 632.086, 1206.293 628.261, 1208.944 626.217 C 1212.779 623.260, 1214.658 620.660, 1218.132 613.500 L 1222.500 604.500 1231 602.304 C 1244.446 598.830, 1249.030 599.224, 1251.537 604.072 C 1253.688 608.231, 1253.393 610.957, 1249 627.500 C 1244.860 643.092, 1244.207 649.621, 1246.142 656.079 L 1247.284 659.890 1259.392 648.541 C 1279.992 629.231, 1286.555 624.420, 1298.121 620.151 C 1306.071 617.216, 1306.505 616.730, 1310.095 606.718 C 1312.822 599.111, 1316.921 593.894, 1326.335 586.043 C 1336.651 577.441, 1339.572 571.685, 1341.058 557.031 C 1342.441 543.387, 1343.556 542.035, 1350.198 545.955 C 1357.247 550.113, 1382.183 553.511, 1388.230 551.137 L 1390.959 550.065 1387.074 542.030 C 1381.719 530.957, 1382.170 529.718, 1392.843 526.174 C 1396.331 525.016, 1402.061 522.460, 1405.576 520.495 C 1411.572 517.141, 1412.062 516.593, 1413.507 511.624 C 1414.951 506.658, 1414.921 505.928, 1413.036 499.914 C 1410.514 491.866, 1410.520 491.287, 1413.141 490.455 C 1414.642 489.979, 1417.776 491.057, 1423.613 494.058 L 1431.943 498.341 1438.528 491.420 C 1442.150 487.614, 1445.544 483.731, 1446.070 482.791 C 1447.776 479.743, 1445.216 472.009, 1437.239 456.111 L 1429.518 440.722 1428.969 430.111 C 1428.336 417.874, 1429.005 414.283, 1432.537 410.965 C 1433.934 409.653, 1435.556 406.679, 1436.140 404.357 C 1437.534 398.820, 1438.576 398.580, 1447.510 401.729 L 1455.046 404.386 1461.273 401.229 C 1464.698 399.493, 1468.746 397.615, 1470.268 397.054 C 1475.046 395.296, 1475.447 392.268, 1473.127 375.500 C 1469.718 350.864, 1469.620 348.328, 1471.492 333.420 C 1474.360 310.585, 1472.418 297.862, 1465.711 295.549 C 1461.791 294.197, 1456.653 297.169, 1453.213 302.779 C 1446.943 313.002, 1438.243 320.013, 1418.996 330.349 L 1410.493 334.915 1403.496 331.701 C 1393.853 327.270, 1394.119 327.529, 1394.708 323.139 C 1395.479 317.389, 1392.701 312.512, 1385.732 307.382 C 1382.480 304.987, 1377.947 302.526, 1375.659 301.913 C 1366.591 299.481, 1362.231 297.647, 1356.033 293.660 L 1349.567 289.500 1339.070 289.802 C 1322.830 290.269, 1321.845 289.948, 1315.597 282.157 C 1312.661 278.495, 1308.462 272.517, 1306.265 268.870 C 1304.068 265.224, 1297.534 256.377, 1291.745 249.210 C 1277.747 231.880, 1276.091 229.363, 1269.085 214.758 C 1265.787 207.884, 1261.915 200.864, 1260.480 199.159 L 1257.872 196.059 1242.048 196.682 C 1223.147 197.426, 1217.559 196.538, 1205.464 190.870 C 1198.984 187.834, 1183.262 181.761, 1182.575 182.029 C 1182.534 182.045, 1178.737 184.034, 1174.138 186.450 M 1323.482 1097.389 C 1322.703 1099.253, 1319.074 1105.192, 1315.417 1110.585 C 1308.230 1121.185, 1295.097 1147.585, 1293.136 1155.375 C 1292.470 1158.021, 1291.229 1161.247, 1290.379 1162.544 C 1288.389 1165.582, 1289.003 1167.409, 1295.601 1178.076 C 1300.439 1185.896, 1310.510 1196.081, 1321.077 1203.839 C 1326.246 1207.634, 1328.154 1200.700, 1329.009 1175 C 1329.679 1154.883, 1329.900 1153.050, 1332.448 1146.500 C 1339.447 1128.512, 1341.333 1115.852, 1338.457 1106.167 C 1335.186 1095.154, 1326.535 1090.083, 1323.482 1097.389 M 1325.600 1099.458 C 1325.261 1100.810, 1322.061 1106.044, 1318.490 1111.090 C 1311.092 1121.542, 1297.408 1148.946, 1295.830 1156.468 C 1295.250 1159.236, 1294.110 1162.255, 1293.297 1163.178 C 1292.413 1164.183, 1292.082 1165.683, 1292.473 1166.915 C 1293.886 1171.367, 1304.933 1186.690, 1309.096 1189.973 C 1311.518 1191.883, 1315.628 1195.423, 1318.230 1197.841 L 1322.960 1202.236 1324.119 1199.368 C 1324.773 1197.750, 1325.587 1187.348, 1325.988 1175.500 L 1326.697 1154.500 1331.456 1140.560 C 1338.542 1119.803, 1338.778 1108.890, 1332.325 1100.250 C 1329.411 1096.348, 1326.468 1096.001, 1325.600 1099.458 M 1011.917 1307.462 C 995.975 1310.341, 993.337 1311.200, 983.216 1316.807 C 976.551 1320.499, 974.261 1322.407, 971.501 1326.564 C 969.615 1329.406, 965.936 1333.534, 963.326 1335.737 L 958.582 1339.742 959.855 1346.621 C 962.590 1361.405, 963.929 1363.169, 975.828 1367.674 C 983.955 1370.751, 999.118 1371.336, 1005.030 1368.800 C 1016.757 1363.770, 1036 1330.009, 1036 1314.465 C 1036 1304.309, 1033.464 1303.571, 1011.917 1307.462 M 1013.259 1310.011 C 992.380 1313.766, 979.032 1320.014, 973.623 1328.564 C 972.078 1331.005, 968.769 1334.752, 966.268 1336.889 L 961.722 1340.775 963.359 1348.898 C 965.446 1359.252, 966.201 1360.368, 973.268 1363.540 C 984.790 1368.711, 998.829 1369.192, 1006.317 1364.672 C 1011.720 1361.411, 1018.178 1352.245, 1025.461 1337.500 C 1032.195 1323.867, 1034.431 1316.269, 1033.139 1311.408 C 1032.148 1307.680, 1027.884 1307.381, 1013.259 1310.011" stroke="none" fill="#111111" fill-rule="evenodd"/>
</svg>