<svg xmlns="http://www.w3.org/2000/svg" width="1500" height="1500" viewBox="0 0 1500 1500" version="1.1">
	<path d="M 1064.917 380.601 C 1064.039 381.658, 1063.330 387.100, 1062.829 396.628 C 1062.230 408.003, 1061.622 412.054, 1059.953 415.777 C 1058.789 418.375, 1056.728 426.125, 1055.373 433 C 1052.494 447.612, 1052.049 448.299, 1046.460 446.790 C 1038.555 444.655, 1030.688 448.554, 1028.422 455.729 C 1027.915 457.335, 1024.800 460.975, 1021.500 463.818 C 1018.200 466.662, 1014.712 469.666, 1013.750 470.494 C 1012.571 471.509, 1012 473.452, 1012 476.451 C 1012 483.295, 1010.054 490.826, 1007.525 493.766 L 1005.239 496.424 1001.369 493.724 C 999.241 492.239, 996.457 490.268, 995.183 489.345 C 992.991 487.757, 992.625 487.784, 988.406 489.833 C 982.292 492.804, 979.714 492.576, 972.102 488.392 C 966.107 485.097, 965.450 484.934, 964.519 486.513 C 960.192 493.850, 959.466 494.498, 955.225 494.807 C 951.769 495.059, 950.537 495.740, 948.352 498.605 C 944.241 503.995, 942.306 504.651, 939.148 501.726 C 935.398 498.251, 931.404 497.174, 919.728 496.486 C 905.449 495.646, 892.543 492.505, 889.981 489.248 C 886.783 485.183, 887.366 481.306, 891.549 478.839 C 896.353 476.004, 895.711 474.462, 887.703 469.586 C 883.964 467.310, 878.414 463.435, 875.369 460.974 C 854.181 443.851, 842.058 447.267, 847.395 468.856 C 848.163 471.960, 849.041 477.483, 849.347 481.128 L 849.902 487.757 844.201 496.752 C 835.654 510.238, 831.952 514, 827.233 514 C 826.189 514, 820.987 511.093, 815.673 507.540 C 805.994 501.068, 799.491 498.392, 796.078 499.475 C 794.878 499.856, 792.810 498.847, 790.032 496.527 C 785.284 492.560, 785.526 492.648, 783.039 493.979 C 778.909 496.189, 777.808 505.468, 781.140 509.976 L 783.280 512.870 780.702 526.479 C 778.471 538.258, 777.594 540.927, 774.177 546.337 C 772.006 549.774, 768.356 556.315, 766.064 560.872 C 761.017 570.912, 758.696 572.249, 742.352 574.544 C 734.101 575.702, 729.544 576.974, 723.027 579.938 C 718.337 582.071, 712.925 584.137, 711 584.529 C 706.011 585.544, 703.066 587.236, 697.360 592.366 C 694.601 594.846, 691.030 597.200, 689.422 597.596 C 687.693 598.023, 682.182 602.436, 675.920 608.409 C 670.101 613.959, 663.464 619.988, 661.170 621.806 C 657.651 624.597, 657 625.679, 657 628.741 C 657 633.486, 660.362 640.305, 664.401 643.751 C 669.011 647.685, 676.741 658.006, 677.557 661.318 C 677.938 662.868, 681.833 668.002, 686.211 672.728 C 697.851 685.291, 698.513 688.655, 692 702.123 C 685.485 715.595, 685.833 716.776, 700.807 732.024 C 715.625 747.113, 717.721 751.751, 712.527 757.968 L 709 762.189 709 777.072 C 709 794.163, 708.803 794.542, 699.376 795.624 C 695.135 796.111, 693.971 795.814, 690.441 793.342 C 688.209 791.779, 682.941 788.137, 678.734 785.249 C 668.735 778.383, 662.600 768.789, 662.873 760.444 C 663.023 755.843, 662.551 754.513, 658.766 748.873 L 654.489 742.500 648.240 742.674 C 639.780 742.910, 635.888 744.372, 630.939 749.175 L 626.756 753.235 619.317 752.035 C 615.226 751.375, 606.268 749.297, 599.410 747.418 C 592.069 745.405, 584.590 743.994, 581.221 743.985 C 574.112 743.966, 573.199 743.389, 571.581 737.904 C 570.863 735.470, 569.585 733.363, 568.724 733.193 C 566.407 732.736, 550.268 737.874, 548.516 739.627 C 546.600 741.543, 546.609 746.899, 548.532 749.441 C 550.087 751.497, 550.565 759.533, 549.183 760.387 C 548.733 760.665, 546.371 760.192, 543.933 759.336 C 534.920 756.171, 504.853 759.587, 498.401 764.508 C 494.959 767.133, 494.872 767.144, 490.283 765.581 C 484.039 763.453, 481.948 763.576, 475.068 766.472 C 467.452 769.677, 456.075 771.119, 452.634 769.316 C 449.983 767.927, 447.057 768.460, 446.914 770.357 C 446.866 770.986, 446.699 773.629, 446.542 776.230 C 446.034 784.634, 444.845 785.490, 431.945 786.742 C 414.026 788.481, 403.223 795.351, 408.902 801.395 L 411.253 803.898 408.877 804.383 C 407.569 804.650, 405.002 805.119, 403.170 805.425 C 396.878 806.477, 393.367 808.852, 391.526 813.302 L 389.789 817.500 388.816 814 C 387.440 809.048, 387.471 809.059, 377.354 809.909 C 368.887 810.620, 367.821 810.961, 362.993 814.505 C 359.852 816.811, 356.653 818.333, 354.950 818.333 C 349.744 818.333, 342.814 813.835, 338 807.331 C 334.574 802.701, 332.129 800.581, 327.753 798.443 C 324.592 796.899, 321.015 794.580, 319.803 793.291 C 317.660 791.009, 317.648 790.866, 319.358 787.971 C 321.922 783.631, 320.856 783, 310.956 783 C 302.723 783, 301.639 782.759, 296.988 779.898 C 291.646 776.611, 289.409 776.472, 280.500 778.874 C 274.281 780.550, 259.469 780.250, 253.357 778.323 C 248.821 776.894, 247.877 776.158, 246.942 773.323 C 246.205 771.092, 245.213 770, 243.922 770 C 241.352 770, 241.371 775.370, 243.983 787.744 C 246.262 798.544, 246.316 798.347, 236.537 815 C 233.469 820.225, 229.570 827.324, 227.874 830.775 C 225.682 835.232, 223.551 837.901, 220.519 839.987 C 218.171 841.603, 214.351 845.191, 212.032 847.962 C 209.712 850.733, 207.278 853, 206.622 853 C 203.692 853, 201.797 846.876, 201.036 834.941 C 199.959 818.072, 198.207 816.531, 190.441 825.621 L 185.639 831.241 179.693 825.090 L 173.748 818.938 174.418 812.138 L 175.088 805.337 167.219 800.690 C 158.292 795.419, 156.700 793.920, 154.540 788.749 C 153.695 786.727, 152.053 784.563, 150.891 783.942 C 147.166 781.948, 135.624 779.155, 131.634 779.281 C 127.027 779.426, 125.721 777.992, 123.498 770.344 C 122.330 766.327, 121.476 765, 120.061 765 C 117.330 765, 113.527 770.021, 112.007 775.634 C 110.247 782.133, 109.709 782.674, 104.218 783.448 C 89.428 785.534, 86.756 786.275, 83.398 789.224 C 79.601 792.557, 79.121 795.400, 81.559 800.113 C 84.232 805.282, 83.153 809.211, 78.500 811.253 C 66.455 816.539, 65.053 818.260, 69.159 822.721 C 73.073 826.973, 78.480 828.919, 83.113 827.743 C 85.290 827.191, 87.307 826.973, 87.594 827.260 C 88.697 828.364, 81.806 837.851, 76.890 841.996 C 71.528 846.517, 68.671 851.568, 67.555 858.500 C 66.658 864.069, 68.376 866.042, 75.040 867.095 C 82.157 868.221, 89 875.121, 89 881.174 C 89 883.241, 89.731 886.465, 90.624 888.338 C 92.165 891.569, 92.144 891.893, 90.218 894.622 C 87.863 897.958, 86.643 903.884, 87.901 905.873 C 88.761 907.232, 91.594 907.115, 98.311 905.443 C 100.544 904.887, 101.676 905.273, 103.811 907.317 C 105.290 908.732, 108.040 910.536, 109.921 911.326 C 111.803 912.117, 114.522 914.504, 115.963 916.632 C 119.180 921.380, 123.118 922.868, 132.662 922.944 L 139.824 923 140.493 926.956 C 140.860 929.131, 141.029 932.440, 140.868 934.308 C 140.699 936.267, 141.292 938.796, 142.269 940.288 C 143.770 942.579, 158.041 953, 159.677 953 C 160.028 953, 162.614 954.773, 165.423 956.940 C 172.621 962.494, 187.550 967.450, 194.358 966.547 C 203.426 965.344, 206.155 962.935, 207.439 955 C 208.287 949.766, 211.540 945, 214.267 945 C 215.746 945, 218.673 942.867, 222.500 939 C 228.977 932.455, 230.249 932.047, 235.193 934.927 C 237.012 935.986, 240.220 937.167, 242.321 937.551 L 246.143 938.249 245.441 948.151 C 244.638 959.465, 245.246 960.835, 252.500 964.079 C 259.630 967.268, 266.204 967.575, 270.896 964.938 C 274.958 962.655, 275.018 962.652, 282.644 964.307 C 292.304 966.403, 294 967.858, 294 974.044 C 294 981.319, 295.576 982.504, 309.390 985.615 L 321.280 988.292 329.135 986.022 C 335.915 984.063, 337.408 983.926, 340.049 985.020 C 342.926 986.212, 343.311 986.090, 346.518 982.982 C 352.411 977.271, 357.983 966.518, 358.109 960.618 C 358.384 947.617, 359.313 943.508, 362 943.392 C 366.607 943.192, 367.080 943.011, 369.610 940.481 C 372.718 937.372, 396.398 925, 399.239 925 C 400.377 925, 404.197 926.615, 407.727 928.590 C 415.088 932.706, 417.316 932.612, 423.191 927.937 C 427.505 924.505, 431.176 924.207, 434.727 927 C 438.203 929.734, 439.570 929.550, 446.215 925.448 L 451.970 921.896 458.735 924.311 C 473.517 929.587, 476.645 929.653, 494.033 925.050 C 512.868 920.064, 519.690 917.450, 532 910.500 C 542.579 904.528, 552.078 901, 557.582 901 L 561.227 901 560.518 905.750 C 559.465 912.812, 557.488 916.855, 554.816 917.410 C 553.542 917.674, 550.336 918.172, 547.692 918.515 C 544.840 918.886, 542.654 919.739, 542.318 920.613 C 541.758 922.074, 543.864 930.274, 546.528 937 C 547.291 938.925, 548.334 942.140, 548.847 944.144 C 550.007 948.676, 557.187 958.554, 559.822 959.243 C 560.898 959.525, 562.391 959.367, 563.139 958.893 C 565.800 957.207, 567.765 958.054, 570.563 962.092 L 573.399 966.183 570.235 975.102 C 565.936 987.219, 567.245 989.466, 576 985 C 581.854 982.014, 582.416 982.323, 585.535 990.250 C 590.827 1003.695, 594.012 1006.290, 607.997 1008.552 C 618.973 1010.328, 622.557 1011.751, 626.437 1015.877 C 629.732 1019.380, 631.356 1019.667, 635.687 1017.506 C 638.359 1016.174, 639.259 1016.185, 644.064 1017.612 C 647.455 1018.619, 651.060 1018.989, 653.803 1018.613 C 659.338 1017.855, 667.459 1021.478, 674.059 1027.652 C 679.609 1032.843, 682.321 1033.945, 686.956 1032.890 C 688.905 1032.446, 695.799 1031.569, 702.276 1030.940 C 718.529 1029.363, 729.866 1032.085, 740 1040 C 745.194 1044.056, 746.896 1044.258, 757.093 1042.033 C 770.555 1039.095, 772.267 1039.241, 774.299 1043.500 C 776.296 1047.689, 777.739 1047.844, 787.001 1044.861 L 793.644 1042.721 799.826 1044.861 C 803.226 1046.037, 807.722 1047, 809.816 1047 C 814.011 1047, 829.207 1051.809, 835.517 1055.133 L 839.535 1057.250 848.636 1054.125 C 860.153 1050.170, 863.524 1050.223, 873.953 1054.518 C 879.337 1056.736, 884.058 1058.002, 886.953 1058.006 C 895.829 1058.016, 898.597 1059.477, 904.110 1067.056 C 910.307 1075.576, 911.116 1075.816, 925.720 1073.443 C 934.769 1071.972, 937.474 1071.840, 938.813 1072.802 C 943.639 1076.270, 944.969 1076.451, 952.115 1074.610 L 959.060 1072.821 962.878 1076.271 C 964.997 1078.185, 968.311 1080.023, 970.323 1080.401 C 973.011 1080.905, 975.032 1082.365, 978.131 1086.041 C 984.181 1093.215, 988.664 1092.022, 991.193 1082.567 C 992.346 1078.257, 992.602 1078.041, 1001.201 1074.124 C 1009.379 1070.399, 1010.166 1069.779, 1011.922 1065.682 C 1014.105 1060.589, 1017.274 1059, 1025.248 1059 C 1031.520 1059, 1034.397 1056.192, 1038.454 1046.114 C 1041.203 1039.286, 1041.540 1038.899, 1046.887 1036.452 C 1049.950 1035.049, 1056.174 1031.201, 1060.718 1027.899 C 1072.260 1019.513, 1076.989 1017.560, 1083.415 1018.523 C 1090.546 1019.591, 1093.565 1019.534, 1101 1018.190 C 1104.575 1017.544, 1113.350 1016.987, 1120.500 1016.954 C 1142.737 1016.848, 1147.790 1015.973, 1156.981 1010.632 C 1166.378 1005.173, 1167.898 1005.020, 1172.896 1009.036 C 1174.974 1010.706, 1178.318 1012.340, 1180.327 1012.666 C 1183.704 1013.214, 1184.303 1012.906, 1188.266 1008.590 C 1192.426 1004.059, 1192.820 1003.877, 1201.527 1002.455 C 1206.462 1001.649, 1215.386 1000.556, 1221.357 1000.025 C 1234.488 998.857, 1235.292 999.166, 1243.745 1008.623 C 1251.771 1017.601, 1253.528 1017.168, 1252.715 1006.411 C 1252.109 998.396, 1250.403 994.580, 1246.934 993.479 C 1245.060 992.884, 1244.912 992.382, 1245.657 989.153 C 1246.121 987.144, 1246.428 981.580, 1246.341 976.789 C 1246.165 967.148, 1245.742 967.731, 1253.816 966.474 C 1260.349 965.457, 1269.892 957.625, 1285.463 940.500 C 1294.582 930.471, 1300.346 924.961, 1302.854 923.874 C 1304.918 922.980, 1307.419 921.009, 1308.412 919.493 C 1310.149 916.844, 1310.453 916.762, 1316.329 917.377 C 1321.587 917.926, 1323.143 917.671, 1327.470 915.551 C 1330.237 914.195, 1334.222 912.400, 1336.327 911.562 C 1342.352 909.162, 1341.212 906.918, 1332.073 903.180 L 1327.646 901.370 1334.211 897.699 C 1343.714 892.384, 1343.681 890.561, 1334 886.236 C 1326.527 882.897, 1325.780 882.026, 1327.190 878.300 C 1328.463 874.935, 1326.448 871, 1323.452 871 C 1320.809 871, 1321.273 867.830, 1325.060 859.999 C 1329.747 850.307, 1330.386 842.786, 1326.996 837.226 C 1324.614 833.319, 1324.501 830.664, 1326.479 825.060 C 1329.507 816.476, 1331.304 815, 1338.722 815 C 1351.116 815, 1365.966 804.079, 1364.377 796.133 C 1363.784 793.169, 1364.252 792.447, 1370.869 786.125 C 1374.791 782.378, 1378 778.862, 1378 778.311 C 1378 776.965, 1375.206 774.599, 1371.250 772.595 C 1368.212 771.056, 1367.999 770.608, 1367.985 765.724 C 1367.962 758.118, 1367.590 757.836, 1356.355 756.897 C 1343.308 755.807, 1342.669 755.600, 1339.907 751.569 C 1338.602 749.665, 1335.952 747.213, 1334.017 746.122 C 1329.905 743.802, 1326 740.323, 1326 738.981 C 1326 738.464, 1327.700 737.173, 1329.778 736.113 C 1331.856 735.053, 1336.760 731.219, 1340.677 727.593 C 1347.428 721.342, 1350 719.790, 1350 721.965 C 1350 723.575, 1354.039 725.207, 1356.497 724.590 C 1357.768 724.271, 1361.112 722.188, 1363.929 719.962 C 1366.746 717.735, 1369.489 716.184, 1370.025 716.516 C 1370.561 716.847, 1371 720.376, 1371 724.359 C 1371 731.991, 1371.930 734, 1375.463 734 C 1376.643 734, 1377.948 734.963, 1378.513 736.250 C 1379.297 738.037, 1380.354 738.519, 1383.649 738.592 C 1385.954 738.643, 1389.425 739.643, 1391.457 740.842 C 1396.249 743.670, 1396.407 743.634, 1398.411 739.250 C 1399.354 737.188, 1401.199 734.172, 1402.511 732.549 L 1404.896 729.597 1405.978 732.549 C 1406.573 734.172, 1407.279 736.120, 1407.547 736.878 C 1408.255 738.875, 1414.174 737.952, 1429.250 733.496 L 1442 729.727 1441.964 726.613 C 1441.945 724.901, 1441.277 720.800, 1440.480 717.500 C 1439.683 714.200, 1439.024 708.473, 1439.016 704.773 C 1439.002 698.710, 1438.753 697.885, 1436.500 696.408 C 1433.028 694.133, 1433.280 693.350, 1439.250 687.866 L 1444.500 683.043 1445 672.854 L 1445.500 662.665 1450.417 661.024 C 1459.826 657.884, 1459.675 653.076, 1450.003 647.921 C 1440.027 642.604, 1437.769 638.348, 1440.266 629.571 C 1442.021 623.400, 1442.124 623.637, 1435.148 617.703 C 1431.428 614.539, 1428.226 612.783, 1424.648 611.944 C 1415.853 609.884, 1415.307 608.421, 1420 599.500 C 1421.650 596.363, 1422.990 593.055, 1422.978 592.148 C 1422.934 588.847, 1419.095 582.126, 1414.106 576.617 C 1411.298 573.516, 1409 570.820, 1409 570.626 C 1409 565.306, 1406.596 559.629, 1402.946 556.332 C 1399.667 553.370, 1398.927 552.093, 1399.310 550.057 C 1399.759 547.664, 1402.414 535.192, 1403.513 530.317 C 1403.783 529.116, 1404.829 527.872, 1405.837 527.552 C 1407.663 526.972, 1416.210 514.326, 1417.377 510.477 C 1417.715 509.364, 1417.514 506.889, 1416.931 504.977 C 1416.348 503.065, 1415.271 495.181, 1414.538 487.458 C 1412.745 468.575, 1411.782 465.641, 1406.069 461.673 C 1401.866 458.754, 1400.860 458.500, 1393.500 458.500 C 1388.932 458.500, 1384.563 457.964, 1383.316 457.250 C 1382.114 456.562, 1378.626 456, 1375.564 456 C 1370.052 456, 1369.962 455.951, 1366.515 451.154 C 1362.196 445.142, 1347.784 432.235, 1344.459 431.400 C 1343.103 431.060, 1338.660 430.950, 1334.585 431.156 C 1324.811 431.649, 1323.413 432.907, 1322.497 442.028 C 1322.117 445.817, 1321.219 449.403, 1320.503 449.998 C 1319.786 450.593, 1313.652 451.553, 1306.871 452.132 C 1295.441 453.107, 1293.303 452.990, 1277.521 450.514 C 1252.871 446.648, 1253.778 446.999, 1244.005 437.549 C 1236.169 429.971, 1234.960 429.182, 1228.639 427.521 C 1222.865 426.003, 1220.726 424.776, 1215.139 419.775 C 1204.638 410.376, 1200.878 408.083, 1195.875 408.027 C 1193.469 408, 1189.025 407.884, 1186 407.770 C 1182.975 407.656, 1177.792 407.933, 1174.483 408.384 C 1168.479 409.204, 1168.457 409.198, 1163.689 405.258 C 1159.175 401.528, 1144.462 395, 1140.568 395 C 1139.615 395, 1135.610 393.920, 1131.668 392.601 C 1120.121 388.736, 1112.622 388.423, 1108.417 391.631 C 1106.382 393.183, 1103.182 394.451, 1100.549 394.747 C 1096.300 395.226, 1095.907 395.038, 1091.306 390.328 C 1087.273 386.200, 1085.021 384.894, 1077.300 382.205 C 1066.640 378.492, 1066.664 378.495, 1064.917 380.601 M 1066.588 383.631 C 1066.244 384.529, 1065.739 390.857, 1065.467 397.695 C 1065.099 406.966, 1064.435 411.572, 1062.855 415.813 C 1061.690 418.941, 1059.529 427.254, 1058.053 434.288 C 1054.888 449.369, 1053.227 451.972, 1047.943 450.130 C 1040.239 447.444, 1034.151 449.666, 1031.576 456.102 C 1029.968 460.121, 1022.255 468.128, 1017.506 470.708 C 1015.622 471.732, 1015.178 473.079, 1014.590 479.566 C 1013.774 488.577, 1011.711 494.295, 1008.314 496.967 C 1005.379 499.276, 1002.555 498.529, 996.766 493.911 C 993.168 491.040, 992.924 490.988, 990.033 492.483 C 983.988 495.609, 979.066 495.470, 972.592 491.988 C 967.510 489.255, 966.564 489.027, 965.822 490.353 C 963.031 495.341, 959.719 498, 956.297 498 C 953.477 498, 952.044 498.787, 949.136 501.933 C 944.314 507.149, 941.995 507.708, 938.253 504.559 C 933.785 500.800, 930.994 500.070, 917.163 499.043 C 901.828 497.904, 891.426 495.196, 888.263 491.519 C 883.726 486.245, 884.100 480.126, 889.147 477.057 L 892.240 475.176 888.870 473.443 C 884.004 470.942, 874.271 464.234, 870.096 460.503 C 867.241 457.953, 855.028 452, 852.651 452 C 849.059 452, 848.018 460.239, 850.395 469.856 C 852.854 479.804, 853.146 487.235, 851.215 490.748 C 841.048 509.245, 833.844 517, 826.826 517 C 825.130 517, 821.210 514.898, 816.311 511.361 C 806.896 504.564, 801.169 501.861, 796.780 502.146 C 793.103 502.385, 790.383 501.186, 787.584 498.093 C 785.145 495.398, 784.569 495.457, 783.161 498.547 C 781.583 502.009, 781.699 506.505, 783.402 507.919 C 785.884 509.978, 786.016 513.526, 784.016 524.411 C 781.202 539.730, 780.469 541.965, 775.979 548.911 C 773.762 552.341, 770.137 558.750, 767.923 563.153 C 762.944 573.057, 759.289 575.120, 742.574 577.467 C 734.083 578.659, 729.791 579.872, 723.007 582.997 C 718.227 585.199, 713.526 587, 712.559 587 C 709.540 587, 704.325 589.988, 698.599 594.999 C 695.567 597.651, 691.802 600.104, 690.232 600.449 C 688.485 600.833, 684.298 604.197, 679.439 609.123 C 675.072 613.549, 668.913 619.183, 665.750 621.644 C 657.901 627.750, 657.867 632.585, 665.616 640.587 C 672.125 647.306, 678.134 655.317, 680.177 659.997 C 681.257 662.470, 685.264 667.715, 689.082 671.652 C 700.274 683.194, 701.541 689.301, 695.387 702.028 C 688.683 715.892, 688.523 715.300, 702.959 730.095 C 718.177 745.692, 721.144 753.157, 714.750 759.762 L 711.500 763.120 711.500 778.146 C 711.500 795.173, 711.230 795.784, 702.691 798.083 C 697.126 799.582, 692.887 798.728, 687.778 795.079 C 685.425 793.399, 680.139 789.656, 676.030 786.762 C 666.670 780.168, 659.659 769.351, 660.305 762.500 C 660.957 755.596, 654.706 745, 649.981 745 C 642.807 745, 637.214 747.098, 632.487 751.563 C 629.904 754.003, 627.500 755.991, 627.145 755.980 C 622.838 755.848, 609.986 753.249, 599.902 750.471 C 592.325 748.383, 585.025 747, 581.586 747 C 574.047 747, 569.151 744.273, 569.016 740 C 568.889 735.955, 567.581 735.758, 558.739 738.456 C 548.987 741.430, 548.178 742.469, 551.119 748.234 C 552.699 751.331, 553.104 753.564, 552.751 757.235 C 552.098 764.032, 551.071 764.779, 545.252 762.693 C 539.294 760.558, 528.359 760.494, 514.899 762.515 C 504.657 764.053, 502.662 764.733, 497.741 768.357 C 495.033 770.352, 494.891 770.356, 489.966 768.585 C 484.365 766.571, 482.171 766.763, 473.500 770.027 C 467.765 772.186, 454.928 773.312, 451.005 772 C 449.833 771.608, 449.400 772.700, 449.005 777.045 C 448.430 783.362, 446.006 787.760, 442.737 788.420 C 441.507 788.668, 436.103 789.324, 430.728 789.876 C 414.994 791.495, 406.892 796.642, 412.986 801.148 C 418.032 804.878, 417.026 806.619, 409.369 807.403 C 399.969 808.366, 396.702 809.998, 393.869 815.143 C 390.633 821.019, 387.560 821.528, 386.344 816.387 L 385.464 812.665 377.982 812.895 C 371.105 813.107, 369.990 813.456, 364.199 817.214 C 356.686 822.088, 353.841 822.256, 346.061 818.285 C 341.978 816.202, 339.304 813.827, 336 809.349 C 332.536 804.654, 330.151 802.592, 325.640 800.389 C 316.968 796.154, 312.912 790.488, 316.200 787.200 C 317.133 786.267, 315.621 786, 309.396 786 C 302.152 786, 300.924 785.704, 296.472 782.880 C 290.883 779.336, 289.628 779.208, 282.032 781.413 C 272.248 784.253, 254.639 783.088, 247.204 779.109 C 244.611 777.721, 244.608 777.747, 246.480 785.500 C 249.356 797.413, 248.982 798.954, 238.964 816.453 C 233.994 825.134, 229.316 833.702, 228.567 835.494 C 227.818 837.285, 225.944 839.595, 224.402 840.626 C 222.860 841.657, 218.591 845.538, 214.915 849.250 C 206.846 857.399, 205.076 857.692, 201.433 851.476 C 199.146 847.574, 198.711 845.479, 198.263 836.226 C 197.578 822.065, 197.384 821.838, 191.645 828.486 C 189.027 831.519, 186.307 834, 185.601 834 C 183.606 834, 172.191 821.608, 171.444 818.631 C 171.077 817.170, 171.079 813.960, 171.448 811.499 L 172.119 807.023 167.445 804.261 C 158.215 798.809, 155.027 795.986, 152.525 791.049 C 150.338 786.733, 149.447 785.936, 145.753 784.990 C 143.414 784.392, 140.195 783.474, 138.601 782.951 C 137.006 782.428, 133.844 782, 131.573 782 C 125.775 782, 123.314 779.887, 121.385 773.254 L 119.742 767.600 117.864 769.919 C 116.832 771.195, 115.294 774.622, 114.447 777.535 C 112.391 784.607, 111.411 785.226, 99.177 787.182 C 84.889 789.467, 80.256 793.245, 84.432 799.207 C 86.581 802.275, 86.475 809.261, 84.250 811.269 C 83.288 812.137, 79.687 814.065, 76.250 815.554 C 69.243 818.589, 69.102 818.808, 72.251 821.766 C 75.575 824.889, 78.886 825.813, 83.244 824.834 C 87.346 823.912, 91 825.093, 91 827.339 C 91 829.900, 84.623 838.661, 78.508 844.500 C 73.180 849.588, 72.040 851.300, 71.010 855.762 C 69.499 862.305, 70.094 864, 73.904 864 C 78.764 864, 82.230 865.840, 87.250 871.084 C 91.459 875.482, 92 876.553, 92 880.490 C 92 882.933, 92.759 886.523, 93.686 888.468 C 95.303 891.859, 95.289 892.118, 93.353 894.752 C 92.243 896.264, 91.035 899.013, 90.669 900.863 C 89.932 904.597, 89.131 904.460, 99.324 902.339 C 101.578 901.870, 102.793 902.376, 105.342 904.847 C 107.098 906.549, 110.018 908.459, 111.831 909.091 C 113.861 909.799, 116.076 911.744, 117.600 914.159 C 120.703 919.074, 123.149 920, 133.030 920 C 142.473 920, 142.969 920.527, 143.484 931.110 C 143.879 939.236, 144.156 939.654, 152.881 945.316 C 158.817 949.169, 162.283 951.469, 170.882 957.264 C 182.472 965.074, 204 965.451, 204 957.843 C 204 951.222, 209.636 942, 213.683 942 C 214.717 942, 218.234 939.300, 221.500 936 C 228.067 929.364, 229.920 928.841, 235.802 931.963 C 237.836 933.043, 241.525 934.505, 244 935.213 L 248.500 936.500 248.143 946.803 C 247.724 958.890, 248.378 960.144, 256.346 962.510 C 263.155 964.532, 267.244 964.382, 270.273 962 C 273.360 959.572, 274.712 959.539, 284.117 961.663 C 293.934 963.880, 297 966.789, 297 973.888 C 297 979.976, 296.898 979.910, 311.076 982.997 L 321.652 985.300 328.731 983.150 C 336.814 980.695, 339.112 980.512, 340.787 982.187 C 342.463 983.863, 346.225 980.127, 351.044 972 C 354.644 965.929, 354.944 964.807, 355.590 955 C 356.521 940.879, 357.053 939.585, 361.617 940.325 C 364.569 940.804, 365.636 940.455, 367.785 938.306 C 370.980 935.111, 396.232 922, 399.190 922 C 400.369 922, 404.255 923.606, 407.826 925.568 C 415.213 929.629, 417.164 929.551, 422.364 924.986 C 426.559 921.302, 432.645 920.845, 435.500 924 C 437.955 926.712, 439.984 926.519, 444.669 923.125 C 450.500 918.901, 452.307 918.600, 457.645 920.961 C 460.230 922.105, 465.980 923.749, 470.422 924.616 L 478.500 926.193 494.214 922.055 C 512.475 917.245, 520.601 914.084, 531.131 907.692 C 544.373 899.653, 558.815 895.958, 562.518 899.661 C 565.507 902.650, 561.966 916.833, 557.630 919.241 C 556.458 919.892, 553.250 920.666, 550.500 920.962 C 544.825 921.573, 544.714 921.900, 547.282 930.500 C 552.728 948.746, 558.657 958.324, 563.049 955.974 C 566.454 954.152, 569.570 955.636, 572.902 960.666 C 576.665 966.347, 576.667 966.634, 572.995 975.946 C 571.380 980.041, 570.211 983.545, 570.399 983.732 C 570.587 983.920, 573.100 983.143, 575.985 982.006 C 582.909 979.277, 584.260 979.901, 587.403 987.278 C 593.759 1002.195, 595.690 1003.841, 609.259 1005.918 C 619.235 1007.445, 623.491 1009.125, 627.696 1013.194 C 630.687 1016.089, 631.089 1016.206, 633.962 1015.016 C 636.010 1014.168, 638.611 1013.994, 641.767 1014.494 C 644.370 1014.907, 649.689 1015.370, 653.587 1015.523 C 661.989 1015.853, 668.757 1018.857, 675.883 1025.421 C 681.826 1030.896, 682.115 1030.972, 691 1029.396 C 712.147 1025.645, 728.180 1028.121, 740.922 1037.107 L 746.784 1041.241 758.142 1038.947 C 771.349 1036.278, 774.668 1036.661, 776.323 1041.045 C 777.656 1044.578, 778.397 1044.632, 787.097 1041.830 L 793.835 1039.659 799.507 1041.830 C 802.626 1043.023, 807.075 1044, 809.393 1044 C 813.845 1044, 831.375 1049.508, 836.572 1052.540 C 839.596 1054.304, 839.769 1054.287, 847.572 1051.428 C 858.335 1047.485, 864.995 1047.561, 875 1051.742 C 879.523 1053.632, 885.279 1055.151, 889.500 1055.570 C 899.342 1056.546, 900.430 1057.145, 905.759 1064.515 C 911.484 1072.434, 912.429 1072.733, 925.062 1070.635 C 937.738 1068.530, 939.303 1068.573, 941.575 1071.083 C 943.669 1073.396, 946.848 1073.366, 955.246 1070.952 L 959.993 1069.587 963.746 1073.129 C 965.811 1075.077, 969.386 1077.205, 971.692 1077.858 C 974.626 1078.689, 977.069 1080.432, 979.836 1083.670 C 984.533 1089.165, 986.391 1088.969, 988.037 1082.803 C 989.809 1076.165, 990.053 1075.926, 999.050 1071.993 C 1006.833 1068.591, 1007.675 1067.937, 1009.715 1063.704 C 1012.452 1058.023, 1014.414 1056.938, 1023.400 1056.135 L 1030.500 1055.500 1035.119 1046.122 L 1039.737 1036.744 1047.619 1032.619 C 1051.953 1030.350, 1057.975 1026.614, 1061 1024.316 C 1071.669 1016.212, 1079.215 1013.821, 1087.157 1016.027 C 1089.855 1016.776, 1093.102 1016.644, 1099.538 1015.521 C 1104.336 1014.685, 1114.166 1013.980, 1121.381 1013.956 C 1142.653 1013.885, 1147.627 1012.995, 1156.794 1007.621 C 1166.264 1002.069, 1168.572 1001.923, 1174.568 1006.500 C 1180.639 1011.134, 1182.749 1010.990, 1187.225 1005.635 C 1190.873 1001.271, 1190.874 1001.270, 1201.687 999.579 C 1207.634 998.649, 1216.997 997.493, 1222.493 997.012 C 1234.734 995.939, 1236.748 996.697, 1244.534 1005.300 L 1250 1011.341 1250 1007.795 C 1250 1000.400, 1248.957 998.018, 1244.782 995.889 C 1242.280 994.612, 1241.027 993.371, 1241.362 992.500 C 1243.441 987.082, 1244.163 981.668, 1243.642 975.406 C 1242.899 966.469, 1243.716 965.263, 1251.360 964.021 C 1259.418 962.712, 1266.819 956.808, 1283.691 938.232 C 1291.772 929.335, 1298.467 922.863, 1300.594 921.892 C 1302.532 921.008, 1305.358 918.797, 1306.875 916.980 C 1309.586 913.734, 1309.739 913.688, 1315.734 914.314 C 1321.281 914.894, 1322.500 914.643, 1329.167 911.542 L 1336.500 908.133 1333 906.714 C 1331.075 905.934, 1328.702 905.014, 1327.727 904.670 C 1322.708 902.901, 1325.615 898.281, 1334.175 894.421 C 1336.279 893.472, 1337.993 892.427, 1337.985 892.098 C 1337.976 891.769, 1334.988 889.925, 1331.343 888 C 1323.613 883.917, 1321.937 881.932, 1323.757 879.017 C 1325.592 876.079, 1325.317 875.215, 1322 873.500 C 1317.715 871.284, 1317.975 867.041, 1322.980 857.539 C 1327.455 849.040, 1327.662 843.694, 1323.764 837.208 C 1321.358 833.205, 1321.873 828.027, 1325.443 820.320 C 1328.601 813.503, 1331.162 811.918, 1338.596 812.177 C 1343.792 812.358, 1345.223 811.950, 1350.536 808.769 C 1359.233 803.562, 1362.228 800.312, 1361.477 796.896 C 1360.623 793.006, 1362.932 789.155, 1369.468 783.572 C 1373.962 779.732, 1374.840 778.512, 1373.912 777.394 C 1373.276 776.627, 1372.196 776, 1371.512 776 C 1370.829 776, 1369.084 775.067, 1367.635 773.927 C 1365.328 772.113, 1365 771.131, 1365 766.037 L 1365 760.219 1354.030 759.502 C 1342.563 758.753, 1341.170 758.181, 1336.976 752.500 C 1336.164 751.400, 1333.160 748.938, 1330.301 747.029 C 1321.670 741.267, 1320.952 737.596, 1327.776 734.114 C 1329.906 733.027, 1335.056 728.957, 1339.219 725.069 C 1347.281 717.540, 1349.022 716.835, 1351.732 720 C 1354.244 722.934, 1356.112 722.503, 1362.554 717.500 C 1371.653 710.435, 1374 711.883, 1374 724.565 C 1374 730.777, 1374.087 731, 1376.521 731 C 1378.241 731, 1379.405 731.796, 1380.182 733.500 C 1381.083 735.478, 1382.070 736.007, 1384.911 736.035 C 1386.885 736.055, 1389.625 736.714, 1391 737.500 C 1394.560 739.535, 1395.354 739.356, 1396.751 736.201 C 1397.432 734.662, 1399.566 731.681, 1401.493 729.577 C 1405.436 725.273, 1407.334 725.693, 1408.530 731.137 C 1409.512 735.608, 1411.014 735.642, 1425.613 731.523 C 1440.774 727.245, 1439.970 728.228, 1437.500 717 C 1436.714 713.425, 1436.054 707.898, 1436.035 704.719 C 1436.009 700.479, 1435.593 698.781, 1434.472 698.351 C 1429.533 696.456, 1431.026 690.723, 1437.897 685.203 L 1442 681.906 1442 672.108 C 1442 661.133, 1442.681 659.808, 1449 658.496 C 1456.689 656.899, 1456.339 654.364, 1447.800 649.813 C 1437.705 644.432, 1434.672 638.491, 1437.430 629.500 C 1438.872 624.801, 1438.853 624.410, 1437.116 623 C 1429.794 617.056, 1427.504 615.689, 1422.806 614.457 C 1413.584 612.037, 1411.854 606.527, 1417.567 597.771 C 1418.905 595.721, 1420 593.275, 1420 592.337 C 1420 589.075, 1415.935 582.264, 1411.515 578.122 C 1407.758 574.601, 1406.875 573.014, 1405.816 567.889 C 1404.830 563.115, 1403.852 561.199, 1401.222 558.890 C 1396.469 554.717, 1395.462 551.183, 1397.342 545.276 C 1398.178 542.649, 1399.146 538.475, 1399.492 536 C 1400.381 529.647, 1401.791 526.454, 1404.316 525.073 C 1406.312 523.982, 1412.473 515.073, 1414.229 510.740 C 1414.630 509.750, 1414.332 506.142, 1413.567 502.720 C 1412.802 499.299, 1411.885 492, 1411.529 486.500 C 1410.540 471.209, 1408.944 466.637, 1403.477 463.433 C 1399.484 461.093, 1398.345 460.880, 1393.110 461.487 C 1388.652 462.005, 1386.488 461.786, 1384.164 460.585 C 1382.474 459.711, 1378.671 459, 1375.685 459 C 1369.708 459, 1366.047 456.925, 1363.570 452.135 C 1361.250 447.650, 1346.356 434.870, 1342.412 433.980 C 1338.472 433.092, 1328.437 434.163, 1326.972 435.628 C 1326.448 436.152, 1325.761 438.813, 1325.445 441.540 C 1324.078 453.345, 1323.814 453.531, 1306.266 455.017 C 1295.036 455.968, 1291.856 455.900, 1285.266 454.567 C 1280.995 453.703, 1272.634 452.319, 1266.686 451.491 C 1253.434 449.646, 1251.445 448.681, 1242 439.516 C 1235.313 433.028, 1233.720 432.008, 1227.302 430.107 C 1221.139 428.281, 1218.878 426.904, 1211.567 420.530 C 1201.590 411.831, 1199.659 410.656, 1196.819 411.557 C 1195.661 411.925, 1192.961 411.647, 1190.818 410.940 C 1187.640 409.891, 1185.179 409.894, 1177.439 410.957 L 1167.954 412.259 1162.150 407.699 C 1156.053 402.909, 1148.674 399.735, 1138.259 397.421 C 1134.827 396.659, 1130.552 395.422, 1128.759 394.674 C 1126.967 393.925, 1122.708 392.998, 1119.296 392.612 C 1113.607 391.969, 1112.751 392.137, 1108.986 394.628 C 1106.250 396.439, 1103.122 397.491, 1099.611 397.782 C 1094.437 398.211, 1094.283 398.145, 1091.063 394.080 C 1087.400 389.455, 1085.131 388.086, 1075.156 384.488 C 1066.979 381.539, 1067.376 381.578, 1066.588 383.631" stroke="none" fill="#111111" fill-rule="evenodd"/>
</svg>