<svg xmlns="http://www.w3.org/2000/svg" width="1500" height="1500" viewBox="0 0 1500 1500" version="1.1">
	<path d="M 1099 299 C 1096.525 302.838, 1094.124 305.983, 1093.663 305.989 C 1093.203 305.995, 1090.824 304.561, 1088.375 302.803 C 1085.096 300.448, 1082.946 299.645, 1080.212 299.754 C 1078.170 299.836, 1074.070 299.217, 1071.099 298.380 C 1065.898 296.913, 1065.622 296.934, 1063.599 298.959 C 1061.052 301.511, 1061.022 311.553, 1063.502 331.675 C 1064.477 339.579, 1064.797 346.993, 1064.381 351.987 C 1063.749 359.566, 1063.842 360.058, 1066.954 365.572 C 1069.760 370.544, 1070.099 371.897, 1069.541 375.897 C 1068.062 386.501, 1067.684 387.454, 1062.961 392.471 C 1060.358 395.237, 1054.768 401.775, 1050.541 407 C 1046.313 412.225, 1041.788 417.063, 1040.485 417.752 C 1034.643 420.838, 1015.413 423.185, 1012.280 421.194 C 1011.608 420.767, 1009.684 417.085, 1008.004 413.010 C 1002.352 399.303, 998.088 397.839, 981.735 403.987 C 975.212 406.440, 972.344 409.983, 963.512 426.500 C 960.865 431.450, 957.256 437.975, 955.491 441 C 953.727 444.025, 951.042 449.965, 949.526 454.200 C 945.636 465.062, 945.845 464.946, 929.721 465.246 L 916.091 465.500 909.988 459.500 C 906.632 456.200, 901.324 450.369, 898.193 446.542 C 895.062 442.715, 890.222 437.090, 887.437 434.042 C 884.652 430.994, 880.241 425.462, 877.636 421.749 C 871.302 412.725, 870.140 412.236, 855 412.236 C 840.480 412.236, 838.936 412.781, 833.990 419.651 C 830.851 424.013, 830.502 425.153, 830.518 431 C 830.540 438.797, 832.791 444.027, 845.799 466.500 C 854.311 481.206, 854.489 481.647, 854.850 489 C 855.213 496.400, 855.278 496.558, 859.709 500.829 L 864.200 505.158 863.507 514.329 C 863.127 519.373, 862.386 526.650, 861.862 530.500 C 861.338 534.350, 860.645 540.538, 860.320 544.250 C 859.647 551.964, 858.993 552.333, 854.477 547.545 C 850.453 543.277, 848.519 537.754, 845.944 523.164 C 843.794 510.989, 841.272 504.526, 832.862 489.645 C 826.212 477.878, 825.245 476.870, 816.914 473.030 C 808.775 469.278, 807.771 467.606, 805.533 454.067 C 802.833 437.736, 800.469 433.818, 795.559 437.532 C 791.391 440.684, 790.665 439.602, 791.345 431.250 C 791.692 426.988, 792.239 422.364, 792.561 420.975 C 793.305 417.772, 788.276 414.685, 779.775 413.126 C 770.928 411.505, 768.352 409.759, 766.304 403.995 C 763.609 396.404, 758.521 397.330, 755.411 405.977 C 753.288 411.881, 752.803 412.085, 751.199 407.750 C 748.750 401.137, 748.746 401.137, 740.651 408.070 C 734.019 413.750, 732.892 415.230, 730.988 420.757 C 728.532 427.887, 723.861 431.546, 715.165 433.151 C 710.782 433.961, 691.899 442.885, 689.321 445.366 C 688.426 446.228, 688.405 449.270, 689.233 458.037 C 690.454 470.952, 690.095 473.545, 686.500 477.817 C 683.050 481.918, 683.267 483.327, 689.250 495.629 C 695.760 509.016, 696.778 518.148, 693.019 529.444 C 690.687 536.452, 690.571 536.548, 686.395 534.960 C 678.646 532.014, 670.712 534.460, 669.218 540.255 C 668.163 544.350, 665.210 544.945, 661.552 541.798 C 659.276 539.840, 658.717 538.272, 657.881 531.494 C 656.276 518.487, 652.263 504.247, 648.751 499.099 C 647.025 496.570, 642.098 489.872, 637.801 484.216 C 629.486 473.268, 616.178 453.608, 606.520 438 C 603.286 432.775, 600.533 428.349, 600.401 428.164 C 600.269 427.979, 596.275 428.304, 591.524 428.885 C 579.435 430.364, 565.532 434.700, 561.848 438.142 C 558.935 440.863, 558.884 441.080, 559.475 448.211 C 560.671 462.641, 560.970 463.723, 565.640 470.544 C 572.395 480.409, 573 482.432, 573 495.143 C 573 506.081, 573.090 506.533, 576.750 513.925 C 581.596 523.713, 581.785 533.208, 577.566 554.750 C 574.920 568.254, 574.651 569, 572.422 569 C 567.612 569, 563.525 574.259, 558.624 586.751 C 556.089 593.213, 552.923 599.850, 551.589 601.500 L 549.163 604.500 546.995 599.500 C 537.810 578.320, 537.192 576.440, 538.586 573.925 C 542.003 567.756, 538.809 563, 531.250 563.001 C 525.589 563.002, 515.874 567.284, 511.724 571.608 C 508.213 575.267, 501.048 583.618, 498.192 587.382 C 496.350 589.809, 491.633 603.365, 489.673 611.862 C 488.845 615.456, 491.589 633.733, 493.974 640.500 C 496.267 647.009, 497.087 655.199, 495.525 656 C 494.989 656.275, 491.839 651.106, 488.525 644.513 C 484.970 637.440, 481.821 632.396, 480.845 632.208 C 478.428 631.743, 477.084 639.086, 475.575 661 C 474.629 674.746, 473.854 680.343, 472.562 682.781 C 470.894 685.927, 470.909 686.452, 472.911 695.559 C 474.060 700.783, 474.986 706.281, 474.968 707.778 C 474.938 710.358, 474.861 710.401, 473.502 708.605 C 471.302 705.699, 467.228 692.208, 466.525 685.500 C 465.387 674.632, 463.740 667.571, 461.163 662.500 C 459.001 658.247, 458.522 655.615, 457.959 644.888 C 457.131 629.135, 455.579 625.288, 449.210 623.208 C 440.619 620.402, 440.485 615.586, 448.779 607.797 C 452.936 603.894, 453.968 600.760, 453.989 591.973 C 454.004 586.003, 451.932 583.263, 446.336 581.854 C 443.721 581.196, 439.939 579.111, 437.447 576.954 C 434.791 574.655, 430.470 572.332, 426.304 570.962 C 410.645 565.813, 404 558.520, 404 546.482 C 404 543.962, 403.313 540.573, 402.474 538.950 C 399.306 532.823, 404.144 536.859, 412.261 547.116 C 417.147 553.290, 421.749 555.409, 428.708 554.691 C 437.517 553.782, 445.913 547.619, 448.843 539.912 C 450.059 536.713, 449.590 535.982, 444.127 532.559 L 439.753 529.819 444.391 525.111 C 448.015 521.431, 449.681 518.557, 452.014 511.959 C 455.857 501.094, 455.855 499.194, 452 497.850 C 448.602 496.666, 448.473 496.281, 450.552 493.531 C 452.603 490.818, 454.267 484.201, 453.583 481.476 C 452.752 478.163, 450.403 477.754, 445.772 480.116 C 442.324 481.875, 441.080 482.046, 438.080 481.175 C 436.111 480.603, 432.250 479.860, 429.500 479.524 C 417.386 478.042, 417.827 478.230, 419.413 475.204 C 424.041 466.369, 431.228 462.995, 443.819 463.746 L 453.179 464.305 452.840 461.902 C 452.234 457.617, 434.574 449.595, 424.754 449.144 L 417 448.788 417 444.568 C 417 441.348, 416.401 439.786, 414.473 437.975 C 411.988 435.640, 411.896 435.630, 408.921 437.387 C 407.258 438.370, 405.273 438.935, 404.510 438.642 C 402.624 437.918, 401.013 431.657, 401.002 425 C 400.991 418.593, 398.721 414.129, 394.077 411.386 C 391.535 409.885, 391 408.934, 391 405.919 C 391 400.868, 387.892 397.253, 382.349 395.858 C 378.883 394.985, 377.328 393.897, 375.567 391.113 C 369.865 382.098, 362.664 377.989, 355.346 379.575 C 350.198 380.690, 347.149 380.250, 343.219 377.824 C 338.984 375.210, 332.613 365.804, 330.690 359.327 C 328.378 351.541, 326.595 348.766, 321.602 345.180 C 316.041 341.187, 315.720 340.606, 313.513 330.500 C 312.552 326.100, 310.754 320.475, 309.519 318 C 308.284 315.525, 306.727 311.813, 306.059 309.750 C 303.748 302.612, 300.536 305.747, 299.226 316.417 C 298.287 324.073, 297.126 324.269, 292.651 317.530 C 287.831 310.270, 286.156 310.335, 281.522 317.964 C 275.941 327.150, 270.771 327.424, 258.702 319.173 C 248.336 312.086, 247.444 311.616, 245.663 312.299 C 243.335 313.192, 240.008 318.994, 240.004 322.167 C 239.998 326.143, 232.579 328.892, 226.641 327.118 C 218.385 324.652, 218 324.631, 218 326.636 C 218 327.664, 220.250 332.328, 223 337 C 227.791 345.141, 229.356 351.044, 227.095 352.442 C 226.597 352.749, 223.180 351.651, 219.501 350.001 C 212.131 346.694, 210 346.322, 210 348.345 C 210 350.150, 212.438 352.141, 218.819 355.551 C 224.910 358.805, 229.705 363.796, 230.557 367.768 C 233.130 379.756, 237.627 396.267, 239.299 399.864 C 242.059 405.802, 250.513 412.319, 258.282 414.499 C 270.868 418.030, 286.787 426.789, 295.250 434.839 C 299.429 438.814, 299.669 439.805, 297.481 444.037 C 295.428 448.006, 296.720 450.878, 305.990 462.955 C 309.981 468.155, 313.689 473.679, 314.230 475.230 C 315.452 478.736, 314.380 485, 312.558 485 C 310.874 485, 306.539 480.104, 302.146 473.241 C 297.495 465.975, 296.049 466.313, 291.423 475.750 L 287.624 483.500 286.827 471.761 L 286.031 460.022 281.765 456.281 C 279.419 454.223, 275.733 450.740, 273.572 448.541 C 269.217 444.107, 267.503 443.811, 255 445.334 C 246.754 446.338, 245.495 445.373, 229.336 425.645 C 222.963 417.865, 217.053 411.097, 216.202 410.604 C 214.016 409.337, 201.526 406.304, 195.027 405.461 C 192.017 405.070, 186.965 403.394, 183.801 401.735 L 178.048 398.720 169.347 402.597 C 157.943 407.678, 153 411.273, 153 414.483 C 153 418.673, 156.916 420.381, 164.971 419.706 C 172.908 419.040, 173.877 419.662, 174.722 425.961 C 175.382 430.887, 175.801 430.889, 166.603 425.927 C 157.989 421.281, 154.664 421.084, 154.189 425.192 C 153.758 428.926, 156.458 432.612, 161.892 435.707 C 168.204 439.303, 170.573 441.548, 175.185 448.304 L 179.147 454.107 169.324 449.142 C 162.126 445.504, 157.031 443.707, 150.265 442.421 C 138.708 440.224, 137.156 440.796, 133.605 448.552 C 130.307 455.756, 130.336 457.723, 133.808 462.022 C 135.353 463.935, 138.100 467.945, 139.912 470.934 C 144.944 479.230, 150.082 484.961, 154.500 487.202 C 162.032 491.023, 174 498.381, 174 499.191 C 174 500.510, 168.207 500.113, 164.429 498.535 C 162.500 497.729, 158.352 494.857, 155.211 492.153 C 143.667 482.215, 137.934 481.329, 132.862 488.701 C 127.544 496.430, 127.043 499.029, 128.597 510.847 C 130.168 522.802, 131.530 525.519, 139.452 532.503 C 147.077 539.224, 146.349 538.968, 157.856 538.985 C 169.904 539.003, 178.101 537.200, 185.950 532.807 C 191.221 529.857, 191.678 529.780, 199.913 530.448 C 212.363 531.458, 212.395 531.693, 201.146 539.303 L 191.246 546 183.688 546 C 169.131 546, 167.413 549.037, 177 557.819 C 180.300 560.842, 183 564.061, 183 564.973 C 183 566.893, 177.087 570, 173.431 570 C 172.055 570, 169.791 570.746, 168.400 571.657 C 165.895 573.299, 165.814 573.259, 159.686 567.346 C 147.485 555.573, 142.622 552.316, 128.314 546.330 C 122.366 543.842, 115.094 540.776, 112.154 539.517 C 109.214 538.258, 104.939 535.429, 102.654 533.231 C 97.789 528.550, 95.058 527, 91.673 527 C 88.424 527, 87.806 528.996, 89.134 535.191 C 92.198 549.477, 97.469 555.141, 116.764 564.881 C 121.821 567.433, 123 568.485, 123 570.443 C 123 575.676, 120.930 576.088, 110.872 572.853 C 101.446 569.822, 97.971 569.546, 97.238 571.772 C 96.594 573.727, 111.663 588.622, 116.663 590.972 C 126.851 595.760, 122.904 599.317, 108 598.777 C 96.525 598.362, 92.905 597.052, 81 589.006 C 67.240 579.707, 64.785 579.640, 58.540 588.391 C 56.032 591.907, 53.036 597.054, 51.882 599.830 C 50.426 603.333, 48.601 605.660, 45.917 607.437 C 32.337 616.423, 41.565 622.553, 61.040 617.481 C 74.314 614.025, 92.439 619.366, 104.113 630.173 C 106.612 632.487, 107 633.575, 107 638.268 C 107 647.205, 110.360 648.701, 122.145 645.010 C 128.757 642.939, 136.716 638.172, 144.292 631.745 C 147.563 628.970, 150.690 627.486, 156.278 626.057 C 164.927 623.845, 170.623 621.183, 173.489 618.014 C 177.380 613.711, 178.615 613.643, 184.773 617.395 C 191.468 621.474, 196.777 622.707, 200.145 620.964 C 201.440 620.294, 206.325 616.043, 211 611.518 C 216.713 605.987, 220.811 602.876, 223.500 602.027 C 231.765 599.417, 233.841 597.869, 238.912 590.533 C 244.667 582.208, 245.420 581.735, 250.675 583.148 C 256.264 584.650, 257.032 585.862, 257.607 594.080 C 258.464 606.338, 258.463 606.335, 263.090 605.715 C 269.091 604.910, 269.632 604.020, 270.367 593.750 C 271.435 578.845, 272.158 578.071, 274.087 589.766 C 276.056 601.699, 276.969 603.341, 280.827 601.879 C 285.661 600.048, 287.999 597.023, 288.015 592.576 C 288.024 590.334, 288.467 587.825, 289 587 C 289.605 586.065, 289.975 585.956, 289.985 586.711 C 290.046 591.567, 292.360 608.676, 293.054 609.408 C 294.570 611.005, 296.519 608.319, 298.944 601.294 C 302.192 591.887, 302.652 591.789, 303.453 600.339 C 304.513 611.654, 305.556 612.431, 311.823 606.569 L 316.924 601.797 322.790 606.898 C 329.045 612.339, 330.841 612.853, 335.364 610.494 C 339.209 608.489, 339.211 608.490, 337.270 612.561 C 335.899 615.436, 335.180 615.992, 333.536 615.447 C 323.933 612.267, 320.272 614.678, 324.008 621.721 C 330.141 633.282, 332.180 633.574, 342.837 624.412 C 350.295 618, 350.617 617.840, 354.890 618.412 C 357.304 618.735, 360.101 619, 361.105 619 C 364.438 619, 369.768 624.774, 371.533 630.297 C 373.195 635.495, 376.413 639.481, 378.104 638.436 C 379.954 637.292, 378.905 641.675, 376.471 645.257 C 374.038 648.838, 369.515 651.994, 366.800 652.006 C 361.870 652.027, 357.196 654.721, 349.648 661.892 C 338.024 672.936, 322.828 685.429, 313.304 691.771 C 304.202 697.831, 303.750 698.671, 303.750 709.515 C 303.750 718.077, 305.793 721.576, 312.533 724.557 C 318.086 727.013, 348.044 736, 350.677 736 C 352.547 736, 369.791 727.536, 372.621 725.229 C 373.788 724.278, 375.997 721.250, 377.530 718.500 C 382.367 709.824, 385.973 708.773, 391.600 714.400 C 396.324 719.124, 395.984 721.361, 388.975 731.718 C 382.549 741.212, 382.140 742.738, 383.385 752.564 L 384.153 758.627 380.327 760.299 C 367.998 765.686, 357.514 765.056, 333 757.455 C 321.486 753.885, 304.101 752.961, 295.450 755.461 C 288.364 757.507, 286.559 758.971, 283.375 765.250 C 280.363 771.189, 279.953 771.167, 276.532 764.881 C 274.044 760.311, 273.802 759.051, 274.277 753.136 C 275.139 742.403, 272.364 740.480, 263.826 745.896 C 258.178 749.477, 256.370 751.978, 254.349 759 C 252.415 765.722, 250.782 767.686, 245.909 769.146 C 242.523 770.160, 241.689 770.008, 237.643 767.637 C 235.169 766.187, 232.521 765, 231.759 765 C 229.541 765, 225.465 769.943, 221.259 777.733 L 217.354 784.966 215.552 781.233 C 214.561 779.180, 213.402 774.405, 212.977 770.622 C 212.200 763.716, 210.652 761.214, 208.342 763.131 C 207.668 763.691, 205.264 769.707, 203 776.500 C 197.683 792.454, 195.757 794.243, 193.043 785.750 C 191.398 780.602, 188.562 780.791, 181.529 786.519 C 176.113 790.931, 169.931 793.586, 151.920 799.237 C 143.647 801.833, 141.454 801.298, 134.475 794.977 C 127.445 788.611, 126.244 788.655, 112.500 795.790 C 103.564 800.428, 101.141 802.171, 99.585 805.077 L 97.669 808.654 100.752 816.077 C 102.447 820.160, 104.359 826.406, 104.999 829.958 C 106.410 837.783, 107.600 840.108, 113.343 846.250 C 118.822 852.111, 119.230 852.124, 135.498 846.923 C 146.677 843.349, 148.853 842.282, 153.137 838.275 C 157.725 833.983, 158.438 833.671, 164.762 833.180 C 174.071 832.457, 177.963 832.519, 181.751 833.451 C 184.730 834.184, 185.327 833.895, 188.887 830 C 193.207 825.274, 193.678 825.184, 205.063 826.924 C 215.650 828.542, 227.015 828.578, 237.185 827.024 C 245.541 825.748, 246.070 825.784, 251.185 827.978 C 254.108 829.233, 257.726 831.287, 259.225 832.544 C 266.066 838.280, 285.028 838.754, 295.508 833.452 C 301.051 830.647, 301.249 830.620, 302.605 832.474 C 303.372 833.524, 304 836.546, 304 839.191 C 304 845.120, 306.417 848, 311.393 848 C 316.599 848, 316.781 849.530, 313.439 865.168 C 311.157 875.841, 311.408 882.700, 314.427 892.180 C 318.957 906.409, 323.094 909.171, 328.331 901.464 L 330.636 898.071 331.795 909.155 C 333.203 922.617, 333.460 923.017, 339.881 921.747 C 343.563 921.019, 346.540 919.327, 352.032 914.839 C 357.962 909.994, 359.878 908.952, 362.403 909.198 C 366.881 909.635, 366.769 912.279, 361.927 920.500 C 357.606 927.835, 356.061 934.239, 356.018 945 C 356.001 949.156, 355.259 951.897, 352.981 956.219 C 350.454 961.013, 350.072 962.630, 350.620 966.219 C 351.853 974.288, 353.167 975.376, 363.605 976.965 C 367.397 977.543, 371.554 978.256, 372.842 978.550 C 375.848 979.236, 380.364 974.582, 387.670 963.271 C 391.195 957.813, 393.745 954.889, 395.242 954.589 C 396.484 954.340, 401.775 953.203, 407 952.061 C 412.225 950.920, 418.275 949.989, 420.445 949.993 L 424.391 950 417.945 954.566 C 414.400 957.078, 408.732 960.692, 405.349 962.597 C 401.966 964.502, 397.294 968.185, 394.967 970.781 C 385.930 980.861, 382.319 984.419, 377.500 987.993 C 373.377 991.051, 372.160 992.707, 370.559 997.436 C 368.178 1004.467, 369.009 1006.384, 374.601 1006.767 C 382.712 1007.321, 383 1007.535, 383 1013 C 383 1017.599, 382.799 1018.006, 380.250 1018.571 C 366.591 1021.595, 363.929 1024.423, 367.041 1032.609 C 369.025 1037.827, 367.412 1040.816, 360.915 1043.963 C 357.668 1045.536, 353.322 1048.145, 351.256 1049.761 C 349.190 1051.377, 343.129 1055.467, 337.786 1058.850 C 328.197 1064.921, 327.978 1065, 320.786 1065.020 C 316.779 1065.031, 310.361 1065.493, 306.524 1066.048 C 296.612 1067.480, 294.981 1066.579, 289.761 1056.782 C 279.408 1037.352, 272.614 1037.126, 264.950 1055.959 C 258.981 1070.626, 259.474 1073.626, 268.479 1077.454 C 272.066 1078.978, 275 1080.637, 275 1081.141 C 275 1081.645, 273.710 1084.632, 272.133 1087.779 C 270.557 1090.925, 268.942 1095.750, 268.545 1098.500 C 268.147 1101.250, 267.148 1104.254, 266.323 1105.176 C 263.667 1108.146, 265.207 1110.342, 272.511 1114 C 279.181 1117.340, 280.002 1117.504, 290.500 1117.579 C 296.550 1117.623, 303.807 1117.995, 306.626 1118.406 C 311.162 1119.068, 312.435 1118.809, 317.679 1116.162 C 323.443 1113.253, 323.852 1113.192, 332.553 1113.973 C 337.474 1114.414, 343.469 1115.501, 345.876 1116.388 C 354.224 1119.464, 358.005 1118.492, 370.500 1110.057 C 373.800 1107.829, 377.400 1106, 378.500 1105.992 C 379.600 1105.985, 382.682 1105.316, 385.349 1104.507 C 391.308 1102.699, 392.812 1103.372, 397.101 1109.765 C 402.657 1118.045, 404.088 1118.449, 413.835 1114.489 C 417.234 1113.108, 423.499 1111.497, 427.757 1110.908 C 437.684 1109.537, 440.227 1108.276, 447.769 1100.987 C 454.711 1094.278, 454.524 1094.355, 458.095 1096.755 C 469.026 1104.103, 472.298 1106.076, 478.183 1108.868 C 481.859 1110.612, 486.134 1113.460, 487.683 1115.198 C 493.450 1121.665, 495.988 1123.723, 503.779 1128.250 C 508.170 1130.801, 514.555 1135.213, 517.969 1138.054 C 521.382 1140.894, 529.848 1146.358, 536.781 1150.194 C 553.914 1159.675, 556.790 1161.792, 563.986 1170.218 C 583.509 1193.080, 605.718 1201.836, 644.515 1201.966 C 656.192 1202.006, 657.891 1202.694, 670.480 1212.493 C 683.613 1222.715, 685.940 1223.562, 716 1229.041 C 726.917 1231.031, 736.698 1233.470, 742 1235.525 C 757.330 1241.465, 775.650 1244.219, 785.110 1242.005 C 788.075 1241.312, 796.125 1238.972, 803 1236.806 C 809.875 1234.641, 819.325 1231.984, 824 1230.904 C 829.903 1229.539, 837.388 1226.519, 848.500 1221.018 C 857.300 1216.662, 867.875 1211.562, 872 1209.686 C 884.018 1204.219, 891.401 1195.509, 895.378 1182.104 C 899.080 1169.626, 907.903 1160.603, 932.649 1143.989 C 958.506 1126.630, 958.119 1126.779, 979 1126.078 C 988.625 1125.754, 997.063 1125.128, 997.750 1124.686 C 999.432 1123.604, 999.326 1120.530, 997.482 1116.965 C 995.986 1114.073, 996.961 1105.760, 998.939 1104.538 C 1000.574 1103.527, 1007.399 1106.914, 1008.688 1109.375 C 1010.137 1112.139, 1011.457 1112.688, 1012.520 1110.967 C 1012.922 1110.317, 1014.471 1110.746, 1016.700 1112.124 C 1018.648 1113.328, 1021.875 1114.667, 1023.871 1115.100 C 1025.867 1115.533, 1029.458 1116.468, 1031.852 1117.178 C 1036.667 1118.605, 1037.335 1118.171, 1041.203 1111.110 C 1042.594 1108.572, 1043.534 1108, 1046.314 1108 C 1050.081 1108, 1055.233 1104.954, 1061.500 1099.022 C 1063.799 1096.845, 1067.687 1094.528, 1070.645 1093.572 C 1076.019 1091.835, 1081.139 1086.611, 1097.425 1066.251 C 1100.893 1061.916, 1107.900 1055.288, 1114.862 1049.759 C 1121.263 1044.675, 1130.597 1036.637, 1135.604 1031.897 C 1146.527 1021.558, 1160.051 1014.378, 1189.937 1003.055 C 1209.020 995.825, 1210.902 994.711, 1213.784 988.938 C 1215.462 985.576, 1215.698 985.473, 1224.500 984.277 C 1234.723 982.889, 1237.583 983.527, 1241.388 988.050 L 1243.736 990.840 1255.038 989.365 C 1269.728 987.446, 1270.318 987.116, 1269.686 981.166 C 1269.414 978.600, 1268.902 975.375, 1268.549 974 C 1267.995 971.844, 1268.464 971.186, 1271.959 969.217 C 1275.193 967.395, 1276.798 965.377, 1279.912 959.217 C 1284.043 951.045, 1294.177 940, 1297.544 940 C 1298.519 940, 1303.362 941.863, 1308.306 944.141 C 1315.603 947.502, 1317.786 948.111, 1319.898 947.373 C 1326.703 944.997, 1326.575 923.384, 1319.675 909.769 C 1317.649 905.771, 1315.993 901.499, 1315.996 900.276 C 1316.001 897.758, 1319.705 895.443, 1325.718 894.200 L 1329.500 893.418 1329.798 887.190 C 1330.069 881.533, 1329.801 880.550, 1326.880 876.482 C 1323.124 871.252, 1323.098 871.309, 1329.853 870.028 C 1339.967 868.110, 1340.724 866.810, 1335.467 860.394 C 1331.618 855.698, 1325.599 843.702, 1326.195 841.915 C 1326.399 841.303, 1331.538 845.512, 1337.615 851.268 C 1353.574 866.384, 1358.728 867.327, 1378 858.655 C 1393.549 851.658, 1394.559 849.627, 1388.250 838.052 C 1386.188 834.268, 1384.746 830.924, 1385.047 830.622 C 1385.347 830.320, 1387.730 830.716, 1390.342 831.503 C 1395.199 832.964, 1399.715 832.703, 1403.798 830.724 C 1405.899 829.706, 1406.040 829.167, 1405.445 824.407 C 1404.798 819.228, 1404.809 819.201, 1407.851 818.533 C 1411.901 817.643, 1416 814.324, 1416 811.934 C 1416 809.576, 1402.037 800.024, 1393.399 796.472 C 1386.407 793.598, 1388.074 793.422, 1402.500 795.512 C 1413.600 797.120, 1427.769 797.433, 1429.848 796.115 C 1432.177 794.639, 1430.663 791.707, 1425.596 787.877 C 1416.204 780.779, 1390.541 766.197, 1383.500 763.959 C 1372.158 760.353, 1371.705 758.571, 1381.327 755.411 C 1384.172 754.476, 1387.388 753.102, 1388.473 752.356 C 1391.606 750.202, 1392.881 750.676, 1398.939 756.250 C 1409.065 765.565, 1419.309 771.313, 1425.883 771.368 C 1433.581 771.432, 1436 769.946, 1436 765.155 C 1436 762.162, 1436.880 760.350, 1440.250 756.402 L 1444.500 751.423 1444.413 736.016 C 1444.361 726.796, 1443.927 720.476, 1443.334 720.278 C 1442.788 720.096, 1440.584 721.344, 1438.435 723.051 C 1435.338 725.513, 1433.911 726.032, 1431.546 725.559 C 1427.204 724.691, 1426.621 723.634, 1428.489 720.022 C 1430.474 716.183, 1430.953 716.749, 1422.759 713.253 C 1416.532 710.597, 1409.252 705.415, 1410.290 704.377 C 1410.541 704.125, 1414.992 703.803, 1420.179 703.662 C 1432.975 703.312, 1440 698.830, 1440 691.016 C 1440 688.874, 1436.202 680.967, 1433.560 677.608 C 1431.831 675.410, 1423.578 675.830, 1412.150 678.699 C 1405.376 680.400, 1404.052 679.919, 1404.015 675.750 C 1404.002 674.285, 1404.937 673.999, 1409.750 673.994 C 1420.680 673.984, 1426.300 671.174, 1421.902 667.920 C 1415.045 662.845, 1415.075 663.702, 1421.595 659.275 C 1427.403 655.331, 1427.581 655.069, 1431.380 644.879 C 1435.977 632.545, 1436.821 624.775, 1434.981 611.700 C 1433.753 602.968, 1433.487 602.313, 1429.755 598.822 C 1420.515 590.179, 1416.930 590.540, 1413.561 600.453 C 1412.524 603.504, 1411.363 606, 1410.982 606 C 1410.601 606, 1409.498 602.288, 1408.531 597.750 C 1407.564 593.212, 1405.587 587.363, 1404.137 584.751 C 1401.664 580.298, 1401.247 580.002, 1397.437 580.001 C 1394.227 580, 1392.771 580.630, 1390.500 583 C 1386.786 586.876, 1384.088 586.798, 1377.131 582.613 C 1374.034 580.750, 1369.025 578, 1366 576.501 C 1362.975 575.002, 1359.068 572.702, 1357.317 571.388 C 1351.593 567.094, 1348.861 568.140, 1337.750 578.880 L 1332 584.437 1332 580.844 C 1332 572.457, 1332.614 571.542, 1340.344 568.396 C 1348.851 564.934, 1349.238 563.596, 1343.093 558.881 C 1337.435 554.540, 1335.288 551.515, 1334.146 546.279 C 1333.264 542.234, 1333.408 541.824, 1337.613 536.409 C 1342.361 530.295, 1343.206 526.517, 1340.049 525.516 C 1337.156 524.597, 1324.790 529.250, 1317.499 534.001 C 1310.828 538.347, 1303.726 541, 1298.762 541 C 1297.155 541, 1292.910 542.173, 1289.327 543.606 C 1279.227 547.647, 1279.043 546.230, 1287.086 526.357 C 1288.261 523.453, 1288.145 522.961, 1285.564 519.894 L 1282.771 516.575 1285.531 514.537 C 1296.089 506.745, 1303.221 495.992, 1306.747 482.549 C 1308.704 475.089, 1308.514 474.228, 1299.422 449.338 C 1297.328 443.605, 1295.657 443.304, 1289.489 447.552 C 1281.422 453.108, 1272.849 454.250, 1271.485 449.952 C 1270.539 446.973, 1267.144 446.517, 1263.881 448.930 L 1260.990 451.067 1252.265 445.284 C 1243.007 439.147, 1239.366 434.663, 1240.375 430.642 C 1240.695 429.367, 1245.047 424.763, 1250.045 420.412 C 1267.172 405.503, 1268.641 400.127, 1259.435 386.042 C 1251.106 373.298, 1251.631 372.412, 1272 364.829 C 1278.780 362.305, 1281.443 360.686, 1285.160 356.832 C 1287.722 354.174, 1290.366 352, 1291.035 352 C 1293.577 352, 1304 346.665, 1304 345.363 C 1304 344.329, 1302.123 344, 1296.222 344 C 1289.390 344, 1287.555 343.574, 1281.140 340.500 C 1277.124 338.575, 1273.126 337, 1272.256 337 C 1267.462 337, 1253.749 349.313, 1252.571 354.676 C 1252.184 356.438, 1249.370 360.165, 1245.615 363.886 L 1239.309 370.136 1226.906 373.103 C 1220.084 374.734, 1213.948 376.624, 1213.270 377.302 C 1210.871 379.701, 1208.126 393.298, 1208.720 399.844 C 1209.270 405.910, 1209.241 406, 1206.749 406 C 1205.333 406, 1201.594 404.067, 1198.255 401.609 C 1188.734 394.600, 1174.761 386, 1172.893 386 C 1170.832 386, 1166.858 381.485, 1165.026 377.063 C 1163.928 374.413, 1163.924 372.414, 1165.004 365.473 C 1166.151 358.099, 1166.108 356.274, 1164.646 350.349 C 1162.755 342.684, 1161.433 341.008, 1150.981 333.013 C 1140.897 325.300, 1140.894 325.295, 1140.288 315.787 C 1139.794 308.027, 1139.542 307.270, 1136.314 303.890 C 1132.121 299.498, 1126.297 296.857, 1114.713 294.095 C 1103.160 291.340, 1104.135 291.036, 1099 299 M 1100.500 302 C 1095.240 310.207, 1093.924 310.561, 1087.347 305.539 C 1083.495 302.598, 1082.039 302.085, 1077.657 302.125 C 1074.821 302.151, 1071.163 301.657, 1069.530 301.027 C 1063.449 298.683, 1062.821 305.514, 1066.589 333 C 1067.492 339.590, 1067.798 346.665, 1067.410 352 C 1066.831 359.955, 1066.952 360.734, 1069.296 364.147 C 1072.967 369.494, 1073.291 371.336, 1071.963 379.297 C 1070.582 387.569, 1069.288 390.495, 1065.458 394 C 1063.955 395.375, 1059.450 400.591, 1055.446 405.590 C 1043.833 420.090, 1043.256 420.539, 1033.135 422.915 C 1014.763 427.228, 1010.432 426.015, 1006.018 415.322 C 1001.633 404.698, 999.654 402.655, 994.500 403.431 C 985.431 404.797, 978.239 408.140, 975.166 412.418 C 970.171 419.374, 955.379 447.082, 952.043 455.733 C 947.671 467.068, 946.900 467.547, 931.629 468.395 C 921.932 468.934, 918.406 468.776, 915.824 467.688 C 912.442 466.263, 900.702 454.563, 893.560 445.500 C 891.392 442.750, 887.529 438.250, 884.974 435.500 C 882.419 432.750, 878.174 427.416, 875.540 423.647 C 870.825 416.898, 865.381 413.028, 862.825 414.608 C 862.228 414.977, 857.462 415.233, 852.234 415.177 C 841.142 415.057, 840.234 415.422, 836.110 421.648 C 830.290 430.434, 831.865 436.664, 846.231 461.671 C 857.801 481.810, 857.318 480.673, 857.508 488.210 C 857.671 494.674, 857.829 495.068, 861.813 498.934 C 867.233 504.195, 867.333 504.862, 865.409 523 C 864.505 531.525, 863.474 541.558, 863.119 545.295 C 862.544 551.350, 861.321 553.927, 859 553.981 C 857.307 554.020, 851.667 549.507, 849.974 546.759 C 847.121 542.127, 844.303 532.520, 842.994 522.959 C 841.618 512.907, 839.624 507.674, 831.768 493.500 C 823.979 479.447, 823.875 479.333, 815.190 475.288 C 806.694 471.332, 804.711 468.142, 802.959 455.614 C 802.412 451.701, 801.268 446.384, 800.417 443.797 L 798.871 439.094 795.381 440.758 C 789.930 443.358, 788.500 441.826, 788.500 433.386 C 788.500 429.599, 788.826 425.041, 789.224 423.257 C 789.901 420.220, 789.697 419.886, 786.013 418.007 C 783.850 416.903, 781.017 416, 779.718 416 C 772.179 416, 765.053 411.043, 763.458 404.689 C 762.354 400.290, 760.483 401.580, 757.206 409 C 755.505 412.850, 753.613 416, 753 416 C 752.388 416, 750.885 413.731, 749.661 410.957 L 747.436 405.914 741.372 411.401 C 736.572 415.745, 734.856 418.131, 733.134 422.853 C 730.560 429.912, 724.841 434.323, 716.118 435.978 C 713.242 436.523, 706.404 439.273, 700.924 442.088 L 690.959 447.207 691.647 452.353 C 692.026 455.184, 692.373 461.355, 692.418 466.068 C 692.493 473.936, 692.275 474.931, 689.750 478.251 C 686.177 482.948, 686.260 483.981, 690.888 492.415 C 698.540 506.360, 700.015 518.357, 695.581 530.574 C 692.322 539.551, 692.235 539.610, 685.115 537.612 C 676.981 535.330, 674.296 536.144, 671.957 541.600 C 669.825 546.575, 666.724 547.952, 662.414 545.840 C 657.853 543.604, 655.881 539.903, 654.979 531.884 C 654.011 523.281, 650.328 507.745, 648.293 503.686 C 647.518 502.139, 643.401 496.289, 639.145 490.686 C 627.990 476.001, 616.537 459.442, 607.032 444.256 L 598.742 431.013 593.121 431.600 C 580.615 432.906, 564.667 437.885, 562.997 441.006 C 562.359 442.197, 562.309 446.502, 562.857 452.981 C 563.629 462.109, 564.021 463.506, 566.871 467.298 C 574.405 477.320, 575.449 480.424, 575.645 493.400 C 575.820 504.928, 575.945 505.553, 579.634 513.400 C 584.468 523.681, 584.685 532.312, 580.649 553.728 C 577.151 572.286, 576.824 573.115, 573.277 572.405 C 569.195 571.589, 566.720 574.803, 561.139 588.167 C 555.866 600.795, 550.687 609.201, 548.660 608.423 C 547.945 608.149, 544.348 600.737, 540.665 591.951 C 534.251 576.653, 534.036 575.875, 535.561 573.547 C 539.466 567.588, 534.720 563.976, 526.312 566.507 C 521.361 567.997, 511 574.420, 511 576 C 511 576.538, 508.776 579.434, 506.058 582.436 C 499.178 590.034, 498.578 591.154, 495.050 603 C 492 613.240, 491.951 613.723, 493.054 622.500 C 493.676 627.450, 495.231 634.875, 496.510 639 C 500.526 651.953, 500.567 659.074, 496.630 659.833 C 493.831 660.372, 492.130 658.207, 486.726 647.227 C 482.365 638.367, 481.488 637.151, 480.800 639.013 C 479.702 641.979, 478.019 661.642, 478.009 671.615 C 478.001 678.429, 477.651 680.174, 475.822 682.499 L 473.645 685.267 475.547 693.883 C 478.175 705.794, 478.173 713.500, 475.540 713.500 C 470.824 713.500, 465.929 700.928, 463.056 681.441 C 461.624 671.723, 460.349 666.796, 457.938 661.660 C 455.056 655.521, 454.787 654.181, 455.311 648.576 C 455.925 642, 453.978 629.883, 451.906 627.387 C 451.273 626.624, 449.867 626, 448.782 626 C 446.047 626, 441.046 622.251, 439.955 619.382 C 438.679 616.025, 440.158 612.814, 445.722 606.866 C 450.352 601.917, 450.481 601.606, 450.835 594.599 C 451.248 586.417, 450.955 585.974, 443.846 584.052 C 441.024 583.289, 437.922 581.483, 435.964 579.463 C 433.626 577.050, 430.083 575.217, 423.119 572.817 C 408.893 567.913, 401.034 558.630, 401.010 546.700 C 401.004 544.061, 400.285 540.517, 399.410 538.826 C 397.973 536.046, 397.969 535.602, 399.373 534.198 C 401.790 531.781, 405.059 533.884, 411.969 542.304 C 415.306 546.369, 419.174 550.214, 420.565 550.848 C 428.458 554.444, 440.658 549.505, 445.027 540.945 L 446.842 537.390 442.392 534.702 C 435.994 530.838, 435.922 529.675, 441.708 523.671 C 445.496 519.740, 447.329 516.701, 449.350 511 C 452.679 501.611, 452.664 501.128, 449 499.850 C 445.351 498.578, 445.275 497.270, 448.500 491.212 C 452.835 483.069, 451.808 480.037, 445.760 483.122 C 441.952 485.065, 441.485 485.088, 435.634 483.616 C 432.260 482.767, 426.912 481.798, 423.749 481.464 C 413.752 480.407, 413.121 477.312, 421.117 468.562 C 427.380 461.710, 429.816 460.771, 440.300 461.173 C 445.035 461.355, 448.573 461.110, 448.269 460.621 C 447.968 460.137, 444.297 458.134, 440.111 456.169 C 433.723 453.170, 431.054 452.508, 423.500 452.048 L 414.500 451.500 414.186 446.525 C 413.775 440.009, 412.600 438.561, 409.416 440.647 C 403.373 444.606, 399.098 439.233, 398.102 426.429 C 397.424 417.703, 396.675 416.198, 391.388 412.931 C 388.395 411.081, 388 410.340, 388 406.573 C 388 401.526, 386.163 399.478, 380.731 398.470 C 378.263 398.012, 376.192 396.761, 374.731 394.848 C 365.502 382.761, 363.594 381.623, 354.122 382.557 C 348.345 383.126, 346.744 382.910, 343.152 381.077 C 337.710 378.301, 330.512 368.590, 328.368 361.131 C 326.004 352.907, 324.710 350.849, 319.588 347.171 C 314.049 343.193, 312.790 340.892, 310.541 330.647 C 308.499 321.343, 303.464 309.883, 302.648 312.683 C 302.357 313.683, 301.814 317.093, 301.443 320.263 C 301.071 323.433, 300.326 326.299, 299.788 326.631 C 297.991 327.742, 294.020 324.706, 290.889 319.828 C 289.186 317.172, 287.480 315, 287.100 315 C 286.719 315, 285.064 317.363, 283.421 320.250 C 280.948 324.597, 279.703 325.733, 276.184 326.855 C 269.153 329.097, 266.412 327.980, 248.324 315.500 C 246.286 314.094, 243.448 317.796, 242.627 322.932 C 242.073 326.397, 241.454 327.201, 238.338 328.503 C 232.216 331.061, 227.648 331.386, 224.041 329.521 C 222.247 328.594, 221.001 328.209, 221.271 328.667 C 221.541 329.125, 223.682 332.650, 226.028 336.500 C 231.550 345.560, 232.327 350.866, 228.633 354.289 L 226.021 356.709 228.117 358.605 C 231.024 361.233, 233.592 366.678, 234.398 371.918 C 235.683 380.276, 240.909 397.265, 243.313 400.897 C 246.651 405.941, 252.154 409.483, 261.274 412.459 C 280.364 418.688, 302.065 433.527, 301.968 440.285 C 301.951 441.503, 301.276 443.374, 300.468 444.441 C 298.158 447.496, 298.499 448.259, 307.511 460.212 C 316.942 472.721, 318.659 476.841, 317.003 482.990 C 314.781 491.242, 308.837 488.916, 301.041 476.744 L 297.354 470.988 293.927 477.654 C 287.438 490.276, 284.764 488.981, 283.923 472.808 L 283.347 461.713 275.446 454.357 C 266.827 446.330, 267.371 446.511, 256.593 448.114 C 245.824 449.715, 243.356 447.906, 225.064 425 C 220.453 419.225, 216.361 414.132, 215.971 413.682 C 214.998 412.557, 201.770 409.243, 193.682 408.097 C 190.021 407.579, 185.782 406.279, 184.263 405.208 C 178.982 401.489, 177.742 401.610, 167.268 406.866 C 161.837 409.591, 156.826 412.505, 156.132 413.341 C 154.009 415.899, 158.244 417.360, 165.750 416.659 C 173.205 415.963, 176.345 417.990, 177.520 424.257 C 179.234 433.392, 176.395 434.898, 167.527 429.558 C 158.288 423.995, 155.630 423.697, 157.803 428.468 C 158.424 429.830, 161.328 432.297, 164.258 433.950 C 170.361 437.395, 172.980 440.023, 178.942 448.685 C 185.747 458.573, 183.545 459.299, 168.957 451.978 C 162.350 448.663, 156.326 446.455, 151.225 445.479 C 139.447 443.225, 139.369 443.244, 136.502 449.187 C 133.225 455.981, 133.150 455.578, 139.458 465.186 C 148.862 479.509, 151.998 482.971, 158.500 486.205 C 168.468 491.163, 179.037 498.361, 178.744 499.993 C 178.359 502.134, 170.256 503.415, 165.386 502.104 C 163.151 501.502, 158.675 498.670, 154.982 495.521 C 147.659 489.278, 141.056 485.657, 138.665 486.575 C 137.124 487.166, 132.097 494.553, 130.713 498.259 C 129.688 501.002, 132.575 520.421, 134.427 523.248 C 135.335 524.634, 138.855 528.183, 142.249 531.134 L 148.420 536.500 157.960 536.402 C 169.410 536.284, 178.692 534.071, 185.500 529.834 L 190.500 526.723 200.790 527.772 C 217.539 529.480, 217.855 531.216, 203.250 541.298 L 192.500 548.720 184.100 548.809 C 172.647 548.932, 172.152 549.824, 179.770 556.610 C 186.401 562.517, 187.482 565.376, 184.290 568.567 C 182.232 570.626, 176.798 573, 174.146 573 C 173.092 573, 170.996 573.639, 169.490 574.421 C 165.844 576.312, 164.553 575.728, 157.500 568.998 C 148.992 560.878, 138.624 553.387, 133.170 551.418 C 130.601 550.491, 124.196 547.768, 118.937 545.366 C 113.677 542.965, 108.844 541, 108.197 541 C 107.550 541, 104.573 538.782, 101.580 536.072 C 92.094 527.482, 90.184 527.396, 92.032 535.643 C 94.650 547.323, 98.831 551.892, 114.652 560.358 C 125.665 566.252, 127.311 568.421, 125.001 573.997 C 123.008 578.809, 120.712 579.114, 111.049 575.848 C 106.382 574.270, 102.201 573.100, 101.760 573.247 C 100.302 573.733, 113.409 585.872, 118 588.287 C 123.346 591.101, 126.053 595.098, 124.402 597.741 C 122.184 601.293, 118.909 602.096, 108 601.762 C 96.214 601.400, 92.890 600.130, 77.408 590.067 C 66.541 583.004, 65.372 583.164, 59.072 592.584 C 56.283 596.755, 54 601.002, 54 602.021 C 54 603.825, 52.203 605.793, 45.001 611.878 C 43.076 613.504, 41.877 615.209, 42.336 615.667 C 43.724 617.052, 53.046 616.484, 60.925 614.535 C 68.063 612.770, 68.708 612.767, 77.679 614.456 C 86.923 616.197, 89.762 617.364, 100.524 623.846 C 107.411 627.994, 109.102 630.511, 109.891 637.781 L 110.511 643.500 115.523 643.380 C 121.398 643.239, 132.843 637.933, 138.775 632.601 C 144.531 627.426, 150.045 624, 152.617 624 C 157.177 624, 168.273 619.003, 172.629 614.988 C 177.920 610.110, 177.473 610.110, 186.382 615 C 196.815 620.726, 197.651 620.557, 207.879 610.647 C 216.798 602.005, 219.268 600.327, 227.158 597.546 C 231.140 596.143, 232.571 594.813, 237.018 588.379 C 242.799 580.018, 244.613 578.901, 250.334 580.186 C 258.648 582.054, 259.662 583.503, 260.610 594.870 C 261.154 601.397, 261.604 602.997, 262.894 602.985 C 266.049 602.955, 266.797 601.392, 267.438 593.500 C 268.560 579.686, 271.022 573.622, 274.214 576.814 C 274.808 577.408, 275.901 582.281, 276.644 587.644 C 277.386 593.006, 278.443 597.843, 278.994 598.394 C 280.513 599.913, 285.484 595.756, 285.579 592.886 C 285.837 585.088, 286.138 583.194, 287.392 581.479 C 290.494 577.236, 292.465 582.070, 293.893 597.426 L 294.551 604.500 297.884 595.816 C 300.998 587.700, 303.547 584.393, 304.473 587.267 C 304.886 588.548, 307 604.525, 307 606.367 C 307 606.944, 308.930 605.523, 311.288 603.208 C 313.646 600.894, 316.157 599, 316.867 599 C 317.577 599, 320.806 601.303, 324.042 604.118 C 330.650 609.865, 333.157 610.092, 337.559 605.342 C 340.636 602.022, 343.313 602.784, 342.426 606.728 C 342.083 608.253, 340.835 611.525, 339.651 614 C 337.344 618.827, 337.222 618.865, 328.750 617.421 C 326.688 617.069, 325 617.174, 325 617.654 C 325 618.794, 331.875 629, 332.643 629 C 332.967 629, 336.218 626.367, 339.866 623.148 C 348.817 615.252, 349.978 614.732, 356.806 615.562 C 366.580 616.751, 370.602 619.964, 374.315 629.550 C 376.058 634.048, 377.171 635.567, 379.047 636.007 C 383.513 637.054, 382.469 642.724, 376.504 649.813 C 373.928 652.874, 370.736 654.289, 363.758 655.460 C 360.830 655.951, 357.839 658.124, 350.001 665.451 C 338.593 676.115, 323.557 688.399, 313.830 695 L 307.200 699.500 306.546 705.508 C 305.552 714.646, 307.319 718.936, 313.242 721.765 C 317.961 724.020, 347.903 733, 350.702 733 C 351.510 733, 356.520 730.762, 361.835 728.026 C 371.112 723.252, 371.661 722.781, 375.500 716.305 C 380.495 707.880, 383.473 706.598, 390.335 709.920 C 399.202 714.213, 399.851 720.709, 392.488 731.464 C 384.982 742.428, 384.677 743.325, 385.960 750.689 C 387.798 761.246, 386.498 762.614, 371.742 765.651 C 361.411 767.778, 354.530 766.925, 336.110 761.238 C 325.225 757.876, 323.626 757.648, 310.500 757.576 C 292.664 757.479, 290.076 758.519, 285.195 767.750 C 283.377 771.188, 281.244 774, 280.455 774 C 279.666 774, 277.328 771.446, 275.260 768.324 C 271.637 762.856, 271.503 762.345, 271.595 754.324 C 271.700 745.195, 271.207 744.587, 266.215 747.685 C 260.720 751.094, 258.940 753.487, 256.966 760.116 C 253.539 771.621, 244.315 775.921, 235.905 769.932 C 234.412 768.870, 232.721 768, 232.147 768 C 230.568 768, 226.640 773.655, 222.597 781.750 C 220.447 786.052, 218.348 789, 217.432 789 C 215.275 789, 211.118 779.455, 210.186 772.362 L 209.415 766.500 205.614 778 C 200.211 794.347, 195.603 798.027, 191.526 789.250 C 189.093 784.012, 188.803 784.010, 182.666 789.185 C 177.890 793.212, 171.103 796.131, 152.509 802.154 C 143.971 804.919, 139.957 804.019, 133.467 797.881 C 126.986 791.750, 126.004 791.771, 113.507 798.288 C 100.591 805.024, 99.630 806.556, 103.253 814.633 C 104.701 817.860, 106.722 824.364, 107.745 829.086 C 109.356 836.516, 110.205 838.367, 114.053 842.835 C 119.507 849.168, 119.883 849.188, 135.426 843.958 C 145.462 840.581, 148.109 839.237, 152.133 835.473 C 156.449 831.435, 158.867 830.409, 162.812 830.940 C 163.533 831.037, 166.516 830.620, 169.439 830.013 C 173.415 829.187, 175.944 829.209, 179.476 830.098 L 184.198 831.287 187.907 826.981 L 191.616 822.675 198.058 823.318 C 201.601 823.672, 208.668 824.446, 213.762 825.037 C 221.192 825.901, 225.201 825.811, 234.025 824.584 C 244.617 823.112, 250.445 823.292, 251.580 825.129 C 251.876 825.608, 252.949 826, 253.964 826 C 254.980 826, 257.677 827.559, 259.957 829.464 C 265.002 833.679, 268.466 834.405, 280.521 833.775 C 288.244 833.371, 290.604 832.836, 294.345 830.644 C 302.444 825.898, 305.662 827.832, 306.798 838.131 L 307.500 844.500 311.835 845.079 C 316.096 845.647, 317.855 847.032, 318.086 850 C 318.326 853.088, 317.819 858.637, 316.922 862.742 C 313.478 878.503, 314.277 887.781, 320.052 899.102 C 322.562 904.022, 322.954 903.984, 326.931 898.446 C 331.917 891.503, 333.360 892.541, 334.142 903.633 C 335.088 917.049, 335.660 919, 338.645 919 C 342.012 919, 344.399 917.611, 351.807 911.339 C 358.979 905.267, 363.344 904.344, 367.104 908.104 C 369.848 910.848, 369.174 914.296, 364.377 922.069 C 360.254 928.748, 359.106 933.393, 359.044 943.648 C 359.007 949.625, 358.502 951.743, 355.964 956.568 C 353.420 961.404, 353.033 963.036, 353.573 966.637 C 354.416 972.261, 354.990 972.632, 365.538 974.369 L 374.500 975.845 378.201 971.672 C 380.237 969.378, 383.539 964.722, 385.539 961.326 C 390.403 953.067, 391.661 952.102, 399.116 950.917 C 402.627 950.358, 407.719 949.249, 410.432 948.451 C 417.257 946.443, 429 946.477, 429 948.505 C 429 950.269, 418.085 958.519, 409.533 963.220 C 403.797 966.373, 399.163 970.505, 388.596 981.892 C 385.898 984.798, 381.903 988.360, 379.716 989.806 C 377.155 991.502, 375.077 993.988, 373.871 996.801 C 371.106 1003.251, 371.303 1003.648, 377.569 1004.295 C 385.038 1005.066, 386.003 1006.049, 385.985 1012.872 C 385.966 1019.896, 385.636 1020.346, 379.500 1021.728 C 368.551 1024.194, 367.553 1025.356, 370.169 1032.591 C 372.274 1038.413, 369.688 1042.843, 361.757 1047 C 358.084 1048.925, 349.879 1054.001, 343.524 1058.281 C 329.488 1067.731, 328.821 1067.998, 319.185 1068.008 C 314.958 1068.012, 308.670 1068.474, 305.211 1069.036 C 296.681 1070.420, 292.873 1068.657, 289.342 1061.688 C 281.570 1046.350, 276.616 1042.248, 272.328 1047.598 C 269.400 1051.250, 264.867 1062.954, 264.277 1068.381 C 263.830 1072.498, 263.832 1072.501, 268.665 1074.383 C 279.180 1078.479, 279.676 1079.578, 274.978 1088.382 C 273.316 1091.497, 271.687 1096.173, 271.358 1098.773 C 271.029 1101.373, 270.104 1104.552, 269.300 1105.837 C 268.497 1107.122, 267.989 1108.305, 268.170 1108.466 C 268.352 1108.628, 270.975 1110.029, 274 1111.582 C 279.123 1114.211, 280.595 1114.450, 295.500 1115.074 L 311.500 1115.745 317.376 1112.795 C 322.808 1110.067, 323.667 1109.916, 328.760 1110.794 C 331.789 1111.316, 334.995 1111.559, 335.884 1111.334 C 336.773 1111.110, 341.254 1112.057, 345.842 1113.438 C 355.576 1116.369, 356.294 1116.209, 367.340 1108.646 C 371.064 1106.096, 375.324 1103.762, 376.806 1103.460 C 378.288 1103.157, 381.127 1102.480, 383.116 1101.955 C 392.124 1099.577, 394.624 1100.697, 400.505 1109.750 C 403.732 1114.717, 404.692 1114.851, 413.442 1111.558 C 417.010 1110.215, 423.339 1108.642, 427.506 1108.062 C 436.622 1106.795, 439.131 1105.572, 445 1099.543 C 453.255 1091.063, 455.673 1090.727, 463.491 1096.975 C 465.686 1098.729, 472.234 1102.595, 478.043 1105.567 C 486.257 1109.768, 489.328 1111.934, 491.856 1115.308 C 493.970 1118.129, 498.263 1121.544, 504.131 1125.073 C 509.095 1128.058, 516.310 1133.068, 520.166 1136.208 C 524.021 1139.347, 531.523 1144.237, 536.838 1147.075 C 552.786 1155.591, 559.300 1160.292, 566.014 1168.136 C 575.922 1179.710, 583.090 1185.418, 592.866 1189.519 C 609.817 1196.629, 616.605 1198.053, 636.500 1198.674 C 657.794 1199.338, 658.192 1199.468, 672.500 1210.385 C 684.849 1219.808, 687.587 1220.840, 712.500 1225.450 C 723.500 1227.486, 734.975 1230.052, 738 1231.154 C 749.989 1235.518, 759.855 1238.113, 768.709 1239.231 C 779.707 1240.620, 783.228 1240.050, 804.355 1233.461 C 812.165 1231.026, 821.017 1228.569, 824.027 1228.003 C 828.573 1227.148, 846.369 1219.190, 873.500 1205.881 C 881.787 1201.816, 888.959 1193.110, 891.921 1183.520 C 896.804 1167.710, 904.844 1159.192, 932.035 1141.020 C 958.145 1123.570, 957.586 1123.784, 978.690 1123.203 C 997.583 1122.683, 997.464 1122.731, 994.445 1116.894 C 993.041 1114.180, 993.041 1113.372, 994.435 1108.575 C 996.539 1101.337, 997.920 1100.323, 1003.271 1102.090 C 1005.585 1102.853, 1008.383 1104.383, 1009.489 1105.489 C 1010.595 1106.595, 1011.866 1107.378, 1012.314 1107.229 C 1012.762 1107.079, 1015.237 1108.047, 1017.814 1109.378 C 1021.939 1111.510, 1024.590 1112.393, 1033.672 1114.661 C 1035.388 1115.090, 1036.199 1114.501, 1037.539 1111.852 C 1040.445 1106.105, 1042.905 1104.031, 1046.065 1104.663 C 1049.211 1105.292, 1052.557 1103.337, 1060 1096.518 C 1062.725 1094.021, 1066.340 1091.881, 1069.167 1091.091 C 1074.245 1089.672, 1076.631 1087.275, 1092.895 1067.255 C 1099.109 1059.605, 1104.673 1054.247, 1114.859 1046.105 C 1122.361 1040.107, 1130.667 1032.906, 1133.316 1030.103 C 1142.373 1020.516, 1153.749 1014.187, 1181 1003.574 C 1207.728 993.166, 1208.853 992.596, 1210.499 988.656 C 1212.629 983.558, 1214.532 982.591, 1224.896 981.343 C 1235.425 980.075, 1238.563 980.778, 1242.874 985.366 C 1245.065 987.698, 1249.741 987.714, 1263.342 985.436 L 1267.185 984.793 1266.576 980.146 C 1265.186 969.545, 1265.129 969.773, 1269.834 967.163 C 1273.427 965.169, 1274.769 963.507, 1277.689 957.441 C 1281.714 949.079, 1293.138 937, 1297.021 937 C 1298.239 937, 1303.233 938.800, 1308.119 941 C 1313.005 943.200, 1317.688 945, 1318.526 945 C 1321.250 945, 1322.239 940.025, 1321.661 929.236 C 1321.154 919.781, 1320.791 918.335, 1317.055 910.871 C 1311.033 898.838, 1311.908 895.245, 1321.547 892.443 L 1327 890.858 1326.982 886.179 C 1326.968 882.645, 1326.226 880.411, 1323.947 877.048 C 1319.369 870.291, 1320.150 869.046, 1330.231 867.018 L 1335.963 865.865 1331.892 860.473 C 1325.356 851.817, 1319.834 836, 1323.347 836 C 1324.919 836, 1337.277 846.472, 1344.500 853.926 C 1351.777 861.435, 1357.634 863.029, 1366.839 860.006 C 1378.213 856.270, 1388.456 850.807, 1388.815 848.284 C 1388.988 847.065, 1387.220 842.212, 1384.885 837.500 C 1381.213 830.090, 1380.833 828.743, 1382.070 827.535 C 1383.295 826.339, 1384.328 826.428, 1389.287 828.160 C 1393.766 829.724, 1395.914 829.979, 1398.787 829.289 C 1402.492 828.399, 1402.499 828.386, 1402.163 823.655 C 1401.768 818.095, 1402.849 816.438, 1407.435 815.578 C 1411.050 814.900, 1413.997 812.302, 1412.436 811.169 C 1404.764 805.602, 1395.133 800.101, 1389.150 797.869 C 1381.052 794.848, 1379.413 793.759, 1380.446 792.087 C 1381.383 790.571, 1389.006 790.732, 1401.985 792.542 C 1408.064 793.390, 1416.517 793.952, 1420.769 793.792 L 1428.500 793.500 1423.746 789.991 C 1412.940 782.016, 1390.307 769.209, 1383 766.935 C 1374.058 764.152, 1372 762.636, 1372 758.829 C 1372 755.782, 1371.593 756.048, 1384 751.014 C 1393.249 747.262, 1393.344 747.273, 1399.197 752.740 C 1405.659 758.775, 1418.998 767.621, 1422.943 768.488 C 1428.059 769.611, 1433 768.121, 1433 765.454 C 1433 761.908, 1434.545 758.588, 1438.055 754.590 L 1441.244 750.958 1441.372 737.582 L 1441.500 724.207 1438.054 726.972 L 1434.608 729.736 1428.804 727.776 C 1422.745 725.730, 1422.094 724.783, 1424.532 721.559 C 1426.788 718.576, 1426.453 718.122, 1419.750 715.076 C 1413.563 712.264, 1407 706.862, 1407 704.581 C 1407 701.823, 1409.596 701, 1418.299 701 C 1435.229 701, 1440.981 694.669, 1434.022 683.696 C 1430.578 678.265, 1429.201 678.004, 1417.500 680.570 C 1403.844 683.564, 1404.350 683.578, 1402.586 680.167 C 1399.101 673.426, 1401.232 671.010, 1410.684 670.985 C 1418.587 670.964, 1420.064 669.894, 1416.092 667.066 C 1411.744 663.970, 1412.175 662.567, 1418.957 657.740 C 1424.355 653.898, 1425.191 652.796, 1427.857 646 C 1433.396 631.879, 1434.229 624.324, 1431.839 609.853 C 1430.706 602.993, 1430.548 602.724, 1425.383 598.824 C 1422.471 596.626, 1419.677 595.081, 1419.174 595.392 C 1418.671 595.703, 1417.252 598.653, 1416.019 601.948 C 1411.778 613.291, 1409.042 612.727, 1406.027 599.888 C 1402.027 582.847, 1398.615 579.619, 1391.347 586 C 1389.468 587.650, 1386.804 589, 1385.427 589 C 1383.229 589, 1365.522 579.973, 1356.181 574.090 C 1351.142 570.917, 1349.972 571.365, 1340.743 580 C 1331.389 588.752, 1330.351 589.247, 1329.391 585.421 C 1328.026 579.982, 1330.577 568, 1333.100 568 C 1333.666 568, 1336.369 567.037, 1339.106 565.859 L 1344.083 563.718 1338.725 558.942 C 1329.883 551.062, 1328.702 543.505, 1335 535.123 C 1337.200 532.195, 1339 529.346, 1339 528.791 C 1339 526.585, 1326.579 531.742, 1314.290 539.050 C 1310.848 541.097, 1306.352 542.624, 1301.046 543.551 C 1296.627 544.322, 1291.157 545.899, 1288.890 547.056 C 1278.321 552.448, 1275.804 545.360, 1282.736 529.723 L 1285.298 523.946 1283.149 521.658 C 1280.171 518.488, 1280.366 514.529, 1283.612 512.297 C 1293.881 505.233, 1301.534 493.491, 1304.222 480.676 C 1305.357 475.268, 1305.259 474.732, 1300.700 461.395 C 1298.121 453.850, 1295.813 447.480, 1295.571 447.238 C 1295.329 446.996, 1293.639 447.915, 1291.816 449.281 C 1285.942 453.680, 1282.327 455, 1276.158 455 C 1270.655 455, 1270.171 454.816, 1269.589 452.500 C 1268.831 449.477, 1268.038 449.396, 1264.727 452 C 1261.300 454.696, 1261.350 454.708, 1252.378 448.896 C 1242.424 442.446, 1239.331 439.532, 1237.928 435.282 C 1236.146 429.883, 1237.399 427.740, 1247.516 418.882 C 1264.511 404.002, 1265.281 401.331, 1256.681 387.100 C 1247.819 372.435, 1248.609 370.719, 1267.500 363.607 C 1277.567 359.817, 1280.064 358.442, 1283 355.071 C 1284.925 352.861, 1288.512 350.215, 1290.971 349.192 L 1295.442 347.332 1290.600 346.669 C 1287.936 346.304, 1283.098 344.654, 1279.849 343.002 C 1272.565 339.301, 1271.875 339.296, 1266.680 342.900 C 1260.763 347.006, 1257.426 350.810, 1255.190 356 C 1253.144 360.748, 1241.972 372.298, 1238.484 373.270 C 1237.393 373.574, 1232.156 374.822, 1226.846 376.043 C 1221.536 377.264, 1216.655 378.595, 1215.998 379.001 C 1213.602 380.482, 1210.951 393.067, 1211.633 399.723 C 1212.686 410.001, 1208.387 411.882, 1198.850 405.316 C 1183.611 394.823, 1174.270 388.999, 1171.816 388.460 C 1164.434 386.838, 1159.982 376.697, 1161.987 366.071 C 1164.415 353.198, 1161.831 345.184, 1153 338.205 C 1149.975 335.814, 1145.428 332.121, 1142.895 329.999 L 1138.291 326.139 1137.751 317.497 C 1137.162 308.055, 1136.075 306.063, 1129.177 301.800 C 1126.654 300.241, 1108.333 295, 1105.405 295 C 1105.175 295, 1102.968 298.150, 1100.500 302" stroke="none" fill="#111111" fill-rule="evenodd"/>
</svg>