<svg xmlns="http://www.w3.org/2000/svg" width="1500" height="1500" viewBox="0 0 1500 1500" version="1.1">
	<path d="M 99.789 134.066 C 97.991 135.106, 96.015 140.793, 96.006 144.954 C 96.003 146.304, 94.997 150.748, 93.771 154.830 L 91.541 162.252 83.018 161.609 C 76.180 161.093, 74.058 161.271, 72.286 162.512 C 67.622 165.779, 67.454 175.042, 71.899 183.836 C 73.110 186.233, 73.901 190.454, 74.185 196.041 C 74.581 203.823, 74.960 205.134, 78.449 210.786 C 82.655 217.601, 82.638 217.328, 80.059 235.500 C 78.624 245.614, 78.782 253.543, 80.502 257.659 C 81.985 261.208, 82.065 261.247, 86.752 260.701 C 89.363 260.397, 92.564 259.824, 93.864 259.428 C 96.991 258.475, 96.616 259.703, 88.496 277 C 85.011 284.425, 81.129 293.490, 79.870 297.145 C 77.193 304.913, 77.383 305.355, 85.367 309.926 C 96.903 316.529, 102.540 326.785, 98.573 333.950 C 97.826 335.297, 97.462 337.097, 97.762 337.950 C 98.636 340.428, 106.662 351.497, 112.049 357.653 C 117.253 363.600, 117.971 365.413, 115.500 366.362 C 111.945 367.726, 114.879 378.077, 120.500 384 C 122.326 385.925, 124.295 389.259, 124.874 391.410 C 125.852 395.039, 125.715 395.561, 122.963 398.694 C 116.970 405.521, 120.180 411.644, 129.578 411.309 L 134.939 411.118 135.964 414.809 C 136.528 416.839, 136.991 422.827, 136.994 428.115 C 137.001 438.619, 138.212 441.504, 143.838 444.418 C 145.863 445.467, 147.797 448.751, 151.923 458.148 C 159.777 476.039, 160.925 477.631, 167.289 479.482 C 171.334 480.658, 173.877 482.325, 178.011 486.512 C 183.319 491.886, 183.550 492, 189.128 492 C 198.147 492, 209.673 494.625, 215.775 498.068 C 219.767 500.321, 222.231 501.075, 224.671 500.790 C 227.719 500.434, 228.125 500.691, 228.865 503.448 C 230.254 508.624, 229.424 509.343, 223.097 508.446 C 220.019 508.010, 215.528 507.619, 213.118 507.577 C 205.934 507.451, 205.861 508.547, 211.853 526.666 C 217.550 543.892, 220.323 557.020, 219 560.500 C 218.545 561.698, 216.734 563.887, 214.977 565.366 L 211.782 568.055 209.255 565.527 C 204.788 561.060, 202.441 562.668, 201.052 571.145 C 200.570 574.090, 199.845 577.803, 199.442 579.397 L 198.710 582.293 197.291 579.586 C 193.272 571.915, 190.336 582.764, 193.493 593.622 C 195.440 600.323, 195.021 601.845, 189.973 606.405 C 186.377 609.655, 185.651 609.914, 181.684 609.370 C 174.100 608.331, 166.230 614.398, 167.423 620.364 C 167.820 622.352, 167.343 624.327, 165.902 626.658 C 163.287 630.891, 164.180 632.235, 171.148 634.549 C 177.575 636.684, 177.834 637.655, 173.701 644.133 C 169.214 651.168, 166 657.550, 166 659.425 C 166 660.252, 168.019 664.255, 170.487 668.320 C 172.956 672.386, 176.170 679.566, 177.630 684.276 C 181.220 695.857, 187.549 702.228, 203.721 710.544 L 214.941 716.314 217.068 722.703 C 219.572 730.230, 219.138 732.891, 215.028 735.203 C 208.766 738.726, 213.408 747.138, 223.749 751.007 C 226.844 752.165, 232.148 754.663, 235.535 756.557 C 240.843 759.525, 242.616 760, 248.386 760 C 253.047 760, 256.239 760.592, 258.898 761.948 C 262.630 763.852, 278.374 778.719, 288.931 790.307 C 294.569 796.496, 294.915 796.561, 296.567 791.745 C 298.283 786.739, 300.413 786.063, 303.912 789.416 C 307.661 793.007, 313.580 804.162, 314.927 810.174 C 316.628 817.763, 317.465 819.178, 325.470 828.004 C 329.709 832.677, 333.982 838.075, 334.966 840 C 336.753 843.498, 341.226 857.617, 342.489 863.747 C 343.334 867.851, 341.446 873.724, 339.035 874.489 C 334.975 875.778, 332.509 885.764, 331.130 906.500 C 330.692 913.100, 330.477 918.784, 330.652 919.132 C 330.828 919.480, 335.929 920.994, 341.986 922.497 C 348.044 923.999, 353 925.673, 353 926.215 C 353 931.578, 358.337 968.705, 359.272 969.842 C 359.947 970.664, 363.705 973.712, 367.623 976.614 C 374.876 981.987, 382.129 992.120, 385.127 1001.069 C 386.664 1005.656, 389.107 1008.196, 395.134 1011.477 L 400.166 1014.215 402.833 1011.671 C 407.543 1007.177, 410.855 1006.016, 417.097 1006.668 C 423.727 1007.361, 425.265 1005.946, 426.517 998 C 427.485 991.855, 428.369 990.935, 431.988 992.302 C 434.379 993.204, 435.236 993.096, 436.779 991.700 C 439.651 989.101, 440.992 989.581, 446 995 C 451.513 1000.965, 451.393 1000.951, 457.996 996.409 C 464.764 991.753, 465.418 992.456, 465.801 1004.798 C 466.255 1019.425, 467.170 1019.975, 473.898 1009.667 C 482.203 996.943, 488.996 992.072, 495.798 993.961 C 497.834 994.526, 501.776 994.991, 504.559 994.994 C 511.573 995.002, 512.704 996.190, 514.567 1005.500 C 517.736 1021.338, 528.945 1039.287, 542.399 1050.069 C 551.907 1057.689, 552.467 1060.152, 547.331 1071.779 C 544.403 1078.408, 544.351 1081.582, 547.146 1083.078 C 549.263 1084.211, 556.082 1083.883, 560.906 1082.417 C 563.205 1081.718, 563.286 1081.848, 562.723 1085.323 C 562.398 1087.323, 560.928 1090.540, 559.455 1092.470 C 555.766 1097.307, 556.634 1099.760, 564.893 1107.839 C 572.068 1114.856, 574.052 1117.932, 577.079 1126.729 C 578.101 1129.701, 583.830 1140.315, 589.809 1150.316 C 595.788 1160.317, 602.377 1171.751, 604.450 1175.724 C 610.495 1187.307, 613.983 1189.649, 623.285 1188.374 C 631.515 1187.246, 657.372 1194.110, 671.277 1201.114 C 680.812 1205.917, 687.989 1213.723, 687.996 1219.300 C 688.007 1227.305, 693.825 1231.888, 733.500 1255.147 C 744.500 1261.595, 756.241 1268.920, 759.590 1271.424 C 766.852 1276.852, 771.404 1278.579, 783.632 1280.546 C 794.441 1282.286, 798.723 1283.694, 807.965 1288.551 C 814.708 1292.094, 814.860 1292.124, 818.027 1290.486 C 822.749 1288.044, 826.502 1289.194, 836.434 1296.124 C 849.420 1305.184, 849.066 1305.218, 869.448 1293.023 C 878.770 1287.447, 890.849 1280.597, 896.291 1277.802 C 902.426 1274.650, 907.993 1270.912, 910.943 1267.962 C 915.206 1263.699, 916.885 1262.835, 927.117 1259.641 C 936.533 1256.701, 939.143 1255.442, 942.017 1252.453 C 947.693 1246.548, 949.731 1245.929, 966.341 1245.067 C 983.791 1244.161, 982.696 1243.940, 990.374 1249.923 C 993.605 1252.440, 998.316 1255.625, 1000.842 1257 C 1003.369 1258.375, 1006.408 1260.946, 1007.594 1262.714 C 1010.205 1266.603, 1015.279 1284.558, 1017.915 1299.234 C 1019.413 1307.577, 1020.728 1311.587, 1023.816 1317.234 C 1026.002 1321.230, 1028.099 1326.075, 1028.477 1328 C 1029.514 1333.290, 1044.001 1361.930, 1046.248 1363.133 C 1047.328 1363.711, 1053.001 1364.605, 1058.855 1365.121 L 1069.500 1366.058 1073.500 1370.402 C 1078.328 1375.645, 1079.736 1376.201, 1084.492 1374.741 C 1088.116 1373.629, 1088.224 1373.678, 1092.579 1378.421 C 1097.753 1384.056, 1097.363 1384.055, 1112.971 1378.476 C 1131.181 1371.967, 1141.317 1373.304, 1151.752 1383.592 C 1157.242 1389.004, 1162.239 1389.499, 1170.863 1385.484 C 1180.654 1380.926, 1191.233 1381.328, 1203.280 1386.715 C 1208.561 1389.077, 1209.395 1389.190, 1212.936 1388.021 C 1217.864 1386.395, 1222.176 1387.204, 1230.924 1391.396 C 1237.391 1394.496, 1238.112 1394.630, 1242.939 1393.642 C 1246.880 1392.834, 1248.822 1392.896, 1251.287 1393.908 C 1257.388 1396.411, 1264.533 1398.036, 1274 1399.074 C 1295.552 1401.437, 1310.448 1405.470, 1321.515 1411.937 C 1331.900 1418.005, 1335.457 1417.248, 1341.532 1407.678 C 1343.208 1405.040, 1343.632 1404.899, 1348.082 1405.511 C 1354.059 1406.333, 1354.366 1405.837, 1356.512 1391.899 C 1358.637 1378.100, 1360.384 1372.181, 1365.100 1362.801 C 1367.266 1358.494, 1370.862 1348.595, 1373.091 1340.803 C 1379.337 1318.974, 1382.549 1314.483, 1389.186 1318.292 C 1390.823 1319.231, 1392.829 1320, 1393.644 1320 C 1395.076 1320, 1399.454 1311.473, 1401.868 1303.981 L 1403.002 1300.463 1413.251 1298.647 C 1418.888 1297.648, 1430.700 1295.284, 1439.500 1293.394 C 1468.227 1287.224, 1470 1286.183, 1470 1275.494 C 1470 1271.295, 1470.450 1268.825, 1471.310 1268.300 C 1473.924 1266.704, 1476 1262.472, 1476 1258.737 C 1476 1255.549, 1476.677 1254.295, 1480.106 1251.129 C 1485.283 1246.348, 1484.981 1244.314, 1478.578 1240.852 C 1472.240 1237.426, 1467.485 1236.724, 1459.376 1238.020 C 1450.667 1239.411, 1449.705 1238.962, 1446.609 1232.063 C 1441.866 1221.494, 1441.427 1216.684, 1444.017 1203.630 C 1446.547 1190.879, 1446.622 1191.432, 1440.414 1177 C 1438.117 1171.659, 1437.542 1168.656, 1437.192 1160.160 L 1436.767 1149.820 1430.040 1150.496 L 1423.314 1151.171 1422.051 1148.124 C 1419.234 1141.322, 1410.734 1135.192, 1395.500 1128.977 C 1372.690 1119.672, 1361.017 1109.307, 1347.283 1086.167 C 1341.635 1076.651, 1337.295 1068.003, 1335.841 1063.370 C 1333.668 1056.440, 1332.373 1054.551, 1317.759 1036.987 L 1302.018 1018.068 1329.538 980.284 C 1344.673 959.503, 1359.025 940.700, 1361.429 938.500 C 1363.834 936.300, 1366.296 933.517, 1366.901 932.316 C 1368.071 929.990, 1368.256 901.583, 1367.132 896.828 C 1365.784 891.126, 1363.330 890.332, 1331.339 885.239 L 1301.509 880.491 1297.925 855.799 L 1294.341 831.107 1297.540 824.200 L 1300.740 817.293 1289.840 776.896 C 1283.845 754.678, 1279.115 735.795, 1279.329 734.933 C 1279.542 734.071, 1283.859 727.450, 1288.921 720.221 C 1297.127 708.501, 1298.091 706.664, 1297.813 703.288 L 1297.500 699.500 1291.500 699.824 C 1281.194 700.381, 1276.924 693.961, 1275.988 676.500 C 1275.663 670.450, 1274.540 662.464, 1273.491 658.753 C 1271.829 652.875, 1271.745 651.395, 1272.839 647.253 C 1274.432 641.221, 1275.978 640.066, 1290 634.434 C 1296.325 631.893, 1301.660 629.659, 1301.855 629.469 C 1302.050 629.279, 1300.142 626.584, 1297.613 623.480 L 1293.016 617.837 1298.758 613.991 C 1308.512 607.457, 1310.760 604.424, 1315.160 591.858 C 1320.652 576.173, 1321.919 560.890, 1318.294 554.039 C 1315.450 548.663, 1315.921 544.890, 1319.983 540.500 C 1321.511 538.850, 1323.277 536.493, 1323.909 535.261 C 1325.508 532.146, 1327.500 512.587, 1327.500 500 L 1327.500 489.500 1323.601 483.740 L 1319.703 477.979 1321.351 472.875 C 1323.431 466.437, 1323.416 465.589, 1321.073 456.761 C 1319.850 452.152, 1318.899 444.126, 1318.471 434.788 C 1318.054 425.694, 1317.357 419.725, 1316.648 419.157 C 1315.947 418.597, 1306.540 418.760, 1292.500 419.576 C 1279.850 420.312, 1266.800 420.932, 1263.500 420.953 L 1257.500 420.992 1245.634 403.008 C 1229.031 377.844, 1224.025 373.821, 1209.657 374.099 C 1205.557 374.179, 1201.701 373.933, 1201.087 373.554 C 1199.307 372.454, 1196.150 365.627, 1192.351 354.668 C 1188.205 342.703, 1186.403 340.464, 1179.246 338.383 C 1176.306 337.528, 1167.735 333.273, 1160.200 328.927 C 1146.751 321.169, 1146.473 321.062, 1145 323.073 C 1144.175 324.200, 1142.584 326.265, 1141.465 327.661 L 1139.430 330.201 1134.965 326.459 C 1132.509 324.401, 1128.817 321.599, 1126.760 320.232 L 1123.020 317.747 1119.443 320.624 C 1109.687 328.470, 1107.426 328.127, 1099.108 317.543 C 1096.285 313.951, 1092.192 309.832, 1090.012 308.389 C 1084.478 304.727, 1057.552 297.648, 1048.837 297.564 C 1045.172 297.529, 1041.911 297.239, 1041.590 296.920 C 1041.269 296.601, 1040.829 293.226, 1040.613 289.420 C 1039.480 269.516, 1033.796 265.119, 1020.018 273.489 L 1014.078 277.097 1006.749 275.583 C 1000.971 274.390, 995.439 274.202, 980.600 274.695 L 961.779 275.321 962.218 280.619 C 962.519 284.247, 962.268 286.067, 961.423 286.391 C 957.273 287.984, 935.480 289.115, 929.388 288.054 C 917.270 285.944, 908.272 288.086, 887.522 298.019 C 866.865 307.908, 864.737 309.740, 861.567 320.354 C 860.229 324.834, 858.881 329.698, 858.570 331.163 C 857.866 334.487, 851.688 339.111, 838.449 346.224 C 832.977 349.163, 825.167 353.916, 821.093 356.784 C 812.558 362.795, 811.218 362.975, 800.981 359.494 C 792.142 356.487, 791.138 357.042, 793.423 363.671 C 795.314 369.154, 797.985 385.464, 797.994 391.576 C 798.010 402.595, 774.761 408.900, 746.396 405.569 L 739.292 404.734 726.154 411.496 C 716.814 416.304, 712.653 417.970, 711.758 417.262 C 708.471 414.659, 698.574 412, 692.174 412 C 684.206 412, 682.172 412.907, 669.173 422.257 C 656.829 431.136, 654.321 431.842, 642.350 429.805 C 635.224 428.593, 630.524 427.014, 622.739 423.217 C 617.108 420.470, 609.575 416.999, 606 415.504 C 602.425 414.009, 591.575 409.041, 581.889 404.464 C 560.231 394.229, 551.831 391.509, 544.531 392.367 C 540.127 392.885, 538.822 392.648, 536.642 390.933 C 533.286 388.293, 527.987 378.781, 523.895 368.051 C 520.201 358.364, 518.712 356.739, 507.713 350.395 C 488.291 339.193, 482.895 337.888, 476.962 342.959 C 471.855 347.325, 468.009 346.997, 456.759 341.234 C 436.638 330.926, 428.397 322.141, 424.646 307 C 423.154 300.977, 418.428 269.992, 417.783 262 L 417.500 258.500 411.367 258.836 C 404.103 259.235, 402 258.322, 390.270 249.681 C 383.752 244.879, 381.257 242.279, 378.272 237.175 C 375.873 233.072, 370.930 227.334, 364.665 221.377 C 359.254 216.231, 354.978 211.575, 355.163 211.030 C 355.350 210.481, 357.885 211.145, 360.849 212.519 C 366.701 215.233, 371.181 215.695, 372.788 213.750 C 374.173 212.075, 377 200.965, 377 197.199 C 377 195.303, 375.325 191.649, 372.482 187.343 C 366.962 178.980, 364.960 173.279, 367.068 171.920 C 367.874 171.401, 372.761 171.279, 378.250 171.642 C 389.624 172.393, 390.805 171.226, 384.296 165.665 C 375.411 158.073, 369.930 152.513, 362.983 144.047 C 358.901 139.071, 355.141 135, 354.627 135 C 353.532 135, 329.965 147.310, 318.667 153.783 C 312.541 157.293, 309.427 159.971, 304.381 166.070 C 299.845 171.552, 296.880 174.215, 294.393 175.035 C 292.448 175.677, 287.910 178.959, 284.309 182.328 C 279.177 187.129, 277.180 188.393, 275.076 188.172 C 272.857 187.939, 270.751 189.531, 262.925 197.357 C 252.103 208.179, 249.721 209.169, 239.553 207.069 C 235.565 206.245, 233.443 206.172, 233.217 206.850 C 232.208 209.877, 226.675 216.043, 224.473 216.596 C 222.732 217.033, 219.803 216.287, 215.214 214.237 C 211.370 212.521, 202.729 210.105, 195 208.586 C 171.577 203.983, 170.276 203.478, 167.444 197.889 C 164.146 191.382, 159.701 186.510, 153.360 182.454 C 148.132 179.109, 143.154 173.276, 139.456 166.161 C 138.410 164.147, 134.521 157.928, 130.815 152.340 C 125.088 143.706, 123.507 141.996, 120.288 140.953 C 118.205 140.278, 114.025 138.496, 111 136.993 C 103.725 133.379, 101.832 132.885, 99.789 134.066 M 99.975 138.565 C 99.439 139.976, 99 142.687, 99 144.590 C 99 146.493, 98.100 150.611, 97 153.740 C 95.900 156.870, 95 160.450, 95 161.696 C 95 164.728, 91.884 165.423, 82.106 164.570 C 75.461 163.990, 74.129 164.140, 72.917 165.601 C 70.788 168.169, 71.312 175.812, 73.972 180.982 C 75.676 184.295, 76.409 187.763, 76.780 194.275 C 77.222 202.029, 77.687 203.758, 80.651 208.682 C 85.007 215.915, 85.469 219.451, 83.570 231 C 81.956 240.819, 81.556 251.739, 82.660 255.864 C 83.246 258.054, 83.630 258.176, 87.896 257.532 C 97.954 256.015, 98.517 256.135, 98.350 259.771 C 98.268 261.570, 95.703 268.320, 92.650 274.771 C 87.098 286.504, 81 301.256, 81 302.954 C 81 303.449, 83.813 305.531, 87.250 307.579 C 99.354 314.792, 106.052 327.412, 101.480 334.391 C 100.047 336.578, 100.192 337.060, 104.021 342.793 C 106.254 346.138, 110.001 351.040, 112.347 353.687 C 120.820 363.249, 122.873 368, 118.531 368 C 114.884 368, 118.178 378.047, 123.434 382.954 C 124.896 384.318, 126.759 387.802, 127.631 390.803 L 129.200 396.199 126.100 399.397 C 120.423 405.254, 122.911 409.522, 131.330 408.368 C 137.801 407.481, 139.281 410.559, 139.813 426 C 140.233 438.204, 140.536 439.034, 145.784 442.383 C 148.469 444.096, 150.111 446.814, 154.383 456.619 C 162.120 474.376, 162.708 475.216, 168.544 476.822 C 172.132 477.810, 175.018 479.647, 179 483.479 L 184.500 488.771 193.236 489.437 C 204.035 490.259, 211.838 492.235, 217.581 495.600 C 221.152 497.693, 222.724 498.053, 225.927 497.512 C 229.823 496.854, 229.888 496.895, 231.026 500.691 C 233.988 510.579, 231.463 512.861, 219.602 511.016 C 214.866 510.279, 210.678 509.989, 210.296 510.371 C 209.914 510.753, 211.262 515.888, 213.293 521.783 C 218.773 537.692, 221.995 550.788, 221.997 557.165 C 222 562.652, 221.854 562.958, 217.359 566.915 C 211.903 571.718, 211.096 571.846, 208.091 568.389 C 205.222 565.090, 204.627 565.848, 203.206 574.616 C 201.746 583.624, 200.461 587, 198.493 587 C 197.636 587, 196.529 585.987, 196.031 584.750 C 194.403 580.699, 194.803 587.974, 196.528 593.783 C 198.708 601.125, 197.490 604.417, 190.615 609.759 C 188.470 611.425, 186.393 612, 182.513 612 C 174.854 612, 170.550 615.117, 170.355 620.803 C 170.276 623.128, 169.474 626.153, 168.574 627.527 C 166.982 629.957, 167.013 630.053, 169.719 631.040 C 181.969 635.505, 182.043 635.842, 173.834 649.606 C 171.175 654.065, 169 658.300, 169 659.018 C 169 659.737, 170.999 663.739, 173.442 667.912 C 175.886 672.085, 179.033 679.141, 180.436 683.592 C 183.857 694.441, 190.233 700.739, 205.164 708.014 C 217.019 713.790, 217.378 714.156, 220.153 723.283 C 222.509 731.034, 221.736 734.888, 217.432 736.849 C 216.095 737.458, 215 738.607, 215 739.402 C 215 741.958, 219.955 746.831, 223.783 748.041 C 225.827 748.687, 230.741 750.967, 234.703 753.108 C 241.039 756.532, 242.715 757, 248.637 757 C 258.902 757, 262.268 759.108, 279 776.014 L 293.501 790.666 295.516 787.583 C 299.555 781.405, 304.789 783.846, 311.416 795 C 315.004 801.038, 316.091 803.695, 318.439 812.171 C 319.727 816.822, 321.368 819.321, 327.563 826.069 C 336.151 835.423, 338.616 839.783, 342.502 852.500 C 346.552 865.753, 345.696 877, 340.637 877 C 337.734 877, 335.468 886.683, 334.086 905 C 333.609 911.325, 333.507 916.779, 333.859 917.119 C 334.212 917.460, 338.775 918.754, 344 919.995 C 349.225 921.236, 354.006 922.758, 354.625 923.376 C 355.243 923.994, 356.772 933.500, 358.021 944.500 C 359.271 955.500, 360.653 965.476, 361.092 966.670 C 361.530 967.863, 365.257 971.330, 369.373 974.374 C 377.161 980.134, 381.061 985.480, 387.677 999.468 C 389.907 1004.183, 391.443 1005.980, 394.990 1008.028 L 399.480 1010.620 403.702 1007.398 C 408.638 1003.630, 412.304 1002.626, 416.584 1003.869 C 421.070 1005.173, 422.706 1003.772, 423.508 997.940 C 424.478 990.890, 427.548 987.381, 431.266 989.075 C 433.570 990.125, 434.275 990.061, 435.825 988.659 C 439.066 985.725, 441.977 986.636, 447.073 992.179 L 451.834 997.358 457.310 993.586 C 465.656 987.838, 468.942 991.004, 469.052 1004.899 C 469.104 1011.415, 469.127 1011.468, 470.802 1009.036 C 481.144 994.024, 485.800 990.553, 494.500 991.372 C 516.107 993.406, 514.894 992.668, 517.509 1005.368 C 520.915 1021.903, 530.529 1036.954, 545.128 1048.602 C 554.832 1056.345, 555.498 1059.944, 549.734 1073.494 C 548.331 1076.791, 547.394 1079.828, 547.651 1080.244 C 548.358 1081.388, 554.409 1081.151, 559.540 1079.778 C 563.401 1078.745, 564.261 1078.784, 565.095 1080.028 C 566.692 1082.410, 565.381 1088.842, 562.431 1093.100 C 559.104 1097.901, 559.890 1100.144, 566.910 1105.877 C 572.291 1110.273, 576.076 1116.040, 579.556 1125.146 C 580.996 1128.916, 586.973 1140.069, 592.838 1149.930 C 598.702 1159.791, 605.448 1171.435, 607.828 1175.805 C 613 1185.299, 614.177 1185.961, 625.793 1185.906 C 651.826 1185.783, 688.347 1203.226, 690.526 1216.823 C 690.850 1218.845, 691.317 1221.488, 691.563 1222.696 C 692.366 1226.633, 706.156 1236.059, 739.500 1255.463 C 748.850 1260.904, 758.400 1266.871, 760.722 1268.722 C 766.796 1273.564, 772.163 1275.647, 783.500 1277.559 C 794.383 1279.394, 803.425 1282.407, 810.507 1286.557 C 814.263 1288.758, 815.301 1288.995, 816.573 1287.940 C 820.750 1284.473, 828.630 1286.787, 839.235 1294.594 C 849.397 1302.075, 848.198 1302.326, 872.986 1287.539 C 881.582 1282.412, 892.299 1276.364, 896.803 1274.099 C 901.528 1271.724, 907.013 1267.971, 909.769 1265.230 C 914.049 1260.972, 915.689 1260.132, 925.523 1257.158 C 935.016 1254.288, 937.108 1253.250, 941 1249.477 C 947.249 1243.418, 949.285 1242.876, 968 1242.291 L 984.500 1241.775 988.872 1245.138 C 995.486 1250.224, 1001.393 1254.310, 1004.850 1256.192 C 1010.937 1259.504, 1014.915 1269.787, 1020.056 1295.500 C 1022.492 1307.680, 1023.696 1311.542, 1026.461 1316.043 C 1028.334 1319.092, 1030.411 1323.817, 1031.076 1326.543 C 1032.361 1331.810, 1033.594 1334.633, 1039.137 1345 C 1041.049 1348.575, 1043.376 1353.424, 1044.309 1355.776 C 1046.381 1361.002, 1047.674 1361.536, 1060.500 1362.468 L 1070.500 1363.195 1075.247 1368.299 C 1079.905 1373.308, 1080.056 1373.381, 1083.318 1372.202 C 1088.514 1370.323, 1089.641 1370.688, 1093.700 1375.568 C 1098.105 1380.862, 1097.889 1380.858, 1111.500 1375.929 C 1129.264 1369.496, 1142.104 1370.795, 1152.121 1380.039 C 1158.955 1386.344, 1159.623 1386.523, 1166.662 1383.923 C 1181.325 1378.508, 1180.624 1378.635, 1189.108 1379.835 C 1193.480 1380.453, 1199.896 1382.095, 1203.367 1383.484 C 1208.737 1385.632, 1210.154 1385.842, 1212.870 1384.895 C 1217.458 1383.296, 1224.068 1384.594, 1231.550 1388.563 C 1237.713 1391.832, 1238.216 1391.935, 1242.503 1390.788 C 1247.188 1389.535, 1249.273 1389.871, 1258.752 1393.406 C 1261.091 1394.278, 1267.391 1395.454, 1272.752 1396.020 C 1283.849 1397.190, 1304.707 1401.280, 1311.123 1403.543 C 1313.494 1404.380, 1318.944 1407.122, 1323.233 1409.637 C 1332.299 1414.952, 1333.330 1414.741, 1339.067 1406.403 L 1342.250 1401.776 1347.075 1402.416 L 1351.899 1403.055 1352.478 1399.278 C 1355.540 1379.314, 1357.081 1373.405, 1361.899 1363.154 C 1364.653 1357.294, 1368.543 1346.650, 1370.544 1339.500 C 1372.545 1332.350, 1374.838 1324.931, 1375.639 1323.014 C 1378.813 1315.416, 1384.316 1312.560, 1390.060 1315.531 C 1393.902 1317.518, 1393.859 1317.566, 1397.640 1307 C 1399.116 1302.875, 1400.588 1299.186, 1400.912 1298.803 C 1401.235 1298.419, 1411.850 1296.050, 1424.500 1293.538 C 1466.201 1285.257, 1467 1284.913, 1467 1275.224 C 1467 1269.042, 1467.244 1268.263, 1470 1265.662 C 1472.250 1263.538, 1473.009 1261.914, 1473.035 1259.165 C 1473.078 1254.777, 1474.548 1251.915, 1478.250 1249.011 C 1481.865 1246.177, 1481.729 1245.413, 1477.203 1243.104 C 1471.564 1240.227, 1466.898 1239.668, 1459.268 1240.955 C 1449.789 1242.554, 1447.585 1241.571, 1444.377 1234.318 C 1439.243 1222.710, 1438.469 1216.202, 1440.877 1204.896 C 1443.616 1192.030, 1443.569 1190.830, 1440.046 1183.579 C 1436.109 1175.477, 1434 1166.971, 1434 1159.192 L 1434 1152.804 1428.009 1153.499 L 1422.018 1154.194 1420.259 1150.949 C 1415.451 1142.081, 1409.961 1137.958, 1394.398 1131.526 C 1375.402 1123.676, 1360.133 1112.023, 1351.779 1099 C 1343.107 1085.481, 1336.324 1072.941, 1333.234 1064.715 C 1330.133 1056.459, 1328.758 1054.455, 1314.393 1037.260 C 1305.870 1027.059, 1299.104 1018.171, 1299.358 1017.510 C 1300.718 1013.966, 1355.071 940.697, 1359.623 936.272 C 1362.580 933.397, 1365.021 930.247, 1365.047 929.272 C 1365.258 921.393, 1364.813 897.676, 1364.435 896.692 C 1363.303 893.741, 1357.813 892.350, 1329.658 887.884 C 1313.246 885.280, 1299.616 882.949, 1299.371 882.704 C 1298.743 882.077, 1292.045 836.182, 1292.020 832.340 C 1292.009 830.602, 1293.287 826.459, 1294.859 823.134 L 1297.718 817.088 1290.346 789.794 C 1286.292 774.782, 1281.314 756.164, 1279.283 748.420 L 1275.592 734.340 1285.647 719.959 C 1291.178 712.050, 1295.521 704.884, 1295.299 704.036 C 1294.994 702.868, 1293.822 702.579, 1290.475 702.845 C 1280.099 703.671, 1273.588 694.210, 1273.375 678 C 1273.289 671.373, 1272.577 666.245, 1271.022 661.043 C 1268.647 653.100, 1268.711 648.985, 1271.304 642.801 C 1272.982 638.799, 1278.226 635.629, 1290.750 631.044 C 1294.188 629.786, 1297 628.424, 1297 628.019 C 1297 627.613, 1295.429 625.306, 1293.510 622.891 C 1291.590 620.476, 1290.015 618, 1290.010 617.389 C 1290.004 616.778, 1292.923 614.388, 1296.495 612.078 C 1300.067 609.768, 1304.382 606.218, 1306.084 604.189 C 1313.921 594.847, 1320.619 562.145, 1315.919 556.169 C 1312.365 551.652, 1313.244 543.995, 1317.937 538.573 C 1322.214 533.631, 1321.995 534.521, 1324.355 512.471 C 1325.964 497.442, 1325.380 491.617, 1321.733 486.292 C 1316.796 479.085, 1316.473 477.595, 1318.534 471.530 C 1320.369 466.133, 1320.365 465.957, 1318.249 457.283 C 1316.886 451.700, 1315.899 443.606, 1315.540 435.070 C 1315.229 427.684, 1314.865 421.532, 1314.732 421.399 C 1314.599 421.265, 1303.692 421.781, 1290.495 422.544 C 1277.298 423.308, 1264.142 423.948, 1261.261 423.966 L 1256.021 424 1243.701 405.250 C 1227.019 379.862, 1223.520 377, 1209.167 377 C 1197.405 377, 1196.773 376.205, 1187.483 349.708 C 1185.633 344.432, 1183.370 342.518, 1176.563 340.469 C 1174.069 339.718, 1166.562 335.931, 1159.880 332.052 C 1153.199 328.173, 1147.455 325.017, 1147.116 325.039 C 1146.777 325.060, 1145.594 326.522, 1144.486 328.289 C 1141.686 332.756, 1137.762 333.097, 1133.628 329.232 C 1131.908 327.624, 1128.853 325.091, 1126.841 323.604 L 1123.182 320.901 1119.841 323.804 C 1110.238 332.147, 1106.130 331.014, 1094.844 316.912 C 1090.051 310.924, 1083.860 308.010, 1066.344 303.497 C 1055.195 300.624, 1051.211 299.996, 1047.592 300.538 C 1039.978 301.680, 1038.404 299.950, 1037.767 289.740 C 1037.134 279.600, 1034.242 272, 1031.016 272 C 1028.739 272, 1022.186 275.073, 1017.658 278.265 C 1014.900 280.208, 1014.594 280.219, 1007.372 278.632 C 1001.280 277.294, 996.745 277.117, 982.398 277.658 L 964.869 278.319 965.027 282.410 C 965.271 288.695, 965.267 288.702, 960.818 289.413 C 948.317 291.412, 936.172 291.980, 929.300 290.887 C 918.718 289.204, 909.063 290.884, 897.582 296.407 C 892.587 298.810, 885.046 302.402, 880.825 304.390 C 867.993 310.431, 865.368 313.905, 861.927 329.393 C 860.700 334.917, 860.239 335.564, 854.559 339.751 C 851.227 342.208, 845.350 345.804, 841.500 347.742 C 837.650 349.681, 829.851 354.357, 824.168 358.134 C 812.715 365.745, 811.362 366.049, 802.492 362.997 C 799.291 361.896, 796.490 361.177, 796.268 361.399 C 796.046 361.621, 796.514 363.992, 797.308 366.667 C 799.557 374.239, 801.538 392.575, 800.440 395.656 C 799.128 399.335, 793.447 403.643, 786.845 405.963 C 778.153 409.018, 758.605 410.285, 749.113 408.409 L 741.500 406.904 727.500 414.035 L 713.500 421.165 707.927 418.590 C 693.919 412.118, 686.892 413.013, 672.939 423.044 C 659.595 432.637, 655.335 434.404, 647.602 433.554 C 637.779 432.475, 630.100 430.153, 620.630 425.400 C 615.752 422.951, 608.102 419.421, 603.630 417.556 C 599.159 415.690, 588.750 410.936, 580.500 406.992 C 560.043 397.213, 552.764 394.862, 544.042 395.217 C 537.590 395.479, 536.927 395.304, 534.093 392.589 C 530.661 389.301, 524.327 377.557, 521.007 368.324 C 518.183 360.471, 516.965 359.222, 505.624 352.547 C 487.926 342.131, 483.294 341.047, 477.653 346 C 473.199 349.910, 469.023 349.907, 459.810 345.987 C 445.499 339.897, 428.802 326.491, 425.328 318.300 C 422.359 311.300, 420.122 300.767, 417.387 280.901 L 414.673 261.179 411.392 261.711 C 405.399 262.684, 401.326 261.059, 390.629 253.430 C 381.853 247.170, 379.567 244.972, 376.886 240.211 C 374.985 236.834, 369.017 229.853, 362.285 223.131 C 355.380 216.237, 351.021 211.120, 351.208 210.131 C 351.718 207.435, 357.414 207.585, 363.694 210.460 C 370.484 213.569, 370.731 213.395, 373.102 203.856 L 374.901 196.614 370.504 189.557 C 359.550 171.980, 360.848 167.301, 376.317 168.603 L 383.500 169.208 376 162.231 C 371.875 158.394, 365.350 151.407, 361.500 146.705 L 354.500 138.155 338.662 146.235 C 317.246 157.160, 312.391 160.469, 306.011 168.486 C 302.218 173.253, 299.262 175.881, 296.142 177.261 C 293.693 178.345, 288.946 181.941, 285.594 185.254 C 280.570 190.219, 278.953 191.248, 276.383 191.116 C 273.715 190.978, 272.146 192.107, 265.470 198.968 C 255.915 208.786, 250.908 211.483, 243.664 210.713 C 240.824 210.412, 237.786 209.883, 236.912 209.538 C 235.798 209.098, 234.520 210.127, 232.626 212.989 C 228.946 218.549, 224.041 220.868, 219.710 219.093 C 209.196 214.783, 203.180 212.916, 195.325 211.525 C 190.471 210.666, 182.472 208.936, 177.549 207.681 L 168.597 205.398 164.549 198.785 C 159.426 190.417, 157.683 188.520, 151.440 184.514 C 145.597 180.766, 141.869 176.321, 136.330 166.500 C 126.039 148.254, 124.049 146.074, 112.884 140.803 C 101.016 135.200, 101.240 135.238, 99.975 138.565 M 938.500 1258.429 C 933 1260.329, 926.587 1262.377, 924.250 1262.980 C 919.365 1264.241, 918.587 1266.732, 922.250 1269.387 C 924.833 1271.258, 925.265 1270.812, 914.915 1276.958 C 910.988 1279.289, 904.971 1281.703, 900.013 1282.937 C 895.439 1284.076, 891.090 1285.511, 890.348 1286.126 C 888.522 1287.642, 888.639 1291.924, 890.526 1292.648 C 893.977 1293.972, 906.361 1291.003, 917.899 1286.084 C 931.356 1280.347, 931.992 1280.229, 934.500 1283 C 935.495 1284.100, 936.708 1285, 937.194 1285 C 938.680 1285, 945.667 1277.690, 947.334 1274.391 C 948.237 1272.604, 950.308 1270.719, 952.203 1269.959 C 959.532 1267.020, 966.146 1262.045, 965.816 1259.720 C 965.538 1257.770, 964.711 1257.419, 959 1256.834 C 955.425 1256.468, 951.600 1255.900, 950.500 1255.571 C 949.372 1255.235, 944.142 1256.480, 938.500 1258.429 M 935.500 1262.398 C 924.086 1266.316, 923.585 1266.602, 925.250 1268.259 C 927.620 1270.617, 927.450 1272.681, 924.750 1274.317 C 912.073 1281.998, 907.621 1284.141, 901.440 1285.537 C 897.579 1286.409, 893.818 1287.494, 893.082 1287.949 C 891.126 1289.159, 892.737 1291.202, 894.811 1290.141 C 895.740 1289.665, 898.750 1289.012, 901.500 1288.689 C 904.250 1288.367, 911.653 1285.830, 917.951 1283.051 C 930.693 1277.430, 931.813 1277.218, 935.028 1279.822 C 937.239 1281.612, 937.335 1281.590, 940.538 1278.572 C 942.331 1276.882, 944.529 1274.039, 945.423 1272.253 C 946.440 1270.221, 948.442 1268.425, 950.774 1267.451 C 957.903 1264.474, 963.395 1260.798, 961.897 1260.006 C 956.990 1257.414, 947.517 1258.273, 935.500 1262.398" stroke="none" fill="#111111" fill-rule="evenodd"/>
</svg>